<svg width="312" height="280" viewBox="0 0 312 280" fill="none" xmlns="http://www.w3.org/2000/svg">
<path fill-rule="evenodd" clip-rule="evenodd" d="M52.4362 7.30343C62.9583 2.49917 74.3008 0 85.8004 0C97.3 0 108.642 2.49917 119.165 7.30343C129.681 12.1051 139.128 19.0935 147.013 27.785C151.823 33.0864 160.178 33.0864 164.987 27.7849C180.927 10.2142 202.906 0.000196375 226.2 0.000196375C249.494 0.000197302 271.472 10.2142 287.413 27.7849C303.306 45.3035 312 68.756 312 92.9211C312 117.086 303.306 140.539 287.413 158.057L190.721 264.638C172.139 285.121 139.861 285.121 121.279 264.638L24.5877 158.057C16.7055 149.369 10.526 139.138 6.33388 127.982C2.14208 116.827 0 104.917 0 92.9211C0 80.9249 2.14208 69.0154 6.33388 57.8605C10.526 46.7048 16.7055 36.4732 24.5876 27.785C32.4725 19.0935 41.9197 12.1051 52.4362 7.30343Z" fill="#FFF1F5"/>
</svg>
