<svg width="24" height="24" viewBox="0 0 24 24" fill="none" xmlns="http://www.w3.org/2000/svg">
<path d="M16.2354 3C18.8667 3.0001 21 5.01478 21 7.5C21 9.18284 20.0218 10.6499 18.5732 11.4219C18.7743 12.0817 18.8818 12.7791 18.8818 13.5L18.8721 13.8857C18.6594 17.8484 15.1899 20.9988 10.9414 20.999L10.5322 20.9893C6.47185 20.7947 3.21558 17.7206 3.00977 13.8857L3 13.5C3.0001 9.35802 6.5558 6.00013 10.9414 6L11.3496 6.00977C11.4766 6.01584 11.6032 6.02448 11.7285 6.03613C12.3717 4.26954 14.1465 3 16.2354 3ZM10.9414 9.375C8.23546 9.37513 6.37511 11.4011 6.375 13.5C6.3752 15.5988 8.23553 17.6239 10.9414 17.624C13.6472 17.6238 15.5066 15.5988 15.5068 13.5C15.5068 12.9423 15.3754 12.3897 15.1318 11.8789C13.7313 11.5653 12.5702 10.6677 11.9521 9.47363C11.6311 9.40938 11.2933 9.37503 10.9414 9.375Z" fill="white"/>
</svg>
