<svg width="24" height="24" viewBox="0 0 24 24" fill="none" xmlns="http://www.w3.org/2000/svg">
<g opacity="0.4">
<path d="M21.998 10C21.9991 10.1027 22 10.2072 22 10.3125V15.6885C22 17.37 21.9654 19.4174 20.6914 20.6914C19.4174 21.9655 17.37 22 15.6885 22H8.31152C6.63004 22 4.58264 21.9655 3.30859 20.6914C2.03456 19.4174 2.00001 17.37 2 15.6885V10.3125C2 10.2072 2.00086 10.1027 2.00195 10H21.998ZM18 2C18.5522 2.00005 19 2.44775 19 3V4.34668C19.6491 4.53995 20.2235 4.84071 20.6914 5.30859C21.4095 6.02673 21.7237 7.01722 21.8662 8H2.13379C2.27634 7.01721 2.59046 6.02673 3.30859 5.30859C3.77647 4.84074 4.35097 4.53994 5 4.34668V3C5 2.44772 5.44772 2 6 2C6.55224 2.00005 7 2.44775 7 3V4.03516C7.41099 4.01048 7.84824 4.00001 8.31152 4H15.6875C16.151 4 16.5889 4.01047 17 4.03516V3C17 2.44772 17.4477 2 18 2Z" fill="#FF5A90"/>
</g>
</svg>
