<?xml version="1.0" encoding="utf-8"?>
<!-- Generator: Adobe Illustrator 23.1.0, SVG Export Plug-In . SVG Version: 6.00 Build 0)  -->
<svg version="1.1" xmlns="http://www.w3.org/2000/svg" xmlns:xlink="http://www.w3.org/1999/xlink" x="0px" y="0px"
	 viewBox="0 0 80 80" style="enable-background:new 0 0 80 80;" xml:space="preserve">
<style type="text/css">
	.st0{fill:#6F8653;}
	.st1{fill:#EBB044;}
	.st2{fill:#EEC27E;}
	.st3{fill:#DBA44B;}
	.st4{fill:#725846;}
	.st5{fill:#E8CA48;}
	.st6{fill:#F2DC7D;}
	.st7{fill:#CDB44D;}
	.st8{fill:#F8F8E1;}
	.st9{fill:#E4D049;}
	.st10{fill:#EDDC60;}
	.st11{fill:#E7E474;}
	.st12{fill:#809764;}
	.st13{fill:#46684B;}
	.st14{fill:#4D724F;}
	.st15{fill:#7D8E54;}
	.st16{fill:#4E7553;}
	.st17{fill:#456449;}
	.st18{fill:#415E46;}
	.st19{fill:#D6E06F;}
	.st20{fill:#A46246;}
	.st21{fill:#A97361;}
	.st22{fill:#6D8A56;}
	.st23{fill:#DB7B43;}
	.st24{fill:#EDB862;}
	.st25{fill:#DD8347;}
	.st26{fill:#E09A79;}
	.st27{fill:#D76B43;}
	.st28{fill:#C66849;}
	.st29{fill:#8E8079;}
	.st30{fill:#D98065;}
	.st31{fill:#C56647;}
	.st32{fill:#EFD9BA;}
	.st33{fill:#D45D45;}
	.st34{fill:#DD8075;}
	.st35{fill:#DAC6AD;}
	.st36{fill:#657F51;}
	.st37{fill:#556946;}
	.st38{fill:#7D9657;}
	.st39{fill:#7B706B;}
	.st40{fill:#93A47A;}
	.st41{fill:#6A7E4F;}
	.st42{fill:#E7E5D1;}
	.st43{fill:#CFD26A;}
	.st44{fill:#EDF0BC;}
	.st45{fill:#B6AA50;}
	.st46{fill:#A39C74;}
	.st47{fill:#D1C474;}
	.st48{fill:#93854C;}
	.st49{fill:#867B4A;}
	.st50{fill:#291D10;}
	.st51{fill:#AA9B50;}
	.st52{fill:#E5D263;}
	.st53{fill:#DC7F44;}
	.st54{fill:#E0956D;}
	.st55{fill:#EAAB44;}
	.st56{fill:#8CAC59;}
	.st57{fill:#657E4F;}
	.st58{fill:#97A779;}
	.st59{fill:#D14A4A;}
	.st60{fill:#97C35A;}
	.st61{fill:#89A559;}
	.st62{fill:#CB7A5E;}
	.st63{fill:#BE725E;}
	.st64{fill:#B16955;}
	.st65{fill:#D18D7D;}
	.st66{fill:#5D4837;}
	.st67{fill:#9C5B44;}
	.st68{fill:#D69747;}
	.st69{fill:#6A8E58;}
	.st70{fill:#80A071;}
	.st71{fill:#F1EB66;}
	.st72{fill:#EAC647;}
	.st73{fill:#F3EA8A;}
	.st74{fill:#CEA04A;}
	.st75{fill:#473321;}
	.st76{fill:#93AD7C;}
	.st77{fill:#EFD1A2;}
	.st78{fill:#91A87A;}
	.st79{fill:#6E8E42;}
	.st80{fill:#586889;}
	.st81{fill:#77859F;}
	.st82{fill:#83A25A;}
	.st83{fill:#B2C495;}
	.st84{fill:#947659;}
	.st85{fill:#4E6E4F;}
	.st86{fill:#524160;}
	.st87{fill:#3D3649;}
	.st88{fill:#6B5C7A;}
	.st89{fill:#2F3338;}
	.st90{fill:#212428;}
	.st91{fill:#282D32;}
	.st92{fill:#42484E;}
	.st93{fill:#252B2E;}
	.st94{fill:#6B3F3C;}
	.st95{fill:#645E57;}
	.st96{fill:#517E55;}
	.st97{fill:#2E4135;}
	.st98{fill:none;}
	.st99{fill:#6E8B70;}
	.st100{fill:#3D5545;}
	.st101{fill:#628A64;}
	.st102{fill:#F9F9E3;}
	.st103{fill:#D96F60;}
	.st104{fill:#C0645A;}
	.st105{fill:#543E2C;}
	.st106{fill:#7F4B49;}
	.st107{fill:#9E6345;}
	.st108{fill:#994D49;}
	.st109{fill:#A46A69;}
	.st110{fill:#8F5B42;}
	.st111{fill:#8E4948;}
	.st112{fill:#85986E;}
	.st113{fill:#6D7290;}
	.st114{fill:#626880;}
	.st115{fill:#9C9385;}
	.st116{fill:#F2D55A;}
	.st117{clip-path:url(#SVGID_2_);}
	.st118{fill:#E2AC54;}
	.st119{opacity:0.31;fill:#F9EFC5;}
	.st120{opacity:0.31;fill:#FFFBE9;}
	.st121{fill:#DDC862;}
	.st122{fill:#FFF3C2;}
	.st123{fill:#E8C046;stroke:#7A695F;stroke-width:0.15;stroke-miterlimit:10;}
	.st124{fill:#DBB248;}
	.st125{fill:#6F5753;}
	.st126{fill:#E8C046;stroke:#77655B;stroke-width:0.15;stroke-miterlimit:10;}
	.st127{fill:#83A15C;}
	.st128{fill:#698C3C;}
	.st129{fill:#809D5B;}
	.st130{fill:#4A6224;}
	.st131{fill:#85A55C;}
	.st132{fill:#506B26;}
	.st133{fill:#82A15B;}
	.st134{fill:#698958;}
	.st135{fill:#DD8344;}
	.st136{fill:#B56721;}
	.st137{fill:#C2463A;}
	.st138{fill:#CC6E64;}
	.st139{fill:#5EA817;}
	.st140{fill:#5F8F22;}
	.st141{fill:#C24F3C;}
	.st142{fill:#AB4A39;}
	.st143{fill:#BB413C;}
	.st144{fill:#EA7142;}
	.st145{fill:#ED835B;}
	.st146{fill:#E76D18;}
	.st147{fill:#56734E;}
	.st148{fill:#CBC797;}
	.st149{fill:#F1F0E1;}
	.st150{fill:#DBD9CA;}
	.st151{fill:#496042;}
	.st152{fill:#547534;}
	.st153{fill:#C0D591;}
	.st154{fill:#B3C483;}
	.st155{fill:#DFEAC1;}
	.st156{fill:#D5DDB8;}
	.st157{fill:#577F36;}
	.st158{fill:#4D6D2F;}
	.st159{fill:#4F6B32;}
	.st160{fill:#AAC654;}
	.st161{fill:#A0B252;}
	.st162{fill:#9B3743;}
	.st163{fill:#A34D5B;}
	.st164{fill:#75434B;}
	.st165{fill:#80333D;}
	.st166{fill:#722F3A;}
	.st167{fill:#8E424F;}
	.st168{fill:#A5273F;}
	.st169{fill:#9B2944;}
	.st170{fill:#93B250;}
	.st171{fill:#778950;}
	.st172{fill:#B1B297;}
	.st173{fill:#5D6B3E;}
	.st174{fill:#769328;}
	.st175{fill:#B9BC9D;}
	.st176{fill:#B4CE6E;}
	.st177{fill:#CCCEAF;}
	.st178{fill:#AEAF94;}
	.st179{fill:#E8C046;stroke:#7F6D62;stroke-width:0.15;stroke-miterlimit:10;}
	.st180{fill:#B7C661;}
	.st181{fill:#CED893;stroke:#ACB25F;stroke-width:0.5;stroke-miterlimit:10;}
	.st182{fill:#D79F4A;}
	.st183{clip-path:url(#SVGID_4_);}
	.st184{fill:#CDD98D;}
	.st185{fill:#FADA37;}
	.st186{fill:#CCB244;}
	.st187{fill:#FAE089;}
	.st188{fill:#FFED90;}
	.st189{fill:#ECDB6F;}
	.st190{fill:#FECF73;}
	.st191{fill:#CEA865;}
	.st192{fill:#EDDFCA;}
	.st193{fill:#EBDECA;}
	.st194{fill:#638408;}
	.st195{fill:#CE9F41;}
	.st196{fill:#F7BA23;}
	.st197{fill:#EAAE2A;}
	.st198{fill:#F2CE36;}
	.st199{fill:#F9D53D;}
	.st200{fill:#FCDA4F;}
	.st201{fill:#F7E289;}
	.st202{fill:#668F05;}
	.st203{fill:#597214;}
	.st204{fill:#8BA040;}
	.st205{fill:#7AA122;}
	.st206{fill:#95BB28;}
	.st207{fill:#E7F2A6;}
	.st208{fill:#C4CC75;}
	.st209{fill:#87A82C;}
	.st210{fill:#9FBF45;}
	.st211{fill:#728E25;}
	.st212{fill:#7D4E30;}
	.st213{fill:#3F5A2F;}
	.st214{fill:#4B7837;}
	.st215{fill:#85A93F;}
	.st216{fill:#693F26;}
	.st217{fill:#8C7668;}
	.st218{fill:#EDE9E6;}
	.st219{fill:#FFFDFC;}
	.st220{fill:#846F5C;}
	.st221{clip-path:url(#SVGID_6_);}
	.st222{fill:#B2A594;}
	.st223{fill:#E4DDD5;}
	.st224{fill:#A16D46;}
	.st225{fill:#9A8E42;}
	.st226{fill:#BBB061;}
	.st227{fill:#A08F41;}
	.st228{fill:#C1AD56;}
	.st229{opacity:0.7;}
	.st230{fill:#DACA7F;}
	.st231{fill:#EEE49F;}
	.st232{opacity:0.5;}
	.st233{fill:#FFF9D7;}
	.st234{fill:#7C7F32;}
	.st235{fill:#95A84C;}
	.st236{fill:#D8B45C;}
	.st237{fill:#FCC572;}
	.st238{fill:#FED49A;}
	.st239{fill:#C0782C;}
	.st240{fill:#D49430;}
	.st241{fill:#F5D19D;}
	.st242{opacity:0.35;}
	.st243{fill:#F9AFC9;}
	.st244{fill:#F9CDDE;}
	.st245{fill:#FFF3F8;}
	.st246{fill:#F4A2C3;}
	.st247{fill:#FFFFFF;}
	.st248{fill:#D7F2F9;}
	.st249{fill:#492743;}
	.st250{fill:#20131D;}
	.st251{fill:#685364;}
	.st252{fill:#748115;}
	.st253{fill:#A7B86A;}
</style>
<g id="Слой_1">
</g>
<g id="Слой_2">
</g>
<g id="Слой_4">
</g>
<g id="Слой_3">
	<g>
		<path class="st147" d="M48.03,34.84c0,0,0.96-6.42,5.97-6.42c0,0,2.65,6.16-1.94,10.78L48.03,34.84z"/>
		<path class="st147" d="M27.99,38.4c0,0-6.44-0.77-6.59-5.78c0,0,6.08-2.83,10.84,1.63L27.99,38.4z"/>
		<path class="st147" d="M40.49,60.73c0,0,4.63,4.55,1.68,8.61c0,0-6.54-1.48-7.58-7.92L40.49,60.73z"/>
		<g>
			<path class="st147" d="M71.71,31.36c0,0,3.25,0.16,4.57,2.82c0,0-0.66,3.13-4.2,3.72c0,0-0.47,2.17-3.36,3.14
				c0,0-0.42,3.04-2.83,3.47c0,0-0.75,2.4-3.01,2.73c-0.03,0.01-0.27,0.65-0.3,0.7c-0.3,0.56-0.69,1.08-1.13,1.53
				c-1.37,1.4-3.29,2.14-5.24,1.83c-2.03-0.33-4.21-2.35-6.37-1.67c0,0,0.14-11.29,3.62-9.42c0,0,2.75-6.26,5.4-5.34
				c0,0,1.03-3.79,3.75-3.16c0,0,2.39-1.72,2.97-0.07c0,0,2.95-2.61,3.71-0.49C69.27,31.13,70.8,29.61,71.71,31.36z"/>
		</g>
		<path class="st148" d="M47.96,48.88c0.14-0.02,0.29-0.05,0.43-0.08c1.16-0.22,2.22-0.58,3.27-1.11c-0.97-2.54,0.97-6.24,0.97-6.24
			c-0.93,2.77-0.55,4.94-0.29,5.88c0.85-0.47,1.66-0.98,2.45-1.55c-1.53-3.03,1.7-8.58,1.7-8.58c-1.89,4.03-1.34,6.94-0.99,8.05
			c1.01-0.79,2.02-1.6,2.94-2.49c0.09-0.08,0.18-0.17,0.26-0.25c-1.65-3.55,1.91-8.96,1.91-8.96c-2.07,4.02-1.6,6.93-1.17,8.26
			c0.44-0.42,0.87-0.85,1.27-1.29c0.47-0.52,0.94-1.07,1.42-1.61c-1.64-2.24,1.75-6.59,1.75-6.59c-1.81,3.36-1.47,5.26-1.19,5.99
			c0.54-0.56,1.12-1.08,1.76-1.51c0.07-0.05,0.14-0.09,0.21-0.14c-0.44-2.14,3.08-5.32,3.08-5.32c-1.9,2.4-2.21,3.97-2.19,4.81
			c0.82-0.41,1.69-0.74,2.58-0.99c-0.44-1.65,2.59-3.89,2.59-3.89c-2.08,2.27-2.22,3.33-2.13,3.76c0.83-0.22,1.67-0.38,2.48-0.5
			c0.83-0.13,1.67-0.19,2.51-0.19c0.32,0,0.64,0.02,0.96-0.01c-1.64,0.15-3.27,0.46-4.83,0.99c-0.23,0.08-0.45,0.16-0.68,0.24
			c0.44,0.3,1.51,0.63,4.12,0.33c0,0-3.5,1.11-4.62-0.13c-0.83,0.34-1.63,0.74-2.38,1.22c0.77,0.45,2.48,1.04,5.36,0.05
			c0,0-4.04,2.59-6.13,0.47c-0.33,0.24-0.66,0.5-0.97,0.77c-0.3,0.26-0.56,0.54-0.81,0.82c0.63,0.46,2.38,1.28,6.1,0.41
			c0,0-4.71,1.99-6.61,0.2c-0.32,0.4-0.64,0.8-0.98,1.2c-0.52,0.61-1.05,1.22-1.6,1.81c0.83,0.51,3.09,1.47,7.22,0.32
			c0,0-5.39,2.04-7.81,0.29c-0.43,0.44-0.88,0.86-1.34,1.26c-0.68,0.59-1.39,1.13-2.13,1.63c1.14,0.57,3.57,1.38,7.37,0.6
			c0,0-5.65,1.66-8.17-0.06c-0.29,0.19-0.59,0.37-0.89,0.56c-0.58,0.35-1.17,0.69-1.76,1.02c0.67,0.43,2.77,1.57,5.97,1.38
			c0,0-4.59,1.02-6.66-1c-0.43,0.23-0.86,0.46-1.29,0.69c-0.89,0.47-1.78,0.92-2.7,1.34c-0.35,0.16-0.71,0.3-1.08,0.44L47.96,48.88z
			"/>
		<g>
			<g>
				<path class="st147" d="M31.9,17.97c0,0,0.91-3.12,3.81-3.78c0,0,2.89,1.37,2.63,4.96c0,0,2,0.97,2.26,4c0,0,2.86,1.12,2.72,3.56
					c0,0,2.16,1.29,1.95,3.56c0,0.03,0.56,0.42,0.61,0.46c0.48,0.42,0.88,0.92,1.22,1.46c1.04,1.66,1.31,3.7,0.55,5.52
					c-0.8,1.9-3.27,3.55-3.11,5.81c0,0-10.94-2.78-8.32-5.73c0,0-5.44-4.14-3.93-6.5c0,0-3.44-1.89-2.19-4.38
					c0,0-1.11-2.72,0.62-2.9c0,0-1.85-3.48,0.39-3.72C31.1,20.29,29.99,18.44,31.9,17.97z"/>
			</g>
			<path class="st148" d="M43.37,45.17c0.02-0.14,0.02-0.29,0.03-0.44c0.06-1.18-0.04-2.3-0.31-3.44c-2.7,0.34-5.84-2.41-5.84-2.41
				c2.47,1.55,4.67,1.69,5.65,1.66c-0.26-0.93-0.57-1.85-0.93-2.74c-3.3,0.78-7.94-3.66-7.94-3.66c3.48,2.78,6.43,2.93,7.59,2.85
				c-0.53-1.17-1.08-2.33-1.73-3.44c-0.06-0.1-0.12-0.21-0.18-0.32c-3.84,0.77-8.27-3.96-8.27-3.96c3.42,2.95,6.37,3.18,7.76,3.07
				c-0.3-0.52-0.62-1.04-0.96-1.54c-0.4-0.58-0.83-1.16-1.23-1.76c-2.56,1.07-5.99-3.25-5.99-3.25c2.84,2.54,4.77,2.66,5.55,2.56
				c-0.41-0.66-0.78-1.34-1.05-2.06c-0.03-0.08-0.05-0.16-0.08-0.24c-2.18-0.08-4.45-4.24-4.45-4.24c1.89,2.4,3.35,3.08,4.16,3.25
				c-0.21-0.89-0.32-1.82-0.36-2.74c-1.7,0.04-3.17-3.43-3.17-3.43c1.72,2.55,2.72,2.94,3.16,2.95c-0.02-0.86,0.02-1.71,0.09-2.53
				c0.07-0.84,0.21-1.67,0.4-2.48c0.07-0.31,0.17-0.62,0.22-0.94c-0.23,1.63-0.32,3.29-0.17,4.93c0.02,0.24,0.05,0.48,0.08,0.72
				c0.4-0.36,0.97-1.32,1.29-3.92c0,0,0.26,3.66-1.21,4.46c0.14,0.88,0.34,1.76,0.63,2.6c0.62-0.65,1.59-2.16,1.3-5.2
				c0,0,1.57,4.54-0.98,6.07c0.16,0.38,0.33,0.76,0.52,1.12c0.18,0.35,0.39,0.67,0.61,0.98c0.59-0.51,1.8-2.02,1.83-5.83
				c0,0,0.83,5.05-1.36,6.47c0.31,0.41,0.63,0.81,0.94,1.23c0.47,0.65,0.94,1.31,1.38,1.98c0.69-0.69,2.15-2.66,2-6.95
				c0,0,0.73,5.72-1.54,7.66c0.32,0.52,0.63,1.05,0.91,1.6c0.41,0.8,0.77,1.62,1.09,2.45c0.83-0.98,2.17-3.15,2.3-7.02
				c0,0,0.29,5.88-1.97,7.92c0.11,0.33,0.23,0.66,0.33,1c0.2,0.65,0.4,1.3,0.58,1.95c0.58-0.55,2.18-2.32,2.74-5.48
				c0,0-0.08,4.7-2.54,6.24c0.13,0.47,0.25,0.94,0.37,1.42c0.25,0.97,0.48,1.95,0.67,2.93c0.07,0.38,0.12,0.76,0.18,1.15
				L43.37,45.17z"/>
		</g>
		<g>
			<g>
				<path class="st147" d="M9.47,35.13c0,0-3.25,0.12-4.57,2.25c0,0,0.66,2.5,4.2,2.97c0,0,0.47,1.73,3.36,2.5
					c0,0,0.42,2.42,2.83,2.77c0,0,0.75,1.91,3.01,2.18c0.03,0,0.27,0.52,0.3,0.56c0.3,0.45,0.69,0.86,1.13,1.22
					c1.37,1.11,3.29,1.71,5.24,1.46c2.03-0.26,4.21-1.87,6.37-1.33c0,0-0.14-9-3.62-7.52c0,0-2.75-5-5.4-4.26
					c0,0-1.03-3.02-3.75-2.52c0,0-2.39-1.37-2.97-0.06c0,0-2.95-2.08-3.71-0.39C11.91,34.94,10.38,33.73,9.47,35.13z"/>
			</g>
			<path class="st148" d="M33.22,49.1c-0.14-0.01-0.29-0.04-0.43-0.06c-1.16-0.17-2.23-0.46-3.27-0.88
				c0.97-2.03-0.97-4.98-0.97-4.98c0.93,2.21,0.55,3.94,0.29,4.69c-0.85-0.38-1.66-0.78-2.45-1.24c1.53-2.41-1.7-6.84-1.7-6.84
				c1.89,3.21,1.34,5.53,0.99,6.42c-1.01-0.63-2.01-1.28-2.94-1.98c-0.09-0.07-0.18-0.13-0.26-0.2c1.65-2.83-1.91-7.15-1.91-7.15
				c2.07,3.21,1.6,5.53,1.17,6.59c-0.44-0.33-0.87-0.67-1.27-1.03c-0.47-0.42-0.94-0.86-1.42-1.28c1.64-1.79-1.75-5.26-1.75-5.26
				c1.81,2.68,1.47,4.2,1.19,4.78c-0.54-0.44-1.12-0.86-1.76-1.2c-0.07-0.04-0.14-0.07-0.21-0.11c0.44-1.71-3.08-4.24-3.08-4.24
				c1.9,1.91,2.21,3.17,2.19,3.83c-0.82-0.33-1.69-0.59-2.58-0.79c0.44-1.31-2.59-3.1-2.59-3.1c2.08,1.81,2.22,2.66,2.13,3
				c-0.83-0.17-1.67-0.3-2.48-0.4c-0.83-0.1-1.67-0.15-2.51-0.15c-0.32,0-0.64,0.02-0.96-0.01c1.64,0.12,3.27,0.37,4.83,0.79
				c0.23,0.06,0.45,0.13,0.68,0.19c-0.44,0.24-1.51,0.5-4.12,0.27c0,0,3.5,0.88,4.62-0.11c0.83,0.27,1.63,0.59,2.38,0.97
				c-0.77,0.36-2.48,0.83-5.36,0.04c0,0,4.04,2.06,6.13,0.38c0.33,0.19,0.66,0.4,0.97,0.61c0.3,0.21,0.56,0.43,0.81,0.65
				c-0.63,0.36-2.38,1.02-6.1,0.33c0,0,4.71,1.59,6.61,0.16c0.32,0.32,0.64,0.64,0.98,0.96c0.52,0.49,1.05,0.97,1.6,1.44
				c-0.83,0.41-3.09,1.17-7.22,0.26c0,0,5.39,1.63,7.81,0.23c0.43,0.35,0.88,0.69,1.34,1.01c0.68,0.47,1.39,0.9,2.13,1.3
				c-1.14,0.46-3.57,1.1-7.37,0.48c0,0,5.65,1.33,8.17-0.05c0.29,0.15,0.59,0.3,0.89,0.44c0.58,0.28,1.17,0.55,1.76,0.81
				c-0.67,0.34-2.77,1.26-5.97,1.1c0,0,4.59,0.82,6.66-0.8c0.43,0.19,0.86,0.37,1.29,0.55c0.89,0.37,1.78,0.74,2.7,1.07
				c0.35,0.13,0.71,0.24,1.08,0.35L33.22,49.1z"/>
		</g>
		<g>
			<g>
				<path class="st149" d="M36.13,33.23c-0.29,0.8,0.06,1.7,0.81,2.3c-0.54,0.2-0.96,0.58-1.15,1.1c-0.38,1.07,0.38,2.32,1.7,2.8
					c0.21,0.08,0.42,0.12,0.63,0.15c-0.02,0.72,0.53,1.45,1.39,1.76c0.5,0.18,1.02,0.18,1.44,0.04c0.24,0.38,0.64,0.71,1.14,0.89
					c0.47,0.17,0.95,0.18,1.36,0.06c0.24,0.35,0.62,0.65,1.09,0.82c0.51,0.18,1.02,0.18,1.45,0.04c0.24,0.18,0.51,0.34,0.82,0.45
					c1.33,0.48,2.71-0.01,3.1-1.08c0-0.01,0-0.01,0.01-0.02c0.09,0.04,0.18,0.08,0.28,0.12c1.33,0.48,2.71-0.01,3.1-1.08
					c0.09-0.25,0.12-0.51,0.09-0.77c0.17-0.14,0.3-0.31,0.37-0.51c0.18-0.49-0.01-1.04-0.44-1.44c0.17-0.79-0.41-1.65-1.36-1.99
					c-0.34-0.12-0.68-0.16-1.01-0.13c0-0.34-0.12-0.67-0.34-0.97c0.07-0.1,0.13-0.21,0.17-0.32c0.3-0.83-0.29-1.79-1.32-2.16
					c-0.05-0.02-0.1-0.03-0.15-0.05c-0.23-0.69-0.85-1.31-1.7-1.62c-0.9-0.32-1.83-0.2-2.45,0.24c-0.19-0.15-0.41-0.27-0.66-0.36
					c-0.42-0.15-0.85-0.18-1.23-0.1c-0.24-0.3-0.59-0.56-1.01-0.71c-0.78-0.28-1.59-0.13-2.06,0.33c-0.15-0.1-0.32-0.18-0.5-0.25
					c-1.02-0.37-2.09,0-2.39,0.83c-0.06,0.17-0.08,0.35-0.07,0.52C36.73,32.34,36.31,32.71,36.13,33.23z"/>
				<path class="st150" d="M47.86,44c-0.37,0-0.74-0.06-1.1-0.19c-0.28-0.1-0.55-0.24-0.79-0.42c-0.46,0.13-0.99,0.11-1.48-0.07
					c-0.44-0.16-0.83-0.44-1.1-0.78c-0.43,0.1-0.9,0.06-1.35-0.1c-0.48-0.17-0.88-0.47-1.15-0.85c-0.18,0.05-0.38,0.07-0.57,0.07
					l0,0c-0.29,0-0.58-0.05-0.86-0.15c-0.85-0.31-1.45-1.02-1.5-1.78c-0.18-0.03-0.35-0.08-0.52-0.14
					c-1.42-0.51-2.23-1.87-1.81-3.03c0.17-0.47,0.51-0.85,0.99-1.09c-0.67-0.66-0.93-1.54-0.65-2.31c0.18-0.51,0.58-0.91,1.11-1.15
					c0-0.16,0.03-0.32,0.09-0.47c0.24-0.66,0.93-1.09,1.76-1.09c0.29,0,0.58,0.05,0.86,0.15c0.15,0.05,0.29,0.12,0.42,0.19
					c0.53-0.43,1.38-0.55,2.14-0.27c0.4,0.14,0.75,0.38,1.02,0.68c0.4-0.06,0.82-0.02,1.22,0.12c0.22,0.08,0.42,0.18,0.6,0.31
					c0.68-0.43,1.64-0.5,2.51-0.19c0.84,0.3,1.49,0.91,1.77,1.64c0.02,0.01,0.05,0.02,0.07,0.02c0.53,0.19,0.98,0.54,1.24,0.98
					c0.28,0.46,0.34,0.96,0.18,1.41c-0.03,0.09-0.07,0.17-0.12,0.26c0.16,0.25,0.26,0.51,0.29,0.78c0.3,0,0.6,0.05,0.9,0.15
					c0.99,0.36,1.62,1.25,1.49,2.1c0.44,0.45,0.6,1.04,0.42,1.56c-0.07,0.2-0.19,0.38-0.36,0.53c0.02,0.26-0.02,0.52-0.1,0.76
					c-0.3,0.84-1.18,1.38-2.23,1.38c-0.37,0-0.74-0.07-1.1-0.19c-0.04-0.01-0.08-0.03-0.12-0.05C49.67,43.52,48.84,44,47.86,44z
					 M46.03,42.99l0.08,0.06c0.24,0.18,0.5,0.32,0.77,0.42c0.32,0.11,0.65,0.17,0.97,0.17c0.9,0,1.64-0.45,1.89-1.14l0.07-0.19
					L50,42.38c0.1,0.05,0.18,0.08,0.27,0.11c0.32,0.11,0.65,0.17,0.97,0.17c0.9,0,1.64-0.45,1.89-1.14c0.08-0.22,0.1-0.45,0.08-0.69
					l-0.01-0.1l0.08-0.06c0.15-0.12,0.26-0.27,0.32-0.43c0.15-0.41,0-0.89-0.39-1.25l-0.07-0.07l0.02-0.1
					c0.15-0.71-0.39-1.48-1.25-1.78c-0.3-0.11-0.62-0.15-0.93-0.12l-0.2,0.02l0-0.2c0-0.29-0.1-0.59-0.3-0.86l-0.08-0.1l0.08-0.11
					c0.06-0.09,0.11-0.18,0.15-0.28c0.12-0.35,0.07-0.74-0.15-1.1c-0.23-0.37-0.6-0.67-1.06-0.83c-0.05-0.02-0.09-0.03-0.14-0.04
					l-0.09-0.03l-0.03-0.09c-0.23-0.67-0.82-1.23-1.59-1.5c-0.8-0.29-1.7-0.2-2.29,0.22l-0.11,0.08l-0.11-0.08
					c-0.18-0.14-0.39-0.25-0.61-0.33c-0.37-0.13-0.77-0.16-1.14-0.09l-0.11,0.02l-0.07-0.09c-0.23-0.29-0.56-0.52-0.93-0.65
					c-0.68-0.25-1.45-0.12-1.88,0.29l-0.1,0.1l-0.12-0.08c-0.15-0.09-0.3-0.17-0.46-0.23c-0.24-0.09-0.49-0.13-0.74-0.13
					c-0.68,0-1.24,0.34-1.42,0.85c-0.05,0.14-0.07,0.29-0.06,0.45l0.01,0.13l-0.12,0.05c-0.5,0.19-0.86,0.54-1.02,0.98
					c-0.25,0.7,0.04,1.53,0.75,2.1l0.24,0.2L37,35.7c-0.51,0.19-0.88,0.54-1.04,0.99c-0.35,0.98,0.37,2.13,1.6,2.57
					c0.19,0.07,0.39,0.12,0.6,0.15l0.16,0.02l-0.01,0.16c-0.02,0.66,0.5,1.31,1.27,1.59c0.44,0.16,0.92,0.17,1.33,0.04l0.13-0.04
					l0.07,0.12c0.23,0.37,0.6,0.65,1.05,0.81c0.42,0.15,0.86,0.17,1.25,0.06l0.12-0.03l0.07,0.11c0.23,0.33,0.59,0.6,1,0.75
					c0.45,0.16,0.93,0.17,1.33,0.04L46.03,42.99z"/>
			</g>
			<path class="st149" d="M42.2,45.16c0,3.89-2.74,7.05-6.12,7.05c-3.38,0-6.12-3.15-6.12-7.05c0-3.89,2.74-7.05,6.12-7.05
				C39.46,38.12,42.2,41.27,42.2,45.16z"/>
			<g>
				<path class="st149" d="M26.15,40.76c0.51,0.68,1.36,0.95,2.13,0.76c-0.06,0.51,0.07,1.04,0.4,1.48
					c0.68,0.91,1.98,1.09,2.88,0.41c0.14-0.11,0.27-0.23,0.38-0.37c0.55,0.44,1.35,0.47,1.94,0.03c0.34-0.26,0.55-0.63,0.61-1.03
					c0.4,0.05,0.81-0.05,1.16-0.31c0.32-0.24,0.53-0.59,0.6-0.95c0.37,0.03,0.76-0.07,1.08-0.31c0.35-0.26,0.56-0.64,0.62-1.03
					c0.24-0.07,0.47-0.18,0.68-0.33c0.91-0.68,1.09-1.98,0.41-2.88c0,0-0.01-0.01-0.01-0.01c0.07-0.04,0.14-0.09,0.21-0.14
					c0.91-0.68,1.09-1.97,0.41-2.89c-0.16-0.21-0.36-0.39-0.57-0.52c-0.04-0.2-0.12-0.4-0.25-0.58c-0.31-0.42-0.82-0.6-1.31-0.53
					c-0.55-0.58-1.46-0.67-2.11-0.18c-0.23,0.18-0.4,0.4-0.51,0.65c-0.26-0.2-0.57-0.31-0.89-0.32c-0.05-0.11-0.11-0.22-0.18-0.32
					c-0.53-0.7-1.53-0.84-2.23-0.31c-0.03,0.03-0.07,0.05-0.1,0.08c-0.64-0.24-1.37-0.15-1.95,0.28c-0.62,0.46-0.9,1.21-0.8,1.93
					c-0.19,0.05-0.38,0.14-0.55,0.26c-0.29,0.22-0.48,0.52-0.57,0.84c-0.34,0-0.68,0.1-0.97,0.32c-0.54,0.4-0.74,1.08-0.58,1.69
					c-0.14,0.05-0.27,0.12-0.4,0.22c-0.7,0.53-0.84,1.52-0.32,2.23c0.11,0.15,0.24,0.26,0.38,0.36
					C25.69,39.81,25.82,40.33,26.15,40.76z"/>
				<path class="st150" d="M30.53,44c-0.78,0.07-1.53-0.26-2-0.88c-0.3-0.4-0.46-0.88-0.45-1.37c-0.03,0-0.05,0.01-0.08,0.01l0,0
					c-0.78,0.07-1.53-0.26-2-0.88c-0.32-0.43-0.48-0.95-0.44-1.48c-0.13-0.1-0.24-0.21-0.34-0.34c-0.28-0.38-0.4-0.84-0.34-1.31
					c0.07-0.47,0.31-0.88,0.69-1.17c0.09-0.07,0.19-0.13,0.3-0.18c-0.12-0.66,0.14-1.32,0.68-1.73c0.27-0.2,0.6-0.33,0.94-0.35
					c0.12-0.32,0.32-0.6,0.6-0.81c0.14-0.11,0.3-0.19,0.46-0.25c-0.05-0.75,0.28-1.49,0.89-1.94c0.57-0.43,1.34-0.56,2.02-0.34
					c0.01-0.01,0.02-0.01,0.03-0.02c0.26-0.2,0.57-0.32,0.89-0.35c0.62-0.06,1.21,0.2,1.58,0.7c0.06,0.08,0.11,0.16,0.16,0.25
					c0.25,0.03,0.49,0.11,0.71,0.23c0.12-0.21,0.28-0.39,0.47-0.54c0.26-0.2,0.57-0.32,0.89-0.35c0.51-0.05,1.02,0.13,1.39,0.48
					c0,0,0,0,0,0c0.54-0.05,1.06,0.18,1.38,0.61c0.13,0.17,0.22,0.36,0.27,0.57c0.21,0.14,0.4,0.32,0.55,0.52
					c0.36,0.48,0.51,1.07,0.43,1.66c-0.08,0.59-0.39,1.12-0.87,1.48c-0.02,0.02-0.04,0.03-0.06,0.04c0.62,0.98,0.39,2.28-0.54,2.99
					c-0.19,0.14-0.4,0.25-0.63,0.33c-0.09,0.41-0.32,0.78-0.66,1.04c-0.3,0.23-0.67,0.35-1.05,0.35c-0.11,0.36-0.33,0.68-0.63,0.91
					c-0.32,0.24-0.72,0.37-1.12,0.35c-0.1,0.39-0.33,0.73-0.65,0.98c-0.26,0.2-0.57,0.32-0.89,0.35c-0.4,0.04-0.8-0.06-1.13-0.28
					c-0.09,0.1-0.19,0.19-0.3,0.27C31.34,43.81,30.94,43.96,30.53,44z M28.49,41.29l-0.03,0.26c-0.06,0.48,0.07,0.96,0.36,1.35
					c0.4,0.53,1.03,0.8,1.68,0.74c0.34-0.03,0.67-0.16,0.95-0.37c0.12-0.09,0.24-0.21,0.34-0.34l0.11-0.14l0.14,0.11
					c0.29,0.23,0.65,0.33,1.01,0.3c0.26-0.02,0.5-0.12,0.71-0.28c0.29-0.22,0.49-0.55,0.54-0.91l0.03-0.17l0.17,0.02
					c0.36,0.05,0.73-0.05,1.03-0.27c0.28-0.21,0.46-0.51,0.53-0.85l0.03-0.16l0.16,0.01c0.34,0.03,0.69-0.07,0.96-0.28
					c0.3-0.22,0.49-0.55,0.55-0.92l0.02-0.11l0.11-0.03c0.23-0.06,0.44-0.17,0.62-0.31c0.83-0.62,1-1.81,0.37-2.63l-0.12-0.16
					l0.16-0.11c0.07-0.04,0.13-0.08,0.19-0.12c0.4-0.3,0.66-0.74,0.73-1.24c0.07-0.5-0.06-0.99-0.36-1.39
					c-0.14-0.19-0.32-0.35-0.52-0.47l-0.07-0.04l-0.01-0.08c-0.03-0.18-0.11-0.35-0.22-0.5c-0.26-0.35-0.7-0.53-1.13-0.46l-0.1,0.02
					l-0.06-0.07c-0.3-0.31-0.73-0.48-1.16-0.44c-0.26,0.02-0.5,0.12-0.71,0.28c-0.2,0.15-0.35,0.35-0.45,0.58l-0.09,0.21l-0.18-0.14
					c-0.23-0.18-0.51-0.28-0.79-0.29l-0.11-0.01l-0.04-0.1c-0.05-0.1-0.1-0.2-0.16-0.28c-0.3-0.39-0.77-0.6-1.26-0.56
					c-0.26,0.02-0.5,0.12-0.71,0.28c-0.03,0.02-0.06,0.05-0.09,0.07l-0.08,0.07l-0.1-0.04c-0.59-0.22-1.28-0.12-1.78,0.26
					c-0.54,0.41-0.82,1.08-0.73,1.76l0.02,0.16l-0.15,0.04c-0.18,0.05-0.34,0.13-0.49,0.24c-0.25,0.19-0.42,0.44-0.51,0.74
					l-0.04,0.13l-0.14,0c-0.31,0-0.61,0.1-0.86,0.28c-0.46,0.35-0.67,0.94-0.51,1.5l0.04,0.16l-0.15,0.06
					c-0.13,0.05-0.25,0.11-0.35,0.19c-0.3,0.23-0.5,0.56-0.55,0.93c-0.05,0.37,0.04,0.74,0.27,1.05c0.09,0.12,0.21,0.23,0.34,0.32
					l0.09,0.06l-0.01,0.11c-0.05,0.48,0.08,0.95,0.36,1.33c0.4,0.53,1.03,0.8,1.68,0.74l0,0c0.09-0.01,0.18-0.02,0.26-0.04
					L28.49,41.29z"/>
			</g>
			<g>
				<path class="st149" d="M39.5,54.3l-0.45-2.66l-2.76-0.68c0.01-0.06,0.02-0.13,0.02-0.2c0-0.51-0.42-0.93-0.93-0.93
					c-0.3,0-0.56,0.14-0.73,0.36c-0.12-0.38-0.47-0.66-0.88-0.66c-0.27,0-0.52,0.12-0.69,0.31c-0.28-0.36-0.71-0.59-1.2-0.59
					c-0.84,0-1.52,0.68-1.52,1.52c0,0.02,0,0.03,0,0.05c-0.65,0.17-1.14,0.76-1.14,1.47c0,0.21,0.04,0.41,0.12,0.6
					c-0.04-0.01-0.08-0.01-0.12-0.01c-0.51,0-0.93,0.42-0.93,0.93c0,0.09,0.02,0.17,0.04,0.25c-0.36,0.13-0.62,0.47-0.62,0.87
					c0,0.14,0.03,0.28,0.09,0.4c-0.46,0.06-0.81,0.44-0.81,0.92c0,0.09,0.02,0.18,0.04,0.27c-0.36,0.13-0.61,0.47-0.61,0.87
					c0,0.51,0.42,0.93,0.93,0.93c0.14,0,0.28-0.03,0.4-0.09c0.12,0.38,0.47,0.66,0.89,0.66c0.25,0,0.47-0.1,0.64-0.26
					c0.17,0.16,0.39,0.26,0.64,0.26c0.4,0,0.73-0.25,0.86-0.6l0.07-0.03c0.16,0.13,0.36,0.22,0.59,0.22c0.51,0,0.92-0.41,0.93-0.91
					L39.5,54.3z"/>
				<path class="st150" d="M29.94,59.04c-0.23,0-0.45-0.07-0.64-0.2c-0.19,0.13-0.41,0.2-0.64,0.2c-0.42,0-0.8-0.24-0.99-0.61
					c-0.1,0.03-0.2,0.04-0.3,0.04c-0.61,0-1.11-0.5-1.11-1.11c0-0.41,0.23-0.78,0.58-0.97c-0.01-0.06-0.01-0.11-0.01-0.16
					c0-0.48,0.31-0.89,0.75-1.04c-0.02-0.09-0.03-0.18-0.03-0.27c0-0.41,0.23-0.79,0.59-0.98c-0.01-0.05-0.01-0.1-0.01-0.15
					c0-0.57,0.43-1.04,0.98-1.1c-0.03-0.13-0.05-0.27-0.05-0.41c0-0.73,0.46-1.36,1.14-1.6c0.04-0.9,0.79-1.61,1.69-1.61
					c0.46,0,0.9,0.19,1.22,0.52c0.19-0.15,0.43-0.23,0.67-0.23c0.39,0,0.74,0.2,0.94,0.53c0.19-0.15,0.43-0.23,0.67-0.23
					c0.61,0,1.11,0.5,1.11,1.11c0,0.02,0,0.04,0,0.06l2.72,0.67l0.49,2.91l-7.14,3.25c-0.07,0.54-0.54,0.97-1.1,0.97
					c-0.2,0-0.39-0.05-0.56-0.16C30.71,58.82,30.35,59.04,29.94,59.04z M29.3,58.36l0.12,0.12c0.14,0.14,0.32,0.21,0.52,0.21
					c0.31,0,0.58-0.19,0.7-0.49l0.03-0.07l0.24-0.11l0.09,0.07c0.14,0.12,0.3,0.18,0.47,0.18c0.4,0,0.74-0.33,0.75-0.73l0-0.11
					l7.09-3.23l-0.41-2.41l-2.81-0.69l0.04-0.17c0.01-0.06,0.02-0.11,0.02-0.16c0-0.41-0.34-0.75-0.75-0.75
					c-0.23,0-0.44,0.11-0.59,0.29l-0.21,0.27l-0.1-0.33c-0.1-0.32-0.38-0.53-0.71-0.53c-0.21,0-0.41,0.09-0.55,0.25l-0.14,0.16
					l-0.13-0.17c-0.26-0.33-0.64-0.53-1.06-0.53c-0.74,0-1.34,0.6-1.34,1.34l0.01,0.19l-0.14,0.04c-0.59,0.15-1,0.68-1,1.29
					c0,0.18,0.04,0.36,0.11,0.53l0.12,0.29l-0.34-0.04c-0.03,0-0.05-0.01-0.08-0.01c-0.41,0-0.75,0.34-0.75,0.75
					c0,0.06,0.01,0.12,0.03,0.2l0.05,0.16l-0.16,0.06c-0.3,0.11-0.5,0.39-0.5,0.7c0,0.11,0.03,0.22,0.08,0.32l0.11,0.22l-0.24,0.03
					c-0.37,0.05-0.65,0.37-0.65,0.74c0,0.07,0.01,0.13,0.04,0.21l0.05,0.16l-0.16,0.06c-0.3,0.11-0.49,0.39-0.49,0.7
					c0,0.41,0.34,0.75,0.75,0.75c0.11,0,0.22-0.03,0.32-0.08l0.19-0.09l0.06,0.2c0.1,0.32,0.38,0.53,0.71,0.53
					c0.19,0,0.37-0.07,0.52-0.21L29.3,58.36z"/>
			</g>
			<g>
				<path class="st149" d="M47.37,52.56l2.17,1.59l2.45-1.44c0.03,0.06,0.07,0.11,0.12,0.16c0.36,0.37,0.95,0.38,1.31,0.02
					c0.21-0.21,0.3-0.49,0.27-0.76c0.35,0.19,0.79,0.15,1.09-0.14c0.2-0.19,0.29-0.45,0.28-0.7c0.45,0.07,0.93-0.07,1.28-0.41
					c0.6-0.58,0.61-1.54,0.03-2.14c-0.01-0.01-0.02-0.02-0.04-0.03c0.35-0.58,0.29-1.34-0.2-1.84c-0.15-0.15-0.32-0.27-0.51-0.34
					c0.03-0.02,0.07-0.05,0.1-0.08c0.37-0.36,0.38-0.95,0.02-1.32c-0.06-0.06-0.13-0.11-0.2-0.15c0.17-0.34,0.12-0.77-0.16-1.05
					c-0.1-0.1-0.22-0.17-0.34-0.22c0.28-0.36,0.27-0.88-0.06-1.22c-0.07-0.07-0.14-0.12-0.22-0.16c0.16-0.34,0.11-0.76-0.17-1.05
					c-0.36-0.37-0.95-0.38-1.31-0.02c-0.1,0.1-0.18,0.22-0.22,0.34c-0.35-0.19-0.79-0.15-1.09,0.14c-0.18,0.17-0.27,0.4-0.28,0.63
					c-0.23,0-0.46,0.09-0.64,0.26c-0.29,0.28-0.35,0.69-0.2,1.04l-0.03,0.07c-0.21,0.02-0.41,0.1-0.57,0.25
					c-0.36,0.35-0.38,0.93-0.03,1.3L47.37,52.56z"/>
				<path class="st150" d="M50.92,42.5c0.17-0.16,0.38-0.26,0.6-0.3c0.04-0.23,0.15-0.43,0.32-0.59c0.3-0.3,0.74-0.39,1.13-0.25
					c0.05-0.09,0.11-0.17,0.18-0.24c0.44-0.43,1.14-0.42,1.57,0.02c0.28,0.29,0.38,0.72,0.26,1.1c0.05,0.03,0.09,0.07,0.12,0.11
					c0.33,0.34,0.4,0.86,0.19,1.27c0.08,0.05,0.15,0.1,0.21,0.17c0.29,0.3,0.38,0.73,0.26,1.11c0.04,0.03,0.08,0.06,0.11,0.1
					c0.4,0.41,0.41,1.04,0.06,1.47c0.12,0.07,0.23,0.16,0.32,0.26c0.51,0.52,0.62,1.3,0.3,1.94c0.59,0.67,0.56,1.7-0.09,2.33
					c-0.33,0.32-0.77,0.49-1.23,0.48c-0.03,0.24-0.15,0.46-0.32,0.63c-0.28,0.27-0.68,0.37-1.04,0.28
					c-0.03,0.24-0.14,0.46-0.32,0.63c-0.44,0.43-1.14,0.42-1.57-0.02c-0.01-0.01-0.03-0.03-0.04-0.05l-2.41,1.41l-2.38-1.75
					L50,45.32c-0.33-0.44-0.29-1.07,0.11-1.46c0.14-0.14,0.32-0.23,0.51-0.28C50.52,43.19,50.63,42.78,50.92,42.5z M51.85,42.54
					l-0.17,0c-0.19,0-0.38,0.08-0.52,0.21c-0.22,0.22-0.29,0.55-0.16,0.84l0.03,0.07l-0.1,0.25l-0.11,0.01
					c-0.18,0.01-0.34,0.08-0.46,0.2c-0.29,0.28-0.3,0.75-0.03,1.05l0.08,0.08l-2.83,7.26l1.97,1.44l2.5-1.46l0.09,0.15
					c0.03,0.05,0.06,0.09,0.1,0.13c0.29,0.3,0.76,0.3,1.06,0.02c0.16-0.16,0.24-0.38,0.22-0.62l-0.04-0.34l0.3,0.16
					c0.29,0.16,0.65,0.11,0.88-0.12c0.15-0.15,0.23-0.35,0.22-0.56l-0.01-0.22l0.21,0.03c0.42,0.06,0.83-0.07,1.13-0.36
					c0.53-0.51,0.54-1.36,0.03-1.89l-0.13-0.13l0.07-0.12c0.32-0.52,0.24-1.19-0.18-1.63c-0.13-0.13-0.28-0.23-0.45-0.3l-0.29-0.12
					l0.27-0.2c0.02-0.02,0.04-0.03,0.06-0.05c0.3-0.29,0.3-0.76,0.02-1.06c-0.04-0.04-0.09-0.08-0.16-0.12l-0.14-0.08l0.07-0.15
					c0.14-0.29,0.09-0.63-0.13-0.85c-0.08-0.08-0.17-0.14-0.28-0.18l-0.23-0.09l0.15-0.19c0.23-0.3,0.21-0.72-0.05-0.99
					c-0.05-0.05-0.1-0.09-0.18-0.13l-0.15-0.08l0.07-0.15c0.14-0.28,0.08-0.62-0.13-0.85c-0.29-0.3-0.76-0.3-1.06-0.02
					c-0.08,0.08-0.14,0.17-0.18,0.28l-0.07,0.2l-0.18-0.1c-0.29-0.16-0.65-0.11-0.88,0.11c-0.14,0.13-0.22,0.31-0.22,0.51
					L51.85,42.54z"/>
			</g>
			<g>
				<path class="st149" d="M29.41,55.93c0.15,0.09,0.31,0.16,0.49,0.2c0.83,0.18,1.65-0.35,1.82-1.18c0.12-0.55-0.08-1.1-0.47-1.46
					c0.5-0.16,0.91-0.58,1.03-1.14c0.1-0.45-0.02-0.9-0.27-1.24c0.38-0.21,0.66-0.57,0.76-1.02c0.1-0.45-0.01-0.89-0.26-1.23
					c0.37-0.21,0.65-0.57,0.75-1.01c0.12-0.55-0.07-1.09-0.46-1.45c0.44-0.31,0.77-0.78,0.89-1.35c0.15-0.72-0.06-1.44-0.51-1.95
					c0.17-0.19,0.3-0.43,0.36-0.7c0.18-0.83-0.35-1.65-1.18-1.82c-0.11-0.03-0.23-0.03-0.34-0.03c0.02-0.73-0.47-1.39-1.21-1.55
					c-0.21-0.05-0.42-0.04-0.63,0c0.14-0.81-0.38-1.58-1.19-1.76c-0.83-0.18-1.65,0.35-1.82,1.18c-0.01,0.04-0.01,0.08-0.02,0.12
					c-0.2-0.12-0.43-0.21-0.67-0.26c-1.21-0.26-2.4,0.51-2.66,1.72c-0.07,0.32-0.06,0.63,0,0.93c-0.76,0.23-1.38,0.85-1.56,1.68
					c-0.14,0.63,0.01,1.26,0.35,1.75c-0.27,0.21-0.47,0.52-0.54,0.88c-0.09,0.43,0.01,0.86,0.24,1.19c-0.13,0.17-0.22,0.37-0.27,0.6
					c-0.12,0.57,0.08,1.12,0.49,1.48c-0.26,0.28-0.45,0.63-0.53,1.03c-0.26,1.21,0.51,2.4,1.72,2.66c-0.25,1.16,0.44,2.3,1.56,2.62
					c0.01,1.02,0.73,1.94,1.77,2.16C27.99,57.16,28.93,56.72,29.41,55.93z"/>
				<path class="st150" d="M27.5,57.18C27.5,57.18,27.5,57.18,27.5,57.18c-0.17,0-0.34-0.02-0.51-0.05c-1.07-0.23-1.83-1.12-1.9-2.2
					c-1.09-0.38-1.76-1.49-1.6-2.62c-0.56-0.16-1.04-0.52-1.36-1.01c-0.35-0.54-0.47-1.19-0.33-1.82c0.08-0.36,0.24-0.69,0.46-0.98
					c-0.38-0.41-0.54-0.98-0.42-1.53c0.04-0.2,0.12-0.39,0.23-0.56c-0.22-0.37-0.29-0.8-0.2-1.22c0.07-0.33,0.24-0.64,0.48-0.87
					c-0.32-0.53-0.42-1.15-0.29-1.76c0.18-0.81,0.76-1.48,1.53-1.76c-0.04-0.28-0.03-0.57,0.03-0.85c0.24-1.11,1.23-1.91,2.36-1.91
					c0.17,0,0.34,0.02,0.51,0.05c0.17,0.04,0.34,0.1,0.51,0.17c0.21-0.72,0.88-1.24,1.64-1.24c0.12,0,0.24,0.01,0.36,0.04
					c0.82,0.18,1.38,0.91,1.35,1.73c0.16-0.01,0.31,0,0.46,0.03c0.75,0.16,1.29,0.8,1.35,1.55c0.07,0.01,0.14,0.02,0.21,0.03
					c0.45,0.1,0.83,0.36,1.08,0.75c0.25,0.38,0.33,0.84,0.23,1.29c-0.05,0.24-0.15,0.47-0.3,0.66c0.44,0.57,0.6,1.28,0.45,1.99
					c-0.11,0.52-0.39,0.99-0.8,1.33c0.34,0.4,0.48,0.95,0.37,1.47c-0.09,0.42-0.33,0.78-0.67,1.03c0.21,0.37,0.28,0.8,0.19,1.21
					c-0.09,0.42-0.34,0.79-0.69,1.04c0.22,0.37,0.29,0.81,0.2,1.23c-0.11,0.51-0.44,0.93-0.9,1.17c0.32,0.4,0.45,0.93,0.34,1.43
					c-0.17,0.78-0.87,1.35-1.67,1.35c-0.12,0-0.24-0.01-0.36-0.04c-0.14-0.03-0.27-0.07-0.39-0.14
					C29.02,56.79,28.28,57.18,27.5,57.18z M26,38.38c-0.96,0-1.81,0.69-2.01,1.63c-0.06,0.28-0.06,0.57,0,0.85l0.03,0.16l-0.16,0.05
					c-0.72,0.21-1.27,0.81-1.43,1.54c-0.12,0.56-0.01,1.13,0.32,1.61l0.1,0.14l-0.13,0.1c-0.24,0.19-0.41,0.47-0.48,0.77
					c-0.08,0.37-0.01,0.74,0.21,1.05l0.07,0.11l-0.08,0.1c-0.12,0.16-0.2,0.33-0.24,0.53c-0.1,0.48,0.06,0.98,0.43,1.31l0.14,0.12
					l-0.12,0.14c-0.25,0.27-0.41,0.6-0.49,0.95c-0.12,0.54-0.02,1.09,0.28,1.55c0.3,0.46,0.76,0.78,1.3,0.9l0.18,0.04l-0.04,0.18
					c-0.23,1.05,0.4,2.11,1.44,2.41l0.13,0.04l0,0.13c0.01,0.97,0.68,1.78,1.63,1.99c0.14,0.03,0.29,0.05,0.43,0.05c0,0,0,0,0,0
					c0.71,0,1.38-0.38,1.76-0.99l0.09-0.16l0.15,0.1c0.13,0.08,0.28,0.14,0.43,0.17c0.1,0.02,0.19,0.03,0.29,0.03
					c0.63,0,1.19-0.45,1.32-1.07c0.1-0.47-0.06-0.97-0.42-1.29l-0.23-0.21l0.29-0.1c0.46-0.15,0.81-0.53,0.91-1
					c0.08-0.38-0.01-0.78-0.24-1.1l-0.12-0.17l0.18-0.1c0.35-0.19,0.59-0.52,0.67-0.9c0.08-0.38,0-0.77-0.23-1.08l-0.12-0.16
					l0.17-0.1c0.34-0.19,0.58-0.52,0.66-0.89c0.1-0.47-0.05-0.96-0.41-1.28l-0.16-0.15l0.18-0.13c0.42-0.3,0.71-0.74,0.82-1.24
					c0.14-0.64-0.03-1.3-0.47-1.8l-0.1-0.12l0.11-0.12c0.16-0.18,0.27-0.39,0.32-0.62c0.08-0.35,0.01-0.72-0.19-1.02
					c-0.2-0.3-0.5-0.51-0.85-0.59c-0.09-0.02-0.19-0.03-0.28-0.03l-0.21,0l0.01-0.19c0.02-0.66-0.43-1.23-1.07-1.37
					c-0.18-0.04-0.37-0.04-0.55,0l-0.26,0.05L30,38.95c0.12-0.72-0.34-1.4-1.05-1.55c-0.09-0.02-0.19-0.03-0.29-0.03
					c-0.63,0-1.19,0.45-1.32,1.07c-0.01,0.03-0.01,0.06-0.02,0.1l-0.04,0.27l-0.23-0.13c-0.19-0.11-0.4-0.2-0.62-0.24
					C26.29,38.4,26.14,38.38,26,38.38z"/>
			</g>
			<g>
				<path class="st149" d="M44.42,58.64c0.73,0.44,1.62,0.37,2.26-0.1c0.14,0.49,0.45,0.94,0.93,1.22c0.98,0.58,2.24,0.26,2.82-0.71
					c0.09-0.16,0.16-0.32,0.21-0.49c0.68,0.2,1.43-0.07,1.81-0.71c0.22-0.37,0.27-0.79,0.18-1.18c0.39-0.1,0.73-0.35,0.96-0.72
					c0.21-0.35,0.26-0.74,0.19-1.11c0.36-0.11,0.68-0.35,0.88-0.7c0.22-0.37,0.27-0.8,0.18-1.19c0.2-0.15,0.37-0.34,0.5-0.57
					c0.58-0.98,0.26-2.24-0.71-2.82c0,0-0.01-0.01-0.01-0.01c0.05-0.06,0.1-0.13,0.14-0.2c0.58-0.98,0.26-2.24-0.71-2.82
					c-0.23-0.14-0.48-0.22-0.72-0.26c-0.11-0.17-0.26-0.32-0.45-0.44c-0.45-0.27-0.99-0.25-1.41,0.01c-0.73-0.33-1.6-0.07-2.02,0.63
					c-0.15,0.25-0.22,0.53-0.22,0.8c-0.32-0.09-0.65-0.07-0.95,0.04c-0.09-0.08-0.18-0.16-0.29-0.22c-0.75-0.45-1.73-0.2-2.18,0.55
					c-0.02,0.04-0.04,0.07-0.06,0.11c-0.68,0.02-1.33,0.38-1.7,1c-0.4,0.66-0.38,1.46-0.01,2.09c-0.16,0.12-0.3,0.27-0.41,0.45
					c-0.19,0.31-0.25,0.66-0.21,0.99c-0.31,0.12-0.59,0.35-0.77,0.66c-0.34,0.58-0.28,1.28,0.11,1.79c-0.11,0.1-0.21,0.22-0.29,0.35
					C42,55.83,42.25,56.8,43,57.25c0.16,0.09,0.32,0.15,0.49,0.19C43.63,57.93,43.95,58.36,44.42,58.64z"/>
				<path class="st150" d="M49.7,59.98c-0.7,0.36-1.52,0.34-2.19-0.06c-0.43-0.26-0.75-0.64-0.93-1.1
					c-0.02,0.01-0.05,0.02-0.07,0.04l0,0c-0.7,0.36-1.51,0.34-2.19-0.06c-0.46-0.27-0.8-0.7-0.97-1.2c-0.16-0.04-0.3-0.1-0.44-0.19
					c-0.4-0.24-0.69-0.63-0.81-1.09c-0.12-0.46-0.05-0.93,0.2-1.34c0.06-0.1,0.13-0.19,0.21-0.28c-0.36-0.56-0.37-1.28-0.03-1.86
					c0.18-0.29,0.43-0.53,0.74-0.68c-0.01-0.34,0.07-0.68,0.25-0.97c0.09-0.15,0.2-0.29,0.33-0.41c-0.33-0.68-0.3-1.48,0.09-2.13
					c0.37-0.61,1.03-1.03,1.74-1.08c0.01-0.01,0.01-0.02,0.02-0.03c0.17-0.28,0.41-0.51,0.7-0.66c0.55-0.29,1.2-0.27,1.73,0.05
					c0.08,0.05,0.16,0.11,0.24,0.17c0.24-0.07,0.49-0.09,0.74-0.05c0.03-0.24,0.11-0.47,0.23-0.67c0.17-0.28,0.41-0.51,0.7-0.66
					c0.45-0.24,1-0.27,1.47-0.08c0,0,0,0,0,0c0.48-0.25,1.04-0.24,1.51,0.04c0.18,0.11,0.34,0.25,0.46,0.43
					c0.25,0.05,0.49,0.14,0.71,0.27c0.51,0.31,0.88,0.79,1.02,1.38c0.15,0.58,0.06,1.18-0.25,1.7c-0.01,0.02-0.03,0.04-0.04,0.06
					c0.94,0.67,1.23,1.96,0.63,2.97c-0.12,0.21-0.28,0.39-0.46,0.55c0.07,0.42,0,0.84-0.22,1.21c-0.19,0.32-0.49,0.58-0.84,0.73
					c0.04,0.38-0.05,0.76-0.24,1.08c-0.21,0.35-0.53,0.61-0.9,0.75c0.06,0.4-0.02,0.8-0.23,1.15c-0.17,0.28-0.41,0.51-0.69,0.66
					c-0.36,0.19-0.76,0.25-1.15,0.17c-0.05,0.13-0.11,0.25-0.17,0.36C50.37,59.5,50.07,59.79,49.7,59.98z M46.78,58.25l0.07,0.25
					c0.13,0.47,0.43,0.87,0.85,1.12c0.57,0.34,1.25,0.36,1.84,0.05c0.31-0.16,0.56-0.4,0.74-0.7c0.08-0.13,0.14-0.28,0.19-0.44
					l0.05-0.17l0.17,0.05c0.35,0.1,0.73,0.06,1.05-0.11c0.23-0.12,0.42-0.3,0.55-0.52c0.19-0.32,0.25-0.69,0.16-1.05l-0.04-0.17
					l0.17-0.05c0.35-0.09,0.66-0.32,0.85-0.64c0.18-0.3,0.24-0.65,0.17-0.98l-0.03-0.16l0.15-0.05c0.33-0.1,0.61-0.33,0.78-0.62
					c0.19-0.32,0.25-0.69,0.16-1.05l-0.03-0.11l0.09-0.07c0.19-0.15,0.34-0.32,0.46-0.52c0.53-0.89,0.24-2.05-0.65-2.58l-0.17-0.1
					l0.11-0.17c0.05-0.07,0.09-0.13,0.13-0.19c0.26-0.43,0.33-0.94,0.21-1.42c-0.12-0.49-0.43-0.9-0.86-1.16
					c-0.2-0.12-0.42-0.2-0.66-0.24l-0.08-0.01l-0.04-0.07c-0.1-0.16-0.23-0.28-0.39-0.38c-0.38-0.23-0.84-0.23-1.22,0.01l-0.08,0.05
					L51.39,46c-0.39-0.18-0.86-0.17-1.24,0.03c-0.23,0.12-0.42,0.3-0.55,0.53c-0.13,0.21-0.19,0.46-0.2,0.71l0,0.23l-0.22-0.06
					c-0.28-0.08-0.57-0.06-0.84,0.03l-0.1,0.04l-0.08-0.08c-0.08-0.08-0.17-0.14-0.26-0.2c-0.43-0.25-0.94-0.27-1.38-0.04
					c-0.23,0.12-0.42,0.3-0.56,0.53c-0.02,0.03-0.04,0.07-0.05,0.1l-0.05,0.1l-0.11,0c-0.63,0.02-1.23,0.37-1.55,0.91
					c-0.35,0.58-0.35,1.31-0.01,1.91l0.08,0.14l-0.13,0.1c-0.15,0.11-0.27,0.25-0.36,0.4c-0.16,0.27-0.22,0.57-0.19,0.88l0.02,0.14
					l-0.13,0.05c-0.29,0.11-0.53,0.32-0.69,0.58c-0.3,0.5-0.26,1.12,0.09,1.58l0.1,0.13l-0.12,0.11c-0.1,0.09-0.18,0.2-0.25,0.31
					c-0.19,0.32-0.25,0.7-0.16,1.07c0.09,0.37,0.32,0.67,0.64,0.87c0.13,0.08,0.28,0.14,0.43,0.17l0.11,0.02l0.03,0.1
					c0.13,0.46,0.43,0.85,0.84,1.1c0.57,0.34,1.25,0.36,1.84,0.05l0,0c0.08-0.04,0.16-0.09,0.23-0.14L46.78,58.25z"/>
			</g>
			<g>
				<path class="st149" d="M46.65,55.53c0.05-0.15,0.08-0.31,0.08-0.47c0-0.78-0.63-1.41-1.41-1.41c-0.52,0-0.98,0.28-1.22,0.71
					c-0.24-0.42-0.7-0.71-1.22-0.71c-0.42,0-0.81,0.19-1.06,0.49c-0.26-0.3-0.64-0.49-1.06-0.49c-0.42,0-0.79,0.18-1.05,0.47
					c-0.26-0.29-0.63-0.47-1.05-0.47c-0.52,0-0.97,0.28-1.21,0.69c-0.37-0.33-0.85-0.54-1.38-0.54c-0.68,0-1.28,0.33-1.65,0.83
					c-0.21-0.12-0.44-0.19-0.7-0.19c-0.78,0-1.41,0.63-1.41,1.41c0,0.11,0.01,0.21,0.04,0.32c-0.66,0.12-1.16,0.69-1.16,1.39
					c0,0.2,0.04,0.39,0.12,0.56c-0.75,0.03-1.35,0.65-1.35,1.41c0,0.78,0.63,1.41,1.41,1.41c0.04,0,0.07,0,0.11-0.01
					c-0.07,0.21-0.11,0.43-0.11,0.66c0,1.14,0.92,2.06,2.06,2.06c0.3,0,0.58-0.06,0.83-0.18c0.35,0.64,1.03,1.07,1.81,1.07
					c0.59,0,1.13-0.25,1.5-0.66c0.24,0.2,0.55,0.32,0.89,0.32c0.4,0,0.77-0.17,1.03-0.44c0.18,0.08,0.38,0.13,0.59,0.13
					c0.53,0,0.99-0.29,1.23-0.73c0.3,0.18,0.65,0.28,1.03,0.28c1.14,0,2.06-0.92,2.06-2.06c1.09,0,1.98-0.84,2.05-1.91
					c0.91-0.21,1.6-1.03,1.6-2.01C48.03,56.58,47.46,55.81,46.65,55.53z"/>
				<path class="st150" d="M36.06,64.73c-0.77,0-1.47-0.39-1.88-1.03c-0.24,0.09-0.5,0.13-0.76,0.13c-1.23,0-2.24-1.01-2.24-2.24
					c0-0.16,0.02-0.32,0.05-0.48c-0.82-0.06-1.46-0.75-1.46-1.58c0-0.77,0.55-1.42,1.29-1.56c-0.04-0.13-0.05-0.27-0.05-0.41
					c0-0.71,0.47-1.32,1.13-1.52c-0.01-0.06-0.01-0.12-0.01-0.18c0-0.88,0.71-1.59,1.59-1.59c0.22,0,0.45,0.05,0.65,0.14
					c0.43-0.5,1.04-0.79,1.7-0.79c0.49,0,0.96,0.16,1.35,0.45c0.3-0.38,0.76-0.61,1.25-0.61c0.39,0,0.76,0.14,1.05,0.4
					c0.29-0.26,0.66-0.4,1.05-0.4c0.39,0,0.77,0.15,1.06,0.41c0.29-0.26,0.67-0.41,1.06-0.41c0.47,0,0.92,0.21,1.22,0.57
					c0.3-0.36,0.75-0.57,1.22-0.57c0.88,0,1.59,0.71,1.59,1.59c0,0.12-0.02,0.25-0.05,0.37c0.81,0.35,1.34,1.16,1.34,2.05
					c0,1.01-0.66,1.87-1.61,2.15c-0.14,1.05-1,1.86-2.05,1.94c-0.09,1.16-1.06,2.07-2.23,2.07c-0.33,0-0.66-0.08-0.97-0.22
					c-0.3,0.42-0.78,0.67-1.29,0.67c-0.19,0-0.37-0.03-0.55-0.1c-0.29,0.27-0.67,0.41-1.07,0.41c-0.31,0-0.62-0.09-0.87-0.26
					C37.16,64.52,36.63,64.73,36.06,64.73z M34.32,63.25l0.08,0.14c0.33,0.6,0.96,0.98,1.65,0.98c0.52,0,1.01-0.21,1.37-0.6
					l0.11-0.12l0.13,0.11c0.22,0.18,0.5,0.28,0.78,0.28c0.34,0,0.66-0.14,0.89-0.39l0.09-0.1l0.12,0.05
					c0.16,0.07,0.34,0.11,0.51,0.11c0.45,0,0.86-0.24,1.08-0.63l0.09-0.16l0.16,0.09c0.29,0.17,0.61,0.25,0.94,0.25
					c1.04,0,1.88-0.84,1.88-1.88v-0.18h0.18c0.98,0,1.8-0.77,1.87-1.75l0.01-0.13l0.13-0.03c0.86-0.2,1.46-0.95,1.46-1.83
					c0-0.8-0.51-1.51-1.26-1.77l-0.17-0.06l0.06-0.17c0.05-0.14,0.07-0.28,0.07-0.41c0-0.68-0.55-1.23-1.23-1.23
					c-0.44,0-0.85,0.24-1.07,0.62l-0.16,0.27l-0.16-0.27c-0.22-0.38-0.63-0.62-1.07-0.62c-0.36,0-0.69,0.15-0.93,0.42l-0.14,0.16
					l-0.13-0.16c-0.23-0.27-0.57-0.42-0.93-0.42c-0.35,0-0.68,0.15-0.92,0.41l-0.13,0.15l-0.13-0.15c-0.23-0.26-0.57-0.41-0.92-0.41
					c-0.43,0-0.84,0.23-1.06,0.61l-0.11,0.19l-0.16-0.15c-0.35-0.32-0.8-0.49-1.26-0.49c-0.6,0-1.15,0.28-1.51,0.76l-0.1,0.13
					l-0.14-0.08c-0.18-0.11-0.4-0.16-0.61-0.16c-0.68,0-1.23,0.55-1.23,1.23c0,0.09,0.01,0.18,0.03,0.28l0.04,0.18l-0.18,0.03
					c-0.58,0.11-1.01,0.62-1.01,1.21c0,0.17,0.03,0.34,0.1,0.49l0.1,0.24l-0.26,0.01c-0.66,0.03-1.18,0.57-1.18,1.23
					c0,0.68,0.55,1.23,1.23,1.23c0.03,0,0.06,0,0.09,0l0.27-0.02L31.63,61c-0.06,0.2-0.1,0.4-0.1,0.6c0,1.04,0.84,1.88,1.88,1.88
					c0.26,0,0.52-0.05,0.76-0.16L34.32,63.25z"/>
			</g>
			<g>
				<path class="st149" d="M52.28,42.44c0.3-0.21,0.5-0.56,0.5-0.96c0-0.57-0.41-1.04-0.95-1.14c0.11-0.18,0.17-0.38,0.17-0.6
					c0-0.64-0.52-1.17-1.16-1.17c-0.2,0-0.38,0.05-0.54,0.14c-0.31-0.74-1.04-1.26-1.9-1.26c-0.2,0-0.39,0.03-0.57,0.08
					c-0.07-0.58-0.56-1.02-1.15-1.02c-0.02,0-0.04,0-0.06,0c-0.15-0.47-0.59-0.81-1.11-0.81c-0.44,0-0.82,0.24-1.02,0.61
					c-0.21-0.18-0.47-0.29-0.77-0.29c-0.48,0-0.9,0.3-1.07,0.72c-0.1-0.03-0.2-0.04-0.31-0.04c-0.28,0-0.53,0.1-0.74,0.26
					c-0.13-0.05-0.28-0.08-0.43-0.08c-0.64,0-1.16,0.52-1.16,1.16c0,0.01,0,0.01,0,0.02c-0.54,0.1-0.94,0.58-0.94,1.14
					c0,0.45,0.25,0.84,0.63,1.03c-0.06,0.14-0.09,0.29-0.09,0.45c0,0.34,0.15,0.65,0.39,0.86c-0.24,0.34-0.39,0.75-0.39,1.2
					c0,1.14,0.92,2.06,2.06,2.06c0.64,0,1.22-0.29,1.59-0.76l2.39,0.31l2.58,0.7c-0.06,0.14-0.1,0.3-0.1,0.46
					c0,0.64,0.52,1.16,1.17,1.16c0.5,0,0.93-0.32,1.09-0.77c0.15,0.03,0.3,0.05,0.45,0.05c1.14,0,2.06-0.92,2.06-2.06
					C52.89,43.33,52.66,42.82,52.28,42.44z"/>
				<path class="st150" d="M49.29,46.86c-0.74,0-1.34-0.6-1.34-1.34c0-0.12,0.01-0.23,0.04-0.34l-2.38-0.65l-2.28-0.29
					c-0.43,0.47-1.03,0.74-1.67,0.74c-1.23,0-2.24-1-2.24-2.24c0-0.42,0.12-0.82,0.34-1.18c-0.22-0.24-0.34-0.56-0.34-0.88
					c0-0.13,0.02-0.25,0.05-0.37c-0.37-0.25-0.59-0.66-0.59-1.11c0-0.59,0.39-1.11,0.95-1.28c0.06-0.69,0.64-1.22,1.34-1.22
					c0.13,0,0.27,0.02,0.4,0.06c0.28-0.2,0.63-0.28,0.98-0.22c0.24-0.42,0.68-0.69,1.17-0.69c0.26,0,0.51,0.08,0.72,0.21
					c0.25-0.33,0.65-0.53,1.07-0.53c0.54,0,1.02,0.32,1.23,0.81c0.58,0.03,1.07,0.43,1.23,0.98c0.14-0.03,0.29-0.04,0.43-0.04
					c0.84,0,1.6,0.47,1.99,1.2c0.14-0.05,0.3-0.08,0.46-0.08c0.74,0,1.34,0.6,1.34,1.34c0,0.17-0.03,0.33-0.09,0.49
					c0.52,0.19,0.88,0.69,0.88,1.26c0,0.37-0.15,0.72-0.42,0.97c0.34,0.4,0.53,0.91,0.53,1.45c0,1.23-1,2.24-2.24,2.24
					c-0.11,0-0.23-0.01-0.34-0.03C50.26,46.57,49.8,46.86,49.29,46.86z M43.17,43.86l2.51,0.32l2.78,0.76l-0.08,0.19
					c-0.05,0.12-0.08,0.25-0.08,0.39c0,0.54,0.44,0.98,0.99,0.98c0.41,0,0.78-0.26,0.93-0.65l0.05-0.15l0.15,0.03
					c0.14,0.03,0.28,0.05,0.41,0.05c1.04,0,1.88-0.84,1.88-1.88c0-0.51-0.2-0.98-0.56-1.34L52,42.42l0.18-0.12
					c0.26-0.19,0.42-0.49,0.42-0.81c0-0.47-0.34-0.88-0.81-0.97l-0.26-0.05l0.13-0.22c0.09-0.15,0.14-0.33,0.14-0.51
					c0-0.54-0.44-0.99-0.99-0.99c-0.16,0-0.32,0.04-0.46,0.11l-0.17,0.09l-0.08-0.18c-0.3-0.7-0.98-1.15-1.73-1.15
					c-0.17,0-0.35,0.03-0.52,0.08l-0.2,0.06l-0.03-0.21c-0.06-0.49-0.48-0.86-0.98-0.86l-0.18,0.01l-0.04-0.13
					c-0.13-0.41-0.51-0.68-0.94-0.68c-0.36,0-0.69,0.2-0.86,0.51l-0.11,0.2l-0.17-0.15c-0.18-0.16-0.41-0.25-0.65-0.25
					c-0.4,0-0.75,0.24-0.91,0.61l-0.06,0.15l-0.15-0.04c-0.32-0.09-0.64-0.01-0.89,0.18l-0.08,0.07l-0.1-0.04
					c-0.12-0.05-0.24-0.07-0.36-0.07c-0.54,0-0.99,0.44-0.99,0.99l0,0.17l-0.14,0.03c-0.46,0.09-0.8,0.5-0.8,0.97
					c0,0.37,0.2,0.7,0.53,0.87l0.15,0.08l-0.06,0.15c-0.05,0.12-0.07,0.25-0.07,0.38c0,0.28,0.12,0.54,0.33,0.73l0.12,0.11
					l-0.09,0.13c-0.23,0.32-0.35,0.7-0.35,1.09c0,1.04,0.84,1.88,1.88,1.88c0.57,0,1.1-0.25,1.46-0.69L43.17,43.86z"/>
			</g>
			<g>
				<path class="st149" d="M50.45,50.09c0-0.85-0.51-1.57-1.25-1.89c0.35-0.37,0.57-0.87,0.57-1.42c0-1.14-0.92-2.06-2.06-2.06
					c-0.18,0-0.36,0.03-0.52,0.07c-0.18-0.68-0.8-1.19-1.54-1.19c-0.43,0-0.82,0.17-1.11,0.45c-0.29-0.28-0.68-0.45-1.11-0.45
					c-0.4,0-0.77,0.15-1.05,0.4c-0.28-0.25-0.65-0.4-1.05-0.4c-0.43,0-0.83,0.17-1.11,0.45c-0.23-0.09-0.48-0.14-0.75-0.14
					c-1.14,0-2.06,0.92-2.06,2.06c0,0.01,0,0.01,0,0.02c-0.08-0.01-0.16-0.02-0.25-0.02c-1.14,0-2.06,0.92-2.06,2.06
					c0,0.27,0.05,0.52,0.14,0.76c-0.09,0.18-0.14,0.39-0.14,0.61c0,0.52,0.29,0.98,0.73,1.21c0.09,0.79,0.76,1.41,1.58,1.41
					c0.29,0,0.56-0.08,0.8-0.22c0.09,0.32,0.27,0.59,0.52,0.8c-0.03,0.12-0.04,0.24-0.04,0.36c0,0.88,0.71,1.59,1.59,1.59
					c0.04,0,0.08,0,0.13-0.01c0.37,0.57,1,0.95,1.73,0.95c0.77,0,1.45-0.43,1.8-1.06c0.18,0.07,0.39,0.12,0.6,0.12
					c0.36,0,0.7-0.12,0.96-0.33c0.27,0.2,0.6,0.33,0.96,0.33c0.67,0,1.25-0.42,1.48-1.01c0.14,0.04,0.29,0.06,0.45,0.06
					c0.88,0,1.59-0.71,1.59-1.59c0-0.18-0.03-0.35-0.09-0.52C50.24,51.12,50.45,50.63,50.45,50.09z"/>
				<path class="st150" d="M42.15,55.66c-0.73,0-1.4-0.35-1.82-0.94c-0.01,0-0.02,0-0.04,0c-0.98,0-1.77-0.79-1.77-1.77
					c0-0.1,0.01-0.2,0.03-0.3c-0.18-0.17-0.33-0.38-0.43-0.61c-0.22,0.1-0.46,0.15-0.7,0.15c-0.87,0-1.61-0.63-1.75-1.48
					c-0.46-0.28-0.74-0.78-0.74-1.32c0-0.21,0.04-0.42,0.13-0.62c-0.09-0.24-0.13-0.49-0.13-0.75c0-1.24,1-2.24,2.24-2.24
					c0.02,0,0.05,0,0.07,0c0.09-1.15,1.06-2.06,2.23-2.06c0.24,0,0.48,0.04,0.71,0.12c0.32-0.28,0.73-0.43,1.15-0.43
					c0.38,0,0.75,0.12,1.05,0.35c0.3-0.23,0.67-0.35,1.05-0.35c0.41,0,0.79,0.14,1.11,0.39c0.31-0.25,0.7-0.39,1.11-0.39
					c0.75,0,1.41,0.47,1.66,1.16c0.14-0.03,0.27-0.04,0.4-0.04c1.24,0,2.24,1,2.24,2.24c0,0.5-0.16,0.98-0.47,1.37
					c0.7,0.39,1.14,1.14,1.14,1.95c0,0.53-0.19,1.05-0.54,1.45c0.04,0.16,0.07,0.32,0.07,0.47c0,0.98-0.79,1.77-1.77,1.77
					c-0.11,0-0.23-0.01-0.35-0.03c-0.3,0.6-0.9,0.98-1.58,0.98c-0.34,0-0.67-0.1-0.96-0.29c-0.43,0.29-0.98,0.36-1.48,0.21
					C43.61,55.27,42.9,55.66,42.15,55.66z M40.51,54.35l0.06,0.09c0.35,0.54,0.94,0.86,1.58,0.86c0.68,0,1.31-0.37,1.64-0.96
					l0.08-0.14l0.15,0.06c0.46,0.19,0.99,0.11,1.38-0.19l0.11-0.08l0.11,0.08c0.25,0.19,0.54,0.29,0.85,0.29
					c0.58,0,1.1-0.35,1.31-0.89l0.06-0.15L48,53.36c0.13,0.04,0.26,0.06,0.4,0.06c0.78,0,1.41-0.63,1.41-1.41
					c0-0.15-0.03-0.31-0.08-0.46l-0.03-0.1l0.07-0.08c0.33-0.35,0.51-0.81,0.51-1.29c0-0.75-0.44-1.43-1.14-1.73l-0.24-0.1
					l0.18-0.19c0.34-0.35,0.52-0.81,0.52-1.3c0-1.04-0.84-1.88-1.88-1.88c-0.15,0-0.32,0.02-0.48,0.06L47.07,45l-0.04-0.17
					c-0.16-0.62-0.72-1.06-1.36-1.06c-0.37,0-0.72,0.14-0.98,0.4l-0.12,0.12l-0.13-0.12c-0.27-0.26-0.61-0.4-0.98-0.4
					c-0.34,0-0.67,0.13-0.93,0.36l-0.12,0.11l-0.12-0.11c-0.26-0.23-0.59-0.36-0.93-0.36c-0.37,0-0.72,0.14-0.99,0.4l-0.08,0.08
					l-0.11-0.04c-0.22-0.09-0.45-0.13-0.68-0.13c-1.04,0-1.88,0.84-1.88,1.88v0.2l-0.2-0.01c-0.08-0.01-0.16-0.02-0.23-0.02
					c-1.04,0-1.88,0.84-1.88,1.88c0,0.24,0.04,0.47,0.13,0.69l0.03,0.07l-0.04,0.07c-0.08,0.17-0.13,0.35-0.13,0.53
					c0,0.44,0.24,0.84,0.63,1.05l0.08,0.04l0.01,0.09c0.08,0.72,0.68,1.25,1.4,1.25c0.25,0,0.49-0.07,0.71-0.19l0.2-0.12l0.06,0.22
					c0.08,0.28,0.24,0.52,0.46,0.71l0.09,0.07l-0.03,0.11c-0.03,0.11-0.04,0.22-0.04,0.32c0,0.78,0.63,1.41,1.41,1.41
					c0.04,0,0.07,0,0.11-0.01L40.51,54.35z"/>
			</g>
		</g>
		<g>
			<g>
				<path class="st147" d="M36.94,61.38c0.33-3.13-2.99-3.97-2.99-3.97c-0.09-3.55-3.46-3.9-3.46-3.9
					c-0.57-3.11-3.19-2.01-3.19-2.01c-0.95-2.82-3.45-1.67-3.45-1.67c-0.69-3.04-3.39-2.58-3.39-2.58
					c-0.83,0.16-1.38,0.74-1.74,1.42c-5.72-0.73-3.31,2.75-2.52,3.74c-0.81,0.73-1.08,1.72-1.08,1.72
					c-1.38,2.13,2.03,3.99,2.03,3.99c-0.8,1.56,2.4,2.79,2.4,2.79c0.44,2.59,4.35,2.5,4.35,2.5c0.98,2.57,3.17,2.31,3.17,2.31
					c0.33,1.88,3.81,0.89,3.81,0.89c1.85,1.12,5.27,0.14,5.27,0.14c1.19-0.54,1.4-2.01,1.4-2.01C38.2,62.1,36.94,61.38,36.94,61.38z
					"/>
				<path class="st151" d="M37.62,64.87c-0.1,0.34-0.25,0.78-0.46,1.11C37.45,65.54,37.57,65.09,37.62,64.87z"/>
				<path class="st151" d="M37.07,66.11L37.07,66.11c0.02-0.02,0.03-0.05,0.05-0.07C37.1,66.06,37.08,66.08,37.07,66.11z"/>
			</g>
			<path class="st148" d="M37.74,64.38c-0.58,0.01-1.18-0.06-1.81-0.2c1.13-2.1-0.69-5.29-0.69-5.29c1.02,3.28,0.42,4.58-0.09,5.08
				c-1.08-0.34-2.21-0.86-3.36-1.5c2.25-3.32-0.12-7.26-0.12-7.26c1.25,4.1,0.09,6.05-0.66,6.81c-1.35-0.82-2.71-1.79-4-2.81
				c0.95-1.06,2.98-3.82,1.16-6.62c0,0,1.28,3.31-1.62,6.25c-0.65-0.52-1.29-1.06-1.9-1.59c0.5-1.2,1.46-4.15,0.01-6.64
				c0,0,0.82,4.32-0.58,6.14c-0.86-0.77-1.67-1.52-2.39-2.21c0.26-1.01,0.64-3.37-0.58-5.63c0,0,0.76,3.07,0.15,5.21
				c-1.87-1.82-3.06-3.16-3.06-3.16c0.85,1.3,1.71,2.48,2.57,3.57c-1.99,1.15-5.53,0.83-5.53,0.83c2.64,0.94,5.11-0.02,5.88-0.38
				c0.72,0.89,1.44,1.71,2.16,2.47c-1.48,1.69-5.66,1.52-5.66,1.52c2.51,1.05,5.1-0.31,6.16-1c0.63,0.64,1.25,1.23,1.87,1.78
				c-2.98,2.47-5.88,1.01-5.88,1.01c2.44,2,5.2,0.24,6.31-0.64c1.52,1.3,2.98,2.34,4.36,3.17c-0.66,0.85-2.19,1.98-5.45,1.42
				c0,0,3.65,1.77,6.14-1.01c1.13,0.64,2.19,1.13,3.15,1.51c-0.55,0.54-1.83,1.11-4.83,0.65c0,0,3.79,1.46,5.61-0.36
				c0.75,0.27,1.42,0.46,2,0.6C37.52,65.51,37.74,64.38,37.74,64.38L37.74,64.38z"/>
		</g>
		<g>
			<g>
				<path class="st147" d="M41.57,59.74c-0.34-3.59,3.07-4.56,3.07-4.56c0.1-4.07,3.55-4.48,3.55-4.48
					c0.59-3.58,3.27-2.31,3.27-2.31c0.98-3.24,3.54-1.92,3.54-1.92c0.71-3.49,3.47-2.97,3.47-2.97c0.85,0.19,1.41,0.85,1.78,1.63
					c5.87-0.84,3.4,3.15,2.58,4.29c0.84,0.84,1.11,1.97,1.11,1.97c1.41,2.45-2.08,4.58-2.08,4.58c0.82,1.8-2.46,3.2-2.46,3.2
					c-0.45,2.98-4.46,2.88-4.46,2.88c-1,2.95-3.26,2.66-3.26,2.66c-0.34,2.16-3.91,1.03-3.91,1.03c-1.9,1.28-5.41,0.16-5.41,0.16
					c-1.22-0.61-1.44-2.31-1.44-2.31C40.28,60.57,41.57,59.74,41.57,59.74z"/>
				<path class="st151" d="M40.88,63.76c0.1,0.39,0.26,0.89,0.48,1.28C41.06,64.53,40.93,64,40.88,63.76z"/>
				<path class="st151" d="M41.45,65.18L41.45,65.18c-0.02-0.03-0.03-0.05-0.05-0.08C41.41,65.12,41.43,65.15,41.45,65.18z"/>
			</g>
			<path class="st148" d="M40.76,63.19c0.59,0.01,1.21-0.07,1.85-0.23c-1.16-2.42,0.71-6.08,0.71-6.08
				c-1.05,3.76-0.43,5.26,0.1,5.83c1.11-0.39,2.27-0.98,3.45-1.72c-2.31-3.81,0.12-8.35,0.12-8.35c-1.28,4.71-0.09,6.95,0.67,7.83
				c1.39-0.94,2.78-2.05,4.11-3.23c-0.98-1.21-3.06-4.39-1.19-7.6c0,0-1.31,3.81,1.66,7.18c0.67-0.6,1.32-1.21,1.95-1.82
				c-0.52-1.38-1.5-4.77-0.01-7.63c0,0-0.84,4.96,0.6,7.05c0.89-0.88,1.71-1.75,2.45-2.54c-0.26-1.16-0.66-3.87,0.59-6.46
				c0,0-0.78,3.52-0.15,5.98c1.92-2.09,3.14-3.62,3.14-3.62c-0.87,1.49-1.75,2.85-2.64,4.11c2.04,1.32,5.67,0.95,5.67,0.95
				c-2.71,1.09-5.24-0.03-6.03-0.44c-0.74,1.02-1.48,1.96-2.21,2.83c1.52,1.93,5.8,1.75,5.8,1.75c-2.57,1.21-5.23-0.36-6.32-1.15
				c-0.64,0.74-1.28,1.42-1.92,2.05c3.06,2.84,6.03,1.16,6.03,1.16c-2.5,2.3-5.34,0.28-6.47-0.73c-1.56,1.5-3.06,2.69-4.47,3.64
				c0.68,0.98,2.25,2.27,5.59,1.63c0,0-3.74,2.03-6.3-1.17c-1.16,0.73-2.24,1.3-3.23,1.73c0.56,0.62,1.87,1.27,4.95,0.75
				c0,0-3.88,1.68-5.76-0.41c-0.77,0.3-1.46,0.53-2.06,0.69C40.98,64.49,40.76,63.19,40.76,63.19L40.76,63.19z"/>
		</g>
	</g>
</g>
</svg>
