<?xml version="1.0" encoding="utf-8"?>
<!-- Generator: Adobe Illustrator 23.1.0, SVG Export Plug-In . SVG Version: 6.00 Build 0)  -->
<svg version="1.1" xmlns="http://www.w3.org/2000/svg" xmlns:xlink="http://www.w3.org/1999/xlink" x="0px" y="0px"
	 viewBox="0 0 80 80" style="enable-background:new 0 0 80 80;" xml:space="preserve">
<style type="text/css">
	.st0{fill:#6F8653;}
	.st1{fill:#EBB044;}
	.st2{fill:#EEC27E;}
	.st3{fill:#DBA44B;}
	.st4{fill:#725846;}
	.st5{fill:#E8CA48;}
	.st6{fill:#F2DC7D;}
	.st7{fill:#CDB44D;}
	.st8{fill:#F8F8E1;}
	.st9{fill:#E4D049;}
	.st10{fill:#EDDC60;}
	.st11{fill:#E7E474;}
	.st12{fill:#809764;}
	.st13{fill:#46684B;}
	.st14{fill:#4D724F;}
	.st15{fill:#7D8E54;}
	.st16{fill:#4E7553;}
	.st17{fill:#456449;}
	.st18{fill:#415E46;}
	.st19{fill:#D6E06F;}
	.st20{fill:#A46246;}
	.st21{fill:#A97361;}
	.st22{fill:#6D8A56;}
	.st23{fill:#DB7B43;}
	.st24{fill:#EDB862;}
	.st25{fill:#DD8347;}
	.st26{fill:#E09A79;}
	.st27{fill:#D76B43;}
	.st28{fill:#C66849;}
	.st29{fill:#8E8079;}
	.st30{fill:#D98065;}
	.st31{fill:#C56647;}
	.st32{fill:#EFD9BA;}
	.st33{fill:#D45D45;}
	.st34{fill:#DD8075;}
	.st35{fill:#DAC6AD;}
	.st36{fill:#657F51;}
	.st37{fill:#556946;}
	.st38{fill:#7D9657;}
	.st39{fill:#7B706B;}
	.st40{fill:#93A47A;}
	.st41{fill:#6A7E4F;}
	.st42{fill:#E7E5D1;}
	.st43{fill:#CFD26A;}
	.st44{fill:#EDF0BC;}
	.st45{fill:#B6AA50;}
	.st46{fill:#A39C74;}
	.st47{fill:#D1C474;}
	.st48{fill:#93854C;}
	.st49{fill:#867B4A;}
	.st50{fill:#291D10;}
	.st51{fill:#AA9B50;}
	.st52{fill:#E5D263;}
	.st53{fill:#DC7F44;}
	.st54{fill:#E0956D;}
	.st55{fill:#EAAB44;}
	.st56{fill:#8CAC59;}
	.st57{fill:#657E4F;}
	.st58{fill:#97A779;}
	.st59{fill:#D14A4A;}
	.st60{fill:#97C35A;}
	.st61{fill:#89A559;}
	.st62{fill:#CB7A5E;}
	.st63{fill:#BE725E;}
	.st64{fill:#B16955;}
	.st65{fill:#D18D7D;}
	.st66{fill:#5D4837;}
	.st67{fill:#9C5B44;}
	.st68{fill:#D69747;}
	.st69{fill:#6A8E58;}
	.st70{fill:#80A071;}
	.st71{fill:#F1EB66;}
	.st72{fill:#EAC647;}
	.st73{fill:#F3EA8A;}
	.st74{fill:#CEA04A;}
	.st75{fill:#473321;}
	.st76{fill:#93AD7C;}
	.st77{fill:#EFD1A2;}
	.st78{fill:#91A87A;}
	.st79{fill:#6E8E42;}
	.st80{fill:#586889;}
	.st81{fill:#77859F;}
	.st82{fill:#83A25A;}
	.st83{fill:#B2C495;}
	.st84{fill:#947659;}
	.st85{fill:#4E6E4F;}
	.st86{fill:#524160;}
	.st87{fill:#3D3649;}
	.st88{fill:#6B5C7A;}
	.st89{fill:#2F3338;}
	.st90{fill:#212428;}
	.st91{fill:#282D32;}
	.st92{fill:#42484E;}
	.st93{fill:#252B2E;}
	.st94{fill:#6B3F3C;}
	.st95{fill:#645E57;}
	.st96{fill:#517E55;}
	.st97{fill:#2E4135;}
	.st98{fill:none;}
	.st99{fill:#6E8B70;}
	.st100{fill:#3D5545;}
	.st101{fill:#628A64;}
	.st102{fill:#F9F9E3;}
	.st103{fill:#D96F60;}
	.st104{fill:#C0645A;}
	.st105{fill:#543E2C;}
	.st106{fill:#7F4B49;}
	.st107{fill:#9E6345;}
	.st108{fill:#994D49;}
	.st109{fill:#A46A69;}
	.st110{fill:#8F5B42;}
	.st111{fill:#8E4948;}
	.st112{fill:#85986E;}
	.st113{fill:#6D7290;}
	.st114{fill:#626880;}
	.st115{fill:#9C9385;}
	.st116{fill:#F2D55A;}
	.st117{clip-path:url(#SVGID_2_);}
	.st118{fill:#E2AC54;}
	.st119{opacity:0.31;fill:#F9EFC5;}
	.st120{opacity:0.31;fill:#FFFBE9;}
	.st121{fill:#DDC862;}
	.st122{fill:#FFF3C2;}
	.st123{fill:#E8C046;stroke:#7A695F;stroke-width:0.15;stroke-miterlimit:10;}
	.st124{fill:#DBB248;}
	.st125{fill:#6F5753;}
	.st126{fill:#E8C046;stroke:#77655B;stroke-width:0.15;stroke-miterlimit:10;}
	.st127{fill:#83A15C;}
	.st128{fill:#698C3C;}
	.st129{fill:#809D5B;}
	.st130{fill:#4A6224;}
	.st131{fill:#85A55C;}
	.st132{fill:#506B26;}
	.st133{fill:#82A15B;}
	.st134{fill:#698958;}
	.st135{fill:#DD8344;}
	.st136{fill:#B56721;}
	.st137{fill:#C2463A;}
	.st138{fill:#CC6E64;}
	.st139{fill:#5EA817;}
	.st140{fill:#5F8F22;}
	.st141{fill:#C24F3C;}
	.st142{fill:#AB4A39;}
	.st143{fill:#BB413C;}
	.st144{fill:#EA7142;}
	.st145{fill:#ED835B;}
	.st146{fill:#E76D18;}
	.st147{fill:#56734E;}
	.st148{fill:#CBC797;}
	.st149{fill:#F1F0E1;}
	.st150{fill:#DBD9CA;}
	.st151{fill:#496042;}
	.st152{fill:#547534;}
	.st153{fill:#C0D591;}
	.st154{fill:#B3C483;}
	.st155{fill:#DFEAC1;}
	.st156{fill:#D5DDB8;}
	.st157{fill:#577F36;}
	.st158{fill:#4D6D2F;}
	.st159{fill:#4F6B32;}
	.st160{fill:#AAC654;}
	.st161{fill:#A0B252;}
	.st162{fill:#9B3743;}
	.st163{fill:#A34D5B;}
	.st164{fill:#75434B;}
	.st165{fill:#80333D;}
	.st166{fill:#722F3A;}
	.st167{fill:#8E424F;}
	.st168{fill:#A5273F;}
	.st169{fill:#9B2944;}
	.st170{fill:#93B250;}
	.st171{fill:#778950;}
	.st172{fill:#B1B297;}
	.st173{fill:#5D6B3E;}
	.st174{fill:#769328;}
	.st175{fill:#B9BC9D;}
	.st176{fill:#B4CE6E;}
	.st177{fill:#CCCEAF;}
	.st178{fill:#AEAF94;}
	.st179{fill:#E8C046;stroke:#7F6D62;stroke-width:0.15;stroke-miterlimit:10;}
	.st180{fill:#B7C661;}
	.st181{fill:#CED893;stroke:#ACB25F;stroke-width:0.5;stroke-miterlimit:10;}
	.st182{fill:#D79F4A;}
	.st183{clip-path:url(#SVGID_4_);}
	.st184{fill:#CDD98D;}
	.st185{fill:#FADA37;}
	.st186{fill:#CCB244;}
	.st187{fill:#FAE089;}
	.st188{fill:#FFED90;}
	.st189{fill:#ECDB6F;}
	.st190{fill:#FECF73;}
	.st191{fill:#CEA865;}
	.st192{fill:#EDDFCA;}
	.st193{fill:#EBDECA;}
	.st194{fill:#638408;}
	.st195{fill:#CE9F41;}
	.st196{fill:#F7BA23;}
	.st197{fill:#EAAE2A;}
	.st198{fill:#F2CE36;}
	.st199{fill:#F9D53D;}
	.st200{fill:#FCDA4F;}
	.st201{fill:#F7E289;}
	.st202{fill:#668F05;}
	.st203{fill:#597214;}
	.st204{fill:#8BA040;}
	.st205{fill:#7AA122;}
	.st206{fill:#95BB28;}
	.st207{fill:#E7F2A6;}
	.st208{fill:#C4CC75;}
	.st209{fill:#87A82C;}
	.st210{fill:#9FBF45;}
	.st211{fill:#728E25;}
	.st212{fill:#7D4E30;}
	.st213{fill:#3F5A2F;}
	.st214{fill:#4B7837;}
	.st215{fill:#85A93F;}
	.st216{fill:#693F26;}
	.st217{fill:#8C7668;}
	.st218{fill:#EDE9E6;}
	.st219{fill:#FFFDFC;}
	.st220{fill:#846F5C;}
	.st221{clip-path:url(#SVGID_6_);}
	.st222{fill:#B2A594;}
	.st223{fill:#E4DDD5;}
	.st224{fill:#A16D46;}
	.st225{fill:#9A8E42;}
	.st226{fill:#BBB061;}
	.st227{fill:#A08F41;}
	.st228{fill:#C1AD56;}
	.st229{opacity:0.7;}
	.st230{fill:#DACA7F;}
	.st231{fill:#EEE49F;}
	.st232{opacity:0.5;}
	.st233{fill:#FFF9D7;}
	.st234{fill:#7C7F32;}
	.st235{fill:#95A84C;}
	.st236{fill:#D8B45C;}
	.st237{fill:#FCC572;}
	.st238{fill:#FED49A;}
	.st239{fill:#C0782C;}
	.st240{fill:#D49430;}
	.st241{fill:#F5D19D;}
	.st242{opacity:0.35;}
	.st243{fill:#F9AFC9;}
	.st244{fill:#F9CDDE;}
	.st245{fill:#FFF3F8;}
	.st246{fill:#F4A2C3;}
	.st247{fill:#FFFFFF;}
	.st248{fill:#D7F2F9;}
	.st249{fill:#492743;}
	.st250{fill:#20131D;}
	.st251{fill:#685364;}
	.st252{fill:#748115;}
	.st253{fill:#A7B86A;}
</style>
<g id="Слой_1">
</g>
<g id="Слой_2">
</g>
<g id="Слой_4">
</g>
<g id="Слой_3">
	<g>
		<g>
			
				<ellipse transform="matrix(0.9959 -0.0903 0.0903 0.9959 -3.4271 4.6828)" class="st225" cx="50.07" cy="40.24" rx="26.67" ry="23.26"/>
		</g>
		<g>
			<path class="st226" d="M76.63,37.83c-1.16-12.8-13.99-22.09-28.66-20.76C33.3,18.4,22.35,29.85,23.51,42.64
				c0.07,0.77,0.18,1.53,0.34,2.28c5.78,5.81,16.18,9.16,27.68,8.12c11.01-1,20.3-5.77,25.15-12.1
				C76.73,39.91,76.72,38.88,76.63,37.83z"/>
		</g>
		<g>
			<path class="st227" d="M26.09,39.56c-0.04,0-0.09-0.01-0.13-0.03c-0.15-0.07-0.21-0.25-0.14-0.4c1.02-2.09,6.77-12.7,19.44-15.88
				c14.61-3.66,25.68,5.58,26.9,6.64c0.12,0.11,0.14,0.3,0.03,0.42c-0.11,0.12-0.3,0.14-0.42,0.03c-1.19-1.04-12.04-10.1-26.36-6.51
				c-12.42,3.11-18.05,13.51-19.05,15.56C26.3,39.5,26.2,39.56,26.09,39.56z"/>
		</g>
		<g>
			<path class="st227" d="M27.85,42.29c-0.1,0-0.19-0.05-0.25-0.14c-0.09-0.14-0.05-0.32,0.09-0.41c6.26-4.07,13.15-6.78,20.48-8.06
				c7.71-1.35,15.79-1.01,23.38,0.97c0.16,0.04,0.25,0.2,0.21,0.36c-0.04,0.16-0.2,0.25-0.36,0.21c-7.51-1.96-15.51-2.29-23.13-0.96
				c-7.25,1.27-14.07,3.95-20.26,7.98C27.96,42.27,27.91,42.29,27.85,42.29z"/>
		</g>
		<g>
			<path class="st227" d="M40.1,47.63c-4.15,0-8.31-0.39-12.46-1.18c-0.16-0.03-0.27-0.19-0.24-0.35c0.03-0.16,0.19-0.27,0.35-0.24
				c8.76,1.66,17.57,1.55,26.19-0.32c6.55-1.42,12.83-3.84,18.68-7.19c0.14-0.08,0.32-0.03,0.41,0.11c0.08,0.14,0.03,0.32-0.11,0.41
				c-5.9,3.38-12.25,5.82-18.85,7.25C49.45,47.13,44.78,47.63,40.1,47.63z"/>
		</g>
		<g>
			<path class="st228" d="M46.68,58.53c-7.25,0-12.98-2.41-15.11-3.44c-0.15-0.07-0.21-0.25-0.14-0.4c0.07-0.15,0.25-0.21,0.4-0.14
				c3.18,1.55,14.51,6.2,26.86,0.96c8.42-3.57,13.07-10,15.1-13.51c0.08-0.14,0.26-0.19,0.41-0.11c0.14,0.08,0.19,0.26,0.11,0.41
				c-2.06,3.58-6.8,10.12-15.38,13.76C54.62,57.88,50.44,58.53,46.68,58.53z"/>
		</g>
		<g class="st229">
			<path class="st230" d="M47.97,17.07C33.39,18.39,22.49,29.71,23.49,42.4c5.28,3.44,12.14,5.21,19.45,4.55
				c14.57-1.32,25.64-11.86,25.55-23.93C63.2,18.71,55.85,16.35,47.97,17.07z"/>
		</g>
		<g class="st229">
			<path class="st231" d="M32.01,32.14c-0.54-2.63,4.58-5.66,7.22-7.22c6.65-3.94,17.89-6.8,21.65-1.92c1.88,2.43,1.72,6.57,0,9.3
				C55.4,41.01,33.06,37.24,32.01,32.14z"/>
		</g>
		<g class="st232">
			<path class="st233" d="M37.59,29.09c-2.62-0.08-5.19-3.1-4.33-5.61c0.67-1.96,3.28-3.21,5.45-2.41c2.51,0.93,3.47,4.25,2.25,6.26
				C40.25,28.5,38.85,29.13,37.59,29.09z"/>
		</g>
		<g class="st232">
			<path class="st233" d="M45.77,24.28c-1.79-0.98-2.36-3.74-1.44-4.81c1.41-1.66,6.89,0.12,7.06,1.92
				C51.52,22.87,48.21,25.62,45.77,24.28z"/>
		</g>
		<g class="st232">
			<path class="st233" d="M65.78,27.95c0.45-0.65,1.46-1.2,2.14-0.78c0.68,0.42,0.75,1.64,0.19,2.33c-0.64,0.8-2.04,0.85-2.53,0.19
				C65.22,29.2,65.47,28.4,65.78,27.95z"/>
		</g>
		<g class="st232">
			<path class="st233" d="M31.48,30.12c0.45-0.65,1.46-1.2,2.14-0.78c0.68,0.42,0.75,1.64,0.19,2.33c-0.64,0.8-2.04,0.85-2.53,0.19
				C30.92,31.37,31.17,30.57,31.48,30.12z"/>
		</g>
		<g class="st232">
			<path class="st233" d="M47.88,29.45c0.42-0.61,1.36-1.12,2-0.73c0.64,0.39,0.7,1.53,0.18,2.18c-0.6,0.75-1.91,0.79-2.36,0.18
				C47.35,30.62,47.58,29.88,47.88,29.45z"/>
		</g>
		<g class="st232">
			<path class="st233" d="M62.93,21.87c0.38,0.32,1.52,1.37,1.76,3.05c0.32,2.17-1.03,4.19-2.73,5.13c-0.36,0.2-2.11,1.11-3.85,0.48
				c-3.33-1.21-4.81-7.4-2.41-9.46C57.22,19.78,60.24,20.11,62.93,21.87z"/>
		</g>
		<g class="st232">
			<path class="st233" d="M36.15,33.1c2.2-1.13,6.2-2.38,7.22-0.96c0.85,1.18-0.49,3.98-2.41,5.45c-3.3,2.54-8.83,1.5-9.3-0.16
				C31.25,35.99,34.6,33.89,36.15,33.1z"/>
		</g>
		<g>
			<path class="st234" d="M33.72,42.48c-10.97,0-20.85-1.84-27.81-4.78c-0.44,1.86-0.67,3.79-0.67,5.77
				c0,14.32,12.08,25.93,26.97,25.93s26.97-11.61,26.97-25.93c0-1.61-0.15-3.18-0.44-4.71C52.05,41.08,43.3,42.48,33.72,42.48z"/>
		</g>
		<g>
			<path class="st235" d="M56.97,39.34c-1.81,0.55-3.75,1.04-5.8,1.46c-5.18,1.18-11.16,1.86-17.55,1.86
				c-7.21,0-13.92-0.86-19.52-2.34c-2.32-0.55-4.47-1.2-6.44-1.93c-0.38,1.68-0.58,3.42-0.58,5.21C7.08,57.08,18.33,68,32.21,68
				s25.13-10.92,25.13-24.4C57.35,42.15,57.22,40.73,56.97,39.34z"/>
		</g>
		<g>
			<path class="st236" d="M54.33,40.08c-1.02,0.26-2.08,0.5-3.17,0.73c-3.9,0.89-8.26,1.49-12.9,1.74c-1.57,0.09-3.17,0.15-4.8,0.15
				c-2.62,0-5.16-0.13-7.59-0.37c-4.27-0.38-8.24-1.07-11.78-2c-1.34-0.32-2.62-0.67-3.84-1.05c-0.28,1.37-0.43,2.79-0.43,4.25
				c0,11.94,10.03,21.62,22.4,21.62c12.37,0,22.4-9.68,22.4-21.62C54.61,42.35,54.52,41.2,54.33,40.08z"/>
		</g>
		<g>
			<path class="st237" d="M51.92,40.65c-0.25,0.05-0.5,0.11-0.75,0.16c-3.9,0.89-8.26,1.49-12.9,1.74c-1.57,0.09-3.17,0.15-4.8,0.15
				c-2.62,0-5.16-0.13-7.59-0.37c-4.27-0.38-8.24-1.07-11.78-2c-0.51-0.12-1-0.25-1.49-0.38c-0.16,1.05-0.25,2.12-0.25,3.22
				c0,11.28,8.89,20.42,19.86,20.42c10.97,0,19.86-9.14,19.86-20.42C52.07,42.31,52.02,41.47,51.92,40.65z"/>
		</g>
		<g>
			<path class="st238" d="M33.72,42.48c-6.93,0-13.43-0.73-19.02-2.02c0.98,7.86,8.46,14.19,17.85,14.62
				c9.99,0.46,18.45-5.94,19.36-14.44C46.51,41.82,40.31,42.48,33.72,42.48z"/>
		</g>
		<g>
			<path class="st239" d="M33.72,42.48c-5.03,0-9.83-0.39-14.22-1.09c1.87,4.86,7.03,8.49,13.28,8.78
				c6.74,0.31,12.59-3.38,14.51-8.67C43.07,42.13,38.5,42.48,33.72,42.48z"/>
		</g>
		<g>
			<path class="st240" d="M33.72,42.48c-4.52,0-8.86-0.31-12.88-0.89c1.91,4.47,6.48,7.74,11.96,7.99
				c5.91,0.27,11.08-3.05,13.13-7.9C42.1,42.2,37.99,42.48,33.72,42.48z"/>
		</g>
		<g>
			<g>
				<path class="st241" d="M25.59,43.01c-0.03,0.07-0.08,0.12-0.12,0.19c-0.02,0.03-0.03,0.07-0.04,0.1
					c-0.05,0.09-0.11,0.18-0.16,0.27c-0.02,0.03-0.05,0.06-0.07,0.08c-0.18,0.22-0.34,0.45-0.49,0.69c-0.26,0.43-0.63,0.99-0.4,1.5
					c0.03,0.08,0.15,0.12,0.22,0.07c0.41-0.25,0.67-0.64,0.83-1.09c0.1-0.27,0.2-0.54,0.3-0.82c0.05-0.14,0.1-0.27,0.15-0.41
					c0.03-0.08,0.06-0.15,0.08-0.23c0.01-0.02,0.01-0.04,0.01-0.06c0.01-0.02,0.03-0.04,0.04-0.06c0.03-0.05,0.02-0.11-0.01-0.16
					C25.96,42.9,25.69,42.82,25.59,43.01z"/>
			</g>
			<g>
				<path class="st241" d="M27.38,43.49c-0.11,0.22-0.22,0.45-0.32,0.68c-0.14,0.23-0.26,0.46-0.37,0.71
					c-0.09,0.21-0.18,0.41-0.26,0.63c-0.08,0.21-0.18,0.45-0.17,0.68c0.01,0.17,0.1,0.35,0.27,0.42c0.19,0.07,0.42,0.02,0.55-0.12
					c0.14-0.15,0.22-0.36,0.29-0.55c0.09-0.22,0.17-0.45,0.23-0.69c0.13-0.52,0.2-1.06,0.21-1.6C27.82,43.43,27.5,43.27,27.38,43.49
					z"/>
			</g>
			<g>
				<path class="st241" d="M30.02,43.83c0.01-0.02,0.02-0.04,0.03-0.06c0.06-0.11-0.08-0.21-0.16-0.11
					c-0.03,0.03-0.05,0.07-0.07,0.1c-0.06,0.01-0.12,0.04-0.15,0.1c-0.08,0.15-0.15,0.29-0.21,0.44c-0.39,0.67-0.65,1.42-0.81,2.19
					c-0.04,0.21-0.07,0.44,0.05,0.63c0.12,0.19,0.35,0.26,0.56,0.18c0.22-0.08,0.35-0.29,0.4-0.51c0.06-0.28,0.1-0.56,0.14-0.84
					c0.11-0.65,0.2-1.29,0.3-1.94C30.1,43.94,30.07,43.87,30.02,43.83z"/>
			</g>
			<g>
				<path class="st241" d="M32.61,46.3c-0.03-0.64-0.06-1.29-0.09-1.93c-0.01-0.19-0.29-0.29-0.36-0.07
					c-0.11,0.35-0.2,0.7-0.27,1.06c-0.04,0.17-0.09,0.33-0.12,0.5c-0.05,0.25-0.09,0.51-0.12,0.76c-0.03,0.24-0.06,0.49-0.02,0.73
					c0.07,0.38,0.48,0.67,0.8,0.36c0.16-0.15,0.2-0.38,0.2-0.59C32.65,46.85,32.63,46.58,32.61,46.3z"/>
			</g>
			<g>
				<path class="st241" d="M35.64,45.74c-0.08-0.35-0.17-0.7-0.25-1.06c-0.04-0.17-0.08-0.34-0.13-0.51
					c-0.05-0.19-0.07-0.35-0.23-0.48c-0.1-0.09-0.26-0.01-0.3,0.1c-0.05,0.14-0.02,0.28,0.02,0.41c-0.1,0.45-0.15,0.93-0.17,1.38
					c-0.01,0.31-0.01,0.62,0.02,0.92c0.02,0.29,0.04,0.6,0.13,0.88c0.08,0.23,0.25,0.43,0.49,0.48c0.25,0.05,0.48-0.09,0.6-0.31
					c0.15-0.27,0.09-0.59,0.03-0.88C35.79,46.37,35.72,46.05,35.64,45.74z"/>
			</g>
			<g>
				<path class="st241" d="M37.87,45.29c-0.09-0.27-0.17-0.53-0.26-0.8c-0.08-0.25-0.14-0.57-0.33-0.77
					c-0.12-0.12-0.31-0.05-0.33,0.11c-0.02,0.12,0.01,0.24,0.04,0.36c-0.01,0.37,0.01,0.73,0.05,1.1c0.02,0.24,0.06,0.47,0.1,0.71
					c0.04,0.21,0.06,0.44,0.14,0.64c0.07,0.19,0.24,0.33,0.45,0.34c0.2,0,0.37-0.16,0.43-0.34c0.07-0.22-0.01-0.44-0.07-0.65
					C38.02,45.75,37.94,45.52,37.87,45.29z M37.66,46.54c0.03-0.01,0.06-0.02,0.08-0.03c0,0.02-0.01,0.05-0.03,0.06
					C37.69,46.58,37.68,46.57,37.66,46.54z"/>
			</g>
			<g>
				<path class="st241" d="M39.75,43.96c-0.06-0.07-0.13-0.13-0.19-0.2c-0.03-0.03-0.07-0.07-0.1-0.1
					c-0.09-0.09-0.18-0.11-0.31-0.09c-0.13,0.02-0.2,0.14-0.22,0.25c-0.01,0.1,0.03,0.19,0.09,0.26c0.06,0.26,0.13,0.52,0.22,0.77
					c0.06,0.18,0.13,0.37,0.21,0.54c0.06,0.15,0.13,0.32,0.25,0.44c0.32,0.33,0.8,0.04,0.83-0.37c0.02-0.38-0.19-0.75-0.4-1.05
					C40.01,44.25,39.88,44.11,39.75,43.96z"/>
			</g>
			<g>
				<path class="st241" d="M41.84,43.95c-0.2-0.27-0.4-0.55-0.61-0.82c-0.19-0.24-0.6,0.03-0.45,0.3c0.07,0.12,0.13,0.23,0.2,0.35
					c0.05,0.14,0.1,0.27,0.15,0.41c0.05,0.15,0.1,0.29,0.16,0.43c0.05,0.13,0.11,0.25,0.21,0.33c0.1,0.08,0.21,0.1,0.32,0.08
					c0.02,0,0.03,0.01,0.05,0.02c0.08,0.06,0.24,0,0.23-0.11c0-0.03,0-0.03,0.01-0.07c0.01-0.04,0.01-0.07,0.01-0.1
					c0.01-0.02,0.02-0.04,0.02-0.06C42.21,44.43,42.01,44.18,41.84,43.95z"/>
			</g>
			<g>
				<polygon class="st241" points="23.45,43.28 23.45,43.28 23.45,43.28 23.45,43.28 				"/>
			</g>
			<g>
				<path class="st241" d="M23.44,43.28C23.45,43.28,23.45,43.27,23.44,43.28C23.46,43.27,23.46,43.27,23.44,43.28z"/>
			</g>
			<g>
				<path class="st241" d="M24.06,42.3c-0.1,0.02-0.2,0.12-0.28,0.18c-0.08,0.06-0.16,0.13-0.23,0.19
					c-0.15,0.12-0.33,0.24-0.41,0.42c-0.07,0.17-0.01,0.39,0.16,0.47c0.2,0.09,0.4-0.06,0.49-0.24c0.05-0.1,0.1-0.21,0.15-0.31
					c0.02-0.05,0.05-0.1,0.07-0.15c0.03-0.05,0.06-0.11,0.07-0.17c0.01-0.04,0.01-0.08,0-0.11c0.04-0.04,0.08-0.09,0.1-0.14
					C24.22,42.36,24.15,42.28,24.06,42.3z M23.48,43.25c0.01-0.01-0.02,0.02-0.03,0.03c0,0,0,0,0,0c0,0,0,0,0,0c0,0,0,0,0,0
					c0,0-0.01,0-0.02,0c0,0,0,0-0.01,0c0,0,0-0.01-0.01-0.01c0.01,0.03,0-0.02,0-0.01c0-0.01,0-0.02,0-0.03
					c0.01-0.01,0.01-0.03,0.01-0.03c0.02-0.04,0.04-0.06,0.06-0.08c0.03-0.03,0.06-0.05,0.09-0.08c-0.01,0.04-0.03,0.07-0.04,0.11
					C23.52,43.19,23.52,43.21,23.48,43.25z"/>
			</g>
		</g>
		<g class="st242">
			<path class="st241" d="M7.36,38.28c0.07,0.09,0.16,0.15,0.29,0.23c0.15,0.08,0.29,0.17,0.43,0.26c0.29,0.17,0.58,0.34,0.87,0.51
				c0.56,0.31,1.15,0.58,1.71,0.9c0.29,0.17,0.58,0.33,0.88,0.49c0.17,0.09,0.32,0.18,0.5,0.26c-0.16-0.07,0.1,0.04,0.1,0.04
				c0.15,0.06,0.29,0.12,0.44,0.19c0.6,0.25,1.2,0.49,1.81,0.71c2.48,0.9,5.04,1.62,7.63,2.14c5.23,1.05,10.62,1.34,15.93,0.8
				c3.02-0.3,6.01-0.86,8.92-1.68c0.43-0.12,0.69-0.54,0.63-0.97c-0.04-0.28-0.19-0.5-0.41-0.63c-4.16,0.62-8.66,0.96-13.37,0.96
				C23.49,42.48,14.2,40.88,7.36,38.28z"/>
		</g>
	</g>
</g>
</svg>
