<?xml version="1.0" encoding="utf-8"?>
<!-- Generator: Adobe Illustrator 23.1.0, SVG Export Plug-In . SVG Version: 6.00 Build 0)  -->
<svg version="1.1" xmlns="http://www.w3.org/2000/svg" xmlns:xlink="http://www.w3.org/1999/xlink" x="0px" y="0px"
	 viewBox="0 0 80 80" style="enable-background:new 0 0 80 80;" xml:space="preserve">
<style type="text/css">
	.st0{fill:#6F8653;}
	.st1{fill:#EBB044;}
	.st2{fill:#EEC27E;}
	.st3{fill:#DBA44B;}
	.st4{fill:#725846;}
	.st5{fill:#E8CA48;}
	.st6{fill:#F2DC7D;}
	.st7{fill:#CDB44D;}
	.st8{fill:#F8F8E1;}
	.st9{fill:#E4D049;}
	.st10{fill:#EDDC60;}
	.st11{fill:#E7E474;}
	.st12{fill:#809764;}
	.st13{fill:#46684B;}
	.st14{fill:#4D724F;}
	.st15{fill:#7D8E54;}
	.st16{fill:#4E7553;}
	.st17{fill:#456449;}
	.st18{fill:#415E46;}
	.st19{fill:#D6E06F;}
	.st20{fill:#A46246;}
	.st21{fill:#A97361;}
	.st22{fill:#6D8A56;}
	.st23{fill:#DB7B43;}
	.st24{fill:#EDB862;}
	.st25{fill:#DD8347;}
	.st26{fill:#E09A79;}
	.st27{fill:#D76B43;}
	.st28{fill:#C66849;}
	.st29{fill:#8E8079;}
	.st30{fill:#D98065;}
	.st31{fill:#C56647;}
	.st32{fill:#EFD9BA;}
	.st33{fill:#D45D45;}
	.st34{fill:#DD8075;}
	.st35{fill:#DAC6AD;}
	.st36{fill:#657F51;}
	.st37{fill:#556946;}
	.st38{fill:#7D9657;}
	.st39{fill:#7B706B;}
	.st40{fill:#93A47A;}
	.st41{fill:#6A7E4F;}
	.st42{fill:#E7E5D1;}
	.st43{fill:#CFD26A;}
	.st44{fill:#EDF0BC;}
	.st45{fill:#B6AA50;}
	.st46{fill:#A39C74;}
	.st47{fill:#D1C474;}
	.st48{fill:#93854C;}
	.st49{fill:#867B4A;}
	.st50{fill:#291D10;}
	.st51{fill:#AA9B50;}
	.st52{fill:#E5D263;}
	.st53{fill:#DC7F44;}
	.st54{fill:#E0956D;}
	.st55{fill:#EAAB44;}
	.st56{fill:#8CAC59;}
	.st57{fill:#657E4F;}
	.st58{fill:#97A779;}
	.st59{fill:#D14A4A;}
	.st60{fill:#97C35A;}
	.st61{fill:#89A559;}
	.st62{fill:#CB7A5E;}
	.st63{fill:#BE725E;}
	.st64{fill:#B16955;}
	.st65{fill:#D18D7D;}
	.st66{fill:#5D4837;}
	.st67{fill:#9C5B44;}
	.st68{fill:#D69747;}
	.st69{fill:#6A8E58;}
	.st70{fill:#80A071;}
	.st71{fill:#F1EB66;}
	.st72{fill:#EAC647;}
	.st73{fill:#F3EA8A;}
	.st74{fill:#CEA04A;}
	.st75{fill:#473321;}
	.st76{fill:#93AD7C;}
	.st77{fill:#EFD1A2;}
	.st78{fill:#91A87A;}
	.st79{fill:#6E8E42;}
	.st80{fill:#586889;}
	.st81{fill:#77859F;}
	.st82{fill:#83A25A;}
	.st83{fill:#B2C495;}
	.st84{fill:#947659;}
	.st85{fill:#4E6E4F;}
	.st86{fill:#524160;}
	.st87{fill:#3D3649;}
	.st88{fill:#6B5C7A;}
	.st89{fill:#2F3338;}
	.st90{fill:#212428;}
	.st91{fill:#282D32;}
	.st92{fill:#42484E;}
	.st93{fill:#252B2E;}
	.st94{fill:#6B3F3C;}
	.st95{fill:#645E57;}
	.st96{fill:#517E55;}
	.st97{fill:#2E4135;}
	.st98{fill:none;}
	.st99{fill:#6E8B70;}
	.st100{fill:#3D5545;}
	.st101{fill:#628A64;}
	.st102{fill:#F9F9E3;}
	.st103{fill:#D96F60;}
	.st104{fill:#C0645A;}
	.st105{fill:#543E2C;}
	.st106{fill:#7F4B49;}
	.st107{fill:#9E6345;}
	.st108{fill:#994D49;}
	.st109{fill:#A46A69;}
	.st110{fill:#8F5B42;}
	.st111{fill:#8E4948;}
	.st112{fill:#85986E;}
	.st113{fill:#6D7290;}
	.st114{fill:#626880;}
	.st115{fill:#9C9385;}
	.st116{fill:#F2D55A;}
	.st117{clip-path:url(#SVGID_2_);}
	.st118{fill:#E2AC54;}
	.st119{opacity:0.31;fill:#F9EFC5;}
	.st120{opacity:0.31;fill:#FFFBE9;}
	.st121{fill:#DDC862;}
	.st122{fill:#FFF3C2;}
	.st123{fill:#E8C046;stroke:#7A695F;stroke-width:0.15;stroke-miterlimit:10;}
	.st124{fill:#DBB248;}
	.st125{fill:#6F5753;}
	.st126{fill:#E8C046;stroke:#77655B;stroke-width:0.15;stroke-miterlimit:10;}
	.st127{fill:#83A15C;}
	.st128{fill:#698C3C;}
	.st129{fill:#809D5B;}
	.st130{fill:#4A6224;}
	.st131{fill:#85A55C;}
	.st132{fill:#506B26;}
	.st133{fill:#82A15B;}
	.st134{fill:#698958;}
	.st135{fill:#DD8344;}
	.st136{fill:#B56721;}
	.st137{fill:#C2463A;}
	.st138{fill:#CC6E64;}
	.st139{fill:#5EA817;}
	.st140{fill:#5F8F22;}
	.st141{fill:#C24F3C;}
	.st142{fill:#AB4A39;}
	.st143{fill:#BB413C;}
	.st144{fill:#EA7142;}
	.st145{fill:#ED835B;}
	.st146{fill:#E76D18;}
	.st147{fill:#56734E;}
	.st148{fill:#CBC797;}
	.st149{fill:#F1F0E1;}
	.st150{fill:#DBD9CA;}
	.st151{fill:#496042;}
	.st152{fill:#547534;}
	.st153{fill:#C0D591;}
	.st154{fill:#B3C483;}
	.st155{fill:#DFEAC1;}
	.st156{fill:#D5DDB8;}
	.st157{fill:#577F36;}
	.st158{fill:#4D6D2F;}
	.st159{fill:#4F6B32;}
	.st160{fill:#AAC654;}
	.st161{fill:#A0B252;}
	.st162{fill:#9B3743;}
	.st163{fill:#A34D5B;}
	.st164{fill:#75434B;}
	.st165{fill:#80333D;}
	.st166{fill:#722F3A;}
	.st167{fill:#8E424F;}
	.st168{fill:#A5273F;}
	.st169{fill:#9B2944;}
	.st170{fill:#93B250;}
	.st171{fill:#778950;}
	.st172{fill:#B1B297;}
	.st173{fill:#5D6B3E;}
	.st174{fill:#769328;}
	.st175{fill:#B9BC9D;}
	.st176{fill:#B4CE6E;}
	.st177{fill:#CCCEAF;}
	.st178{fill:#AEAF94;}
	.st179{fill:#E8C046;stroke:#7F6D62;stroke-width:0.15;stroke-miterlimit:10;}
	.st180{fill:#B7C661;}
	.st181{fill:#CED893;stroke:#ACB25F;stroke-width:0.5;stroke-miterlimit:10;}
	.st182{fill:#D79F4A;}
	.st183{clip-path:url(#SVGID_4_);}
	.st184{fill:#CDD98D;}
	.st185{fill:#FADA37;}
	.st186{fill:#CCB244;}
	.st187{fill:#FAE089;}
	.st188{fill:#FFED90;}
	.st189{fill:#ECDB6F;}
	.st190{fill:#FECF73;}
	.st191{fill:#CEA865;}
	.st192{fill:#EDDFCA;}
	.st193{fill:#EBDECA;}
	.st194{fill:#638408;}
	.st195{fill:#CE9F41;}
	.st196{fill:#F7BA23;}
	.st197{fill:#EAAE2A;}
	.st198{fill:#F2CE36;}
	.st199{fill:#F9D53D;}
	.st200{fill:#FCDA4F;}
	.st201{fill:#F7E289;}
	.st202{fill:#668F05;}
	.st203{fill:#597214;}
	.st204{fill:#8BA040;}
	.st205{fill:#7AA122;}
	.st206{fill:#95BB28;}
	.st207{fill:#E7F2A6;}
	.st208{fill:#C4CC75;}
	.st209{fill:#87A82C;}
	.st210{fill:#9FBF45;}
	.st211{fill:#728E25;}
	.st212{fill:#7D4E30;}
	.st213{fill:#3F5A2F;}
	.st214{fill:#4B7837;}
	.st215{fill:#85A93F;}
	.st216{fill:#693F26;}
	.st217{fill:#8C7668;}
	.st218{fill:#EDE9E6;}
	.st219{fill:#FFFDFC;}
	.st220{fill:#846F5C;}
	.st221{clip-path:url(#SVGID_6_);}
	.st222{fill:#B2A594;}
	.st223{fill:#E4DDD5;}
	.st224{fill:#A16D46;}
	.st225{fill:#9A8E42;}
	.st226{fill:#BBB061;}
	.st227{fill:#A08F41;}
	.st228{fill:#C1AD56;}
	.st229{opacity:0.7;}
	.st230{fill:#DACA7F;}
	.st231{fill:#EEE49F;}
	.st232{opacity:0.5;}
	.st233{fill:#FFF9D7;}
	.st234{fill:#7C7F32;}
	.st235{fill:#95A84C;}
	.st236{fill:#D8B45C;}
	.st237{fill:#FCC572;}
	.st238{fill:#FED49A;}
	.st239{fill:#C0782C;}
	.st240{fill:#D49430;}
	.st241{fill:#F5D19D;}
	.st242{opacity:0.35;}
	.st243{fill:#F9AFC9;}
	.st244{fill:#F9CDDE;}
	.st245{fill:#FFF3F8;}
	.st246{fill:#F4A2C3;}
	.st247{fill:#FFFFFF;}
	.st248{fill:#D7F2F9;}
	.st249{fill:#492743;}
	.st250{fill:#20131D;}
	.st251{fill:#685364;}
	.st252{fill:#748115;}
	.st253{fill:#A7B86A;}
</style>
<g id="Слой_1">
	<g>
		<path class="st22" d="M13.58,14.49l0.62,0.62c0,0-2.92,0.55-4.03,0.47l0.99,0.6c0,0-2.18,0.65-3.3,0.57l0.52,0.7
			c0,0-2.09,0.72-2.68,1.2l0.72,0.4l-2.03,1.37l0.44,0.49c0,0-1.44,0.75-2.14,1.6c0,0,1.84,0.33-0.18,1.56l0.45,0.34
			c0,0-1.48,1.57-2.62,2.44c1.41,0.25,3.45,0.97,3.45,0.97l-0.24,0.51c2.36,0.17,0.87,1.3,0.87,1.3c1.01,0.44,2.64,0.45,2.64,0.45
			l-0.17,0.63L9.31,31l-0.46,0.68c0.74,0.16,2.93-0.16,2.93-0.16l-0.14,0.86c0.96-0.58,3.19-1,3.19-1l-0.61,0.99
			c0.96-0.58,3.8-1.42,3.8-1.42l-0.27,0.84c1.28-0.4,3.75-2.45,3.75-2.45l-0.22,0.73c5.37-1.8,8.79-8.01,10.07-10.74
			c-2.38-1.84-8.26-5.8-13.86-4.95l0.53,0.56C18.03,14.95,14.9,14.26,13.58,14.49z"/>
		<path class="st22" d="M50.12,16.02l-0.68-0.21c0,0,1.41-1.36,2.1-1.68l-0.89-0.07c0,0,0.93-1.18,1.62-1.5l-0.66-0.3
			c0,0,0.84-1.19,0.94-1.71l-0.62-0.03L52.4,8.9l-0.5-0.18c0,0,0.45-0.99,0.42-1.81c0,0-1.24,0.4-0.69-1.11l-0.43-0.08
			c0,0,0.05-1.56,0.27-2.53c-0.94,0.31-2.49,0.51-2.49,0.51l-0.12-0.42c-1.45,0.69-1.17-0.58-1.17-0.58
			c-0.82,0.04-1.76,0.59-1.76,0.59L45.68,2.8l-1.56,0.62l-0.09-0.62c-0.51,0.14-1.61,1.1-1.61,1.1l-0.36-0.63
			c-0.26,0.71-1.34,1.75-1.34,1.75l-0.16-0.87c-0.26,0.71-1.47,2.25-1.47,2.25l-0.28-0.66c-0.53,0.7-0.91,2.92-0.91,2.92L37.65,8.1
			c-2.19,3.03-0.98,8.38-0.32,10.65c2.33,0.44,7.76,1.12,10.56-1.35l-0.59-0.2C47.31,17.21,49.48,16.61,50.12,16.02z"/>
		<path class="st23" d="M49.04,30.52L49.04,30.52c0,0,0,0-0.01,0c-0.57-0.29-1.15-0.56-1.74-0.81c-0.87-0.44-1.83-0.98-2.29-1.44
			c0,0-2.76-3.14-8.02-2.95c-5.27-0.19-8.03,2.95-8.03,2.95c-0.46,0.46-1.42,1-2.29,1.44c-0.59,0.25-1.18,0.52-1.74,0.81
			c0,0-0.01,0-0.01,0h0c-7.41,3.78-12.41,10.93-12.41,19.13c0,12.14,10.96,21.99,24.48,21.99c13.52,0,24.48-9.84,24.48-21.99
			C61.45,41.45,56.45,34.3,49.04,30.52z"/>
		<path class="st22" d="M36.97,25.04c-0.01,0-0.02,0-0.04,0c-0.45-0.02-0.79-0.4-0.78-0.84c0.27-6.42-6.95-7.85-7.26-7.91
			c-0.44-0.08-0.73-0.51-0.65-0.94c0.08-0.44,0.5-0.73,0.94-0.65c0.09,0.02,2.23,0.42,4.36,1.78c2.9,1.84,4.36,4.54,4.22,7.79
			C37.76,24.7,37.4,25.04,36.97,25.04z"/>
		<g>
			<path class="st24" d="M45.02,58.1c4.89,0.54,9.87,0.76,14.79,0.6c2.03-0.06,4.09-0.21,6.1-0.5c2.63-0.37,5.11-1.34,7.81-1.19
				c1.04,0.06,2.59,0.9,3.03,1.87c0.51,1.14,0.01,2.57-0.37,3.68c-1.04,2.99-2.44,6.12-4.8,8.3c-2.22,2.05-5.1,3.31-8.07,3.82
				c-1.47,0.25-3.02,0.39-4.51,0.39c-4.4,0.06-9.29-0.72-13.17-2.85c-4.41-2.42-6.62-6.62-6.95-11.57
				C38.86,60.64,38.6,56.69,45.02,58.1z"/>
			<path class="st25" d="M71.67,69.62c0,0-0.84,1.34-2.05,1.82c0,0-1.33-3.21-1.17-5.15c0,0-0.01-1.76-0.43-2.41
				C68.02,63.89,70.14,67.03,71.67,69.62z"/>
			<path class="st25" d="M69.05,71.64c0,0-1.5,1.15-2.43,1c0,0-0.41-3.37-1.15-4.58c0,0-0.86-2.22-0.13-4.3c0,0,1.78,2.1,2.17,3.41
				C67.5,67.16,69.11,70.54,69.05,71.64z"/>
			<path class="st25" d="M65.97,73.14c0,0-0.74,0.24-1.58,0.05c0,0-1.51-1.97-1.05-4.01c0,0,0.18-3.35,1.14-1.84
				c0,0,0.91,1.2,0.69,2.75c0,0-0.11,0.58,0.39,1.09C65.56,71.18,66.11,71.69,65.97,73.14z"/>
			<path class="st25" d="M65.33,59.4c0,0-0.5,2.39,0.1,3.29c0,0,1.17,2.21,1.98,2.97c0,0,0.38-1.99-0.09-3.03
				C67.32,62.64,65.94,59.07,65.33,59.4z"/>
			<path class="st25" d="M67.86,58.88c0,0-0.89-0.06-1.39,0.46c0,0,1.49,2.79,1.52,3.66c0,0,0.38,0.78,0.61-0.19
				c0,0-0.35-1.26,0.58-0.99c0,0,0.67,0.1-0.02-0.77C69.16,61.06,68.46,59.7,67.86,58.88z"/>
			<path class="st25" d="M72.39,58.27c0,0-1.06-0.2-1.8-0.07c0,0,0.96,1.25,2.39,1.99c0,0,2.44,1.42,1.27-0.04
				C74.25,60.15,72.88,58.49,72.39,58.27z"/>
			<path class="st25" d="M75.27,58.67c0,0,0.31,0.1,0.26,0.74c0,0,0.18,1.6-0.58,0.41c0,0-0.68-0.94-1.36-1.21
				C73.59,58.61,73.42,58.02,75.27,58.67z"/>
			<path class="st25" d="M70.34,59.12c0,0-0.07-0.6-0.75-0.6c0,0-2.05-0.25-0.92,0.65c0,0,0.88,1.65,2.09,2.22
				c0,0,1.57,0.99,0.76-0.4C71.51,60.99,71.08,59.72,70.34,59.12z"/>
			<path class="st25" d="M74.23,65.63c0,0,0.58,0.22,0.02,0.66c0,0-0.56,0.97-1.24-0.18c0,0-1.78-2.39-2.14-3.28
				c0,0-0.74-1.45,0.51-0.63C71.39,62.2,72.86,63.35,74.23,65.63z"/>
			<path class="st25" d="M75.06,61.63c0,0,0.61-0.13,0.47,0.83l-0.27,1.81c0,0-0.33,1.42-1.04-0.14c0,0-1.64-2.56-1.95-3.15
				c0,0-0.74-1.22,0.54-0.28C72.81,60.7,74.43,61.29,75.06,61.63z"/>
			<path class="st25" d="M70.47,63.6c0,0-0.39-1.44-0.88-1.42c0,0-0.71-0.17-0.31,1.46c0,0-0.04,1.23,0.91,1.69
				c0,0,1.25,0.73,2,1.65c0,0,0.78,0.31,0.09-0.73C72.29,66.24,70.83,64.52,70.47,63.6z"/>
			<path class="st25" d="M72.71,67.83c0,0,0.55,0.16,0.02,0.72c0,0-0.48,1.03-1.1-0.1c0,0-1.53-1.65-1.41-2.35
				c0,0,0.73,0.2,1.46,1.03C71.68,67.14,72.09,67.65,72.71,67.83z"/>
			<path class="st25" d="M64.15,60.3c0,0,0.33-0.98-0.79-0.96c0,0-1.53-0.3-0.99,1.02c0,0,1.08,2.28,0.97,3.46
				c0,0,0.04,2.59,0.5,2.64c0,0,0.64,0.18,0.58-1.67C64.42,64.79,64.46,61.86,64.15,60.3z"/>
			<path class="st25" d="M63.69,73.31c0,0-1.32,0.85-2.7,0.09c0,0-0.55-2.81-0.14-4.63c0,0,0.74-4.54-0.39-6.05
				c0,0-0.95-2.15,0.3-1.2c0,0,1.41,0.78,1.64,2.78c0,0,0.43,2.19,0.12,4.02c0,0-0.41,2.82,0.52,4.01
				C63.04,72.32,63.65,72.74,63.69,73.31z"/>
			<path class="st25" d="M61.67,60.06c0,0,0.97,2.9-0.57,0.84c0,0-1.49-1.29-0.47-1.38C60.63,59.53,61.62,59.24,61.67,60.06z"/>
			<path class="st25" d="M59.79,63.29c0,0,0.8,3.41,0.15,4.81c0,0-0.36,0.14-1.04-1.78c0,0-1.86-4.52-1.28-6.33
				c0,0,1.16-0.92,1.55-0.05C59.16,59.95,59.88,62,59.79,63.29z"/>
			<path class="st25" d="M60.21,73.78c0,0-1.85,0.8-2.73,0.09c0,0-0.4-4.22-0.01-5.69c0,0,0.11-3.44,1.14-0.9
				c0,0,0.87,1.74,0.91,2.99c0,0,0.02,0.74,0.42,2.02C59.94,72.29,60.2,73.24,60.21,73.78z"/>
			<path class="st25" d="M56.64,61.83c0,0,0.13-2.26-0.84-0.42c0,0-1.46,1.78-1.21,3.7c0,0,0.47,2.35,0.38,3.61
				c0,0,0.47,2.36,1.1,0.29c0,0,1.15-2.31,0.89-4.38C56.96,64.63,56.87,62.64,56.64,61.83z"/>
			<path class="st25" d="M56.46,71.85c0,0,0.51-3.8-0.79-0.99c0,0-2.52,2.88-1.12,3.26c0,0,1.96,0.97,2.1-0.6
				C56.65,73.53,56.73,73.19,56.46,71.85z"/>
			<path class="st25" d="M55.79,59.68c0,0-1.83-0.46-1.94,0.2c0,0-0.32,1.83,0.4,2.39c0,0,0.46,0.05,0.92-1.02
				C55.17,61.25,56.36,59.98,55.79,59.68z"/>
			<path class="st25" d="M52.72,60.57c0,0,1.28-1.34-0.27-1.22c0,0-1.43-0.51-1.65,1.04c0,0-0.57,1.77-0.22,3.54
				c0,0,0.47,0.22,0.6-0.94C51.17,63,52.22,61.44,52.72,60.57z"/>
			<path class="st25" d="M53.6,64.8c0,0,0.27-6.23-1.55-2.27c0,0-1.13,1.85-1.08,3.65c0,0-0.59,2.18,0.08,2.76
				c0,0,0.9,0.31,1.63-1.63C52.69,67.3,53.59,65.72,53.6,64.8z"/>
			<path class="st25" d="M54.26,68.86c0,0,0.1-4.22-1.16-1.25c0,0-0.8,1.88-0.5,3.09c0,0,0.38,0.65,0.01,1.75c0,0-0.34,1.4,0.42,1.4
				c0,0,0.99,0.24,0.86-1.65C53.88,72.2,54.35,70.51,54.26,68.86z"/>
			<path class="st25" d="M50.01,60.66c0,0,0.75-1.43-0.38-1.57c0,0-1.36-0.19-1.03,0.82c0,0-0.26,2.82,0.05,2.9
				C48.65,62.81,49.96,63.1,50.01,60.66z"/>
			<path class="st25" d="M49.51,65.16c0,0,0.71-2.14-0.35-2.1c0,0-0.92-0.1-1.31,1.45c0,0-0.8,2.76-2.22,3.83
				c0,0-1.16,0.9-1.26,1.72c0,0,0.83,0.22,1.65-0.95c0,0,0.77-1.72,1.98-2.15C48,66.96,49.29,66.18,49.51,65.16z"/>
			<path class="st25" d="M50.08,65.99c0,0,0.05,2.73-0.88,4.59c0,0-0.95,2.63-1.98,1.55c0,0-0.88-0.27,0.13-1.55
				C47.35,70.59,48.74,65.48,50.08,65.99z"/>
			<path class="st25" d="M46.98,69.08c0,0-0.38,2.89-1.22,2.26c0,0-0.87-0.58-0.33-1.05c0.55-0.47,0.55-0.47,0.55-0.47
				S46.54,68.82,46.98,69.08z"/>
			<path class="st25" d="M51.7,73.68c0,0-0.75,0.27-1.39-0.17c0,0,0.2-3.27,0.84-3.87c0,0,0.51-0.44,0.59,0.87
				C51.74,70.51,52.17,72.76,51.7,73.68z"/>
			<path class="st25" d="M49.96,70.81c0,0,0.32,2.89-0.67,2.63c0,0-1.27-0.27-0.47-1.28C48.82,72.16,49.46,70.7,49.96,70.81z"/>
			<path class="st25" d="M47.02,59.95c0,0,0.84-0.58,0.87,0.44c0,0-0.06,1.12-0.77,2.73c0,0-1,4.55-1.97,4.42
				c0,0-0.28-0.25,0.15-1.43c0,0,0.58-1.48,0.29-2.41c0,0-0.58-0.49,0.43-2.12C46.02,61.57,46.61,60.45,47.02,59.95z"/>
			<path class="st25" d="M44.03,63.53c0,0-1.8,4.06-1.22,4.83c0,0,1.07,1.78,1.31-0.41C44.12,67.94,45.1,61.82,44.03,63.53z"/>
			<path class="st25" d="M47.55,58.92c0,0-1.25-0.85-1.92-0.3c0,0-0.94,0.49-1.03,1.94c0,0-0.5,1.89,0.06,2.01
				c0,0,0.53,0.13,0.63-1.11c0,0,0.53-1.99,1.82-2.03C47.1,59.42,47.74,59.54,47.55,58.92z"/>
			<path class="st25" d="M44.37,58.65c0,0-2.01-0.37-2.95,0.09c0,0-1.82,0.75-1.64,2.31c0,0,0.24,1.22,1.23,0.25
				c0,0,1.37-0.35,1.88-0.96C42.88,60.35,44.48,59.48,44.37,58.65z"/>
			<path class="st25" d="M43.49,62.21c0,0,1.12-2.46-1.11-0.67c0,0-2.63,1.09-2.1,2.31c0,0-0.13,1.05,1.12-0.03
				C41.4,63.82,43.22,63.14,43.49,62.21z"/>
			<path class="st25" d="M42.61,65.38c0,0,1.56-3.48-0.41-1.26c0,0-1.73,0.4-1.16,1.62C41.03,65.73,42.41,68.29,42.61,65.38z"/>
		</g>
		<path class="st26" d="M28.81,33.96c1.17,1.78-0.35,4.85-3.4,6.87c-3.05,2.01-6.48,2.2-7.65,0.42c-1.17-1.78,0.35-4.85,3.4-6.87
			C24.21,32.37,27.64,32.18,28.81,33.96z"/>
	</g>
</g>
<g id="Слой_2">
</g>
<g id="Слой_4">
</g>
<g id="Слой_3">
</g>
</svg>
