<?xml version="1.0" encoding="utf-8"?>
<!-- Generator: Adobe Illustrator 23.1.0, SVG Export Plug-In . SVG Version: 6.00 Build 0)  -->
<svg version="1.1" xmlns="http://www.w3.org/2000/svg" xmlns:xlink="http://www.w3.org/1999/xlink" x="0px" y="0px"
	 viewBox="0 0 80 80" style="enable-background:new 0 0 80 80;" xml:space="preserve">
<style type="text/css">
	.st0{fill:#6F8653;}
	.st1{fill:#EBB044;}
	.st2{fill:#EEC27E;}
	.st3{fill:#DBA44B;}
	.st4{fill:#725846;}
	.st5{fill:#E8CA48;}
	.st6{fill:#F2DC7D;}
	.st7{fill:#CDB44D;}
	.st8{fill:#F8F8E1;}
	.st9{fill:#E4D049;}
	.st10{fill:#EDDC60;}
	.st11{fill:#E7E474;}
	.st12{fill:#809764;}
	.st13{fill:#46684B;}
	.st14{fill:#4D724F;}
	.st15{fill:#7D8E54;}
	.st16{fill:#4E7553;}
	.st17{fill:#456449;}
	.st18{fill:#415E46;}
	.st19{fill:#D6E06F;}
	.st20{fill:#A46246;}
	.st21{fill:#A97361;}
	.st22{fill:#6D8A56;}
	.st23{fill:#DB7B43;}
	.st24{fill:#EDB862;}
	.st25{fill:#DD8347;}
	.st26{fill:#E09A79;}
	.st27{fill:#D76B43;}
	.st28{fill:#C66849;}
	.st29{fill:#8E8079;}
	.st30{fill:#D98065;}
	.st31{fill:#C56647;}
	.st32{fill:#EFD9BA;}
	.st33{fill:#D45D45;}
	.st34{fill:#DD8075;}
	.st35{fill:#DAC6AD;}
	.st36{fill:#657F51;}
	.st37{fill:#556946;}
	.st38{fill:#7D9657;}
	.st39{fill:#7B706B;}
	.st40{fill:#93A47A;}
	.st41{fill:#6A7E4F;}
	.st42{fill:#E7E5D1;}
	.st43{fill:#CFD26A;}
	.st44{fill:#EDF0BC;}
	.st45{fill:#B6AA50;}
	.st46{fill:#A39C74;}
	.st47{fill:#D1C474;}
	.st48{fill:#93854C;}
	.st49{fill:#867B4A;}
	.st50{fill:#291D10;}
	.st51{fill:#AA9B50;}
	.st52{fill:#E5D263;}
	.st53{fill:#DC7F44;}
	.st54{fill:#E0956D;}
	.st55{fill:#EAAB44;}
	.st56{fill:#8CAC59;}
	.st57{fill:#657E4F;}
	.st58{fill:#97A779;}
	.st59{fill:#D14A4A;}
	.st60{fill:#97C35A;}
	.st61{fill:#89A559;}
	.st62{fill:#CB7A5E;}
	.st63{fill:#BE725E;}
	.st64{fill:#B16955;}
	.st65{fill:#D18D7D;}
	.st66{fill:#5D4837;}
	.st67{fill:#9C5B44;}
	.st68{fill:#D69747;}
	.st69{fill:#6A8E58;}
	.st70{fill:#80A071;}
	.st71{fill:#F1EB66;}
	.st72{fill:#EAC647;}
	.st73{fill:#F3EA8A;}
	.st74{fill:#CEA04A;}
	.st75{fill:#473321;}
	.st76{fill:#93AD7C;}
	.st77{fill:#EFD1A2;}
	.st78{fill:#91A87A;}
	.st79{fill:#6E8E42;}
	.st80{fill:#586889;}
	.st81{fill:#77859F;}
	.st82{fill:#83A25A;}
	.st83{fill:#B2C495;}
	.st84{fill:#947659;}
	.st85{fill:#4E6E4F;}
	.st86{fill:#524160;}
	.st87{fill:#3D3649;}
	.st88{fill:#6B5C7A;}
	.st89{fill:#2F3338;}
	.st90{fill:#212428;}
	.st91{fill:#282D32;}
	.st92{fill:#42484E;}
	.st93{fill:#252B2E;}
	.st94{fill:#6B3F3C;}
	.st95{fill:#645E57;}
	.st96{fill:#517E55;}
	.st97{fill:#2E4135;}
	.st98{fill:none;}
	.st99{fill:#6E8B70;}
	.st100{fill:#3D5545;}
	.st101{fill:#628A64;}
	.st102{fill:#F9F9E3;}
	.st103{fill:#D96F60;}
	.st104{fill:#C0645A;}
	.st105{fill:#543E2C;}
	.st106{fill:#7F4B49;}
	.st107{fill:#9E6345;}
	.st108{fill:#994D49;}
	.st109{fill:#A46A69;}
	.st110{fill:#8F5B42;}
	.st111{fill:#8E4948;}
	.st112{fill:#85986E;}
	.st113{fill:#6D7290;}
	.st114{fill:#626880;}
	.st115{fill:#9C9385;}
	.st116{fill:#F2D55A;}
	.st117{clip-path:url(#SVGID_2_);}
	.st118{fill:#E2AC54;}
	.st119{opacity:0.31;fill:#F9EFC5;}
	.st120{opacity:0.31;fill:#FFFBE9;}
	.st121{fill:#DDC862;}
	.st122{fill:#FFF3C2;}
	.st123{fill:#E8C046;stroke:#7A695F;stroke-width:0.15;stroke-miterlimit:10;}
	.st124{fill:#DBB248;}
	.st125{fill:#6F5753;}
	.st126{fill:#E8C046;stroke:#77655B;stroke-width:0.15;stroke-miterlimit:10;}
	.st127{fill:#83A15C;}
	.st128{fill:#698C3C;}
	.st129{fill:#809D5B;}
	.st130{fill:#4A6224;}
	.st131{fill:#85A55C;}
	.st132{fill:#506B26;}
	.st133{fill:#82A15B;}
	.st134{fill:#698958;}
	.st135{fill:#DD8344;}
	.st136{fill:#B56721;}
	.st137{fill:#C2463A;}
	.st138{fill:#CC6E64;}
	.st139{fill:#5EA817;}
	.st140{fill:#5F8F22;}
	.st141{fill:#C24F3C;}
	.st142{fill:#AB4A39;}
	.st143{fill:#BB413C;}
	.st144{fill:#EA7142;}
	.st145{fill:#ED835B;}
	.st146{fill:#E76D18;}
	.st147{fill:#56734E;}
	.st148{fill:#CBC797;}
	.st149{fill:#F1F0E1;}
	.st150{fill:#DBD9CA;}
	.st151{fill:#496042;}
	.st152{fill:#547534;}
	.st153{fill:#C0D591;}
	.st154{fill:#B3C483;}
	.st155{fill:#DFEAC1;}
	.st156{fill:#D5DDB8;}
	.st157{fill:#577F36;}
	.st158{fill:#4D6D2F;}
	.st159{fill:#4F6B32;}
	.st160{fill:#AAC654;}
	.st161{fill:#A0B252;}
	.st162{fill:#9B3743;}
	.st163{fill:#A34D5B;}
	.st164{fill:#75434B;}
	.st165{fill:#80333D;}
	.st166{fill:#722F3A;}
	.st167{fill:#8E424F;}
	.st168{fill:#A5273F;}
	.st169{fill:#9B2944;}
	.st170{fill:#93B250;}
	.st171{fill:#778950;}
	.st172{fill:#B1B297;}
	.st173{fill:#5D6B3E;}
	.st174{fill:#769328;}
	.st175{fill:#B9BC9D;}
	.st176{fill:#B4CE6E;}
	.st177{fill:#CCCEAF;}
	.st178{fill:#AEAF94;}
	.st179{fill:#E8C046;stroke:#7F6D62;stroke-width:0.15;stroke-miterlimit:10;}
	.st180{fill:#B7C661;}
	.st181{fill:#CED893;stroke:#ACB25F;stroke-width:0.5;stroke-miterlimit:10;}
	.st182{fill:#D79F4A;}
	.st183{clip-path:url(#SVGID_4_);}
	.st184{fill:#CDD98D;}
	.st185{fill:#FADA37;}
	.st186{fill:#CCB244;}
	.st187{fill:#FAE089;}
	.st188{fill:#FFED90;}
	.st189{fill:#ECDB6F;}
	.st190{fill:#FECF73;}
	.st191{fill:#CEA865;}
	.st192{fill:#EDDFCA;}
	.st193{fill:#EBDECA;}
	.st194{fill:#638408;}
	.st195{fill:#CE9F41;}
	.st196{fill:#F7BA23;}
	.st197{fill:#EAAE2A;}
	.st198{fill:#F2CE36;}
	.st199{fill:#F9D53D;}
	.st200{fill:#FCDA4F;}
	.st201{fill:#F7E289;}
	.st202{fill:#668F05;}
	.st203{fill:#597214;}
	.st204{fill:#8BA040;}
	.st205{fill:#7AA122;}
	.st206{fill:#95BB28;}
	.st207{fill:#E7F2A6;}
	.st208{fill:#C4CC75;}
	.st209{fill:#87A82C;}
	.st210{fill:#9FBF45;}
	.st211{fill:#728E25;}
	.st212{fill:#7D4E30;}
	.st213{fill:#3F5A2F;}
	.st214{fill:#4B7837;}
	.st215{fill:#85A93F;}
	.st216{fill:#693F26;}
	.st217{fill:#8C7668;}
	.st218{fill:#EDE9E6;}
	.st219{fill:#FFFDFC;}
	.st220{fill:#846F5C;}
	.st221{clip-path:url(#SVGID_6_);}
	.st222{fill:#B2A594;}
	.st223{fill:#E4DDD5;}
	.st224{fill:#A16D46;}
	.st225{fill:#9A8E42;}
	.st226{fill:#BBB061;}
	.st227{fill:#A08F41;}
	.st228{fill:#C1AD56;}
	.st229{opacity:0.7;}
	.st230{fill:#DACA7F;}
	.st231{fill:#EEE49F;}
	.st232{opacity:0.5;}
	.st233{fill:#FFF9D7;}
	.st234{fill:#7C7F32;}
	.st235{fill:#95A84C;}
	.st236{fill:#D8B45C;}
	.st237{fill:#FCC572;}
	.st238{fill:#FED49A;}
	.st239{fill:#C0782C;}
	.st240{fill:#D49430;}
	.st241{fill:#F5D19D;}
	.st242{opacity:0.35;}
	.st243{fill:#F9AFC9;}
	.st244{fill:#F9CDDE;}
	.st245{fill:#FFF3F8;}
	.st246{fill:#F4A2C3;}
	.st247{fill:#FFFFFF;}
	.st248{fill:#D7F2F9;}
	.st249{fill:#492743;}
	.st250{fill:#20131D;}
	.st251{fill:#685364;}
	.st252{fill:#748115;}
	.st253{fill:#A7B86A;}
</style>
<g id="Слой_1">
	<g>
		<g>
			<g>
				<path class="st13" d="M53.2,50.42c-0.31-3.29-1.06-6.98-2.61-10c-0.54-1.05-1.07-2.15-1.52-3.25c-1.93-4.76-4.23-9.4-5.44-14.31
					c-0.62-2.51-2.33-5.47-5.73-5.62c-0.05,0-0.55-0.01-0.55,0c0-0.01-0.5,0-0.55,0c-3.4,0.14-5.11,3.11-5.73,5.62
					c-1.21,4.91-3.51,9.55-5.44,14.31c-0.45,1.11-0.98,2.21-1.52,3.25c-1.55,3.02-2.3,6.71-2.61,10c-0.1,1.08-0.2,2.24,0.04,3.32
					c3.14,14.42,15.81,12.63,15.81,12.63s12.67,1.79,15.82-12.63C53.4,52.67,53.3,51.5,53.2,50.42z"/>
				<path class="st14" d="M41.3,27.36c0,0-0.74,1.46,0,1.46C42.05,28.82,41.3,27.36,41.3,27.36z"/>
				<path class="st14" d="M38.68,28.23c0,0-0.74,1.46,0,1.46C39.42,29.68,38.68,28.23,38.68,28.23z"/>
				<path class="st14" d="M36.62,29.36c0,0-0.74,1.46,0,1.46C37.36,30.81,36.62,29.36,36.62,29.36z"/>
				<path class="st14" d="M31.73,30.23c0,0-0.74,1.46,0,1.46C32.48,31.68,31.73,30.23,31.73,30.23z"/>
				<path class="st14" d="M42.71,28.82c0,0-0.74,1.46,0,1.46C43.45,30.27,42.71,28.82,42.71,28.82z"/>
				<path class="st14" d="M41.41,30.95c0,0-0.74,1.46,0,1.46C42.16,32.41,41.41,30.95,41.41,30.95z"/>
				<path class="st14" d="M43.56,31.36c0,0-0.74,1.46,0,1.46S43.56,31.36,43.56,31.36z"/>
				<path class="st14" d="M42.38,24.77c0,0-0.74,1.46,0,1.46C43.12,26.23,42.38,24.77,42.38,24.77z"/>
				<path class="st14" d="M44.76,28.06c0,0-0.74,1.46,0,1.46C45.51,29.51,44.76,28.06,44.76,28.06z"/>
				<path class="st14" d="M45.86,31.45c0,0-0.74,1.46,0,1.46C46.6,32.9,45.86,31.45,45.86,31.45z"/>
				<path class="st14" d="M46.79,33.04c0,0-0.74,1.46,0,1.46C47.53,34.5,46.79,33.04,46.79,33.04z"/>
				<path class="st14" d="M45.97,35.04c0,0-0.74,1.46,0,1.46C46.71,36.5,45.97,35.04,45.97,35.04z"/>
				<path class="st14" d="M48.12,35.44c0,0-0.74,1.46,0,1.46C48.86,36.9,48.12,35.44,48.12,35.44z"/>
				<path class="st14" d="M34.56,32.07c0,0-0.74,1.46,0,1.46C35.3,33.52,34.56,32.07,34.56,32.07z"/>
				<path class="st14" d="M28.47,32.18c0,0-0.74,1.46,0,1.46C29.21,33.63,28.47,32.18,28.47,32.18z"/>
				<path class="st14" d="M36.71,32.47c0,0-0.74,1.46,0,1.46C37.45,33.93,36.71,32.47,36.71,32.47z"/>
				<path class="st14" d="M39.01,32.56c0,0-0.74,1.46,0,1.46C39.75,34.02,39.01,32.56,39.01,32.56z"/>
				<path class="st14" d="M40.41,34.02c0,0-0.74,1.46,0,1.46C41.15,35.48,40.41,34.02,40.41,34.02z"/>
				<path class="st14" d="M39.11,36.16c0,0-0.74,1.46,0,1.46C39.86,37.61,39.11,36.16,39.11,36.16z"/>
				<path class="st14" d="M41.26,36.56c0,0-0.74,1.46,0,1.46C42,38.02,41.26,36.56,41.26,36.56z"/>
				<path class="st14" d="M35.66,34.85c0,0-0.74,1.46,0,1.46C36.4,36.31,35.66,34.85,35.66,34.85z"/>
				<path class="st14" d="M31.54,33.04c0,0-0.74,1.46,0,1.46C32.28,34.5,31.54,33.04,31.54,33.04z"/>
				<path class="st14" d="M30.25,35.18c0,0-0.74,1.46,0,1.46S30.25,35.18,30.25,35.18z"/>
				<path class="st14" d="M32.39,35.58c0,0-0.74,1.46,0,1.46C33.14,37.04,32.39,35.58,32.39,35.58z"/>
				<path class="st14" d="M29.1,29.7c0,0-0.74,1.46,0,1.46C29.85,31.15,29.1,29.7,29.1,29.7z"/>
				<path class="st14" d="M42.9,33.43c0,0-0.74,1.46,0,1.46C43.64,34.89,42.9,33.43,42.9,33.43z"/>
				<path class="st14" d="M32.92,20.16c0,0-0.74,1.46,0,1.46C33.66,21.61,32.92,20.16,32.92,20.16z"/>
				<path class="st14" d="M31.49,24.03c0,0-0.74,1.46,0,1.46C32.23,25.49,31.49,24.03,31.49,24.03z"/>
				<path class="st14" d="M32.92,21.97c0,0-0.74,1.46,0,1.46C33.66,23.43,32.92,21.97,32.92,21.97z"/>
				<path class="st14" d="M34.56,18.84c0,0-0.74,1.46,0,1.46C35.3,20.3,34.56,18.84,34.56,18.84z"/>
				<path class="st14" d="M36.71,19.24c0,0-0.74,1.46,0,1.46C37.45,20.7,36.71,19.24,36.71,19.24z"/>
				<path class="st14" d="M35.22,22.06c0,0-0.74,1.46,0,1.46C35.96,23.52,35.22,22.06,35.22,22.06z"/>
				<path class="st14" d="M36.62,23.52c0,0-0.74,1.46,0,1.46C37.36,24.98,36.62,23.52,36.62,23.52z"/>
				<path class="st14" d="M35.33,25.66c0,0-0.74,1.46,0,1.46C36.07,27.11,35.33,25.66,35.33,25.66z"/>
				<path class="st14" d="M37.47,26.06c0,0-0.74,1.46,0,1.46C38.21,27.51,37.47,26.06,37.47,26.06z"/>
				<path class="st14" d="M39.01,19.34c0,0-0.74,1.46,0,1.46C39.75,20.79,39.01,19.34,39.01,19.34z"/>
				<path class="st14" d="M40.41,20.79c0,0-0.74,1.46,0,1.46C41.15,22.25,40.41,20.79,40.41,20.79z"/>
				<path class="st14" d="M39.11,22.93c0,0-0.74,1.46,0,1.46C39.86,24.39,39.11,22.93,39.11,22.93z"/>
				<path class="st14" d="M30.62,27.17c0,0-0.74,1.46,0,1.46C31.36,28.63,30.62,27.17,30.62,27.17z"/>
				<path class="st14" d="M33.25,24.77c0,0-0.74,1.46,0,1.46C33.99,26.23,33.25,24.77,33.25,24.77z"/>
				<path class="st14" d="M33.58,28.23c0,0-0.74,1.46,0,1.46C34.32,29.68,33.58,28.23,33.58,28.23z"/>
				<path class="st14" d="M43.09,21.96c0,0-0.74,1.46,0,1.46C43.83,23.41,43.09,21.96,43.09,21.96z"/>
				<path class="st14" d="M38.57,46.67c0,0-0.74,1.46,0,1.46C39.31,48.13,38.57,46.67,38.57,46.67z"/>
				<path class="st14" d="M35.94,47.54c0,0-0.74,1.46,0,1.46S35.94,47.54,35.94,47.54z"/>
				<path class="st14" d="M33.88,48.67c0,0-0.74,1.46,0,1.46C34.62,50.13,33.88,48.67,33.88,48.67z"/>
				<path class="st14" d="M29,49.54c0,0-0.74,1.46,0,1.46C29.74,50.99,29,49.54,29,49.54z"/>
				<path class="st14" d="M39.97,48.13c0,0-0.74,1.46,0,1.46C40.71,49.58,39.97,48.13,39.97,48.13z"/>
				<path class="st14" d="M38.68,50.27c0,0-0.74,1.46,0,1.46C39.42,51.72,38.68,50.27,38.68,50.27z"/>
				<path class="st14" d="M40.82,50.67c0,0-0.74,1.46,0,1.46C41.56,52.12,40.82,50.67,40.82,50.67z"/>
				<path class="st14" d="M42.36,43.95c0,0-0.74,1.46,0,1.46S42.36,43.95,42.36,43.95z"/>
				<path class="st14" d="M39.64,44.09c0,0-0.74,1.46,0,1.46C40.38,45.54,39.64,44.09,39.64,44.09z"/>
				<path class="st14" d="M43.76,45.4c0,0-0.74,1.46,0,1.46C44.5,46.86,43.76,45.4,43.76,45.4z"/>
				<path class="st14" d="M42.47,47.54c0,0-0.74,1.46,0,1.46C43.21,49,42.47,47.54,42.47,47.54z"/>
				<path class="st14" d="M44.61,47.94c0,0-0.74,1.45,0,1.45C45.35,49.4,44.61,47.94,44.61,47.94z"/>
				<path class="st14" d="M43.12,50.76c0,0-0.74,1.46,0,1.46C43.86,52.22,43.12,50.76,43.12,50.76z"/>
				<path class="st14" d="M44.52,52.22c0,0-0.74,1.46,0,1.46C45.27,53.67,44.52,52.22,44.52,52.22z"/>
				<path class="st14" d="M43.23,54.36c0,0-0.74,1.46,0,1.46C43.97,55.81,43.23,54.36,43.23,54.36z"/>
				<path class="st14" d="M45.38,54.75c0,0-0.74,1.46,0,1.46C46.12,56.21,45.38,54.75,45.38,54.75z"/>
				<path class="st14" d="M46.91,48.03c0,0-0.74,1.46,0,1.46C47.65,49.49,46.91,48.03,46.91,48.03z"/>
				<path class="st14" d="M48.31,49.49c0,0-0.74,1.46,0,1.46C49.06,50.95,48.31,49.49,48.31,49.49z"/>
				<path class="st14" d="M47.02,51.63c0,0-0.74,1.46,0,1.46C47.76,53.08,47.02,51.63,47.02,51.63z"/>
				<path class="st14" d="M31.82,51.38c0,0-0.74,1.46,0,1.46C32.56,52.84,31.82,51.38,31.82,51.38z"/>
				<path class="st14" d="M25.73,51.49c0,0-0.74,1.46,0,1.46C26.47,52.94,25.73,51.49,25.73,51.49z"/>
				<path class="st14" d="M33.97,51.78c0,0-0.74,1.46,0,1.46C34.71,53.24,33.97,51.78,33.97,51.78z"/>
				<path class="st14" d="M36.27,51.88c0,0-0.74,1.46,0,1.46C37.01,53.33,36.27,51.88,36.27,51.88z"/>
				<path class="st14" d="M37.67,53.33c0,0-0.74,1.46,0,1.46C38.41,54.79,37.67,53.33,37.67,53.33z"/>
				<path class="st14" d="M36.38,55.47c0,0-0.74,1.46,0,1.46S36.38,55.47,36.38,55.47z"/>
				<path class="st14" d="M38.52,55.87c0,0-0.74,1.46,0,1.46C39.26,57.33,38.52,55.87,38.52,55.87z"/>
				<path class="st14" d="M32.92,54.17c0,0-0.74,1.46,0,1.46C33.66,55.62,32.92,54.17,32.92,54.17z"/>
				<path class="st14" d="M28.8,52.36c0,0-0.74,1.46,0,1.46C29.54,53.81,28.8,52.36,28.8,52.36z"/>
				<path class="st14" d="M27.51,54.49c0,0-0.74,1.46,0,1.46C28.25,55.95,27.51,54.49,27.51,54.49z"/>
				<path class="st14" d="M29.66,54.9c0,0-0.74,1.46,0,1.46C30.4,56.35,29.66,54.9,29.66,54.9z"/>
				<path class="st14" d="M24.22,48.61c0,0-0.74,1.46,0,1.46C24.96,50.06,24.22,48.61,24.22,48.61z"/>
				<path class="st14" d="M26.37,49.01c0,0-0.74,1.46,0,1.46C27.11,50.47,26.37,49.01,26.37,49.01z"/>
				<path class="st14" d="M40.16,52.74c0,0-0.74,1.46,0,1.46C40.91,54.2,40.16,52.74,40.16,52.74z"/>
				<path class="st14" d="M27.92,37.29c0,0-0.74,1.46,0,1.46C28.66,38.74,27.92,37.29,27.92,37.29z"/>
				<path class="st14" d="M29.33,38.74c0,0-0.74,1.46,0,1.46C30.07,40.2,29.33,38.74,29.33,38.74z"/>
				<path class="st14" d="M28.03,40.88c0,0-0.74,1.46,0,1.46S28.03,40.88,28.03,40.88z"/>
				<path class="st14" d="M30.18,41.28c0,0-0.74,1.46,0,1.46C30.92,42.74,30.18,41.28,30.18,41.28z"/>
				<path class="st14" d="M31.82,38.15c0,0-0.74,1.46,0,1.46C32.56,39.61,31.82,38.15,31.82,38.15z"/>
				<path class="st14" d="M33.97,38.56c0,0-0.74,1.46,0,1.46C34.71,40.01,33.97,38.56,33.97,38.56z"/>
				<path class="st14" d="M32.48,41.38c0,0-0.74,1.46,0,1.46C33.22,42.83,32.48,41.38,32.48,41.38z"/>
				<path class="st14" d="M33.88,42.83c0,0-0.74,1.46,0,1.46C34.62,44.29,33.88,42.83,33.88,42.83z"/>
				<path class="st14" d="M32.59,44.97c0,0-0.74,1.46,0,1.46C33.33,46.42,32.59,44.97,32.59,44.97z"/>
				<path class="st14" d="M34.73,45.37c0,0-0.74,1.46,0,1.46C35.48,46.83,34.73,45.37,34.73,45.37z"/>
				<path class="st14" d="M50.31,40.88c0,0-0.74,1.46,0,1.46S50.31,40.88,50.31,40.88z"/>
				<path class="st14" d="M47.98,56.97c0,0-0.74,1.46,0,1.46C48.73,58.43,47.98,56.97,47.98,56.97z"/>
				<path class="st14" d="M40.22,62.11c0,0-0.74,1.46,0,1.46C40.96,63.57,40.22,62.11,40.22,62.11z"/>
				<path class="st14" d="M41.62,63.57c0,0-0.74,1.46,0,1.46C42.36,65.03,41.62,63.57,41.62,63.57z"/>
				<path class="st14" d="M43.45,57.3c0,0-0.74,1.46,0,1.46C44.19,58.75,43.45,57.3,43.45,57.3z"/>
				<path class="st14" d="M45.6,57.7c0,0-0.74,1.46,0,1.46C46.34,59.15,45.6,57.7,45.6,57.7z"/>
				<path class="st14" d="M34.13,64c0,0-0.74,1.46,0,1.46C34.88,65.45,34.13,64,34.13,64z"/>
				<path class="st14" d="M27.03,59.24c0,0-0.74,1.46,0,1.46C27.77,60.69,27.03,59.24,27.03,59.24z"/>
				<path class="st14" d="M47.51,54.36c0,0-0.74,1.46,0,1.46C48.25,55.81,47.51,54.36,47.51,54.36z"/>
				<path class="st14" d="M36.87,64.72c0,0-0.74,1.46,0,1.46C37.61,66.18,36.87,64.72,36.87,64.72z"/>
				<path class="st14" d="M38.52,63.71c0,0-0.74,1.46,0,1.46C39.26,65.16,38.52,63.71,38.52,63.71z"/>
				<path class="st14" d="M44.12,62.98c0,0-0.74,1.46,0,1.46C44.86,64.44,44.12,62.98,44.12,62.98z"/>
				<path class="st14" d="M22.61,51.05c0,0-0.74,1.46,0,1.46S22.61,51.05,22.61,51.05z"/>
				<path class="st14" d="M23.65,56.16c0,0-0.74,1.46,0,1.46C24.4,57.61,23.65,56.16,23.65,56.16z"/>
				<path class="st14" d="M25.95,55.62c0,0-0.74,1.46,0,1.46C26.7,57.08,25.95,55.62,25.95,55.62z"/>
				<path class="st14" d="M31.49,56.89c0,0-0.74,1.46,0,1.46C32.23,58.34,31.49,56.89,31.49,56.89z"/>
				<path class="st14" d="M24.22,53.5c0,0-0.74,1.46,0,1.46C24.96,54.96,24.22,53.5,24.22,53.5z"/>
				<path class="st14" d="M24.88,58.51c0,0-0.74,1.46,0,1.46C25.62,59.97,24.88,58.51,24.88,58.51z"/>
				<path class="st14" d="M51.36,44.36c0,0-0.74,1.46,0,1.46C52.1,45.82,51.36,44.36,51.36,44.36z"/>
				<path class="st14" d="M49.27,42.97c0,0-0.74,1.46,0,1.46C50.01,44.43,49.27,42.97,49.27,42.97z"/>
				<path class="st14" d="M46.79,44.98c0,0-0.74,1.46,0,1.46C47.53,46.44,46.79,44.98,46.79,44.98z"/>
				<path class="st14" d="M48.94,45.39c0,0-0.74,1.46,0,1.46C49.68,46.84,48.94,45.39,48.94,45.39z"/>
				<path class="st14" d="M43.62,35.94c0,0-0.74,1.46,0,1.46S43.62,35.94,43.62,35.94z"/>
				<path class="st14" d="M44.94,37.95c0,0-0.74,1.46,0,1.46C45.68,39.41,44.94,37.95,44.94,37.95z"/>
				<path class="st14" d="M46.99,38.39c0,0-0.74,1.46,0,1.46C47.73,39.84,46.99,38.39,46.99,38.39z"/>
				<path class="st14" d="M45.69,40.52c0,0-0.74,1.46,0,1.46C46.44,41.98,45.69,40.52,45.69,40.52z"/>
				<path class="st14" d="M42.96,39.47c0,0-0.74,1.46,0,1.46C43.7,40.93,42.96,39.47,42.96,39.47z"/>
				<path class="st14" d="M47.84,40.93c0,0-0.74,1.46,0,1.46C48.58,42.38,47.84,40.93,47.84,40.93z"/>
				<path class="st14" d="M50.31,46.75c0,0-0.74,1.46,0,1.46S50.31,46.75,50.31,46.75z"/>
				<path class="st14" d="M52.46,48.61c0,0-0.74,1.46,0,1.46C53.2,50.06,52.46,48.61,52.46,48.61z"/>
				<path class="st14" d="M50.97,50.3c0,0-0.74,1.46,0,1.46C51.72,51.75,50.97,50.3,50.97,50.3z"/>
				<path class="st14" d="M48.94,59.87c0,0-0.74,1.46,0,1.46C49.68,61.32,48.94,59.87,48.94,59.87z"/>
				<path class="st14" d="M42.39,59.53c0,0-0.74,1.46,0,1.46C43.13,60.98,42.39,59.53,42.39,59.53z"/>
				<path class="st14" d="M44.54,59.93c0,0-0.74,1.46,0,1.46C45.27,61.39,44.54,59.93,44.54,59.93z"/>
				<path class="st14" d="M29.27,58.52c0,0-0.74,1.46,0,1.46C30.02,59.98,29.27,58.52,29.27,58.52z"/>
				<path class="st14" d="M30.68,59.98c0,0-0.74,1.46,0,1.46S30.68,59.98,30.68,59.98z"/>
				<path class="st14" d="M29.38,62.11c0,0-0.74,1.46,0,1.46C30.12,63.57,29.38,62.11,29.38,62.11z"/>
				<path class="st14" d="M31.53,62.52c0,0-0.74,1.46,0,1.46S31.53,62.52,31.53,62.52z"/>
				<path class="st14" d="M46.83,60.02c0,0-0.74,1.46,0,1.46C47.58,61.48,46.83,60.02,46.83,60.02z"/>
				<path class="st14" d="M34.47,57.25c0,0-0.74,1.46,0,1.46C35.2,58.71,34.47,57.25,34.47,57.25z"/>
				<path class="st14" d="M33.17,59.39c0,0-0.74,1.46,0,1.46S33.17,59.39,33.17,59.39z"/>
				<path class="st14" d="M51.06,53.41c0,0-0.74,1.46,0,1.46S51.06,53.41,51.06,53.41z"/>
				<path class="st14" d="M52.46,52.51c0,0-0.74,1.46,0,1.46C53.2,53.97,52.46,52.51,52.46,52.51z"/>
				<path class="st14" d="M36.87,59.14c0,0-0.74,1.46,0,1.46C37.61,60.6,36.87,59.14,36.87,59.14z"/>
				<path class="st14" d="M35.58,61.28c0,0-0.74,1.46,0,1.46C36.32,62.73,35.58,61.28,35.58,61.28z"/>
				<path class="st14" d="M37.72,61.68c0,0-0.74,1.46,0,1.46C38.47,63.14,37.72,61.68,37.72,61.68z"/>
				<path class="st14" d="M50.01,55.8c0,0-0.74,1.46,0,1.46C50.75,57.25,50.01,55.8,50.01,55.8z"/>
				<path class="st14" d="M39.37,58.55c0,0-0.74,1.46,0,1.46C40.11,60.01,39.37,58.55,39.37,58.55z"/>
				<path class="st14" d="M48.94,38.53c0,0-0.74,1.46,0,1.46C49.68,39.98,48.94,38.53,48.94,38.53z"/>
				<path class="st14" d="M22.61,47.4c0,0-0.74,1.46,0,1.46S22.61,47.4,22.61,47.4z"/>
				<path class="st14" d="M36.27,38.65c0,0-0.74,1.46,0,1.46C37.01,40.11,36.27,38.65,36.27,38.65z"/>
				<path class="st14" d="M37.67,40.11c0,0-0.74,1.46,0,1.46C38.41,41.56,37.67,40.11,37.67,40.11z"/>
				<path class="st14" d="M36.38,42.24c0,0-0.74,1.46,0,1.46S36.38,42.24,36.38,42.24z"/>
				<path class="st14" d="M25.62,39.47c0,0-0.74,1.46,0,1.46S25.62,39.47,25.62,39.47z"/>
				<path class="st14" d="M23.65,44.09c0,0-0.74,1.46,0,1.46C24.4,45.54,23.65,44.09,23.65,44.09z"/>
				<path class="st14" d="M25.62,42.49c0,0-0.74,1.46,0,1.46S25.62,42.49,25.62,42.49z"/>
				<path class="st14" d="M27.03,43.95c0,0-0.74,1.46,0,1.46C27.77,45.4,27.03,43.95,27.03,43.95z"/>
				<path class="st14" d="M25.73,46.08c0,0-0.74,1.46,0,1.46C26.47,47.54,25.73,46.08,25.73,46.08z"/>
				<path class="st14" d="M27.88,46.49c0,0-0.74,1.46,0,1.46C28.62,47.94,27.88,46.49,27.88,46.49z"/>
				<path class="st14" d="M29.52,43.36c0,0-0.75,1.45,0,1.45C30.26,44.81,29.52,43.36,29.52,43.36z"/>
				<path class="st14" d="M30.84,47.54c0,0-0.74,1.46,0,1.46C31.58,49,30.84,47.54,30.84,47.54z"/>
				<path class="st14" d="M40.35,41.27c0,0-0.74,1.46,0,1.46S40.35,41.27,40.35,41.27z"/>
				<path class="st14" d="M39.44,38.74c0,0-0.74,1.46,0,1.46C40.18,40.2,39.44,38.74,39.44,38.74z"/>
				<path class="st14" d="M42.5,41.67c0,0-0.74,1.46,0,1.46C43.24,43.13,42.5,41.67,42.5,41.67z"/>
				<path class="st14" d="M45.46,42.72c0,0-0.74,1.46,0,1.46S45.46,42.72,45.46,42.72z"/>
			</g>
			<path class="st15" d="M38.56,16.82c0.01-0.55-0.04-1.56-0.46-2.68c-0.57-1.52-1.94-3.56-5.26-4.59
				c-0.37-0.11-0.75,0.09-0.87,0.46c-0.11,0.36,0.09,0.75,0.46,0.87c4.42,1.37,4.76,4.69,4.75,5.82
				C37.62,16.66,38.08,16.7,38.56,16.82z"/>
			<g>
				<path class="st16" d="M1.95,36.66C27.58,40.59,32.08,18,33.17,12.19l0,0C27.29,11.55,5.61,10.99,1.95,36.66z"/>
				<path class="st16" d="M29.56,11.4c-3.3-3.03-13.97-10.91-25.73,0.5c2.45,2.57,4.88,4.18,7.22,5.09
					C17.26,12.06,24.86,11.3,29.56,11.4z"/>
				<path class="st17" d="M3.83,35.03c0,0,16.25-5.4,28.17-21.69C31.99,13.34,22.02,25.82,3.83,35.03z"/>
			</g>
		</g>
		<g>
			<path class="st18" d="M75.52,41.34c0.01-0.01-0.01-0.14-0.03-0.17c-0.12-0.15-0.24-0.28-0.37-0.4L57.65,52.85
				c-14.8,9.08-21.16,6.21-23.88,3.7c-1.03,3.06-1.42,6.73,0.09,9.75c0.81,1.62,2.14,3.22,3.53,4.38c3.69,3.1,8.67,4.87,13.5,3.92
				c1.54-0.31,3.12-0.85,4.54-1.51c0.95-0.45,1.8-1.16,2.6-1.83c2.41-2.04,4.91-4.6,6.51-7.32c0.55-0.94,1.15-1.91,1.8-2.83
				c2.77-3.94,5.28-8.06,8.51-11.61c1.65-1.81,2.65-5.41,1.13-7.75C75.96,41.71,75.53,41.33,75.52,41.34z"/>
			<path class="st19" d="M64.45,59.64c3.1-3.69,5.95-7.58,9.47-10.84c1.8-1.66,3.52-4.32,2.22-6.78c-0.02-0.03-0.22-0.39-0.23-0.39
				c0.01,0-0.21-0.36-0.23-0.39c-1.54-2.32-4.7-2.07-7.02-1.28c-4.54,1.55-9.32,2.21-14.04,3.19c-1.1,0.23-2.23,0.39-3.31,0.52
				c-3.13,0.39-6.48,1.67-9.3,3.06c-0.93,0.46-1.93,0.96-2.71,1.65c-2.8,2.46-5.26,5.57-5.74,9.34c-0.33,2.58,0.14,4.92,1.38,7.22
				c1.29,2.39,3.3,4.86,5.81,6c2.02,0.92,4.44,1.16,6.62,0.95c1.76-0.17,3.52-0.68,5.18-1.29c0.98-0.36,1.9-1,2.74-1.6
				c2.57-1.82,5.29-4.16,7.12-6.73C63.05,61.41,63.73,60.5,64.45,59.64z"/>
			<path class="st20" d="M53.79,62.13c-4.81,2.63-10.04,2.33-11.67-0.66c-1.63-2.99,0.94-7.54,5.75-10.17
				c4.81-2.63,10.03-2.34,11.66,0.66C61.18,54.95,58.6,59.51,53.79,62.13z"/>
			<path class="st21" d="M50.02,55.37c-1.69,0.92-3.46,0.93-3.96,0.02c-0.5-0.91,0.46-2.4,2.15-3.32c1.69-0.92,3.46-0.93,3.96-0.02
				C52.67,52.96,51.71,54.44,50.02,55.37z"/>
		</g>
	</g>
</g>
<g id="Слой_2">
</g>
<g id="Слой_4">
</g>
<g id="Слой_3">
</g>
</svg>
