<?xml version="1.0" encoding="utf-8"?>
<!-- Generator: Adobe Illustrator 23.1.0, SVG Export Plug-In . SVG Version: 6.00 Build 0)  -->
<svg version="1.1" xmlns="http://www.w3.org/2000/svg" xmlns:xlink="http://www.w3.org/1999/xlink" x="0px" y="0px"
	 viewBox="0 0 80 80" style="enable-background:new 0 0 80 80;" xml:space="preserve">
<style type="text/css">
	.st0{fill:#6F8653;}
	.st1{fill:#EBB044;}
	.st2{fill:#EEC27E;}
	.st3{fill:#DBA44B;}
	.st4{fill:#725846;}
	.st5{fill:#E8CA48;}
	.st6{fill:#F2DC7D;}
	.st7{fill:#CDB44D;}
	.st8{fill:#F8F8E1;}
	.st9{fill:#E4D049;}
	.st10{fill:#EDDC60;}
	.st11{fill:#E7E474;}
	.st12{fill:#809764;}
	.st13{fill:#46684B;}
	.st14{fill:#4D724F;}
	.st15{fill:#7D8E54;}
	.st16{fill:#4E7553;}
	.st17{fill:#456449;}
	.st18{fill:#415E46;}
	.st19{fill:#D6E06F;}
	.st20{fill:#A46246;}
	.st21{fill:#A97361;}
	.st22{fill:#6D8A56;}
	.st23{fill:#DB7B43;}
	.st24{fill:#EDB862;}
	.st25{fill:#DD8347;}
	.st26{fill:#E09A79;}
	.st27{fill:#D76B43;}
	.st28{fill:#C66849;}
	.st29{fill:#8E8079;}
	.st30{fill:#D98065;}
	.st31{fill:#C56647;}
	.st32{fill:#EFD9BA;}
	.st33{fill:#D45D45;}
	.st34{fill:#DD8075;}
	.st35{fill:#DAC6AD;}
	.st36{fill:#657F51;}
	.st37{fill:#556946;}
	.st38{fill:#7D9657;}
	.st39{fill:#7B706B;}
	.st40{fill:#93A47A;}
	.st41{fill:#6A7E4F;}
	.st42{fill:#E7E5D1;}
	.st43{fill:#CFD26A;}
	.st44{fill:#EDF0BC;}
	.st45{fill:#B6AA50;}
	.st46{fill:#A39C74;}
	.st47{fill:#D1C474;}
	.st48{fill:#93854C;}
	.st49{fill:#867B4A;}
	.st50{fill:#291D10;}
	.st51{fill:#AA9B50;}
	.st52{fill:#E5D263;}
	.st53{fill:#DC7F44;}
	.st54{fill:#E0956D;}
	.st55{fill:#EAAB44;}
	.st56{fill:#8CAC59;}
	.st57{fill:#657E4F;}
	.st58{fill:#97A779;}
	.st59{fill:#D14A4A;}
	.st60{fill:#97C35A;}
	.st61{fill:#89A559;}
	.st62{fill:#CB7A5E;}
	.st63{fill:#BE725E;}
	.st64{fill:#B16955;}
	.st65{fill:#D18D7D;}
	.st66{fill:#5D4837;}
	.st67{fill:#9C5B44;}
	.st68{fill:#D69747;}
	.st69{fill:#6A8E58;}
	.st70{fill:#80A071;}
	.st71{fill:#F1EB66;}
	.st72{fill:#EAC647;}
	.st73{fill:#F3EA8A;}
	.st74{fill:#CEA04A;}
	.st75{fill:#473321;}
	.st76{fill:#93AD7C;}
	.st77{fill:#EFD1A2;}
	.st78{fill:#91A87A;}
	.st79{fill:#6E8E42;}
	.st80{fill:#586889;}
	.st81{fill:#77859F;}
	.st82{fill:#83A25A;}
	.st83{fill:#B2C495;}
	.st84{fill:#947659;}
	.st85{fill:#4E6E4F;}
	.st86{fill:#524160;}
	.st87{fill:#3D3649;}
	.st88{fill:#6B5C7A;}
	.st89{fill:#2F3338;}
	.st90{fill:#212428;}
	.st91{fill:#282D32;}
	.st92{fill:#42484E;}
	.st93{fill:#252B2E;}
	.st94{fill:#6B3F3C;}
	.st95{fill:#645E57;}
	.st96{fill:#517E55;}
	.st97{fill:#2E4135;}
	.st98{fill:none;}
	.st99{fill:#6E8B70;}
	.st100{fill:#3D5545;}
	.st101{fill:#628A64;}
	.st102{fill:#F9F9E3;}
	.st103{fill:#D96F60;}
	.st104{fill:#C0645A;}
	.st105{fill:#543E2C;}
	.st106{fill:#7F4B49;}
	.st107{fill:#9E6345;}
	.st108{fill:#994D49;}
	.st109{fill:#A46A69;}
	.st110{fill:#8F5B42;}
	.st111{fill:#8E4948;}
	.st112{fill:#85986E;}
	.st113{fill:#6D7290;}
	.st114{fill:#626880;}
	.st115{fill:#9C9385;}
	.st116{fill:#F2D55A;}
	.st117{clip-path:url(#SVGID_2_);}
	.st118{fill:#E2AC54;}
	.st119{opacity:0.31;fill:#F9EFC5;}
	.st120{opacity:0.31;fill:#FFFBE9;}
	.st121{fill:#DDC862;}
	.st122{fill:#FFF3C2;}
	.st123{fill:#E8C046;stroke:#7A695F;stroke-width:0.15;stroke-miterlimit:10;}
	.st124{fill:#DBB248;}
	.st125{fill:#6F5753;}
	.st126{fill:#E8C046;stroke:#77655B;stroke-width:0.15;stroke-miterlimit:10;}
	.st127{fill:#83A15C;}
	.st128{fill:#698C3C;}
	.st129{fill:#809D5B;}
	.st130{fill:#4A6224;}
	.st131{fill:#85A55C;}
	.st132{fill:#506B26;}
	.st133{fill:#82A15B;}
	.st134{fill:#698958;}
	.st135{fill:#DD8344;}
	.st136{fill:#B56721;}
	.st137{fill:#C2463A;}
	.st138{fill:#CC6E64;}
	.st139{fill:#5EA817;}
	.st140{fill:#5F8F22;}
	.st141{fill:#C24F3C;}
	.st142{fill:#AB4A39;}
	.st143{fill:#BB413C;}
	.st144{fill:#EA7142;}
	.st145{fill:#ED835B;}
	.st146{fill:#E76D18;}
	.st147{fill:#56734E;}
	.st148{fill:#CBC797;}
	.st149{fill:#F1F0E1;}
	.st150{fill:#DBD9CA;}
	.st151{fill:#496042;}
	.st152{fill:#547534;}
	.st153{fill:#C0D591;}
	.st154{fill:#B3C483;}
	.st155{fill:#DFEAC1;}
	.st156{fill:#D5DDB8;}
	.st157{fill:#577F36;}
	.st158{fill:#4D6D2F;}
	.st159{fill:#4F6B32;}
	.st160{fill:#AAC654;}
	.st161{fill:#A0B252;}
	.st162{fill:#9B3743;}
	.st163{fill:#A34D5B;}
	.st164{fill:#75434B;}
	.st165{fill:#80333D;}
	.st166{fill:#722F3A;}
	.st167{fill:#8E424F;}
	.st168{fill:#A5273F;}
	.st169{fill:#9B2944;}
	.st170{fill:#93B250;}
	.st171{fill:#778950;}
	.st172{fill:#B1B297;}
	.st173{fill:#5D6B3E;}
	.st174{fill:#769328;}
	.st175{fill:#B9BC9D;}
	.st176{fill:#B4CE6E;}
	.st177{fill:#CCCEAF;}
	.st178{fill:#AEAF94;}
	.st179{fill:#E8C046;stroke:#7F6D62;stroke-width:0.15;stroke-miterlimit:10;}
	.st180{fill:#B7C661;}
	.st181{fill:#CED893;stroke:#ACB25F;stroke-width:0.5;stroke-miterlimit:10;}
	.st182{fill:#D79F4A;}
	.st183{clip-path:url(#SVGID_4_);}
	.st184{fill:#CDD98D;}
	.st185{fill:#FADA37;}
	.st186{fill:#CCB244;}
	.st187{fill:#FAE089;}
	.st188{fill:#FFED90;}
	.st189{fill:#ECDB6F;}
	.st190{fill:#FECF73;}
	.st191{fill:#CEA865;}
	.st192{fill:#EDDFCA;}
	.st193{fill:#EBDECA;}
	.st194{fill:#638408;}
	.st195{fill:#CE9F41;}
	.st196{fill:#F7BA23;}
	.st197{fill:#EAAE2A;}
	.st198{fill:#F2CE36;}
	.st199{fill:#F9D53D;}
	.st200{fill:#FCDA4F;}
	.st201{fill:#F7E289;}
	.st202{fill:#668F05;}
	.st203{fill:#597214;}
	.st204{fill:#8BA040;}
	.st205{fill:#7AA122;}
	.st206{fill:#95BB28;}
	.st207{fill:#E7F2A6;}
	.st208{fill:#C4CC75;}
	.st209{fill:#87A82C;}
	.st210{fill:#9FBF45;}
	.st211{fill:#728E25;}
	.st212{fill:#7D4E30;}
	.st213{fill:#3F5A2F;}
	.st214{fill:#4B7837;}
	.st215{fill:#85A93F;}
	.st216{fill:#693F26;}
	.st217{fill:#8C7668;}
	.st218{fill:#EDE9E6;}
	.st219{fill:#FFFDFC;}
	.st220{fill:#846F5C;}
	.st221{clip-path:url(#SVGID_6_);}
	.st222{fill:#B2A594;}
	.st223{fill:#E4DDD5;}
	.st224{fill:#A16D46;}
	.st225{fill:#9A8E42;}
	.st226{fill:#BBB061;}
	.st227{fill:#A08F41;}
	.st228{fill:#C1AD56;}
	.st229{opacity:0.7;}
	.st230{fill:#DACA7F;}
	.st231{fill:#EEE49F;}
	.st232{opacity:0.5;}
	.st233{fill:#FFF9D7;}
	.st234{fill:#7C7F32;}
	.st235{fill:#95A84C;}
	.st236{fill:#D8B45C;}
	.st237{fill:#FCC572;}
	.st238{fill:#FED49A;}
	.st239{fill:#C0782C;}
	.st240{fill:#D49430;}
	.st241{fill:#F5D19D;}
	.st242{opacity:0.35;}
	.st243{fill:#F9AFC9;}
	.st244{fill:#F9CDDE;}
	.st245{fill:#FFF3F8;}
	.st246{fill:#F4A2C3;}
	.st247{fill:#FFFFFF;}
	.st248{fill:#D7F2F9;}
	.st249{fill:#492743;}
	.st250{fill:#20131D;}
	.st251{fill:#685364;}
	.st252{fill:#748115;}
	.st253{fill:#A7B86A;}
</style>
<g id="Слой_1">
</g>
<g id="Слой_2">
</g>
<g id="Слой_4">
</g>
<g id="Слой_3">
	<g>
		<g>
			<path class="st190" d="M63.63,23.93c1.73,0.33,3.97-0.03,4.82-1.8c0.86-1.81-0.95-2.93-2.39-3.45c-1.71-0.61-2.61-2.12-4.08-3.11
				c-2.79-1.88-7.58-2.68-10.21-0.08c-2.37,2.34-2.16,5.95,0.35,8.09c2.81,2.4,7.03,2,9.93-0.01C62.57,23.71,63.1,23.83,63.63,23.93
				z"/>
			<path class="st191" d="M72.88,30.87c-0.09-0.44-0.16-0.98-0.3-1.48c0.15-0.77,0.28-1.7-0.57-1.95c-0.86-0.25-2.05,0.16-2.7,0.74
				c-0.41,0.37-0.71,0.85-1.09,1.25c-0.42,0.44-0.88,0.85-1.36,1.22c-0.92,0.73-1.91,1.37-2.86,2.05c-1.83,1.32-3.7,2.9-4.46,5.1
				c-0.46,1.33-0.44,2.72-0.02,4c0.02,0.38,0.08,0.76,0.2,1.13c0.36,1.09,1.06,1.99,2.17,2.35c1.23,0.4,2.71,0.1,3.89-0.33
				c0.76-0.27,1.47-0.66,2.13-1.13c0.02-0.01,0.05-0.02,0.08-0.04c1.66-0.94,3-2.29,3.9-3.98c0.92-1.73,1.35-3.73,1.35-5.68
				C73.24,33.04,73.1,31.94,72.88,30.87z"/>
			<path class="st191" d="M46.36,28.3c-0.65-1.4-1.38-2.63-2.96-3.05c-0.55-0.15-1.45,0.06-1.84,0.49
				c-0.62,0.69-0.66,1.34-0.61,2.23c0.07,1.03-0.06,1.98-0.34,2.97c-0.55,1.92-1.52,3.74-1.77,5.74c-0.34,2.74,0.96,5.4,3.07,7.02
				c0.6,0.56,1.35,1.03,2.31,1.34c2.8,0.92,5.78-0.62,6.71-3.39c1-2.96-0.37-6.05-1.85-8.58C48.16,31.5,47.14,29.98,46.36,28.3z"/>
			<path class="st190" d="M33.16,25.06c-2.95-1.13-5.75-0.25-8.26,1.46c-1.48,1.01-2.94,2.05-4.41,3.07
				c-0.85,0.59-1.67,1.19-2.33,1.95c-0.5,0.44-0.86,0.95-0.77,1.59c0.25,1.68,2.48,1.16,3.58,1.05c1.58-0.17,2.93,0.4,4.41,0.86
				c1.37,0.42,2.77,0.48,4.17,0.21c2.55-0.5,5.37-2.12,6.64-4.46C37.59,28.2,35.54,25.97,33.16,25.06z"/>
			<path class="st190" d="M26.58,43.14c-0.68-0.04-1.41,0.16-2.03,0.45c-0.49,0.24-0.93,0.82-1.42,0.98
				c-0.44,0.14-1.17-0.13-1.58-0.24c-0.69-0.19-1.38-0.42-2.08-0.56c-1.2-0.23-2.45-0.19-3.65,0.01c-2.51,0.42-4.92,1.75-6.38,3.87
				c-1.32,1.93-2.04,5.04-0.14,6.79c1.93,3.58,7.36,3.23,10.52,1.17c2.07-1.35,3.09-3.34,4.25-5.43c0.62-1.12,1.47-1.9,2.37-2.78
				c0.7-0.68,1.43-1.51,1.57-2.51C28.15,43.89,27.59,43.2,26.58,43.14z M18.34,54.98c0.05-0.01,0.09-0.03,0.14-0.04
				c-0.04,0.03-0.07,0.06-0.11,0.09C18.36,55.01,18.35,55,18.34,54.98z"/>
		</g>
		<g>
			<path class="st190" d="M7.67,37.73c0.75,1.19,2.18,2.32,3.68,1.85c1.53-0.48,1.2-2.15,0.72-3.28c-0.57-1.34-0.18-2.68-0.4-4.08
				c-0.41-2.66-2.55-5.91-5.5-6.04c-2.66-0.12-4.66,1.97-4.56,4.6c0.12,2.95,2.65,5.21,5.41,5.83C7.22,36.99,7.44,37.36,7.67,37.73z
				"/>
			<path class="st191" d="M65.91,72.98c0.21-0.29,0.49-0.63,0.7-0.98c0.54-0.33,1.15-0.76,0.83-1.4c-0.32-0.64-1.21-1.12-1.9-1.18
				c-0.44-0.04-0.89,0.04-1.32,0.04c-0.49-0.01-0.97-0.05-1.46-0.13c-0.93-0.15-1.84-0.38-2.76-0.56c-1.77-0.35-3.72-0.59-5.42,0.15
				c-1.03,0.45-1.84,1.22-2.36,2.16c-0.21,0.22-0.4,0.46-0.55,0.73c-0.45,0.81-0.59,1.71-0.2,2.56c0.44,0.94,1.42,1.64,2.31,2.11
				c0.57,0.3,1.19,0.5,1.82,0.63c0.02,0.01,0.04,0.02,0.06,0.02c1.46,0.46,2.98,0.52,4.46,0.13c1.51-0.4,2.92-1.24,4.07-2.3
				C64.83,74.37,65.4,73.69,65.91,72.98z"/>
			<path class="st191" d="M46.61,6.68c0.47-1.14,0.79-2.24,0.18-3.4c-0.21-0.4-0.83-0.82-1.29-0.81c-0.74,0.01-1.15,0.34-1.64,0.86
				c-0.57,0.6-1.2,1.04-1.93,1.42c-1.43,0.72-3.02,1.14-4.33,2.08c-1.79,1.29-2.65,3.5-2.45,5.62c0,0.66,0.13,1.35,0.47,2.09
				c0.99,2.14,3.51,3.05,5.64,2.1c2.28-1.02,3.35-3.51,4.03-5.75C45.71,9.48,46.05,8.05,46.61,6.68z"/>
			<path class="st190" d="M76.53,55.1c-0.94-2.35-2.98-3.51-5.35-4.06c-1.4-0.32-2.8-0.61-4.21-0.92c-0.81-0.18-1.6-0.33-2.41-0.3
				c-0.53-0.06-1.03,0.01-1.35,0.41c-0.85,1.06,0.67,2.09,1.33,2.67c0.96,0.84,1.36,1.94,1.89,3.05c0.49,1.03,1.22,1.89,2.15,2.56
				c1.68,1.22,4.17,2,6.23,1.47C77.1,59.41,77.29,56.99,76.53,55.1z"/>
			<path class="st190" d="M47.93,61.84c-0.35-0.42-0.86-0.74-1.37-0.94c-0.4-0.16-0.99-0.1-1.35-0.3c-0.32-0.18-0.56-0.75-0.72-1.06
				c-0.27-0.51-0.5-1.03-0.81-1.53c-0.51-0.83-1.22-1.54-1.99-2.14c-1.61-1.25-3.7-1.94-5.74-1.64c-1.85,0.28-4.07,1.55-4.06,3.61
				c-1.05,3.08,2.1,6.08,5.04,6.81c1.92,0.48,3.64,0,5.5-0.46c0.99-0.25,1.91-0.17,2.92-0.12c0.78,0.04,1.66,0.02,2.33-0.44
				C48.34,63.17,48.45,62.46,47.93,61.84z M36.5,63.43c0.03,0.02,0.07,0.04,0.1,0.06c-0.04,0-0.08-0.01-0.12-0.01
				C36.49,63.46,36.49,63.45,36.5,63.43z"/>
		</g>
		<g>
			<path class="st192" d="M38.49,7.05C38,7.41,37.65,7.97,37.35,8.5c-0.31,0.56-0.55,1.16-0.71,1.78c-0.16,0.62-0.25,1.27-0.25,1.91
				c0,0.57,0.02,1.32,0.29,1.84c0.04,0.07,0.22,0.02,0.22-0.06c0.01-0.27-0.07-0.55-0.1-0.82c-0.03-0.33-0.04-0.66-0.04-0.99
				c0.01-0.61,0.08-1.22,0.23-1.81c0.15-0.59,0.36-1.18,0.64-1.72c0.28-0.55,0.69-1.01,0.98-1.54C38.64,7.01,38.52,7.02,38.49,7.05
				L38.49,7.05z"/>
		</g>
		<g>
			<path class="st192" d="M43.93,28.22c1.19,1.43,2.2,3.07,2.85,4.82c0.65,1.77,0.75,3.55,0.98,5.39c0.01,0.05,0.2,0,0.2-0.04
				c0.36-1.83-0.11-3.83-0.78-5.54c-0.7-1.8-1.75-3.37-3.2-4.64C43.98,28.19,43.92,28.21,43.93,28.22L43.93,28.22z"/>
		</g>
		<g>
			<path class="st192" d="M61.16,41.69c0.11-0.74,0.16-1.49,0.35-2.21c0.19-0.73,0.49-1.44,0.88-2.08c0.38-0.63,0.86-1.18,1.4-1.69
				c0.27-0.25,0.56-0.46,0.84-0.68c0.31-0.24,0.67-0.38,0.98-0.59c0.13-0.09-0.02-0.16-0.11-0.14c-0.73,0.14-1.49,0.64-2.07,1.1
				c-0.63,0.51-1.16,1.13-1.59,1.81c-0.8,1.27-1.44,3.05-0.95,4.53C60.93,41.83,61.14,41.78,61.16,41.69L61.16,41.69z"/>
		</g>
		<g>
			<path class="st192" d="M52.42,16.74c0.84-0.14,1.62-0.47,2.47-0.59c0.91-0.13,1.84-0.14,2.75,0c0.88,0.13,1.75,0.37,2.57,0.7
				c0.94,0.38,1.75,0.86,2.59,1.42c0.05,0.04,0.3-0.02,0.24-0.1c-1.28-1.52-3.35-2.29-5.27-2.49c-0.99-0.1-2.01-0.08-2.99,0.11
				c-0.76,0.14-1.85,0.33-2.4,0.92C52.36,16.74,52.41,16.74,52.42,16.74L52.42,16.74z"/>
		</g>
		<g>
			<path class="st192" d="M22.58,29.85c0.69-0.38,1.25-0.95,1.89-1.42c0.63-0.46,1.29-0.87,1.98-1.23c1.38-0.72,2.89-1.2,4.42-1.46
				c0.12-0.02,0.48-0.22,0.16-0.18c-1.7,0.21-3.34,0.7-4.88,1.47c-0.74,0.37-1.44,0.79-2.11,1.27c-0.36,0.26-0.71,0.54-1.04,0.84
				c-0.22,0.19-0.56,0.41-0.56,0.73C22.46,29.9,22.57,29.86,22.58,29.85L22.58,29.85z"/>
		</g>
		<g>
			<path class="st192" d="M5.56,27.81c0.13,0.04,0.25,0.11,0.38,0.14c0.16,0.04,0.33,0.06,0.5,0.11c0.33,0.09,0.66,0.18,0.98,0.3
				c0.66,0.26,1.28,0.65,1.77,1.16c0.48,0.5,0.89,1.13,1.14,1.77c0.13,0.32,0.28,0.65,0.35,0.99c0.08,0.34,0.08,0.72,0.18,1.05
				c0.04,0.11,0.23,0.07,0.27-0.02c0.15-0.36,0.15-0.79,0.12-1.17c-0.02-0.39-0.04-0.73-0.16-1.1c-0.25-0.79-0.65-1.45-1.24-2.03
				c-0.57-0.55-1.26-0.98-2.02-1.23c-0.38-0.13-0.78-0.22-1.18-0.22c-0.2,0-0.42-0.01-0.62,0.02c-0.17,0.03-0.32,0.11-0.48,0.17
				C5.54,27.76,5.53,27.8,5.56,27.81L5.56,27.81z"/>
		</g>
		<g>
			<path class="st192" d="M9.65,51.99c0.34-0.31,0.47-0.82,0.63-1.23c0.16-0.4,0.33-0.79,0.52-1.17c0.4-0.78,0.89-1.5,1.46-2.16
				c1.12-1.29,2.51-2.33,4.09-2.98c0.19-0.08-0.08-0.07-0.15-0.05c-1.76,0.57-3.36,1.6-4.59,2.97c-0.62,0.69-1.15,1.45-1.57,2.27
				c-0.21,0.41-0.4,0.83-0.54,1.26c-0.09,0.28-0.34,0.91-0.07,1.13C9.47,52.08,9.61,52.03,9.65,51.99L9.65,51.99z"/>
		</g>
		<g>
			<path class="st192" d="M37.17,55.44c1.29,0.5,2.53,1.29,3.51,2.27c0.53,0.53,0.95,1.12,1.34,1.75c0.18,0.3,0.34,0.62,0.53,0.91
				c0.22,0.32,0.37,0.68,0.58,1.01c0.04,0.06,0.27,0,0.28-0.07c0.04-1.5-0.93-2.87-1.96-3.88c-1.13-1.11-2.5-1.83-4.07-2.09
				C37.33,55.33,37.08,55.4,37.17,55.44L37.17,55.44z"/>
		</g>
		<g>
			<path class="st192" d="M52.5,72.52c0.47-0.92,1.25-1.78,2.19-2.25c0.39-0.2,0.82-0.32,1.26-0.35c0.27-0.02,0.53-0.02,0.8,0.01
				c0.28,0.03,0.55,0.11,0.83,0.15c0.05,0.01,0.41-0.06,0.33-0.14c-0.18-0.18-0.5-0.23-0.74-0.27c-0.29-0.05-0.58-0.07-0.88-0.05
				c-0.64,0.04-1.27,0.21-1.85,0.48c-0.53,0.24-1.03,0.58-1.42,1.01c-0.38,0.42-0.58,0.88-0.65,1.45
				C52.36,72.58,52.49,72.54,52.5,72.52L52.5,72.52z"/>
		</g>
		<g>
			<path class="st193" d="M68.54,52.29c1.23,0.08,2.51,0.58,3.53,1.26c0.52,0.34,0.99,0.76,1.43,1.21c0.23,0.24,0.45,0.5,0.68,0.74
				c0.23,0.24,0.37,0.58,0.62,0.8c0.07,0.07,0.35,0,0.35-0.11c-0.02-0.33-0.26-0.63-0.39-0.92c-0.13-0.29-0.32-0.54-0.53-0.79
				c-0.44-0.52-0.99-0.95-1.57-1.31c-1.2-0.74-2.5-1.06-3.91-1.06C68.66,52.09,68.33,52.27,68.54,52.29L68.54,52.29z"/>
		</g>
	</g>
</g>
</svg>
