<?xml version="1.0" encoding="utf-8"?>
<!-- Generator: Adobe Illustrator 23.1.0, SVG Export Plug-In . SVG Version: 6.00 Build 0)  -->
<svg version="1.1" xmlns="http://www.w3.org/2000/svg" xmlns:xlink="http://www.w3.org/1999/xlink" x="0px" y="0px"
	 viewBox="0 0 80 80" style="enable-background:new 0 0 80 80;" xml:space="preserve">
<style type="text/css">
	.st0{fill:#6F8653;}
	.st1{fill:#EBB044;}
	.st2{fill:#EEC27E;}
	.st3{fill:#DBA44B;}
	.st4{fill:#725846;}
	.st5{fill:#E8CA48;}
	.st6{fill:#F2DC7D;}
	.st7{fill:#CDB44D;}
	.st8{fill:#F8F8E1;}
	.st9{fill:#E4D049;}
	.st10{fill:#EDDC60;}
	.st11{fill:#E7E474;}
	.st12{fill:#809764;}
	.st13{fill:#46684B;}
	.st14{fill:#4D724F;}
	.st15{fill:#7D8E54;}
	.st16{fill:#4E7553;}
	.st17{fill:#456449;}
	.st18{fill:#415E46;}
	.st19{fill:#D6E06F;}
	.st20{fill:#A46246;}
	.st21{fill:#A97361;}
	.st22{fill:#6D8A56;}
	.st23{fill:#DB7B43;}
	.st24{fill:#EDB862;}
	.st25{fill:#DD8347;}
	.st26{fill:#E09A79;}
	.st27{fill:#D76B43;}
	.st28{fill:#C66849;}
	.st29{fill:#8E8079;}
	.st30{fill:#D98065;}
	.st31{fill:#C56647;}
	.st32{fill:#EFD9BA;}
	.st33{fill:#D45D45;}
	.st34{fill:#DD8075;}
	.st35{fill:#DAC6AD;}
	.st36{fill:#657F51;}
	.st37{fill:#556946;}
	.st38{fill:#7D9657;}
	.st39{fill:#7B706B;}
	.st40{fill:#93A47A;}
	.st41{fill:#6A7E4F;}
	.st42{fill:#E7E5D1;}
	.st43{fill:#CFD26A;}
	.st44{fill:#EDF0BC;}
	.st45{fill:#B6AA50;}
	.st46{fill:#A39C74;}
	.st47{fill:#D1C474;}
	.st48{fill:#93854C;}
	.st49{fill:#867B4A;}
	.st50{fill:#291D10;}
	.st51{fill:#AA9B50;}
	.st52{fill:#E5D263;}
	.st53{fill:#DC7F44;}
	.st54{fill:#E0956D;}
	.st55{fill:#EAAB44;}
	.st56{fill:#8CAC59;}
	.st57{fill:#657E4F;}
	.st58{fill:#97A779;}
	.st59{fill:#D14A4A;}
	.st60{fill:#97C35A;}
	.st61{fill:#89A559;}
	.st62{fill:#CB7A5E;}
	.st63{fill:#BE725E;}
	.st64{fill:#B16955;}
	.st65{fill:#D18D7D;}
	.st66{fill:#5D4837;}
	.st67{fill:#9C5B44;}
	.st68{fill:#D69747;}
	.st69{fill:#6A8E58;}
	.st70{fill:#80A071;}
	.st71{fill:#F1EB66;}
	.st72{fill:#EAC647;}
	.st73{fill:#F3EA8A;}
	.st74{fill:#CEA04A;}
	.st75{fill:#473321;}
	.st76{fill:#93AD7C;}
	.st77{fill:#EFD1A2;}
	.st78{fill:#91A87A;}
	.st79{fill:#6E8E42;}
	.st80{fill:#586889;}
	.st81{fill:#77859F;}
	.st82{fill:#83A25A;}
	.st83{fill:#B2C495;}
	.st84{fill:#947659;}
	.st85{fill:#4E6E4F;}
	.st86{fill:#524160;}
	.st87{fill:#3D3649;}
	.st88{fill:#6B5C7A;}
	.st89{fill:#2F3338;}
	.st90{fill:#212428;}
	.st91{fill:#282D32;}
	.st92{fill:#42484E;}
	.st93{fill:#252B2E;}
	.st94{fill:#6B3F3C;}
	.st95{fill:#645E57;}
	.st96{fill:#517E55;}
	.st97{fill:#2E4135;}
	.st98{fill:none;}
	.st99{fill:#6E8B70;}
	.st100{fill:#3D5545;}
	.st101{fill:#628A64;}
	.st102{fill:#F9F9E3;}
	.st103{fill:#D96F60;}
	.st104{fill:#C0645A;}
	.st105{fill:#543E2C;}
	.st106{fill:#7F4B49;}
	.st107{fill:#9E6345;}
	.st108{fill:#994D49;}
	.st109{fill:#A46A69;}
	.st110{fill:#8F5B42;}
	.st111{fill:#8E4948;}
	.st112{fill:#85986E;}
	.st113{fill:#6D7290;}
	.st114{fill:#626880;}
	.st115{fill:#9C9385;}
	.st116{fill:#F2D55A;}
	.st117{clip-path:url(#SVGID_2_);}
	.st118{fill:#E2AC54;}
	.st119{opacity:0.31;fill:#F9EFC5;}
	.st120{opacity:0.31;fill:#FFFBE9;}
	.st121{fill:#DDC862;}
	.st122{fill:#FFF3C2;}
	.st123{fill:#E8C046;stroke:#7A695F;stroke-width:0.15;stroke-miterlimit:10;}
	.st124{fill:#DBB248;}
	.st125{fill:#6F5753;}
	.st126{fill:#E8C046;stroke:#77655B;stroke-width:0.15;stroke-miterlimit:10;}
	.st127{fill:#83A15C;}
	.st128{fill:#698C3C;}
	.st129{fill:#809D5B;}
	.st130{fill:#4A6224;}
	.st131{fill:#85A55C;}
	.st132{fill:#506B26;}
	.st133{fill:#82A15B;}
	.st134{fill:#698958;}
	.st135{fill:#DD8344;}
	.st136{fill:#B56721;}
	.st137{fill:#C2463A;}
	.st138{fill:#CC6E64;}
	.st139{fill:#5EA817;}
	.st140{fill:#5F8F22;}
	.st141{fill:#C24F3C;}
	.st142{fill:#AB4A39;}
	.st143{fill:#BB413C;}
	.st144{fill:#EA7142;}
	.st145{fill:#ED835B;}
	.st146{fill:#E76D18;}
	.st147{fill:#56734E;}
	.st148{fill:#CBC797;}
	.st149{fill:#F1F0E1;}
	.st150{fill:#DBD9CA;}
	.st151{fill:#496042;}
	.st152{fill:#547534;}
	.st153{fill:#C0D591;}
	.st154{fill:#B3C483;}
	.st155{fill:#DFEAC1;}
	.st156{fill:#D5DDB8;}
	.st157{fill:#577F36;}
	.st158{fill:#4D6D2F;}
	.st159{fill:#4F6B32;}
	.st160{fill:#AAC654;}
	.st161{fill:#A0B252;}
	.st162{fill:#9B3743;}
	.st163{fill:#A34D5B;}
	.st164{fill:#75434B;}
	.st165{fill:#80333D;}
	.st166{fill:#722F3A;}
	.st167{fill:#8E424F;}
	.st168{fill:#A5273F;}
	.st169{fill:#9B2944;}
	.st170{fill:#93B250;}
	.st171{fill:#778950;}
	.st172{fill:#B1B297;}
	.st173{fill:#5D6B3E;}
	.st174{fill:#769328;}
	.st175{fill:#B9BC9D;}
	.st176{fill:#B4CE6E;}
	.st177{fill:#CCCEAF;}
	.st178{fill:#AEAF94;}
	.st179{fill:#E8C046;stroke:#7F6D62;stroke-width:0.15;stroke-miterlimit:10;}
	.st180{fill:#B7C661;}
	.st181{fill:#CED893;stroke:#ACB25F;stroke-width:0.5;stroke-miterlimit:10;}
	.st182{fill:#D79F4A;}
	.st183{clip-path:url(#SVGID_4_);}
	.st184{fill:#CDD98D;}
	.st185{fill:#FADA37;}
	.st186{fill:#CCB244;}
	.st187{fill:#FAE089;}
	.st188{fill:#FFED90;}
	.st189{fill:#ECDB6F;}
	.st190{fill:#FECF73;}
	.st191{fill:#CEA865;}
	.st192{fill:#EDDFCA;}
	.st193{fill:#EBDECA;}
	.st194{fill:#638408;}
	.st195{fill:#CE9F41;}
	.st196{fill:#F7BA23;}
	.st197{fill:#EAAE2A;}
	.st198{fill:#F2CE36;}
	.st199{fill:#F9D53D;}
	.st200{fill:#FCDA4F;}
	.st201{fill:#F7E289;}
	.st202{fill:#668F05;}
	.st203{fill:#597214;}
	.st204{fill:#8BA040;}
	.st205{fill:#7AA122;}
	.st206{fill:#95BB28;}
	.st207{fill:#E7F2A6;}
	.st208{fill:#C4CC75;}
	.st209{fill:#87A82C;}
	.st210{fill:#9FBF45;}
	.st211{fill:#728E25;}
	.st212{fill:#7D4E30;}
	.st213{fill:#3F5A2F;}
	.st214{fill:#4B7837;}
	.st215{fill:#85A93F;}
	.st216{fill:#693F26;}
	.st217{fill:#8C7668;}
	.st218{fill:#EDE9E6;}
	.st219{fill:#FFFDFC;}
	.st220{fill:#846F5C;}
	.st221{clip-path:url(#SVGID_6_);}
	.st222{fill:#B2A594;}
	.st223{fill:#E4DDD5;}
	.st224{fill:#A16D46;}
	.st225{fill:#9A8E42;}
	.st226{fill:#BBB061;}
	.st227{fill:#A08F41;}
	.st228{fill:#C1AD56;}
	.st229{opacity:0.7;}
	.st230{fill:#DACA7F;}
	.st231{fill:#EEE49F;}
	.st232{opacity:0.5;}
	.st233{fill:#FFF9D7;}
	.st234{fill:#7C7F32;}
	.st235{fill:#95A84C;}
	.st236{fill:#D8B45C;}
	.st237{fill:#FCC572;}
	.st238{fill:#FED49A;}
	.st239{fill:#C0782C;}
	.st240{fill:#D49430;}
	.st241{fill:#F5D19D;}
	.st242{opacity:0.35;}
	.st243{fill:#F9AFC9;}
	.st244{fill:#F9CDDE;}
	.st245{fill:#FFF3F8;}
	.st246{fill:#F4A2C3;}
	.st247{fill:#FFFFFF;}
	.st248{fill:#D7F2F9;}
	.st249{fill:#492743;}
	.st250{fill:#20131D;}
	.st251{fill:#685364;}
	.st252{fill:#748115;}
	.st253{fill:#A7B86A;}
</style>
<g id="Слой_1">
	<g>
		<g>
			<path class="st56" d="M46.56,18.21c0,0,2.89,1.38,4.81-0.48c0,0,0.73-0.74,1.57-0.12c0,0,0.56,0.13,1.29-0.82l-0.35,1.74
				c0,0,2.3-1.07,3.6-1.26l-0.72,1.79l1.01-0.46l0.28,0.7l0.83-0.64l0.19,0.6c0,0,2.03-0.5,3.52,0.13l-1.56,0.96
				c0,0-0.26,1.2-1.84,1.11c0,0-1.01,1.09-0.44,1.64c0,0-0.83,0.44-1.65,1.5c0,0-0.8,2.34-1.74,1.62l-0.55,0.72
				c0,0-1.47,1.05-2.97-0.21l-0.92,0.76c0,0-1.21-0.14-1.96-1.51l-0.64,0.83c0,0-2.24-0.95-3.29-4.07c0,0-1.06-3.75,1.34-4.1
				L46.56,18.21z"/>
			<path class="st57" d="M45.75,19.92c0,0,2.96,6.86,14.28,0.26C60.02,20.18,50.55,25.66,45.75,19.92z"/>
			<path class="st57" d="M57.2,24.18c0,0-1-0.05-1.97-1.51C55.23,22.66,55.68,23.1,57.2,24.18z"/>
			<path class="st57" d="M58.44,23.1c0,0-0.83,0.12-1.45-1.01C56.99,22.1,57.3,22.41,58.44,23.1z"/>
			<path class="st57" d="M56.41,21.41c0,0,0.37-1.12,1.93-2.06C58.34,19.36,57.82,19.81,56.41,21.41z"/>
			<path class="st57" d="M54.84,21.7c0,0,0.49-1.24,2.3-2.38C57.14,19.32,56.53,19.86,54.84,21.7z"/>
			<path class="st57" d="M49.41,21.54c0,0,0.72-1.52,3.04-3.3C52.45,18.24,51.65,19.01,49.41,21.54z"/>
			<path class="st57" d="M47.72,21.31c0,0,0.36-1.17,1.96-2.25C49.68,19.06,49.15,19.57,47.72,21.31z"/>
			<path class="st57" d="M52.67,21.9c0,0,0.95-1.64,3.66-3.58C56.34,18.33,55.39,19.16,52.67,21.9z"/>
			<path class="st57" d="M50.64,22.2c0,0,0.95-1.64,3.67-3.58C54.3,18.62,53.35,19.46,50.64,22.2z"/>
			<path class="st57" d="M56.24,25.53c0,0-1.25-0.3-2.71-2.25C53.53,23.28,54.16,23.9,56.24,25.53z"/>
			<path class="st57" d="M54.58,26.74c0,0-1.33-0.74-2.77-3.4C51.81,23.35,52.45,24.24,54.58,26.74z"/>
			<path class="st57" d="M52.68,26.54c0,0-1.33-0.74-2.77-3.39C49.91,23.15,50.55,24.04,52.68,26.54z"/>
			<path class="st57" d="M51,26.15c0,0-1.32-0.74-2.77-3.4C48.24,22.76,48.88,23.65,51,26.15z"/>
			<path class="st57" d="M48.46,25.86c0,0-1.09-1.12-1.86-4.19C46.61,21.67,47.01,22.75,48.46,25.86z"/>
		</g>
		<g>
			<path class="st56" d="M24.89,18.82c0,0-3.56-6.52-11.58-13.08c0,0,8.26-3.51,11.37-0.75l0.7-0.87c0,0,5.83,1.4,8.24,6.39
				c0,0,1.87,4.73,1.61,8C35.23,18.51,28.44,22.62,24.89,18.82z"/>
			<path class="st57" d="M14.32,6.18c0,0,15.38,4.69,20.21,11.85C34.52,18.02,28.65,11.28,14.32,6.18z"/>
			<path class="st57" d="M18.37,4.76c0,0,1.85,1.1,2.22,3.1C20.59,7.86,20.37,6.66,18.37,4.76z"/>
			<path class="st57" d="M20.28,8.87c0,0-0.97,1.06-2.33,0.94C17.95,9.81,18.76,9.88,20.28,8.87z"/>
			<path class="st57" d="M22.24,10.04c0,0-1.11,1.33-2.75,1.09C19.49,11.13,20.47,11.28,22.24,10.04z"/>
			<path class="st57" d="M24.5,11.08c0,0-1.41,1.8-3.58,1.82C20.92,12.9,22.22,12.9,24.5,11.08z"/>
			<path class="st57" d="M26.8,12.71c0,0-1.37,2.36-3.98,1.96C22.82,14.67,24.38,14.9,26.8,12.71z"/>
			<path class="st57" d="M29.23,14.12c0,0-1.97,2.58-5.03,2.55C24.2,16.67,26.04,16.68,29.23,14.12z"/>
			<path class="st57" d="M31.73,15.94c0,0-2.35,2.95-5.91,3.01C25.82,18.94,27.96,18.91,31.73,15.94z"/>
			<path class="st57" d="M33.57,17.52c0,0-2.6,2.74-6.15,2.49C27.42,20.01,29.55,20.16,33.57,17.52z"/>
			<path class="st57" d="M20.62,4.44c0,0,2.2,1.68,1.74,4.28C22.37,8.73,22.64,7.16,20.62,4.44z"/>
			<path class="st57" d="M23.2,4.53c0,0,2.45,2.26,1.91,5.38C25.11,9.91,25.44,8.04,23.2,4.53z"/>
			<path class="st57" d="M25.95,4.87c0,0,3.09,2.95,2.22,6.94C28.16,11.81,28.69,9.42,25.95,4.87z"/>
			<path class="st57" d="M28.76,6.1c0,0,3.54,3.46,2.59,8.08C31.35,14.18,31.92,11.42,28.76,6.1z"/>
			<path class="st57" d="M31.22,7.75c0,0,3.85,4.04,2.99,9.26C34.22,17.01,34.73,13.88,31.22,7.75z"/>
		</g>
		<g>
			<path class="st58" d="M35.2,40.69c0,0,2.92-3.76,6.85,0.92c3.93-4.69,6.86-0.92,6.86-0.92c0.29-0.85,0.96-1.17,1.59-1.27
				c1.46-1.56,4.99-3.47,13.13-5.16c0,0-13.18-1.32-17.35,3.59c0,0,0.94-6.74,9.55-8.84c0,0-9.25,0.2-13.78,6.48
				C37.53,29.2,28.28,29,28.28,29c8.61,2.1,9.55,8.84,9.55,8.84c-4.16-4.92-17.34-3.59-17.34-3.59c8.14,1.69,11.67,3.6,13.13,5.16
				C34.24,39.52,34.91,39.84,35.2,40.69z"/>
			<g>
				<g>
					<path class="st59" d="M45.95,40.16c-2.06,0-3.73,2.02-3.73,4.52s1.67,4.53,3.73,4.53s3.73-2.03,3.73-4.53
						S48.01,40.16,45.95,40.16z"/>
					<path class="st59" d="M38.16,40.16c-2.06,0-3.73,2.02-3.73,4.52s1.67,4.53,3.73,4.53s3.73-2.03,3.73-4.53
						S40.22,40.16,38.16,40.16z"/>
				</g>
				<g>
					<path class="st59" d="M41.41,56.4c-1.23-0.23-2.27-1.12-2.88-2.37c-0.67,1.36-1.87,2.28-3.24,2.28c-0.1,0-0.2,0-0.29-0.02
						c-0.18,0.66-0.28,1.39-0.28,2.15c0,3.02,1.56,5.46,3.47,5.46c1.92,0,3.47-2.44,3.47-5.46C41.66,57.72,41.57,57.03,41.41,56.4z"
						/>
					<path class="st59" d="M45.55,53.98c-0.6,1.25-1.63,2.16-2.84,2.4c-0.16,0.63-0.25,1.33-0.25,2.05c0,3.02,1.55,5.46,3.47,5.46
						c1.92,0,3.47-2.44,3.47-5.46c0-0.76-0.1-1.49-0.28-2.15c-0.1,0.01-0.21,0.02-0.31,0.02C47.43,56.3,46.22,55.37,45.55,53.98z"/>
				</g>
				<g>
					<path class="st59" d="M34.47,58.44c0-0.77,0.1-1.51,0.29-2.18c-0.98-0.17-1.84-0.82-2.44-1.75c-0.63,1.3-1.7,2.16-2.93,2.16
						c-0.33,0-0.66-0.06-0.96-0.18c-0.15,0.61-0.23,1.26-0.23,1.95c0,3.02,1.54,5.46,3.43,5.46c1.39,0,2.59-1.32,3.13-3.22
						C34.58,59.99,34.47,59.23,34.47,58.44z"/>
					<path class="st59" d="M51.83,54.41c-0.59,0.98-1.47,1.66-2.48,1.84c0.19,0.68,0.29,1.41,0.29,2.18c0,0.8-0.11,1.56-0.3,2.24
						c0.54,1.9,1.74,3.22,3.13,3.22c1.9,0,3.43-2.44,3.43-5.46c0-0.67-0.08-1.32-0.22-1.92c-0.28,0.1-0.58,0.15-0.88,0.15
						C53.55,56.67,52.46,55.77,51.83,54.41z"/>
				</g>
				<g>
					<path class="st59" d="M27.99,58.44c0-0.72,0.09-1.4,0.25-2.04c-0.37-0.18-0.71-0.44-1.01-0.76c-1.27,1.35-2.32,0.54-2.74,0.08
						c-0.24,0.97-0.28,2.2-0.06,3.5c0.48,2.8,1.97,4.89,3.34,4.66c0.58-0.1,1.04-0.6,1.34-1.36C28.42,61.5,27.99,60.04,27.99,58.44z
						"/>
					<path class="st60" d="M54.99,62.49c0,0,0.01,0.01,0.01,0.02c0.08-0.14,0.16-0.27,0.23-0.42
						C55.15,62.23,55.07,62.36,54.99,62.49z"/>
					<path class="st60" d="M55.26,62.02c0.03-0.07,0.07-0.13,0.1-0.2C55.33,61.89,55.3,61.96,55.26,62.02z"/>
					<path class="st59" d="M56.93,55.68c-0.32,0.34-0.68,0.6-1.08,0.77c0.15,0.62,0.24,1.28,0.24,1.98c0,1.27-0.28,2.45-0.73,3.39
						c-0.03,0.07-0.07,0.13-0.1,0.2c-0.01,0.02-0.02,0.05-0.03,0.07c-0.07,0.15-0.15,0.28-0.23,0.42c0.31,0.76,0.77,1.27,1.35,1.37
						c1.37,0.23,2.86-1.86,3.34-4.66c0.22-1.3,0.19-2.53-0.06-3.5C59.21,56.18,58.18,56.97,56.93,55.68z"/>
				</g>
				<path class="st59" d="M45.45,68.61c0.02-0.03,0.03-0.06,0.05-0.09c-0.8,1.34-2.05,2.2-3.46,2.2c-1.41,0-2.66-0.86-3.46-2.2
					c0.01,0.03,0.03,0.06,0.05,0.1c-0.17,0.44-0.42,0.82-0.74,1.09c-0.03,0.24-0.04,0.49-0.04,0.74c0,2.81,1.88,5.08,4.2,5.08
					c2.32,0,4.19-2.28,4.19-5.08c0-0.26-0.02-0.5-0.05-0.74C45.88,69.43,45.63,69.06,45.45,68.61z"/>
				<g>
					<g>
						<path class="st59" d="M37.53,70.37c0-0.18,0.01-0.36,0.02-0.54c-0.13,0.08-0.26,0.14-0.41,0.19c-1.02,0.34-2.2-0.22-3.15-1.34
							c-0.06,0.09-0.12,0.17-0.2,0.24c-0.38,0.36-0.93,0.51-1.55,0.47c0.1,1.1,0.96,2.47,2.34,3.55c1.43,1.12,3.03,1.62,4.13,1.39
							C37.98,73.3,37.53,71.91,37.53,70.37z"/>
					</g>
					<g>
						<path class="st59" d="M50.34,68.94c-0.08-0.08-0.15-0.18-0.22-0.28c-0.95,1.14-2.14,1.71-3.17,1.37
							c-0.15-0.05-0.28-0.12-0.41-0.19c0.01,0.18,0.02,0.36,0.02,0.54c0,1.54-0.45,2.93-1.19,3.98c1.1,0.23,2.69-0.27,4.13-1.39
							c1.38-1.08,2.24-2.45,2.34-3.55C51.23,69.44,50.71,69.29,50.34,68.94z"/>
					</g>
				</g>
				<path class="st59" d="M42.13,59.46c-0.03,0-0.06,0-0.08,0c-0.03,0-0.06,0-0.09,0c-0.32,2.66-1.86,4.67-3.72,4.67
					c-0.02,0-0.05,0-0.08,0c-0.03,0.26-0.04,0.52-0.04,0.79c0,3.02,1.75,5.46,3.92,5.46c2.16,0,3.92-2.44,3.92-5.46
					c0-0.27-0.01-0.53-0.04-0.79c-0.02,0-0.05,0-0.08,0C43.99,64.13,42.45,62.12,42.13,59.46z"/>
				<path class="st59" d="M37.66,64.8c0-0.17,0.01-0.34,0.02-0.5c-1.24-0.28-2.29-1.47-2.83-3.11c-0.44,1.38-1.24,2.43-2.2,2.88
					c0,0.68,0.11,1.42,0.35,2.16c0.78,2.39,2.6,3.93,4.07,3.45c0.62-0.2,1.08-0.74,1.35-1.46C37.94,67.24,37.66,66.07,37.66,64.8z"
					/>
				<path class="st59" d="M49.22,61.24c-0.54,1.61-1.58,2.78-2.81,3.06c0.01,0.16,0.02,0.33,0.02,0.5c0,1.27-0.28,2.44-0.75,3.42
					c0.26,0.73,0.72,1.26,1.34,1.46c1.47,0.48,3.3-1.06,4.07-3.45c0.24-0.74,0.35-1.47,0.35-2.14
					C50.47,63.65,49.67,62.61,49.22,61.24z"/>
				<path class="st59" d="M32.63,66.2c-0.25-0.76-0.37-1.51-0.38-2.22c-0.21,0.06-0.42,0.09-0.65,0.09c-0.93,0-1.78-0.54-2.42-1.44
					c0.02,0.03,0.04,0.07,0.06,0.1c-0.32,0.8-0.81,1.33-1.42,1.44c-0.33,0.06-0.66-0.02-0.98-0.19c0.16,1,0.78,2.18,1.78,3.22
					c1.74,1.81,3.96,2.49,4.96,1.54c0.09-0.08,0.16-0.18,0.22-0.28C33.32,67.83,32.91,67.07,32.63,66.2z"/>
				<path class="st59" d="M56.26,64.17c-0.61-0.1-1.1-0.63-1.42-1.44c0.14-0.2,0.26-0.43,0.38-0.66c-0.66,1.23-1.66,2.01-2.78,2.01
					c-0.21,0-0.41-0.03-0.61-0.08c-0.01,0.7-0.14,1.45-0.38,2.21c-0.28,0.86-0.69,1.63-1.16,2.24c0.06,0.1,0.13,0.2,0.22,0.28
					c1,0.96,3.22,0.27,4.96-1.54c1-1.04,1.62-2.22,1.78-3.22C56.92,64.15,56.59,64.22,56.26,64.17z"/>
				<path class="st59" d="M42.45,47.01c-0.13-0.02-0.26-0.87-0.39-0.87c-0.12,0-0.24,0.86-0.36,0.87c-0.59,1.35-1.69,2.32-2.99,2.52
					c-0.24,0.6-0.38,1.27-0.38,1.98c0,2.5,1.67,4.52,3.73,4.52c2.06,0,3.72-2.03,3.72-4.52c0-0.72-0.14-1.39-0.38-1.99
					C44.12,49.31,43.04,48.35,42.45,47.01z"/>
				<g>
					<path class="st59" d="M49.45,47.06c-0.67,1.5-1.98,2.52-3.49,2.52c-0.06,0-0.13-0.01-0.19-0.01c0.21,0.6,0.33,1.25,0.33,1.95
						c0,0.78-0.15,1.51-0.41,2.17c0.61,1.4,1.79,2.36,3.15,2.36c1.98,0,3.59-2.03,3.59-4.52c0-0.72-0.13-1.4-0.37-2
						C51.11,49.2,50.16,48.31,49.45,47.06z"/>
					<path class="st59" d="M37.96,51.51c0-0.69,0.12-1.34,0.33-1.94c-0.03,0-0.07,0-0.1,0c-1.5,0-2.81-1.01-3.48-2.51
						c-0.72,1.26-1.69,2.16-2.65,2.46c-0.23,0.6-0.37,1.27-0.37,1.98c0,2.5,1.61,4.52,3.59,4.52c1.34,0,2.5-0.93,3.12-2.3
						C38.12,53.07,37.96,52.31,37.96,51.51z"/>
				</g>
				<g>
					<path class="st59" d="M31.49,51.51c0-0.68,0.11-1.33,0.32-1.92c-0.35,0.08-0.7,0.08-1.03-0.03c-0.75-0.23-1.28-0.9-1.54-1.82
						c-1.13,1.41-1.97,1.85-2.6,1.8c-0.29,0.68-0.46,1.47-0.46,2.32c0,2.5,1.45,4.52,3.24,4.52c1.16,0,2.18-0.85,2.75-2.13
						C31.74,53.47,31.49,52.53,31.49,51.51z"/>
					<path class="st59" d="M54.89,47.73c-0.26,0.93-0.79,1.61-1.53,1.84c-0.34,0.11-0.7,0.11-1.07,0.02
						c0.21,0.59,0.32,1.24,0.32,1.93c0,1.01-0.25,1.94-0.67,2.72c0.57,1.28,1.59,2.14,2.76,2.14c1.79,0,3.24-2.02,3.24-4.52
						c0-0.85-0.17-1.64-0.46-2.32C56.85,49.58,56.01,49.13,54.89,47.73z"/>
				</g>
				<g>
					<path class="st59" d="M25.06,47.59c-0.57,0.81-1.01,2.04-1.17,3.45c-0.29,2.61,0.49,4.84,1.75,4.98
						c0.48,0.06,0.96-0.2,1.39-0.69c-0.71-0.88-1.16-2.16-1.16-3.57c0-0.84,0.16-1.62,0.43-2.31
						C25.62,49.17,25.24,48.23,25.06,47.59z"/>
					<path class="st59" d="M60.22,51.05c-0.16-1.39-0.59-2.61-1.15-3.42c-0.18,0.62-0.54,1.5-1.19,1.8
						c0.28,0.69,0.44,1.48,0.44,2.33c0,1.44-0.46,2.74-1.2,3.62c0.42,0.46,0.88,0.7,1.35,0.64C59.73,55.89,60.52,53.66,60.22,51.05z
						"/>
				</g>
				<g>
					<g>
						<path class="st59" d="M35,41.87c-0.24-0.82-0.69-1.41-1.33-1.62c-1.43-0.46-3.24,1.18-4.03,3.66
							c-0.8,2.48-0.29,4.86,1.14,5.32c1.25,0.4,2.79-0.8,3.69-2.77c-0.17-0.54-0.26-1.11-0.26-1.71
							C34.22,43.67,34.51,42.67,35,41.87z"/>
					</g>
					<g>
						<path class="st59" d="M54.48,43.92c-0.79-2.48-2.6-4.12-4.03-3.66c-0.63,0.2-1.08,0.78-1.32,1.58
							c0.51,0.81,0.81,1.82,0.81,2.92c0,0.62-0.1,1.21-0.27,1.76c0.9,1.94,2.42,3.13,3.67,2.73C54.76,48.78,55.27,46.4,54.48,43.92z
							"/>
					</g>
				</g>
				<g>
					<g>
						<path class="st59" d="M29.48,43.81c0.24-0.71,0.56-1.36,0.93-1.92c-0.15-0.87-0.53-1.49-1.1-1.68
							c-1.21-0.38-2.83,1.31-3.63,3.79c-0.8,2.48-0.46,4.8,0.75,5.2c0.85,0.27,1.9-0.48,2.73-1.82
							C28.95,46.37,29.04,45.1,29.48,43.81z"/>
					</g>
					<g>
						<path class="st59" d="M58.44,44.01c-0.8-2.48-2.42-4.18-3.63-3.79c-0.57,0.19-0.95,0.81-1.1,1.67
							c0.37,0.56,0.69,1.21,0.93,1.92c0.43,1.29,0.52,2.56,0.32,3.58c0.83,1.33,1.88,2.09,2.73,1.82
							C58.9,48.81,59.24,46.49,58.44,44.01z"/>
					</g>
				</g>
			</g>
		</g>
		<path class="st61" d="M52.38,10.27c-0.51-0.43-1.27-0.36-1.7,0.15c-5.65,6.74-13.71,10.53-23.93,11.27
			c-7.71,0.56-13.83-0.94-13.89-0.95c-0.65-0.16-1.3,0.24-1.46,0.88c-0.16,0.65,0.23,1.3,0.88,1.46c0.22,0.06,4.68,1.15,10.91,1.15
			c1.16,0,2.39-0.04,3.66-0.13c0.95-0.07,1.88-0.16,2.8-0.28c2.87,0.07,11.46,0.83,11.81,7.38c0.02,0.32,0.28,0.57,0.6,0.57
			c0.01,0,0.02,0,0.03,0c0.33-0.02,0.59-0.3,0.57-0.63c-0.2-3.76-2.72-6.44-7.29-7.72c-0.51-0.15-1.01-0.26-1.51-0.36
			c7.64-1.77,14.01-5.54,18.66-11.09C52.95,11.46,52.89,10.7,52.38,10.27z"/>
	</g>
</g>
<g id="Слой_2">
</g>
<g id="Слой_4">
</g>
<g id="Слой_3">
</g>
</svg>
