<?xml version="1.0" encoding="utf-8"?>
<!-- Generator: Adobe Illustrator 23.1.0, SVG Export Plug-In . SVG Version: 6.00 Build 0)  -->
<svg version="1.1" xmlns="http://www.w3.org/2000/svg" xmlns:xlink="http://www.w3.org/1999/xlink" x="0px" y="0px"
	 viewBox="0 0 80 80" style="enable-background:new 0 0 80 80;" xml:space="preserve">
<style type="text/css">
	.st0{fill:#6F8653;}
	.st1{fill:#EBB044;}
	.st2{fill:#EEC27E;}
	.st3{fill:#DBA44B;}
	.st4{fill:#725846;}
	.st5{fill:#E8CA48;}
	.st6{fill:#F2DC7D;}
	.st7{fill:#CDB44D;}
	.st8{fill:#F8F8E1;}
	.st9{fill:#E4D049;}
	.st10{fill:#EDDC60;}
	.st11{fill:#E7E474;}
	.st12{fill:#809764;}
	.st13{fill:#46684B;}
	.st14{fill:#4D724F;}
	.st15{fill:#7D8E54;}
	.st16{fill:#4E7553;}
	.st17{fill:#456449;}
	.st18{fill:#415E46;}
	.st19{fill:#D6E06F;}
	.st20{fill:#A46246;}
	.st21{fill:#A97361;}
	.st22{fill:#6D8A56;}
	.st23{fill:#DB7B43;}
	.st24{fill:#EDB862;}
	.st25{fill:#DD8347;}
	.st26{fill:#E09A79;}
	.st27{fill:#D76B43;}
	.st28{fill:#C66849;}
	.st29{fill:#8E8079;}
	.st30{fill:#D98065;}
	.st31{fill:#C56647;}
	.st32{fill:#EFD9BA;}
	.st33{fill:#D45D45;}
	.st34{fill:#DD8075;}
	.st35{fill:#DAC6AD;}
	.st36{fill:#657F51;}
	.st37{fill:#556946;}
	.st38{fill:#7D9657;}
	.st39{fill:#7B706B;}
	.st40{fill:#93A47A;}
	.st41{fill:#6A7E4F;}
	.st42{fill:#E7E5D1;}
	.st43{fill:#CFD26A;}
	.st44{fill:#EDF0BC;}
	.st45{fill:#B6AA50;}
	.st46{fill:#A39C74;}
	.st47{fill:#D1C474;}
	.st48{fill:#93854C;}
	.st49{fill:#867B4A;}
	.st50{fill:#291D10;}
	.st51{fill:#AA9B50;}
	.st52{fill:#E5D263;}
	.st53{fill:#DC7F44;}
	.st54{fill:#E0956D;}
	.st55{fill:#EAAB44;}
	.st56{fill:#8CAC59;}
	.st57{fill:#657E4F;}
	.st58{fill:#97A779;}
	.st59{fill:#D14A4A;}
	.st60{fill:#97C35A;}
	.st61{fill:#89A559;}
	.st62{fill:#CB7A5E;}
	.st63{fill:#BE725E;}
	.st64{fill:#B16955;}
	.st65{fill:#D18D7D;}
	.st66{fill:#5D4837;}
	.st67{fill:#9C5B44;}
	.st68{fill:#D69747;}
	.st69{fill:#6A8E58;}
	.st70{fill:#80A071;}
	.st71{fill:#F1EB66;}
	.st72{fill:#EAC647;}
	.st73{fill:#F3EA8A;}
	.st74{fill:#CEA04A;}
	.st75{fill:#473321;}
	.st76{fill:#93AD7C;}
	.st77{fill:#EFD1A2;}
	.st78{fill:#91A87A;}
	.st79{fill:#6E8E42;}
	.st80{fill:#586889;}
	.st81{fill:#77859F;}
	.st82{fill:#83A25A;}
	.st83{fill:#B2C495;}
	.st84{fill:#947659;}
	.st85{fill:#4E6E4F;}
	.st86{fill:#524160;}
	.st87{fill:#3D3649;}
	.st88{fill:#6B5C7A;}
	.st89{fill:#2F3338;}
	.st90{fill:#212428;}
	.st91{fill:#282D32;}
	.st92{fill:#42484E;}
	.st93{fill:#252B2E;}
	.st94{fill:#6B3F3C;}
	.st95{fill:#645E57;}
	.st96{fill:#517E55;}
	.st97{fill:#2E4135;}
	.st98{fill:none;}
	.st99{fill:#6E8B70;}
	.st100{fill:#3D5545;}
	.st101{fill:#628A64;}
	.st102{fill:#F9F9E3;}
	.st103{fill:#D96F60;}
	.st104{fill:#C0645A;}
	.st105{fill:#543E2C;}
	.st106{fill:#7F4B49;}
	.st107{fill:#9E6345;}
	.st108{fill:#994D49;}
	.st109{fill:#A46A69;}
	.st110{fill:#8F5B42;}
	.st111{fill:#8E4948;}
	.st112{fill:#85986E;}
	.st113{fill:#6D7290;}
	.st114{fill:#626880;}
	.st115{fill:#9C9385;}
	.st116{fill:#F2D55A;}
	.st117{clip-path:url(#SVGID_2_);}
	.st118{fill:#E2AC54;}
	.st119{opacity:0.31;fill:#F9EFC5;}
	.st120{opacity:0.31;fill:#FFFBE9;}
	.st121{fill:#DDC862;}
	.st122{fill:#FFF3C2;}
	.st123{fill:#E8C046;stroke:#7A695F;stroke-width:0.15;stroke-miterlimit:10;}
	.st124{fill:#DBB248;}
	.st125{fill:#6F5753;}
	.st126{fill:#E8C046;stroke:#77655B;stroke-width:0.15;stroke-miterlimit:10;}
	.st127{fill:#83A15C;}
	.st128{fill:#698C3C;}
	.st129{fill:#809D5B;}
	.st130{fill:#4A6224;}
	.st131{fill:#85A55C;}
	.st132{fill:#506B26;}
	.st133{fill:#82A15B;}
	.st134{fill:#698958;}
	.st135{fill:#DD8344;}
	.st136{fill:#B56721;}
	.st137{fill:#C2463A;}
	.st138{fill:#CC6E64;}
	.st139{fill:#5EA817;}
	.st140{fill:#5F8F22;}
	.st141{fill:#C24F3C;}
	.st142{fill:#AB4A39;}
	.st143{fill:#BB413C;}
	.st144{fill:#EA7142;}
	.st145{fill:#ED835B;}
	.st146{fill:#E76D18;}
	.st147{fill:#56734E;}
	.st148{fill:#CBC797;}
	.st149{fill:#F1F0E1;}
	.st150{fill:#DBD9CA;}
	.st151{fill:#496042;}
	.st152{fill:#547534;}
	.st153{fill:#C0D591;}
	.st154{fill:#B3C483;}
	.st155{fill:#DFEAC1;}
	.st156{fill:#D5DDB8;}
	.st157{fill:#577F36;}
	.st158{fill:#4D6D2F;}
	.st159{fill:#4F6B32;}
	.st160{fill:#AAC654;}
	.st161{fill:#A0B252;}
	.st162{fill:#9B3743;}
	.st163{fill:#A34D5B;}
	.st164{fill:#75434B;}
	.st165{fill:#80333D;}
	.st166{fill:#722F3A;}
	.st167{fill:#8E424F;}
	.st168{fill:#A5273F;}
	.st169{fill:#9B2944;}
	.st170{fill:#93B250;}
	.st171{fill:#778950;}
	.st172{fill:#B1B297;}
	.st173{fill:#5D6B3E;}
	.st174{fill:#769328;}
	.st175{fill:#B9BC9D;}
	.st176{fill:#B4CE6E;}
	.st177{fill:#CCCEAF;}
	.st178{fill:#AEAF94;}
	.st179{fill:#E8C046;stroke:#7F6D62;stroke-width:0.15;stroke-miterlimit:10;}
	.st180{fill:#B7C661;}
	.st181{fill:#CED893;stroke:#ACB25F;stroke-width:0.5;stroke-miterlimit:10;}
	.st182{fill:#D79F4A;}
	.st183{clip-path:url(#SVGID_4_);}
	.st184{fill:#CDD98D;}
	.st185{fill:#FADA37;}
	.st186{fill:#CCB244;}
	.st187{fill:#FAE089;}
	.st188{fill:#FFED90;}
	.st189{fill:#ECDB6F;}
	.st190{fill:#FECF73;}
	.st191{fill:#CEA865;}
	.st192{fill:#EDDFCA;}
	.st193{fill:#EBDECA;}
	.st194{fill:#638408;}
	.st195{fill:#CE9F41;}
	.st196{fill:#F7BA23;}
	.st197{fill:#EAAE2A;}
	.st198{fill:#F2CE36;}
	.st199{fill:#F9D53D;}
	.st200{fill:#FCDA4F;}
	.st201{fill:#F7E289;}
	.st202{fill:#668F05;}
	.st203{fill:#597214;}
	.st204{fill:#8BA040;}
	.st205{fill:#7AA122;}
	.st206{fill:#95BB28;}
	.st207{fill:#E7F2A6;}
	.st208{fill:#C4CC75;}
	.st209{fill:#87A82C;}
	.st210{fill:#9FBF45;}
	.st211{fill:#728E25;}
	.st212{fill:#7D4E30;}
	.st213{fill:#3F5A2F;}
	.st214{fill:#4B7837;}
	.st215{fill:#85A93F;}
	.st216{fill:#693F26;}
	.st217{fill:#8C7668;}
	.st218{fill:#EDE9E6;}
	.st219{fill:#FFFDFC;}
	.st220{fill:#846F5C;}
	.st221{clip-path:url(#SVGID_6_);}
	.st222{fill:#B2A594;}
	.st223{fill:#E4DDD5;}
	.st224{fill:#A16D46;}
	.st225{fill:#9A8E42;}
	.st226{fill:#BBB061;}
	.st227{fill:#A08F41;}
	.st228{fill:#C1AD56;}
	.st229{opacity:0.7;}
	.st230{fill:#DACA7F;}
	.st231{fill:#EEE49F;}
	.st232{opacity:0.5;}
	.st233{fill:#FFF9D7;}
	.st234{fill:#7C7F32;}
	.st235{fill:#95A84C;}
	.st236{fill:#D8B45C;}
	.st237{fill:#FCC572;}
	.st238{fill:#FED49A;}
	.st239{fill:#C0782C;}
	.st240{fill:#D49430;}
	.st241{fill:#F5D19D;}
	.st242{opacity:0.35;}
	.st243{fill:#F9AFC9;}
	.st244{fill:#F9CDDE;}
	.st245{fill:#FFF3F8;}
	.st246{fill:#F4A2C3;}
	.st247{fill:#FFFFFF;}
	.st248{fill:#D7F2F9;}
	.st249{fill:#492743;}
	.st250{fill:#20131D;}
	.st251{fill:#685364;}
	.st252{fill:#748115;}
	.st253{fill:#A7B86A;}
</style>
<g id="Слой_1">
	<g>
		<g>
			<path class="st0" d="M3.68,32.39c0.93,12.82,8.21,17.69,14.88,19.49c1.06-0.98,4.24-3.75,8.68-5.88
				C24.68,39.34,18.52,31.15,3.68,32.39z"/>
			<path class="st0" d="M19.22,24.02c-1.62,3.54-2.19,6.64-2.05,9.35c6.2,2.69,9.37,7.83,10.99,12.22c0.74-0.33,1.51-0.63,2.31-0.91
				C31.68,38.93,31.44,29.46,19.22,24.02z"/>
		</g>
		<g>
			<g>
				<path class="st45" d="M71.59,30.19c-0.96-2.63-2.33-5.89-4.11-8.07c-2.46-2.99-4.59-5.21-5.74-8.98
					c-0.54-1.77-1.55-3.17-3.11-4.21c-1.48-0.99-3.14-1.43-4.89-1.54c0-0.01,0-0.02,0-0.03c-0.1,0-0.2,0.01-0.3,0.01
					c-0.1,0-0.2-0.01-0.3-0.01c0,0.01,0,0.02,0,0.03c-1.75,0.11-3.41,0.55-4.89,1.54c-1.56,1.04-2.57,2.44-3.11,4.21
					c-1.15,3.77-3.28,5.99-5.74,8.98c-1.79,2.18-3.15,5.44-4.11,8.07c-3.39,9.27-0.99,20.67,6.36,27.4c2.83,2.6,7.77,5.21,11.8,5.18
					c4.02,0.03,8.96-2.57,11.8-5.18C72.57,50.86,74.97,39.46,71.59,30.19z"/>
				<path class="st46" d="M56.18,9.77c0,0.65-1.23,1.19-2.75,1.19c-1.52,0-2.75-0.53-2.75-1.19c0-0.66,1.23-1.19,2.75-1.19
					C54.95,8.58,56.18,9.11,56.18,9.77z"/>
				<path class="st47" d="M47.7,30.58c-2.03,4.1-5.51,6.53-7.79,5.41c-2.27-1.12-2.47-5.36-0.45-9.47c2.03-4.11,5.51-6.53,7.79-5.41
					C49.54,22.23,49.73,26.47,47.7,30.58z"/>
			</g>
			<g>
				<g>
					<path class="st48" d="M12.01,61.38c-0.15,0.06-0.27,0.16-0.37,0.29c-0.07,0.11-0.11,0.23-0.23,0.31
						c-0.2,0.13-0.3,0.29-0.43,0.48c-0.06,0.1-0.11,0.08-0.24,0.1C9.77,62.8,9.7,63.98,10,64.77c0.36,0.93,1.18,1.47,1.83,1.22
						c0.13-0.05,0.21-0.17,0.34-0.23c0.14-0.07,0.3-0.05,0.44-0.11c0.11-0.05,0.21-0.12,0.32-0.13c0.13-0.01,0.22,0.07,0.34,0.08
						c0.11,0.01,0.22-0.01,0.33-0.05c0.64-0.25,0.81-1.38,0.36-2.53C13.53,61.87,12.65,61.14,12.01,61.38z"/>
					<path class="st49" d="M10.6,64.91c-0.3-0.77-0.22-1.92,0.73-2.14c0.12-0.03,0.17-0.01,0.23-0.1c0.12-0.19,0.22-0.35,0.41-0.47
						c0.11-0.07,0.15-0.2,0.22-0.3c0.09-0.13,0.21-0.22,0.35-0.28c0.15-0.06,0.31-0.06,0.47-0.02c-0.31-0.22-0.63-0.3-0.91-0.19
						c-0.14,0.05-0.26,0.15-0.35,0.28c-0.07,0.1-0.11,0.23-0.22,0.3c-0.19,0.13-0.29,0.29-0.41,0.47c-0.06,0.09-0.11,0.07-0.23,0.1
						c-0.96,0.23-1.03,1.37-0.73,2.15c0.24,0.63,0.7,1.08,1.17,1.21C11.04,65.7,10.76,65.35,10.6,64.91z"/>
				</g>
				<path class="st50" d="M52.46,50.79c0.28-0.9,0.13-1.75-0.35-1.91c-0.47-0.16-1.09,0.41-1.41,1.27
					C51.27,50.25,51.89,50.44,52.46,50.79z"/>
				<path class="st50" d="M51.81,51.54c-0.07,0.48-0.32,0.84-0.58,0.8c-0.25-0.04-0.41-0.45-0.34-0.93c0.07-0.48,0.32-0.84,0.58-0.8
					C51.72,50.65,51.87,51.06,51.81,51.54z"/>
				<g>
					<path class="st51" d="M12.03,60.87c0,0-1.88-2.31,1.3-4.48c0,0,4.62-3.32,6.79-5.13c1.75-1.46,3.72-2.65,5.72-3.74
						c4.4-2.4,9.17-4.53,14.19-5.13c3.42-0.41,6.9-0.24,10.3,0.23c2.14,0.29,4.7,0.87,6.06,2.72c0.62,0.84,1.44,1.26,2.21,1.94
						c1.64,1.44,1.79,3.91,1.7,5.94c-0.12,2.57-1.27,4.53-2.46,6.71c0,0-6.36,11.64-24.13,11.42c0,0-5.42-0.29-6.94-0.58
						c0,0-1.45-0.21-3.4,0.07c0,0-6.65,1.23-8.45-3.25C14.93,67.59,12.59,62.45,12.03,60.87z"/>
					<path class="st48" d="M33.09,70.13c0,0-6.91-0.37-8.84-0.74c0,0-1.84-0.28-4.33,0.09c0,0-1.31,0.24-3.05,0.19
						c2.64,1.64,6.49,0.93,6.49,0.93c1.95-0.29,3.39-0.07,3.39-0.07c1.52,0.29,6.94,0.58,6.94,0.58c7.62,0.09,13.14-1.99,16.96-4.41
						C46.16,68.74,40.38,70.22,33.09,70.13z"/>
					<path class="st52" d="M60.61,52.4c-0.11-1.86-0.29-3.92-1.73-5.19c-0.77-0.68-1.6-1.11-2.22-1.95
						c-1.36-1.86-3.95-2.44-6.1-2.73c-3.43-0.46-6.93-0.64-10.36-0.23c-5.05,0.61-9.84,2.74-14.27,5.16
						c-2.01,1.1-3.99,2.29-5.75,3.76c-2.18,1.82-6.83,5.16-6.83,5.16c-1.27,0.87-2.31,2.3-1.66,3.87c0.33,0.81,0.71,1.61,1.05,2.41
						c0.33,0.79,0.68,1.57,1.02,2.35c0.17,0.38,0.34,0.76,0.51,1.15c0,0,0.33,0.88,3.36,0.62c0,0,6.03-1.32,9.32-0.76
						c0,0,11.35,1.07,18.59-1.72c0,0,10.69-2.48,13.83-8.51C59.39,55.8,60.72,54.17,60.61,52.4z"/>
					<path class="st53" d="M59.79,52.46c-0.11-1.81-0.28-3.81-1.68-5.05c-0.76-0.66-1.56-1.07-2.16-1.89
						c-1.33-1.81-3.84-2.37-5.93-2.65c-3.33-0.45-6.73-0.62-10.08-0.22c-4.91,0.59-9.57,2.67-13.88,5.01
						c-1.95,1.06-3.88,2.23-5.59,3.66c-2.12,1.77-6.64,5.02-6.64,5.02c-1.28,0.87-2.3,2.34-1.55,3.88c0.72,1.5,1.31,3.06,1.98,4.58
						c0.15,0.34,0.33,0.69,0.47,1.04c0,0,0.32,0.85,3.27,0.61c0,0,5.86-1.28,9.06-0.74c0,0,11.04,1.04,18.08-1.67
						c0,0,10.4-2.42,13.45-8.28C58.6,55.76,59.9,54.18,59.79,52.46z"/>
					<path class="st54" d="M25.53,64.42c-3.68-0.52-10.34,1.13-10.34,1.13c-0.04,0-0.08,0.01-0.12,0.01
						c0.26,0.23,1.01,0.63,3.15,0.46c0,0,5.86-1.28,9.06-0.74c0,0,11.03,1.04,18.08-1.67c0,0,10.34-2.4,13.42-8.23
						c-4.68,4.5-12.63,6.58-12.63,6.58C38.18,65.26,25.53,64.42,25.53,64.42z"/>
					<path class="st55" d="M24.48,57.06c0.5-0.81,0.98-1.62,1.71-2.28c0.58-0.52,1.26-0.96,1.99-1.25c0.69-0.28,1.42-0.4,2.08-0.77
						c0.71-0.4,1.32-0.97,2.02-1.35c1.88-1.01,4.06-1.65,6.15-2c3.57-0.6,7.16-1.22,10.78-1.34c0.8-0.02,1.61-0.03,2.41,0.06
						c0.64,0.07,1.44,0.29,1.88,0.8c0.55,0.63-0.09,1.37-0.58,1.8c-0.36,0.32-0.63,0.86-1.01,1.2c-1.06,0.95-2.34,1.6-3.57,2.3
						c-0.77,0.44-1.56,0.88-2.3,1.39c-0.9,0.62-1.93,1.08-2.93,1.51c-1.54,0.66-3.14,1.18-4.78,1.51c-2.56,0.53-5.1,1.17-7.75,0.94
						c-1.16-0.1-2.32-0.16-3.48-0.1c-0.92,0.06-2.22,0.42-3.04-0.2c-0.65-0.5-0.23-1.24,0.12-1.77
						C24.29,57.38,24.39,57.22,24.48,57.06z"/>
					<path class="st50" d="M31.53,57.33c0.76,0.6,1.12,1.42,0.8,1.82c-0.32,0.41-1.2,0.24-1.96-0.36c-0.76-0.6-1.12-1.42-0.8-1.82
						C29.88,56.57,30.76,56.73,31.53,57.33z"/>
					<path class="st50" d="M27.99,55.35c-0.04,0.97-0.5,1.74-1.01,1.71c-0.52-0.02-0.9-0.83-0.86-1.8c0.04-0.97,0.5-1.74,1.01-1.71
						C27.65,53.57,28.03,54.38,27.99,55.35z"/>
					<path class="st50" d="M32.66,53.05c-0.5,0.65-1.17,0.96-1.52,0.69c-0.34-0.26-0.22-1,0.27-1.64c0.49-0.64,1.17-0.95,1.52-0.69
						C33.27,51.66,33.15,52.4,32.66,53.05z"/>
					<path class="st50" d="M35.42,54.69c-0.42,0.55-1,0.82-1.3,0.59c-0.29-0.23-0.19-0.86,0.23-1.41c0.42-0.55,1-0.81,1.3-0.59
						C35.95,53.51,35.84,54.14,35.42,54.69z"/>
					<path class="st50" d="M33.76,56.28c0.22,0.65,0.12,1.29-0.23,1.41c-0.35,0.12-0.82-0.31-1.04-0.97
						c-0.23-0.66-0.13-1.29,0.23-1.41C33.07,55.19,33.53,55.62,33.76,56.28z"/>
					<path class="st50" d="M26.49,59.38c0.02-0.94-0.35-1.72-0.86-1.74c-0.5-0.02-0.94,0.69-1.01,1.61
						C25.19,59.19,25.84,59.2,26.49,59.38z"/>
					<path class="st50" d="M36.65,58.23c-0.23-0.92-0.8-1.56-1.29-1.45c-0.48,0.11-0.72,0.91-0.54,1.81
						C35.35,58.39,35.98,58.23,36.65,58.23z"/>
					<path class="st50" d="M31.82,56.89c0.15-0.63,0-1.21-0.34-1.3c-0.33-0.08-0.72,0.34-0.9,0.95
						C30.97,56.58,31.41,56.68,31.82,56.89z"/>
					<path class="st50" d="M40.14,53.24c0.28-0.9,0.13-1.75-0.35-1.91c-0.47-0.16-1.09,0.4-1.41,1.27
						C38.95,52.71,39.57,52.89,40.14,53.24z"/>
					<path class="st50" d="M35.5,50.69c-0.65-0.68-1.47-0.96-1.84-0.62c-0.37,0.34-0.17,1.15,0.43,1.85
						C34.45,51.47,34.91,51.02,35.5,50.69z"/>
					<path class="st50" d="M30.38,55.83c-0.54,0.59-1.23,0.83-1.55,0.54c-0.31-0.29-0.13-1,0.41-1.59c0.54-0.59,1.23-0.83,1.55-0.54
						C31.1,54.53,30.92,55.24,30.38,55.83z"/>
					<path class="st50" d="M29.74,53.24c0.01,0.55-0.22,0.99-0.51,1c-0.29,0.01-0.54-0.44-0.54-0.98c-0.01-0.54,0.22-0.99,0.51-1
						C29.48,52.25,29.72,52.69,29.74,53.24z"/>
					<path class="st50" d="M25.34,56.36c0.41,0.36,0.58,0.84,0.38,1.05c-0.2,0.22-0.68,0.1-1.09-0.27
						c-0.41-0.36-0.58-0.83-0.38-1.05C24.44,55.88,24.93,56,25.34,56.36z"/>
					<path class="st50" d="M33.35,53.94c0.36,0.32,0.51,0.74,0.34,0.93c-0.17,0.19-0.6,0.09-0.96-0.24
						c-0.36-0.32-0.51-0.74-0.34-0.93C32.56,53.51,32.99,53.62,33.35,53.94z"/>
					<path class="st50" d="M34.05,58.16c0.45,0.18,0.74,0.51,0.64,0.75c-0.09,0.24-0.53,0.29-0.98,0.12
						c-0.45-0.18-0.74-0.51-0.64-0.75C33.16,58.04,33.6,57.99,34.05,58.16z"/>
					<path class="st50" d="M36.12,55.38c0.48,0.07,0.84,0.33,0.8,0.59c-0.04,0.26-0.45,0.41-0.93,0.34
						c-0.48-0.07-0.84-0.33-0.8-0.59C35.23,55.47,35.64,55.32,36.12,55.38z"/>
					<path class="st50" d="M38.67,50.38c0.43,0.23,0.67,0.59,0.55,0.82c-0.12,0.23-0.57,0.23-0.99,0c-0.43-0.22-0.67-0.59-0.55-0.82
						C37.8,50.15,38.24,50.15,38.67,50.38z"/>
					<path class="st50" d="M39.67,55.36c0.33,0.35,0.45,0.78,0.26,0.95c-0.19,0.18-0.61,0.03-0.94-0.31
						c-0.33-0.35-0.45-0.78-0.26-0.96C38.92,54.86,39.34,55,39.67,55.36z"/>
					<path class="st50" d="M40.49,54.25c-0.01,0.48-0.23,0.86-0.49,0.86c-0.26-0.01-0.46-0.4-0.44-0.88
						c0.01-0.49,0.23-0.87,0.49-0.86C40.31,53.37,40.51,53.77,40.49,54.25z"/>
					<path class="st50" d="M34.8,52.11c0.47,0.09,0.82,0.37,0.77,0.62c-0.05,0.25-0.47,0.38-0.95,0.29
						c-0.47-0.1-0.82-0.37-0.77-0.63C33.9,52.15,34.33,52.02,34.8,52.11z"/>
					<path class="st50" d="M44.11,53.01c-0.12,0.47-0.42,0.79-0.67,0.73c-0.25-0.07-0.36-0.49-0.23-0.96
						c0.12-0.47,0.42-0.79,0.67-0.73C44.13,52.11,44.23,52.54,44.11,53.01z"/>
					<path class="st50" d="M45.93,54.75c-0.07,0.48-0.33,0.84-0.58,0.81c-0.25-0.03-0.41-0.45-0.34-0.93
						c0.07-0.48,0.32-0.84,0.58-0.8C45.84,53.86,45.99,54.27,45.93,54.75z"/>
					<path class="st50" d="M45.7,48.78c-0.07,0.48-0.33,0.84-0.58,0.81c-0.25-0.04-0.41-0.46-0.34-0.93
						c0.07-0.47,0.32-0.83,0.58-0.8C45.61,47.88,45.76,48.3,45.7,48.78z"/>
					<path class="st50" d="M28.49,57.96c0.26,0.52,0.25,1.05-0.03,1.19c-0.28,0.14-0.71-0.17-0.97-0.68
						c-0.26-0.52-0.25-1.05,0.03-1.19C27.8,57.14,28.23,57.45,28.49,57.96z"/>
					<path class="st50" d="M40.13,50.68c-0.89-0.38-1.45-1.08-1.25-1.55c0.2-0.48,1.09-0.55,1.99-0.17
						c0.89,0.38,1.45,1.08,1.25,1.55C41.91,50.99,41.02,51.06,40.13,50.68z"/>
					<path class="st50" d="M44.06,51.68c-0.21-0.94,0.03-1.81,0.53-1.92c0.5-0.11,1.08,0.57,1.29,1.51
						c0.21,0.95-0.03,1.81-0.53,1.92C44.85,53.31,44.27,52.63,44.06,51.68z"/>
					<path class="st50" d="M40.62,55.55c0.31-0.75,0.89-1.23,1.29-1.06c0.4,0.16,0.47,0.91,0.17,1.66
						c-0.31,0.75-0.89,1.23-1.29,1.06C40.39,57.04,40.32,56.3,40.62,55.55z"/>
					<path class="st50" d="M37.05,54.24c0.26-0.64,0.76-1.05,1.1-0.91c0.34,0.14,0.41,0.78,0.14,1.42c-0.26,0.64-0.76,1.05-1.1,0.9
						C36.85,55.52,36.79,54.89,37.05,54.24z"/>
					<path class="st50" d="M37.85,57.53c-0.29-0.63-0.26-1.27,0.07-1.42c0.33-0.16,0.85,0.23,1.14,0.85
						c0.29,0.63,0.26,1.27-0.08,1.43C38.65,58.55,38.14,58.16,37.85,57.53z"/>
					<path class="st50" d="M41.62,51.84c0.37-0.71,0.98-1.13,1.35-0.93c0.38,0.2,0.39,0.93,0.02,1.64
						c-0.37,0.71-0.97,1.12-1.35,0.93C41.26,53.28,41.25,52.55,41.62,51.84z"/>
					<path class="st50" d="M42.89,49.29c-0.38-0.43-0.51-0.95-0.28-1.16c0.23-0.21,0.73-0.02,1.12,0.41
						c0.38,0.43,0.51,0.95,0.28,1.16C43.78,49.9,43.28,49.71,42.89,49.29z"/>
					<path class="st50" d="M47.36,50.37c-0.89-0.38-1.45-1.08-1.24-1.55c0.2-0.48,1.09-0.55,1.98-0.17
						c0.89,0.39,1.45,1.08,1.25,1.56C49.14,50.67,48.25,50.75,47.36,50.37z"/>
					<path class="st50" d="M35.74,51.37c-0.21-0.95,0.03-1.81,0.53-1.92c0.51-0.11,1.09,0.57,1.3,1.51
						c0.21,0.94-0.03,1.81-0.53,1.92C36.53,53,35.95,52.32,35.74,51.37z"/>
					<path class="st50" d="M46.41,52.97c-0.08-0.81,0.2-1.5,0.63-1.55c0.43-0.04,0.85,0.58,0.93,1.39c0.08,0.81-0.2,1.5-0.64,1.54
						C46.9,54.4,46.49,53.78,46.41,52.97z"/>
					<path class="st50" d="M43.36,54.79c0.26-0.64,0.76-1.04,1.1-0.91c0.34,0.14,0.41,0.78,0.14,1.42c-0.27,0.64-0.76,1.05-1.1,0.91
						C43.16,56.08,43.09,55.44,43.36,54.79z"/>
				</g>
				<path class="st50" d="M48.86,51.52c0.37-0.71,0.97-1.12,1.35-0.93c0.38,0.2,0.39,0.93,0.02,1.64c-0.37,0.71-0.98,1.12-1.35,0.93
					C48.49,52.97,48.49,52.23,48.86,51.52z"/>
				<path class="st50" d="M49.79,48.97c-0.39-0.43-0.51-0.95-0.28-1.15c0.23-0.21,0.73-0.03,1.11,0.41
					c0.38,0.43,0.51,0.95,0.28,1.16C50.67,49.58,50.17,49.4,49.79,48.97z"/>
			</g>
		</g>
	</g>
</g>
<g id="Слой_2">
</g>
<g id="Слой_4">
</g>
<g id="Слой_3">
</g>
</svg>
