<?xml version="1.0" encoding="utf-8"?>
<!-- Generator: Adobe Illustrator 23.1.0, SVG Export Plug-In . SVG Version: 6.00 Build 0)  -->
<svg version="1.1" xmlns="http://www.w3.org/2000/svg" xmlns:xlink="http://www.w3.org/1999/xlink" x="0px" y="0px"
	 viewBox="0 0 80 80" style="enable-background:new 0 0 80 80;" xml:space="preserve">
<style type="text/css">
	.st0{fill:#6F8653;}
	.st1{fill:#EBB044;}
	.st2{fill:#EEC27E;}
	.st3{fill:#DBA44B;}
	.st4{fill:#725846;}
	.st5{fill:#E8CA48;}
	.st6{fill:#F2DC7D;}
	.st7{fill:#CDB44D;}
	.st8{fill:#F8F8E1;}
	.st9{fill:#E4D049;}
	.st10{fill:#EDDC60;}
	.st11{fill:#E7E474;}
	.st12{fill:#809764;}
	.st13{fill:#46684B;}
	.st14{fill:#4D724F;}
	.st15{fill:#7D8E54;}
	.st16{fill:#4E7553;}
	.st17{fill:#456449;}
	.st18{fill:#415E46;}
	.st19{fill:#D6E06F;}
	.st20{fill:#A46246;}
	.st21{fill:#A97361;}
	.st22{fill:#6D8A56;}
	.st23{fill:#DB7B43;}
	.st24{fill:#EDB862;}
	.st25{fill:#DD8347;}
	.st26{fill:#E09A79;}
	.st27{fill:#D76B43;}
	.st28{fill:#C66849;}
	.st29{fill:#8E8079;}
	.st30{fill:#D98065;}
	.st31{fill:#C56647;}
	.st32{fill:#EFD9BA;}
	.st33{fill:#D45D45;}
	.st34{fill:#DD8075;}
	.st35{fill:#DAC6AD;}
	.st36{fill:#657F51;}
	.st37{fill:#556946;}
	.st38{fill:#7D9657;}
	.st39{fill:#7B706B;}
	.st40{fill:#93A47A;}
	.st41{fill:#6A7E4F;}
	.st42{fill:#E7E5D1;}
	.st43{fill:#CFD26A;}
	.st44{fill:#EDF0BC;}
	.st45{fill:#B6AA50;}
	.st46{fill:#A39C74;}
	.st47{fill:#D1C474;}
	.st48{fill:#93854C;}
	.st49{fill:#867B4A;}
	.st50{fill:#291D10;}
	.st51{fill:#AA9B50;}
	.st52{fill:#E5D263;}
	.st53{fill:#DC7F44;}
	.st54{fill:#E0956D;}
	.st55{fill:#EAAB44;}
	.st56{fill:#8CAC59;}
	.st57{fill:#657E4F;}
	.st58{fill:#97A779;}
	.st59{fill:#D14A4A;}
	.st60{fill:#97C35A;}
	.st61{fill:#89A559;}
	.st62{fill:#CB7A5E;}
	.st63{fill:#BE725E;}
	.st64{fill:#B16955;}
	.st65{fill:#D18D7D;}
	.st66{fill:#5D4837;}
	.st67{fill:#9C5B44;}
	.st68{fill:#D69747;}
	.st69{fill:#6A8E58;}
	.st70{fill:#80A071;}
	.st71{fill:#F1EB66;}
	.st72{fill:#EAC647;}
	.st73{fill:#F3EA8A;}
	.st74{fill:#CEA04A;}
	.st75{fill:#473321;}
	.st76{fill:#93AD7C;}
	.st77{fill:#EFD1A2;}
	.st78{fill:#91A87A;}
	.st79{fill:#6E8E42;}
	.st80{fill:#586889;}
	.st81{fill:#77859F;}
	.st82{fill:#83A25A;}
	.st83{fill:#B2C495;}
	.st84{fill:#947659;}
	.st85{fill:#4E6E4F;}
	.st86{fill:#524160;}
	.st87{fill:#3D3649;}
	.st88{fill:#6B5C7A;}
	.st89{fill:#2F3338;}
	.st90{fill:#212428;}
	.st91{fill:#282D32;}
	.st92{fill:#42484E;}
	.st93{fill:#252B2E;}
	.st94{fill:#6B3F3C;}
	.st95{fill:#645E57;}
	.st96{fill:#517E55;}
	.st97{fill:#2E4135;}
	.st98{fill:none;}
	.st99{fill:#6E8B70;}
	.st100{fill:#3D5545;}
	.st101{fill:#628A64;}
	.st102{fill:#F9F9E3;}
	.st103{fill:#D96F60;}
	.st104{fill:#C0645A;}
	.st105{fill:#543E2C;}
	.st106{fill:#7F4B49;}
	.st107{fill:#9E6345;}
	.st108{fill:#994D49;}
	.st109{fill:#A46A69;}
	.st110{fill:#8F5B42;}
	.st111{fill:#8E4948;}
	.st112{fill:#85986E;}
	.st113{fill:#6D7290;}
	.st114{fill:#626880;}
	.st115{fill:#9C9385;}
	.st116{fill:#F2D55A;}
	.st117{clip-path:url(#SVGID_2_);}
	.st118{fill:#E2AC54;}
	.st119{opacity:0.31;fill:#F9EFC5;}
	.st120{opacity:0.31;fill:#FFFBE9;}
	.st121{fill:#DDC862;}
	.st122{fill:#FFF3C2;}
	.st123{fill:#E8C046;stroke:#7A695F;stroke-width:0.15;stroke-miterlimit:10;}
	.st124{fill:#DBB248;}
	.st125{fill:#6F5753;}
	.st126{fill:#E8C046;stroke:#77655B;stroke-width:0.15;stroke-miterlimit:10;}
	.st127{fill:#83A15C;}
	.st128{fill:#698C3C;}
	.st129{fill:#809D5B;}
	.st130{fill:#4A6224;}
	.st131{fill:#85A55C;}
	.st132{fill:#506B26;}
	.st133{fill:#82A15B;}
	.st134{fill:#698958;}
	.st135{fill:#DD8344;}
	.st136{fill:#B56721;}
	.st137{fill:#C2463A;}
	.st138{fill:#CC6E64;}
	.st139{fill:#5EA817;}
	.st140{fill:#5F8F22;}
	.st141{fill:#C24F3C;}
	.st142{fill:#AB4A39;}
	.st143{fill:#BB413C;}
	.st144{fill:#EA7142;}
	.st145{fill:#ED835B;}
	.st146{fill:#E76D18;}
	.st147{fill:#56734E;}
	.st148{fill:#CBC797;}
	.st149{fill:#F1F0E1;}
	.st150{fill:#DBD9CA;}
	.st151{fill:#496042;}
	.st152{fill:#547534;}
	.st153{fill:#C0D591;}
	.st154{fill:#B3C483;}
	.st155{fill:#DFEAC1;}
	.st156{fill:#D5DDB8;}
	.st157{fill:#577F36;}
	.st158{fill:#4D6D2F;}
	.st159{fill:#4F6B32;}
	.st160{fill:#AAC654;}
	.st161{fill:#A0B252;}
	.st162{fill:#9B3743;}
	.st163{fill:#A34D5B;}
	.st164{fill:#75434B;}
	.st165{fill:#80333D;}
	.st166{fill:#722F3A;}
	.st167{fill:#8E424F;}
	.st168{fill:#A5273F;}
	.st169{fill:#9B2944;}
	.st170{fill:#93B250;}
	.st171{fill:#778950;}
	.st172{fill:#B1B297;}
	.st173{fill:#5D6B3E;}
	.st174{fill:#769328;}
	.st175{fill:#B9BC9D;}
	.st176{fill:#B4CE6E;}
	.st177{fill:#CCCEAF;}
	.st178{fill:#AEAF94;}
	.st179{fill:#E8C046;stroke:#7F6D62;stroke-width:0.15;stroke-miterlimit:10;}
	.st180{fill:#B7C661;}
	.st181{fill:#CED893;stroke:#ACB25F;stroke-width:0.5;stroke-miterlimit:10;}
	.st182{fill:#D79F4A;}
	.st183{clip-path:url(#SVGID_4_);}
	.st184{fill:#CDD98D;}
	.st185{fill:#FADA37;}
	.st186{fill:#CCB244;}
	.st187{fill:#FAE089;}
	.st188{fill:#FFED90;}
	.st189{fill:#ECDB6F;}
	.st190{fill:#FECF73;}
	.st191{fill:#CEA865;}
	.st192{fill:#EDDFCA;}
	.st193{fill:#EBDECA;}
	.st194{fill:#638408;}
	.st195{fill:#CE9F41;}
	.st196{fill:#F7BA23;}
	.st197{fill:#EAAE2A;}
	.st198{fill:#F2CE36;}
	.st199{fill:#F9D53D;}
	.st200{fill:#FCDA4F;}
	.st201{fill:#F7E289;}
	.st202{fill:#668F05;}
	.st203{fill:#597214;}
	.st204{fill:#8BA040;}
	.st205{fill:#7AA122;}
	.st206{fill:#95BB28;}
	.st207{fill:#E7F2A6;}
	.st208{fill:#C4CC75;}
	.st209{fill:#87A82C;}
	.st210{fill:#9FBF45;}
	.st211{fill:#728E25;}
	.st212{fill:#7D4E30;}
	.st213{fill:#3F5A2F;}
	.st214{fill:#4B7837;}
	.st215{fill:#85A93F;}
	.st216{fill:#693F26;}
	.st217{fill:#8C7668;}
	.st218{fill:#EDE9E6;}
	.st219{fill:#FFFDFC;}
	.st220{fill:#846F5C;}
	.st221{clip-path:url(#SVGID_6_);}
	.st222{fill:#B2A594;}
	.st223{fill:#E4DDD5;}
	.st224{fill:#A16D46;}
	.st225{fill:#9A8E42;}
	.st226{fill:#BBB061;}
	.st227{fill:#A08F41;}
	.st228{fill:#C1AD56;}
	.st229{opacity:0.7;}
	.st230{fill:#DACA7F;}
	.st231{fill:#EEE49F;}
	.st232{opacity:0.5;}
	.st233{fill:#FFF9D7;}
	.st234{fill:#7C7F32;}
	.st235{fill:#95A84C;}
	.st236{fill:#D8B45C;}
	.st237{fill:#FCC572;}
	.st238{fill:#FED49A;}
	.st239{fill:#C0782C;}
	.st240{fill:#D49430;}
	.st241{fill:#F5D19D;}
	.st242{opacity:0.35;}
	.st243{fill:#F9AFC9;}
	.st244{fill:#F9CDDE;}
	.st245{fill:#FFF3F8;}
	.st246{fill:#F4A2C3;}
	.st247{fill:#FFFFFF;}
	.st248{fill:#D7F2F9;}
	.st249{fill:#492743;}
	.st250{fill:#20131D;}
	.st251{fill:#685364;}
	.st252{fill:#748115;}
	.st253{fill:#A7B86A;}
</style>
<g id="Слой_1">
	<g>
		<g>
			<path class="st96" d="M22.26,35.63c0,15.06,11.64,27.26,25.99,27.26c14.35,0,25.99-12.2,25.99-27.26
				c0-15.06-11.63-27.26-25.99-27.26C33.89,8.37,22.26,20.57,22.26,35.63z"/>
			<path class="st97" d="M49.59,10.79c0,0,0.28,1.05,0.79,1.44c0,0,0.9,0.61,1.01,1.28c0,0,1.46,0.61,0.73,1.72c0,0,0,1,0.45,1.39
				c0,0,0.78,1.11,0.62,1.61c0,0-0.4,0.55,0.02,2.33c0,0-0.13,0.56,0.54,1.33c0,0,0.78,0.83,0.67,2c0,0,0.9,1.5,0.45,2.33
				c0,0-0.28,1.16-0.28,1.78c0,0,0.2,1.72,0.41,2.55c0,0,0.26,1-0.24,1.66c0,0,0.06,1.66,0.56,1.88c0,0,0.67,0.33,0,1.11
				c0,0,0.54,0.72,0.3,1.38c0,0-0.47,1.11-0.19,2.05c0,0,0.72,1.27,0.25,2.11c0,0,1.69,1.05,0.16,1.99c0,0-0.91,1.39-0.75,2.38
				c0,0-0.06,2,0.28,2.44c0,0-0.95,2.05,0,2.83c0,0-1.23,0.5-1.18,1.66c0,0-0.39,1.11-0.22,1.94c0,0,1.45,0.55,0.39,2.41
				c0,0-0.4,2.45-1.32,3.93c0,0-0.19,1.37-0.86,1.7c0,0,0.17-1.82,0.56-2.93c0,0-0.51-1.22,0.3-2.17c0,0-0.43-1.49,0-2.46
				c0,0-0.43-1.58,0-2.2c0,0-0.47-1.33,0.26-2.16c0,0,0.6-1.55-0.26-2.55c0,0-0.81-0.56-0.3-1.39c0,0-1.96-0.67,0-2.33
				c0,0,1.23-1.11,0.78-2.55c0,0,0.21-1.27-0.48-1.66c0,0-1.82-0.72-1.53-1.5c0,0-0.73-0.77,0.78-1.27c0,0,0.83-0.78,0.75-2.45
				c0,0,0.87-2.38,0.31-4.1c0,0-1.23-1.11-0.89-2.05c0,0-0.9-1.83,0.22-2.22c0,0-0.45-1.55,0-2.16c0,0,0-1.11-0.84-1.55
				c0,0-0.48-0.78,0.45-1.11c0,0,0.17-1.77-0.9-2.49c0,0-1.17-0.95-0.73-2.22c0,0,0.34-1.27-0.28-2.44c0,0-0.87-1.21-0.79-2.11
				C49.59,11.95,48.86,11.18,49.59,10.79z"/>
			<path class="st97" d="M53.9,10.08c0,0,2.35,0.45,2.52,1.18c0,0,0.51,0.73,2.07,1.01c0,0,0.39,0.22,1.06,0.84
				c0,0,1.79,0.9,2.47,1.96c0,0,1.46,1.45,1.62,2.46c0,0,1.29,1.29,0.95,2.19c0,0,0.45,1.06,1.18,1.4c0,0,1.18,1.01,0.73,1.96
				c0,0,1.23,1.18,1.79,2.35c0,0,1.29-0.34,0.95,1.62c0,0,0.78,1.62,0.06,2.69c0,0,0,1.57,0.67,2.52c0,0,0.28,3.3,0.89,3.97
				c0,0-1.12,1.29-0.95,2.35c0,0,0.06,2.8-0.22,4.54c0,0,0.28,2.86-0.39,3.59c0,0,1.34-0.17-0.06,1.74c0,0-2.13,5.32-3.42,6.49
				c0,0,0.06-1.44,0.67-2.4c0,0,1.79-2.53,1.23-4.15c0,0-0.45-1.07-0.17-2.64c0,0,0.17-0.9,0.78-1.96c0,0-0.17-0.61,0.5-1.74
				c0,0,0.84-2.13-0.45-1.85c0,0-0.79-0.9,0.22-1.85c0,0,0.84-2.13-0.22-2.8c0,0-1.79-1.79-1.46-2.8c0,0,1.79-1.68,0.34-2.97
				c0,0-1.29-1.29-1.18-2.19c0,0-1.23-0.56-0.95-1.85c0,0,0.28-1.85-0.34-2.69c0,0,0.06-1.46-0.84-2.41c0,0-0.67-1.29-1.23-0.56
				c0,0-0.96-0.56-1.01-1.62c0,0-0.5-0.51-0.11-1.63c0,0,0.17-0.84-0.9-1.51c0,0-0.84,0-1.01-1.12c0,0-0.39-0.95-1.62-0.78
				c0,0-0.11,1.9-1.18,0.05c0,0,0.39-1.01-0.9-1.4C56.03,12.1,54.35,11.37,53.9,10.08z"/>
			<g>
				<path class="st97" d="M25.43,39.27c-0.02,0,0.93,1.14,0.68,1.85c0,0-0.06,1.47-0.51,1.71c-0.02-0.01,1.09,1.74-0.21,2.05
					c0,0,0.46,0.22,0.89,0.53c-0.12,0.11-0.19,0.43,0.17,1.35c0,0,0.09,0.51,0.26,1.21c-0.54,0.12-1.3,0.44-0.25,1.63
					c0-0.01,0.48,1.97,2.04,3.28c0-0.01,0.31,1.09,1.5,1.4c0,0-0.32-1.39-0.97-2.28c0.01,0,0.85-0.85-0.48-1.69
					c0.01,0,0.69-1.06,0.03-1.86c0.01,0,0.67-1.14,0.03-1.66c0.01,0,0.69-0.95-0.34-1.67c-0.01,0-0.8-1.24,0.4-1.89
					c0.01,0.01,2.97-1.42,0.43-2.78c-0.02,0-1.52-0.94-0.93-1.98c0.02-0.03-0.02-0.18-0.02-0.21c-0.01-0.17,0.01-0.35,0.08-0.5
					c0.1-0.25,0.24-0.49,0.35-0.73c0.11-0.24,0.25-0.46,0.33-0.7c0.04-0.12,0.08-0.27,0.06-0.4c-0.03-0.14-0.14-0.2-0.19-0.32
					c-0.09-0.29,0.02-0.67,0.05-0.96c0.03-0.32-0.02-0.61-0.03-0.93c0-0.23,0.03-0.37-0.05-0.6c-0.2-0.55-0.34-1.12-0.35-1.71
					c0.13-0.36,0.27-0.83,0.26-1.22c0.23-0.18,1.02-0.89,0.75-1.52c0.02,0.01,0.71-1.38-0.18-1.68c0.01,0,0.34-1.18,0.01-1.64
					c0,0.01,0.01-0.86,0.58-1.17c0,0,0.15-0.29,0.02-0.55c0.05-0.21,0.09-0.51,0.08-0.88c0,0,0.1-0.36,0-1.18
					c0.03-0.03,0.06-0.06,0.1-0.09c0.01-0.02,0.63-0.54,0.31-1.57c0,0-0.08-0.37-0.1-0.82c0.04-0.18,0.1-0.35,0.23-0.21
					c-0.01,0,0.15,1.53,0.22,0.17c0,0.01-0.14-0.86,0.05-1c0-0.01,0.24-0.31,0.17-1.21c0-0.02-0.34-0.09-0.31,0.49
					c0,0-0.01,0.29-0.14,0.45c0.08-0.26,0.14-0.59,0.08-0.98c0-0.01,0.24-0.27-0.09-0.86c0,0-0.03,0.66-0.23,0.82
					c0-0.02-0.34,0.27-0.38,0.78c0.01-0.04-0.66,0.41-0.31,1.26c0,0,0.02,0.75-0.22,1.06c0.01-0.01-0.43,0.9-0.36,1.26
					c0-0.01,0.24,0.38-0.05,1.76c0,0,0.09,0.4-0.39,1.06c0,0-0.56,0.74-0.55,1.58c0.01,0-0.75,1.25-0.46,1.79
					c0,0,0.15,0.82,0.12,1.27c0,0-0.25,1.29-0.49,1.91c0,0-0.31,0.74,0.11,1.2c0,0-0.15,1.22-0.64,1.4c0,0-0.66,0.25-0.08,0.8
					c0,0-0.57,0.52-0.39,1c-0.01,0,0.39,0.82,0.03,1.49c0,0.01-0.85,0.86-0.42,1.49C25.76,37.89,23.91,38.36,25.43,39.27z
					 M27.22,47.25c0.04,0.19,0.04,0.38-0.01,0.56C27.2,47.62,27.2,47.43,27.22,47.25z"/>
			</g>
			<path class="st97" d="M54.09,11.13c0,0,3.02,2.02,1.9,1.96c0,0-0.05,0.78,0.84,1.57c0,0,1.51,0.73,2.07,1.74
				c0,0,2.13,1.01,0.84,1.12c0,0,1.44,1.23,0.41,1.34c0,0,1.04,1.23,0.37,1.68c0,0,0.84,0.62-0.06,1.12c0,0-0.85,2.07,0.42,2.91
				c0,0,1.38,0.22,0.65,1.35c0,0-0.81,1.62,0.21,2.47c0,0,0.46,1.17,0.29,2.02c0,0,1.23,0.9,1.07,1.96c0,0,1.51,1.01,0.84,2.97
				c0,0-0.44,0.67,0.17,2.24c0,0,1.12,1.4-0.39,1.63c0,0,0.5,2.91-0.62,3.02c0,0-2.02,1.29-1.07,2.8c0,0,0.9,0.78,0.28,1.9
				c0,0,1.9-0.39-0.34,1.46c0,0,0.73,1.34,0.39,2.24c0,0,0.95,1.18-0.56,2.07c0,0-0.78,0.36-0.45,1.27c0,0,0.67,0.22-0.39,1.04
				c0,0-1.68,1.9-2.29,3.16c0,0-1.01,2-3.31,3c0,0,0.39-0.4,0.67-1.02c0,0-0.61-0.79,0.78-1.03l1.12-0.95c0,0-1.31-0.71,0.28-1.22
				c0,0,1.62-1.33,1.62-2.62c0,0-0.5-1.57,0.28-2.13c0,0,0.73-0.89-0.34-1.74c0,0-0.73-0.73,0.06-1.46c0,0-0.06-0.9,0.78-1.68
				c0,0,1.29-1.18-0.11-1.85c0,0-0.48-0.38,0.39-0.79c0,0-0.81-1.63,0.28-1.68c0,0,0.67-1.12-0.11-1.54c0,0,0.9-0.76,0.73-1.6
				c0,0-0.62-0.9-0.62-1.62c0,0-0.51-1,0.22-2.1c0,0-0.22-1.26,0.22-1.66c0,0,0.45-1.4-0.33-1.91l-0.84-0.34
				c0,0,0.73-2.02,0.11-2.74c0,0-1.17-1.57-1.29-3.02c0,0-1.01-1.23-0.28-2.13c0,0-0.77-1.28,0.28-0.84c0,0-0.22-0.9,0-1.46
				c0,0-0.34-2.07-1.07-2.41c0,0-1.23-0.56-0.84-1.62c0,0-0.34-1.68-1.29-2.07c0,0-0.78-1.01-0.73-2.02c0,0,0.06-0.78-0.78-0.95
				C54.59,12.98,53.92,12.25,54.09,11.13z"/>
			<g>
				<path class="st98" d="M36.42,54.29c0.12,0.26,0.25,0.54,0.4,0.84C36.64,54.86,36.5,54.58,36.42,54.29z"/>
				<path class="st97" d="M32.48,38.68c0,0-0.5,2.91,0.62,3.02c0,0,0.62,0.39,1.01,1c0,0.04,0.01,0.09,0.01,0.13
					c0,0,0.06,0.61,0.17,1.45c-0.03,0.07-0.07,0.15-0.12,0.22c0,0-0.9,0.79-0.28,1.91c0,0-1.9-0.39,0.33,1.45
					c0,0-0.73,1.35-0.39,2.24c0,0-0.95,1.18,0.56,2.07c0,0,0.78,0.36,0.45,1.27c0,0-0.68,0.22,0.39,1.04c0,0,1.68,1.9,2.3,3.16
					c0,0,1.01,2,3.3,3c0,0-0.39-0.4-0.67-1.02c0,0,0.61-0.79-0.78-1.03l-0.31-0.26c-0.1-0.33-0.23-0.7-0.39-1.04
					c0.15-0.23,0.17-0.53-0.48-0.79c-0.48-0.79-1.36-2.46-1.18-3.73c0,0,0.23-1.14-0.18-2.74c0,0-0.05-0.2-0.17-0.52
					c0.1-0.28,0.1-0.66-0.31-1.04c0,0,0.05-0.81-0.67-1.56c-0.08-0.18-0.18-0.37-0.31-0.59c0,0-0.18-0.4-0.28-0.84
					c0.08-0.19,0.26-0.38,0.59-0.53c0,0,0.37-0.3-0.14-0.65c0.06-0.16,0.2-0.59,0.04-1.09c0.03-0.34-0.06-0.65-0.45-0.72
					c-0.01,0-0.01-0.01-0.02-0.01c0,0-0.21-0.49-0.35-1.08c0.04-0.18,0.14-0.35,0.36-0.46c0,0-0.25-0.22-0.46-0.54
					c0.01-0.33,0.1-0.63,0.29-0.84c0,0,1.21-2.02,0.82-3.03c0,0-1.62-1.57-0.62-3.04c0,0,0.86-1.45,0.67-2.37c0,0,0.91-0.69,0.53-2
					c0,0-0.11-0.46-0.17-1.03c0.32-0.59,0.67-1.38,0.73-2.14c0,0,1.01-1.23,0.28-2.13c0,0,0.66-1.1-0.08-0.91
					c0.13-0.1,0.29-0.1,0.47,0.13c0,0,0.68-0.67,0.6-1.77c0,0,0.34-0.57-0.11-1.69c0,0-0.05-0.21-0.02-0.51
					c0.23-0.13,0.9-0.56,0.83-1.28c0.18-0.15,0.38-0.46,0.38-1.11c0,0,0.2-1.02,1.19-0.96c0,0,0.32,1.96,0.94-0.05
					c0,0-0.43-1.01,0.54-1.53c0,0,1.24-0.91,1.44-2.28c0,0-1.8,0.68-1.85,1.45c0,0-0.18,0.46-0.8,0.87c0.07-0.25,0.12-0.52,0.1-0.78
					c0,0-0.06-0.79,0.78-0.95c0,0,0.67-0.73,0.51-1.85c0,0-3.03,2.02-1.91,1.96c0,0,0.06,0.78-0.84,1.57c0,0-1.51,0.73-2.07,1.74
					c0,0-2.13,1.01-0.84,1.12c0,0-1.45,1.23-0.42,1.35c0,0-1.04,1.23-0.37,1.68c0,0-0.84,0.62,0.06,1.12c0,0,0.18,0.44,0.25,0.98
					c-0.02,0.18-0.01,0.36,0.03,0.53c-0.02,0.52-0.18,1.07-0.69,1.41c0,0-1.38,0.22-0.65,1.34c0,0,0.07,0.15,0.15,0.38
					c0,0.23,0.03,0.46,0.14,0.68c0,0-0.83,1.33-1.14,2.6c0,0-1.06-0.23-0.56,1.77c0,0-0.02,0.07-0.04,0.18
					c-0.11,0.25-0.18,0.54-0.13,0.83c0,0-1.51,1.01-0.84,2.97c0,0,0.44,0.67-0.17,2.24C32.08,37.05,30.97,38.46,32.48,38.68z
					 M36.81,55.12c-0.17-0.26-0.32-0.54-0.4-0.84C36.54,54.55,36.67,54.82,36.81,55.12z"/>
			</g>
			<g>
				<path class="st98" d="M44.46,56.54c-0.02-0.03-0.04-0.05-0.06-0.08c0,0,0-0.01,0-0.03C44.42,56.47,44.44,56.51,44.46,56.54z"/>
				<path class="st97" d="M41.36,40.75c-0.38,0.38-0.76,1.04,0.24,1.65c0,0,0.91,1.37,0.75,2.36c0,0,0.01,0.27,0,0.64
					c-0.06,0.23-0.1,0.53-0.05,0.87c-0.01,0.14-0.03,0.28-0.06,0.41c-0.26-0.02-0.64,0.06,0,0.94c0.1,0.29,0.21,0.69,0.24,1.09
					c-0.08,0.28-0.14,0.62-0.16,0.96c-0.06,0.12-0.15,0.22-0.26,0.31c0,0,0.12,0.05,0.28,0.15c0.01,0.07,0.02,0.14,0.04,0.21
					c0,0-0.67,1.15,0.4,2.03c0,0,0.55,0.35,0.31,1.25c0,0-0.18,0.08-0.14,0.33c-0.28,0.35-0.47,0.98,0.12,2c0,0,0.4,2.43,1.32,3.89
					c0,0,0.19,1.35,0.86,1.68c0,0-0.17-1.8-0.56-2.9c0,0,0.26-0.63,0.11-1.33c0.07,0.16,0.13,0.3,0.18,0.45c0,0,0.71,1.96,2.33,2.94
					c0,0-0.28-0.39-0.48-1c0,0,0.43-0.77-0.55-1.01l-0.79-0.93c0,0,0.92-0.69-0.2-1.2c0,0-0.4-0.46-0.73-1.1
					c0.04-0.46,0.01-0.98-0.17-1.41c0,0,0.42-1.57,0-2.17c0,0,0.38-1.08-0.09-1.9c0.11-0.27,0.21-0.74-0.15-1.21
					c0,0,0.01-0.37-0.14-0.85c0.07-0.25,0.19-0.5,0.38-0.71c0,0,0.8-0.55,0.3-1.37c0,0,1.96-0.66,0-2.31c0,0-1.23-1.1-0.78-2.52
					c0,0-0.21-1.26,0.48-1.65c0,0,1.81-0.72,1.53-1.48c0,0,0.73-0.76-0.78-1.26c0,0-0.82-0.77-0.75-2.42c0,0-0.88-2.36-0.32-4.06
					c0,0,1.23-1.1,0.9-2.03c0,0,0.84-1.7-0.13-2.16c0.07-0.26,0.11-0.55,0.06-0.84c0.04-0.32,0.06-0.67-0.01-0.96
					c0.06-0.24,0.06-0.48-0.15-0.44c0.01-0.23,0.11-1.1,0.84-1.48c0,0,0.48-0.77-0.45-1.1c0,0-0.04-0.49,0.06-1.05
					c0.03-0.03,0.06-0.06,0.09-0.08c0,0,0.69-0.44,0.64-1.27c0.03-0.02,0.06-0.05,0.1-0.07c0,0,1.18-0.94,0.73-2.2
					c0,0,0-0.02-0.01-0.06c0.02-0.01,0.03-0.02,0.04-0.03c0,0,0.56-0.99,0.51-1.98c0,0-0.04-0.77,0.55-0.93c0,0,0.47-0.72,0.36-1.81
					c0,0-0.17,0.15-0.39,0.37c0-0.02,0-0.05-0.01-0.07c0,0,0.73-0.77,0-1.15c0,0-0.28,1.04-0.78,1.43c0,0-0.9,0.61-1.01,1.26
					c0,0-1.45,0.6-0.73,1.7c0,0,0,0.99-0.45,1.37c0,0-0.12,0.17-0.25,0.4c-0.38,0.28-1.06,0.86-0.38,0.94c0,0,0,0.01,0,0.01
					c-0.06,0.07-0.99,1.21-0.29,1.31c0,0-0.74,1.21-0.26,1.65c0,0-0.52,0.53-0.07,1c-0.2,0.24-0.69,0.96-0.6,1.89
					c0,0-0.9,1.48-0.45,2.31c0,0,0.28,1.15,0.28,1.76c0,0-0.2,1.7-0.41,2.53c0,0-0.05,0.2-0.07,0.48c-0.24,0.35-0.59,0.95-0.51,1.63
					c0,0-1.06,0.99-0.59,2.91c0,0,0.31,0.66-0.13,2.2c0,0-0.78,1.37,0.28,1.6C41.43,39.13,41.33,39.96,41.36,40.75z M44.4,56.46
					c0,0,0-0.01,0-0.03c0.02,0.03,0.04,0.07,0.06,0.11C44.44,56.52,44.42,56.49,44.4,56.46z"/>
			</g>
			<path class="st97" d="M64.7,15.39c0,0,0.67,0.9,1.46,1.34c0,0,0.56,0.5,0.62,1.18c0,0,0.73,1.01,1.68,1.23
				c0,0,1.01,0.45,0.62,1.29c0,0,0.34,1.74,1.18,2.52c0,0,0.78,0.67,1.23,2.41c0,0,0.95,2.19,0.9,3.02c0,0-1.18-0.92-1.74-2.28
				c0,0-0.45-1.98-1.23-2.48c0,0-0.84-1.4-0.87-2.35c0,0-0.08-1.23-0.98-1.46c0,0-0.95-0.28-1.18-1.68
				C66.38,18.14,64.7,16.51,64.7,15.39z"/>
			<path class="st99" d="M50.67,9.53c0,0.45-1.09,0.81-2.43,0.81c-1.34,0-2.43-0.36-2.43-0.81c0-0.45,1.09-0.81,2.43-0.81
				C49.58,8.72,50.67,9.08,50.67,9.53z"/>
		</g>
		<g>
			<path class="st100" d="M50.93,52.07c0,0,6.93,21.11-20.97,19.47L50.93,52.07z"/>
			<path class="st101" d="M8.91,38.28l42.02,13.79c0.04,1.98-0.24,3.96-0.87,5.92C46.6,68.7,33.94,74.2,21.78,70.27
				C9.62,66.35,2.56,54.49,6.02,43.78C6.67,41.75,7.66,39.91,8.91,38.28z"/>
			<path class="st102" d="M9.69,38.53L50,51.75c0.03,1.89-0.23,3.8-0.84,5.67C45.85,67.7,33.7,72.98,22.04,69.21
				C10.37,65.45,3.6,54.07,6.92,43.8C7.54,41.85,8.49,40.09,9.69,38.53z"/>
			<path class="st103" d="M11.07,38.97l37.64,12.36c0.03,1.77-0.22,3.55-0.78,5.3c-3.1,9.59-14.44,14.52-25.33,11.01
				C11.71,64.11,5.39,53.49,8.48,43.9C9.07,42.08,9.95,40.43,11.07,38.97z"/>
			<path class="st104" d="M45.45,59.72c-4.07,7.06-13.49,10.37-22.58,7.43c-3.29-1.06-6.13-2.81-8.39-4.99
				c1.76,1.05,3.68,1.92,5.74,2.59C29.66,67.8,39.38,65.55,45.45,59.72z"/>
			<path class="st105" d="M40.25,52.45c0,0,2.84,2.97,1,3.49C39.41,56.47,40.25,52.45,40.25,52.45z"/>
			<path class="st105" d="M36.02,53.09c0,0,1.84,3.66-0.07,3.63C34.04,56.69,36.02,53.09,36.02,53.09z"/>
			<path class="st105" d="M31.15,52.7c0,0,0.85,4.02-0.99,3.5C28.33,55.68,31.15,52.7,31.15,52.7z"/>
			<path class="st105" d="M26.22,51.38c0,0,0.32,4.09-1.43,3.34C23.03,53.96,26.22,51.38,26.22,51.38z"/>
			<path class="st105" d="M22.28,49.6c0,0-0.66,4.05-2.19,2.91C18.57,51.35,22.28,49.6,22.28,49.6z"/>
			<path class="st105" d="M18.82,46.9c0,0-2.09,3.54-3.09,1.91C14.72,47.18,18.82,46.9,18.82,46.9z"/>
			<path class="st105" d="M17.19,43.73c0,0-2.8,3.01-3.43,1.2C13.13,43.13,17.19,43.73,17.19,43.73z"/>
		</g>
	</g>
</g>
<g id="Слой_2">
</g>
<g id="Слой_4">
</g>
<g id="Слой_3">
</g>
</svg>
