<?xml version="1.0" encoding="utf-8"?>
<!-- Generator: Adobe Illustrator 23.1.0, SVG Export Plug-In . SVG Version: 6.00 Build 0)  -->
<svg version="1.1" xmlns="http://www.w3.org/2000/svg" xmlns:xlink="http://www.w3.org/1999/xlink" x="0px" y="0px"
	 viewBox="0 0 80 80" style="enable-background:new 0 0 80 80;" xml:space="preserve">
<style type="text/css">
	.st0{fill:#6F8653;}
	.st1{fill:#EBB044;}
	.st2{fill:#EEC27E;}
	.st3{fill:#DBA44B;}
	.st4{fill:#725846;}
	.st5{fill:#E8CA48;}
	.st6{fill:#F2DC7D;}
	.st7{fill:#CDB44D;}
	.st8{fill:#F8F8E1;}
	.st9{fill:#E4D049;}
	.st10{fill:#EDDC60;}
	.st11{fill:#E7E474;}
	.st12{fill:#809764;}
	.st13{fill:#46684B;}
	.st14{fill:#4D724F;}
	.st15{fill:#7D8E54;}
	.st16{fill:#4E7553;}
	.st17{fill:#456449;}
	.st18{fill:#415E46;}
	.st19{fill:#D6E06F;}
	.st20{fill:#A46246;}
	.st21{fill:#A97361;}
	.st22{fill:#6D8A56;}
	.st23{fill:#DB7B43;}
	.st24{fill:#EDB862;}
	.st25{fill:#DD8347;}
	.st26{fill:#E09A79;}
	.st27{fill:#D76B43;}
	.st28{fill:#C66849;}
	.st29{fill:#8E8079;}
	.st30{fill:#D98065;}
	.st31{fill:#C56647;}
	.st32{fill:#EFD9BA;}
	.st33{fill:#D45D45;}
	.st34{fill:#DD8075;}
	.st35{fill:#DAC6AD;}
	.st36{fill:#657F51;}
	.st37{fill:#556946;}
	.st38{fill:#7D9657;}
	.st39{fill:#7B706B;}
	.st40{fill:#93A47A;}
	.st41{fill:#6A7E4F;}
	.st42{fill:#E7E5D1;}
	.st43{fill:#CFD26A;}
	.st44{fill:#EDF0BC;}
	.st45{fill:#B6AA50;}
	.st46{fill:#A39C74;}
	.st47{fill:#D1C474;}
	.st48{fill:#93854C;}
	.st49{fill:#867B4A;}
	.st50{fill:#291D10;}
	.st51{fill:#AA9B50;}
	.st52{fill:#E5D263;}
	.st53{fill:#DC7F44;}
	.st54{fill:#E0956D;}
	.st55{fill:#EAAB44;}
	.st56{fill:#8CAC59;}
	.st57{fill:#657E4F;}
	.st58{fill:#97A779;}
	.st59{fill:#D14A4A;}
	.st60{fill:#97C35A;}
	.st61{fill:#89A559;}
	.st62{fill:#CB7A5E;}
	.st63{fill:#BE725E;}
	.st64{fill:#B16955;}
	.st65{fill:#D18D7D;}
	.st66{fill:#5D4837;}
	.st67{fill:#9C5B44;}
	.st68{fill:#D69747;}
	.st69{fill:#6A8E58;}
	.st70{fill:#80A071;}
	.st71{fill:#F1EB66;}
	.st72{fill:#EAC647;}
	.st73{fill:#F3EA8A;}
	.st74{fill:#CEA04A;}
	.st75{fill:#473321;}
	.st76{fill:#93AD7C;}
	.st77{fill:#EFD1A2;}
	.st78{fill:#91A87A;}
	.st79{fill:#6E8E42;}
	.st80{fill:#586889;}
	.st81{fill:#77859F;}
	.st82{fill:#83A25A;}
	.st83{fill:#B2C495;}
	.st84{fill:#947659;}
	.st85{fill:#4E6E4F;}
	.st86{fill:#524160;}
	.st87{fill:#3D3649;}
	.st88{fill:#6B5C7A;}
	.st89{fill:#2F3338;}
	.st90{fill:#212428;}
	.st91{fill:#282D32;}
	.st92{fill:#42484E;}
	.st93{fill:#252B2E;}
	.st94{fill:#6B3F3C;}
	.st95{fill:#645E57;}
	.st96{fill:#517E55;}
	.st97{fill:#2E4135;}
	.st98{fill:none;}
	.st99{fill:#6E8B70;}
	.st100{fill:#3D5545;}
	.st101{fill:#628A64;}
	.st102{fill:#F9F9E3;}
	.st103{fill:#D96F60;}
	.st104{fill:#C0645A;}
	.st105{fill:#543E2C;}
	.st106{fill:#7F4B49;}
	.st107{fill:#9E6345;}
	.st108{fill:#994D49;}
	.st109{fill:#A46A69;}
	.st110{fill:#8F5B42;}
	.st111{fill:#8E4948;}
	.st112{fill:#85986E;}
	.st113{fill:#6D7290;}
	.st114{fill:#626880;}
	.st115{fill:#9C9385;}
	.st116{fill:#F2D55A;}
	.st117{clip-path:url(#SVGID_2_);}
	.st118{fill:#E2AC54;}
	.st119{opacity:0.31;fill:#F9EFC5;}
	.st120{opacity:0.31;fill:#FFFBE9;}
	.st121{fill:#DDC862;}
	.st122{fill:#FFF3C2;}
	.st123{fill:#E8C046;stroke:#7A695F;stroke-width:0.15;stroke-miterlimit:10;}
	.st124{fill:#DBB248;}
	.st125{fill:#6F5753;}
	.st126{fill:#E8C046;stroke:#77655B;stroke-width:0.15;stroke-miterlimit:10;}
	.st127{fill:#83A15C;}
	.st128{fill:#698C3C;}
	.st129{fill:#809D5B;}
	.st130{fill:#4A6224;}
	.st131{fill:#85A55C;}
	.st132{fill:#506B26;}
	.st133{fill:#82A15B;}
	.st134{fill:#698958;}
	.st135{fill:#DD8344;}
	.st136{fill:#B56721;}
	.st137{fill:#C2463A;}
	.st138{fill:#CC6E64;}
	.st139{fill:#5EA817;}
	.st140{fill:#5F8F22;}
	.st141{fill:#C24F3C;}
	.st142{fill:#AB4A39;}
	.st143{fill:#BB413C;}
	.st144{fill:#EA7142;}
	.st145{fill:#ED835B;}
	.st146{fill:#E76D18;}
	.st147{fill:#56734E;}
	.st148{fill:#CBC797;}
	.st149{fill:#F1F0E1;}
	.st150{fill:#DBD9CA;}
	.st151{fill:#496042;}
	.st152{fill:#547534;}
	.st153{fill:#C0D591;}
	.st154{fill:#B3C483;}
	.st155{fill:#DFEAC1;}
	.st156{fill:#D5DDB8;}
	.st157{fill:#577F36;}
	.st158{fill:#4D6D2F;}
	.st159{fill:#4F6B32;}
	.st160{fill:#AAC654;}
	.st161{fill:#A0B252;}
	.st162{fill:#9B3743;}
	.st163{fill:#A34D5B;}
	.st164{fill:#75434B;}
	.st165{fill:#80333D;}
	.st166{fill:#722F3A;}
	.st167{fill:#8E424F;}
	.st168{fill:#A5273F;}
	.st169{fill:#9B2944;}
	.st170{fill:#93B250;}
	.st171{fill:#778950;}
	.st172{fill:#B1B297;}
	.st173{fill:#5D6B3E;}
	.st174{fill:#769328;}
	.st175{fill:#B9BC9D;}
	.st176{fill:#B4CE6E;}
	.st177{fill:#CCCEAF;}
	.st178{fill:#AEAF94;}
	.st179{fill:#E8C046;stroke:#7F6D62;stroke-width:0.15;stroke-miterlimit:10;}
	.st180{fill:#B7C661;}
	.st181{fill:#CED893;stroke:#ACB25F;stroke-width:0.5;stroke-miterlimit:10;}
	.st182{fill:#D79F4A;}
	.st183{clip-path:url(#SVGID_4_);}
	.st184{fill:#CDD98D;}
	.st185{fill:#FADA37;}
	.st186{fill:#CCB244;}
	.st187{fill:#FAE089;}
	.st188{fill:#FFED90;}
	.st189{fill:#ECDB6F;}
	.st190{fill:#FECF73;}
	.st191{fill:#CEA865;}
	.st192{fill:#EDDFCA;}
	.st193{fill:#EBDECA;}
	.st194{fill:#638408;}
	.st195{fill:#CE9F41;}
	.st196{fill:#F7BA23;}
	.st197{fill:#EAAE2A;}
	.st198{fill:#F2CE36;}
	.st199{fill:#F9D53D;}
	.st200{fill:#FCDA4F;}
	.st201{fill:#F7E289;}
	.st202{fill:#668F05;}
	.st203{fill:#597214;}
	.st204{fill:#8BA040;}
	.st205{fill:#7AA122;}
	.st206{fill:#95BB28;}
	.st207{fill:#E7F2A6;}
	.st208{fill:#C4CC75;}
	.st209{fill:#87A82C;}
	.st210{fill:#9FBF45;}
	.st211{fill:#728E25;}
	.st212{fill:#7D4E30;}
	.st213{fill:#3F5A2F;}
	.st214{fill:#4B7837;}
	.st215{fill:#85A93F;}
	.st216{fill:#693F26;}
	.st217{fill:#8C7668;}
	.st218{fill:#EDE9E6;}
	.st219{fill:#FFFDFC;}
	.st220{fill:#846F5C;}
	.st221{clip-path:url(#SVGID_6_);}
	.st222{fill:#B2A594;}
	.st223{fill:#E4DDD5;}
	.st224{fill:#A16D46;}
	.st225{fill:#9A8E42;}
	.st226{fill:#BBB061;}
	.st227{fill:#A08F41;}
	.st228{fill:#C1AD56;}
	.st229{opacity:0.7;}
	.st230{fill:#DACA7F;}
	.st231{fill:#EEE49F;}
	.st232{opacity:0.5;}
	.st233{fill:#FFF9D7;}
	.st234{fill:#7C7F32;}
	.st235{fill:#95A84C;}
	.st236{fill:#D8B45C;}
	.st237{fill:#FCC572;}
	.st238{fill:#FED49A;}
	.st239{fill:#C0782C;}
	.st240{fill:#D49430;}
	.st241{fill:#F5D19D;}
	.st242{opacity:0.35;}
	.st243{fill:#F9AFC9;}
	.st244{fill:#F9CDDE;}
	.st245{fill:#FFF3F8;}
	.st246{fill:#F4A2C3;}
	.st247{fill:#FFFFFF;}
	.st248{fill:#D7F2F9;}
	.st249{fill:#492743;}
	.st250{fill:#20131D;}
	.st251{fill:#685364;}
	.st252{fill:#748115;}
	.st253{fill:#A7B86A;}
</style>
<g id="Слой_1">
	<g>
		<g>
			<path class="st22" d="M18.12,33.79c0,0-0.48-0.98-1.05-1.53l-0.36,0.75c0,0-0.66-0.56-1.15-0.86l-0.15,0.66l-1.15-0.67
				l-0.34,0.48c0,0-1.6-1.33-1.17,0.02c0,0,0.46,1.77-0.51,1.51c0,0,1.3,1.59,0.33,1.56c0,0,3.12,2.64,1.99,3.32
				c0,0-1.18,1.13-1.82-2.41l-0.27,0.36c0,0-0.38-0.96-1.17-1.37l-0.07,0.31l-0.82-0.46l-0.19,0.84l-0.8-0.55
				c0,0,1.11,1.87-0.6,1.21l-0.12,0.53l-0.99-0.36c0,0,0.73,1.27-0.68,0.54c0,0,0.48,1.17-1.05,0.13c0,0,0.86,1.77-1.26,0.88
				c0,0,0.92,1.46-0.91,0.53c0,0,0.18,1.23-1.79,1.17c-0.03,0-0.05-0.01-0.05-0.01c0,0,0.01,0.01,0.01,0.01c-0.01,0-0.01,0-0.02,0
				c0,0,0.02,0,0.05,0.01c1.8,0.79,1.12,1.82,1.12,1.82c2.05-0.05,0.59,0.88,0.59,0.88c2.3,0.1,0.77,1.33,0.77,1.33
				c1.83-0.29,0.89,0.57,0.89,0.57c1.59-0.06,0.38,0.78,0.38,0.78l1.04,0.1l-0.12,0.53c1.82,0.13,0.02,1.35,0.02,1.35l0.96-0.15
				l-0.19,0.84l0.94-0.07l-0.07,0.31c0.89-0.03,1.65-0.74,1.65-0.74l0.09,0.43c2.09-2.91,2.68-1.39,2.68-1.39
				c0.73,1.09-3.22,2.15-3.22,2.15c0.89,0.38-0.96,1.27-0.96,1.27c0.99,0.18-0.18,1.58-0.18,1.58c-0.97,1.04,1.05,0.51,1.05,0.51
				l0.1,0.58l1.33-0.12l-0.15,0.66c0.57-0.06,1.41-0.29,1.41-0.29l0,0.83c0.75-0.25,1.6-0.94,1.6-0.94l0.1,0.81l0.89-0.64l0.39,0.92
				c0.97-1.41,1.6-0.73,1.6-0.73c-0.07-2.77,0.77-2.58,0.77-2.58c1.12-0.26,0.75,2.02,0.75,2.02c0.55-0.8,0.85,0.13,0.85,0.13
				c0.44,2.36,1.49,0.17,1.49,0.17c0.7,0.8,0.78-0.57,0.78-0.57l0.71,0.15c-0.08-1.5,0.88-1.05,0.88-1.05
				c-0.25-1.17,0.97-0.8,0.97-0.8l-0.16-1.15l0.37-0.19c-0.58-1.15,0.2-0.88,0.2-0.88c1.66,0.46,0.62-1.3,0.62-1.3l0.53,0.12
				c-0.13-0.45-0.73-0.67-0.73-0.67l0.48-0.28c-0.67-0.72-1.54-0.35-1.54-0.35l0.33-0.47c-0.69-0.44-1.2-0.21-1.2-0.21
				c-3.28,0.63-3.78-1.37-3.8-1.45c0.05-0.06,1.36-1.66,4.05,0.31c0,0,0.36,0.42,1.17,0.32l-0.1-0.57c0,0,0.63,0.71,1.55,0.34
				l-0.31-0.46c0,0,0.64,0.05,0.95-0.3l-0.53-0.12c0,0,1.69-1.15,0-1.44c0,0-0.81-0.09,0.2-0.88l-0.25-0.33l0.64-0.97
				c0,0-1.26-0.19-0.53-1.14c0,0-1.06-0.01-0.35-1.33l-0.7-0.16c0,0,0.52-1.27-0.46-0.84c0,0-0.01-2.44-1.42-0.5
				c0,0-0.67,0.72-0.83-0.24c0,0-0.64,2.22-1.54,1.51c0,0-0.84-0.19,0.41-2.66c0,0-0.86,0.33-1.14-1.35l-0.75,0.67l-0.53-0.95
				L18.12,33.79z"/>
			<path class="st78" d="M18.77,44.14c0,0,0,0.02,0,0.02c-0.03,0.06-0.09,0.09-0.15,0.07c-5.58-2.1-15.84-3.56-15.94-3.58
				c-0.06-0.01-0.11-0.07-0.1-0.13c0.01-0.06,0.07-0.11,0.13-0.1c0.11,0.01,10.39,1.48,15.99,3.58
				C18.75,44.03,18.78,44.09,18.77,44.14z"/>
			<path class="st78" d="M17.74,43.72c-0.01,0.04-0.05,0.07-0.09,0.06c-0.04-0.01-0.07-0.04-0.06-0.09
				c0.01-0.06,1.05-5.95-4.06-10.55c-0.03-0.03-0.03-0.08-0.01-0.11c0.03-0.03,0.08-0.04,0.11,0
				C18.82,37.68,17.76,43.66,17.74,43.72C17.74,43.72,17.74,43.72,17.74,43.72z"/>
			<path class="st78" d="M17.31,45.97c-0.66,1.55-1.95,2.9-3.82,3.97c-2.02,1.16-4.03,1.6-4.05,1.6c-0.04,0.01-0.07-0.02-0.07-0.06
				c0-0.04,0.03-0.08,0.07-0.09c0.08-0.02,7.92-1.76,8.23-7.56c0-0.04,0.03-0.08,0.07-0.09c0.04,0,0.06,0.03,0.06,0.07
				C17.76,44.56,17.59,45.29,17.31,45.97z"/>
			<path class="st78" d="M23.69,37.96c-0.69,3.07-5.69,5.72-5.92,5.85c-0.04,0.02-0.08,0.01-0.1-0.03c-0.02-0.04,0-0.08,0.03-0.1
				c0.06-0.03,6.23-3.31,5.9-6.66c0-0.04,0.03-0.08,0.07-0.08c0.04,0,0.08,0.03,0.08,0.07C23.79,37.32,23.77,37.65,23.69,37.96z"/>
			<path class="st78" d="M20.08,52.8c-0.01,0.04-0.05,0.06-0.08,0.06c-0.04,0-0.08-0.04-0.07-0.08c0-0.05,0.41-4.96-2.32-8.95
				c-0.02-0.04-0.01-0.08,0.02-0.11c0.04-0.02,0.09-0.02,0.11,0.02C20.5,47.78,20.09,52.74,20.08,52.8L20.08,52.8z"/>
			<path class="st78" d="M14.74,43.08c-0.35,1.56-6.54,4.2-6.81,4.31c-0.04,0.02-0.09,0-0.1-0.04c-0.02-0.04,0-0.08,0.04-0.09
				c0.07-0.03,6.58-2.8,6.74-4.27c0.01-0.04,0.04-0.07,0.08-0.07c0.04,0,0.07,0.04,0.07,0.09C14.75,43.04,14.75,43.06,14.74,43.08z"
				/>
			<path class="st78" d="M11.88,42.2c0,0.01-0.01,0.02-0.01,0.02c-0.86,1.23-4.98,3.14-5.15,3.22c-0.04,0.02-0.08,0-0.1-0.04
				c-0.02-0.04,0-0.08,0.04-0.1c0.04-0.02,4.26-1.97,5.09-3.16c0.02-0.04,0.07-0.04,0.11-0.02C11.88,42.13,11.89,42.17,11.88,42.2z"
				/>
			<path class="st78" d="M7.94,41.42c0,0.01-0.01,0.02-0.01,0.02c-1.56,1.19-3.13,1.47-3.15,1.47c-0.02,0-0.04-0.01-0.05-0.03
				c0-0.02,0.01-0.04,0.03-0.05c0.01,0,1.57-0.28,3.12-1.45c0.02-0.01,0.04-0.01,0.05,0.01C7.94,41.4,7.94,41.41,7.94,41.42z"/>
			<path class="st78" d="M14.81,42.77c0.31-1.36-4.29-5.92-4.49-6.11c-0.03-0.03-0.08-0.03-0.11-0.01c-0.03,0.02-0.03,0.06,0,0.09
				c0.05,0.05,4.88,4.83,4.44,6.05c-0.01,0.03,0.01,0.07,0.05,0.08c0.04,0.02,0.08,0,0.1-0.04C14.8,42.81,14.81,42.79,14.81,42.77z"
				/>
			<path class="st78" d="M11.93,42.27c0-0.02,0-0.02,0-0.03c-0.27-1.25-3.08-4.26-3.19-4.39c-0.03-0.03-0.07-0.03-0.1-0.01
				c-0.03,0.02-0.03,0.06-0.01,0.09c0.03,0.03,2.9,3.1,3.16,4.33c0.01,0.04,0.05,0.06,0.09,0.05C11.9,42.31,11.92,42.29,11.93,42.27
				z"/>
			<path class="st78" d="M7.95,41.37c0-0.01,0-0.01,0-0.02c-1.08-1.33-2.52-2.1-2.54-2.11c-0.02-0.01-0.05-0.01-0.06,0
				c-0.01,0.01-0.01,0.03,0.01,0.04c0.01,0.01,1.44,0.77,2.51,2.09c0.01,0.02,0.04,0.02,0.06,0.02C7.94,41.38,7.95,41.38,7.95,41.37
				z"/>
			<path class="st78" d="M13.17,50.29c-0.38,1.66-1.77,2.82-1.79,2.83c-0.02,0.02-0.04,0.01-0.05,0c-0.01-0.02-0.01-0.04,0.01-0.05
				c0.01-0.02,1.47-1.22,1.79-2.94c0.01-0.02,0.03-0.04,0.05-0.03c0.02,0,0.03,0.02,0.03,0.05C13.19,50.19,13.18,50.24,13.17,50.29z
				"/>
			<path class="st78" d="M15.59,48.6c-0.56,2.5-2.37,4.47-2.39,4.49c-0.01,0.02-0.04,0.02-0.05,0c-0.02-0.02-0.02-0.04,0-0.06
				c0.02-0.02,1.9-2.06,2.41-4.64l0,0c0-0.02,0.03-0.03,0.04-0.03c0.02,0,0.03,0.02,0.03,0.04C15.61,48.47,15.6,48.53,15.59,48.6z"
				/>
			<path class="st78" d="M17.07,49.35c-0.51,2.26-1.46,3.5-1.47,3.51c-0.01,0.02-0.04,0.02-0.06,0c-0.02-0.01-0.02-0.04-0.01-0.05
				c0.02-0.02,1.94-2.51,1.75-6.92c0-0.02,0.02-0.04,0.04-0.04c0.02,0,0.04,0.02,0.04,0.04C17.42,47.22,17.28,48.39,17.07,49.35z"/>
			<path class="st78" d="M14.58,49.2c0,0.01-0.01,0.02-0.02,0.03c-1.7,0.73-3.76-0.02-3.78-0.03c-0.02,0-0.03-0.03-0.02-0.05
				c0.01-0.02,0.03-0.03,0.05-0.02c0.02,0.01,2.05,0.75,3.73,0.03c0.02-0.01,0.04,0,0.05,0.02C14.59,49.18,14.59,49.19,14.58,49.2z"
				/>
			<path class="st78" d="M19.18,38.2c-0.25,1.12-0.65,2.44-1.31,3.83c-0.01,0.02-0.03,0.03-0.05,0.02
				c-0.02-0.01-0.03-0.03-0.02-0.06c1.79-3.83,1.7-7.07,1.7-7.1c0-0.02,0.02-0.04,0.04-0.04c0.02,0,0.04,0.02,0.04,0.04
				C19.58,34.93,19.62,36.25,19.18,38.2z"/>
			<path class="st78" d="M17.55,36.48c-0.2,0.9-0.54,1.52-0.54,1.53c-0.01,0.02-0.03,0.03-0.05,0.01c-0.02-0.01-0.03-0.04-0.02-0.05
				c0.01-0.03,1.38-2.57,0.22-4.87c-0.01-0.02,0-0.04,0.02-0.05c0.02-0.01,0.04,0,0.05,0.02C17.83,34.27,17.76,35.53,17.55,36.48z"
				/>
			<path class="st78" d="M16.14,35.22c-0.08,0.37-0.2,0.61-0.2,0.61c-0.01,0.02-0.03,0.03-0.05,0.02c-0.02-0.01-0.02-0.03-0.02-0.06
				c0.01-0.01,0.72-1.46-0.15-3.05c-0.01-0.02,0-0.04,0.02-0.05c0.02-0.01,0.04-0.01,0.05,0.01C16.33,33.7,16.27,34.64,16.14,35.22z
				"/>
			<path class="st78" d="M17.26,38.94C17.26,38.94,17.26,38.94,17.26,38.94c-0.01,0.03-0.04,0.04-0.06,0.02
				c-2.09-1.07-4.06-3.31-4.08-3.34c-0.01-0.01-0.01-0.04,0-0.05c0.02-0.02,0.04-0.01,0.05,0c0.02,0.02,1.99,2.25,4.06,3.32
				C17.26,38.9,17.26,38.92,17.26,38.94z"/>
			<path class="st78" d="M25.6,40.41c0,0,0,0.01-0.01,0.02c-2,2.41-5.89,2.19-5.93,2.19c-0.02,0-0.04-0.02-0.03-0.04
				c0-0.02,0.02-0.04,0.04-0.04c0.04,0,3.9,0.22,5.87-2.16c0.01-0.02,0.04-0.02,0.06-0.01C25.6,40.38,25.61,40.39,25.6,40.41z"/>
			<path class="st78" d="M24.92,38.37C24.92,38.38,24.92,38.38,24.92,38.37c-0.77,2.31-2.97,2.47-3,2.47
				c-0.02,0-0.04-0.01-0.04-0.04c0-0.02,0.02-0.04,0.04-0.04c0.02,0,2.17-0.15,2.93-2.41c0.01-0.02,0.03-0.03,0.05-0.03
				C24.92,38.33,24.93,38.35,24.92,38.37z"/>
			<path class="st78" d="M21.34,41.24c0,0.01-0.01,0.02-0.03,0.03c-0.02,0-0.04-0.01-0.04-0.03c-0.01-0.05-0.24-1.27,0.77-4.64
				c0.01-0.02,0.03-0.03,0.05-0.03c0.02,0.01,0.03,0.03,0.03,0.05c-1,3.36-0.77,4.6-0.77,4.61C21.34,41.23,21.34,41.23,21.34,41.24z
				"/>
			<path class="st78" d="M22.99,49.79c0,0,0-0.01,0-0.02c-0.77-3.03-4.39-4.5-4.43-4.51c-0.02,0-0.04,0-0.05,0.02
				c-0.01,0.02,0,0.04,0.02,0.05c0.03,0.02,3.62,1.46,4.38,4.46c0.01,0.02,0.03,0.04,0.05,0.03C22.98,49.82,22.99,49.8,22.99,49.79z
				"/>
			<path class="st78" d="M21.17,51.21C21.17,51.21,21.17,51.21,21.17,51.21c0.29-2.42-1.64-3.5-1.66-3.5
				c-0.02-0.01-0.04,0-0.05,0.01c-0.01,0.02,0,0.04,0.02,0.06c0.02,0.01,1.9,1.06,1.62,3.43c0,0.02,0.01,0.04,0.03,0.04
				C21.15,51.24,21.17,51.23,21.17,51.21z"/>
			<path class="st78" d="M19.05,46.47c0-0.01,0-0.03-0.02-0.04c-0.02-0.01-0.04-0.01-0.05,0.01c-0.03,0.04-0.73,0.93-1.19,4.08
				c0,0.02,0.01,0.04,0.03,0.04c0.02,0,0.04-0.01,0.04-0.03c0.45-3.14,1.17-4.04,1.17-4.05C19.04,46.47,19.05,46.47,19.05,46.47z"/>
		</g>
		<path class="st79" d="M28.99,38.94c-0.19-0.08-1.32-0.71-1.59-4.14c-0.16-0.33-0.38-0.66-0.51-0.84
			c-1.02-1.48-2.44-2.59-3.87-3.66c-1.28-0.42-3.41,0.05-2.67,1.88c0.13,0.33,0.42,0.75,0.82,0.77c0.4,0.02,0.34-0.27,0.6-0.44
			c0.02-0.01,0.62-0.46,0.42,0c-0.01,0.03-0.33,0.7-0.87,0.79c-1.35,0.21-1.45-1.5-1.15-2.35c0.36-1,1.26-1.27,2.18-1.14
			c-0.09-0.06-0.18-0.13-0.27-0.19c-0.82-0.61-1.79-1.64-1.51-2.79c0.2-0.84,1.46-1.57,2.06-0.67c0.12,0.17,0.12,0.57,0.09,0.79
			c-0.03,0.19-0.09,0.26-0.12-0.05c-0.04-0.41-0.86-0.72-1.18-0.58c-0.48,0.21-0.59,0.92-0.5,1.37c0.22,1.07,1.56,1.81,2.38,2.39
			c0.32,0.23,0.63,0.45,0.87,0.65c1.76,1.49,2.71,2.6,3.2,3.39c-0.07-1.86,0.08-4.41,0.69-7.93c0.11-0.61,0.28-1.32,0.48-2.07
			c0-0.03,0.01-0.06,0.02-0.09c0.51-1.99,1.63-4.89,0.56-6.84c-0.44-0.81-1.56-1.78-2.58-1.47c-0.69,0.21-1.57,1.75-1.09,2.45
			c0.36,0.52,0.18,0.5-0.12,0.24c-0.34-0.3-0.85-0.92-0.9-1.35c-0.23-2.18,2.69-2.7,4.1-1.65c1.93,1.43,1.77,4.3,1.29,6.32
			c-0.05,0.22-0.11,0.44-0.16,0.66c1.27-1.41,3.01-2.18,4.88-1.09c1.59,0.93,3.68,3.73,1.3,5.18c-0.96,0.58-2.34-0.06-2.39-0.09
			c-0.91-0.43,0.61-0.53,0.66-0.54c0.61-0.07,0.91,0.45,1.5-0.1c0.6-0.55,0.49-1.6,0.27-2.29c-1.24-3.81-5.18-1.77-6.62,0.57
			c-0.84,3.54-1.59,7.14-1.25,10.78c0.08,0.88,0.3,3.05,1.23,3.54c0.15,0.08,0.22,0.27,0.15,0.42C29.33,38.94,29.15,39,28.99,38.94z
			"/>
		<g>
			<path class="st80" d="M38.62,50.74c0.54-0.64,1.21-1.18,2.01-1.56c0.53-0.26,1.09-0.42,1.66-0.52c-0.1-0.15-0.19-0.31-0.29-0.47
				c-0.69-1.24-1.04-2.58-1.07-3.86c-0.82,0.34-1.68,0.48-2.55,0.44C39.28,46.78,39.32,48.95,38.62,50.74z"/>
			<path class="st80" d="M51.5,31.14c-2.09-2.92-5.85-3.81-8.42-1.97c-0.84,0.6-1.44,1.41-1.8,2.33c0.94,0.68,1.76,1.59,2.38,2.71
				c0.68,1.21,1.02,2.51,1.06,3.77c2.18-0.97,4.75-0.53,6.76,0.99C53.25,36.97,53.33,33.7,51.5,31.14z"/>
			<path class="st80" d="M39.58,61.18L39.58,61.18L39.58,61.18L39.58,61.18l-0.01,0.02l0,0c-0.75,1.12-1.85,1.95-3.18,2.3
				c0.04,0.6,0.17,1.22,0.39,1.84c0.97,2.71,3.37,4.34,5.37,3.63c1.81-0.65,2.66-3.02,2.06-5.49
				C42.51,63.34,40.85,62.53,39.58,61.18z"/>
			<path class="st80" d="M63.56,54.44c-0.42-0.49-0.9-0.9-1.41-1.22c-0.26,0.64-0.64,1.23-1.15,1.74c-0.32,0.31-0.67,0.57-1.04,0.77
				c0.3,1.62,0.03,3.25-0.78,4.54c1.02,0.4,1.99,1.08,2.76,2.03c0.04,0.05,0.08,0.1,0.12,0.15c0.51-0.17,0.99-0.44,1.42-0.8
				C65.47,59.95,65.51,56.72,63.56,54.44z"/>
			<path class="st80" d="M54.78,62.83c0.02,0.03,0.03,0.06,0.05,0.08c1.3,2.36,1.07,5.1-0.38,6.85c2.01,1.82,4.9,2.1,6.82,0.54
				c2.16-1.75,2.29-5.16,0.3-7.62c-0.75-0.92-1.7-1.58-2.71-1.95c-0.32,0.41-0.69,0.78-1.14,1.09
				C56.84,62.46,55.83,62.78,54.78,62.83z"/>
			<path class="st80" d="M62.93,69.02c-0.3,0.6-0.72,1.14-1.26,1.57c-0.34,0.28-0.7,0.49-1.08,0.66c0.42,1.96-0.16,3.91-1.43,5.1
				c1.67,1.37,3.97,1.5,5.47,0.21c1.72-1.47,1.74-4.26,0.07-6.2C64.19,69.76,63.58,69.31,62.93,69.02z"/>
			<path class="st80" d="M54.19,70.05c-0.32,0.33-0.69,0.62-1.11,0.85c-0.6,0.33-1.24,0.52-1.89,0.58
				c-0.04,0.66,0.04,1.36,0.25,2.05c0.84,2.72,3.46,4.32,5.85,3.58c2.22-0.69,3.45-3.16,2.94-5.69
				C58.29,72.15,55.93,71.63,54.19,70.05z"/>
			<path class="st80" d="M47.42,62.94c-0.75,0.37-1.54,0.55-2.34,0.59c-0.35,1.39-0.17,2.98,0.63,4.43
				c1.53,2.77,4.74,3.93,7.18,2.59c2.43-1.35,3.16-4.68,1.64-7.45c-0.05-0.09-0.1-0.17-0.15-0.25c-1.61-0.04-3.26-0.71-4.58-1.95
				C49.2,61.75,48.4,62.47,47.42,62.94z"/>
			<path class="st80" d="M44.68,65.83c-0.23,1.66-1.1,3-2.46,3.49c-0.18,0.07-0.38,0.12-0.57,0.15c1.04,1.92,2.91,2.97,4.49,2.41
				c0.67-0.23,1.19-0.73,1.54-1.38c-0.89-0.57-1.67-1.38-2.23-2.4C45.04,67.36,44.79,66.59,44.68,65.83L44.68,65.83z"/>
			<path class="st80" d="M53.4,49.98c-0.48,0.6-1.07,1.12-1.76,1.5c-0.65,0.36-1.33,0.58-2.04,0.69c0.2,0.31,0.39,0.63,0.55,0.97
				c1.23,2.56,1.08,5.37-0.16,7.44c2.15,2.05,5.28,2.5,7.5,0.92c2.56-1.83,2.95-5.68,0.87-8.61C57.11,51.13,55.25,50.11,53.4,49.98z
				"/>
			<path class="st80" d="M49,52.22c-2.25,0.11-4.57-1-6.15-3.03c-0.62,0.07-1.22,0.23-1.8,0.51c-3.08,1.48-4.2,5.52-2.51,9.02
				c1.68,3.51,5.55,5.14,8.62,3.66c3.08-1.48,4.2-5.52,2.52-9.02C49.48,52.96,49.25,52.58,49,52.22z"/>
			<path class="st80" d="M30.28,53.98c-0.78,1.32-1.05,3.02-0.62,4.74c0.79,3.2,3.72,5.23,6.53,4.53c1.34-0.33,2.41-1.23,3.08-2.42
				c-0.47-0.55-0.88-1.17-1.21-1.86c-1.01-2.1-1.09-4.37-0.4-6.26c-0.05-0.04-0.1-0.08-0.15-0.11c-0.43,0.5-0.95,0.93-1.56,1.26
				C34.2,54.83,32.12,54.8,30.28,53.98z"/>
			<path class="st80" d="M44.72,38.59c-0.11,2.27-1.22,4.35-3.17,5.43c-0.01,1.27,0.31,2.6,1,3.83c1.89,3.4,5.84,4.8,8.83,3.14
				c2.98-1.66,3.86-5.76,1.97-9.16C51.49,38.52,47.68,37.11,44.72,38.59z"/>
			<path class="st80" d="M58.43,36.83c-1.46-1.49-3.41-2.15-5.18-1.92c0.09,1.63-0.39,3.2-1.4,4.37c0.71,0.62,1.34,1.38,1.84,2.27
				c0.81,1.46,1.15,3.03,1.06,4.52c1.51,0.18,3.01-0.25,4.1-1.31C60.92,42.74,60.74,39.19,58.43,36.83z"/>
			<path class="st80" d="M54.77,46.63c-0.14,1.09-0.51,2.12-1.11,2.99c1.86,0.23,3.72,1.29,4.98,3.06c0.59,0.83,0.99,1.73,1.22,2.64
				c0.3-0.18,0.58-0.4,0.84-0.65c2.07-2.02,1.89-5.58-0.42-7.93c-0.52-0.54-1.1-0.96-1.72-1.27C57.52,46.35,56.16,46.73,54.77,46.63
				z"/>
			<path class="st80" d="M32.08,40.66c-0.03-0.06-0.06-0.12-0.09-0.18c-1.07-0.07-2.14,0.14-3.11,0.68
				c-2.98,1.66-3.86,5.76-1.97,9.16c1.89,3.4,5.84,4.8,8.83,3.14c2.86-1.6,3.79-5.42,2.19-8.73C35.64,44.48,33.4,43.02,32.08,40.66z
				"/>
			<path class="st80" d="M34.45,31.29c-2.98,1.66-3.87,5.76-1.97,9.16c1.89,3.39,5.84,4.8,8.83,3.14c2.98-1.66,3.86-5.76,1.97-9.16
				C41.38,31.03,37.43,29.62,34.45,31.29z"/>
			<path class="st81" d="M34.11,33.12c0.89,0.23,1.35,1.47,1.01,2.78c-0.33,1.31-1.33,2.18-2.22,1.95
				c-0.89-0.23-1.35-1.47-1.02-2.77C32.22,33.76,33.22,32.89,34.11,33.12z"/>
			<path class="st81" d="M28.73,43.67c0.9,0.23,1.35,1.47,1.02,2.78c-0.33,1.3-1.33,2.18-2.22,1.95c-0.89-0.23-1.35-1.47-1.02-2.77
				C26.85,44.33,27.84,43.45,28.73,43.67z"/>
			<path class="st81" d="M39.64,52.73c0.92,0.03,1.64,1.14,1.6,2.48c-0.04,1.35-0.82,2.42-1.74,2.39c-0.92-0.02-1.64-1.14-1.6-2.48
				C37.94,53.77,38.72,52.71,39.64,52.73z"/>
			<path class="st81" d="M31.1,55.48c0.53,0.13,0.8,0.88,0.61,1.66c-0.2,0.78-0.79,1.3-1.32,1.17c-0.53-0.14-0.81-0.88-0.61-1.66
				C29.97,55.86,30.57,55.34,31.1,55.48z"/>
			<path class="st81" d="M37.36,63.59c0.45-0.08,0.91,0.39,1.01,1.06c0.11,0.66-0.17,1.25-0.62,1.33c-0.45,0.08-0.9-0.4-1.01-1.06
				C36.64,64.26,36.91,63.66,37.36,63.59z"/>
			<path class="st81" d="M46.36,64.56c0.62-0.1,1.24,0.55,1.39,1.45c0.15,0.9-0.23,1.72-0.85,1.82c-0.62,0.1-1.24-0.54-1.39-1.45
				C45.36,65.48,45.74,64.66,46.36,64.56z"/>
		</g>
		<g>
			<path class="st22" d="M64.02,2.69c-0.01,0-0.01,0.01-0.01,0.02C64.01,2.7,64.01,2.69,64.02,2.69c-0.01,0-0.02,0.02-0.04,0.06
				c-1.59,2.37-2.89,1.13-2.89,1.13c-0.46,2.95-1.41,0.62-1.41,0.62c-0.73,3.26-2.1,0.75-2.1,0.75c-0.07,2.69-1.05,1.13-1.05,1.13
				c-0.33,2.29-1.21,0.34-1.21,0.34L54.91,8.2l-0.73-0.31c-0.66,2.58-1.94-0.33-1.94-0.33l-0.03,1.42L51.06,8.5l-0.15,1.37
				l-0.42-0.18c-0.18,1.28,0.63,2.55,0.63,2.55l-0.65,0.02c3.63,3.75,1.3,4.19,1.3,4.19c-1.75,0.76-2.25-5.16-2.25-5.16
				c-0.78,1.17-1.56-1.71-1.56-1.71c-0.51,1.38-2.22-0.67-2.22-0.67c-1.22-1.66-1,1.36-1,1.36h-0.86l-0.17,1.93l-0.91-0.38
				c-0.07,0.83,0.04,2.09,0.04,2.09l-1.19-0.21c0.16,1.14,0.93,2.53,0.93,2.53l-1.19-0.07l0.68,1.43l-1.42,0.33
				c1.76,1.74,0.63,2.48,0.63,2.48c3.99,0.62,3.5,1.77,3.5,1.77c0.08,1.68-3.09,0.55-3.09,0.55c1.01,1-0.41,1.19-0.41,1.19
				c-3.49,0.02-0.62,2.09-0.62,2.09c-1.34,0.8,0.61,1.26,0.61,1.26l-0.41,0.97c0.88,0.12,1.26,0.39,1.39,0.67
				c0.14-0.12,0.29-0.24,0.45-0.35c2.5-1.79,6.04-1.26,8.45,1.08c0.52-3.35,2.86-3.51,2.96-3.51c0.08,0.08,1.98,2.33-1.39,5.62
				c0.39,0.75,0.65,1.52,0.79,2.31c1.89-0.1,3.92,0.66,5.47,2.24c0.24,0.25,0.46,0.5,0.65,0.77c0.06,0.06,0.13,0.12,0.2,0.19
				c0,0,0.29-1.52,1.99-0.16l0.41-0.97c0,0,1.69,1.08,1.33-0.44c0,0,3.49,0.62,1.07-1.9c0,0-0.85-1.15,0.56-1.12
				c0,0-3.02-1.49-1.76-2.6c0,0,0.48-1.15,3.7,1.28c0,0-0.26-1.33,2.22-1.27l-0.76-1.25l1.5-0.5l-0.88-0.8c0,0,1.53-0.42,2.47-1.1
				l-0.99-0.7c0,0,0.98-0.8,1.53-1.43l-0.91-0.39l1.26-1.46l-0.6-0.61c0,0,2.32-1.95,0.28-1.67c0,0-2.66,0.21-2.03-1.12
				c0,0-2.61,1.45-2.31,0.07c0,0-4.59,3.77-5.27,1.98c0,0-1.31-1.98,3.91-1.98l-0.44-0.48c0,0,1.48-0.3,2.27-1.33l-0.42-0.17
				l0.88-1.06l-1.15-0.48l1-1.01c0,0-2.97,1.11-1.58-1.16l-0.73-0.31l0.77-1.32c0,0-2.02,0.72-0.6-1.11c0,0-1.8,0.38,0.08-1.54
				c0,0-2.75,0.77-0.92-2.03c0,0-2.33,0.94-0.54-1.44c0,0-1.8-0.06-1.2-2.86C64.01,2.71,64.02,2.69,64.02,2.69z"/>
			<path class="st78" d="M54.28,25.72c-0.01,0-0.01-0.01-0.02-0.01c-0.08-0.05-0.11-0.15-0.06-0.23c4.45-7.43,9.2-21.73,9.25-21.88
				c0.03-0.09,0.13-0.13,0.21-0.11c0.09,0.03,0.13,0.12,0.11,0.21c-0.05,0.14-4.81,14.48-9.28,21.94
				C54.44,25.72,54.35,25.75,54.28,25.72z"/>
			<path class="st78" d="M55.14,24.36c-0.06-0.02-0.08-0.08-0.06-0.14c0.02-0.06,0.09-0.09,0.14-0.06
				c0.08,0.03,8.25,3.05,16.15-3.08c0.05-0.04,0.12-0.03,0.16,0.02c0.04,0.05,0.03,0.12-0.02,0.16
				C63.51,27.47,55.23,24.4,55.14,24.36C55.15,24.36,55.15,24.36,55.14,24.36z"/>
			<path class="st78" d="M55.01,24.23c-8.22-1.95-8.68-13.62-8.69-13.74c0-0.06-0.05-0.11-0.11-0.12c-0.06-0.01-0.11,0.02-0.11,0.08
				c0,0.03,0.11,3.02,1.24,6.21c1.05,2.95,2.65,5.15,4.7,6.49c0.9,0.59,1.89,1.02,2.96,1.27c0.06,0.02,0.11-0.02,0.12-0.07
				C55.12,24.3,55.07,24.25,55.01,24.23z"/>
			<path class="st78" d="M61.84,34.37c-4.21-1.77-6.71-9.61-6.83-9.98c-0.02-0.06,0.01-0.12,0.07-0.14
				c0.06-0.02,0.12,0.01,0.14,0.07c0.03,0.1,3.12,9.78,8,10.17c0.06,0.01,0.11,0.06,0.1,0.12c0,0.06-0.06,0.11-0.12,0.1
				C62.73,34.68,62.27,34.56,61.84,34.37z"/>
			<path class="st78" d="M55.03,24.15c-6.42,2.88-13.34,1.02-13.41,1c-0.06-0.02-0.12,0.02-0.14,0.08
				c-0.01,0.06,0.01,0.12,0.06,0.13c0,0,0.01,0,0.02,0c0.07,0.02,7.06,1.91,13.56-1c0.06-0.03,0.08-0.1,0.06-0.15
				C55.16,24.15,55.09,24.12,55.03,24.15z"/>
			<path class="st78" d="M56.83,20.23c-2.14-0.9-4.31-10.46-4.4-10.87c-0.01-0.06,0.02-0.12,0.08-0.13
				c0.06-0.01,0.12,0.02,0.13,0.08c0.02,0.1,2.3,10.14,4.36,10.75c0.06,0.02,0.09,0.08,0.07,0.14c-0.02,0.06-0.08,0.09-0.13,0.08
				C56.9,20.26,56.86,20.24,56.83,20.23z"/>
			<path class="st78" d="M58.85,16.38c-0.01-0.01-0.03-0.02-0.04-0.02c-1.53-1.54-3.19-7.94-3.26-8.21
				c-0.01-0.06,0.02-0.12,0.08-0.13c0.06-0.01,0.12,0.02,0.14,0.08c0.02,0.06,1.71,6.6,3.2,8.1c0.04,0.04,0.04,0.12,0,0.16
				C58.94,16.39,58.89,16.39,58.85,16.38z"/>
			<path class="st78" d="M60.98,10.93c-0.01,0-0.02-0.02-0.03-0.02c-1.29-2.54-1.28-4.87-1.28-4.89c0-0.03,0.03-0.06,0.06-0.06
				c0.03,0,0.05,0.02,0.05,0.06c0,0.02-0.01,2.33,1.27,4.83c0.01,0.03,0,0.06-0.02,0.08C61.01,10.94,61,10.94,60.98,10.93z"/>
			<path class="st78" d="M57.27,20.41c1.87,0.79,9.58-4.6,9.91-4.83c0.05-0.04,0.07-0.1,0.05-0.15c-0.03-0.05-0.08-0.06-0.13-0.03
				c-0.08,0.06-8.18,5.73-9.8,4.78c-0.05-0.03-0.11,0-0.13,0.05c-0.03,0.05-0.02,0.12,0.03,0.15C57.21,20.39,57.24,20.4,57.27,20.41
				z"/>
			<path class="st78" d="M58.73,16.42c0.01,0.01,0.02,0.01,0.04,0.01c1.86-0.06,6.89-3.29,7.11-3.43c0.05-0.03,0.07-0.1,0.04-0.15
				c-0.03-0.04-0.08-0.06-0.13-0.03c-0.05,0.03-5.2,3.35-7.01,3.41c-0.05,0-0.1,0.04-0.1,0.1C58.68,16.37,58.7,16.41,58.73,16.42z"
				/>
			<path class="st78" d="M61.05,10.96c0.01,0,0.02,0,0.03-0.01c2.18-1.19,3.67-3.06,3.68-3.08c0.02-0.02,0.03-0.06,0.01-0.08
				c-0.02-0.02-0.04-0.01-0.06,0.01c-0.02,0.02-1.48,1.87-3.64,3.05c-0.03,0.02-0.04,0.05-0.04,0.08
				C61.03,10.95,61.04,10.96,61.05,10.96z"/>
			<path class="st78" d="M46.94,16.12c-2.29-0.97-3.58-3.27-3.59-3.29c-0.02-0.03,0-0.06,0.02-0.08c0.03-0.02,0.06,0,0.08,0.02
				c0.01,0.02,1.36,2.43,3.74,3.32c0.03,0.01,0.04,0.04,0.03,0.08c-0.01,0.02-0.04,0.04-0.07,0.03C47.07,16.17,47,16.14,46.94,16.12
				z"/>
			<path class="st78" d="M48.73,20.01c-3.44-1.46-5.78-4.55-5.8-4.58c-0.02-0.03-0.01-0.06,0.01-0.08c0.02-0.02,0.06-0.02,0.08,0.01
				c0.02,0.03,2.46,3.25,6.01,4.64h0c0.03,0.02,0.04,0.04,0.03,0.07c-0.01,0.03-0.04,0.04-0.07,0.04
				C48.9,20.08,48.81,20.05,48.73,20.01z"/>
			<path class="st78" d="M52.16,23.14c-6.36-0.87-9.42-4.27-9.45-4.3c-0.02-0.02-0.06-0.02-0.08-0.01
				c-0.02,0.02-0.03,0.06-0.01,0.08c0.02,0.02,1.54,1.71,4.64,3.02c1.33,0.56,2.96,1.06,4.88,1.32c0.03,0,0.06-0.02,0.06-0.04
				C52.21,23.18,52.19,23.15,52.16,23.14z"/>
			<path class="st78" d="M48.13,18.42c-0.02-0.01-0.03-0.02-0.03-0.04c-0.6-2.63,1.01-5.38,1.02-5.41c0.02-0.03,0.05-0.03,0.08-0.02
				c0.03,0.01,0.04,0.05,0.02,0.08c-0.02,0.02-1.6,2.74-1.02,5.32c0.01,0.03-0.01,0.06-0.04,0.07
				C48.15,18.43,48.13,18.43,48.13,18.42z"/>
			<path class="st78" d="M62.67,27.85c-1.53-0.65-3.31-1.57-5.15-2.87c-0.03-0.02-0.03-0.05-0.01-0.08
				c0.02-0.03,0.05-0.03,0.08-0.01c5.02,3.54,9.67,4.27,9.72,4.27c0.03,0,0.05,0.03,0.05,0.06c0,0.03-0.03,0.05-0.06,0.05
				C67.25,29.27,65.35,28.98,62.67,27.85z"/>
			<path class="st78" d="M65.56,25.96c-1.24-0.52-2.04-1.16-2.06-1.17c-0.02-0.02-0.03-0.05-0.01-0.08
				c0.02-0.02,0.06-0.02,0.08-0.01c0.03,0.02,3.31,2.64,6.91,1.58c0.03-0.01,0.06,0.01,0.07,0.04c0.01,0.03-0.01,0.06-0.04,0.07
				C68.64,26.94,66.86,26.52,65.56,25.96z"/>
			<path class="st78" d="M67.72,24.27c-0.52-0.22-0.82-0.44-0.83-0.45c-0.03-0.02-0.03-0.05-0.01-0.08
				c0.02-0.03,0.05-0.03,0.08-0.02c0.02,0.02,1.9,1.42,4.41,0.58c0.03-0.01,0.06,0.01,0.07,0.04c0.01,0.03-0.01,0.06-0.03,0.07
				C69.85,24.94,68.53,24.61,67.72,24.27z"/>
			<path class="st78" d="M62.12,24.91c0,0-0.01,0-0.01,0c-0.02-0.02-0.03-0.05-0.01-0.08c2.08-2.71,5.8-4.95,5.83-4.97
				c0.03-0.02,0.06-0.01,0.08,0.02c0.01,0.03,0.01,0.06-0.02,0.08c-0.04,0.02-3.74,2.25-5.8,4.95
				C62.17,24.92,62.14,24.92,62.12,24.91z"/>
			<path class="st78" d="M56.3,27.36c-0.03-0.01-0.06,0.01-0.07,0.04c-0.01,0.04-0.95,3.94,0.48,7.25c0.05,0.02,0.11,0.05,0.15,0.08
				c-1.49-3.3-0.54-7.25-0.53-7.3C56.35,27.4,56.33,27.37,56.3,27.36z"/>
			<path class="st78" d="M60.94,36.02C60.94,36.02,60.93,36.02,60.94,36.02c-3.11-1.7-2.75-4.89-2.75-4.93
				c0-0.03,0.03-0.05,0.06-0.05c0.03,0,0.05,0.03,0.05,0.06c0,0.03-0.34,3.14,2.69,4.81c0.03,0.02,0.04,0.05,0.02,0.08
				C60.99,36.02,60.96,36.03,60.94,36.02z"/>
			<path class="st78" d="M57.76,30.15c-0.02-0.01-0.03-0.02-0.04-0.05c0-0.04,0.03-0.06,0.06-0.06c0.07,0,1.88-0.01,6.45,2.31
				c0.03,0.02,0.04,0.05,0.03,0.08c-0.02,0.02-0.05,0.04-0.08,0.02c-4.54-2.31-6.38-2.29-6.4-2.29
				C57.78,30.16,57.77,30.15,57.76,30.15z"/>
			<path class="st78" d="M52.73,25.14c0.01-0.03,0.01-0.06-0.02-0.08s-0.06-0.01-0.08,0.02c-0.02,0.03-1.16,1.84-3.09,3.3
				c0.03,0.02,0.07,0.04,0.11,0.06C51.57,26.97,52.71,25.17,52.73,25.14z"/>
			<path class="st78" d="M48.98,25.87c0.02-0.02,0.02-0.06-0.01-0.08c-0.03-0.02-0.06-0.02-0.08,0c-0.02,0.03-2.02,2.45-5.32,1.43
				c-0.03-0.01-0.06,0.01-0.07,0.04c-0.01,0.03,0.01,0.06,0.03,0.07c0,0,0,0,0.01,0c0.47,0.15,0.92,0.22,1.34,0.25
				c0.47-0.1,0.95-0.14,1.43-0.12C48,27.05,48.97,25.88,48.98,25.87z"/>
			<path class="st78" d="M44.88,27.57c0.52,0.03,1-0.02,1.43-0.12C45.82,27.44,45.34,27.48,44.88,27.57z"/>
			<path class="st78" d="M50.86,25.51c0,0.01,0.01,0.01,0.02,0.01c0.02,0.01,0.04,0,0.06-0.01c0.02-0.02,0.02-0.06,0.01-0.08
				c-0.05-0.05-1.15-1.29-5.53-2.76c-0.03-0.01-0.06,0-0.07,0.04c-0.01,0.03,0,0.06,0.03,0.07C49.74,24.23,50.85,25.49,50.86,25.51z
				"/>
		</g>
	</g>
</g>
<g id="Слой_2">
</g>
<g id="Слой_4">
</g>
<g id="Слой_3">
</g>
</svg>
