<?xml version="1.0" encoding="utf-8"?>
<!-- Generator: Adobe Illustrator 23.1.0, SVG Export Plug-In . SVG Version: 6.00 Build 0)  -->
<svg version="1.1" xmlns="http://www.w3.org/2000/svg" xmlns:xlink="http://www.w3.org/1999/xlink" x="0px" y="0px"
	 viewBox="0 0 80 80" style="enable-background:new 0 0 80 80;" xml:space="preserve">
<style type="text/css">
	.st0{fill:#6F8653;}
	.st1{fill:#EBB044;}
	.st2{fill:#EEC27E;}
	.st3{fill:#DBA44B;}
	.st4{fill:#725846;}
	.st5{fill:#E8CA48;}
	.st6{fill:#F2DC7D;}
	.st7{fill:#CDB44D;}
	.st8{fill:#F8F8E1;}
	.st9{fill:#E4D049;}
	.st10{fill:#EDDC60;}
	.st11{fill:#E7E474;}
	.st12{fill:#809764;}
	.st13{fill:#46684B;}
	.st14{fill:#4D724F;}
	.st15{fill:#7D8E54;}
	.st16{fill:#4E7553;}
	.st17{fill:#456449;}
	.st18{fill:#415E46;}
	.st19{fill:#D6E06F;}
	.st20{fill:#A46246;}
	.st21{fill:#A97361;}
	.st22{fill:#6D8A56;}
	.st23{fill:#DB7B43;}
	.st24{fill:#EDB862;}
	.st25{fill:#DD8347;}
	.st26{fill:#E09A79;}
	.st27{fill:#D76B43;}
	.st28{fill:#C66849;}
	.st29{fill:#8E8079;}
	.st30{fill:#D98065;}
	.st31{fill:#C56647;}
	.st32{fill:#EFD9BA;}
	.st33{fill:#D45D45;}
	.st34{fill:#DD8075;}
	.st35{fill:#DAC6AD;}
	.st36{fill:#657F51;}
	.st37{fill:#556946;}
	.st38{fill:#7D9657;}
	.st39{fill:#7B706B;}
	.st40{fill:#93A47A;}
	.st41{fill:#6A7E4F;}
	.st42{fill:#E7E5D1;}
	.st43{fill:#CFD26A;}
	.st44{fill:#EDF0BC;}
	.st45{fill:#B6AA50;}
	.st46{fill:#A39C74;}
	.st47{fill:#D1C474;}
	.st48{fill:#93854C;}
	.st49{fill:#867B4A;}
	.st50{fill:#291D10;}
	.st51{fill:#AA9B50;}
	.st52{fill:#E5D263;}
	.st53{fill:#DC7F44;}
	.st54{fill:#E0956D;}
	.st55{fill:#EAAB44;}
	.st56{fill:#8CAC59;}
	.st57{fill:#657E4F;}
	.st58{fill:#97A779;}
	.st59{fill:#D14A4A;}
	.st60{fill:#97C35A;}
	.st61{fill:#89A559;}
	.st62{fill:#CB7A5E;}
	.st63{fill:#BE725E;}
	.st64{fill:#B16955;}
	.st65{fill:#D18D7D;}
	.st66{fill:#5D4837;}
	.st67{fill:#9C5B44;}
	.st68{fill:#D69747;}
	.st69{fill:#6A8E58;}
	.st70{fill:#80A071;}
	.st71{fill:#F1EB66;}
	.st72{fill:#EAC647;}
	.st73{fill:#F3EA8A;}
	.st74{fill:#CEA04A;}
	.st75{fill:#473321;}
	.st76{fill:#93AD7C;}
	.st77{fill:#EFD1A2;}
	.st78{fill:#91A87A;}
	.st79{fill:#6E8E42;}
	.st80{fill:#586889;}
	.st81{fill:#77859F;}
	.st82{fill:#83A25A;}
	.st83{fill:#B2C495;}
	.st84{fill:#947659;}
	.st85{fill:#4E6E4F;}
	.st86{fill:#524160;}
	.st87{fill:#3D3649;}
	.st88{fill:#6B5C7A;}
	.st89{fill:#2F3338;}
	.st90{fill:#212428;}
	.st91{fill:#282D32;}
	.st92{fill:#42484E;}
	.st93{fill:#252B2E;}
	.st94{fill:#6B3F3C;}
	.st95{fill:#645E57;}
	.st96{fill:#517E55;}
	.st97{fill:#2E4135;}
	.st98{fill:none;}
	.st99{fill:#6E8B70;}
	.st100{fill:#3D5545;}
	.st101{fill:#628A64;}
	.st102{fill:#F9F9E3;}
	.st103{fill:#D96F60;}
	.st104{fill:#C0645A;}
	.st105{fill:#543E2C;}
	.st106{fill:#7F4B49;}
	.st107{fill:#9E6345;}
	.st108{fill:#994D49;}
	.st109{fill:#A46A69;}
	.st110{fill:#8F5B42;}
	.st111{fill:#8E4948;}
	.st112{fill:#85986E;}
	.st113{fill:#6D7290;}
	.st114{fill:#626880;}
	.st115{fill:#9C9385;}
	.st116{fill:#F2D55A;}
	.st117{clip-path:url(#SVGID_2_);}
	.st118{fill:#E2AC54;}
	.st119{opacity:0.31;fill:#F9EFC5;}
	.st120{opacity:0.31;fill:#FFFBE9;}
	.st121{fill:#DDC862;}
	.st122{fill:#FFF3C2;}
	.st123{fill:#E8C046;stroke:#7A695F;stroke-width:0.15;stroke-miterlimit:10;}
	.st124{fill:#DBB248;}
	.st125{fill:#6F5753;}
	.st126{fill:#E8C046;stroke:#77655B;stroke-width:0.15;stroke-miterlimit:10;}
	.st127{fill:#83A15C;}
	.st128{fill:#698C3C;}
	.st129{fill:#809D5B;}
	.st130{fill:#4A6224;}
	.st131{fill:#85A55C;}
	.st132{fill:#506B26;}
	.st133{fill:#82A15B;}
	.st134{fill:#698958;}
	.st135{fill:#DD8344;}
	.st136{fill:#B56721;}
	.st137{fill:#C2463A;}
	.st138{fill:#CC6E64;}
	.st139{fill:#5EA817;}
	.st140{fill:#5F8F22;}
	.st141{fill:#C24F3C;}
	.st142{fill:#AB4A39;}
	.st143{fill:#BB413C;}
	.st144{fill:#EA7142;}
	.st145{fill:#ED835B;}
	.st146{fill:#E76D18;}
	.st147{fill:#56734E;}
	.st148{fill:#CBC797;}
	.st149{fill:#F1F0E1;}
	.st150{fill:#DBD9CA;}
	.st151{fill:#496042;}
	.st152{fill:#547534;}
	.st153{fill:#C0D591;}
	.st154{fill:#B3C483;}
	.st155{fill:#DFEAC1;}
	.st156{fill:#D5DDB8;}
	.st157{fill:#577F36;}
	.st158{fill:#4D6D2F;}
	.st159{fill:#4F6B32;}
	.st160{fill:#AAC654;}
	.st161{fill:#A0B252;}
	.st162{fill:#9B3743;}
	.st163{fill:#A34D5B;}
	.st164{fill:#75434B;}
	.st165{fill:#80333D;}
	.st166{fill:#722F3A;}
	.st167{fill:#8E424F;}
	.st168{fill:#A5273F;}
	.st169{fill:#9B2944;}
	.st170{fill:#93B250;}
	.st171{fill:#778950;}
	.st172{fill:#B1B297;}
	.st173{fill:#5D6B3E;}
	.st174{fill:#769328;}
	.st175{fill:#B9BC9D;}
	.st176{fill:#B4CE6E;}
	.st177{fill:#CCCEAF;}
	.st178{fill:#AEAF94;}
	.st179{fill:#E8C046;stroke:#7F6D62;stroke-width:0.15;stroke-miterlimit:10;}
	.st180{fill:#B7C661;}
	.st181{fill:#CED893;stroke:#ACB25F;stroke-width:0.5;stroke-miterlimit:10;}
	.st182{fill:#D79F4A;}
	.st183{clip-path:url(#SVGID_4_);}
	.st184{fill:#CDD98D;}
	.st185{fill:#FADA37;}
	.st186{fill:#CCB244;}
	.st187{fill:#FAE089;}
	.st188{fill:#FFED90;}
	.st189{fill:#ECDB6F;}
	.st190{fill:#FECF73;}
	.st191{fill:#CEA865;}
	.st192{fill:#EDDFCA;}
	.st193{fill:#EBDECA;}
	.st194{fill:#638408;}
	.st195{fill:#CE9F41;}
	.st196{fill:#F7BA23;}
	.st197{fill:#EAAE2A;}
	.st198{fill:#F2CE36;}
	.st199{fill:#F9D53D;}
	.st200{fill:#FCDA4F;}
	.st201{fill:#F7E289;}
	.st202{fill:#668F05;}
	.st203{fill:#597214;}
	.st204{fill:#8BA040;}
	.st205{fill:#7AA122;}
	.st206{fill:#95BB28;}
	.st207{fill:#E7F2A6;}
	.st208{fill:#C4CC75;}
	.st209{fill:#87A82C;}
	.st210{fill:#9FBF45;}
	.st211{fill:#728E25;}
	.st212{fill:#7D4E30;}
	.st213{fill:#3F5A2F;}
	.st214{fill:#4B7837;}
	.st215{fill:#85A93F;}
	.st216{fill:#693F26;}
	.st217{fill:#8C7668;}
	.st218{fill:#EDE9E6;}
	.st219{fill:#FFFDFC;}
	.st220{fill:#846F5C;}
	.st221{clip-path:url(#SVGID_6_);}
	.st222{fill:#B2A594;}
	.st223{fill:#E4DDD5;}
	.st224{fill:#A16D46;}
	.st225{fill:#9A8E42;}
	.st226{fill:#BBB061;}
	.st227{fill:#A08F41;}
	.st228{fill:#C1AD56;}
	.st229{opacity:0.7;}
	.st230{fill:#DACA7F;}
	.st231{fill:#EEE49F;}
	.st232{opacity:0.5;}
	.st233{fill:#FFF9D7;}
	.st234{fill:#7C7F32;}
	.st235{fill:#95A84C;}
	.st236{fill:#D8B45C;}
	.st237{fill:#FCC572;}
	.st238{fill:#FED49A;}
	.st239{fill:#C0782C;}
	.st240{fill:#D49430;}
	.st241{fill:#F5D19D;}
	.st242{opacity:0.35;}
	.st243{fill:#F9AFC9;}
	.st244{fill:#F9CDDE;}
	.st245{fill:#FFF3F8;}
	.st246{fill:#F4A2C3;}
	.st247{fill:#FFFFFF;}
	.st248{fill:#D7F2F9;}
	.st249{fill:#492743;}
	.st250{fill:#20131D;}
	.st251{fill:#685364;}
	.st252{fill:#748115;}
	.st253{fill:#A7B86A;}
</style>
<g id="Слой_1">
</g>
<g id="Слой_2">
</g>
<g id="Слой_4">
</g>
<g id="Слой_3">
	<g>
		<g>
			<g>
				<path class="st134" d="M55.09,17.67c-0.96,0.62-1.72,1.49-2.78,1.95c-0.96,0.42-2.06,0.49-2.98-0.06
					c0.73-1.27,1.21-2.71,1.18-4.12c1.14-0.94,2.05-2.17,2.74-3.45c0.92-1.7,1.81-3.92,1.24-5.86c-0.05-0.17-0.35-0.04-0.39,0.07
					c-0.43,1.27-0.6,2.61-1.04,3.88c-0.46,1.31-1.14,2.55-2,3.64c-0.21,0.26-0.43,0.52-0.66,0.77c-0.13-0.66-0.39-1.3-0.82-1.9
					c-0.86-1.18-2.3-1.85-3.75-1.59c-1.26,0.23-2.53,1.13-2.77,2.45c-0.26,1.45,0.85,2.72,2.11,3.25c1.36,0.57,2.91,0.27,4.16-0.43
					c0.03-0.02,0.06-0.04,0.1-0.06c-0.11,1.86-1.02,3.73-2.21,5.04c-0.93,1.03-2.09,1.86-3.36,2.42c-0.96,0.42-1.94,0.59-2.95,0.74
					c-0.25-1.45-0.61-2.89-1.1-4.29c-0.14-0.4-0.68-0.52-1.04-0.57c-1.18-0.15-2.61-0.06-3.58,0.73c-0.14,0.11-0.27,0.22-0.41,0.33
					c-0.25,0.21-0.73,0.6-0.61,1.01c1.16,4.11,1.73,8.39,1.3,12.65c-0.21,2.05-0.72,4.04-0.98,6.08c-0.11,0.85-0.13,1.78-0.12,2.64
					c0.02,0.93-0.41,1.79-0.3,2.72c0.05,0.47,1.26-0.08,1.41-0.22c0.97-0.91,1.57-2.06,2.42-3.06c0.75-0.88,1.45-2.05,1.92-3.1
					c0.77-1.73,1.12-3.61,1.32-5.49c0.49,0.7,1.01,1.38,1.55,2.05c0.55,0.67,1.14,1.35,1.85,1.86c0.84,0.6,1.87,0.92,2.85,1.2
					c0.37,0.11,1.09-0.1,1.05-0.58c-0.06-0.75-0.16-1.47-0.48-2.16c-0.35-0.75-0.96-1.4-1.49-2.03c-1.1-1.33-2.16-2.71-3.15-4.13
					c-0.64-0.93-1.35-1.8-2.04-2.69c-0.06-0.83-0.15-1.65-0.28-2.47c0.94-0.03,1.91-0.31,2.72-0.61c1.49-0.55,2.85-1.42,3.96-2.55
					c0.58-0.58,1.12-1.29,1.58-2.06c0.88,0.58,2.03,0.59,3.01,0.26c0.59-0.2,1.14-0.54,1.63-0.91c0.52-0.39,0.98-0.79,1.35-1.33
					C55.32,17.63,55.13,17.65,55.09,17.67z M47.64,16.22c-1.31,0.3-2.75-0.38-3.32-1.61c-0.59-1.27,0.22-2.75,1.63-2.95
					c1.38-0.19,2.64,1.03,3.13,2.21c0.2,0.48,0.29,0.99,0.34,1.5C48.88,15.76,48.29,16.07,47.64,16.22z"/>
			</g>
			<g>
				<g>
					<path class="st127" d="M37.04,28.99c0.08-0.22,0.19-0.45,0.23-0.69c0.04-0.22,0.03-0.45,0.04-0.67c0.01-0.45,0-0.89-0.04-1.34
						c-0.04-0.44-0.16-0.88-0.28-1.3c-0.12-0.39-0.31-0.87-0.55-1.2c-0.04-0.06-0.2,0-0.2,0.07c0.01,0.22,0.07,0.44,0.1,0.66
						c0.03,0.22,0.06,0.44,0.1,0.67c0.08,0.42,0.12,0.85,0.19,1.28c0.07,0.42,0.12,0.85,0.14,1.27c0.01,0.22,0,0.45,0.02,0.66
						c0.02,0.21,0.09,0.41,0.14,0.62C36.94,29.06,37.03,29.02,37.04,28.99L37.04,28.99z"/>
				</g>
			</g>
			<g>
				<g>
					<path class="st127" d="M37.59,20.74c-0.09,0.64,0.07,1.21,0.24,1.82c0.17,0.61,0.35,1.21,0.55,1.81
						c0.09,0.29,0.19,0.58,0.28,0.87c0.1,0.3,0.24,0.56,0.37,0.84c0.13,0.29,0.3,0.54,0.44,0.82c0.15,0.3,0.29,0.6,0.46,0.89
						c0.05,0.09,0.44-0.01,0.43-0.12c-0.03-0.33-0.1-0.65-0.14-0.98c-0.04-0.33-0.07-0.65-0.14-0.98c-0.06-0.28-0.09-0.55-0.18-0.82
						c-0.1-0.31-0.2-0.62-0.3-0.93c-0.19-0.58-0.39-1.15-0.6-1.72c-0.23-0.61-0.45-1.18-0.9-1.66
						C38.01,20.49,37.6,20.62,37.59,20.74L37.59,20.74z"/>
				</g>
			</g>
			<g>
				<g>
					<path class="st22" d="M70.48,19.71c0,0-0.01,0-0.01,0C70.47,19.7,70.48,19.7,70.48,19.71c0-0.01-0.01-0.01-0.04-0.01
						c-1.6-0.3-1.24-1.26-1.24-1.26c-1.65,0.42-0.64-0.6-0.64-0.6c-1.88,0.34-0.87-0.93-0.87-0.93c-1.43,0.57-0.83-0.3-0.83-0.3
						c-1.28,0.34-0.45-0.56-0.45-0.56l-0.86,0.11l0-0.45c-1.5,0.23-0.26-1.09-0.26-1.09l-0.75,0.3l0-0.71l-0.75,0.23l0-0.26
						c-0.71,0.19-1.2,0.9-1.2,0.9l-0.15-0.34c-1.16,2.74-1.91,1.62-1.91,1.62c-0.79-0.75,2.21-2.33,2.21-2.33
						c-0.79-0.15,0.55-1.2,0.55-1.2c-0.84,0.04-0.14-1.31-0.14-1.31c0.6-1.01-0.94-0.22-0.94-0.22l-0.19-0.45l-1.05,0.34l0-0.56
						c-0.45,0.15-1.09,0.49-1.09,0.49l-0.15-0.67c-0.56,0.34-1.12,1.05-1.12,1.05l-0.23-0.64l-0.6,0.68l-0.49-0.67
						c-0.52,1.31-1.16,0.89-1.16,0.89c0.57,2.23-0.14,2.23-0.14,2.23c-0.86,0.41-0.98-1.5-0.98-1.5c-0.3,0.75-0.71,0.05-0.71,0.05
						c-0.79-1.83-1.24,0.14-1.24,0.14c-0.72-0.52-0.53,0.6-0.53,0.6l-0.6,0c0.14,0.49,0.08,0.75-0.04,0.88
						c0.1,0.05,0.19,0.1,0.29,0.16c1.5,0.91,2.01,2.89,1.32,4.67c1.88-0.47,2.48,0.72,2.51,0.77c-0.03,0.06-0.78,1.56-3.26,0.53
						c-0.3,0.37-0.66,0.68-1.04,0.93c0.47,0.97,0.53,2.21,0.04,3.37c-0.08,0.18-0.16,0.35-0.26,0.51c-0.01,0.05-0.03,0.1-0.06,0.15
						c0,0,0.86-0.19,0.53,1.01l0.6,0c0,0-0.19,1.13,0.53,0.6c0,0,0.46,1.97,1.24,0.14c0,0,0.41-0.71,0.72,0.04
						c0,0,0.11-1.92,0.97-1.5c0,0,0.71-0.01,0.15,2.23c0,0,0.64-0.43,1.17,0.88l0.49-0.68l0.6,0.67l0.22-0.64
						c0,0,0.57,0.71,1.13,1.05l0.15-0.67c0,0,0.64,0.34,1.09,0.48l0-0.56l1.05,0.34l0.19-0.45c0,0,1.54,0.78,0.94-0.23
						c0,0-0.7-1.35,0.13-1.31c0,0-1.34-1.05-0.55-1.2c0,0-3.01-1.57-2.22-2.32c0,0,0.75-1.13,1.92,1.61l0.15-0.34
						c0,0,0.49,0.71,1.2,0.9l0-0.26l0.75,0.22l0-0.71l0.75,0.3c0,0-1.24-1.31,0.26-1.09l0-0.45l0.86,0.11c0,0-0.83-0.9,0.45-0.56
						c0,0-0.6-0.86,0.83-0.3c0,0-1.02-1.27,0.86-0.94c0,0-1.02-1.01,0.64-0.6c0,0-0.37-0.96,1.23-1.27
						C70.47,19.71,70.48,19.71,70.48,19.71z"/>
				</g>
				<g>
					<path class="st78" d="M56.22,19.74c0-0.01,0-0.01,0-0.01c0.01-0.05,0.06-0.09,0.11-0.08c4.9,0.68,13.46-0.02,13.55-0.03
						c0.05,0,0.1,0.04,0.1,0.09c0,0.05-0.03,0.1-0.09,0.1c-0.09,0.01-8.67,0.71-13.59,0.03C56.25,19.83,56.22,19.79,56.22,19.74z"/>
				</g>
				<g>
					<path class="st78" d="M57.12,19.89c0-0.03,0.03-0.06,0.06-0.06c0.03,0,0.07,0.03,0.07,0.06c0,0.05,0.24,5.01,5.22,7.79
						c0.03,0.02,0.04,0.06,0.03,0.09c-0.02,0.03-0.06,0.04-0.09,0.02C57.36,24.98,57.12,19.94,57.12,19.89
						C57.12,19.89,57.12,19.89,57.12,19.89z"/>
				</g>
				<g>
					<path class="st78" d="M57.16,19.79c-0.81-4.75,5.21-7.6,5.27-7.63c0.03-0.01,0.04-0.05,0.04-0.09
						c-0.01-0.04-0.04-0.05-0.07-0.04c-0.02,0.01-1.56,0.73-2.98,2.04c-1.31,1.21-2.11,2.54-2.36,3.91
						c-0.11,0.61-0.11,1.22-0.01,1.84c0.01,0.04,0.03,0.05,0.06,0.05C57.15,19.86,57.17,19.82,57.16,19.79z"/>
				</g>
				<g>
					<path class="st78" d="M53.36,25.64c-0.01-2.6,3.55-5.67,3.71-5.81c0.03-0.02,0.07-0.02,0.09,0.01
						c0.02,0.03,0.02,0.07-0.01,0.09c-0.05,0.04-4.44,3.82-3.55,6.47c0.01,0.04-0.01,0.07-0.04,0.08c-0.03,0.01-0.07,0-0.08-0.04
						C53.4,26.18,53.36,25.91,53.36,25.64z"/>
				</g>
				<g>
					<path class="st78" d="M57.21,19.78c-2.95-2.73-3.51-6.78-3.52-6.82c0-0.03-0.03-0.06-0.07-0.06c-0.03,0.01-0.06,0.03-0.06,0.06
						c0,0,0,0.01,0,0.01c0,0.04,0.58,4.13,3.55,6.89c0.03,0.02,0.07,0.02,0.09,0C57.24,19.85,57.24,19.81,57.21,19.78z"/>
				</g>
				<g>
					<path class="st78" d="M59.67,19.85c0-1.32,4.52-4.6,4.72-4.74c0.03-0.02,0.07-0.02,0.09,0.01c0.02,0.03,0.01,0.07-0.01,0.09
						c-0.05,0.03-4.81,3.47-4.67,4.69c0,0.03-0.02,0.06-0.06,0.07c-0.03,0-0.07-0.02-0.07-0.05C59.67,19.9,59.67,19.87,59.67,19.85z
						"/>
				</g>
				<g>
					<path class="st78" d="M62.14,20.05c0-0.01,0-0.02,0-0.02c0.47-1.15,3.45-3.45,3.58-3.55c0.03-0.02,0.07-0.01,0.09,0.01
						c0.02,0.03,0.02,0.07-0.01,0.09c-0.03,0.02-3.08,2.37-3.54,3.49c-0.01,0.03-0.05,0.05-0.08,0.03
						C62.16,20.1,62.14,20.08,62.14,20.05z"/>
				</g>
				<g>
					<path class="st78" d="M65.48,19.96c0-0.01,0-0.01,0.01-0.02c1.04-1.24,2.27-1.76,2.28-1.77c0.02-0.01,0.03,0,0.04,0.02
						c0.01,0.02,0,0.03-0.02,0.04c-0.01,0.01-1.22,0.52-2.25,1.75c-0.01,0.01-0.03,0.02-0.05,0.01
						C65.48,19.97,65.48,19.96,65.48,19.96z"/>
				</g>
				<g>
					<path class="st78" d="M59.67,20.12c0,1.16,4.55,4,4.75,4.12c0.03,0.02,0.07,0.01,0.09-0.01c0.02-0.03,0.02-0.06-0.01-0.08
						c-0.05-0.03-4.83-3.02-4.7-4.08c0-0.03-0.02-0.06-0.06-0.06c-0.03,0-0.07,0.02-0.07,0.05C59.67,20.09,59.67,20.1,59.67,20.12z"
						/>
				</g>
				<g>
					<path class="st78" d="M62.1,20c0,0.01,0,0.01,0,0.02c0.44,0.96,3.27,2.88,3.39,2.96c0.03,0.02,0.07,0.01,0.09-0.01
						c0.02-0.02,0.01-0.06-0.01-0.08c-0.03-0.02-2.92-1.98-3.35-2.92c-0.01-0.03-0.04-0.04-0.08-0.03
						C62.11,19.96,62.09,19.98,62.1,20z"/>
				</g>
				<g>
					<path class="st78" d="M65.48,20c0,0.01,0,0.01,0.01,0.01c1.11,0.88,2.43,1.24,2.44,1.24c0.02,0.01,0.04,0,0.05-0.01
						c0-0.01,0-0.02-0.02-0.03c-0.01,0-1.31-0.36-2.41-1.23c-0.01-0.01-0.03-0.01-0.05,0C65.48,19.99,65.48,19.99,65.48,20z"/>
				</g>
				<g>
					<path class="st78" d="M59.62,13.74c0-1.42,0.92-2.61,0.93-2.62c0.01-0.01,0.03-0.02,0.04-0.01c0.01,0.01,0.02,0.03,0,0.05
						c-0.01,0.01-0.97,1.25-0.91,2.71c0,0.02-0.01,0.03-0.03,0.03c-0.02,0-0.03-0.01-0.03-0.03C59.62,13.82,59.62,13.78,59.62,13.74
						z"/>
				</g>
				<g>
					<path class="st78" d="M57.97,15.55c0-2.13,1.1-4.05,1.11-4.07c0.01-0.02,0.03-0.02,0.04-0.01c0.02,0.01,0.02,0.03,0.01,0.04
						c-0.01,0.02-1.16,2.02-1.09,4.19l0,0c0,0.02-0.01,0.03-0.03,0.03s-0.03-0.01-0.03-0.03C57.98,15.66,57.97,15.6,57.97,15.55z"/>
				</g>
				<g>
					<path class="st78" d="M57.1,18.05c-0.97-3.54,0.14-5.9,0.15-5.92c0.01-0.01,0-0.03-0.01-0.04c-0.02-0.01-0.04,0-0.05,0.02
						c-0.01,0.02-0.55,1.19-0.55,3.11c0,0.83,0.11,1.79,0.4,2.86c0,0.02,0.02,0.03,0.04,0.02C57.09,18.08,57.1,18.07,57.1,18.05z"/>
				</g>
				<g>
					<path class="st78" d="M58.67,14.88c0-0.01,0-0.02,0.01-0.03c1.25-0.9,3.05-0.67,3.07-0.67c0.02,0,0.03,0.02,0.03,0.04
						c0,0.02-0.02,0.03-0.03,0.03c-0.02-0.01-1.8-0.23-3.02,0.66c-0.01,0.01-0.03,0.01-0.04-0.01
						C58.67,14.89,58.67,14.88,58.67,14.88z"/>
				</g>
				<g>
					<path class="st78" d="M56.97,24.62c0-0.95,0.08-2.09,0.35-3.34c0-0.02,0.02-0.03,0.04-0.02c0.02,0,0.03,0.02,0.02,0.04
						c-0.74,3.43-0.08,6.03-0.07,6.05c0,0.02-0.01,0.03-0.02,0.04c-0.02,0-0.03-0.01-0.04-0.02C57.25,27.34,56.98,26.28,56.97,24.62
						z"/>
				</g>
				<g>
					<path class="st78" d="M58.61,25.71c0-0.77,0.15-1.33,0.16-1.34c0.01-0.02,0.02-0.03,0.04-0.02c0.02,0,0.03,0.02,0.02,0.04
						c-0.01,0.02-0.64,2.33,0.71,3.98c0.01,0.01,0.01,0.03-0.01,0.04c-0.01,0.01-0.04,0.01-0.04,0
						C58.79,27.55,58.61,26.52,58.61,25.71z"/>
				</g>
				<g>
					<path class="st78" d="M59.98,26.47c0-0.32,0.05-0.53,0.05-0.53c0-0.02,0.02-0.03,0.04-0.02c0.02,0,0.03,0.02,0.03,0.04
						c0,0.01-0.32,1.31,0.68,2.44c0.01,0.01,0.01,0.03,0,0.04c-0.01,0.01-0.03,0.01-0.05,0C60.11,27.74,59.98,26.97,59.98,26.47z"/>
				</g>
				<g>
					<path class="st78" d="M58.39,23.67C58.39,23.67,58.39,23.67,58.39,23.67c0-0.02,0.02-0.03,0.04-0.03
						c1.88,0.49,3.9,1.94,3.91,1.95c0.02,0.01,0.02,0.03,0.01,0.04c-0.01,0.01-0.03,0.02-0.04,0.01c-0.02-0.01-2.02-1.46-3.9-1.94
						C58.4,23.7,58.39,23.69,58.39,23.67z"/>
				</g>
				<g>
					<path class="st78" d="M55.81,21.17c0-0.02-0.02-0.03-0.04-0.03c-0.03,0-2.28,0.38-3.7,1.87c0,0.03,0,0.07-0.01,0.1
						c1.4-1.52,3.68-1.9,3.71-1.91C55.8,21.2,55.81,21.19,55.81,21.17z"/>
				</g>
				<g>
					<path class="st78" d="M52.3,25.54C52.3,25.53,52.3,25.53,52.3,25.54c0.2-2.01,1.95-2.54,1.97-2.55c0.02,0,0.03,0.01,0.04,0.02
						c0.01,0.02,0,0.04-0.02,0.04c-0.02,0.01-1.73,0.52-1.92,2.49c0,0.02-0.02,0.03-0.04,0.03C52.31,25.56,52.3,25.55,52.3,25.54z"
						/>
				</g>
				<g>
					<path class="st78" d="M54.67,22.56c0-0.01,0-0.02,0.02-0.03c0.02-0.01,0.04,0,0.04,0.02c0.02,0.04,0.43,0.98,0.23,3.9
						c0,0.02-0.02,0.03-0.04,0.03c-0.02,0-0.03-0.02-0.03-0.04c0.2-2.9-0.22-3.86-0.22-3.87C54.67,22.57,54.67,22.56,54.67,22.56z"
						/>
				</g>
				<g>
					<path class="st78" d="M56.18,18.8c0.02,0,0.03-0.01,0.04-0.03c0-0.02-0.01-0.03-0.03-0.04c-0.02,0-1.23-0.2-2.42-0.88
						c0,0.02-0.01,0.05-0.01,0.07C54.96,18.6,56.16,18.79,56.18,18.8z"/>
				</g>
				<g>
					<path class="st78" d="M54.96,16.99c0.02,0.01,0.03,0,0.04-0.02c0-0.02,0-0.03-0.02-0.04c-0.02,0-1.73-0.51-1.94-2.48
						c0-0.02-0.02-0.03-0.03-0.03c-0.02,0-0.03,0.02-0.03,0.03c0,0,0,0,0,0c0.03,0.28,0.09,0.53,0.17,0.76
						c0.16,0.22,0.28,0.47,0.38,0.72C54.11,16.74,54.95,16.99,54.96,16.99z"/>
				</g>
				<g>
					<path class="st78" d="M53.14,15.22c0.1,0.28,0.24,0.52,0.38,0.72C53.43,15.68,53.3,15.44,53.14,15.22z"/>
				</g>
				<g>
					<path class="st78" d="M55.57,17.9c0,0,0,0.01,0,0.01c0,0.01,0.01,0.02,0.02,0.03c0.02,0.01,0.04,0,0.04-0.01
						c0.02-0.04,0.42-0.89,0.21-3.52c0-0.02-0.01-0.03-0.03-0.03c-0.02,0-0.03,0.01-0.03,0.03C55.98,17.02,55.57,17.89,55.57,17.9z"
						/>
				</g>
			</g>
		</g>
		<g>
			<path class="st135" d="M55.82,67.53L55.82,67.53C47.08,67.53,40,60.45,40,51.71v-5.2c0-8.74,7.08-15.82,15.82-15.82h0
				c8.74,0,15.82,7.08,15.82,15.82v5.2C71.64,60.45,64.55,67.53,55.82,67.53z"/>
		</g>
		<g>
			<path class="st135" d="M48.15,67.53L48.15,67.53c-8.74,0-15.82-7.08-15.82-15.82v-5.2c0-8.74,7.08-15.82,15.82-15.82h0
				c8.74,0,15.82,7.08,15.82,15.82v5.2C63.97,60.45,56.89,67.53,48.15,67.53z"/>
			<path class="st136" d="M48.15,68.03c-9,0-16.32-7.32-16.32-16.32v-5.2c0-9,7.32-16.32,16.32-16.32s16.32,7.32,16.32,16.32v5.2
				C64.47,60.71,57.15,68.03,48.15,68.03z M48.15,31.19c-8.45,0-15.32,6.87-15.32,15.32v5.2c0,8.45,6.87,15.32,15.32,15.32
				s15.32-6.87,15.32-15.32v-5.2C63.47,38.06,56.6,31.19,48.15,31.19z"/>
		</g>
		<g>
			<path class="st135" d="M24.69,67.53L24.69,67.53c-8.74,0-15.82-7.08-15.82-15.82v-5.2c0-8.74,7.08-15.82,15.82-15.82h0
				c8.74,0,15.82,7.08,15.82,15.82v5.2C40.51,60.45,33.43,67.53,24.69,67.53z"/>
		</g>
		<g>
			<path class="st135" d="M32.34,67.53L32.34,67.53c-8.74,0-15.82-7.08-15.82-15.82v-5.2c0-8.74,7.08-15.82,15.82-15.82h0
				c8.74,0,15.82,7.08,15.82,15.82v5.2C48.15,60.45,41.07,67.53,32.34,67.53z"/>
			<path class="st136" d="M32.34,68.03c-9,0-16.32-7.32-16.32-16.32v-5.2c0-9,7.32-16.32,16.32-16.32s16.32,7.32,16.32,16.32v5.2
				C48.65,60.71,41.33,68.03,32.34,68.03z M32.34,31.19c-8.45,0-15.32,6.87-15.32,15.32v5.2c0,8.45,6.87,15.32,15.32,15.32
				s15.32-6.87,15.32-15.32v-5.2C47.65,38.06,40.78,31.19,32.34,31.19z"/>
		</g>
		<g>
			<path class="st135" d="M41.4,67.53h-2.8c-5.8,0-10.5-4.7-10.5-10.5V41.19c0-5.8,4.7-10.5,10.5-10.5h2.8c5.8,0,10.5,4.7,10.5,10.5
				v15.84C51.9,62.83,47.2,67.53,41.4,67.53z"/>
			<path class="st136" d="M41.4,68.03h-2.8c-6.06,0-11-4.93-11-11V41.19c0-6.06,4.93-11,11-11h2.8c6.06,0,11,4.93,11,11v15.84
				C52.4,63.09,47.46,68.03,41.4,68.03z M38.6,31.19c-5.51,0-10,4.48-10,10v15.84c0,5.51,4.48,10,10,10h2.8c5.51,0,10-4.48,10-10
				V41.19c0-5.51-4.48-10-10-10H38.6z"/>
		</g>
	</g>
</g>
</svg>
