<?xml version="1.0" encoding="utf-8"?>
<!-- Generator: Adobe Illustrator 23.1.0, SVG Export Plug-In . SVG Version: 6.00 Build 0)  -->
<svg version="1.1" xmlns="http://www.w3.org/2000/svg" xmlns:xlink="http://www.w3.org/1999/xlink" x="0px" y="0px"
	 viewBox="0 0 80 80" style="enable-background:new 0 0 80 80;" xml:space="preserve">
<style type="text/css">
	.st0{fill:#6F8653;}
	.st1{fill:#EBB044;}
	.st2{fill:#EEC27E;}
	.st3{fill:#DBA44B;}
	.st4{fill:#725846;}
	.st5{fill:#E8CA48;}
	.st6{fill:#F2DC7D;}
	.st7{fill:#CDB44D;}
	.st8{fill:#F8F8E1;}
	.st9{fill:#E4D049;}
	.st10{fill:#EDDC60;}
	.st11{fill:#E7E474;}
	.st12{fill:#809764;}
	.st13{fill:#46684B;}
	.st14{fill:#4D724F;}
	.st15{fill:#7D8E54;}
	.st16{fill:#4E7553;}
	.st17{fill:#456449;}
	.st18{fill:#415E46;}
	.st19{fill:#D6E06F;}
	.st20{fill:#A46246;}
	.st21{fill:#A97361;}
	.st22{fill:#6D8A56;}
	.st23{fill:#DB7B43;}
	.st24{fill:#EDB862;}
	.st25{fill:#DD8347;}
	.st26{fill:#E09A79;}
	.st27{fill:#D76B43;}
	.st28{fill:#C66849;}
	.st29{fill:#8E8079;}
	.st30{fill:#D98065;}
	.st31{fill:#C56647;}
	.st32{fill:#EFD9BA;}
	.st33{fill:#D45D45;}
	.st34{fill:#DD8075;}
	.st35{fill:#DAC6AD;}
	.st36{fill:#657F51;}
	.st37{fill:#556946;}
	.st38{fill:#7D9657;}
	.st39{fill:#7B706B;}
	.st40{fill:#93A47A;}
	.st41{fill:#6A7E4F;}
	.st42{fill:#E7E5D1;}
	.st43{fill:#CFD26A;}
	.st44{fill:#EDF0BC;}
	.st45{fill:#B6AA50;}
	.st46{fill:#A39C74;}
	.st47{fill:#D1C474;}
	.st48{fill:#93854C;}
	.st49{fill:#867B4A;}
	.st50{fill:#291D10;}
	.st51{fill:#AA9B50;}
	.st52{fill:#E5D263;}
	.st53{fill:#DC7F44;}
	.st54{fill:#E0956D;}
	.st55{fill:#EAAB44;}
	.st56{fill:#8CAC59;}
	.st57{fill:#657E4F;}
	.st58{fill:#97A779;}
	.st59{fill:#D14A4A;}
	.st60{fill:#97C35A;}
	.st61{fill:#89A559;}
	.st62{fill:#CB7A5E;}
	.st63{fill:#BE725E;}
	.st64{fill:#B16955;}
	.st65{fill:#D18D7D;}
	.st66{fill:#5D4837;}
	.st67{fill:#9C5B44;}
	.st68{fill:#D69747;}
	.st69{fill:#6A8E58;}
	.st70{fill:#80A071;}
	.st71{fill:#F1EB66;}
	.st72{fill:#EAC647;}
	.st73{fill:#F3EA8A;}
	.st74{fill:#CEA04A;}
	.st75{fill:#473321;}
	.st76{fill:#93AD7C;}
	.st77{fill:#EFD1A2;}
	.st78{fill:#91A87A;}
	.st79{fill:#6E8E42;}
	.st80{fill:#586889;}
	.st81{fill:#77859F;}
	.st82{fill:#83A25A;}
	.st83{fill:#B2C495;}
	.st84{fill:#947659;}
	.st85{fill:#4E6E4F;}
	.st86{fill:#524160;}
	.st87{fill:#3D3649;}
	.st88{fill:#6B5C7A;}
	.st89{fill:#2F3338;}
	.st90{fill:#212428;}
	.st91{fill:#282D32;}
	.st92{fill:#42484E;}
	.st93{fill:#252B2E;}
	.st94{fill:#6B3F3C;}
	.st95{fill:#645E57;}
	.st96{fill:#517E55;}
	.st97{fill:#2E4135;}
	.st98{fill:none;}
	.st99{fill:#6E8B70;}
	.st100{fill:#3D5545;}
	.st101{fill:#628A64;}
	.st102{fill:#F9F9E3;}
	.st103{fill:#D96F60;}
	.st104{fill:#C0645A;}
	.st105{fill:#543E2C;}
	.st106{fill:#7F4B49;}
	.st107{fill:#9E6345;}
	.st108{fill:#994D49;}
	.st109{fill:#A46A69;}
	.st110{fill:#8F5B42;}
	.st111{fill:#8E4948;}
	.st112{fill:#85986E;}
	.st113{fill:#6D7290;}
	.st114{fill:#626880;}
	.st115{fill:#9C9385;}
	.st116{fill:#F2D55A;}
	.st117{clip-path:url(#SVGID_2_);}
	.st118{fill:#E2AC54;}
	.st119{opacity:0.31;fill:#F9EFC5;}
	.st120{opacity:0.31;fill:#FFFBE9;}
	.st121{fill:#DDC862;}
	.st122{fill:#FFF3C2;}
	.st123{fill:#E8C046;stroke:#7A695F;stroke-width:0.15;stroke-miterlimit:10;}
	.st124{fill:#DBB248;}
	.st125{fill:#6F5753;}
	.st126{fill:#E8C046;stroke:#77655B;stroke-width:0.15;stroke-miterlimit:10;}
	.st127{fill:#83A15C;}
	.st128{fill:#698C3C;}
	.st129{fill:#809D5B;}
	.st130{fill:#4A6224;}
	.st131{fill:#85A55C;}
	.st132{fill:#506B26;}
	.st133{fill:#82A15B;}
	.st134{fill:#698958;}
	.st135{fill:#DD8344;}
	.st136{fill:#B56721;}
	.st137{fill:#C2463A;}
	.st138{fill:#CC6E64;}
	.st139{fill:#5EA817;}
	.st140{fill:#5F8F22;}
	.st141{fill:#C24F3C;}
	.st142{fill:#AB4A39;}
	.st143{fill:#BB413C;}
	.st144{fill:#EA7142;}
	.st145{fill:#ED835B;}
	.st146{fill:#E76D18;}
	.st147{fill:#56734E;}
	.st148{fill:#CBC797;}
	.st149{fill:#F1F0E1;}
	.st150{fill:#DBD9CA;}
	.st151{fill:#496042;}
	.st152{fill:#547534;}
	.st153{fill:#C0D591;}
	.st154{fill:#B3C483;}
	.st155{fill:#DFEAC1;}
	.st156{fill:#D5DDB8;}
	.st157{fill:#577F36;}
	.st158{fill:#4D6D2F;}
	.st159{fill:#4F6B32;}
	.st160{fill:#AAC654;}
	.st161{fill:#A0B252;}
	.st162{fill:#9B3743;}
	.st163{fill:#A34D5B;}
	.st164{fill:#75434B;}
	.st165{fill:#80333D;}
	.st166{fill:#722F3A;}
	.st167{fill:#8E424F;}
	.st168{fill:#A5273F;}
	.st169{fill:#9B2944;}
	.st170{fill:#93B250;}
	.st171{fill:#778950;}
	.st172{fill:#B1B297;}
	.st173{fill:#5D6B3E;}
	.st174{fill:#769328;}
	.st175{fill:#B9BC9D;}
	.st176{fill:#B4CE6E;}
	.st177{fill:#CCCEAF;}
	.st178{fill:#AEAF94;}
	.st179{fill:#E8C046;stroke:#7F6D62;stroke-width:0.15;stroke-miterlimit:10;}
	.st180{fill:#B7C661;}
	.st181{fill:#CED893;stroke:#ACB25F;stroke-width:0.5;stroke-miterlimit:10;}
	.st182{fill:#D79F4A;}
	.st183{clip-path:url(#SVGID_4_);}
	.st184{fill:#CDD98D;}
	.st185{fill:#FADA37;}
	.st186{fill:#CCB244;}
	.st187{fill:#FAE089;}
	.st188{fill:#FFED90;}
	.st189{fill:#ECDB6F;}
	.st190{fill:#FECF73;}
	.st191{fill:#CEA865;}
	.st192{fill:#EDDFCA;}
	.st193{fill:#EBDECA;}
	.st194{fill:#638408;}
	.st195{fill:#CE9F41;}
	.st196{fill:#F7BA23;}
	.st197{fill:#EAAE2A;}
	.st198{fill:#F2CE36;}
	.st199{fill:#F9D53D;}
	.st200{fill:#FCDA4F;}
	.st201{fill:#F7E289;}
	.st202{fill:#668F05;}
	.st203{fill:#597214;}
	.st204{fill:#8BA040;}
	.st205{fill:#7AA122;}
	.st206{fill:#95BB28;}
	.st207{fill:#E7F2A6;}
	.st208{fill:#C4CC75;}
	.st209{fill:#87A82C;}
	.st210{fill:#9FBF45;}
	.st211{fill:#728E25;}
	.st212{fill:#7D4E30;}
	.st213{fill:#3F5A2F;}
	.st214{fill:#4B7837;}
	.st215{fill:#85A93F;}
	.st216{fill:#693F26;}
	.st217{fill:#8C7668;}
	.st218{fill:#EDE9E6;}
	.st219{fill:#FFFDFC;}
	.st220{fill:#846F5C;}
	.st221{clip-path:url(#SVGID_6_);}
	.st222{fill:#B2A594;}
	.st223{fill:#E4DDD5;}
	.st224{fill:#A16D46;}
	.st225{fill:#9A8E42;}
	.st226{fill:#BBB061;}
	.st227{fill:#A08F41;}
	.st228{fill:#C1AD56;}
	.st229{opacity:0.7;}
	.st230{fill:#DACA7F;}
	.st231{fill:#EEE49F;}
	.st232{opacity:0.5;}
	.st233{fill:#FFF9D7;}
	.st234{fill:#7C7F32;}
	.st235{fill:#95A84C;}
	.st236{fill:#D8B45C;}
	.st237{fill:#FCC572;}
	.st238{fill:#FED49A;}
	.st239{fill:#C0782C;}
	.st240{fill:#D49430;}
	.st241{fill:#F5D19D;}
	.st242{opacity:0.35;}
	.st243{fill:#F9AFC9;}
	.st244{fill:#F9CDDE;}
	.st245{fill:#FFF3F8;}
	.st246{fill:#F4A2C3;}
	.st247{fill:#FFFFFF;}
	.st248{fill:#D7F2F9;}
	.st249{fill:#492743;}
	.st250{fill:#20131D;}
	.st251{fill:#685364;}
	.st252{fill:#748115;}
	.st253{fill:#A7B86A;}
</style>
<g id="Слой_1">
</g>
<g id="Слой_2">
</g>
<g id="Слой_4">
</g>
<g id="Слой_3">
	<g>
		<g>
			<g>
				<g>
					<g>
						<path class="st160" d="M44.48,37.08c0,0,1.46-5.66,5.98-5.44c0,0,4.06-3.88,7.09-1.88c0,0,2.77-3.27,5.26-1.72
							c0,0,3.48-0.33,4.29,1.72c0,0,4.78,1.07,5.16,5.31c0,0,2.66,1.79,1.79,3.26c0,0,1.96,2.39,1.03,3.59c0,0,3.37,2.83,2.34,4.95
							c0,0-0.71,3.48-2.72,3.37c0,0-1.9,5.27-6.63,3.59c0,0-1.58-1.63-2.99-0.33c0,0-3.75,0.98-3.48-2.5c0,0-2.96,0.6-2.84-2.5
							c0,0-2.72-0.16-2.31-2.01c0,0-3.77,2.01-4.1-1.41c0,0-4.46,3.15-4.57-0.82c0,0-2.5-0.59-2.07-3.37
							C45.73,40.89,42.83,43.65,44.48,37.08z"/>
						<path class="st161" d="M69.88,54.32c-0.59,0-1.21-0.11-1.85-0.34l-0.04-0.01l-0.03-0.03c-0.01-0.01-0.77-0.78-1.66-0.78
							c-0.4,0-0.77,0.16-1.1,0.46l-0.03,0.03l-0.04,0.01c-0.02,0.01-0.51,0.13-1.14,0.13c-0.87,0-1.55-0.25-1.99-0.72
							c-0.41-0.44-0.6-1.08-0.57-1.88c-0.1,0.01-0.23,0.02-0.38,0.02c-0.54,0-1.29-0.12-1.82-0.67c-0.42-0.44-0.63-1.07-0.63-1.89
							c-0.41-0.05-1.53-0.24-2.06-0.94c-0.2-0.27-0.3-0.59-0.28-0.94c-0.4,0.18-1.19,0.47-1.96,0.47l0,0
							c-0.82,0-1.82-0.33-2.06-1.88c-0.51,0.33-1.79,1.07-2.87,1.07l0,0c-0.74,0-1.64-0.36-1.72-2.04c-0.48-0.16-2.26-0.9-2.11-3.12
							c-0.24,0.17-0.58,0.36-0.9,0.36c-0.22,0-0.41-0.09-0.54-0.26c-0.43-0.55-0.35-1.97,0.24-4.32c0.01-0.06,1.49-5.57,5.88-5.57
							c0.06,0,0.13,0,0.2,0c0.39-0.36,2.77-2.45,5.21-2.45c0.7,0,1.34,0.18,1.91,0.52c0.41-0.44,2.03-2.09,3.85-2.09
							c0.53,0,1.02,0.14,1.48,0.41c0.08-0.01,0.25-0.01,0.48-0.01c0.94,0,3.19,0.17,3.89,1.77c0.64,0.17,4.8,1.42,5.2,5.36
							c0.41,0.29,2.55,1.9,1.83,3.34c0.34,0.44,1.76,2.4,1.05,3.58c0.59,0.53,3.23,3.02,2.28,5.03c-0.07,0.31-0.79,3.46-2.77,3.48
							C74.56,51.05,73.04,54.32,69.88,54.32L69.88,54.32z M68.17,53.69c0.59,0.21,1.16,0.31,1.71,0.31h0c3.27,0,4.67-3.78,4.68-3.81
							l0.04-0.11l0.12,0.01c0.03,0,0.06,0,0.08,0l0,0c1.79,0,2.46-3.21,2.47-3.24l0.01-0.04c0.97-1.98-2.26-4.72-2.3-4.75l-0.12-0.1
							l0.1-0.12c0.83-1.08-1.01-3.36-1.03-3.39l-0.07-0.09l0.06-0.1c0.78-1.32-1.72-3.03-1.75-3.04l-0.06-0.04l-0.01-0.08
							c-0.37-4.07-4.99-5.16-5.04-5.17l-0.08-0.02l-0.03-0.08c-0.59-1.48-2.73-1.64-3.62-1.64c-0.31,0-0.5,0.02-0.5,0.02l-0.05,0
							l-0.05-0.03c-0.42-0.26-0.87-0.39-1.35-0.39c-1.91,0-3.68,2.06-3.7,2.08l-0.09,0.11l-0.12-0.08
							c-0.55-0.36-1.17-0.54-1.85-0.54c-2.48,0-5.01,2.38-5.03,2.41l-0.05,0.05l-0.07,0c-4.34-0.22-5.8,5.27-5.81,5.32
							c-0.69,2.77-0.54,3.73-0.3,4.04c0.07,0.09,0.16,0.14,0.29,0.14c0.36,0,0.84-0.38,0.99-0.53l0.35-0.33l-0.07,0.48
							c-0.41,2.59,1.85,3.16,1.94,3.19l0.12,0.03l0,0.13c0.03,1.24,0.49,1.85,1.4,1.85l0,0c1.26,0,2.89-1.15,2.91-1.16l0.23-0.16
							l0.03,0.28c0.12,1.23,0.71,1.85,1.77,1.85l0,0c1.01,0,2.08-0.56,2.09-0.57l0.31-0.17l-0.08,0.35
							c-0.09,0.39-0.03,0.71,0.18,0.99c0.55,0.73,1.96,0.83,1.98,0.83l0.16,0.01l-0.01,0.16c-0.03,0.8,0.15,1.41,0.53,1.81
							c0.46,0.47,1.11,0.57,1.59,0.57c0.31,0,0.52-0.04,0.53-0.04l0.21-0.04l-0.02,0.21c-0.06,0.81,0.1,1.43,0.47,1.84
							c0.47,0.51,1.21,0.61,1.75,0.61c0.49,0,0.89-0.08,1.02-0.11c0.39-0.35,0.82-0.52,1.29-0.52
							C67.24,52.83,68.01,53.53,68.17,53.69z"/>
					</g>
					<g>
						<path class="st162" d="M31.05,39.29c0,0,18.28-8.75,40.16,6.3c0,0-24.28-12.27-39.08-3.65L31.05,39.29z"/>
						<path class="st163" d="M31.2,39.68c0,0,5.46-2.67,9.01-2.04c0,0-6.18,0.57-8.88,2.37L31.2,39.68z"/>
						<path class="st163" d="M31.83,40.43c0,0,3.48-2.16,6.88-1.94c0,0-4.25,0.52-6.88,2.11V40.43z"/>
						<path class="st163" d="M31.83,41.17c0,0,3.11-2.11,5.75-1.92c0,0-3.35,0.39-5.61,2.29L31.83,41.17z"/>
					</g>
					<path class="st162" d="M47.58,37.54c0,0,1.9-5.82,7.45-6.04c0,0-4.68,0.99-6.47,6.04H47.58z"/>
					<path class="st162" d="M52.96,38.16c0,0,1.82-7.71,9.12-7.87c0,0-6.05,0.96-8.61,8.18L52.96,38.16z"/>
					<path class="st162" d="M56.94,39.14c0,0,4.94-8.85,9.95-7.42c0,0-5.17,0.5-9.15,7.81L56.94,39.14z"/>
					<path class="st162" d="M61.92,40.89c0,0,3.22-6.98,8.85-5.34c0,0-4.93-0.38-8.2,5.62L61.92,40.89z"/>
					<path class="st162" d="M64.69,42.28c0,0,3.18-3.86,8.12-2.28c0,0-5.3-0.5-7.42,2.56L64.69,42.28z"/>
					<path class="st162" d="M47.58,37.82c0,0-0.46,5.91,3.34,7.38c0,0-2.96-2-2.66-7.16L47.58,37.82z"/>
					<path class="st162" d="M53.44,37.95c0,0-1.89,5.59,2.4,8.32c0,0-3.24-2.79-1.98-8.33L53.44,37.95z"/>
					<path class="st162" d="M57.65,39.26c0,0-1.07,8.83,3.12,10.2c0,0-3.33-2.85-2.36-10.1L57.65,39.26z"/>
					<path class="st162" d="M61.48,41.1c0,0-1.6,7.52,3.89,9.58c0,0-4.18-2.65-3.19-9.42L61.48,41.1z"/>
					<path class="st162" d="M64.52,42.11c0,0-0.04,5,4.76,6.96c0,0-4.38-3.02-4.05-6.73L64.52,42.11z"/>
				</g>
				<g>
					<g>
						<path class="st160" d="M34.82,30.79c0,0,0.5,1.57,1.72,0.91c0,0,0.29,2.03,1.06,1.16c0,0,0.95,0.7,1.12-0.34
							c0,0,1.3,1.72,1.97,0.45c0,0,2.55,0.32,1.5-1.38c0,0,2.13-0.53,1.08-2.23c0,0,2.96-1.83,0.62-4.03c0,0,2.25-0.54,1.28-2.13
							c0,0,1.09-1.37-0.31-1.97c0,0,0.86-1.54-0.19-1.83c0,0,1.31-2.06,0.29-2.27c0,0,0.35-1.85-0.89-1.37c0,0,0.7-1.2,0.04-1.55
							c0,0,1.41-1.3,0.31-1.71c0,0-0.21-2.86-1.34-2.77c0,0-1.83-2.18-3.63-1.07c0,0-1.2-0.85-1.74-0.15c0,0-1.05-0.29-1.44,0.26
							c0,0-2.04,0.67-2.37,2.08c0,0-2.15,1.07-2.02,2.51c0,0-1.79,0.92-1.41,2.49c0,0-1.6,0.85-0.95,2.26c0,0-1.99,1.53-1.06,2.31
							c0,0-1.56,1.93-0.04,3.09c0,0-0.96,1.17,0.25,2.15c0,0-0.8,1.86,0.49,2.23c0,0,0.03,1.75,1.33,0.62c0,0,1.77,1.06,1.69-0.71
							c0,0,0.44,2.69,1.8,1.97L34.82,30.79z"/>
						<path class="st161" d="M28.55,25.68c-0.25-0.22-0.42-0.46-0.51-0.72c-0.22-0.64,0.08-1.21,0.24-1.44
							c-0.25-0.21-0.43-0.47-0.53-0.75c-0.34-0.98,0.34-2.04,0.57-2.36c-0.07-0.08-0.13-0.17-0.16-0.27
							c-0.27-0.79,0.91-1.83,1.23-2.09c-0.01-0.03-0.02-0.06-0.03-0.09c-0.42-1.21,0.68-2,0.99-2.2c-0.27-1.41,1.09-2.3,1.42-2.5
							c-0.05-1.36,1.71-2.35,2.04-2.53c0.36-1.34,2.12-2,2.4-2.1c0.38-0.49,1.22-0.35,1.47-0.29c0.55-0.59,1.53-0.02,1.79,0.14
							c1.7-0.97,3.4,0.79,3.68,1.09c0.44,0,0.79,0.37,1.05,1.12c0.23,0.67,0.32,1.45,0.34,1.69c0.2,0.09,0.33,0.22,0.39,0.39
							c0.17,0.5-0.37,1.14-0.63,1.39c0.08,0.07,0.13,0.16,0.17,0.26c0.12,0.36-0.04,0.83-0.17,1.12c0.47-0.08,0.66,0.24,0.74,0.45
							c0.12,0.35,0.08,0.81,0.05,1.02c0.2,0.08,0.29,0.22,0.33,0.34c0.2,0.57-0.35,1.58-0.57,1.95c0.2,0.09,0.33,0.24,0.4,0.44
							c0.17,0.48-0.1,1.13-0.23,1.4c0.31,0.16,0.52,0.38,0.62,0.65c0.2,0.57-0.18,1.19-0.32,1.39c0.25,0.46,0.29,0.88,0.09,1.25
							c-0.27,0.54-0.94,0.82-1.29,0.94c0.32,0.34,0.55,0.68,0.67,1.04c0.53,1.51-0.96,2.68-1.37,2.97c0.28,0.51,0.32,0.97,0.12,1.37
							c-0.27,0.53-0.89,0.8-1.18,0.9c0.23,0.43,0.25,0.78,0.06,1.03c-0.36,0.49-1.39,0.43-1.68,0.41c-0.17,0.28-0.38,0.44-0.64,0.46
							c-0.53,0.05-1.08-0.49-1.34-0.78c-0.07,0.2-0.18,0.33-0.33,0.4c-0.3,0.13-0.67-0.05-0.83-0.15c-0.16,0.15-0.31,0.21-0.46,0.18
							c-0.22-0.05-0.4-0.28-0.55-0.7c-0.08-0.23-0.13-0.46-0.16-0.61c-0.31,0.13-0.6,0.14-0.86,0.03c-0.55-0.23-0.82-0.91-0.87-1.06
							l-0.75-0.95c-0.26,0.11-0.51,0.12-0.74,0.03c-0.37-0.16-0.68-0.59-0.92-1.27c-0.03-0.08-0.05-0.15-0.07-0.22
							c-0.06,0.17-0.16,0.29-0.29,0.38c-0.46,0.3-1.2-0.05-1.43-0.17c-0.36,0.3-0.66,0.41-0.91,0.33c-0.2-0.06-0.35-0.23-0.45-0.5
							c-0.07-0.19-0.09-0.39-0.1-0.5c-0.33-0.12-0.55-0.34-0.66-0.66C28.2,26.71,28.45,25.94,28.55,25.68z M29.3,27.86
							c0,0,0,0.27,0.09,0.51c0.07,0.2,0.17,0.32,0.29,0.35c0.18,0.05,0.44-0.06,0.76-0.34l0.06-0.05l0.07,0.04
							c0.23,0.14,0.91,0.45,1.26,0.21c0.19-0.12,0.27-0.4,0.26-0.81l0.23-0.03c0,0,0.06,0.38,0.21,0.81
							c0.15,0.42,0.4,0.97,0.79,1.13c0.19,0.08,0.4,0.06,0.63-0.06l0.08-0.04l0.88,1.12l0.02,0.03l0.01,0.02
							c0.02,0.07,0.26,0.72,0.74,0.92c0.24,0.1,0.52,0.07,0.81-0.09l0.14-0.08l0.03,0.17c0,0,0.06,0.38,0.18,0.72
							c0.11,0.32,0.25,0.52,0.37,0.55c0.09,0.02,0.19-0.04,0.31-0.18l0.07-0.08l0.08,0.06c0.11,0.08,0.46,0.28,0.69,0.18
							c0.13-0.06,0.21-0.21,0.25-0.44l0.04-0.27l0.16,0.21c0.19,0.26,0.8,0.91,1.28,0.87c0.2-0.02,0.36-0.15,0.5-0.41l0.04-0.07
							l0.08,0.01c0.34,0.04,1.27,0.07,1.55-0.31c0.14-0.19,0.09-0.49-0.16-0.89l-0.09-0.15l0.16-0.04c0.01,0,0.89-0.23,1.18-0.82
							c0.17-0.34,0.11-0.76-0.17-1.22l-0.07-0.11l0.11-0.07c0.02-0.01,1.9-1.2,1.37-2.74c-0.13-0.37-0.38-0.73-0.76-1.09l-0.17-0.16
							l0.22-0.05c0.01,0,1.02-0.25,1.34-0.87c0.16-0.31,0.12-0.67-0.13-1.07l-0.05-0.08l0.06-0.07c0.01-0.01,0.53-0.67,0.33-1.22
							c-0.08-0.23-0.28-0.42-0.6-0.56l-0.13-0.05l0.07-0.12c0.13-0.23,0.42-0.9,0.28-1.31c-0.06-0.17-0.19-0.28-0.39-0.34
							l-0.16-0.04l0.09-0.15c0.23-0.36,0.79-1.4,0.63-1.86c-0.04-0.12-0.13-0.19-0.27-0.21l-0.11-0.02l0.02-0.12
							c0-0.01,0.11-0.61-0.02-1c-0.07-0.19-0.21-0.42-0.71-0.23l-0.32,0.13l0.18-0.31c0.12-0.2,0.4-0.8,0.27-1.16
							c-0.03-0.1-0.1-0.17-0.19-0.22l-0.15-0.08l0.13-0.12c0.23-0.21,0.8-0.85,0.67-1.23c-0.04-0.11-0.15-0.2-0.32-0.27l-0.07-0.03
							l-0.01-0.08c0-0.01-0.07-0.94-0.34-1.7c-0.23-0.66-0.52-0.98-0.87-0.95l-0.06,0l-0.04-0.04c-0.02-0.02-1.79-2.09-3.49-1.05
							l-0.06,0.04L39.4,8.74c-0.01-0.01-1.12-0.78-1.59-0.17l-0.05,0.06L37.69,8.6c-0.01,0-0.98-0.26-1.32,0.21l-0.02,0.03
							l-0.04,0.01c-0.02,0.01-1.98,0.67-2.3,1.99l-0.01,0.06l-0.05,0.02c-0.02,0.01-2.07,1.05-1.95,2.39l0.01,0.09l-0.07,0.04
							c-0.02,0.01-1.7,0.9-1.34,2.35l0.02,0.1l-0.08,0.05c-0.01,0.01-1.37,0.75-0.96,1.94c0.02,0.05,0.04,0.11,0.07,0.16l0.04,0.09
							l-0.08,0.06c-0.41,0.32-1.43,1.27-1.23,1.87c0.03,0.09,0.09,0.17,0.18,0.24l0.1,0.08l-0.08,0.1c-0.01,0.01-0.95,1.2-0.6,2.2
							c0.09,0.27,0.28,0.51,0.54,0.71l0.1,0.08l-0.08,0.1c0,0.01-0.5,0.63-0.27,1.3c0.08,0.24,0.25,0.46,0.5,0.67l0.07,0.06
							l-0.04,0.09c0,0.01-0.39,0.91-0.17,1.53c0.09,0.27,0.28,0.44,0.58,0.53l0.08,0.02L29.3,27.86z"/>
					</g>
					<g>
						<path class="st162" d="M32.58,40.49c0,0,6.5-21.92,6.8-29.25c0,0-6.58,25.03-8.88,28.49L32.58,40.49z"/>
						<polygon class="st163" points="32.31,40.39 34.64,32.01 32.07,40.3 						"/>
						<polygon class="st163" points="31.82,39.89 34.12,32.67 31.4,40.06 						"/>
						<polygon class="st163" points="31.3,39.6 33.24,34.02 30.98,39.88 						"/>
					</g>
					<path class="st162" d="M35.04,28.8c0,0-4.72-2.61-4.7-7.82c0,0,0.67,5.25,4.95,7.36L35.04,28.8z"/>
					<path class="st162" d="M37.76,17.85c0,0-3.09-2.7-2.32-6.54c0,0-0.28,3.97,2.57,6.24L37.76,17.85z"/>
					<path class="st162" d="M38.47,14.5c0,0-2.23-2.36-1.35-5.29c0,0-0.49,3.08,1.57,5.08L38.47,14.5z"/>
					<path class="st162" d="M35.57,25.64c0,0-4.49-3.25-4.03-8.62c0,0,0.22,5.49,4.32,8.17L35.57,25.64z"/>
					<path class="st162" d="M36.83,22.15c0,0-4.08-3.81-3.02-9.08c0,0-0.41,5.47,3.35,8.67L36.83,22.15z"/>
					<path class="st162" d="M35.44,29.18c0,0,5.31,0.16,7.67-4.41c0,0-2.97,4.24-7.68,3.87L35.44,29.18z"/>
					<path class="st162" d="M38.05,18.2c0,0,3.93-0.77,5-4.52c0,0-1.57,3.62-5.09,4.12L38.05,18.2z"/>
					<path class="st162" d="M38.95,14.9c0,0,3.02-0.91,3.59-3.93c0,0-0.97,2.95-3.69,3.63L38.95,14.9z"/>
					<path class="st162" d="M36.41,26.14c0,0,5.41-0.52,7.45-5.45c0,0-2.69,4.68-7.5,4.91L36.41,26.14z"/>
					<path class="st162" d="M36.9,22.43c0,0,5.31-1.22,6.77-6.38c0,0-2.14,5-6.88,5.85L36.9,22.43z"/>
				</g>
				<g>
					<g>
						<path class="st160" d="M30.05,30.29c0,0,3.94-2.04,3.01-5.34c0,0,2.18-3.66,0.19-5.56c0,0,1.95-2.6,0.38-4.18
							c0,0-0.35-2.63-2-2.88c0,0-1.6-3.35-4.8-2.92c0,0-1.78-1.67-2.71-0.77c0,0-2.1-1.04-2.83-0.16c0,0-2.66-2.01-4.05-0.89
							c0,0-2.45,1.11-2.03,2.58c0,0-3.58,2.3-1.53,5.51c0,0,1.47,0.89,0.75,2.16c0,0-0.09,2.94,2.44,2.15c0,0,0.06,2.29,2.33,1.68
							c0,0,0.58,1.98,1.88,1.36c0,0-0.85,3.13,1.74,2.79c0,0-1.58,3.83,1.38,3.24c0,0,0.86,1.75,2.84,0.96
							C27.02,30.01,25.47,32.62,30.05,30.29z"/>
						<path class="st161" d="M13,14.44c-0.53-2.34,1.63-4.01,2.06-4.32c-0.32-1.47,1.89-2.53,2.11-2.63
							c1.32-1.04,3.61,0.48,4.1,0.83c0.75-0.72,2.44,0,2.82,0.17c0.94-0.77,2.49,0.54,2.78,0.79c2.98-0.37,4.61,2.49,4.84,2.94
							c1.3,0.25,1.81,1.88,1.97,2.58c0.04,0.17,0.06,0.3,0.07,0.36c0.28,0.29,0.47,0.64,0.55,1.02c0.31,1.35-0.63,2.83-0.89,3.2
							c0.35,0.36,0.59,0.81,0.71,1.33c0.41,1.8-0.73,3.92-0.93,4.26c0.01,0.05,0.02,0.1,0.04,0.14c0.74,3.24-3.08,5.27-3.12,5.29
							c-1.64,0.84-2.67,1.13-3.16,0.91c-0.15-0.07-0.25-0.19-0.29-0.36c-0.05-0.23,0.03-0.52,0.12-0.73
							c-1.61,0.48-2.46-0.7-2.66-1.03c-1.26,0.22-1.68-0.38-1.8-0.93h0c-0.18-0.8,0.15-1.87,0.3-2.3c-1.19,0.08-1.6-0.6-1.74-1.21v0
							c-0.13-0.57-0.05-1.2,0.02-1.53c-0.26,0.07-0.51,0.06-0.74-0.05c-0.61-0.27-0.94-1.07-1.05-1.37c-0.6,0.14-1.11,0.09-1.5-0.14
							c-0.5-0.3-0.71-0.84-0.8-1.23c-0.03-0.11-0.04-0.21-0.05-0.29c-0.59,0.16-1.09,0.12-1.49-0.1c-0.42-0.24-0.72-0.71-0.87-1.35
							c-0.11-0.46-0.1-0.85-0.09-0.86l0-0.03l0.01-0.03c0.17-0.3,0.22-0.6,0.16-0.89c-0.15-0.66-0.85-1.09-0.86-1.1l-0.03-0.01
							l-0.01-0.02C13.3,15.32,13.1,14.88,13,14.44C13,14.44,13,14.44,13,14.44z M14.71,16.83c0.08,0.35,0.02,0.7-0.17,1.04
							c0,0.1,0.01,0.41,0.09,0.77c0.09,0.4,0.29,0.93,0.75,1.19c0.37,0.21,0.85,0.22,1.44,0.04l0.16-0.05l0.01,0.16
							c0,0,0.01,0.17,0.06,0.4c0.08,0.35,0.26,0.82,0.69,1.08c0.36,0.22,0.84,0.25,1.43,0.09l0.12-0.03l0.03,0.12
							c0,0.01,0.31,1.04,0.95,1.32c0.24,0.11,0.49,0.09,0.76-0.04l0.24-0.12l-0.07,0.26c0,0.01-0.24,0.89-0.07,1.64h0
							c0.18,0.78,0.74,1.12,1.67,1L23,25.67l-0.08,0.2c-0.01,0.01-0.58,1.42-0.36,2.35c0,0,0,0,0,0c0.15,0.67,0.68,0.91,1.6,0.72
							l0.09-0.02L24.29,29c0.03,0.07,0.84,1.64,2.68,0.9l0.34-0.14l-0.19,0.31c-0.08,0.14-0.29,0.56-0.22,0.82
							c0.02,0.09,0.07,0.15,0.15,0.19c0.28,0.13,1.01,0.08,2.94-0.9c0.04-0.02,3.84-2.03,2.95-5.2l-0.01-0.05l0.03-0.05
							c0.01-0.02,1.35-2.3,0.93-4.13c-0.12-0.51-0.36-0.94-0.72-1.28l-0.08-0.08l0.07-0.09c0.01-0.02,1.24-1.67,0.91-3.09
							c-0.08-0.35-0.26-0.67-0.52-0.93l-0.03-0.03l-0.01-0.04c0,0-0.02-0.15-0.07-0.38c-0.15-0.66-0.63-2.21-1.82-2.4l-0.07-0.01
							l-0.03-0.06c-0.02-0.03-1.6-3.27-4.67-2.85l-0.06,0.01L26.75,9.5c-0.02-0.02-1.7-1.58-2.55-0.77l-0.06,0.06l-0.08-0.04
							c-0.02-0.01-2.02-0.99-2.68-0.19l-0.08,0.09l-0.09-0.07c-0.03-0.02-2.6-1.94-3.9-0.89L17.29,7.7
							c-0.02,0.01-2.28,1.05-1.98,2.37v0c0,0.02,0.01,0.04,0.02,0.06l0.03,0.09l-0.08,0.05c-0.03,0.02-2.58,1.69-2.03,4.11l0,0
							c0.09,0.4,0.27,0.81,0.52,1.21C13.9,15.68,14.55,16.14,14.71,16.83z"/>
					</g>
					<g>
						<path class="st162" d="M30.69,40.6c0,0,3.37-15-11.45-28.62c0,0,13.18,15.87,9.31,28.27L30.69,40.6z"/>
						<path class="st163" d="M30.38,40.54c0,0,1.05-4.49-0.02-7.01c0,0,0.62,4.67-0.25,6.96L30.38,40.54z"/>
						<path class="st163" d="M29.71,40.21c0,0,1.01-2.94,0.27-5.41c0,0,0.33,3.23-0.39,5.44L29.71,40.21z"/>
						<path class="st163" d="M29.16,40.33c0,0,1.04-2.65,0.45-4.57c0,0,0.28,2.54-0.74,4.54L29.16,40.33z"/>
					</g>
					<path class="st162" d="M29.18,28.08c0,0,3.98-2.39,3.2-6.53c0,0,0.06,3.62-3.37,5.81L29.18,28.08z"/>
					<path class="st162" d="M27.81,24.21c0,0,5.39-2.65,4.27-8.08c0,0,0.32,4.63-4.59,7.75L27.81,24.21z"/>
					<path class="st162" d="M26.41,21.43c0,0,5.71-5.15,3.8-8.61c0,0,0.51,3.91-4.23,8.08L26.41,21.43z"/>
					<path class="st162" d="M24.28,18.05c0,0,4.61-3.56,2.45-7.45c0,0,1.12,3.58-2.77,7.01L24.28,18.05z"/>
					<path class="st162" d="M22.78,16.23c0,0,2.31-3,0.31-6.38c0,0,1.26,3.83-0.64,5.92L22.78,16.23z"/>
					<path class="st162" d="M28.98,28.13c0,0-4.29,1.34-6.02-1.22c0,0,1.98,1.85,5.74,0.76L28.98,28.13z"/>
					<path class="st162" d="M27.89,23.81c0,0-3.81,2.34-6.55-0.37c0,0,2.61,1.92,6.49,0.05L27.89,23.81z"/>
					<path class="st162" d="M26.21,20.93c0,0-6.34,2.29-8.07-0.58c0,0,2.67,1.97,7.86,0.04L26.21,20.93z"/>
					<path class="st162" d="M24.2,18.41c0,0-5.28,2.46-7.74-1.25c0,0,2.67,2.64,7.5,0.77L24.2,18.41z"/>
					<path class="st162" d="M22.94,16.33c0,0-3.69,0.88-5.95-2.34c0,0,2.98,2.73,5.66,1.85L22.94,16.33z"/>
				</g>
				<g>
					<g>
						<path class="st160" d="M41.05,31.1c0,0-2.19,0.05-1.96-1.85c0,0-2.66,0.54-1.95-0.87c0,0-1.33-0.92-0.12-1.63
							c0,0-2.76-0.92-1.51-2.39c0,0-1.63-3.21,0.98-2.61c0,0-0.38-3.05,2.23-2.45c0,0,0.82-4.73,4.68-2.66c0,0-0.44-3.21,2.01-2.66
							c0,0,1.16-2.07,2.59-0.49c0,0,1.49-1.84,2.36-0.59c0,0,1.9-2.67,2.66-1.42c0,0,2.12-1.31,2.12,0.54c0,0,1.14-1.47,1.9-0.76
							c0,0,0.92-2.45,1.96-1.2c0,0,3.64-1.03,4.08,0.49c0,0,3.59,1.41,3.1,4.3c0,0,1.63,1.2,1.03,2.23c0,0,0.87,1.25,0.38,2.01
							c0,0,0.16,2.99-1.41,4.08c0,0-0.27,3.32-2.12,3.81c0,0-0.27,2.77-2.39,2.99c0,0-0.27,2.5-2.34,2.28c0,0-0.92,3.32-2.34,2.45
							c0,0-1.63,2.94-3.81,1.47c0,0-0.98,1.79-2.77,0.65c0,0-1.9,1.9-2.99,0.38c0,0-2.18,0.76-1.41-1.47c0,0-2.18-1.85,0.05-2.56
							c0,0-3.54,0.65-3.32-1.47L41.05,31.1z"/>
						<path class="st161" d="M48.48,37.95c-0.45,0-0.83-0.19-1.13-0.56c-0.14,0.04-0.4,0.1-0.67,0.1c-0.39,0-0.67-0.12-0.84-0.36
							c-0.21-0.3-0.22-0.74-0.03-1.35c-0.27-0.25-1.06-1.06-0.91-1.81c0.04-0.21,0.15-0.39,0.33-0.55c-0.1,0-0.2,0.01-0.31,0.01
							c-0.97,0-1.65-0.21-2.02-0.63c-0.23-0.26-0.34-0.59-0.33-0.98l-1.54-0.55c-0.21,0-1.18-0.04-1.73-0.66
							c-0.27-0.3-0.4-0.69-0.38-1.15c-0.2,0.03-0.51,0.07-0.83,0.07c-0.59,0-0.97-0.13-1.14-0.4c-0.11-0.18-0.12-0.41-0.01-0.69
							c-0.2-0.17-0.61-0.56-0.59-1.02c0.01-0.23,0.12-0.44,0.33-0.62c-0.48-0.21-1.42-0.69-1.62-1.4c-0.1-0.35-0.01-0.7,0.26-1.05
							c-0.17-0.37-0.74-1.7-0.32-2.4c0.23-0.37,0.66-0.5,1.31-0.39c-0.02-0.43,0.01-1.37,0.53-1.97c0.4-0.45,0.98-0.61,1.75-0.47
							c0.16-0.67,0.88-3.16,3.01-3.16c0.49,0,1.04,0.14,1.61,0.41c-0.03-0.5,0-1.51,0.53-2.12c0.37-0.42,0.9-0.57,1.59-0.45
							c0.19-0.29,0.76-1.06,1.56-1.06c0.38,0,0.75,0.17,1.1,0.52c0.27-0.29,0.94-0.95,1.62-0.95c0.28,0,0.53,0.11,0.74,0.33
							c0.36-0.47,1.34-1.65,2.13-1.65c0.17,0,0.39,0.05,0.58,0.28c0.25-0.13,0.79-0.4,1.28-0.4c0.3,0,0.78,0.11,0.92,0.77
							c0.29-0.3,0.8-0.73,1.3-0.73c0.14,0,0.28,0.03,0.4,0.1c0.2-0.45,0.72-1.46,1.42-1.46c0.23,0,0.46,0.11,0.67,0.33
							c0.32-0.08,1.31-0.32,2.26-0.32c1.05,0,1.69,0.29,1.89,0.87c0.51,0.22,3.52,1.67,3.14,4.35c0.33,0.26,1.51,1.3,1.05,2.29
							c0.19,0.3,0.77,1.33,0.36,2.06c0.01,0.41,0.05,3.04-1.42,4.13c-0.05,0.51-0.42,3.28-2.13,3.84c-0.08,0.52-0.53,2.73-2.4,3.01
							c-0.09,0.5-0.53,2.31-2.23,2.31c-0.04,0-0.09,0-0.13,0C59.27,32.96,58.56,35,57.45,35c-0.14,0-0.28-0.03-0.41-0.09
							c-0.28,0.45-1.26,1.83-2.64,1.83c-0.4,0-0.79-0.12-1.18-0.35c-0.21,0.3-0.77,0.97-1.67,0.97c-0.37,0-0.75-0.11-1.13-0.34
							C50.15,37.27,49.32,37.95,48.48,37.95z M47.47,37l0.07,0.1c0.25,0.35,0.56,0.52,0.94,0.52c0.87,0,1.8-0.91,1.81-0.92
							l0.09-0.09l0.11,0.07c0.37,0.24,0.73,0.35,1.07,0.35c0.95,0,1.47-0.94,1.48-0.95l0.09-0.16l0.15,0.1
							c0.38,0.25,0.76,0.38,1.14,0.38c1.42,0,2.42-1.78,2.43-1.8l0.08-0.15l0.14,0.09c0.13,0.08,0.26,0.12,0.39,0.12
							c0.84,0,1.52-1.79,1.71-2.47l0.04-0.13l0.14,0.01c0.08,0.01,0.16,0.01,0.23,0.01c1.67,0,1.92-2.13,1.93-2.15l0.01-0.13
							l0.13-0.01c1.96-0.2,2.24-2.82,2.25-2.84l0.01-0.11l0.11-0.03c1.72-0.45,2-3.63,2-3.66l0.01-0.08l0.06-0.04
							c1.48-1.02,1.35-3.91,1.34-3.94l0-0.05L67.45,19c0.42-0.66-0.37-1.82-0.38-1.83l-0.06-0.09l0.05-0.09
							c0.52-0.9-0.97-2-0.99-2.02L66,14.92l0.02-0.1c0.46-2.72-2.96-4.1-3-4.12l-0.08-0.03l-0.02-0.08
							c-0.14-0.47-0.68-0.71-1.61-0.71c-1.07,0-2.26,0.33-2.27,0.34l-0.1,0.03l-0.07-0.08c-0.16-0.2-0.33-0.3-0.48-0.3
							c-0.53,0-1.04,1.04-1.19,1.45l-0.09,0.23l-0.18-0.16c-0.11-0.1-0.23-0.15-0.36-0.15c-0.5,0-1.11,0.64-1.3,0.89l-0.29,0.38
							v-0.48c0-0.74-0.36-0.83-0.63-0.83c-0.55,0-1.24,0.42-1.24,0.42l-0.14,0.09l-0.09-0.14c-0.11-0.17-0.23-0.26-0.4-0.26
							c-0.65,0-1.66,1.22-2,1.68l-0.13,0.19l-0.13-0.19c-0.17-0.24-0.37-0.36-0.61-0.36c-0.58,0-1.27,0.7-1.49,0.97L48,13.73
							l-0.13-0.14c-0.33-0.36-0.66-0.54-0.98-0.54c-0.77,0-1.34,0.99-1.34,1l-0.06,0.11l-0.12-0.03c-0.62-0.14-1.08-0.03-1.39,0.32
							c-0.62,0.71-0.43,2.15-0.43,2.16l0.04,0.32l-0.28-0.15c-0.62-0.33-1.2-0.5-1.72-0.5c-2.17,0-2.71,3.02-2.72,3.05l-0.03,0.17
							l-0.17-0.04c-0.71-0.16-1.25-0.05-1.59,0.33c-0.59,0.66-0.44,1.92-0.44,1.94l0.03,0.23l-0.23-0.05c-0.61-0.14-1-0.07-1.17,0.2
							c-0.33,0.53,0.16,1.75,0.38,2.17l0.05,0.1l-0.07,0.08c-0.25,0.29-0.34,0.57-0.26,0.84c0.18,0.66,1.29,1.16,1.7,1.29l0.34,0.11
							l-0.31,0.18c-0.28,0.16-0.42,0.34-0.43,0.53c-0.01,0.35,0.4,0.71,0.56,0.82l0.12,0.08l-0.06,0.13
							c-0.11,0.22-0.13,0.39-0.06,0.49c0.1,0.16,0.4,0.24,0.86,0.24c0.49,0,0.97-0.1,0.98-0.1l0.22-0.05l-0.03,0.22
							c-0.05,0.46,0.04,0.84,0.29,1.11c0.48,0.54,1.4,0.56,1.5,0.56l0.03,0l0.04,0.01l1.81,0.64l-0.01,0.13
							c-0.04,0.36,0.04,0.64,0.24,0.86c0.39,0.43,1.18,0.52,1.78,0.52c0.6,0,1.1-0.09,1.11-0.09l0.08,0.32
							c-0.52,0.17-0.82,0.4-0.88,0.71c-0.12,0.57,0.6,1.33,0.88,1.57l0.08,0.07l-0.04,0.11c-0.19,0.54-0.2,0.94-0.05,1.16
							c0.1,0.15,0.3,0.22,0.57,0.22c0.34,0,0.68-0.12,0.68-0.12L47.47,37z"/>
					</g>
					<g>
						<path class="st162" d="M30.16,38.5c0,0,23.93-18.6,32.85-22.35c0,0-27.73,20.12-30.89,24.74L30.16,38.5z"/>
						<polygon class="st163" points="30.41,38.8 39.63,31.9 30.64,39.08 						"/>
						<polygon class="st163" points="31.26,39.22 39.06,32.88 31.26,39.84 						"/>
						<polygon class="st163" points="31.87,39.78 37.82,34.66 31.68,40.32 						"/>
					</g>
					<path class="st162" d="M43.4,29.91c0,0,5.53,5.02,11.96,2.61c0,0-6.81,1.52-11.51-3.15L43.4,29.91z"/>
					<path class="st162" d="M55.61,21.31c0,0,4.85,2.83,9.21,0.06c0,0-4.78,2.18-8.96-0.53L55.61,21.31z"/>
					<path class="st162" d="M59.4,18.84c0,0,4,1.85,7.2-0.64c0,0-3.57,2.06-7.04,0.26L59.4,18.84z"/>
					<path class="st162" d="M47.04,27.76c0,0,6.21,4.42,12.62,1.36c0,0-6.89,2.22-12.21-1.95L47.04,27.76z"/>
					<path class="st162" d="M50.75,24.5c0,0,6.7,3.63,12.7-0.19c0,0-6.57,3.04-12.35-0.45L50.75,24.5z"/>
					<path class="st162" d="M42.74,29.54c0,0-2.79-6.93,1.71-12.12c0,0-3.79,5.86-1.04,11.89L42.74,29.54z"/>
					<path class="st162" d="M55.04,21.08c0,0-0.97-5.53,3.14-8.66c0,0-3.7,3.72-2.62,8.59L55.04,21.08z"/>
					<path class="st162" d="M58.67,18.38c0,0-0.35-4.4,3.1-6.53c0,0-3.17,2.63-2.69,6.51L58.67,18.38z"/>
					<path class="st162" d="M46.02,26.88c0,0-1.99-7.36,3.11-12.31c0,0-4.47,5.69-2.41,12.13L46.02,26.88z"/>
					<path class="st162" d="M50.36,24.53c0,0-1.08-7.55,4.58-11.84c0,0-5.13,5.1-3.87,11.74L50.36,24.53z"/>
				</g>
			</g>
			<g>
				<path class="st164" d="M23.66,38.38c0,0,2.23-0.27,3.21-0.82c0,0,1.63-0.71,2.56,0.41c0,0,0.82,0.9,2.01,1.22
					c0,0,1.85,0.16,2.45,1.25c0,0,1.85,1.14,1.25,2.66l0.12,1.96l-12.03-5.93L23.66,38.38z"/>
				<g>
					<path class="st165" d="M29.17,39.44c-4.07-1.67-8.59-1.08-12.36,1.19v0c-3.98,2.22-6.05,5.33-7.03,8.5
						c-1.71,4.45-1.45,9.13,0.39,12.86l0,0v0c0.25,0.51,0.53,1,0.84,1.47l0,0c0,0,0,0,0,0c0.15,0.22,0.3,0.44,0.46,0.66
						c0.55,0.93,1.2,2.68-0.46,4.13c0,0-0.72,0.86-1.99,0c0,0-1.51-0.29-2.08,0.77c0,0,0,0.54,0.45,0.27c0,0,0.57-0.96,1.55,0
						c0,0,3.06,2.26,5.22-0.43c0,0,0.97-0.97,3.08-0.38v0c7.11,2.67,15.45-1.41,18.79-9.26C39.42,51.24,36.35,42.39,29.17,39.44z"/>
					<path class="st166" d="M36.39,46.97c0.51,3.81-0.2,7.95-2.27,11.76c-3.68,6.77-10.58,10.45-17.03,9.7
						c0.05,0.01,0.09,0.02,0.14,0.04l0,0c7.11,2.67,15.45-1.41,18.79-9.26C37.8,55.05,37.81,50.64,36.39,46.97z"/>
				</g>
				<path class="st167" d="M25.6,41.89c0.35,1.58-1.68,3.38-4.53,4.02c-2.86,0.64-5.46-0.12-5.81-1.69
					c-0.35-1.58,1.68-3.38,4.53-4.02C22.64,39.56,25.24,40.32,25.6,41.89z"/>
			</g>
		</g>
		<g>
			<path class="st165" d="M52.07,60.73c0.02-0.24,0.02-0.48-0.01-0.72c0,0,0,0,0,0c-0.27-2.27-2.67-4.14-2.67-4.14
				c-2.17-2.47-6.08-2.94-6.08-2.94c-9.27-1.09-12.47,2.48-12.47,2.48l0,0c-1.45,1.04-2.36,2.38-2.46,3.89
				c-0.01,0.07,0,0.14-0.01,0.2h0c0,0-0.19,7.65,3.1,10.28c0,0,3.09,4.09,10.83,3.82c0,0,4.81-0.62,7.25-4.55
				C49.56,69.06,52.07,66.32,52.07,60.73z"/>
			<path class="st166" d="M49.39,55.88c-2.17-2.47-6.08-2.94-6.08-2.94c-9.27-1.09-12.47,2.48-12.47,2.48l0,0
				c-1.45,1.04-2.36,2.38-2.46,3.89c-0.25,3.77,4.61,7.16,10.84,7.57c3.9,0.26,7.42-0.71,9.57-2.39l0,0
				C55.83,60.9,49.39,55.88,49.39,55.88z"/>
			<path class="st168" d="M49.08,56.01c-2.1-2.39-5.87-2.84-5.87-2.84c-8.95-1.05-12.04,2.4-12.04,2.4l0,0
				c-1.4,1-2.27,2.3-2.37,3.75c-0.24,3.64,4.45,6.91,10.47,7.31c3.77,0.25,7.17-0.68,9.24-2.31C55.29,60.86,49.08,56.01,49.08,56.01
				z"/>
			<g>
				<path class="st169" d="M47.94,56.5c-1.83-2.08-5.11-2.47-5.11-2.47c-7.8-0.92-10.48,2.09-10.48,2.09v0
					c-1.22,0.87-1.98,2-2.06,3.27c-0.21,3.17,3.87,6.02,9.12,6.36c3.28,0.22,6.24-0.6,8.05-2.01C53.35,60.72,47.94,56.5,47.94,56.5z
					 M46.13,63.1c-1.55,1.22-4.1,1.91-6.92,1.73c-4.51-0.3-8.01-2.75-7.83-5.47c0.07-1.09,0.73-2.06,1.77-2.81l0,0
					c0,0,2.31-2.58,9.01-1.79c0,0,2.82,0.34,4.39,2.13C46.55,56.89,51.2,60.51,46.13,63.1z"/>
			</g>
			<g>
				<path class="st169" d="M45.36,57.46c-1.19-1.42-3.35-1.67-3.35-1.67c-5.14-0.57-6.94,1.52-6.94,1.52v0
					c-0.81,0.61-1.32,1.4-1.39,2.27c-0.16,2.19,2.51,4.12,5.97,4.32c2.16,0.13,4.12-0.46,5.33-1.45
					C48.9,60.33,45.36,57.46,45.36,57.46z M44.11,62.03c-1.03,0.85-2.72,1.35-4.58,1.24c-2.97-0.17-5.27-1.84-5.13-3.71
					c0.06-0.75,0.49-1.43,1.19-1.95l0,0c0,0,1.54-1.8,5.96-1.31c0,0,1.86,0.21,2.88,1.43C44.44,57.73,47.48,60.2,44.11,62.03z"/>
			</g>
			<g>
				<path class="st169" d="M43.59,58.05c-0.76-0.91-2.15-1.07-2.15-1.07C38.15,56.62,37,57.96,37,57.96h0
					c-0.52,0.39-0.85,0.89-0.89,1.45c-0.1,1.4,1.61,2.64,3.82,2.77c1.39,0.08,2.64-0.29,3.41-0.93
					C45.86,59.89,43.59,58.05,43.59,58.05z M42.79,60.98c-0.66,0.54-1.74,0.87-2.93,0.8c-1.9-0.11-3.37-1.17-3.28-2.38
					c0.03-0.48,0.32-0.91,0.76-1.25v0c0,0,0.99-1.15,3.82-0.84c0,0,1.19,0.14,1.84,0.92C43,58.23,44.95,59.81,42.79,60.98z"/>
			</g>
			<path class="st169" d="M40.95,59.27c-0.15-0.17-0.41-0.2-0.41-0.2c-0.63-0.07-0.85,0.17-0.85,0.17l0,0
				c-0.1,0.07-0.16,0.16-0.17,0.26c-0.02,0.26,0.31,0.49,0.74,0.52c0.27,0.02,0.51-0.05,0.65-0.16
				C41.39,59.61,40.95,59.27,40.95,59.27z"/>
		</g>
	</g>
</g>
</svg>
