<?xml version="1.0" encoding="utf-8"?>
<!-- Generator: Adobe Illustrator 23.1.0, SVG Export Plug-In . SVG Version: 6.00 Build 0)  -->
<svg version="1.1" xmlns="http://www.w3.org/2000/svg" xmlns:xlink="http://www.w3.org/1999/xlink" x="0px" y="0px"
	 viewBox="0 0 80 80" style="enable-background:new 0 0 80 80;" xml:space="preserve">
<style type="text/css">
	.st0{fill:#6F8653;}
	.st1{fill:#EBB044;}
	.st2{fill:#EEC27E;}
	.st3{fill:#DBA44B;}
	.st4{fill:#725846;}
	.st5{fill:#E8CA48;}
	.st6{fill:#F2DC7D;}
	.st7{fill:#CDB44D;}
	.st8{fill:#F8F8E1;}
	.st9{fill:#E4D049;}
	.st10{fill:#EDDC60;}
	.st11{fill:#E7E474;}
	.st12{fill:#809764;}
	.st13{fill:#46684B;}
	.st14{fill:#4D724F;}
	.st15{fill:#7D8E54;}
	.st16{fill:#4E7553;}
	.st17{fill:#456449;}
	.st18{fill:#415E46;}
	.st19{fill:#D6E06F;}
	.st20{fill:#A46246;}
	.st21{fill:#A97361;}
	.st22{fill:#6D8A56;}
	.st23{fill:#DB7B43;}
	.st24{fill:#EDB862;}
	.st25{fill:#DD8347;}
	.st26{fill:#E09A79;}
	.st27{fill:#D76B43;}
	.st28{fill:#C66849;}
	.st29{fill:#8E8079;}
	.st30{fill:#D98065;}
	.st31{fill:#C56647;}
	.st32{fill:#EFD9BA;}
	.st33{fill:#D45D45;}
	.st34{fill:#DD8075;}
	.st35{fill:#DAC6AD;}
	.st36{fill:#657F51;}
	.st37{fill:#556946;}
	.st38{fill:#7D9657;}
	.st39{fill:#7B706B;}
	.st40{fill:#93A47A;}
	.st41{fill:#6A7E4F;}
	.st42{fill:#E7E5D1;}
	.st43{fill:#CFD26A;}
	.st44{fill:#EDF0BC;}
	.st45{fill:#B6AA50;}
	.st46{fill:#A39C74;}
	.st47{fill:#D1C474;}
	.st48{fill:#93854C;}
	.st49{fill:#867B4A;}
	.st50{fill:#291D10;}
	.st51{fill:#AA9B50;}
	.st52{fill:#E5D263;}
	.st53{fill:#DC7F44;}
	.st54{fill:#E0956D;}
	.st55{fill:#EAAB44;}
	.st56{fill:#8CAC59;}
	.st57{fill:#657E4F;}
	.st58{fill:#97A779;}
	.st59{fill:#D14A4A;}
	.st60{fill:#97C35A;}
	.st61{fill:#89A559;}
	.st62{fill:#CB7A5E;}
	.st63{fill:#BE725E;}
	.st64{fill:#B16955;}
	.st65{fill:#D18D7D;}
	.st66{fill:#5D4837;}
	.st67{fill:#9C5B44;}
	.st68{fill:#D69747;}
	.st69{fill:#6A8E58;}
	.st70{fill:#80A071;}
	.st71{fill:#F1EB66;}
	.st72{fill:#EAC647;}
	.st73{fill:#F3EA8A;}
	.st74{fill:#CEA04A;}
	.st75{fill:#473321;}
	.st76{fill:#93AD7C;}
	.st77{fill:#EFD1A2;}
	.st78{fill:#91A87A;}
	.st79{fill:#6E8E42;}
	.st80{fill:#586889;}
	.st81{fill:#77859F;}
	.st82{fill:#83A25A;}
	.st83{fill:#B2C495;}
	.st84{fill:#947659;}
	.st85{fill:#4E6E4F;}
	.st86{fill:#524160;}
	.st87{fill:#3D3649;}
	.st88{fill:#6B5C7A;}
	.st89{fill:#2F3338;}
	.st90{fill:#212428;}
	.st91{fill:#282D32;}
	.st92{fill:#42484E;}
	.st93{fill:#252B2E;}
	.st94{fill:#6B3F3C;}
	.st95{fill:#645E57;}
	.st96{fill:#517E55;}
	.st97{fill:#2E4135;}
	.st98{fill:none;}
	.st99{fill:#6E8B70;}
	.st100{fill:#3D5545;}
	.st101{fill:#628A64;}
	.st102{fill:#F9F9E3;}
	.st103{fill:#D96F60;}
	.st104{fill:#C0645A;}
	.st105{fill:#543E2C;}
	.st106{fill:#7F4B49;}
	.st107{fill:#9E6345;}
	.st108{fill:#994D49;}
	.st109{fill:#A46A69;}
	.st110{fill:#8F5B42;}
	.st111{fill:#8E4948;}
	.st112{fill:#85986E;}
	.st113{fill:#6D7290;}
	.st114{fill:#626880;}
	.st115{fill:#9C9385;}
	.st116{fill:#F2D55A;}
	.st117{clip-path:url(#SVGID_2_);}
	.st118{fill:#E2AC54;}
	.st119{opacity:0.31;fill:#F9EFC5;}
	.st120{opacity:0.31;fill:#FFFBE9;}
	.st121{fill:#DDC862;}
	.st122{fill:#FFF3C2;}
	.st123{fill:#E8C046;stroke:#7A695F;stroke-width:0.15;stroke-miterlimit:10;}
	.st124{fill:#DBB248;}
	.st125{fill:#6F5753;}
	.st126{fill:#E8C046;stroke:#77655B;stroke-width:0.15;stroke-miterlimit:10;}
	.st127{fill:#83A15C;}
	.st128{fill:#698C3C;}
	.st129{fill:#809D5B;}
	.st130{fill:#4A6224;}
	.st131{fill:#85A55C;}
	.st132{fill:#506B26;}
	.st133{fill:#82A15B;}
	.st134{fill:#698958;}
	.st135{fill:#DD8344;}
	.st136{fill:#B56721;}
	.st137{fill:#C2463A;}
	.st138{fill:#CC6E64;}
	.st139{fill:#5EA817;}
	.st140{fill:#5F8F22;}
	.st141{fill:#C24F3C;}
	.st142{fill:#AB4A39;}
	.st143{fill:#BB413C;}
	.st144{fill:#EA7142;}
	.st145{fill:#ED835B;}
	.st146{fill:#E76D18;}
	.st147{fill:#56734E;}
	.st148{fill:#CBC797;}
	.st149{fill:#F1F0E1;}
	.st150{fill:#DBD9CA;}
	.st151{fill:#496042;}
	.st152{fill:#547534;}
	.st153{fill:#C0D591;}
	.st154{fill:#B3C483;}
	.st155{fill:#DFEAC1;}
	.st156{fill:#D5DDB8;}
	.st157{fill:#577F36;}
	.st158{fill:#4D6D2F;}
	.st159{fill:#4F6B32;}
	.st160{fill:#AAC654;}
	.st161{fill:#A0B252;}
	.st162{fill:#9B3743;}
	.st163{fill:#A34D5B;}
	.st164{fill:#75434B;}
	.st165{fill:#80333D;}
	.st166{fill:#722F3A;}
	.st167{fill:#8E424F;}
	.st168{fill:#A5273F;}
	.st169{fill:#9B2944;}
	.st170{fill:#93B250;}
	.st171{fill:#778950;}
	.st172{fill:#B1B297;}
	.st173{fill:#5D6B3E;}
	.st174{fill:#769328;}
	.st175{fill:#B9BC9D;}
	.st176{fill:#B4CE6E;}
	.st177{fill:#CCCEAF;}
	.st178{fill:#AEAF94;}
	.st179{fill:#E8C046;stroke:#7F6D62;stroke-width:0.15;stroke-miterlimit:10;}
	.st180{fill:#B7C661;}
	.st181{fill:#CED893;stroke:#ACB25F;stroke-width:0.5;stroke-miterlimit:10;}
	.st182{fill:#D79F4A;}
	.st183{clip-path:url(#SVGID_4_);}
	.st184{fill:#CDD98D;}
	.st185{fill:#FADA37;}
	.st186{fill:#CCB244;}
	.st187{fill:#FAE089;}
	.st188{fill:#FFED90;}
	.st189{fill:#ECDB6F;}
	.st190{fill:#FECF73;}
	.st191{fill:#CEA865;}
	.st192{fill:#EDDFCA;}
	.st193{fill:#EBDECA;}
	.st194{fill:#638408;}
	.st195{fill:#CE9F41;}
	.st196{fill:#F7BA23;}
	.st197{fill:#EAAE2A;}
	.st198{fill:#F2CE36;}
	.st199{fill:#F9D53D;}
	.st200{fill:#FCDA4F;}
	.st201{fill:#F7E289;}
	.st202{fill:#668F05;}
	.st203{fill:#597214;}
	.st204{fill:#8BA040;}
	.st205{fill:#7AA122;}
	.st206{fill:#95BB28;}
	.st207{fill:#E7F2A6;}
	.st208{fill:#C4CC75;}
	.st209{fill:#87A82C;}
	.st210{fill:#9FBF45;}
	.st211{fill:#728E25;}
	.st212{fill:#7D4E30;}
	.st213{fill:#3F5A2F;}
	.st214{fill:#4B7837;}
	.st215{fill:#85A93F;}
	.st216{fill:#693F26;}
	.st217{fill:#8C7668;}
	.st218{fill:#EDE9E6;}
	.st219{fill:#FFFDFC;}
	.st220{fill:#846F5C;}
	.st221{clip-path:url(#SVGID_6_);}
	.st222{fill:#B2A594;}
	.st223{fill:#E4DDD5;}
	.st224{fill:#A16D46;}
	.st225{fill:#9A8E42;}
	.st226{fill:#BBB061;}
	.st227{fill:#A08F41;}
	.st228{fill:#C1AD56;}
	.st229{opacity:0.7;}
	.st230{fill:#DACA7F;}
	.st231{fill:#EEE49F;}
	.st232{opacity:0.5;}
	.st233{fill:#FFF9D7;}
	.st234{fill:#7C7F32;}
	.st235{fill:#95A84C;}
	.st236{fill:#D8B45C;}
	.st237{fill:#FCC572;}
	.st238{fill:#FED49A;}
	.st239{fill:#C0782C;}
	.st240{fill:#D49430;}
	.st241{fill:#F5D19D;}
	.st242{opacity:0.35;}
	.st243{fill:#F9AFC9;}
	.st244{fill:#F9CDDE;}
	.st245{fill:#FFF3F8;}
	.st246{fill:#F4A2C3;}
	.st247{fill:#FFFFFF;}
	.st248{fill:#D7F2F9;}
	.st249{fill:#492743;}
	.st250{fill:#20131D;}
	.st251{fill:#685364;}
	.st252{fill:#748115;}
	.st253{fill:#A7B86A;}
</style>
<g id="Слой_1">
</g>
<g id="Слой_2">
	<g>
		
			<ellipse transform="matrix(0.8797 -0.4756 0.4756 0.8797 -10.4333 20.5107)" class="st116" cx="35.32" cy="30.87" rx="32.64" ry="24.6"/>
		<g>
			<defs>
				
					<ellipse id="SVGID_1_" transform="matrix(0.8797 -0.4756 0.4756 0.8797 -10.4333 20.5107)" cx="35.32" cy="30.87" rx="32.64" ry="24.6"/>
			</defs>
			<clipPath id="SVGID_2_">
				<use xlink:href="#SVGID_1_"  style="overflow:visible;"/>
			</clipPath>
			<g class="st117">
				<g>
					<path class="st118" d="M4.87,52.61l-2.68-0.74c0.52-1.88,1.18-3.75,1.97-5.55c0.83-1.88,1.47-2.94,1.99-3.8
						c0.51-0.84,0.87-1.44,1.23-2.53c0.61-1.82,0.5-2.88,0.38-3.99c-0.12-1.18-0.26-2.52,0.44-4.48c0.7-1.95,1.6-2.74,2.64-3.66
						c0.83-0.73,1.86-1.64,3.26-3.58c1.39-1.92,2.04-3.34,2.56-4.49c0.72-1.56,1.34-2.91,3.23-4.2c1.18-0.8,1.98-0.97,2.83-1.15
						c0.76-0.16,1.7-0.36,3.46-1.15c2.01-0.9,2.92-1.58,3.73-2.19c0.88-0.66,1.71-1.29,3.41-1.7c1.84-0.45,3.11-0.28,4.23-0.13
						c1.1,0.15,2.05,0.28,3.64-0.14c1.6-0.42,2.58-1.05,3.46-1.62c0.3-0.19,0.58-0.37,0.84-0.52c4.09-2.3,10.26-1.05,18.88,3.81
						l-1.37,2.42C55.53,9.02,49.94,7.7,46.86,9.44c-0.22,0.12-0.45,0.27-0.7,0.43c-0.94,0.61-2.23,1.44-4.26,1.97
						c-2.12,0.55-3.5,0.37-4.71,0.21c-1-0.13-1.87-0.25-3.2,0.07c-1.14,0.28-1.59,0.61-2.39,1.22c-0.83,0.63-1.97,1.49-4.27,2.51
						c-2.03,0.91-3.18,1.15-4.02,1.33c-0.74,0.16-1.11,0.23-1.84,0.73c-1.25,0.85-1.59,1.59-2.26,3.06
						c-0.58,1.25-1.29,2.81-2.84,4.96c-1.58,2.19-2.79,3.25-3.67,4.04c-0.94,0.83-1.41,1.24-1.86,2.52c-0.49,1.36-0.4,2.2-0.3,3.26
						c0.13,1.3,0.28,2.77-0.51,5.15c-0.46,1.38-0.94,2.17-1.49,3.09c-0.5,0.83-1.07,1.76-1.82,3.48
						C5.97,49.12,5.35,50.86,4.87,52.61z"/>
				</g>
				<g>
					<path class="st118" d="M58.98,11.8c-2.52,1.59-2.43,1.97-3.9,2.54c-3.2,1.24-4.52-0.2-7.53,0.54
						c-3.34,0.82-3.05,2.93-7.08,5.08c-4.09,2.18-5.12,0.41-8.98,2.36c-3.26,1.64-2.53,2.9-8.26,8.08
						c-3.57,3.23-4.53,3.34-6.99,6.17c-2.1,2.42-3.37,4.59-4.17,5.99c-2.9,5.04-1.97,6.2-3.9,8.98c-3.71,5.33-10.25,5.95-9.98,6.9
						c0.19,0.69,3.87,1.18,6.99-0.54c4.29-2.38,3.16-6.54,8.08-12.62c2.53-3.12,5.36-5.14,7.17-6.44c4.4-3.15,5.6-2.74,8.53-5.45
						c3.94-3.63,2.82-5.32,6.08-7.53c3.69-2.5,5.82-0.79,10.26-3.45c3.47-2.08,2.56-3.36,5.54-5.26c6.43-4.12,13.24,0.25,16.06-3.54
						c1.23-1.65,1.2-4.16,0.27-4.9C65.7,7.56,61.46,10.24,58.98,11.8z"/>
				</g>
				<g>
					<path class="st118" d="M6.88,50.19c1.24,2.83,8.59,4.18,12.34,1.18c2.27-1.81,1.43-3.79,3.63-4.99c2.97-1.63,5.5,1.44,8.8-0.09
						c2.49-1.16,1.79-3.25,4.72-4.99c3.02-1.8,4.66-0.11,6.9-1.82c2.68-2.05,1.03-5.03,3.9-7.53c2.29-2,4.47-1.08,5.63-3.09
						c1.14-1.98-0.55-3.6,0.45-5.17c1.51-2.36,6.11,0.13,9.35-1.91c4.98-3.12,3.16-14.66,2.54-14.7c-0.44-0.03,0.59,5.83-3.18,9.35
						c-3.22,3.01-6.88,1.43-9.71,4.9c-1.61,1.97-0.95,3.12-2.36,5.63c-2.49,4.42-8.12,3.17-9.26,6.63
						c-0.52,1.58,0.36,2.27-0.45,3.45c-1.14,1.65-3.25,0.83-6.26,2.18c-3.02,1.35-2.36,2.83-5.08,4.08c-3.73,1.72-5.7-0.73-8.8,1
						c-2.95,1.64-2.11,4.37-4.81,5.45c-3.44,1.36-7.63-1.93-8.44-0.73C6.53,49.4,6.79,49.98,6.88,50.19z"/>
				</g>
				<g>
					<path class="st118" d="M67.87,24.6c-1.83-0.32-2.29,4.58-6.99,7.08c-2.62,1.39-4.04,0.7-5.72,2.54
						c-1.52,1.66-0.97,2.89-2.63,4.54c-1.68,1.67-2.76,0.92-4.72,2.36c-2.99,2.19-1.73,4.82-4.45,6.81
						c-1.85,1.35-2.47,0.17-6.9,1.63c-3.82,1.27-3.67,2.26-6.44,2.63c-2.29,0.31-3.41-0.23-5.54,0.64c-1.4,0.57-1.9,1.2-2.9,1.91
						c-4.36,3.07-9.84,1.69-9.89,2.27c-0.04,0.44,3,1.65,6.72,1.36c4.45-0.35,4.79-2.46,9.44-3.45c5.21-1.1,7.29,1.02,10.44-1.09
						c1.58-1.06,0.97-1.54,3.36-3.63c2.9-2.54,4.15-2.14,6.53-4.45c2.23-2.15,1.39-2.74,3.45-4.54c2.5-2.18,3.94-1.49,6.63-3.72
						c2.16-1.8,1.45-2.43,3.45-4.17c3.59-3.13,7.03-2.1,7.9-4.36C70.24,27.29,69.1,24.82,67.87,24.6z"/>
				</g>
			</g>
		</g>
		
			<ellipse transform="matrix(0.8578 -0.5139 0.5139 0.8578 -9.6816 20.7707)" class="st119" cx="32.7" cy="27.88" rx="31.38" ry="20.53"/>
		
			<ellipse transform="matrix(0.8578 -0.5139 0.5139 0.8578 0.234 22.4984)" class="st120" cx="40.78" cy="10.83" rx="3.8" ry="2.49"/>
		<g>
			<path class="st121" d="M10.13,54.93c-1.15,2.08,5.65,9.9,13.06,13.37c17.9,8.39,47.24-4.86,52.26-22.13
				c1.47-5.08,1.67-13.34,0.77-13.53c-0.39-0.08-0.77,1.39-1.84,3.07c-2.65,4.15-7.09,5.78-10.6,7.07
				c-6.01,2.21-11.34,2.25-12.3,5.07c-0.13,0.39-0.28,1.11-0.92,1.69c-1.04,0.94-2.27,0.54-4.15,0.77
				c-2.75,0.33-2.67,1.48-5.23,1.84c-2.23,0.32-2.51-0.53-5.38-0.61c-2.45-0.08-2.7,0.53-6.46,1.08c-2.38,0.35-1.96,0.06-7.53,0.46
				c-0.82,0.06-3.57,0.26-7.07,0.77C11.83,54.27,10.37,54.49,10.13,54.93z"/>
			<g>
				<path class="st118" d="M43.34,66.78c-1.17-1.01-2.49-1.8-3.91-1.84c-1.44-0.04-2.8,0.71-3.96,1.78
					c-1.11,1.03-2.04,2.24-3.16,3.14c-0.42,0.34-0.84,0.57-1.27,0.69c1.86,0.26,3.77,0.36,5.71,0.31c0.9-0.88,1.75-1.58,2.68-1.48
					c0.3,0.03,0.86,0.33,1.25,0.63c0.18,0.14,0.38,0.31,0.57,0.49c1.72-0.23,3.44-0.57,5.15-1C45.31,68.75,44.37,67.67,43.34,66.78z
					"/>
				<path class="st118" d="M75.98,40.67c-2.76,1.97-5.74,3.96-7.27,7.8c-0.74,1.86-1.1,3.94-1.82,5.64
					c-0.28,0.66-0.54,1.13-1.01,1.63c-0.03,0.03-0.2,0.19-0.24,0.22c-0.14,0.11-0.28,0.23-0.43,0.34c-0.39,0.28-0.44,0.31-0.74,0.45
					c-2.69,1.32-5.72,1.39-8.17,3.53c-1.41,1.23-2.49,2.89-3.53,4.62c-0.69,1.15-1.39,2.37-2.24,3.35c2.34-0.81,4.62-1.79,6.8-2.92
					c0.13-0.16,0.27-0.31,0.41-0.46c1.1-1.16,2.47-1.66,3.89-2.05c3.68-2.41,6.91-5.25,9.38-8.38c0.21-0.66,0.4-1.34,0.6-2.01
					c0.52-1.74,1.35-3.28,2.52-4.34c0.3-0.27,0.61-0.52,0.92-0.76c0.14-0.39,0.27-0.78,0.38-1.17c0.5-1.74,0.86-3.85,1.07-5.89
					C76.35,40.41,76.17,40.54,75.98,40.67z"/>
				<path class="st118" d="M24.69,66.47c-1.38-1.63-2.8-3.22-4.54-4.11c-1.12-0.57-2.48-0.68-3.72-0.29
					c2.19,2.44,4.73,4.71,7.33,6.33c0.3,0.19,0.61,0.35,0.91,0.53c1.17,0.46,2.39,0.83,3.63,1.12
					C26.94,69.24,25.8,67.78,24.69,66.47z"/>
			</g>
			<path class="st122" d="M75.4,41.17c0.62-2.22,1.02-5.02,1.22-7.56c-0.09-0.57-0.23-0.93-0.4-0.96c-0.39-0.08-0.77,1.39-1.84,3.07
				c-2.65,4.15-7.09,5.78-10.6,7.07c-6.01,2.21-11.34,2.25-12.3,5.07c-0.13,0.39-0.28,1.11-0.92,1.69
				c-1.04,0.94-2.27,0.54-4.15,0.77c-2.75,0.33-2.67,1.48-5.23,1.84c-2.23,0.32-2.51-0.53-5.38-0.61c-2.45-0.08-2.7,0.53-6.46,1.08
				c-2.38,0.35-1.96,0.06-7.53,0.46c-0.82,0.06-3.57,0.26-7.07,0.77c-2.91,0.42-4.37,0.64-4.61,1.08c-0.16,0.28-0.16,0.68-0.04,1.15
				c2.56,3.16,6.73,6.81,11.11,8.95C39.77,74.08,70.2,59.79,75.4,41.17z"/>
			<path class="st118" d="M42.41,56.04c1.95-0.54,1.81-1.72,3.69-2.61c3.16-1.5,5.73,0.8,7.07-0.61c1.26-1.33-0.64-3.73,0.77-5.38
				c1.26-1.47,3.67-0.58,4.3-1.84c0.17-0.34,0.16-0.76,0.05-1.18c-3.51,0.9-6.16,1.53-6.81,3.45c-0.13,0.39-0.28,1.11-0.92,1.69
				c-1.04,0.94-2.27,0.54-4.15,0.77c-2.75,0.33-2.67,1.48-5.23,1.84c-2.23,0.32-2.51-0.53-5.38-0.61c-2.45-0.08-2.7,0.53-6.46,1.08
				c-1.97,0.29-2.02,0.14-5.17,0.31c-0.09,1.22,0.24,2.61,1.17,3.26c1.16,0.81,2.15-0.27,4.92,0.15c1.97,0.3,2,0.93,3.53,0.92
				c1.8-0.01,1.96-0.88,4.15-1.23C40.24,55.67,40.66,56.53,42.41,56.04z"/>
			<g>
				<path class="st122" d="M27.72,53.37c-0.07-0.02-0.14,0-0.19,0.04c-0.06-0.02-0.14-0.02-0.19,0.04c-0.1,0.12-0.17,0.26-0.25,0.4
					c-0.08,0.13-0.15,0.25-0.22,0.38c-0.14,0.24-0.31,0.51-0.23,0.8c0.09,0.31,0.42,0.43,0.7,0.29c0.25-0.12,0.34-0.4,0.38-0.65
					c0.06-0.33,0.11-0.67,0.17-1C27.9,53.53,27.85,53.41,27.72,53.37z"/>
				<path class="st122" d="M31.84,53.12c-0.02-0.14-0.11-0.27-0.27-0.27c-0.14,0-0.25,0.11-0.26,0.24
					c-0.04,0.16-0.08,0.31-0.11,0.48c-0.03,0.19-0.03,0.38-0.05,0.57c-0.01,0.18-0.03,0.37-0.04,0.55
					c-0.01,0.14-0.02,0.29,0.01,0.43c0.08,0.33,0.44,0.5,0.72,0.27c0.31-0.24,0.19-0.67,0.15-1C31.96,53.96,31.9,53.54,31.84,53.12z
					"/>
				<path class="st122" d="M35.33,52.55c0-0.02,0-0.04,0-0.06c0-0.07-0.08-0.13-0.14-0.11c-0.07,0.03-0.13,0.06-0.17,0.1
					c-0.05,0.02-0.09,0.06-0.11,0.11c0,0,0,0,0,0c-0.07,0.09-0.14,0.19-0.21,0.29c-0.14,0.22-0.26,0.45-0.38,0.68
					c-0.11,0.23-0.22,0.47-0.3,0.72c-0.09,0.25-0.19,0.52-0.21,0.79c-0.04,0.48,0.34,0.98,0.86,0.83c0.51-0.16,0.61-0.71,0.66-1.17
					c0.08-0.67,0.1-1.33,0.09-2.01C35.42,52.66,35.38,52.59,35.33,52.55z"/>
				<path class="st122" d="M40.67,53.41c0.01-0.1-0.09-0.2-0.18-0.21c-0.06-0.01-0.11,0.01-0.15,0.04
					c-0.04-0.06-0.13-0.07-0.15,0.02c-0.04,0.2-0.08,0.39-0.1,0.59c-0.02,0.2-0.03,0.39-0.05,0.59c-0.02,0.29-0.08,0.63,0.09,0.88
					c0.2,0.29,0.58,0.31,0.83,0.08c0.27-0.25,0.28-0.63,0.14-0.94C40.96,54.12,40.62,53.8,40.67,53.41z"/>
				<path class="st122" d="M37.8,52.75c0,0,0-0.01,0-0.01c-0.01-0.11-0.15-0.19-0.23-0.1c-0.06,0.07-0.09,0.12-0.12,0.21
					c-0.03,0.09-0.06,0.19-0.1,0.28c-0.06,0.17-0.11,0.33-0.17,0.5c-0.05,0.17-0.11,0.33-0.16,0.5c-0.05,0.16-0.09,0.33-0.06,0.5
					c0.05,0.3,0.38,0.51,0.66,0.35c0.31-0.17,0.29-0.55,0.29-0.86c0-0.4,0-0.81,0-1.21C37.91,52.84,37.86,52.78,37.8,52.75z"/>
				<path class="st122" d="M51.02,50.57c-0.13-0.13-0.41-0.04-0.39,0.16c0.03,0.32,0.12,0.63,0.25,0.92c0,0.25,0.02,0.5,0.14,0.73
					c0.13,0.26,0.39,0.48,0.7,0.47c0.28-0.01,0.57-0.19,0.63-0.48c0.07-0.36-0.17-0.64-0.4-0.88
					C51.64,51.18,51.33,50.87,51.02,50.57z M51.99,52.32c-0.02-0.04-0.04-0.07-0.06-0.11c0.01-0.04,0.01-0.08,0-0.12
					C51.98,52.16,52.01,52.24,51.99,52.32z"/>
				<path class="st122" d="M44.78,51.45c-0.01,0.03-0.02,0.07-0.02,0.1c0,0,0,0,0,0c-0.17,0.32-0.27,0.65-0.39,0.99
					c-0.1,0.3-0.28,0.65-0.13,0.96c0.02,0.03,0.04,0.05,0.07,0.08c-0.01,0.11,0.09,0.2,0.19,0.21c0.07,0.01,0.12-0.01,0.16-0.05
					c0.11,0,0.23-0.04,0.32-0.12c0.26-0.23,0.23-0.62,0.23-0.93c0.01-0.4,0.01-0.79,0-1.19C45.21,51.26,44.83,51.2,44.78,51.45z"/>
				<path class="st122" d="M52.69,48.71c-0.02-0.1-0.05-0.21-0.1-0.31c-0.1-0.2-0.26-0.35-0.46-0.45c-0.13-0.07-0.26,0.07-0.2,0.2
					c0.02,0.04,0.05,0.08,0.07,0.12c-0.02,0.05-0.03,0.09,0,0.13c0.01,0.01,0.02,0.02,0.03,0.03c0,0,0,0,0,0
					c0,0.01,0.01,0.01,0.01,0.02c0,0,0,0,0,0c-0.01,0.03-0.02,0.06,0.01,0.09c0.17,0.18,0.33,0.36,0.5,0.54
					c0.04,0.04,0.13,0.02,0.14-0.04C52.71,48.93,52.71,48.82,52.69,48.71z"/>
			</g>
		</g>
	</g>
</g>
<g id="Слой_4">
</g>
<g id="Слой_3">
</g>
</svg>
