<?xml version="1.0" encoding="utf-8"?>
<!-- Generator: Adobe Illustrator 23.1.0, SVG Export Plug-In . SVG Version: 6.00 Build 0)  -->
<svg version="1.1" xmlns="http://www.w3.org/2000/svg" xmlns:xlink="http://www.w3.org/1999/xlink" x="0px" y="0px"
	 viewBox="0 0 80 80" style="enable-background:new 0 0 80 80;" xml:space="preserve">
<style type="text/css">
	.st0{fill:#6F8653;}
	.st1{fill:#EBB044;}
	.st2{fill:#EEC27E;}
	.st3{fill:#DBA44B;}
	.st4{fill:#725846;}
	.st5{fill:#E8CA48;}
	.st6{fill:#F2DC7D;}
	.st7{fill:#CDB44D;}
	.st8{fill:#F8F8E1;}
	.st9{fill:#E4D049;}
	.st10{fill:#EDDC60;}
	.st11{fill:#E7E474;}
	.st12{fill:#809764;}
	.st13{fill:#46684B;}
	.st14{fill:#4D724F;}
	.st15{fill:#7D8E54;}
	.st16{fill:#4E7553;}
	.st17{fill:#456449;}
	.st18{fill:#415E46;}
	.st19{fill:#D6E06F;}
	.st20{fill:#A46246;}
	.st21{fill:#A97361;}
	.st22{fill:#6D8A56;}
	.st23{fill:#DB7B43;}
	.st24{fill:#EDB862;}
	.st25{fill:#DD8347;}
	.st26{fill:#E09A79;}
	.st27{fill:#D76B43;}
	.st28{fill:#C66849;}
	.st29{fill:#8E8079;}
	.st30{fill:#D98065;}
	.st31{fill:#C56647;}
	.st32{fill:#EFD9BA;}
	.st33{fill:#D45D45;}
	.st34{fill:#DD8075;}
	.st35{fill:#DAC6AD;}
	.st36{fill:#657F51;}
	.st37{fill:#556946;}
	.st38{fill:#7D9657;}
	.st39{fill:#7B706B;}
	.st40{fill:#93A47A;}
	.st41{fill:#6A7E4F;}
	.st42{fill:#E7E5D1;}
	.st43{fill:#CFD26A;}
	.st44{fill:#EDF0BC;}
	.st45{fill:#B6AA50;}
	.st46{fill:#A39C74;}
	.st47{fill:#D1C474;}
	.st48{fill:#93854C;}
	.st49{fill:#867B4A;}
	.st50{fill:#291D10;}
	.st51{fill:#AA9B50;}
	.st52{fill:#E5D263;}
	.st53{fill:#DC7F44;}
	.st54{fill:#E0956D;}
	.st55{fill:#EAAB44;}
	.st56{fill:#8CAC59;}
	.st57{fill:#657E4F;}
	.st58{fill:#97A779;}
	.st59{fill:#D14A4A;}
	.st60{fill:#97C35A;}
	.st61{fill:#89A559;}
	.st62{fill:#CB7A5E;}
	.st63{fill:#BE725E;}
	.st64{fill:#B16955;}
	.st65{fill:#D18D7D;}
	.st66{fill:#5D4837;}
	.st67{fill:#9C5B44;}
	.st68{fill:#D69747;}
	.st69{fill:#6A8E58;}
	.st70{fill:#80A071;}
	.st71{fill:#F1EB66;}
	.st72{fill:#EAC647;}
	.st73{fill:#F3EA8A;}
	.st74{fill:#CEA04A;}
	.st75{fill:#473321;}
	.st76{fill:#93AD7C;}
	.st77{fill:#EFD1A2;}
	.st78{fill:#91A87A;}
	.st79{fill:#6E8E42;}
	.st80{fill:#586889;}
	.st81{fill:#77859F;}
	.st82{fill:#83A25A;}
	.st83{fill:#B2C495;}
	.st84{fill:#947659;}
	.st85{fill:#4E6E4F;}
	.st86{fill:#524160;}
	.st87{fill:#3D3649;}
	.st88{fill:#6B5C7A;}
	.st89{fill:#2F3338;}
	.st90{fill:#212428;}
	.st91{fill:#282D32;}
	.st92{fill:#42484E;}
	.st93{fill:#252B2E;}
	.st94{fill:#6B3F3C;}
	.st95{fill:#645E57;}
	.st96{fill:#517E55;}
	.st97{fill:#2E4135;}
	.st98{fill:none;}
	.st99{fill:#6E8B70;}
	.st100{fill:#3D5545;}
	.st101{fill:#628A64;}
	.st102{fill:#F9F9E3;}
	.st103{fill:#D96F60;}
	.st104{fill:#C0645A;}
	.st105{fill:#543E2C;}
	.st106{fill:#7F4B49;}
	.st107{fill:#9E6345;}
	.st108{fill:#994D49;}
	.st109{fill:#A46A69;}
	.st110{fill:#8F5B42;}
	.st111{fill:#8E4948;}
	.st112{fill:#85986E;}
	.st113{fill:#6D7290;}
	.st114{fill:#626880;}
	.st115{fill:#9C9385;}
	.st116{fill:#F2D55A;}
	.st117{clip-path:url(#SVGID_2_);}
	.st118{fill:#E2AC54;}
	.st119{opacity:0.31;fill:#F9EFC5;}
	.st120{opacity:0.31;fill:#FFFBE9;}
	.st121{fill:#DDC862;}
	.st122{fill:#FFF3C2;}
	.st123{fill:#E8C046;stroke:#7A695F;stroke-width:0.15;stroke-miterlimit:10;}
	.st124{fill:#DBB248;}
	.st125{fill:#6F5753;}
	.st126{fill:#E8C046;stroke:#77655B;stroke-width:0.15;stroke-miterlimit:10;}
	.st127{fill:#83A15C;}
	.st128{fill:#698C3C;}
	.st129{fill:#809D5B;}
	.st130{fill:#4A6224;}
	.st131{fill:#85A55C;}
	.st132{fill:#506B26;}
	.st133{fill:#82A15B;}
	.st134{fill:#698958;}
	.st135{fill:#DD8344;}
	.st136{fill:#B56721;}
	.st137{fill:#C2463A;}
	.st138{fill:#CC6E64;}
	.st139{fill:#5EA817;}
	.st140{fill:#5F8F22;}
	.st141{fill:#C24F3C;}
	.st142{fill:#AB4A39;}
	.st143{fill:#BB413C;}
	.st144{fill:#EA7142;}
	.st145{fill:#ED835B;}
	.st146{fill:#E76D18;}
	.st147{fill:#56734E;}
	.st148{fill:#CBC797;}
	.st149{fill:#F1F0E1;}
	.st150{fill:#DBD9CA;}
	.st151{fill:#496042;}
	.st152{fill:#547534;}
	.st153{fill:#C0D591;}
	.st154{fill:#B3C483;}
	.st155{fill:#DFEAC1;}
	.st156{fill:#D5DDB8;}
	.st157{fill:#577F36;}
	.st158{fill:#4D6D2F;}
	.st159{fill:#4F6B32;}
	.st160{fill:#AAC654;}
	.st161{fill:#A0B252;}
	.st162{fill:#9B3743;}
	.st163{fill:#A34D5B;}
	.st164{fill:#75434B;}
	.st165{fill:#80333D;}
	.st166{fill:#722F3A;}
	.st167{fill:#8E424F;}
	.st168{fill:#A5273F;}
	.st169{fill:#9B2944;}
	.st170{fill:#93B250;}
	.st171{fill:#778950;}
	.st172{fill:#B1B297;}
	.st173{fill:#5D6B3E;}
	.st174{fill:#769328;}
	.st175{fill:#B9BC9D;}
	.st176{fill:#B4CE6E;}
	.st177{fill:#CCCEAF;}
	.st178{fill:#AEAF94;}
	.st179{fill:#E8C046;stroke:#7F6D62;stroke-width:0.15;stroke-miterlimit:10;}
	.st180{fill:#B7C661;}
	.st181{fill:#CED893;stroke:#ACB25F;stroke-width:0.5;stroke-miterlimit:10;}
	.st182{fill:#D79F4A;}
	.st183{clip-path:url(#SVGID_4_);}
	.st184{fill:#CDD98D;}
	.st185{fill:#FADA37;}
	.st186{fill:#CCB244;}
	.st187{fill:#FAE089;}
	.st188{fill:#FFED90;}
	.st189{fill:#ECDB6F;}
	.st190{fill:#FECF73;}
	.st191{fill:#CEA865;}
	.st192{fill:#EDDFCA;}
	.st193{fill:#EBDECA;}
	.st194{fill:#638408;}
	.st195{fill:#CE9F41;}
	.st196{fill:#F7BA23;}
	.st197{fill:#EAAE2A;}
	.st198{fill:#F2CE36;}
	.st199{fill:#F9D53D;}
	.st200{fill:#FCDA4F;}
	.st201{fill:#F7E289;}
	.st202{fill:#668F05;}
	.st203{fill:#597214;}
	.st204{fill:#8BA040;}
	.st205{fill:#7AA122;}
	.st206{fill:#95BB28;}
	.st207{fill:#E7F2A6;}
	.st208{fill:#C4CC75;}
	.st209{fill:#87A82C;}
	.st210{fill:#9FBF45;}
	.st211{fill:#728E25;}
	.st212{fill:#7D4E30;}
	.st213{fill:#3F5A2F;}
	.st214{fill:#4B7837;}
	.st215{fill:#85A93F;}
	.st216{fill:#693F26;}
	.st217{fill:#8C7668;}
	.st218{fill:#EDE9E6;}
	.st219{fill:#FFFDFC;}
	.st220{fill:#846F5C;}
	.st221{clip-path:url(#SVGID_6_);}
	.st222{fill:#B2A594;}
	.st223{fill:#E4DDD5;}
	.st224{fill:#A16D46;}
	.st225{fill:#9A8E42;}
	.st226{fill:#BBB061;}
	.st227{fill:#A08F41;}
	.st228{fill:#C1AD56;}
	.st229{opacity:0.7;}
	.st230{fill:#DACA7F;}
	.st231{fill:#EEE49F;}
	.st232{opacity:0.5;}
	.st233{fill:#FFF9D7;}
	.st234{fill:#7C7F32;}
	.st235{fill:#95A84C;}
	.st236{fill:#D8B45C;}
	.st237{fill:#FCC572;}
	.st238{fill:#FED49A;}
	.st239{fill:#C0782C;}
	.st240{fill:#D49430;}
	.st241{fill:#F5D19D;}
	.st242{opacity:0.35;}
	.st243{fill:#F9AFC9;}
	.st244{fill:#F9CDDE;}
	.st245{fill:#FFF3F8;}
	.st246{fill:#F4A2C3;}
	.st247{fill:#FFFFFF;}
	.st248{fill:#D7F2F9;}
	.st249{fill:#492743;}
	.st250{fill:#20131D;}
	.st251{fill:#685364;}
	.st252{fill:#748115;}
	.st253{fill:#A7B86A;}
</style>
<g id="Слой_1">
</g>
<g id="Слой_2">
</g>
<g id="Слой_4">
</g>
<g id="Слой_3">
	<g>
		<path class="st123" d="M61.57,6.58c-1.14,0.67,1.44,3.87,0.29,7.27c-0.55,1.64-1.78,2.76-2.58,3.5c-1.49,1.38-2.98,2.02-3.49,2.26
			c-3.87,1.81-6.17,5.7-7.84,7.73c-6.25,7.6-19.97,9.1-25.65,9.72c-2.49,0.27-11.51,2.04-14.51-0.21c-0.24-0.18-1.41-1.12-2.75-1.01
			c-0.87,0.07-1.85,0.58-1.98,1.32c-0.11,0.65,0.52,1.12,1.63,2.54c1.03,1.32,1.39,2.07,1.77,2.6c1.16,1.64,4.92,4.69,10.26,6.58
			c8.67,3.07,17.13,1.53,20.07,0.96c7.4-1.43,11.87-4.39,20.82-10.31c5.45-3.6,7.82-5.98,8.96-9.27c0.81-2.36,1.65-4.78,0.83-7.66
			c-0.46-1.63-1.38-3.14-1.19-5.5c0.07-0.87,0.21-0.9,0.72-2.85c0.92-3.57,1.54-5.99,0.47-6.81c-0.48-0.37-0.79-0.02-2.74-0.29
			C62.49,6.85,62.05,6.3,61.57,6.58z"/>
		<path class="st124" d="M49.06,37.9c9.69-6.12,13.13-14.63,15.61-20.79c0.19-0.47,2.12-5.33,2.86-9.53
			c-0.03-0.03-0.06-0.08-0.09-0.11c-0.48-0.37-0.79-0.02-2.74-0.29c-2.18-0.3-2.62-0.86-3.09-0.58c-1.14,0.67,1.44,3.87,0.29,7.27
			c-0.55,1.64-1.78,2.76-2.58,3.5c-1.49,1.38-2.98,2.02-3.49,2.26c-3.87,1.81-6.17,5.7-7.84,7.73c-6.25,7.6-19.97,9.1-25.65,9.72
			c-2.49,0.27-11.51,2.04-14.51-0.21c-0.24-0.18-1.41-1.12-2.75-1.01c-0.87,0.07-1.85,0.58-1.98,1.32c-0.02,0.1-0.01,0.2,0.01,0.3
			c3.81,2.55,9.25,4.21,10.48,4.59C23.38,45.05,37.48,45.21,49.06,37.9z"/>
		<path class="st125" d="M67.4,7.44c-0.48-0.37-0.79-0.02-2.74-0.29c-2.18-0.3-2.62-0.86-3.09-0.58c-1,0.59,0.86,3.12,0.56,6.03
			c1.17,0.61,2.26,0.98,2.78,1.15c0.62,0.21,1.3,0.39,2,0.54c0-0.02,0.01-0.03,0.01-0.05C67.85,10.68,68.47,8.27,67.4,7.44z"/>
		<path class="st125" d="M7.05,36.35c-0.51-0.29-1.22-0.57-2-0.51c-0.87,0.07-1.85,0.58-1.98,1.32c-0.09,0.54,0.33,0.96,1.1,1.88
			L7.05,36.35z"/>
	</g>
	<g>
		<path class="st126" d="M62.2,7.04c-1.18,0.86,1.84,4.17,0.85,8.09c-0.48,1.88-1.72,3.27-2.53,4.17c-1.51,1.69-3.07,2.57-3.6,2.89
			c-4.04,2.42-6.25,7-7.9,9.45C42.82,40.77,28.09,43.86,22,45.15c-2.67,0.56-12.3,3.48-15.71,1.28c-0.28-0.18-1.61-1.1-3.05-0.84
			c-0.93,0.17-1.96,0.84-2.04,1.68C1.13,48,1.85,48.45,3.16,49.93c1.21,1.36,1.66,2.16,2.1,2.72c1.37,1.71,5.67,4.73,11.58,6.28
			c9.6,2.53,18.64-0.08,21.77-1.01c7.89-2.37,12.51-6.14,21.75-13.67c5.62-4.59,8.02-7.48,9-11.28c0.7-2.72,1.43-5.51,0.33-8.64
			c-0.62-1.77-1.72-3.36-1.69-6.02c0.01-0.98,0.16-1.02,0.56-3.25c0.73-4.08,1.23-6.84,0.01-7.65c-0.55-0.37-0.85,0.06-2.98-0.04
			C63.2,7.25,62.69,6.68,62.2,7.04z"/>
		<path class="st124" d="M50.99,43.3c10.03-7.84,13.11-17.7,15.34-24.83c0.17-0.54,1.89-6.17,2.39-10.93
			c-0.04-0.03-0.07-0.09-0.11-0.12c-0.55-0.37-0.85,0.06-2.98-0.04c-2.38-0.11-2.89-0.68-3.38-0.32c-1.18,0.86,1.84,4.17,0.85,8.09
			c-0.48,1.88-1.72,3.27-2.53,4.17c-1.51,1.69-3.07,2.57-3.6,2.89c-4.04,2.42-6.25,7-7.9,9.45c-6.2,9.14-20.92,12.24-27.01,13.52
			c-2.67,0.56-12.3,3.48-15.71,1.28c-0.28-0.18-1.61-1.1-3.05-0.84c-0.93,0.17-1.96,0.84-2.04,1.68c-0.01,0.12,0,0.23,0.03,0.33
			c4.31,2.45,10.31,3.74,11.67,4.03C23.74,53.95,39,52.67,50.99,43.3z"/>
		<path class="st125" d="M68.56,7.39c-0.55-0.37-0.85,0.06-2.98-0.04c-2.38-0.11-2.89-0.68-3.38-0.32
			c-1.04,0.76,1.16,3.39,1.05,6.68c1.31,0.55,2.52,0.86,3.09,1c0.69,0.17,1.43,0.3,2.21,0.39c0-0.02,0.01-0.03,0.01-0.05
			C69.29,10.97,69.78,8.21,68.56,7.39z"/>
		<path class="st125" d="M5.44,45.94c-0.58-0.27-1.37-0.51-2.2-0.36c-0.93,0.17-1.96,0.84-2.04,1.68c-0.06,0.61,0.42,1.03,1.33,1.99
			L5.44,45.94z"/>
	</g>
	<g>
		<path class="st179" d="M61.33,6.82c-0.85,1.27,3.05,3.61,3.32,7.91c0.13,2.07-0.62,3.88-1.11,5.06c-0.91,2.21-2.12,3.62-2.53,4.11
			c-3.1,3.79-3.77,9.16-4.59,12.18C53.37,47.4,40.31,55.41,34.91,58.72c-2.36,1.45-10.63,7.59-14.56,6.49
			c-0.32-0.09-1.87-0.58-3.16,0.16c-0.83,0.48-1.61,1.5-1.42,2.37c0.16,0.77,0.98,1,2.69,2.06c1.58,0.98,2.25,1.64,2.85,2.06
			c1.84,1.28,6.87,2.91,12.98,2.53c9.92-0.62,17.72-6.24,20.41-8.23c6.78-5.01,10.01-10.35,16.46-21.05
			c3.93-6.51,5.31-10.23,5.06-14.4c-0.18-2.99-0.35-6.05-2.37-8.86c-1.14-1.59-2.68-2.83-3.48-5.54c-0.29-1-0.16-1.09-0.47-3.48
			c-0.57-4.37-0.96-7.34-2.37-7.75c-0.64-0.19-0.79,0.34-2.85,0.95C62.36,6.7,61.69,6.29,61.33,6.82z"/>
		<path class="st124" d="M61.93,47.26c7.11-11.26,6.98-22.26,6.89-30.22c-0.01-0.6-0.11-6.88-1.12-11.86
			c-0.05-0.02-0.09-0.06-0.14-0.08c-0.64-0.19-0.79,0.34-2.85,0.95c-2.3,0.68-2.97,0.26-3.32,0.79c-0.85,1.27,3.05,3.61,3.32,7.91
			c0.13,2.07-0.62,3.88-1.11,5.06c-0.91,2.21-2.12,3.62-2.53,4.11c-3.1,3.79-3.77,9.16-4.59,12.18
			c-3.06,11.31-16.12,19.32-21.52,22.63c-2.36,1.45-10.63,7.59-14.56,6.49c-0.32-0.09-1.87-0.58-3.16,0.16
			c-0.83,0.48-1.61,1.5-1.42,2.37c0.03,0.12,0.07,0.23,0.13,0.33c4.86,1.06,10.99,0.38,12.37,0.22
			C39.3,67.07,53.43,60.71,61.93,47.26z"/>
		<path class="st125" d="M67.5,5.08c-0.64-0.19-0.79,0.34-2.85,0.95c-2.3,0.68-2.97,0.26-3.32,0.79c-0.75,1.11,2.16,3.05,3.07,6.42
			c1.42,0.13,2.66,0.03,3.26-0.01c0.71-0.06,1.46-0.17,2.22-0.33c0-0.02,0-0.04-0.01-0.06C69.31,8.45,68.92,5.49,67.5,5.08z"/>
		<path class="st125" d="M19.39,65c-0.63-0.08-1.46-0.07-2.2,0.36c-0.83,0.48-1.61,1.5-1.42,2.37c0.13,0.64,0.72,0.91,1.88,1.57
			L19.39,65z"/>
	</g>
</g>
</svg>
