<?xml version="1.0" encoding="utf-8"?>
<!-- Generator: Adobe Illustrator 23.1.0, SVG Export Plug-In . SVG Version: 6.00 Build 0)  -->
<svg version="1.1" xmlns="http://www.w3.org/2000/svg" xmlns:xlink="http://www.w3.org/1999/xlink" x="0px" y="0px"
	 viewBox="0 0 80 80" style="enable-background:new 0 0 80 80;" xml:space="preserve">
<style type="text/css">
	.st0{fill:#6F8653;}
	.st1{fill:#EBB044;}
	.st2{fill:#EEC27E;}
	.st3{fill:#DBA44B;}
	.st4{fill:#725846;}
	.st5{fill:#E8CA48;}
	.st6{fill:#F2DC7D;}
	.st7{fill:#CDB44D;}
	.st8{fill:#F8F8E1;}
	.st9{fill:#E4D049;}
	.st10{fill:#EDDC60;}
	.st11{fill:#E7E474;}
	.st12{fill:#809764;}
	.st13{fill:#46684B;}
	.st14{fill:#4D724F;}
	.st15{fill:#7D8E54;}
	.st16{fill:#4E7553;}
	.st17{fill:#456449;}
	.st18{fill:#415E46;}
	.st19{fill:#D6E06F;}
	.st20{fill:#A46246;}
	.st21{fill:#A97361;}
	.st22{fill:#6D8A56;}
	.st23{fill:#DB7B43;}
	.st24{fill:#EDB862;}
	.st25{fill:#DD8347;}
	.st26{fill:#E09A79;}
	.st27{fill:#D76B43;}
	.st28{fill:#C66849;}
	.st29{fill:#8E8079;}
	.st30{fill:#D98065;}
	.st31{fill:#C56647;}
	.st32{fill:#EFD9BA;}
	.st33{fill:#D45D45;}
	.st34{fill:#DD8075;}
	.st35{fill:#DAC6AD;}
	.st36{fill:#657F51;}
	.st37{fill:#556946;}
	.st38{fill:#7D9657;}
	.st39{fill:#7B706B;}
	.st40{fill:#93A47A;}
	.st41{fill:#6A7E4F;}
	.st42{fill:#E7E5D1;}
	.st43{fill:#CFD26A;}
	.st44{fill:#EDF0BC;}
	.st45{fill:#B6AA50;}
	.st46{fill:#A39C74;}
	.st47{fill:#D1C474;}
	.st48{fill:#93854C;}
	.st49{fill:#867B4A;}
	.st50{fill:#291D10;}
	.st51{fill:#AA9B50;}
	.st52{fill:#E5D263;}
	.st53{fill:#DC7F44;}
	.st54{fill:#E0956D;}
	.st55{fill:#EAAB44;}
	.st56{fill:#8CAC59;}
	.st57{fill:#657E4F;}
	.st58{fill:#97A779;}
	.st59{fill:#D14A4A;}
	.st60{fill:#97C35A;}
	.st61{fill:#89A559;}
	.st62{fill:#CB7A5E;}
	.st63{fill:#BE725E;}
	.st64{fill:#B16955;}
	.st65{fill:#D18D7D;}
	.st66{fill:#5D4837;}
	.st67{fill:#9C5B44;}
	.st68{fill:#D69747;}
	.st69{fill:#6A8E58;}
	.st70{fill:#80A071;}
	.st71{fill:#F1EB66;}
	.st72{fill:#EAC647;}
	.st73{fill:#F3EA8A;}
	.st74{fill:#CEA04A;}
	.st75{fill:#473321;}
	.st76{fill:#93AD7C;}
	.st77{fill:#EFD1A2;}
	.st78{fill:#91A87A;}
	.st79{fill:#6E8E42;}
	.st80{fill:#586889;}
	.st81{fill:#77859F;}
	.st82{fill:#83A25A;}
	.st83{fill:#B2C495;}
	.st84{fill:#947659;}
	.st85{fill:#4E6E4F;}
	.st86{fill:#524160;}
	.st87{fill:#3D3649;}
	.st88{fill:#6B5C7A;}
	.st89{fill:#2F3338;}
	.st90{fill:#212428;}
	.st91{fill:#282D32;}
	.st92{fill:#42484E;}
	.st93{fill:#252B2E;}
	.st94{fill:#6B3F3C;}
	.st95{fill:#645E57;}
	.st96{fill:#517E55;}
	.st97{fill:#2E4135;}
	.st98{fill:none;}
	.st99{fill:#6E8B70;}
	.st100{fill:#3D5545;}
	.st101{fill:#628A64;}
	.st102{fill:#F9F9E3;}
	.st103{fill:#D96F60;}
	.st104{fill:#C0645A;}
	.st105{fill:#543E2C;}
	.st106{fill:#7F4B49;}
	.st107{fill:#9E6345;}
	.st108{fill:#994D49;}
	.st109{fill:#A46A69;}
	.st110{fill:#8F5B42;}
	.st111{fill:#8E4948;}
	.st112{fill:#85986E;}
	.st113{fill:#6D7290;}
	.st114{fill:#626880;}
	.st115{fill:#9C9385;}
	.st116{fill:#F2D55A;}
	.st117{clip-path:url(#SVGID_2_);}
	.st118{fill:#E2AC54;}
	.st119{opacity:0.31;fill:#F9EFC5;}
	.st120{opacity:0.31;fill:#FFFBE9;}
	.st121{fill:#DDC862;}
	.st122{fill:#FFF3C2;}
	.st123{fill:#E8C046;stroke:#7A695F;stroke-width:0.15;stroke-miterlimit:10;}
	.st124{fill:#DBB248;}
	.st125{fill:#6F5753;}
	.st126{fill:#E8C046;stroke:#77655B;stroke-width:0.15;stroke-miterlimit:10;}
	.st127{fill:#83A15C;}
	.st128{fill:#698C3C;}
	.st129{fill:#809D5B;}
	.st130{fill:#4A6224;}
	.st131{fill:#85A55C;}
	.st132{fill:#506B26;}
	.st133{fill:#82A15B;}
	.st134{fill:#698958;}
	.st135{fill:#DD8344;}
	.st136{fill:#B56721;}
	.st137{fill:#C2463A;}
	.st138{fill:#CC6E64;}
	.st139{fill:#5EA817;}
	.st140{fill:#5F8F22;}
	.st141{fill:#C24F3C;}
	.st142{fill:#AB4A39;}
	.st143{fill:#BB413C;}
	.st144{fill:#EA7142;}
	.st145{fill:#ED835B;}
	.st146{fill:#E76D18;}
	.st147{fill:#56734E;}
	.st148{fill:#CBC797;}
	.st149{fill:#F1F0E1;}
	.st150{fill:#DBD9CA;}
	.st151{fill:#496042;}
	.st152{fill:#547534;}
	.st153{fill:#C0D591;}
	.st154{fill:#B3C483;}
	.st155{fill:#DFEAC1;}
	.st156{fill:#D5DDB8;}
	.st157{fill:#577F36;}
	.st158{fill:#4D6D2F;}
	.st159{fill:#4F6B32;}
	.st160{fill:#AAC654;}
	.st161{fill:#A0B252;}
	.st162{fill:#9B3743;}
	.st163{fill:#A34D5B;}
	.st164{fill:#75434B;}
	.st165{fill:#80333D;}
	.st166{fill:#722F3A;}
	.st167{fill:#8E424F;}
	.st168{fill:#A5273F;}
	.st169{fill:#9B2944;}
	.st170{fill:#93B250;}
	.st171{fill:#778950;}
	.st172{fill:#B1B297;}
	.st173{fill:#5D6B3E;}
	.st174{fill:#769328;}
	.st175{fill:#B9BC9D;}
	.st176{fill:#B4CE6E;}
	.st177{fill:#CCCEAF;}
	.st178{fill:#AEAF94;}
	.st179{fill:#E8C046;stroke:#7F6D62;stroke-width:0.15;stroke-miterlimit:10;}
	.st180{fill:#B7C661;}
	.st181{fill:#CED893;stroke:#ACB25F;stroke-width:0.5;stroke-miterlimit:10;}
	.st182{fill:#D79F4A;}
	.st183{clip-path:url(#SVGID_4_);}
	.st184{fill:#CDD98D;}
	.st185{fill:#FADA37;}
	.st186{fill:#CCB244;}
	.st187{fill:#FAE089;}
	.st188{fill:#FFED90;}
	.st189{fill:#ECDB6F;}
	.st190{fill:#FECF73;}
	.st191{fill:#CEA865;}
	.st192{fill:#EDDFCA;}
	.st193{fill:#EBDECA;}
	.st194{fill:#638408;}
	.st195{fill:#CE9F41;}
	.st196{fill:#F7BA23;}
	.st197{fill:#EAAE2A;}
	.st198{fill:#F2CE36;}
	.st199{fill:#F9D53D;}
	.st200{fill:#FCDA4F;}
	.st201{fill:#F7E289;}
	.st202{fill:#668F05;}
	.st203{fill:#597214;}
	.st204{fill:#8BA040;}
	.st205{fill:#7AA122;}
	.st206{fill:#95BB28;}
	.st207{fill:#E7F2A6;}
	.st208{fill:#C4CC75;}
	.st209{fill:#87A82C;}
	.st210{fill:#9FBF45;}
	.st211{fill:#728E25;}
	.st212{fill:#7D4E30;}
	.st213{fill:#3F5A2F;}
	.st214{fill:#4B7837;}
	.st215{fill:#85A93F;}
	.st216{fill:#693F26;}
	.st217{fill:#8C7668;}
	.st218{fill:#EDE9E6;}
	.st219{fill:#FFFDFC;}
	.st220{fill:#846F5C;}
	.st221{clip-path:url(#SVGID_6_);}
	.st222{fill:#B2A594;}
	.st223{fill:#E4DDD5;}
	.st224{fill:#A16D46;}
	.st225{fill:#9A8E42;}
	.st226{fill:#BBB061;}
	.st227{fill:#A08F41;}
	.st228{fill:#C1AD56;}
	.st229{opacity:0.7;}
	.st230{fill:#DACA7F;}
	.st231{fill:#EEE49F;}
	.st232{opacity:0.5;}
	.st233{fill:#FFF9D7;}
	.st234{fill:#7C7F32;}
	.st235{fill:#95A84C;}
	.st236{fill:#D8B45C;}
	.st237{fill:#FCC572;}
	.st238{fill:#FED49A;}
	.st239{fill:#C0782C;}
	.st240{fill:#D49430;}
	.st241{fill:#F5D19D;}
	.st242{opacity:0.35;}
	.st243{fill:#F9AFC9;}
	.st244{fill:#F9CDDE;}
	.st245{fill:#FFF3F8;}
	.st246{fill:#F4A2C3;}
	.st247{fill:#FFFFFF;}
	.st248{fill:#D7F2F9;}
	.st249{fill:#492743;}
	.st250{fill:#20131D;}
	.st251{fill:#685364;}
	.st252{fill:#748115;}
	.st253{fill:#A7B86A;}
</style>
<g id="Слой_1">
</g>
<g id="Слой_2">
</g>
<g id="Слой_4">
</g>
<g id="Слой_3">
	<g>
		<g>
			<path class="st180" d="M6.37,40.2c0.16-0.57,0.82-2.51,4.87-4.41c4.93-2.3,7.76-1.22,13.75-1.81c7-0.7,16.26-3.49,20.93-5.17
				c1.1-0.4,3.81-1.4,6.65-0.41c0.49,0.17,3.1,1.13,4.03,3.42c1.33,3.27-1.62,7.1-2.61,8.39c-4.85,6.31-12.85,7.59-25.16,9.39
				c-13.46,1.97-16.79,0.19-18.57-1.26C8.23,46.7,5.52,43.3,6.37,40.2z"/>
			<path class="st181" d="M9.32,40.32c0,0,4.29-1.38,5.67-1.62c4.88-0.87,8.63-0.98,9.83-1.03c6.44-0.26,11.39-1.59,21.27-4.27
				c4.44-1.2,6.8-0.89,9.2-2.79c1.3-1.02,2.57-2.5,3.49-2.1c0.74,0.32,1.06,1.75,0.76,2.79c-0.69,2.44-4.81,3.13-8.5,3.89
				c-11.51,2.36-8.54,3.22-17.96,4.81c-1.56,0.26-9.35,1.53-18.95,1.09C9.94,40.88,9.32,40.32,9.32,40.32z"/>
			<path class="st181" d="M8.86,42.5c0.04-0.06,0.97,0.68,2.06,1.29c2.65,1.47,5.33,1.64,7.7,1.64c15.02,0.01,23.7-2.9,23.7-2.9
				c1.99-0.67,11.88-3.98,14.92-7.39c0.27-0.3,1.66-1.92,2.27-1.61c0.36,0.18,0.3,0.96,0.29,1.2c-0.2,2.73-4.21,5.23-4.62,5.48
				c-7.08,4.33-18.44,6.35-20.58,6.72c-14.67,2.54-17.79,1.54-20.01,0.27C11.76,45.58,8.78,42.61,8.86,42.5z"/>
			
				<ellipse transform="matrix(0.1174 -0.9931 0.9931 0.1174 -34.7685 42.7869)" class="st182" cx="6.69" cy="40.95" rx="1.97" ry="0.92"/>
		</g>
		<g>
			<path class="st22" d="M37.48,19.35c0,0,0,0.01,0,0.01C37.48,19.36,37.47,19.35,37.48,19.35c-0.01,0,0,0.02,0.01,0.04
				c0.58,1.58-0.47,1.76-0.47,1.76c1.24,1.24-0.19,0.88-0.19,0.88c1.29,1.48-0.37,1.26-0.37,1.26c1.25,0.96,0.17,0.89,0.17,0.89
				c0.97,0.95-0.26,0.69-0.26,0.69l0.56,0.7l-0.4,0.24c0.99,1.21-0.83,0.81-0.83,0.81l0.66,0.51l-0.63,0.38l0.6,0.54l-0.23,0.14
				c0.54,0.53,1.43,0.58,1.43,0.58l-0.22,0.31c3.04-0.42,2.44,0.84,2.44,0.84c-0.25,1.09-3.23-0.72-3.23-0.72
				c0.29,0.78-1.35,0.15-1.35,0.15c0.48,0.72-1.09,0.82-1.09,0.82c-1.21,0,0.3,0.95,0.3,0.95l-0.3,0.41l0.85,0.75l-0.5,0.3
				c0.37,0.32,1.01,0.7,1.01,0.7l-0.52,0.49c0.6,0.32,1.52,0.44,1.52,0.44l-0.45,0.54l0.91,0.17L36.6,35.7
				c1.44-0.23,1.4,0.56,1.4,0.56c1.68-1.68,2.05-1.05,2.05-1.05c0.82,0.54-0.81,1.66-0.81,1.66c0.82-0.13,0.42,0.6,0.42,0.6
				c-1.2,1.66,0.77,1.02,0.77,1.02c-0.08,0.91,0.81,0.15,0.81,0.15l0.32,0.53c0.36-0.38,0.62-0.46,0.8-0.43
				c-0.01-0.11-0.01-0.22-0.01-0.33c0.02-1.81,1.5-3.3,3.44-3.63c-1.41-1.41-0.67-2.57-0.64-2.62c0.07-0.01,1.79-0.13,2.19,2.61
				c0.49,0.07,0.95,0.22,1.37,0.43c0.61-0.93,1.67-1.63,2.96-1.82c0.2-0.03,0.4-0.04,0.59-0.05c0.05-0.01,0.1-0.02,0.16-0.03
				c0,0-0.62-0.66,0.62-1l-0.32-0.53c0,0,1.1-0.43,0.25-0.78c0,0,1.5-1.44-0.53-1.17c0,0-0.84,0.01-0.34-0.66
				c0,0-1.75,0.92-1.84-0.07c0,0-0.38-0.63,1.89-1.31c0,0-0.72-0.34,0.17-1.5l-0.86-0.08l0.28-0.89l-0.68,0.14
				c0,0,0.33-0.88,0.33-1.55l-0.68,0.22c0,0-0.04-0.74-0.15-1.22l-0.5,0.3L49.8,22.1l-0.5,0.07c0,0-0.12-1.78-0.7-0.71
				c0,0-0.82,1.33-1.23,0.57c0,0-0.22,1.74-0.77,1.12c0,0,0.2,3.49-0.88,3.19c0,0-1.39-0.07,0.41-2.55l-0.38,0.05
				c0,0,0.37-0.81,0.16-1.54l-0.23,0.14l-0.2-0.78l-0.63,0.38l-0.13-0.82c0,0-0.5,1.79-1.1,0.34l-0.4,0.24l-0.36-0.82
				c0,0-0.36,1.21-0.74-0.1c0,0-0.44,0.99-0.7-0.57c0,0-0.59,1.57-1.28-0.27c0,0-0.36,1.43-0.87-0.25c0,0-0.65,0.83-1.77-0.42
				C37.49,19.36,37.48,19.35,37.48,19.35z"/>
			<path class="st78" d="M45.03,31.95c0,0-0.01,0-0.01,0.01c-0.05,0.02-0.11,0-0.13-0.05c-1.99-4.69-7.12-11.9-7.18-11.97
				c-0.03-0.05-0.02-0.11,0.02-0.14c0.05-0.03,0.11-0.02,0.14,0.02c0.05,0.07,5.2,7.3,7.2,12.01
				C45.09,31.87,45.07,31.93,45.03,31.95z"/>
			<path class="st78" d="M44.69,31.07c-0.03,0.02-0.07,0.01-0.09-0.02c-0.02-0.03-0.01-0.07,0.02-0.09
				c0.04-0.03,4.31-2.86,4.14-8.73c0-0.04,0.03-0.07,0.07-0.07c0.04,0,0.07,0.03,0.07,0.07C49.06,28.18,44.73,31.04,44.69,31.07
				C44.69,31.07,44.69,31.07,44.69,31.07z"/>
			<path class="st78" d="M44.58,31.09c-3.77,3.23-9.47-0.6-9.53-0.64c-0.03-0.02-0.07-0.01-0.1,0.01c-0.03,0.03-0.03,0.06,0,0.08
				c0.02,0.01,1.47,1,3.38,1.56c1.76,0.52,3.36,0.53,4.71,0.02c0.59-0.22,1.14-0.55,1.63-0.96c0.03-0.02,0.03-0.06,0.01-0.08
				C44.65,31.06,44.6,31.07,44.58,31.09z"/>
			<path class="st78" d="M51.75,31.36c-2.3,1.38-6.89-0.15-7.1-0.22c-0.04-0.01-0.05-0.05-0.04-0.08c0.01-0.04,0.05-0.05,0.08-0.04
				c0.06,0.02,5.72,1.91,7.6-0.27c0.03-0.03,0.07-0.03,0.09-0.01c0.03,0.02,0.03,0.06,0.01,0.09
				C52.21,31.04,51.99,31.22,51.75,31.36z"/>
			<path class="st78" d="M44.54,31.05c-0.86,4.05-4.14,6.68-4.17,6.71c-0.03,0.02-0.03,0.06-0.01,0.09
				c0.02,0.03,0.06,0.03,0.09,0.02c0,0,0-0.01,0.01-0.01c0.03-0.02,3.35-2.69,4.22-6.78c0.01-0.04-0.02-0.07-0.05-0.08
				C44.59,30.99,44.55,31.01,44.54,31.05z"/>
			<path class="st78" d="M43.31,28.84c-1.17,0.7-6.46-1.58-6.69-1.68c-0.03-0.01-0.05-0.05-0.04-0.08c0.01-0.03,0.05-0.05,0.08-0.03
				c0.06,0.02,5.61,2.42,6.61,1.66c0.03-0.02,0.07-0.02,0.09,0.02c0.02,0.03,0.02,0.07-0.01,0.09
				C43.35,28.82,43.33,28.83,43.31,28.84z"/>
			<path class="st78" d="M42.18,26.55c-0.01,0-0.02,0.01-0.02,0.01c-1.26,0.19-4.87-1.24-5.03-1.3c-0.03-0.01-0.05-0.05-0.04-0.09
				c0.02-0.03,0.05-0.05,0.09-0.04c0.04,0.01,3.73,1.47,4.95,1.29c0.04-0.01,0.07,0.02,0.07,0.06
				C42.21,26.51,42.2,26.53,42.18,26.55z"/>
			<path class="st78" d="M40.34,23.65c-0.01,0-0.01,0-0.02,0.01c-1.65-0.27-2.75-1.08-2.77-1.09c-0.02-0.01-0.02-0.03-0.01-0.05
				c0.01-0.01,0.03-0.02,0.04-0.01c0.01,0.01,1.1,0.81,2.74,1.07c0.02,0,0.03,0.02,0.03,0.04C40.35,23.63,40.34,23.64,40.34,23.65z"
				/>
			<path class="st78" d="M43.55,28.69c1.02-0.61,1.14-6.14,1.14-6.38c0-0.04-0.03-0.07-0.06-0.07c-0.03,0-0.06,0.02-0.06,0.05
				c0,0.06-0.12,5.87-1.13,6.31c-0.03,0.01-0.04,0.05-0.02,0.08c0.01,0.03,0.05,0.05,0.08,0.04C43.51,28.71,43.53,28.71,43.55,28.69
				z"/>
			<path class="st78" d="M42.16,26.61c0.01,0,0.01-0.01,0.02-0.01c0.62-0.9,0.83-4.41,0.84-4.56c0-0.03-0.02-0.07-0.06-0.07
				c-0.03,0-0.06,0.02-0.06,0.05c0,0.04-0.21,3.63-0.81,4.51c-0.02,0.02-0.01,0.06,0.02,0.08C42.12,26.62,42.14,26.63,42.16,26.61z"
				/>
			<path class="st78" d="M40.37,23.62c0-0.01,0.01-0.01,0.01-0.02c0.19-1.45-0.18-2.8-0.19-2.81c0-0.02-0.02-0.03-0.04-0.03
				c-0.01,0-0.02,0.02-0.02,0.03c0,0.01,0.37,1.35,0.18,2.79c0,0.02,0.01,0.04,0.02,0.05C40.36,23.63,40.37,23.63,40.37,23.62z"/>
			<path class="st78" d="M37.93,32.11c-1.25,0.75-2.79,0.56-2.81,0.56c-0.02,0-0.03-0.02-0.03-0.04c0-0.02,0.02-0.03,0.04-0.03
				c0.02,0,1.62,0.2,2.87-0.62c0.02-0.01,0.04-0.01,0.05,0.01c0.01,0.01,0,0.03-0.01,0.04C38,32.06,37.96,32.08,37.93,32.11z"/>
			<path class="st78" d="M40.4,32.61c-1.88,1.13-4.16,1.17-4.18,1.17c-0.02,0-0.03-0.02-0.03-0.03c0-0.02,0.01-0.03,0.03-0.03
				c0.02,0,2.4-0.04,4.29-1.24l0,0c0.02-0.01,0.03,0,0.04,0.01c0.01,0.01,0.01,0.04-0.01,0.05C40.49,32.55,40.45,32.58,40.4,32.61z"
				/>
			<path class="st78" d="M43.07,32.07c-2.62,2.72-5.29,2.99-5.32,3c-0.02,0-0.03,0.02-0.03,0.03c0,0.02,0.02,0.03,0.04,0.03
				c0.02,0,1.34-0.14,3.04-1.15c0.73-0.44,1.53-1.04,2.32-1.86c0.01-0.01,0.01-0.03,0-0.05C43.11,32.05,43.09,32.05,43.07,32.07z"/>
			<path class="st78" d="M39.43,32.34c-0.01,0.01-0.02,0.01-0.03,0c-1.45-0.63-2.2-2.34-2.21-2.36c-0.01-0.02,0-0.03,0.02-0.04
				c0.02-0.01,0.03,0,0.04,0.01c0,0.02,0.74,1.71,2.17,2.33c0.02,0.01,0.02,0.03,0.02,0.04C39.45,32.34,39.44,32.34,39.43,32.34z"/>
			<path class="st78" d="M48.95,28.71c-0.84,0.5-1.89,1.03-3.14,1.45c-0.02,0.01-0.04,0-0.04-0.02c-0.01-0.02,0-0.04,0.02-0.04
				c3.42-1.15,5.38-3.11,5.4-3.13c0.01-0.01,0.03-0.01,0.05,0c0.01,0.01,0.01,0.03,0,0.05C51.21,27.03,50.41,27.83,48.95,28.71z"/>
			<path class="st78" d="M49.05,26.68c-0.68,0.41-1.26,0.57-1.27,0.57c-0.02,0-0.03-0.01-0.04-0.02c-0.01-0.02,0.01-0.03,0.02-0.04
				c0.02-0.01,2.4-0.66,3.14-2.73c0.01-0.01,0.02-0.03,0.04-0.02c0.02,0.01,0.03,0.03,0.02,0.04
				C50.59,25.56,49.77,26.26,49.05,26.68z"/>
			<path class="st78" d="M49,25.07c-0.28,0.17-0.49,0.24-0.5,0.24c-0.02,0.01-0.03,0-0.04-0.02c-0.01-0.02,0-0.03,0.02-0.04
				c0.01,0,1.33-0.41,1.8-1.89c0.01-0.02,0.03-0.03,0.04-0.02c0.02,0,0.03,0.02,0.02,0.04C50.06,24.29,49.44,24.81,49,25.07z"/>
			<path class="st78" d="M47.36,27.95C47.36,27.95,47.36,27.95,47.36,27.95c-0.02,0.01-0.04,0-0.05-0.02
				c-0.57-1.92-0.34-4.47-0.34-4.49c0-0.02,0.02-0.03,0.03-0.03c0.02,0,0.03,0.02,0.03,0.04c0,0.03-0.23,2.55,0.34,4.47
				C47.38,27.93,47.38,27.95,47.36,27.95z"/>
			<path class="st78" d="M46.51,31.56c-0.02,0.01-0.02,0.03-0.01,0.05c0.02,0.02,1.54,1.81,3.61,2.28c0.03-0.02,0.06-0.03,0.09-0.05
				c-2.08-0.43-3.63-2.25-3.65-2.28C46.54,31.55,46.52,31.55,46.51,31.56z"/>
			<path class="st78" d="M52.23,32.36C52.22,32.36,52.23,32.36,52.23,32.36c-1.88,0.88-3.28-0.39-3.29-0.4
				c-0.01-0.01-0.01-0.03,0-0.05c0.01-0.02,0.03-0.01,0.05,0c0.01,0.01,1.37,1.25,3.21,0.39c0.02-0.01,0.04,0,0.05,0.02
				C52.25,32.34,52.24,32.35,52.23,32.36z"/>
			<path class="st78" d="M48.34,31.83c-0.01,0.01-0.02,0.01-0.03,0c-0.02-0.01-0.02-0.03-0.01-0.05c0.03-0.03,0.65-0.9,3.33-2.26
				c0.02-0.01,0.04,0,0.05,0.02c0.01,0.02,0,0.03-0.02,0.04C48.99,30.94,48.36,31.82,48.34,31.83
				C48.35,31.83,48.34,31.83,48.34,31.83z"/>
			<path class="st78" d="M44.22,32.48c-0.01-0.02-0.03-0.02-0.04-0.02c-0.02,0.01-0.03,0.03-0.02,0.04c0.01,0.02,0.47,1.19,0.5,2.61
				c0.02-0.01,0.04-0.02,0.06-0.03C44.68,33.67,44.22,32.5,44.22,32.48z"/>
			<path class="st78" d="M43.26,34.52c0-0.02-0.02-0.03-0.04-0.02c-0.02,0.01-0.03,0.02-0.03,0.04c0.01,0.02,0.46,1.81-1.17,3.02
				c-0.02,0.01-0.02,0.03-0.01,0.05c0.01,0.01,0.03,0.02,0.04,0.01c0,0,0,0,0,0c0.23-0.17,0.42-0.36,0.58-0.55
				c0.12-0.26,0.26-0.5,0.44-0.72C43.49,35.39,43.27,34.53,43.26,34.52z"/>
			<path class="st78" d="M42.65,37.06c0.19-0.24,0.34-0.48,0.44-0.72C42.91,36.56,42.77,36.8,42.65,37.06z"/>
			<path class="st78" d="M43.74,33.5c0.01,0,0.01,0,0.01,0c0.01,0,0.02-0.02,0.01-0.03c0-0.02-0.02-0.03-0.03-0.03
				c-0.04,0-1.01,0.1-3.23,1.67c-0.01,0.01-0.02,0.03-0.01,0.04c0.01,0.02,0.03,0.02,0.04,0.01C42.75,33.59,43.74,33.5,43.74,33.5z"
				/>
		</g>
		<g>
			<path class="st22" d="M78.33,27.11c-0.01,0-0.01,0-0.02,0C78.32,27.11,78.33,27.1,78.33,27.11c0-0.01-0.02-0.01-0.06,0
				c-2.16,0.1-1.99-1.25-1.99-1.25c-2,1.05-1.01-0.58-1.01-0.58c-2.32,1.02-1.4-0.94-1.4-0.94c-1.67,1.17-1.16-0.13-1.16-0.13
				c-1.54,0.83-0.75-0.59-0.75-0.59l-1.08,0.41l-0.14-0.58c-1.87,0.76-0.67-1.32-0.67-1.32l-0.88,0.62l-0.22-0.92l-0.9,0.52
				l-0.08-0.34c-0.86,0.46-1.27,1.53-1.27,1.53l-0.3-0.39c-0.65,3.9-1.97,2.68-1.97,2.68c-1.25-0.73,2.13-3.69,2.13-3.69
				c-1.06,0.05,0.34-1.72,0.34-1.72c-1.07,0.31-0.59-1.65-0.59-1.65c0.46-1.49-1.28,0-1.28,0l-0.38-0.52l-1.25,0.76l-0.17-0.73
				c-0.53,0.33-1.25,0.97-1.25,0.97l-0.41-0.82c-0.62,0.61-1.12,1.71-1.12,1.71l-0.49-0.75l-0.56,1.06l-0.84-0.72
				c-0.27,1.86-1.23,1.5-1.23,1.5c1.42,2.71,0.5,2.93,0.5,2.93c-0.99,0.8-1.73-1.63-1.73-1.63c-0.15,1.06-0.91,0.29-0.91,0.29
				c-1.58-2.12-1.55,0.56-1.55,0.56c-1.09-0.45-0.49,0.94-0.49,0.94l-0.77,0.19c0.33,0.59,0.33,0.94,0.22,1.15
				c0.14,0.03,0.28,0.07,0.42,0.11c2.22,0.72,3.48,3.11,3.14,5.63c2.28-1.19,3.42,0.16,3.47,0.22c-0.02,0.08-0.53,2.25-4.05,1.68
				c-0.28,0.57-0.64,1.08-1.05,1.52c0.91,1.11,1.36,2.69,1.09,4.34c-0.04,0.26-0.1,0.5-0.17,0.74c-0.01,0.06-0.01,0.13-0.03,0.21
				c0,0,1.06-0.51,0.99,1.14l0.78-0.19c0,0,0.1,1.51,0.86,0.61c0,0,1.19,2.4,1.64-0.2c0,0,0.32-1.04,0.94-0.16
				c0,0-0.45-2.51,0.79-2.24c0,0,0.92-0.23,0.88,2.83c0,0,0.69-0.75,1.78,0.78l0.42-1.02l0.98,0.69l0.09-0.89c0,0,0.95,0.74,1.78,1
				l-0.02-0.92c0,0,0.93,0.24,1.56,0.29l-0.18-0.73l1.46,0.11l0.1-0.64c0,0,2.23,0.54,1.14-0.58c0,0-1.32-1.53-0.23-1.74
				c0,0-2.06-0.94-1.08-1.38c0,0-4.36-1.1-3.58-2.32c0,0,0.62-1.68,2.97,1.49l0.09-0.49c0,0,0.85,0.77,1.83,0.79l-0.08-0.34
				l1.04,0.06l-0.22-0.92l1.06,0.15c0,0-2.01-1.31,0-1.48l-0.14-0.58l1.15-0.12c0,0-1.35-0.91,0.41-0.87c0,0-1.04-0.93,0.97-0.65
				c0,0-1.7-1.33,0.82-1.48c0,0-1.62-0.99,0.64-0.97c0,0-0.77-1.12,1.2-2.02C78.32,27.12,78.33,27.11,78.33,27.11z"/>
			<path class="st78" d="M59.93,31.54c0-0.01,0-0.01,0-0.02c0-0.07,0.04-0.13,0.11-0.14c6.53-0.64,17.37-4.18,17.48-4.21
				c0.07-0.02,0.14,0.02,0.16,0.08c0.02,0.07-0.01,0.14-0.08,0.16c-0.11,0.04-10.98,3.59-17.54,4.22
				C60,31.64,59.94,31.6,59.93,31.54z"/>
			<path class="st78" d="M61.14,31.46c-0.01-0.04,0.01-0.09,0.06-0.1c0.04-0.01,0.09,0.01,0.1,0.06c0.02,0.07,1.85,6.4,9.14,8.45
				c0.05,0.01,0.07,0.06,0.06,0.11c-0.02,0.04-0.06,0.07-0.11,0.06C63.02,37.95,61.16,31.52,61.14,31.46
				C61.14,31.46,61.14,31.46,61.14,31.46z"/>
			<path class="st78" d="M61.16,31.31c-2.51-5.88,4.39-11.42,4.46-11.47c0.03-0.03,0.04-0.08,0.02-0.12
				c-0.02-0.04-0.06-0.06-0.1-0.03c-0.02,0.01-1.79,1.42-3.22,3.55c-1.32,1.97-1.94,3.93-1.84,5.78c0.05,0.82,0.23,1.61,0.56,2.37
				c0.02,0.04,0.06,0.06,0.09,0.04C61.17,31.41,61.18,31.36,61.16,31.31z"/>
			<path class="st78" d="M58.06,40.03c-0.81-3.36,2.83-8.41,3.01-8.65c0.03-0.04,0.08-0.05,0.12-0.02c0.04,0.03,0.05,0.08,0.02,0.12
				c-0.05,0.06-4.55,6.3-2.59,9.45c0.02,0.04,0.01,0.09-0.03,0.12c-0.04,0.02-0.09,0.02-0.11-0.03
				C58.28,40.72,58.14,40.38,58.06,40.03z"/>
			<path class="st78" d="M61.23,31.29c-4.64-2.62-6.62-7.67-6.64-7.72c-0.02-0.04-0.06-0.07-0.11-0.05
				c-0.04,0.02-0.06,0.06-0.05,0.1c0,0,0.01,0.01,0.01,0.01c0.02,0.05,2.01,5.16,6.71,7.81c0.04,0.02,0.09,0.01,0.12-0.03
				C61.28,31.37,61.27,31.31,61.23,31.29z"/>
			<path class="st78" d="M64.42,30.63c-0.41-1.71,4.43-7.33,4.64-7.57c0.03-0.03,0.08-0.04,0.12-0.01c0.03,0.03,0.04,0.08,0.01,0.12
				c-0.05,0.06-5.14,5.97-4.58,7.49c0.01,0.04-0.01,0.09-0.05,0.1c-0.04,0.02-0.09-0.01-0.11-0.05
				C64.43,30.68,64.43,30.65,64.42,30.63z"/>
			<path class="st78" d="M67.67,30.12c0-0.01,0-0.02,0-0.03c0.25-1.63,3.4-5.52,3.53-5.68c0.03-0.03,0.08-0.04,0.12-0.01
				c0.04,0.03,0.04,0.08,0.01,0.12c-0.03,0.04-3.25,4.01-3.49,5.6c-0.01,0.05-0.05,0.08-0.1,0.07
				C67.71,30.18,67.68,30.15,67.67,30.12z"/>
			<path class="st78" d="M71.95,28.97c0-0.01,0-0.02,0-0.03c0.96-1.93,2.39-2.97,2.4-2.98c0.02-0.01,0.05-0.01,0.06,0.01
				c0.01,0.02,0.01,0.04-0.01,0.06c-0.01,0.01-1.42,1.04-2.37,2.95C72.02,29,71.99,29.01,71.97,29
				C71.96,28.99,71.95,28.98,71.95,28.97z"/>
			<path class="st78" d="M64.5,30.97c0.36,1.49,7.11,3.76,7.4,3.86c0.04,0.01,0.09-0.01,0.11-0.04c0.02-0.04,0-0.08-0.04-0.09
				c-0.07-0.02-7.17-2.41-7.32-3.82c0-0.04-0.04-0.07-0.09-0.06c-0.04,0.01-0.08,0.04-0.08,0.08C64.49,30.92,64.5,30.95,64.5,30.97z
				"/>
			<path class="st78" d="M67.6,30.07c0,0.01,0.01,0.02,0.01,0.03c0.87,1.11,5.11,2.72,5.29,2.78c0.04,0.01,0.09,0,0.11-0.04
				c0.01-0.04,0-0.08-0.04-0.09c-0.04-0.02-4.38-1.66-5.23-2.74c-0.02-0.03-0.07-0.04-0.11-0.01C67.6,30.01,67.59,30.04,67.6,30.07z
				"/>
			<path class="st78" d="M71.96,29.02c0.01,0.01,0.01,0.01,0.02,0.02c1.71,0.79,3.51,0.86,3.53,0.85c0.02,0,0.05-0.01,0.06-0.03
				c0-0.02-0.01-0.03-0.03-0.03c-0.02,0-1.8-0.06-3.5-0.85c-0.02-0.01-0.05,0-0.07,0.01C71.96,29.01,71.96,29.01,71.96,29.02z"/>
			<path class="st78" d="M62.47,22.75c-0.44-1.83,0.38-3.65,0.39-3.67c0.01-0.02,0.03-0.03,0.06-0.02s0.03,0.03,0.02,0.06
				c-0.01,0.02-0.87,1.92-0.34,3.77c0.01,0.02-0.01,0.05-0.03,0.05c-0.02,0-0.04-0.01-0.05-0.03C62.5,22.86,62.49,22.8,62.47,22.75z
				"/>
			<path class="st78" d="M60.9,25.59c-0.66-2.75,0.17-5.56,0.18-5.59c0.01-0.02,0.03-0.04,0.05-0.03c0.02,0,0.04,0.03,0.03,0.05
				c-0.01,0.03-0.88,2.96-0.12,5.75l0,0c0,0.02-0.01,0.04-0.03,0.05c-0.02,0.01-0.05-0.01-0.05-0.03
				C60.94,25.73,60.92,25.66,60.9,25.59z"/>
			<path class="st78" d="M60.54,29.09c-2.33-4.27-1.64-7.66-1.63-7.69c0.01-0.02-0.01-0.04-0.03-0.05c-0.03,0-0.05,0.01-0.05,0.03
				c-0.01,0.02-0.35,1.7,0.25,4.18c0.26,1.06,0.69,2.28,1.4,3.57c0.01,0.02,0.04,0.03,0.06,0.02
				C60.54,29.14,60.55,29.11,60.54,29.09z"/>
			<path class="st78" d="M61.6,24.51c0-0.02,0-0.03,0.01-0.04c1.33-1.55,3.73-1.81,3.75-1.81c0.02,0,0.04,0.02,0.04,0.04
				c0.01,0.02-0.01,0.04-0.04,0.05c-0.02,0-2.39,0.26-3.7,1.78c-0.01,0.02-0.04,0.02-0.06,0.01C61.61,24.53,61.6,24.52,61.6,24.51z"
				/>
			<path class="st78" d="M62.4,37.61c-0.29-1.22-0.54-2.72-0.57-4.42c0-0.02,0.02-0.04,0.04-0.04c0.02,0,0.04,0.02,0.04,0.04
				c0.1,4.65,1.75,7.81,1.77,7.84c0.01,0.02,0,0.05-0.02,0.06c-0.02,0.01-0.05,0-0.06-0.01C63.6,41.04,62.92,39.75,62.4,37.61z"/>
			<path class="st78" d="M64.85,38.52c-0.24-0.99-0.21-1.76-0.21-1.78c0-0.02,0.02-0.04,0.05-0.04c0.02,0,0.04,0.02,0.04,0.04
				c0,0.03-0.11,3.2,2.15,4.92c0.02,0.01,0.02,0.04,0.01,0.06c-0.01,0.02-0.04,0.02-0.06,0.01C65.65,40.84,65.1,39.56,64.85,38.52z"
				/>
			<path class="st78" d="M66.86,39.08c-0.1-0.41-0.1-0.7-0.1-0.7c0-0.02,0.02-0.04,0.04-0.04c0.02,0,0.04,0.02,0.04,0.04
				c0,0.02-0.01,1.79,1.63,2.94c0.02,0.01,0.02,0.04,0.01,0.06c-0.01,0.02-0.04,0.02-0.06,0.01C67.41,40.67,67.01,39.72,66.86,39.08
				z"/>
			<path class="st78" d="M63.95,35.95C63.94,35.95,63.94,35.94,63.95,35.95c0-0.03,0.02-0.05,0.04-0.05
				c2.58,0.05,5.63,1.3,5.65,1.32c0.02,0.01,0.03,0.03,0.03,0.05c-0.01,0.02-0.03,0.03-0.06,0.02c-0.03-0.01-3.05-1.26-5.63-1.31
				C63.97,35.98,63.95,35.97,63.95,35.95z"/>
			<path class="st78" d="M59.84,33.51c-0.01-0.02-0.03-0.03-0.06-0.02c-0.03,0.01-2.82,1.2-4.2,3.56c0.01,0.04,0.02,0.09,0.02,0.13
				c1.34-2.39,4.17-3.59,4.2-3.61C59.84,33.56,59.85,33.53,59.84,33.51z"/>
			<path class="st78" d="M56.65,40.23C56.65,40.23,56.65,40.23,56.65,40.23c-0.36-2.66,1.74-3.88,1.76-3.89
				c0.02-0.01,0.05,0,0.06,0.02c0.01,0.02,0,0.05-0.02,0.06c-0.02,0.01-2.07,1.21-1.72,3.8c0,0.02-0.01,0.05-0.04,0.05
				C56.67,40.26,56.65,40.25,56.65,40.23z"/>
			<path class="st78" d="M58.8,35.65c0-0.02,0-0.03,0.01-0.04c0.02-0.02,0.05-0.01,0.06,0.01c0.03,0.04,0.85,1.14,1.5,4.97
				c0,0.02-0.01,0.04-0.04,0.05c-0.02,0-0.04-0.01-0.05-0.04c-0.64-3.81-1.47-4.92-1.48-4.93C58.8,35.67,58.8,35.66,58.8,35.65z"/>
			<path class="st78" d="M59.58,30.34c0.02,0,0.04-0.02,0.04-0.05s-0.02-0.04-0.05-0.04c-0.03,0-1.65,0.12-3.4-0.39
				c0,0.03,0.01,0.06,0.01,0.09C57.95,30.45,59.56,30.34,59.58,30.34z"/>
			<path class="st78" d="M57.45,28.38c0.02,0,0.04-0.02,0.05-0.04c0-0.02-0.02-0.04-0.04-0.05c-0.03,0-2.4-0.13-3.27-2.6
				c-0.01-0.02-0.03-0.03-0.05-0.03c-0.02,0.01-0.03,0.03-0.03,0.05c0,0,0,0,0,0c0.12,0.35,0.28,0.66,0.45,0.93
				c0.27,0.24,0.51,0.52,0.72,0.81C56.29,28.32,57.44,28.38,57.45,28.38z"/>
			<path class="st78" d="M54.57,26.65c0.22,0.33,0.46,0.6,0.72,0.81C55.08,27.16,54.84,26.89,54.57,26.65z"/>
			<path class="st78" d="M58.52,29.36c0,0.01,0,0.01,0,0.02c0,0.02,0.01,0.02,0.03,0.03c0.02,0,0.05-0.01,0.05-0.03
				c0.01-0.05,0.27-1.28-0.81-4.61c-0.01-0.02-0.03-0.03-0.05-0.03c-0.02,0.01-0.03,0.03-0.03,0.05
				C58.79,28.1,58.52,29.35,58.52,29.36z"/>
		</g>
		<path class="st180" d="M7.08,59.54c-0.08-0.79-0.2-3.54,3.96-7.88c5.05-5.28,9.12-5.29,16.32-8.95
			c8.42-4.27,18.66-12.27,23.68-16.64c1.18-1.03,4.08-3.6,8.12-3.75c0.7-0.03,4.43-0.09,6.71,2.33c3.25,3.44,1.42,9.67,0.81,11.76
			c-3,10.25-12.39,15.74-26.93,23.98c-15.89,9-20.92,8.4-23.85,7.45C12.56,66.77,7.52,63.83,7.08,59.54z"/>
		
			<ellipse transform="matrix(0.9682 -0.2501 0.2501 0.9682 -14.8354 3.8768)" class="st182" cx="7.84" cy="60.32" rx="1.24" ry="2.64"/>
		<polygon class="st180" points="62.98,23.08 64.65,21.87 67.4,23.45 68.94,27.99 67.7,29.19 		"/>
		<g>
			<defs>
				<path id="SVGID_3_" d="M7.08,59.54c-0.08-0.79-0.2-3.54,3.96-7.88c5.05-5.28,9.12-5.29,16.32-8.95
					c8.42-4.27,18.66-12.27,23.68-16.64c1.18-1.03,4.08-3.6,8.12-3.75c0.7-0.03,4.43-0.09,6.71,2.33c3.25,3.44,1.42,9.67,0.81,11.76
					c-3,10.25-12.39,15.74-26.93,23.98c-15.89,9-20.92,8.4-23.85,7.45C12.56,66.77,7.52,63.83,7.08,59.54z"/>
			</defs>
			<clipPath id="SVGID_2_">
				<use xlink:href="#SVGID_3_"  style="overflow:visible;"/>
			</clipPath>
			<g class="st117">
				<path class="st181" d="M11.23,56.77c0,0,4.7-3.81,6.31-4.79c5.69-3.46,10.33-5.42,11.8-6.06c7.94-3.45,13.47-7.53,24.54-15.68
					c4.98-3.67,8.07-4.42,10.16-7.96c1.13-1.91,2-4.37,3.35-4.33c1.08,0.04,2.17,1.67,2.31,3.12c0.33,3.38-4.49,6.25-8.75,9
					c-13.25,8.55-9.12,8.18-20.14,14.74c-1.82,1.09-10.96,6.46-23.18,10.56C12.27,57.18,11.23,56.77,11.23,56.77z"/>
				<path class="st181" d="M11.31,61.21c0.03-0.09,1.54,0.38,3.2,0.61c4.03,0.56,7.47-0.54,10.43-1.69
					c18.8-7.29,28.24-15.14,28.24-15.14c2.17-1.8,12.93-10.75,15.08-16.5c0.19-0.51,1.14-3.21,2.06-3.12
					c0.54,0.05,0.85,1.05,0.94,1.36c1.08,3.51-2.73,8.6-3.12,9.1c-6.76,8.85-19.98,16.91-22.48,18.41
					C28.55,64.54,24.16,64.81,20.76,64.3C16.44,63.65,11.26,61.38,11.31,61.21z"/>
				<path class="st184" d="M17.89,58.01c-0.07-0.35,5.38-1.17,11.48-3.52c13.33-5.14,21.22-14.33,21.66-13.85
					c0.26,0.29-2.55,3.47-5.54,6.12c-7.54,6.7-15.1,9.08-17.73,9.81C22.71,58,17.96,58.33,17.89,58.01z"/>
			</g>
		</g>
		<g>
			<path class="st185" d="M68.21,30.73c-0.2,0.14-1.18,0.82-2.02,1.79c-0.62-1.45-1.5-2.7-1.59-2.82c-0.82-1.24-4.56-3.43-4.56-3.43
				s-1.86,4.25-1.21,6.8c0.07,0.27,0.46,1.72,1.28,2.95c-1.91-0.54-4.34-0.32-4.53-0.31c-1.48,0.08-5.26,2.21-5.26,2.21
				s2.73,3.75,5.26,4.47c0.26,0.08,1.67,0.46,3.12,0.39c-0.04,1.02,0.04,1.84,0.05,1.95c0.1,1.49,2.71,5.43,2.71,5.43
				s4.65-2.48,5.55-4.97c0.03-0.09,0.11-0.31,0.19-0.62c1.03,0.48,1.94,0.73,2.05,0.76c1.43,0.45,6.05-0.55,6.05-0.55
				s-0.62-5.24-2.61-6.98c-0.11-0.1-0.49-0.42-1.04-0.77c0.92-0.94,1.57-1.88,1.65-1.98c0.89-1.19,1.69-5.44,1.69-5.44
				S70.39,29.26,68.21,30.73z"/>
			<g>
				<path class="st186" d="M64.45,37.47c-1.69-2.09-2.81-4.52-3.27-7.17c0-0.01-0.03,0-0.02,0.01c0.37,2.63,1.5,5.18,3.25,7.19
					C64.42,37.52,64.46,37.49,64.45,37.47L64.45,37.47z"/>
			</g>
			<g>
				<path class="st186" d="M64.66,37.75c1.38-1.83,3.06-3.37,5.04-4.54c0.03-0.02,0.04-0.06,0-0.03c-2,1.12-3.77,2.69-5.08,4.57
					C64.6,37.78,64.65,37.76,64.66,37.75L64.66,37.75z"/>
			</g>
			<g>
				<path class="st186" d="M65.55,38.27c1.32,0.33,2.58,0.9,3.7,1.68c1.16,0.81,2.11,1.83,3.05,2.87c0.02,0.03,0.09-0.03,0.08-0.06
					c-1.34-2.42-4.17-3.96-6.79-4.52C65.56,38.24,65.54,38.27,65.55,38.27L65.55,38.27z"/>
			</g>
			<g>
				<path class="st186" d="M64.58,37.88c0.11,2.8-0.49,5.59-1.85,8.04c-0.01,0.02,0.03,0,0.03-0.01c1.51-2.38,2.22-5.25,1.85-8.05
					C64.61,37.85,64.58,37.87,64.58,37.88L64.58,37.88z"/>
			</g>
			<g>
				<path class="st186" d="M63.95,38.03c-1.33,0.61-2.72,1.05-4.17,1.23c-1.48,0.19-2.93,0.09-4.4-0.15c-0.02,0-0.07,0.05-0.06,0.05
					c2.83,0.68,6.05,0.22,8.62-1.12C63.94,38.05,63.96,38.03,63.95,38.03L63.95,38.03z"/>
			</g>
			<circle class="st187" cx="64.49" cy="37.95" r="2.68"/>
			<circle class="st188" cx="64.49" cy="37.95" r="1.89"/>
			<circle class="st189" cx="64.49" cy="37.95" r="0.59"/>
		</g>
	</g>
</g>
</svg>
