<?xml version="1.0" encoding="utf-8"?>
<!-- Generator: Adobe Illustrator 23.1.0, SVG Export Plug-In . SVG Version: 6.00 Build 0)  -->
<svg version="1.1" xmlns="http://www.w3.org/2000/svg" xmlns:xlink="http://www.w3.org/1999/xlink" x="0px" y="0px"
	 viewBox="0 0 80 80" style="enable-background:new 0 0 80 80;" xml:space="preserve">
<style type="text/css">
	.st0{fill:#6F8653;}
	.st1{fill:#EBB044;}
	.st2{fill:#EEC27E;}
	.st3{fill:#DBA44B;}
	.st4{fill:#725846;}
	.st5{fill:#E8CA48;}
	.st6{fill:#F2DC7D;}
	.st7{fill:#CDB44D;}
	.st8{fill:#F8F8E1;}
	.st9{fill:#E4D049;}
	.st10{fill:#EDDC60;}
	.st11{fill:#E7E474;}
	.st12{fill:#809764;}
	.st13{fill:#46684B;}
	.st14{fill:#4D724F;}
	.st15{fill:#7D8E54;}
	.st16{fill:#4E7553;}
	.st17{fill:#456449;}
	.st18{fill:#415E46;}
	.st19{fill:#D6E06F;}
	.st20{fill:#A46246;}
	.st21{fill:#A97361;}
	.st22{fill:#6D8A56;}
	.st23{fill:#DB7B43;}
	.st24{fill:#EDB862;}
	.st25{fill:#DD8347;}
	.st26{fill:#E09A79;}
	.st27{fill:#D76B43;}
	.st28{fill:#C66849;}
	.st29{fill:#8E8079;}
	.st30{fill:#D98065;}
	.st31{fill:#C56647;}
	.st32{fill:#EFD9BA;}
	.st33{fill:#D45D45;}
	.st34{fill:#DD8075;}
	.st35{fill:#DAC6AD;}
	.st36{fill:#657F51;}
	.st37{fill:#556946;}
	.st38{fill:#7D9657;}
	.st39{fill:#7B706B;}
	.st40{fill:#93A47A;}
	.st41{fill:#6A7E4F;}
	.st42{fill:#E7E5D1;}
	.st43{fill:#CFD26A;}
	.st44{fill:#EDF0BC;}
	.st45{fill:#B6AA50;}
	.st46{fill:#A39C74;}
	.st47{fill:#D1C474;}
	.st48{fill:#93854C;}
	.st49{fill:#867B4A;}
	.st50{fill:#291D10;}
	.st51{fill:#AA9B50;}
	.st52{fill:#E5D263;}
	.st53{fill:#DC7F44;}
	.st54{fill:#E0956D;}
	.st55{fill:#EAAB44;}
	.st56{fill:#8CAC59;}
	.st57{fill:#657E4F;}
	.st58{fill:#97A779;}
	.st59{fill:#D14A4A;}
	.st60{fill:#97C35A;}
	.st61{fill:#89A559;}
	.st62{fill:#CB7A5E;}
	.st63{fill:#BE725E;}
	.st64{fill:#B16955;}
	.st65{fill:#D18D7D;}
	.st66{fill:#5D4837;}
	.st67{fill:#9C5B44;}
	.st68{fill:#D69747;}
	.st69{fill:#6A8E58;}
	.st70{fill:#80A071;}
	.st71{fill:#F1EB66;}
	.st72{fill:#EAC647;}
	.st73{fill:#F3EA8A;}
	.st74{fill:#CEA04A;}
	.st75{fill:#473321;}
	.st76{fill:#93AD7C;}
	.st77{fill:#EFD1A2;}
	.st78{fill:#91A87A;}
	.st79{fill:#6E8E42;}
	.st80{fill:#586889;}
	.st81{fill:#77859F;}
	.st82{fill:#83A25A;}
	.st83{fill:#B2C495;}
	.st84{fill:#947659;}
	.st85{fill:#4E6E4F;}
	.st86{fill:#524160;}
	.st87{fill:#3D3649;}
	.st88{fill:#6B5C7A;}
	.st89{fill:#2F3338;}
	.st90{fill:#212428;}
	.st91{fill:#282D32;}
	.st92{fill:#42484E;}
	.st93{fill:#252B2E;}
	.st94{fill:#6B3F3C;}
	.st95{fill:#645E57;}
	.st96{fill:#517E55;}
	.st97{fill:#2E4135;}
	.st98{fill:none;}
	.st99{fill:#6E8B70;}
	.st100{fill:#3D5545;}
	.st101{fill:#628A64;}
	.st102{fill:#F9F9E3;}
	.st103{fill:#D96F60;}
	.st104{fill:#C0645A;}
	.st105{fill:#543E2C;}
	.st106{fill:#7F4B49;}
	.st107{fill:#9E6345;}
	.st108{fill:#994D49;}
	.st109{fill:#A46A69;}
	.st110{fill:#8F5B42;}
	.st111{fill:#8E4948;}
	.st112{fill:#85986E;}
	.st113{fill:#6D7290;}
	.st114{fill:#626880;}
	.st115{fill:#9C9385;}
	.st116{fill:#F2D55A;}
	.st117{clip-path:url(#SVGID_2_);}
	.st118{fill:#E2AC54;}
	.st119{opacity:0.31;fill:#F9EFC5;}
	.st120{opacity:0.31;fill:#FFFBE9;}
	.st121{fill:#DDC862;}
	.st122{fill:#FFF3C2;}
	.st123{fill:#E8C046;stroke:#7A695F;stroke-width:0.15;stroke-miterlimit:10;}
	.st124{fill:#DBB248;}
	.st125{fill:#6F5753;}
	.st126{fill:#E8C046;stroke:#77655B;stroke-width:0.15;stroke-miterlimit:10;}
	.st127{fill:#83A15C;}
	.st128{fill:#698C3C;}
	.st129{fill:#809D5B;}
	.st130{fill:#4A6224;}
	.st131{fill:#85A55C;}
	.st132{fill:#506B26;}
	.st133{fill:#82A15B;}
	.st134{fill:#698958;}
	.st135{fill:#DD8344;}
	.st136{fill:#B56721;}
	.st137{fill:#C2463A;}
	.st138{fill:#CC6E64;}
	.st139{fill:#5EA817;}
	.st140{fill:#5F8F22;}
	.st141{fill:#C24F3C;}
	.st142{fill:#AB4A39;}
	.st143{fill:#BB413C;}
	.st144{fill:#EA7142;}
	.st145{fill:#ED835B;}
	.st146{fill:#E76D18;}
	.st147{fill:#56734E;}
	.st148{fill:#CBC797;}
	.st149{fill:#F1F0E1;}
	.st150{fill:#DBD9CA;}
	.st151{fill:#496042;}
	.st152{fill:#547534;}
	.st153{fill:#C0D591;}
	.st154{fill:#B3C483;}
	.st155{fill:#DFEAC1;}
	.st156{fill:#D5DDB8;}
	.st157{fill:#577F36;}
	.st158{fill:#4D6D2F;}
	.st159{fill:#4F6B32;}
	.st160{fill:#AAC654;}
	.st161{fill:#A0B252;}
	.st162{fill:#9B3743;}
	.st163{fill:#A34D5B;}
	.st164{fill:#75434B;}
	.st165{fill:#80333D;}
	.st166{fill:#722F3A;}
	.st167{fill:#8E424F;}
	.st168{fill:#A5273F;}
	.st169{fill:#9B2944;}
	.st170{fill:#93B250;}
	.st171{fill:#778950;}
	.st172{fill:#B1B297;}
	.st173{fill:#5D6B3E;}
	.st174{fill:#769328;}
	.st175{fill:#B9BC9D;}
	.st176{fill:#B4CE6E;}
	.st177{fill:#CCCEAF;}
	.st178{fill:#AEAF94;}
	.st179{fill:#E8C046;stroke:#7F6D62;stroke-width:0.15;stroke-miterlimit:10;}
	.st180{fill:#B7C661;}
	.st181{fill:#CED893;stroke:#ACB25F;stroke-width:0.5;stroke-miterlimit:10;}
	.st182{fill:#D79F4A;}
	.st183{clip-path:url(#SVGID_4_);}
	.st184{fill:#CDD98D;}
	.st185{fill:#FADA37;}
	.st186{fill:#CCB244;}
	.st187{fill:#FAE089;}
	.st188{fill:#FFED90;}
	.st189{fill:#ECDB6F;}
	.st190{fill:#FECF73;}
	.st191{fill:#CEA865;}
	.st192{fill:#EDDFCA;}
	.st193{fill:#EBDECA;}
	.st194{fill:#638408;}
	.st195{fill:#CE9F41;}
	.st196{fill:#F7BA23;}
	.st197{fill:#EAAE2A;}
	.st198{fill:#F2CE36;}
	.st199{fill:#F9D53D;}
	.st200{fill:#FCDA4F;}
	.st201{fill:#F7E289;}
	.st202{fill:#668F05;}
	.st203{fill:#597214;}
	.st204{fill:#8BA040;}
	.st205{fill:#7AA122;}
	.st206{fill:#95BB28;}
	.st207{fill:#E7F2A6;}
	.st208{fill:#C4CC75;}
	.st209{fill:#87A82C;}
	.st210{fill:#9FBF45;}
	.st211{fill:#728E25;}
	.st212{fill:#7D4E30;}
	.st213{fill:#3F5A2F;}
	.st214{fill:#4B7837;}
	.st215{fill:#85A93F;}
	.st216{fill:#693F26;}
	.st217{fill:#8C7668;}
	.st218{fill:#EDE9E6;}
	.st219{fill:#FFFDFC;}
	.st220{fill:#846F5C;}
	.st221{clip-path:url(#SVGID_6_);}
	.st222{fill:#B2A594;}
	.st223{fill:#E4DDD5;}
	.st224{fill:#A16D46;}
	.st225{fill:#9A8E42;}
	.st226{fill:#BBB061;}
	.st227{fill:#A08F41;}
	.st228{fill:#C1AD56;}
	.st229{opacity:0.7;}
	.st230{fill:#DACA7F;}
	.st231{fill:#EEE49F;}
	.st232{opacity:0.5;}
	.st233{fill:#FFF9D7;}
	.st234{fill:#7C7F32;}
	.st235{fill:#95A84C;}
	.st236{fill:#D8B45C;}
	.st237{fill:#FCC572;}
	.st238{fill:#FED49A;}
	.st239{fill:#C0782C;}
	.st240{fill:#D49430;}
	.st241{fill:#F5D19D;}
	.st242{opacity:0.35;}
	.st243{fill:#F9AFC9;}
	.st244{fill:#F9CDDE;}
	.st245{fill:#FFF3F8;}
	.st246{fill:#F4A2C3;}
	.st247{fill:#FFFFFF;}
	.st248{fill:#D7F2F9;}
	.st249{fill:#492743;}
	.st250{fill:#20131D;}
	.st251{fill:#685364;}
	.st252{fill:#748115;}
	.st253{fill:#A7B86A;}
</style>
<g id="Слой_1">
	<g>
		<path class="st22" d="M36.8,17.02c0,0-5.21,8.05,4.13,16.58C45.18,21.69,36.8,17.02,36.8,17.02z"/>
		<g>
			<path class="st22" d="M16.2,56.04c-5.34-0.96-8.89,1.95-8.89,1.95s4.35,6.08,13.21,3.67C18.59,60.25,17.08,58.3,16.2,56.04z"/>
			<path class="st22" d="M19.59,70.63c0,0,6.33,0.1,7.5-6.58c-1.85-0.12-3.6-0.64-5.14-1.48C17.98,65.82,19.59,70.63,19.59,70.63z"
				/>
		</g>
		<path class="st22" d="M53.36,8.81c0,0-7.25,5.32-0.69,14.73C60.09,14.78,53.36,8.81,53.36,8.81z"/>
		<path class="st22" d="M67.31,8.28c0,0-8.99,0.26-8.94,11.73C69.45,17.02,67.31,8.28,67.31,8.28z"/>
		<path class="st22" d="M52.43,28.53c-0.84,0.8-1.94,1.8-2.44,2.26c7.21,4.99,12.37,0.44,12.37,0.44S58.95,26.83,52.43,28.53z"/>
		<path class="st22" d="M44.22,36.47c-0.39-0.07-0.8-0.12-1.25-0.13c-1.59,1.19-3.08,2.13-3.76,2.54c0.59,0.35,1.15,0.63,1.7,0.84
			c4.45,1.72,7.45-0.93,7.45-0.93S46.95,36.98,44.22,36.47z"/>
		<path class="st22" d="M36.4,37.2c0,0-0.85-5.97-8.81-6.17C30.5,38.45,36.4,37.2,36.4,37.2z"/>
		<g>
			<g>
				<g>
					<path class="st89" d="M55.6,35.22c-6.43,0-11.68,5.04-12.03,11.38c0.74-0.13,1.49-0.2,2.27-0.2c6.99,0,12.69,5.56,12.91,12.5
						c5.12-1.38,8.89-6.06,8.89-11.63C67.65,40.62,62.26,35.22,55.6,35.22z"/>
					<g>
						<path class="st90" d="M61.97,37.63c-2.36-1.38-5.05-1.17-6.02,0.47c-0.97,1.65,0.17,4.1,2.52,5.48
							c2.36,1.39,5.05,1.18,6.02-0.47C65.46,41.47,64.33,39.02,61.97,37.63z"/>
						<path class="st91" d="M61.71,38.06c-2.02-1.18-4.32-1-5.14,0.4c-0.82,1.4,0.14,3.5,2.16,4.69c2.02,1.18,4.32,1,5.14-0.4
							C64.69,41.35,63.73,39.25,61.71,38.06z"/>
						<path class="st90" d="M61.25,38.86c-1.38-0.81-2.96-0.69-3.53,0.28c-0.57,0.96,0.1,2.4,1.48,3.22
							c1.38,0.81,2.96,0.69,3.53-0.28C63.29,41.11,62.63,39.67,61.25,38.86z"/>
					</g>
				</g>
				<path class="st92" d="M47.06,40.83c-0.11,0-0.22-0.03-0.31-0.09c-0.26-0.17-0.34-0.53-0.17-0.8c0.1-0.15,2.5-3.74,7.95-4.14
					c0.32-0.02,0.59,0.21,0.61,0.53c0.02,0.32-0.21,0.59-0.53,0.62c-4.89,0.36-7.06,3.59-7.08,3.63
					C47.43,40.74,47.25,40.83,47.06,40.83z"/>
			</g>
			<g>
				<g>
					<path class="st89" d="M45.85,47.27c-6.65,0-12.05,5.39-12.05,12.05c0,6.65,5.39,12.05,12.05,12.05
						c6.65,0,12.05-5.39,12.05-12.05C57.89,52.66,52.5,47.27,45.85,47.27z"/>
					<g>
						<path class="st90" d="M44.61,55.38c-2.74,0-4.95,2.22-4.95,4.95c0,2.74,2.22,4.95,4.95,4.95c2.74,0,4.95-2.22,4.95-4.95
							C49.56,57.59,47.34,55.38,44.61,55.38z"/>
						<path class="st91" d="M44.61,56.1c-2.34,0-4.23,1.89-4.23,4.23c0,2.34,1.89,4.23,4.23,4.23c2.34,0,4.23-1.89,4.23-4.23
							C48.84,57.99,46.94,56.1,44.61,56.1z"/>
						<path class="st90" d="M44.61,57.43c-1.61,0-2.91,1.3-2.91,2.9c0,1.6,1.3,2.9,2.91,2.9c1.6,0,2.9-1.3,2.9-2.9
							C47.51,58.73,46.21,57.43,44.61,57.43z"/>
					</g>
				</g>
				<path class="st93" d="M44.28,69.44c-1.98,0-3.86-0.45-5.54-1.26c1.95,1.68,4.48,2.69,7.25,2.69c6.14,0,11.12-4.98,11.12-11.12
					c0-0.52-0.04-1.02-0.11-1.52C56.2,64.56,50.81,69.44,44.28,69.44z"/>
				<path class="st92" d="M36.93,53.66c-0.11,0-0.23-0.03-0.33-0.1c-0.26-0.18-0.32-0.54-0.14-0.8c0.14-0.2,3.44-4.81,9.14-4.81
					c0.09,0,0.17,0,0.26,0c0.32,0.01,0.57,0.27,0.56,0.59c-0.01,0.32-0.28,0.56-0.59,0.56c-0.07,0-0.15,0-0.22,0
					c-5.11,0-8.18,4.27-8.21,4.32C37.29,53.58,37.11,53.66,36.93,53.66z"/>
			</g>
			<g>
				<path class="st89" d="M28.65,39.12c-6.65,0-12.05,5.39-12.05,12.05c0,6.65,5.39,12.05,12.05,12.05c1.58,0,3.09-0.31,4.48-0.86
					c-0.23-0.97-0.36-1.99-0.36-3.03c0-5.18,3.01-9.65,7.37-11.77C38.61,42.66,34.04,39.12,28.65,39.12z"/>
				<path class="st92" d="M20.21,44.51c-0.13,0-0.25-0.04-0.36-0.13c-0.25-0.2-0.29-0.56-0.09-0.81c0.13-0.17,3.29-4.06,8.28-3.54
					c0.32,0.03,0.54,0.32,0.51,0.63c-0.03,0.32-0.32,0.55-0.63,0.51c-4.37-0.45-7.23,3.08-7.26,3.11
					C20.55,44.43,20.38,44.51,20.21,44.51z"/>
			</g>
		</g>
		<path class="st94" d="M34.21,38.76c0.69,0.36,1.35,0.77,1.97,1.23c2.16-1.03,5.19-2.74,8.83-5.52c-0.44-0.57-0.68-1.31-0.8-1.82
			C39.8,36.05,36.29,37.86,34.21,38.76z"/>
		<path class="st94" d="M54.22,24.11c0,0,1.42-1.18,3.23-1.66c0.08-0.34-0.02-0.7-0.3-0.95c-0.4-0.35-1-0.31-1.35,0.09
			c-2.34,2.67-4.6,4.96-6.72,6.92c-0.41,1.55-1.25,3.17-1.81,4.15c2.46-2.04,5.15-4.55,7.99-7.61
			C54.98,24.84,54.57,24.49,54.22,24.11z"/>
		<path class="st22" d="M54.7,24.13c7.8,6.31,13.49,1.27,13.49,1.27S63.54,19.39,54.7,24.13z"/>
		<path class="st22" d="M45.31,34.28c6.83-7.34,2.21-13.37,2.21-13.37S41.2,25.14,45.31,34.28z"/>
	</g>
</g>
<g id="Слой_2">
</g>
<g id="Слой_4">
</g>
<g id="Слой_3">
</g>
</svg>
