<?xml version="1.0" encoding="utf-8"?>
<!-- Generator: Adobe Illustrator 23.1.0, SVG Export Plug-In . SVG Version: 6.00 Build 0)  -->
<svg version="1.1" xmlns="http://www.w3.org/2000/svg" xmlns:xlink="http://www.w3.org/1999/xlink" x="0px" y="0px"
	 viewBox="0 0 80 80" style="enable-background:new 0 0 80 80;" xml:space="preserve">
<style type="text/css">
	.st0{fill:#6F8653;}
	.st1{fill:#EBB044;}
	.st2{fill:#EEC27E;}
	.st3{fill:#DBA44B;}
	.st4{fill:#725846;}
	.st5{fill:#E8CA48;}
	.st6{fill:#F2DC7D;}
	.st7{fill:#CDB44D;}
	.st8{fill:#F8F8E1;}
	.st9{fill:#E4D049;}
	.st10{fill:#EDDC60;}
	.st11{fill:#E7E474;}
	.st12{fill:#809764;}
	.st13{fill:#46684B;}
	.st14{fill:#4D724F;}
	.st15{fill:#7D8E54;}
	.st16{fill:#4E7553;}
	.st17{fill:#456449;}
	.st18{fill:#415E46;}
	.st19{fill:#D6E06F;}
	.st20{fill:#A46246;}
	.st21{fill:#A97361;}
	.st22{fill:#6D8A56;}
	.st23{fill:#DB7B43;}
	.st24{fill:#EDB862;}
	.st25{fill:#DD8347;}
	.st26{fill:#E09A79;}
	.st27{fill:#D76B43;}
	.st28{fill:#C66849;}
	.st29{fill:#8E8079;}
	.st30{fill:#D98065;}
	.st31{fill:#C56647;}
	.st32{fill:#EFD9BA;}
	.st33{fill:#D45D45;}
	.st34{fill:#DD8075;}
	.st35{fill:#DAC6AD;}
	.st36{fill:#657F51;}
	.st37{fill:#556946;}
	.st38{fill:#7D9657;}
	.st39{fill:#7B706B;}
	.st40{fill:#93A47A;}
	.st41{fill:#6A7E4F;}
	.st42{fill:#E7E5D1;}
	.st43{fill:#CFD26A;}
	.st44{fill:#EDF0BC;}
	.st45{fill:#B6AA50;}
	.st46{fill:#A39C74;}
	.st47{fill:#D1C474;}
	.st48{fill:#93854C;}
	.st49{fill:#867B4A;}
	.st50{fill:#291D10;}
	.st51{fill:#AA9B50;}
	.st52{fill:#E5D263;}
	.st53{fill:#DC7F44;}
	.st54{fill:#E0956D;}
	.st55{fill:#EAAB44;}
	.st56{fill:#8CAC59;}
	.st57{fill:#657E4F;}
	.st58{fill:#97A779;}
	.st59{fill:#D14A4A;}
	.st60{fill:#97C35A;}
	.st61{fill:#89A559;}
	.st62{fill:#CB7A5E;}
	.st63{fill:#BE725E;}
	.st64{fill:#B16955;}
	.st65{fill:#D18D7D;}
	.st66{fill:#5D4837;}
	.st67{fill:#9C5B44;}
	.st68{fill:#D69747;}
	.st69{fill:#6A8E58;}
	.st70{fill:#80A071;}
	.st71{fill:#F1EB66;}
	.st72{fill:#EAC647;}
	.st73{fill:#F3EA8A;}
	.st74{fill:#CEA04A;}
	.st75{fill:#473321;}
	.st76{fill:#93AD7C;}
	.st77{fill:#EFD1A2;}
	.st78{fill:#91A87A;}
	.st79{fill:#6E8E42;}
	.st80{fill:#586889;}
	.st81{fill:#77859F;}
	.st82{fill:#83A25A;}
	.st83{fill:#B2C495;}
	.st84{fill:#947659;}
	.st85{fill:#4E6E4F;}
	.st86{fill:#524160;}
	.st87{fill:#3D3649;}
	.st88{fill:#6B5C7A;}
	.st89{fill:#2F3338;}
	.st90{fill:#212428;}
	.st91{fill:#282D32;}
	.st92{fill:#42484E;}
	.st93{fill:#252B2E;}
	.st94{fill:#6B3F3C;}
	.st95{fill:#645E57;}
	.st96{fill:#517E55;}
	.st97{fill:#2E4135;}
	.st98{fill:none;}
	.st99{fill:#6E8B70;}
	.st100{fill:#3D5545;}
	.st101{fill:#628A64;}
	.st102{fill:#F9F9E3;}
	.st103{fill:#D96F60;}
	.st104{fill:#C0645A;}
	.st105{fill:#543E2C;}
	.st106{fill:#7F4B49;}
	.st107{fill:#9E6345;}
	.st108{fill:#994D49;}
	.st109{fill:#A46A69;}
	.st110{fill:#8F5B42;}
	.st111{fill:#8E4948;}
	.st112{fill:#85986E;}
	.st113{fill:#6D7290;}
	.st114{fill:#626880;}
	.st115{fill:#9C9385;}
	.st116{fill:#F2D55A;}
	.st117{clip-path:url(#SVGID_2_);}
	.st118{fill:#E2AC54;}
	.st119{opacity:0.31;fill:#F9EFC5;}
	.st120{opacity:0.31;fill:#FFFBE9;}
	.st121{fill:#DDC862;}
	.st122{fill:#FFF3C2;}
	.st123{fill:#E8C046;stroke:#7A695F;stroke-width:0.15;stroke-miterlimit:10;}
	.st124{fill:#DBB248;}
	.st125{fill:#6F5753;}
	.st126{fill:#E8C046;stroke:#77655B;stroke-width:0.15;stroke-miterlimit:10;}
	.st127{fill:#83A15C;}
	.st128{fill:#698C3C;}
	.st129{fill:#809D5B;}
	.st130{fill:#4A6224;}
	.st131{fill:#85A55C;}
	.st132{fill:#506B26;}
	.st133{fill:#82A15B;}
	.st134{fill:#698958;}
	.st135{fill:#DD8344;}
	.st136{fill:#B56721;}
	.st137{fill:#C2463A;}
	.st138{fill:#CC6E64;}
	.st139{fill:#5EA817;}
	.st140{fill:#5F8F22;}
	.st141{fill:#C24F3C;}
	.st142{fill:#AB4A39;}
	.st143{fill:#BB413C;}
	.st144{fill:#EA7142;}
	.st145{fill:#ED835B;}
	.st146{fill:#E76D18;}
	.st147{fill:#56734E;}
	.st148{fill:#CBC797;}
	.st149{fill:#F1F0E1;}
	.st150{fill:#DBD9CA;}
	.st151{fill:#496042;}
	.st152{fill:#547534;}
	.st153{fill:#C0D591;}
	.st154{fill:#B3C483;}
	.st155{fill:#DFEAC1;}
	.st156{fill:#D5DDB8;}
	.st157{fill:#577F36;}
	.st158{fill:#4D6D2F;}
	.st159{fill:#4F6B32;}
	.st160{fill:#AAC654;}
	.st161{fill:#A0B252;}
	.st162{fill:#9B3743;}
	.st163{fill:#A34D5B;}
	.st164{fill:#75434B;}
	.st165{fill:#80333D;}
	.st166{fill:#722F3A;}
	.st167{fill:#8E424F;}
	.st168{fill:#A5273F;}
	.st169{fill:#9B2944;}
	.st170{fill:#93B250;}
	.st171{fill:#778950;}
	.st172{fill:#B1B297;}
	.st173{fill:#5D6B3E;}
	.st174{fill:#769328;}
	.st175{fill:#B9BC9D;}
	.st176{fill:#B4CE6E;}
	.st177{fill:#CCCEAF;}
	.st178{fill:#AEAF94;}
	.st179{fill:#E8C046;stroke:#7F6D62;stroke-width:0.15;stroke-miterlimit:10;}
	.st180{fill:#B7C661;}
	.st181{fill:#CED893;stroke:#ACB25F;stroke-width:0.5;stroke-miterlimit:10;}
	.st182{fill:#D79F4A;}
	.st183{clip-path:url(#SVGID_4_);}
	.st184{fill:#CDD98D;}
	.st185{fill:#FADA37;}
	.st186{fill:#CCB244;}
	.st187{fill:#FAE089;}
	.st188{fill:#FFED90;}
	.st189{fill:#ECDB6F;}
	.st190{fill:#FECF73;}
	.st191{fill:#CEA865;}
	.st192{fill:#EDDFCA;}
	.st193{fill:#EBDECA;}
	.st194{fill:#638408;}
	.st195{fill:#CE9F41;}
	.st196{fill:#F7BA23;}
	.st197{fill:#EAAE2A;}
	.st198{fill:#F2CE36;}
	.st199{fill:#F9D53D;}
	.st200{fill:#FCDA4F;}
	.st201{fill:#F7E289;}
	.st202{fill:#668F05;}
	.st203{fill:#597214;}
	.st204{fill:#8BA040;}
	.st205{fill:#7AA122;}
	.st206{fill:#95BB28;}
	.st207{fill:#E7F2A6;}
	.st208{fill:#C4CC75;}
	.st209{fill:#87A82C;}
	.st210{fill:#9FBF45;}
	.st211{fill:#728E25;}
	.st212{fill:#7D4E30;}
	.st213{fill:#3F5A2F;}
	.st214{fill:#4B7837;}
	.st215{fill:#85A93F;}
	.st216{fill:#693F26;}
	.st217{fill:#8C7668;}
	.st218{fill:#EDE9E6;}
	.st219{fill:#FFFDFC;}
	.st220{fill:#846F5C;}
	.st221{clip-path:url(#SVGID_6_);}
	.st222{fill:#B2A594;}
	.st223{fill:#E4DDD5;}
	.st224{fill:#A16D46;}
	.st225{fill:#9A8E42;}
	.st226{fill:#BBB061;}
	.st227{fill:#A08F41;}
	.st228{fill:#C1AD56;}
	.st229{opacity:0.7;}
	.st230{fill:#DACA7F;}
	.st231{fill:#EEE49F;}
	.st232{opacity:0.5;}
	.st233{fill:#FFF9D7;}
	.st234{fill:#7C7F32;}
	.st235{fill:#95A84C;}
	.st236{fill:#D8B45C;}
	.st237{fill:#FCC572;}
	.st238{fill:#FED49A;}
	.st239{fill:#C0782C;}
	.st240{fill:#D49430;}
	.st241{fill:#F5D19D;}
	.st242{opacity:0.35;}
	.st243{fill:#F9AFC9;}
	.st244{fill:#F9CDDE;}
	.st245{fill:#FFF3F8;}
	.st246{fill:#F4A2C3;}
	.st247{fill:#FFFFFF;}
	.st248{fill:#D7F2F9;}
	.st249{fill:#492743;}
	.st250{fill:#20131D;}
	.st251{fill:#685364;}
	.st252{fill:#748115;}
	.st253{fill:#A7B86A;}
</style>
<g id="Слой_1">
</g>
<g id="Слой_2">
</g>
<g id="Слой_4">
</g>
<g id="Слой_3">
	<g>
		<g>
			<g>
				<path class="st249" d="M4.27,69.09C0.38,62,4.36,54.31,4.58,53.9c0.7-1.3,1.94-3.18,8.31-7.66c8.64-6.09,10.79-5.76,17.73-10.69
					c2.77-1.97,7.41-5.26,12.3-10.7c5.09-5.66,5.96-8.64,9.86-10.29c3.95-1.67,10.26-2.05,13.26,1.13
					c5.91,6.28-3.4,23.98-9.06,32.25c-4.22,6.16-8.4,10-11.6,12.9c-11.3,10.24-20.5,13.02-24.33,13.95c-5.63,1.37-8.99,1-11.71-0.46
					C6.28,72.68,4.8,70.05,4.27,69.09z"/>
				<path class="st250" d="M13.77,73.44c0.07,0.23,10.93-0.83,21.99-7.39c0,0,13.5-6.76,24.7-27.72c0.87-1.64,2.25-4.75,2.7-5.56
					c0.03-0.05,0.11-0.2,0.15-0.42c0.08-0.45-0.11-0.84-0.18-0.98c-0.23-0.48-0.88-1.24-1.85-1.22c-1.27,0.03-1.83,1.45-1.88,1.58
					c-0.22,0.59-0.13,1.08-0.1,1.47c0,0,0.09,1.13-1.02,3.94C54.15,47.6,44.03,56.72,44.03,56.72c-1.52,1.37-7.92,7.01-17.87,11.82
					C19.07,71.97,13.72,73.27,13.77,73.44z"/>
				<path class="st251" d="M50.3,20.75c-0.7,1.93-8.44,9.39-10.09,10.94c-4.58,4.29-9.17,6.86-17.55,11.56
					c-2.76,1.54-7.15,3.9-11.35,8.49c-2.9,3.17-3.68,5.2-3.23,6.91c0.34,1.28,1.44,2.59,2.77,2.8c1.28,0.2,2.64-0.62,4.9-3.32
					c3.69-4.4,7.09-11.16,16.18-17.83c7.92-5.82,8.2-5.89,9.64-7.32c3.44-3.4,7.14-8.2,7.4-8.54c0.47-0.62,2.08-3.08,2.64-3.44
					c0.04-0.03,0.24-0.15,0.32-0.38c0.07-0.18,0.05-0.41-0.06-0.59c-0.16-0.26-0.47-0.38-0.71-0.35
					C50.63,19.76,50.36,20.61,50.3,20.75z"/>
			</g>
			<path class="st252" d="M61.81,15.32c-0.29-0.78-7.14,0.13-14.15,3.21c-0.87,0.38-2.37,1.07-3.69,0.57
				c-1.82-0.7-2.59-3.38-1.91-4.02c0.44-0.42,1.22,0.3,2.89,0.34c1.59,0.04,2.49-0.58,4.87-1.64c3.37-1.5,5.05-2.25,7.03-2.38
				c2.47-0.16,4.26,0.65,5.15,1.06c1.32,0.62,3.4,1.59,3.92,3.72c0.04,0.18,0.52,2.21-0.52,2.99c-1.07,0.8-3.03-0.53-3.69-0.98
				c-0.58-0.39-0.75-0.65-0.8-0.95C60.77,16.34,61.94,15.67,61.81,15.32z"/>
			<path class="st252" d="M61.79,17.03c-0.33,1.42-4.09,1.94-9.94,2.74c-2.69,0.37-4.23,0.45-5.4-0.49
				c-1.01-0.82-1.54-2.24-1.14-2.64c0.46-0.46,1.64,1.04,3.72,1.06c3.12,0.04,4.16-3.28,7.91-3.55c0.51-0.04,2.28-0.14,3.66,0.99
				C61.08,15.54,61.97,16.27,61.79,17.03z"/>
			<path class="st252" d="M59.98,12.96c0-1.58,3.5-1.35,5.18-4.18c0.6-1.01,1.18-2.78,1.99-5.25c0.18-0.55,0.4-1.24,1.03-1.6
				c1.1-0.63,2.96-0.02,3.16,0.82c0.1,0.42-0.24,0.8-0.55,1.2c-0.23,0.29-0.85,1.55-2.08,4.05c-0.51,1.03-1.02,2.6-2.03,5.74
				c-0.72,2.22-0.87,2.89-1.51,3.1c-0.96,0.32-2.16-0.7-3.43-1.78C60.57,14.04,59.98,13.54,59.98,12.96z"/>
			<path class="st253" d="M68.59,2.4c-0.63,0.37-0.85,1.05-1.03,1.6c-0.81,2.47-1.39,4.24-1.99,5.25c-1.15,1.95-3.16,2.45-4.31,3.08
				c-0.98-0.32-2.18-0.58-3.56-0.57c-2.18,0.02-4.01,0.76-7.65,2.23c-2.57,1.04-3.53,1.68-5.3,1.54c-1.86-0.15-2.77-1.02-3.23-0.57
				c-0.71,0.68,0.32,3.77,2.39,4.68c0.99,0.43,2.02,0.28,2.89,0.03c1.11,0.4,2.51,0.36,4.54,0.19c6.1-0.51,10.02-0.84,10.28-2.34
				c0.02-0.12,0.01-0.24-0.01-0.36c0.26-0.07,0.49-0.1,0.67,0.01c0.53,0.35,0.12,1.68-0.03,2.68c-0.44,2.96,1.04,5.49,1.85,6.87
				c0.71,1.22,2.14,3.66,4.66,4.23c1.17,0.26,2.55,0.11,2.6-0.18c0.04-0.23-0.78-0.35-1.46-0.97c-0.68-0.62-1.01-1.55-1.11-4.47
				c-0.12-3.65,0.46-3.61,0.14-5.16c-0.16-0.77-0.43-1.45-0.75-2.03c-0.04-0.19-0.08-0.33-0.09-0.38c-0.27-0.93-0.78-1.69-1.39-2.31
				c0.12-0.35,0.25-0.77,0.41-1.26c1.01-3.14,1.52-4.72,2.03-5.74c1.24-2.5,1.86-3.76,2.08-4.05c0.31-0.4,0.65-0.78,0.55-1.2
				C71.55,2.38,69.69,1.77,68.59,2.4z"/>
			<path class="st252" d="M61.31,16.51c-0.09,1.37-3.57,1.94-8.98,2.83c-2.49,0.41-3.93,0.52-5.18-0.36
				c-1.08-0.76-1.79-2.11-1.49-2.5c0.36-0.45,1.71,0.96,3.68,0.94c2.95-0.03,3.43-3.22,6.94-3.56c0.47-0.05,2.14-0.18,3.62,0.87
				C60.41,15.1,61.36,15.77,61.31,16.51z"/>
			<path class="st253" d="M62.61,16.05c0.07,1.53-3.68,2.7-9.52,4.53c-2.69,0.84-4.26,1.19-5.75,0.42
				c-1.29-0.67-2.25-2.05-1.96-2.52c0.34-0.56,2,0.79,4.18,0.46c3.25-0.49,3.36-4.09,7.18-5.02c0.52-0.13,2.33-0.54,4.09,0.4
				C61.44,14.63,62.57,15.23,62.61,16.05z"/>
		</g>
		<g>
			<path class="st252" d="M63.92,15.02c1,2.11,1.56,4.5,1.23,6.83c-0.02,0.17,0.23,0.24,0.26,0.07c0.4-2.43,0.11-4.95-1.2-7.07
				C64.1,14.67,63.83,14.83,63.92,15.02L63.92,15.02z"/>
		</g>
		<g>
			<path class="st252" d="M65.61,24.45c0.02,1.16,0.39,2.29,1.07,3.23c0.11,0.15,0.37,0,0.26-0.15c-0.66-0.89-1.04-1.97-1.07-3.08
				C65.87,24.29,65.61,24.29,65.61,24.45L65.61,24.45z"/>
		</g>
		<g>
			<path class="st252" d="M68.82,4.27C68,6.01,67.15,7.74,66.37,9.5c-0.07,0.16,0.16,0.31,0.24,0.14c0.86-1.72,1.65-3.48,2.47-5.22
				C69.16,4.25,68.9,4.09,68.82,4.27L68.82,4.27z"/>
		</g>
		<g>
			<path class="st252" d="M62.63,13.86c-2.08-0.33-4.17,1.22-5.88,2.19c-1.07,0.61-2.14,1.21-3.21,1.82
				c-1.14,0.65-2.32,1.25-3.38,2.01c-0.19,0.14-0.03,0.41,0.19,0.32c2.12-0.95,4.11-2.27,6.12-3.42c1.97-1.13,3.83-2.36,6.14-2.64
				C62.73,14.12,62.8,13.88,62.63,13.86L62.63,13.86z"/>
		</g>
		<g>
			<path class="st252" d="M42.27,15.89c-0.04,0.68,0.18,1.33,0.57,1.88c0.19,0.27,0.42,0.52,0.69,0.73c0.13,0.1,0.26,0.19,0.41,0.27
				c0.15,0.08,0.33,0.18,0.5,0.19c0.2,0.01,0.22-0.24,0.09-0.34c-0.12-0.09-0.28-0.13-0.41-0.2c-0.13-0.07-0.25-0.15-0.36-0.24
				c-0.23-0.18-0.44-0.39-0.61-0.63c-0.35-0.48-0.55-1.07-0.61-1.65C42.53,15.71,42.28,15.71,42.27,15.89L42.27,15.89z"/>
		</g>
	</g>
</g>
</svg>
