<?xml version="1.0" encoding="utf-8"?>
<!-- Generator: Adobe Illustrator 23.1.0, SVG Export Plug-In . SVG Version: 6.00 Build 0)  -->
<svg version="1.1" xmlns="http://www.w3.org/2000/svg" xmlns:xlink="http://www.w3.org/1999/xlink" x="0px" y="0px"
	 viewBox="0 0 80 80" style="enable-background:new 0 0 80 80;" xml:space="preserve">
<style type="text/css">
	.st0{fill:#6F8653;}
	.st1{fill:#EBB044;}
	.st2{fill:#EEC27E;}
	.st3{fill:#DBA44B;}
	.st4{fill:#725846;}
	.st5{fill:#E8CA48;}
	.st6{fill:#F2DC7D;}
	.st7{fill:#CDB44D;}
	.st8{fill:#F8F8E1;}
	.st9{fill:#E4D049;}
	.st10{fill:#EDDC60;}
	.st11{fill:#E7E474;}
	.st12{fill:#809764;}
	.st13{fill:#46684B;}
	.st14{fill:#4D724F;}
	.st15{fill:#7D8E54;}
	.st16{fill:#4E7553;}
	.st17{fill:#456449;}
	.st18{fill:#415E46;}
	.st19{fill:#D6E06F;}
	.st20{fill:#A46246;}
	.st21{fill:#A97361;}
	.st22{fill:#6D8A56;}
	.st23{fill:#DB7B43;}
	.st24{fill:#EDB862;}
	.st25{fill:#DD8347;}
	.st26{fill:#E09A79;}
	.st27{fill:#D76B43;}
	.st28{fill:#C66849;}
	.st29{fill:#8E8079;}
	.st30{fill:#D98065;}
	.st31{fill:#C56647;}
	.st32{fill:#EFD9BA;}
	.st33{fill:#D45D45;}
	.st34{fill:#DD8075;}
	.st35{fill:#DAC6AD;}
	.st36{fill:#657F51;}
	.st37{fill:#556946;}
	.st38{fill:#7D9657;}
	.st39{fill:#7B706B;}
	.st40{fill:#93A47A;}
	.st41{fill:#6A7E4F;}
	.st42{fill:#E7E5D1;}
	.st43{fill:#CFD26A;}
	.st44{fill:#EDF0BC;}
	.st45{fill:#B6AA50;}
	.st46{fill:#A39C74;}
	.st47{fill:#D1C474;}
	.st48{fill:#93854C;}
	.st49{fill:#867B4A;}
	.st50{fill:#291D10;}
	.st51{fill:#AA9B50;}
	.st52{fill:#E5D263;}
	.st53{fill:#DC7F44;}
	.st54{fill:#E0956D;}
	.st55{fill:#EAAB44;}
	.st56{fill:#8CAC59;}
	.st57{fill:#657E4F;}
	.st58{fill:#97A779;}
	.st59{fill:#D14A4A;}
	.st60{fill:#97C35A;}
	.st61{fill:#89A559;}
	.st62{fill:#CB7A5E;}
	.st63{fill:#BE725E;}
	.st64{fill:#B16955;}
	.st65{fill:#D18D7D;}
	.st66{fill:#5D4837;}
	.st67{fill:#9C5B44;}
	.st68{fill:#D69747;}
	.st69{fill:#6A8E58;}
	.st70{fill:#80A071;}
	.st71{fill:#F1EB66;}
	.st72{fill:#EAC647;}
	.st73{fill:#F3EA8A;}
	.st74{fill:#CEA04A;}
	.st75{fill:#473321;}
	.st76{fill:#93AD7C;}
	.st77{fill:#EFD1A2;}
	.st78{fill:#91A87A;}
	.st79{fill:#6E8E42;}
	.st80{fill:#586889;}
	.st81{fill:#77859F;}
	.st82{fill:#83A25A;}
	.st83{fill:#B2C495;}
	.st84{fill:#947659;}
	.st85{fill:#4E6E4F;}
	.st86{fill:#524160;}
	.st87{fill:#3D3649;}
	.st88{fill:#6B5C7A;}
	.st89{fill:#2F3338;}
	.st90{fill:#212428;}
	.st91{fill:#282D32;}
	.st92{fill:#42484E;}
	.st93{fill:#252B2E;}
	.st94{fill:#6B3F3C;}
	.st95{fill:#645E57;}
	.st96{fill:#517E55;}
	.st97{fill:#2E4135;}
	.st98{fill:none;}
	.st99{fill:#6E8B70;}
	.st100{fill:#3D5545;}
	.st101{fill:#628A64;}
	.st102{fill:#F9F9E3;}
	.st103{fill:#D96F60;}
	.st104{fill:#C0645A;}
	.st105{fill:#543E2C;}
	.st106{fill:#7F4B49;}
	.st107{fill:#9E6345;}
	.st108{fill:#994D49;}
	.st109{fill:#A46A69;}
	.st110{fill:#8F5B42;}
	.st111{fill:#8E4948;}
	.st112{fill:#85986E;}
	.st113{fill:#6D7290;}
	.st114{fill:#626880;}
	.st115{fill:#9C9385;}
	.st116{fill:#F2D55A;}
	.st117{clip-path:url(#SVGID_2_);}
	.st118{fill:#E2AC54;}
	.st119{opacity:0.31;fill:#F9EFC5;}
	.st120{opacity:0.31;fill:#FFFBE9;}
	.st121{fill:#DDC862;}
	.st122{fill:#FFF3C2;}
	.st123{fill:#E8C046;stroke:#7A695F;stroke-width:0.15;stroke-miterlimit:10;}
	.st124{fill:#DBB248;}
	.st125{fill:#6F5753;}
	.st126{fill:#E8C046;stroke:#77655B;stroke-width:0.15;stroke-miterlimit:10;}
	.st127{fill:#83A15C;}
	.st128{fill:#698C3C;}
	.st129{fill:#809D5B;}
	.st130{fill:#4A6224;}
	.st131{fill:#85A55C;}
	.st132{fill:#506B26;}
	.st133{fill:#82A15B;}
	.st134{fill:#698958;}
	.st135{fill:#DD8344;}
	.st136{fill:#B56721;}
	.st137{fill:#C2463A;}
	.st138{fill:#CC6E64;}
	.st139{fill:#5EA817;}
	.st140{fill:#5F8F22;}
	.st141{fill:#C24F3C;}
	.st142{fill:#AB4A39;}
	.st143{fill:#BB413C;}
	.st144{fill:#EA7142;}
	.st145{fill:#ED835B;}
	.st146{fill:#E76D18;}
	.st147{fill:#56734E;}
	.st148{fill:#CBC797;}
	.st149{fill:#F1F0E1;}
	.st150{fill:#DBD9CA;}
	.st151{fill:#496042;}
	.st152{fill:#547534;}
	.st153{fill:#C0D591;}
	.st154{fill:#B3C483;}
	.st155{fill:#DFEAC1;}
	.st156{fill:#D5DDB8;}
	.st157{fill:#577F36;}
	.st158{fill:#4D6D2F;}
	.st159{fill:#4F6B32;}
	.st160{fill:#AAC654;}
	.st161{fill:#A0B252;}
	.st162{fill:#9B3743;}
	.st163{fill:#A34D5B;}
	.st164{fill:#75434B;}
	.st165{fill:#80333D;}
	.st166{fill:#722F3A;}
	.st167{fill:#8E424F;}
	.st168{fill:#A5273F;}
	.st169{fill:#9B2944;}
	.st170{fill:#93B250;}
	.st171{fill:#778950;}
	.st172{fill:#B1B297;}
	.st173{fill:#5D6B3E;}
	.st174{fill:#769328;}
	.st175{fill:#B9BC9D;}
	.st176{fill:#B4CE6E;}
	.st177{fill:#CCCEAF;}
	.st178{fill:#AEAF94;}
	.st179{fill:#E8C046;stroke:#7F6D62;stroke-width:0.15;stroke-miterlimit:10;}
	.st180{fill:#B7C661;}
	.st181{fill:#CED893;stroke:#ACB25F;stroke-width:0.5;stroke-miterlimit:10;}
	.st182{fill:#D79F4A;}
	.st183{clip-path:url(#SVGID_4_);}
	.st184{fill:#CDD98D;}
	.st185{fill:#FADA37;}
	.st186{fill:#CCB244;}
	.st187{fill:#FAE089;}
	.st188{fill:#FFED90;}
	.st189{fill:#ECDB6F;}
	.st190{fill:#FECF73;}
	.st191{fill:#CEA865;}
	.st192{fill:#EDDFCA;}
	.st193{fill:#EBDECA;}
	.st194{fill:#638408;}
	.st195{fill:#CE9F41;}
	.st196{fill:#F7BA23;}
	.st197{fill:#EAAE2A;}
	.st198{fill:#F2CE36;}
	.st199{fill:#F9D53D;}
	.st200{fill:#FCDA4F;}
	.st201{fill:#F7E289;}
	.st202{fill:#668F05;}
	.st203{fill:#597214;}
	.st204{fill:#8BA040;}
	.st205{fill:#7AA122;}
	.st206{fill:#95BB28;}
	.st207{fill:#E7F2A6;}
	.st208{fill:#C4CC75;}
	.st209{fill:#87A82C;}
	.st210{fill:#9FBF45;}
	.st211{fill:#728E25;}
	.st212{fill:#7D4E30;}
	.st213{fill:#3F5A2F;}
	.st214{fill:#4B7837;}
	.st215{fill:#85A93F;}
	.st216{fill:#693F26;}
	.st217{fill:#8C7668;}
	.st218{fill:#EDE9E6;}
	.st219{fill:#FFFDFC;}
	.st220{fill:#846F5C;}
	.st221{clip-path:url(#SVGID_6_);}
	.st222{fill:#B2A594;}
	.st223{fill:#E4DDD5;}
	.st224{fill:#A16D46;}
	.st225{fill:#9A8E42;}
	.st226{fill:#BBB061;}
	.st227{fill:#A08F41;}
	.st228{fill:#C1AD56;}
	.st229{opacity:0.7;}
	.st230{fill:#DACA7F;}
	.st231{fill:#EEE49F;}
	.st232{opacity:0.5;}
	.st233{fill:#FFF9D7;}
	.st234{fill:#7C7F32;}
	.st235{fill:#95A84C;}
	.st236{fill:#D8B45C;}
	.st237{fill:#FCC572;}
	.st238{fill:#FED49A;}
	.st239{fill:#C0782C;}
	.st240{fill:#D49430;}
	.st241{fill:#F5D19D;}
	.st242{opacity:0.35;}
	.st243{fill:#F9AFC9;}
	.st244{fill:#F9CDDE;}
	.st245{fill:#FFF3F8;}
	.st246{fill:#F4A2C3;}
	.st247{fill:#FFFFFF;}
	.st248{fill:#D7F2F9;}
	.st249{fill:#492743;}
	.st250{fill:#20131D;}
	.st251{fill:#685364;}
	.st252{fill:#748115;}
	.st253{fill:#A7B86A;}
</style>
<g id="Слой_1">
</g>
<g id="Слой_2">
</g>
<g id="Слой_4">
</g>
<g id="Слой_3">
	<g>
		<g>
			<g>
				<g>
					<path class="st205" d="M35.12,71.95c0,0,2.7,3.96,10.42,2.7c0,0,6.17,3.18,10.23-1.74l-15.34-5.31
						C40.43,67.61,34.25,67.9,35.12,71.95z"/>
					<path class="st205" d="M17.46,64.13c0,0,2.36,8.83,12.49,6.03c0,0-7.77-7.09-12.49-6.22V64.13z"/>
					<path class="st206" d="M27.64,70.26c0,0,3.96,5.02,11.77,0.48c0,0,7.33,4.82,13.7,2.8c0,0,5.31,0.68,6.66-3.28
						c0,0,7.53-2.12,6.95-9.55c0,0,3.47-1.74,3.18-4.92c0,0,5.6-3.38,5.11-11.48c0,0,1.64-6.27-1.16-10.42c0,0-1.54-9.17-7.24-12.74
						c-5.69-3.57-0.39,0-0.39,0S42.79,1.37,29.28,9.57c0,0-24.89,21.9-22.38,38.21c0,0,1.83,11.39,7.33,14.86
						c0,0,3.76,3.38,10.52,4.53C24.75,67.17,26.64,69.34,27.64,70.26z"/>
				</g>
				<path class="st207" d="M10.23,37.39c0,0,7.2,3.6,8.81,12.94l0.31-2.89c0,0-2.39-8.47-9.12-10.35V37.39z"/>
				<path class="st207" d="M7.33,44.77c0.92,0.38,1.83,0.85,2.68,1.35c0.86,0.5,1.67,1.08,2.48,1.66c0.89,0.64,1.79,1.29,2.57,2.08
					c1.85,1.89,2.61,4.56,4.16,6.69c0.23,0.31,0.47,0.62,0.72,0.91c0.12,0.14,0.79,0.69,0.79,0.84c0,0,0-2.88,0-2.88
					c0-0.04-0.86-0.49-0.92-0.53c-1.37-0.95-1.62-2.54-2.53-3.82c-0.44-0.63-0.98-1.22-1.49-1.79c-1.31-1.42-2.96-2.62-4.71-3.43
					c-0.58-0.27-1.18-0.5-1.79-0.68c-0.32-0.09-0.64-0.17-0.97-0.23C8.02,44.88,7.61,44.89,7.33,44.77z"/>
				<path class="st207" d="M27.28,21.75c0.48,0.87,0.9,1.8,1.26,2.73c0.36,0.93,0.64,1.89,0.9,2.84c0.29,1.06,0.59,2.13,0.7,3.22
					c0.27,2.64-0.81,5.2-0.92,7.82c-0.02,0.39-0.02,0.77-0.01,1.16c0.01,0.18,0.19,1.03,0.1,1.15c0,0,1.8-2.25,1.8-2.25
					c0.03-0.03-0.37-0.92-0.39-0.99c-0.47-1.6,0.32-3,0.41-4.57c0.05-0.76,0-1.57-0.05-2.33c-0.14-1.93-0.67-3.9-1.54-5.62
					c-0.29-0.57-0.61-1.13-0.98-1.65c-0.19-0.27-0.4-0.53-0.61-0.78C27.75,22.26,27.42,22.02,27.28,21.75z"/>
				<path class="st207" d="M7.33,46.99c0,0,11.22,15.58,15.9,16.21v1.4C23.23,64.6,11.84,56.69,7.33,46.99z"/>
				<path class="st207" d="M20.74,50.56c-0.03-0.14,0.12-0.44,0.16-0.57c0.12-0.31,0.28-0.6,0.44-0.89c0.28-0.48,0.58-0.94,0.88-1.4
					c0.43-0.65,0.88-1.29,1.34-1.93c0.56-0.78,1.14-1.55,1.74-2.31c0.68-0.85,1.39-1.68,2.16-2.45c0.84-0.85,1.73-1.65,2.69-2.36
					c1.07-0.79,2.21-1.49,3.39-2.09c1.34-0.68,2.73-1.26,4.14-1.77c1.46-0.53,2.92-1.07,4.42-1.49c0.44-0.12,0.89-0.24,1.33-0.34
					c1.56-0.35,3.15-0.49,4.72-0.79c0.45-0.08,0.9-0.18,1.35-0.28c1.38-0.32,2.75-0.68,4.09-1.15c1.29-0.45,2.56-0.97,3.74-1.67
					c1.01-0.6,1.97-1.32,2.67-2.28c0.07-0.1,0.15-0.21,0.22-0.31c0.29-0.39,0.71-0.79,1.09-1.09c0.19-0.15,0.41-0.29,0.64-0.37
					c0.26-0.09,0.53-0.13,0.77-0.25c0.46-0.23,0.74-0.73,0.94-1.19c0.21-0.48,0.35-1,0.31-1.53c-0.01-0.11-0.14-1.08-0.23-1.08h0.96
					c0.02,0-0.09,1.19-0.1,1.26c-0.06,0.4-0.17,0.78-0.3,1.16c-0.14,0.4-0.28,0.82-0.51,1.17c-0.3,0.45-0.84,0.84-1.34,1.06
					c-0.31,0.14-0.57,0.38-0.84,0.59c-0.8,0.64-1.27,1.55-1.81,2.4c-0.16,0.26-0.34,0.51-0.54,0.74c-0.31,0.34-0.68,0.6-1.08,0.82
					c-0.5,0.27-1.01,0.51-1.54,0.72c-0.79,0.32-1.61,0.58-2.43,0.82c-1.1,0.32-2.21,0.6-3.33,0.86c-1.36,0.32-2.73,0.61-4.1,0.89
					c-1.9,0.38-3.84,0.68-5.72,1.18c-1,0.26-1.98,0.61-2.91,1.07c-0.64,0.31-1.26,0.65-1.88,0.99c-0.77,0.42-1.53,0.84-2.28,1.29
					c-0.8,0.49-1.57,1.02-2.31,1.59c-0.79,0.6-1.54,1.25-2.26,1.93c-0.78,0.73-1.54,1.5-2.25,2.31c-0.75,0.85-1.45,1.74-2.09,2.67
					c-0.67,0.99-1.27,2.03-1.79,3.1c-0.55,1.16-1.02,2.35-1.45,3.56c-0.05,0.15-0.11,0.3-0.16,0.44c-0.03,0.1-0.18,0.35-0.16,0.45
					C21.54,54.04,20.74,50.56,20.74,50.56z"/>
				<path class="st207" d="M23.86,61.8c-0.13-0.23-0.12-0.68-0.14-0.94c-0.06-0.78-0.02-1.58,0.1-2.35
					c0.16-1.08,0.47-2.15,0.91-3.15c0.55-1.24,1.36-2.33,2.42-3.18c1.89-1.51,4.36-2.41,6.68-3.03c0.77-0.21,1.55-0.41,2.31-0.67
					c1.8-0.64,3.56-1.44,5.15-2.52c0.47-0.32,0.93-0.67,1.37-1.04c0.44-0.37,0.8-0.82,1.23-1.2c0,0,4.58-4.06,10.52-3.24
					c0,0-7.14,0.29-10.42,4.29c-0.18,0.22-0.43,0.41-0.65,0.59c-0.58,0.49-1.18,0.96-1.79,1.42c-0.89,0.67-1.81,1.29-2.78,1.84
					c-1.09,0.63-2.24,1.14-3.42,1.59c-1.65,0.62-3.42,0.94-5,1.72c-0.44,0.21-0.85,0.46-1.23,0.77c-0.49,0.4-0.93,0.84-1.32,1.33
					c-0.55,0.69-1.03,1.44-1.42,2.23c-0.5,1-0.83,2.07-0.99,3.17c-0.21,1.4-0.18,2.82-0.14,4.23c0,0.13-0.04,0.44,0.02,0.55
					C25.26,64.22,23.86,61.8,23.86,61.8z"/>
				<path class="st207" d="M42.66,33.93c-0.13-0.04-0.26-0.21-0.34-0.3c-0.26-0.27-0.47-0.58-0.65-0.91
					c-0.24-0.46-0.42-0.97-0.51-1.5c-0.11-0.66-0.06-1.36,0.17-2.06c0.42-1.25,1.29-2.48,2.17-3.56c0.29-0.36,0.59-0.71,0.86-1.09
					c0.64-0.89,1.21-1.83,1.62-2.81c0.12-0.29,0.23-0.59,0.32-0.88c0.09-0.3,0.13-0.6,0.21-0.89c0,0,0.9-3.18,3.87-5.03
					c0,0-3.19,2.71-3.51,5.39c-0.02,0.15-0.08,0.31-0.12,0.46c-0.12,0.39-0.25,0.79-0.4,1.18c-0.21,0.57-0.45,1.14-0.73,1.7
					c-0.32,0.63-0.69,1.24-1.1,1.84c-0.57,0.83-1.29,1.6-1.79,2.46c-0.14,0.24-0.25,0.48-0.34,0.73c-0.11,0.33-0.18,0.65-0.21,0.97
					c-0.05,0.46-0.05,0.91,0,1.35c0.07,0.55,0.23,1.07,0.48,1.54c0.32,0.6,0.54,0.65,0.98,1.16c0.04,0.05,0.04,0.17,0.1,0.19
					C43.75,33.86,42.67,33.93,42.66,33.93z"/>
				<path class="st207" d="M28.03,68.15c-0.07-0.03-0.04-0.67-0.04-0.73c0-0.61,0.09-1.23,0.24-1.82c0.2-0.82,0.52-1.62,0.94-2.36
					c0.51-0.9,1.21-1.68,2.08-2.24c1.21-0.79,2.63-1.19,4-1.57c1.96-0.54,3.87-1.25,5.62-2.3c0.65-0.39,1.27-0.83,1.85-1.32
					c0.42-0.36,0.93-0.63,1.41-0.9c1.74-0.98,3.63-1.47,5.6-1.72c1.47-0.19,2.78-0.73,4.12-1.32c1.68-0.74,3.32-1.62,4.76-2.77
					c0.96-0.77,1.69-1.77,2.66-2.52c1.73-1.33,3.71-2.64,5.82-3.25c0.64-0.18,1.38-0.28,2.04-0.13c-0.79,0.21-1.56,0.5-2.3,0.81
					c-1.91,0.8-3.64,1.87-5.09,3.36c-1.1,1.12-2.17,2.18-3.44,3.13c-1.61,1.21-3.38,2.24-5.24,3.02c-0.6,0.25-1.21,0.48-1.83,0.68
					c-0.61,0.19-1.29,0.45-1.93,0.51c0,0-4.2,0.43-6.22,2.82c-0.4,0.47-0.91,0.89-1.38,1.28c-1.05,0.86-2.17,1.7-3.39,2.29
					c-0.75,0.36-1.53,0.68-2.37,0.78c-0.55,0.06-1.1,0.06-1.64,0.18c-0.58,0.12-1.05,0.42-1.54,0.75c-0.98,0.65-1.62,1.99-1.91,3.1
					c-0.28,1.04-0.35,2.22-0.35,3.29C30.49,69.17,28.03,68.15,28.03,68.15z"/>
				<path class="st208" d="M21.86,53.14c0,0,4.74,11.81,17.55,17.6c0,0-9.41,1.5-13.12-3.1C26.29,67.64,20.69,57.61,21.86,53.14z"/>
				<path class="st207" d="M17.9,35.06c0,0-0.46,31.34,11.95,36.94c0,0,5.37,2.5,9.56-1.26c0,0-14.13-1.47-16.49-13.78
					c0,0-5.25-20.13-2.74-25.07L17.9,35.06z"/>
				<path class="st207" d="M39.54,70.6c0,0,7.82-0.5,11.79-6.72C51.33,63.88,50.17,70.73,39.54,70.6z"/>
				<path class="st205" d="M51.33,33.56c0,0,2.53,1.88,7.16,1.23C58.49,34.79,54.37,37.1,51.33,33.56z"/>
				<path class="st205" d="M54.91,33.56c0,0,2.1-1.59,4.7-1.27c0,0-0.25-1.38,2.64-1.01c0,0,0.84,1.39,2.46,1.11
					c0,0,2.24,0.63,2.31,1.82c0,0,3.08,2.53-0.76,1.32c0,0-3.73-1.68-5.75-1.21c0,0-5.35,0.72-5.61-0.62V33.56z"/>
				<path class="st205" d="M47.28,55.8c0.8,0.68,1.72,1.28,2.62,1.83c0.82,0.51,1.71,0.88,2.62,1.18c0.91,0.3,1.88,0.64,2.85,0.65
					c1.45,0.01,2.65-0.9,3.83-1.61c1.07-0.64,2.21-1.21,3.4-1.6c0.74-0.25,1.5-0.43,2.28-0.46c0.12,0,0.24,0,0.36,0
					c0.19,0.01,0.42,0.04,0.61-0.01c-0.66-0.18-1.36-0.15-2.04-0.16c-1.33-0.02-2.62,0.1-3.93,0.37c-1.12,0.24-1.96,1.14-3.08,1.39
					c-1.69,0.37-3.58,0.38-5.28,0.09c-0.55-0.09-1.09-0.22-1.62-0.39C49.03,56.8,47.97,56.39,47.28,55.8z"/>
				<path class="st205" d="M62.93,50.39c0.04-0.18,0.14-0.36,0.25-0.51c0.34-0.47,0.9-0.65,1.45-0.72c0.59-0.08,1.19-0.01,1.78-0.08
					c0.74-0.09,1.46-0.39,2.07-0.82c0.31-0.22,0.58-0.49,0.82-0.79c-0.03,0.04-0.04,0.16-0.06,0.21c-0.07,0.16-0.17,0.32-0.27,0.47
					c-0.16,0.24-0.35,0.47-0.58,0.65c-0.32,0.26-0.69,0.43-1.08,0.54c-0.39,0.12-0.79,0.19-1.19,0.24c-0.25,0.03-0.5,0.04-0.75,0.04
					c-0.24,0-0.48-0.04-0.72-0.01c-0.34,0.05-0.69,0.21-0.99,0.37c-0.25,0.14-0.5,0.31-0.72,0.49V50.39z"/>
			</g>
			<path class="st209" d="M9.14,54.95c0,0,0.58-3.57-1.25-6.66c-1.83-3.09,0.67,0,0.67,0s4.54-3.59,2.13-7.49
				c0,0-0.77-2.74,1.54-2.84c0,0,4.34,1.64,8.01-3.86c0,0,4.15-4.34,5.89-6.66c0,0,1.58-1.93,4-2.44c0,0,7.38-2.64,9.48-5.17
				c0,0,1.38-1.95,5.39-3.33c0,0,1.52-0.9,1.63-1.95c0,0-1.34-1.12-2.42-1.23c0,0,1.27-0.61-0.11-1.95c0,0-0.36-0.83,1.23-0.22
				c0,0,5.97,4.96,10.64,7.6c0,0,2.28,2.13,4.52,2.28c0,0,2.53-0.15,4.41,0.83c0,0,3.98,2.89,5.46,2.97c0,0-1.7-3.18-5.14-5.32
				c0,0-1.23-2.57-3.33-3.47c0,0-2.64-3.36-5.72-4.02c0,0-3.11-2.28-5.36-2.71c0,0-2.75-0.83-3.87-1.74c0,0-3.08-1.7-5.35-1.45
				c0,0-4.05-1.09-5.39-0.4c0,0-3.65-0.94-4.41,1.09c0,0-2.35,0.87-3.65,0.98c0,0-1.45-0.36-2.24,0.72c0,0-2.03,0.58-4.09,3.11
				c0,0-2.03,0.94-3.04,2.28c0,0-3.47,2.5-4.49,4.23c0,0-1.85,0.62-1.81,2.1c0,0-2.21,0.76-3.08,3.76c0,0-1.84,0.25-1.09,2.32
				c0,0,0.18,1.77-0.54,3.33c0,0-1.63,3.69-1.41,4.49c0,0-1.27,3.08-1.41,5.03c0,0-1.16,1.48-0.36,2.75c0,0-0.58,1.41,0.15,2.46
				c0,0-0.4,1.77,0.29,2.68c0,0-0.07,3.86,1.85,3.58C6.86,50.64,7.69,53.77,9.14,54.95z"/>
		</g>
		<path class="st210" d="M13.71,19.82c0.07-0.03,0.16-0.15,0.21-0.2c0.19-0.15,0.4-0.29,0.61-0.42c0.65-0.39,1.38-0.66,2.15-0.61
			c0.65,0.04,1.26,0.43,1.91,0.41c0.59-0.02,1.08-0.12,1.62-0.37c0.45-0.21,0.82-0.49,1.17-0.84c0,0,2.46-2.24,4.85-1.88
			c0,0-4.49,1.45-5.21,3.04c0,0,1.16,2.24,3.47,3.33c0,0,2.97,1.23,3.47,3.62l-0.32,0.22c-0.66-1.08-1.58-2.15-2.63-2.86
			c-0.23-0.15-0.46-0.28-0.71-0.4c-0.27-0.13-0.59-0.2-0.84-0.35c-1.29-0.79-2.47-1.88-3.24-3.2c-0.01-0.02-1.02,0.16-1.1,0.16
			c-0.66,0.04-1.47,0.05-2.07-0.26c-0.44-0.23-0.89-0.17-1.36-0.07C15.02,19.29,14.36,19.54,13.71,19.82z"/>
		<path class="st210" d="M10.35,25.03c0,0,0.51,0.98,1.74,1.12c0.39,0.05,0.8,0.19,1.12,0.41c0.49,0.34,0.63,0.91,0.84,1.43
			c0.21,0.51,0.49,1,0.83,1.43c0.23,0.28,0.49,0.54,0.78,0.75c0,0-0.98,3.62,1.05,5.35c-0.17-0.54-0.31-1.1-0.43-1.65
			c-0.11-0.5-0.16-1.01-0.2-1.52c-0.04-0.52-0.12-1.06-0.05-1.58c0.09-0.65,0.54-0.89,0.98-1.3c0.39-0.37,0.72-0.81,1.25-0.96
			c0.56-0.16,1.23-0.26,1.81-0.18c0.4,0.06,0.85,0.21,1.2,0.42c-0.4-0.24-0.76-0.5-1.2-0.67c-0.87-0.34-1.78-0.28-2.58,0.22
			c-0.23,0.14-0.44,0.31-0.63,0.5c-0.33,0.32-0.67,0.91-1.21,0.57c-0.4-0.26-0.57-0.8-0.72-1.23c-0.09-0.27-0.2-0.57-0.36-0.8
			c-0.31-0.45-0.66-0.82-1.12-1.12c-0.32-0.21-0.67-0.36-1.05-0.47C12.41,25.76,10.6,25.47,10.35,25.03z"/>
		<path class="st210" d="M22.68,11.83c0.52-0.03,1.23,0.33,1.7,0.51c0.93,0.35,1.85,0.74,2.52,1.51c0.5,0.59,0.09,1.15,0.19,1.81
			c0.11,0.73,1.07,1.18,1.74,1.21c0,0,5.28,0.25,4.67,3.11c0,0,0.51,0.43,0.51,0.43c-0.09-0.07-0.09-1.17-0.13-1.33
			c-0.33-1.14-1.24-1.85-2.3-2.28c-0.43-0.17-0.88-0.31-1.33-0.42c-0.44-0.11-1.12-0.13-1.51-0.35c-1.02-0.59-0.95-1.9-1.56-2.76
			c-0.46-0.64-1.42-1.12-2.16-1.29C24.28,11.8,23.44,11.78,22.68,11.83z"/>
		<path class="st210" d="M58.4,13.44c0,0.17,0.1,0.37,0.16,0.53c0.15,0.43,0.35,0.83,0.62,1.2c0.16,0.23,0.38,0.42,0.54,0.65
			c0.16,0.23,0.22,0.51,0.19,0.78c-0.04,0.4-0.38,0.57-0.58,0.88c-0.19,0.29-0.25,0.7-0.26,1.04c-0.01,0.36,0.03,0.72,0.13,1.07
			c0.04,0.14,0.1,0.27,0.16,0.4c0.06,0.13,0.17,0.28,0.2,0.41c-0.07-0.26-0.11-0.55-0.14-0.82c-0.06-0.49-0.06-1.07,0.07-1.56
			c0.09-0.33,0.32-0.53,0.5-0.8c0.31-0.48,0.27-1.07-0.01-1.55c-0.22-0.38-0.54-0.68-0.8-1.03c-0.22-0.28-0.44-0.56-0.63-0.86
			C58.49,13.68,58.4,13.56,58.4,13.44z"/>
		<path class="st210" d="M53.04,15.97c0.13-0.43,0.27-0.86,0.48-1.26c0.09-0.17,0.21-0.31,0.32-0.47c0.19-0.27,0.25-0.7,0.21-1.01
			c-0.03-0.23-0.14-0.4-0.22-0.61c-0.11-0.29,0.02-0.61,0.14-0.87c0.09-0.19,0.33-0.51,0.58-0.5c0,0-0.72-0.04-1.14,1
			c0,0-0.04-0.43-0.71-0.72c0.04,0.02,0.09,0.11,0.12,0.14c0.1,0.13,0.2,0.27,0.28,0.42c0.38,0.67,0.51,1.46,0.18,2.17
			c-0.09,0.21-0.21,0.42-0.27,0.64C52.92,15.23,52.9,15.63,53.04,15.97z"/>
		<path class="st211" d="M32.27,7.78c0,0,0.03,0.09,0.09,0.25c0.56,1.57,1.26,3.14,2.29,4.45c0.43,0.55,1.08,0.61,1.71,0.76
			c0.46,0.11,0.92,0.26,1.34,0.49c0.24,0.13,0.45,0.3,0.7,0.41c0.27,0.12,0.54,0.12,0.82,0.14c0.29,0.02,0.58,0.02,0.88,0.02
			c0.79-0.01,1.6-0.16,2.36-0.41c0.25-0.08,0.48-0.18,0.72-0.3c0.22-0.11,0.48-0.32,0.71-0.38c-0.76,0.2-1.54,0.33-2.32,0.42
			c-1.1,0.13-2.38,0.22-3.32-0.47c-0.3-0.22-0.6-0.41-0.95-0.54c-0.48-0.18-1.2-0.09-1.59-0.45c-0.38-0.35-0.7-0.79-1.03-1.18
			c-0.51-0.61-1.02-1.23-1.49-1.88c-0.16-0.22-0.31-0.44-0.47-0.65C32.59,8.26,32.35,8.01,32.27,7.78z"/>
		<path class="st211" d="M12.09,20.34c-0.55,0.13-1.09,0.35-1.53,0.71c-0.41,0.33-0.85,0.78-1.02,1.29
			c-0.3,0.89,0.08,2.18-0.49,3.02l0.01,0.02c0.56-0.57,1.52-1.71,1.9-3.12c0,0,0.84-1.82,2.75-1.98l0.01-0.01
			C13.16,20.27,12.65,20.21,12.09,20.34z"/>
	</g>
</g>
</svg>
