<?xml version="1.0" encoding="utf-8"?>
<!-- Generator: Adobe Illustrator 23.1.0, SVG Export Plug-In . SVG Version: 6.00 Build 0)  -->
<svg version="1.1" xmlns="http://www.w3.org/2000/svg" xmlns:xlink="http://www.w3.org/1999/xlink" x="0px" y="0px"
	 viewBox="0 0 80 80" style="enable-background:new 0 0 80 80;" xml:space="preserve">
<style type="text/css">
	.st0{fill:#6F8653;}
	.st1{fill:#EBB044;}
	.st2{fill:#EEC27E;}
	.st3{fill:#DBA44B;}
	.st4{fill:#725846;}
	.st5{fill:#E8CA48;}
	.st6{fill:#F2DC7D;}
	.st7{fill:#CDB44D;}
	.st8{fill:#F8F8E1;}
	.st9{fill:#E4D049;}
	.st10{fill:#EDDC60;}
	.st11{fill:#E7E474;}
	.st12{fill:#809764;}
	.st13{fill:#46684B;}
	.st14{fill:#4D724F;}
	.st15{fill:#7D8E54;}
	.st16{fill:#4E7553;}
	.st17{fill:#456449;}
	.st18{fill:#415E46;}
	.st19{fill:#D6E06F;}
	.st20{fill:#A46246;}
	.st21{fill:#A97361;}
	.st22{fill:#6D8A56;}
	.st23{fill:#DB7B43;}
	.st24{fill:#EDB862;}
	.st25{fill:#DD8347;}
	.st26{fill:#E09A79;}
	.st27{fill:#D76B43;}
	.st28{fill:#C66849;}
	.st29{fill:#8E8079;}
	.st30{fill:#D98065;}
	.st31{fill:#C56647;}
	.st32{fill:#EFD9BA;}
	.st33{fill:#D45D45;}
	.st34{fill:#DD8075;}
	.st35{fill:#DAC6AD;}
	.st36{fill:#657F51;}
	.st37{fill:#556946;}
	.st38{fill:#7D9657;}
	.st39{fill:#7B706B;}
	.st40{fill:#93A47A;}
	.st41{fill:#6A7E4F;}
	.st42{fill:#E7E5D1;}
	.st43{fill:#CFD26A;}
	.st44{fill:#EDF0BC;}
	.st45{fill:#B6AA50;}
	.st46{fill:#A39C74;}
	.st47{fill:#D1C474;}
	.st48{fill:#93854C;}
	.st49{fill:#867B4A;}
	.st50{fill:#291D10;}
	.st51{fill:#AA9B50;}
	.st52{fill:#E5D263;}
	.st53{fill:#DC7F44;}
	.st54{fill:#E0956D;}
	.st55{fill:#EAAB44;}
	.st56{fill:#8CAC59;}
	.st57{fill:#657E4F;}
	.st58{fill:#97A779;}
	.st59{fill:#D14A4A;}
	.st60{fill:#97C35A;}
	.st61{fill:#89A559;}
	.st62{fill:#CB7A5E;}
	.st63{fill:#BE725E;}
	.st64{fill:#B16955;}
	.st65{fill:#D18D7D;}
	.st66{fill:#5D4837;}
	.st67{fill:#9C5B44;}
	.st68{fill:#D69747;}
	.st69{fill:#6A8E58;}
	.st70{fill:#80A071;}
	.st71{fill:#F1EB66;}
	.st72{fill:#EAC647;}
	.st73{fill:#F3EA8A;}
	.st74{fill:#CEA04A;}
	.st75{fill:#473321;}
	.st76{fill:#93AD7C;}
	.st77{fill:#EFD1A2;}
	.st78{fill:#91A87A;}
	.st79{fill:#6E8E42;}
	.st80{fill:#586889;}
	.st81{fill:#77859F;}
	.st82{fill:#83A25A;}
	.st83{fill:#B2C495;}
	.st84{fill:#947659;}
	.st85{fill:#4E6E4F;}
	.st86{fill:#524160;}
	.st87{fill:#3D3649;}
	.st88{fill:#6B5C7A;}
	.st89{fill:#2F3338;}
	.st90{fill:#212428;}
	.st91{fill:#282D32;}
	.st92{fill:#42484E;}
	.st93{fill:#252B2E;}
	.st94{fill:#6B3F3C;}
	.st95{fill:#645E57;}
	.st96{fill:#517E55;}
	.st97{fill:#2E4135;}
	.st98{fill:none;}
	.st99{fill:#6E8B70;}
	.st100{fill:#3D5545;}
	.st101{fill:#628A64;}
	.st102{fill:#F9F9E3;}
	.st103{fill:#D96F60;}
	.st104{fill:#C0645A;}
	.st105{fill:#543E2C;}
	.st106{fill:#7F4B49;}
	.st107{fill:#9E6345;}
	.st108{fill:#994D49;}
	.st109{fill:#A46A69;}
	.st110{fill:#8F5B42;}
	.st111{fill:#8E4948;}
	.st112{fill:#85986E;}
	.st113{fill:#6D7290;}
	.st114{fill:#626880;}
	.st115{fill:#9C9385;}
	.st116{fill:#F2D55A;}
	.st117{clip-path:url(#SVGID_2_);}
	.st118{fill:#E2AC54;}
	.st119{opacity:0.31;fill:#F9EFC5;}
	.st120{opacity:0.31;fill:#FFFBE9;}
	.st121{fill:#DDC862;}
	.st122{fill:#FFF3C2;}
	.st123{fill:#E8C046;stroke:#7A695F;stroke-width:0.15;stroke-miterlimit:10;}
	.st124{fill:#DBB248;}
	.st125{fill:#6F5753;}
	.st126{fill:#E8C046;stroke:#77655B;stroke-width:0.15;stroke-miterlimit:10;}
	.st127{fill:#83A15C;}
	.st128{fill:#698C3C;}
	.st129{fill:#809D5B;}
	.st130{fill:#4A6224;}
	.st131{fill:#85A55C;}
	.st132{fill:#506B26;}
	.st133{fill:#82A15B;}
	.st134{fill:#698958;}
	.st135{fill:#DD8344;}
	.st136{fill:#B56721;}
	.st137{fill:#C2463A;}
	.st138{fill:#CC6E64;}
	.st139{fill:#5EA817;}
	.st140{fill:#5F8F22;}
	.st141{fill:#C24F3C;}
	.st142{fill:#AB4A39;}
	.st143{fill:#BB413C;}
	.st144{fill:#EA7142;}
	.st145{fill:#ED835B;}
	.st146{fill:#E76D18;}
	.st147{fill:#56734E;}
	.st148{fill:#CBC797;}
	.st149{fill:#F1F0E1;}
	.st150{fill:#DBD9CA;}
	.st151{fill:#496042;}
	.st152{fill:#547534;}
	.st153{fill:#C0D591;}
	.st154{fill:#B3C483;}
	.st155{fill:#DFEAC1;}
	.st156{fill:#D5DDB8;}
	.st157{fill:#577F36;}
	.st158{fill:#4D6D2F;}
	.st159{fill:#4F6B32;}
	.st160{fill:#AAC654;}
	.st161{fill:#A0B252;}
	.st162{fill:#9B3743;}
	.st163{fill:#A34D5B;}
	.st164{fill:#75434B;}
	.st165{fill:#80333D;}
	.st166{fill:#722F3A;}
	.st167{fill:#8E424F;}
	.st168{fill:#A5273F;}
	.st169{fill:#9B2944;}
	.st170{fill:#93B250;}
	.st171{fill:#778950;}
	.st172{fill:#B1B297;}
	.st173{fill:#5D6B3E;}
	.st174{fill:#769328;}
	.st175{fill:#B9BC9D;}
	.st176{fill:#B4CE6E;}
	.st177{fill:#CCCEAF;}
	.st178{fill:#AEAF94;}
	.st179{fill:#E8C046;stroke:#7F6D62;stroke-width:0.15;stroke-miterlimit:10;}
	.st180{fill:#B7C661;}
	.st181{fill:#CED893;stroke:#ACB25F;stroke-width:0.5;stroke-miterlimit:10;}
	.st182{fill:#D79F4A;}
	.st183{clip-path:url(#SVGID_4_);}
	.st184{fill:#CDD98D;}
	.st185{fill:#FADA37;}
	.st186{fill:#CCB244;}
	.st187{fill:#FAE089;}
	.st188{fill:#FFED90;}
	.st189{fill:#ECDB6F;}
	.st190{fill:#FECF73;}
	.st191{fill:#CEA865;}
	.st192{fill:#EDDFCA;}
	.st193{fill:#EBDECA;}
	.st194{fill:#638408;}
	.st195{fill:#CE9F41;}
	.st196{fill:#F7BA23;}
	.st197{fill:#EAAE2A;}
	.st198{fill:#F2CE36;}
	.st199{fill:#F9D53D;}
	.st200{fill:#FCDA4F;}
	.st201{fill:#F7E289;}
	.st202{fill:#668F05;}
	.st203{fill:#597214;}
	.st204{fill:#8BA040;}
	.st205{fill:#7AA122;}
	.st206{fill:#95BB28;}
	.st207{fill:#E7F2A6;}
	.st208{fill:#C4CC75;}
	.st209{fill:#87A82C;}
	.st210{fill:#9FBF45;}
	.st211{fill:#728E25;}
	.st212{fill:#7D4E30;}
	.st213{fill:#3F5A2F;}
	.st214{fill:#4B7837;}
	.st215{fill:#85A93F;}
	.st216{fill:#693F26;}
	.st217{fill:#8C7668;}
	.st218{fill:#EDE9E6;}
	.st219{fill:#FFFDFC;}
	.st220{fill:#846F5C;}
	.st221{clip-path:url(#SVGID_6_);}
	.st222{fill:#B2A594;}
	.st223{fill:#E4DDD5;}
	.st224{fill:#A16D46;}
	.st225{fill:#9A8E42;}
	.st226{fill:#BBB061;}
	.st227{fill:#A08F41;}
	.st228{fill:#C1AD56;}
	.st229{opacity:0.7;}
	.st230{fill:#DACA7F;}
	.st231{fill:#EEE49F;}
	.st232{opacity:0.5;}
	.st233{fill:#FFF9D7;}
	.st234{fill:#7C7F32;}
	.st235{fill:#95A84C;}
	.st236{fill:#D8B45C;}
	.st237{fill:#FCC572;}
	.st238{fill:#FED49A;}
	.st239{fill:#C0782C;}
	.st240{fill:#D49430;}
	.st241{fill:#F5D19D;}
	.st242{opacity:0.35;}
	.st243{fill:#F9AFC9;}
	.st244{fill:#F9CDDE;}
	.st245{fill:#FFF3F8;}
	.st246{fill:#F4A2C3;}
	.st247{fill:#FFFFFF;}
	.st248{fill:#D7F2F9;}
	.st249{fill:#492743;}
	.st250{fill:#20131D;}
	.st251{fill:#685364;}
	.st252{fill:#748115;}
	.st253{fill:#A7B86A;}
</style>
<g id="Слой_1">
</g>
<g id="Слой_2">
</g>
<g id="Слой_4">
</g>
<g id="Слой_3">
	<g>
		<path class="st127" d="M30.74,10.9c-0.32-0.74-1.14-0.88-1.86-0.69c-1.18,0.3-1.41,1.58-0.9,2.58c0.7,1.39,2.44,2.38,3.57,3.4
			c1.31,1.18,2.56,2.42,3.76,3.72c4.93,5.31,8.9,11.51,11.69,18.2c1.57,3.76,2.74,7.67,3.53,11.67c0.04,0.18,0.81,0.06,0.78-0.1
			c-1.49-7.55-4.4-14.76-8.55-21.24c-2.08-3.26-4.47-6.32-7.13-9.13c-1.31-1.38-2.68-2.7-4.11-3.95c-0.69-0.61-1.46-1.15-2.11-1.81
			c-0.43-0.44-0.84-0.96-0.91-1.6c-0.06-0.37,0-0.72,0.16-1.07c0.65-0.54,1.09-0.49,1.3,0.13C30.05,11.2,30.78,11.01,30.74,10.9
			L30.74,10.9z"/>
	</g>
	<g>
		<path class="st37" d="M64.97,44.8c0.01-0.45-0.07-0.88-0.18-1.29c0.02-0.18,0.06-0.35,0.07-0.52c0.01-0.16-0.23-0.29-0.42-0.38
			c-0.55-1.08-1.52-1.91-2.77-2.29c-0.33-0.13-0.69-0.23-1.02-0.24c-0.2-0.01-0.41-0.01-0.62,0.01c-0.01,0-0.01,0-0.02,0
			c-3.09,0.1-5.22,2.49-6.87,4.58c-0.9,1.15-1.62,2.71-0.86,4.17c0.6,1.14,1.87,1.76,3.09,2.26c0,0.01-0.01,0.01-0.01,0.02
			c0.19,1.08,1.16,1.88,2.3,2.16c1.2,0.29,2.42-0.01,3.37-0.64c1.29-0.85,1.95-2.26,2.58-3.56C64.29,47.74,64.95,46.33,64.97,44.8z
			 M56.77,42.16c-0.01,0-0.03,0-0.04-0.01c0.04-0.03,0.07-0.06,0.11-0.09C56.81,42.09,56.79,42.12,56.77,42.16z M53.8,49.35
			c0.01,0,0.03,0,0.05,0.01c0.06,0.09,0.11,0.17,0.17,0.26c-0.11-0.09-0.21-0.19-0.31-0.3C53.74,49.33,53.77,49.35,53.8,49.35z
			 M57.61,52.63c0.17,0.02,0.31,0.04,0.38,0.05c0.33,0.04,0.81,0.09,1.26,0.06C58.7,52.89,58.11,52.85,57.61,52.63z"/>
		<g>
			<path class="st127" d="M61.8,41.82c-0.46,1.01-0.78,2.07-1.32,3.06c-0.57,1.05-1.26,2.05-2.05,2.94
				c-0.75,0.84-1.61,1.6-2.49,2.31c-0.46,0.37-0.93,0.71-1.42,1.03c-0.31,0.2-0.97,0.43-1.1,0.8c-0.04,0.11,0.19,0.11,0.25,0.1
				c1.04-0.18,2.01-1.03,2.82-1.68c0.86-0.7,1.61-1.52,2.27-2.41c0.7-0.93,1.34-1.9,1.86-2.94c0.5-1.01,1.04-2.08,1.18-3.21
				C61.81,41.82,61.8,41.82,61.8,41.82L61.8,41.82z"/>
		</g>
		<g>
			<path class="st127" d="M59.58,41.52c0.42,0.41,0.73,0.94,0.89,1.51c0.16,0.59,0.14,1.16,0.07,1.75c0,0.03,0.05,0.02,0.06,0
				c0.21-0.56,0.16-1.23-0.02-1.79c-0.18-0.57-0.5-1.08-0.93-1.49C59.62,41.48,59.56,41.5,59.58,41.52L59.58,41.52z"/>
		</g>
		<g>
			<path class="st127" d="M58.38,43.59c0.29,0.52,0.55,1.04,0.68,1.62c0.06,0.28,0.1,0.56,0.11,0.85c0.01,0.29-0.04,0.58-0.01,0.87
				c0,0.03,0.08,0.01,0.08-0.01c0.11-0.27,0.12-0.57,0.11-0.86c-0.01-0.3-0.05-0.6-0.13-0.9c-0.14-0.58-0.39-1.14-0.79-1.58
				C58.43,43.57,58.37,43.58,58.38,43.59L58.38,43.59z"/>
		</g>
		<g>
			<path class="st127" d="M56.05,45.19c0.14,0.35,0.34,0.68,0.47,1.04c0.12,0.36,0.21,0.73,0.26,1.1c0.05,0.36,0.06,0.73,0.03,1.1
				c-0.03,0.37-0.13,0.73-0.15,1.1c0,0.04,0.08,0.01,0.1-0.01c0.37-0.65,0.35-1.54,0.24-2.26c-0.06-0.38-0.16-0.74-0.3-1.09
				c-0.14-0.36-0.32-0.72-0.58-1C56.11,45.15,56.04,45.16,56.05,45.19L56.05,45.19z"/>
		</g>
		<g>
			<path class="st127" d="M60.6,44.98c0.45-0.27,0.95-0.45,1.47-0.51c0.26-0.03,0.52-0.03,0.78,0c0.25,0.03,0.49,0.09,0.73,0.14
				c0.02,0,0.12-0.02,0.1-0.03c-0.23-0.12-0.53-0.16-0.78-0.19c-0.28-0.03-0.56-0.02-0.84,0.01c-0.56,0.07-1.11,0.25-1.58,0.57
				C60.46,44.99,60.58,44.99,60.6,44.98L60.6,44.98z"/>
		</g>
		<g>
			<path class="st127" d="M59.3,47.17c0.4,0.03,0.81,0,1.21-0.02c0.42-0.02,0.85-0.03,1.27-0.09c0.05-0.01,0.16-0.07,0.04-0.07
				c-0.41-0.02-0.83,0.01-1.23,0.04c-0.42,0.03-0.85,0.04-1.27,0.11C59.3,47.13,59.25,47.16,59.3,47.17L59.3,47.17z"/>
		</g>
		<g>
			<path class="st127" d="M56.97,49.83c0.26,0.05,0.54,0,0.8,0.01c0.27,0.01,0.54,0.02,0.82,0.05c0.27,0.03,0.55,0.07,0.82,0.14
				c0.12,0.03,0.24,0.04,0.36,0.07c0.15,0.05,0.31,0.1,0.46,0.13c0.05,0.01,0.21-0.04,0.13-0.11c-0.11-0.09-0.24-0.14-0.36-0.2
				c-0.14-0.06-0.26-0.13-0.4-0.18c-0.3-0.1-0.6-0.16-0.92-0.19c-0.31-0.03-0.64-0.03-0.95,0.01c-0.25,0.04-0.56,0.07-0.77,0.22
				C56.93,49.8,56.95,49.83,56.97,49.83L56.97,49.83z"/>
		</g>
	</g>
	<g>
		<path class="st37" d="M33.52,32.39c-0.35,0.32-0.63,0.68-0.88,1.07c-0.15,0.11-0.31,0.2-0.45,0.32c-0.13,0.1-0.08,0.39-0.02,0.6
			c-0.48,1.21-0.5,2.57,0.02,3.83c0.12,0.36,0.27,0.71,0.47,0.98c0.12,0.16,0.26,0.33,0.41,0.48c0,0.01,0.01,0.01,0.01,0.02
			c2.08,2.38,5.3,2.35,7.98,2.15c1.47-0.11,3.15-0.66,3.78-2.31c0.49-1.28,0.15-2.75-0.25-4.06c0.01-0.01,0.02-0.01,0.02-0.01
			c0.71-0.93,0.7-2.26,0.18-3.36c-0.55-1.16-1.58-1.91-2.68-2.21c-1.49-0.41-3.01,0.08-4.42,0.51
			C36.23,30.83,34.71,31.32,33.52,32.39z M36.78,40.78c0.01,0.01,0.01,0.03,0.02,0.04c-0.05-0.01-0.09-0.01-0.14-0.02
			C36.7,40.79,36.74,40.78,36.78,40.78z M44.27,37.97c0-0.01-0.02-0.03-0.03-0.04c0.03-0.11,0.06-0.21,0.09-0.32
			c0,0.15-0.01,0.31-0.03,0.46C44.29,38.04,44.28,38,44.27,37.97z M44.34,32.61c-0.09-0.15-0.17-0.27-0.21-0.34
			c-0.18-0.28-0.46-0.7-0.77-1.04C43.84,31.56,44.18,32.06,44.34,32.61z"/>
		<g>
			<path class="st127" d="M33.26,37.04c1.08-0.37,2.11-0.86,3.22-1.15c1.17-0.3,2.4-0.47,3.6-0.48c1.14-0.01,2.28,0.13,3.4,0.31
				c0.58,0.1,1.15,0.23,1.72,0.39c0.35,0.1,0.96,0.46,1.33,0.29c0.11-0.05-0.04-0.23-0.08-0.27c-0.82-0.69-2.1-0.86-3.12-1.02
				c-1.1-0.18-2.21-0.18-3.33-0.08c-1.17,0.11-2.34,0.3-3.48,0.63C35.4,35.99,34.22,36.33,33.26,37.04
				C33.25,37.03,33.26,37.04,33.26,37.04L33.26,37.04z"/>
		</g>
		<g>
			<path class="st127" d="M34.47,39.01c0.05-0.63,0.25-1.25,0.59-1.78c0.35-0.55,0.8-0.94,1.31-1.31c0.02-0.02-0.02-0.06-0.04-0.05
				c-0.57,0.24-1.05,0.75-1.37,1.3c-0.33,0.55-0.52,1.17-0.55,1.81C34.41,39,34.47,39.04,34.47,39.01L34.47,39.01z"/>
		</g>
		<g>
			<path class="st127" d="M36.84,38.47c0.21-0.6,0.45-1.18,0.81-1.7c0.18-0.25,0.37-0.48,0.59-0.69c0.22-0.22,0.47-0.39,0.68-0.62
				c0.02-0.02-0.04-0.07-0.06-0.06c-0.29,0.11-0.52,0.32-0.74,0.53c-0.23,0.22-0.43,0.47-0.61,0.74c-0.35,0.53-0.63,1.12-0.71,1.76
				C36.8,38.45,36.84,38.49,36.84,38.47L36.84,38.47z"/>
		</g>
		<g>
			<path class="st127" d="M39.59,39.17c0.18-0.37,0.3-0.76,0.5-1.11c0.19-0.35,0.43-0.69,0.68-0.99c0.25-0.3,0.53-0.57,0.83-0.81
				c0.31-0.24,0.65-0.42,0.95-0.67c0.03-0.03-0.04-0.08-0.07-0.07c-0.74,0.17-1.42,0.83-1.9,1.42c-0.26,0.31-0.47,0.66-0.65,1.02
				c-0.18,0.37-0.36,0.77-0.4,1.18C39.53,39.15,39.57,39.2,39.59,39.17L39.59,39.17z"/>
		</g>
		<g>
			<path class="st127" d="M36.48,35.72c-0.5-0.16-0.96-0.43-1.34-0.8c-0.19-0.18-0.36-0.39-0.51-0.62
				c-0.14-0.22-0.24-0.45-0.36-0.68c-0.01-0.02-0.09-0.08-0.09-0.06c0.05,0.27,0.22,0.53,0.36,0.75c0.16,0.24,0.35,0.46,0.55,0.66
				c0.42,0.4,0.91,0.7,1.46,0.84C36.59,35.83,36.51,35.73,36.48,35.72L36.48,35.72z"/>
		</g>
		<g>
			<path class="st127" d="M39.01,35.18c-0.24-0.34-0.52-0.64-0.8-0.95c-0.29-0.32-0.58-0.65-0.89-0.94
				c-0.04-0.04-0.16-0.08-0.09,0.02c0.25,0.34,0.54,0.65,0.83,0.95c0.29,0.32,0.58,0.64,0.91,0.92
				C38.99,35.21,39.05,35.23,39.01,35.18L39.01,35.18z"/>
		</g>
		<g>
			<path class="st127" d="M42.59,35.12c-0.13-0.24-0.35-0.43-0.51-0.64c-0.17-0.22-0.34-0.44-0.49-0.68
				c-0.15-0.24-0.3-0.49-0.42-0.74c-0.06-0.12-0.13-0.22-0.18-0.34c-0.06-0.15-0.12-0.32-0.2-0.46c-0.02-0.05-0.17-0.14-0.17-0.02
				c0,0.15,0.04,0.29,0.08,0.43c0.04,0.15,0.06,0.3,0.12,0.44c0.12,0.3,0.27,0.59,0.45,0.86c0.18,0.27,0.38,0.53,0.62,0.74
				c0.19,0.17,0.42,0.39,0.67,0.45C42.59,35.17,42.6,35.14,42.59,35.12L42.59,35.12z"/>
		</g>
	</g>
	<g>
		<path class="st128" d="M18.61,33.37c2.41-2.48,7.87-0.55,11.34,0.67c4.56,1.6,7.92,3.69,13,7.33c10.65,7.61,8.77,7.61,14.71,11.22
			c9.73,5.91,14.6,8.87,14.66,8.88c0.72,0.24,3.11,0.97,3.31,2.38c0.11,0.75-0.42,1.61-1.12,2c-1.33,0.74-2.74-0.53-4.67-0.87
			c-2.92-0.51-4.95,1.48-6.86,2.3c-2.51,1.08-5.56,0.46-24.1-11.4c-14.33-9.17-5.67-4.43-12.71-8.89c-4.4-2.79-7.6-4.52-8.48-8.11
			C17.6,38.47,16.84,35.19,18.61,33.37z"/>
		<path class="st129" d="M72.33,61.47c-0.06-0.02-4.93-2.97-14.66-8.88c-5.94-3.61-4.06-3.61-14.71-11.22
			c-2.69-1.92-4.9-3.41-7.06-4.62c-0.02,0.25,0.04,0.51,0.27,0.74c6.41,6.3,13.4,12.01,20.9,16.97c3.7,2.45,7.52,4.69,11.43,6.79
			c2.21,1.19,4.62,2.49,6.43,4.3c0.48-0.44,0.8-1.09,0.71-1.69C75.44,62.44,73.05,61.7,72.33,61.47z"/>
		<path class="st130" d="M25.04,36.57c1.16-0.83,2.96-1.09,7.3,0.48c3.3,1.19,6.36,2.82,11.59,6.5c1.1,0.78,4.52,3.21,8.82,6.7
			c6.27,5.1,5.55,5.25,7.94,6.51c2.64,1.39,5.1,2.03,5.8,4.23c0.07,0.21,0.55,1.79-0.24,2.92c-1.62,2.32-7.74,1.43-12.17-0.71
			c-3.9-1.89-3.59-3.36-9.45-7.14c-3.17-2.04-3.13-1.53-6.72-3.83c-3.55-2.28-3-2.4-8.72-6.65c-4.16-3.09-5.81-4.03-5.85-5.83
			C23.31,38.44,24.12,37.23,25.04,36.57z"/>
		<circle class="st128" cx="28.02" cy="39.79" r="3.31"/>
		<circle class="st131" cx="29.61" cy="38.82" r="0.88"/>
		<circle class="st128" cx="56.63" cy="59.21" r="3.31"/>
		<circle class="st131" cx="58.22" cy="58.23" r="0.88"/>
		<circle class="st128" cx="63.34" cy="61.77" r="2.7"/>
		<circle class="st131" cx="64.64" cy="60.97" r="0.72"/>
		<circle class="st128" cx="34.88" cy="43.51" r="4.17"/>
		<circle class="st131" cx="36.89" cy="42.28" r="1.1"/>
		<circle class="st128" cx="50.18" cy="54.53" r="4.17"/>
		<circle class="st131" cx="52.18" cy="53.3" r="1.1"/>
		<circle class="st128" cx="42.41" cy="49.08" r="4.73"/>
		<circle class="st131" cx="44.68" cy="47.68" r="1.25"/>
		<circle class="st128" cx="22.98" cy="55.35" r="5.37"/>
		<circle class="st131" cx="25.57" cy="53.77" r="1.42"/>
		<circle class="st128" cx="31.26" cy="63.95" r="3.26"/>
		<circle class="st131" cx="32.83" cy="62.98" r="0.86"/>
		<g>
			<path class="st132" d="M23.94,39.18c0.01-0.22-0.63-0.35-1.39-0.88c-0.89-0.62-1.06-1.16-1.63-1.81
				c-0.12-0.13-0.25-0.26-0.39-0.38c0.59-0.17,1.09-0.46,1.35-0.87c0.41-0.67,0-1.35,0.62-1.99c0.4-0.41,0.99-0.55,1.86-0.75
				c0.92-0.21,1.39-0.3,1.39-0.3s-1.11-0.74-2.29-0.89c-2.07-0.27-3.69,0.64-3.92,0.78c-0.81,0.47-1.77,1.27-2.31,2.04
				c-0.38-1.08-1.29-2.02-2.43-2.11c-0.56-0.04-1.04,0.13-1.39,0.33c-0.35-0.48-1.03-1.09-2.01-1.96c-1.92-1.7-2.9-2.54-3.75-2.43
				c-0.14,0.02-0.88,0.12-1.12,0.62c-0.5,1.06,1.62,2.93,2.54,3.75c0.92,0.81,1.92,1.7,2.84,1.91c-0.15,0.53-0.17,1.09-0.01,1.62
				c0.44,1.39,2.06,2.24,3.43,2.07c-0.09,0.39-0.08,0.79,0.08,1.1c0.36,0.69,1.18,0.39,2.09,1.29c0.11,0.1,0.25,0.27,1.05,1.76
				c0.91,1.72,1,2.04,1.22,2.04c0.5-0.01,1.03-1.64,0.99-3.11c-0.01-0.33-0.03-0.95-0.26-1.63c0.67,0.14,1.26,0.17,1.59,0.18
				C22.91,39.58,23.92,39.46,23.94,39.18z"/>
			<g>
				<path class="st133" d="M17.89,34.28c1.75-1.57,4.07-2.42,6.42-2.35c0.09,0,0.14-0.03,0.11-0.11c-0.04-0.08-0.24-0.09-0.31-0.1
					c-2.43-0.07-4.84,0.8-6.65,2.42C17.37,34.22,17.79,34.37,17.89,34.28L17.89,34.28z"/>
			</g>
			<g>
				<path class="st133" d="M21.59,39.06c-1.16-0.01-2.23-0.72-2.79-1.72c-0.05-0.08-0.19-0.1-0.27-0.11c-0.03,0-0.22-0.01-0.18,0.06
					c0.69,1.22,2.06,1.94,3.45,1.95c0.07,0,0.16-0.01,0.1-0.09C21.85,39.07,21.67,39.06,21.59,39.06L21.59,39.06z"/>
			</g>
			<g>
				<path class="st133" d="M15.43,37.88c0.02,0.59,0.46,1.09,1.01,1.26c0.08,0.02,0.23,0.06,0.3-0.02c0.06-0.08-0.08-0.15-0.13-0.17
					c-0.03-0.01-0.06-0.02-0.09-0.03c-0.04-0.01,0.02,0.01-0.01,0c-0.01-0.01-0.03-0.01-0.04-0.02c-0.02-0.01-0.05-0.02-0.07-0.04
					c-0.01-0.01-0.03-0.02-0.01-0.01c-0.01-0.01-0.03-0.02-0.04-0.03c-0.1-0.07-0.16-0.13-0.23-0.23c-0.14-0.18-0.22-0.4-0.23-0.62
					c0-0.1-0.12-0.14-0.21-0.16c-0.06-0.01-0.11-0.02-0.17,0C15.48,37.82,15.43,37.84,15.43,37.88L15.43,37.88z"/>
			</g>
			<g>
				<path class="st133" d="M17.45,39.89c0.6,0.7,1.04,1.53,1.29,2.42c0.05,0.19,0.52,0.22,0.46,0.01c-0.27-0.95-0.74-1.83-1.38-2.58
					C17.69,39.6,17.26,39.68,17.45,39.89L17.45,39.89z"/>
			</g>
			<g>
				<path class="st133" d="M12.26,34.25c-0.08,0.8,0.22,1.62,0.83,2.16c0.65,0.58,1.58,0.81,2.43,0.66c0.09-0.02,0.1-0.09,0.03-0.14
					c-0.08-0.07-0.22-0.08-0.33-0.07c-1.48,0.26-2.65-1.11-2.51-2.52C12.74,34.2,12.28,34.12,12.26,34.25L12.26,34.25z"/>
			</g>
		</g>
	</g>
	<g>
		<path class="st37" d="M56.69,26.88c0.01-0.45-0.07-0.88-0.18-1.29c0.02-0.18,0.06-0.35,0.07-0.52c0.01-0.16-0.23-0.29-0.42-0.38
			c-0.55-1.08-1.52-1.91-2.77-2.29c-0.33-0.13-0.69-0.23-1.02-0.24c-0.2-0.01-0.41-0.01-0.62,0.01c-0.01,0-0.01,0-0.02,0
			c-3.09,0.1-5.22,2.49-6.87,4.58c-0.9,1.15-1.62,2.71-0.86,4.17c0.6,1.14,1.87,1.76,3.09,2.26c0,0.01-0.01,0.01-0.01,0.02
			c0.19,1.08,1.16,1.88,2.3,2.16c1.2,0.29,2.42-0.01,3.37-0.64c1.29-0.85,1.95-2.26,2.58-3.56C56,29.82,56.67,28.4,56.69,26.88z
			 M48.49,24.23c-0.01,0-0.03,0-0.04-0.01c0.04-0.03,0.07-0.06,0.11-0.09C48.53,24.17,48.51,24.2,48.49,24.23z M45.51,31.43
			c0.01,0,0.03,0,0.05,0.01c0.06,0.09,0.11,0.17,0.17,0.26c-0.11-0.09-0.21-0.19-0.31-0.3C45.45,31.4,45.48,31.42,45.51,31.43z
			 M49.32,34.7c0.17,0.02,0.31,0.04,0.38,0.05c0.33,0.04,0.81,0.09,1.26,0.06C50.42,34.97,49.83,34.92,49.32,34.7z"/>
		<g>
			<path class="st127" d="M53.51,23.9c-0.46,1.01-0.78,2.07-1.32,3.06C51.63,28,50.94,29,50.15,29.89c-0.75,0.84-1.61,1.6-2.49,2.31
				c-0.46,0.37-0.93,0.71-1.42,1.03c-0.31,0.2-0.97,0.43-1.1,0.8c-0.04,0.11,0.19,0.11,0.25,0.1c1.04-0.18,2.01-1.03,2.82-1.68
				c0.86-0.7,1.61-1.52,2.27-2.41c0.7-0.93,1.34-1.9,1.86-2.94c0.5-1.01,1.04-2.08,1.18-3.21C53.53,23.89,53.52,23.89,53.51,23.9
				L53.51,23.9z"/>
		</g>
		<g>
			<path class="st127" d="M51.29,23.6c0.42,0.41,0.73,0.94,0.89,1.51c0.16,0.59,0.14,1.16,0.07,1.75c0,0.03,0.05,0.02,0.06,0
				c0.21-0.56,0.16-1.23-0.02-1.79c-0.18-0.57-0.5-1.08-0.93-1.49C51.34,23.56,51.27,23.58,51.29,23.6L51.29,23.6z"/>
		</g>
		<g>
			<path class="st127" d="M50.1,25.67c0.29,0.52,0.55,1.04,0.68,1.62c0.06,0.28,0.1,0.56,0.11,0.85c0.01,0.29-0.04,0.58-0.01,0.87
				c0,0.03,0.08,0.01,0.08-0.01c0.11-0.27,0.12-0.57,0.11-0.86c-0.01-0.3-0.05-0.6-0.13-0.9c-0.14-0.58-0.39-1.14-0.79-1.58
				C50.14,25.65,50.09,25.65,50.1,25.67L50.1,25.67z"/>
		</g>
		<g>
			<path class="st127" d="M47.77,27.26c0.14,0.35,0.34,0.68,0.47,1.04c0.12,0.36,0.21,0.73,0.26,1.1c0.05,0.36,0.06,0.73,0.03,1.1
				c-0.03,0.37-0.13,0.73-0.15,1.1c0,0.04,0.08,0.01,0.1-0.01c0.37-0.65,0.35-1.54,0.24-2.26c-0.06-0.38-0.16-0.74-0.3-1.09
				c-0.14-0.36-0.32-0.72-0.58-1C47.82,27.23,47.76,27.23,47.77,27.26L47.77,27.26z"/>
		</g>
		<g>
			<path class="st127" d="M52.32,27.05c0.45-0.27,0.95-0.45,1.47-0.51c0.26-0.03,0.52-0.03,0.78,0c0.25,0.03,0.49,0.09,0.73,0.14
				c0.02,0,0.12-0.02,0.1-0.03c-0.23-0.12-0.53-0.16-0.78-0.19c-0.28-0.03-0.56-0.02-0.84,0.01c-0.56,0.07-1.11,0.25-1.58,0.57
				C52.17,27.07,52.29,27.07,52.32,27.05L52.32,27.05z"/>
		</g>
		<g>
			<path class="st127" d="M51.02,29.24c0.4,0.03,0.81,0,1.21-0.02c0.42-0.02,0.85-0.03,1.27-0.09c0.05-0.01,0.16-0.07,0.04-0.07
				c-0.41-0.02-0.83,0.01-1.23,0.04c-0.42,0.03-0.85,0.04-1.27,0.11C51.02,29.21,50.96,29.24,51.02,29.24L51.02,29.24z"/>
		</g>
		<g>
			<path class="st127" d="M48.68,31.91c0.26,0.05,0.54,0,0.8,0.01c0.27,0.01,0.54,0.02,0.82,0.05c0.27,0.03,0.55,0.07,0.82,0.14
				c0.12,0.03,0.24,0.04,0.36,0.07c0.15,0.05,0.31,0.1,0.46,0.13c0.05,0.01,0.21-0.04,0.13-0.11c-0.11-0.09-0.24-0.14-0.36-0.2
				c-0.14-0.06-0.26-0.13-0.4-0.18c-0.3-0.1-0.6-0.16-0.92-0.19c-0.31-0.03-0.64-0.03-0.95,0.01c-0.25,0.04-0.56,0.07-0.77,0.22
				C48.64,31.88,48.66,31.9,48.68,31.91L48.68,31.91z"/>
		</g>
	</g>
	<g>
		<path class="st37" d="M48.47,18.35c-0.03-0.32-0.11-0.63-0.23-0.92c0-0.13,0.01-0.26,0.01-0.38c0-0.11-0.19-0.19-0.33-0.24
			c-0.48-0.74-1.24-1.27-2.17-1.45c-0.25-0.07-0.52-0.11-0.75-0.1c-0.14,0.01-0.3,0.03-0.44,0.06c0,0-0.01,0-0.01,0
			c-2.23,0.3-3.59,2.18-4.62,3.82c-0.57,0.9-0.97,2.08-0.31,3.08c0.51,0.78,1.49,1.14,2.4,1.4c0,0.01,0,0.01,0,0.02
			c0.22,0.77,0.98,1.27,1.82,1.39c0.89,0.12,1.75-0.19,2.39-0.71c0.87-0.71,1.24-1.78,1.6-2.76C48.19,20.52,48.56,19.45,48.47,18.35
			z M42.34,17.04c-0.01,0-0.02,0-0.03,0c0.02-0.02,0.05-0.05,0.07-0.07C42.37,16.99,42.36,17.02,42.34,17.04z M40.73,22.46
			c0.01,0,0.02,0,0.03,0c0.05,0.06,0.09,0.12,0.14,0.17c-0.09-0.06-0.17-0.12-0.25-0.19C40.68,22.45,40.7,22.46,40.73,22.46z
			 M43.72,24.55c0.12,0,0.23,0,0.28,0c0.24,0,0.59,0,0.92-0.05C44.53,24.66,44.1,24.67,43.72,24.55z"/>
		<g>
			<path class="st127" d="M45.95,16.43c-0.25,0.77-0.41,1.56-0.72,2.31c-0.33,0.8-0.76,1.58-1.26,2.27
				c-0.48,0.66-1.04,1.28-1.63,1.85c-0.3,0.3-0.62,0.58-0.95,0.85c-0.21,0.17-0.67,0.38-0.73,0.66c-0.02,0.08,0.15,0.06,0.19,0.05
				c0.74-0.21,1.38-0.89,1.91-1.42c0.57-0.57,1.05-1.22,1.47-1.91c0.44-0.72,0.83-1.47,1.13-2.26
				C45.63,18.07,45.94,17.25,45.95,16.43C45.96,16.42,45.95,16.43,45.95,16.43L45.95,16.43z"/>
		</g>
		<g>
			<path class="st127" d="M44.32,16.38c0.34,0.27,0.6,0.62,0.75,1.02c0.16,0.41,0.19,0.82,0.18,1.26c0,0.02,0.04,0.01,0.04,0
				c0.11-0.42,0.02-0.9-0.15-1.29c-0.17-0.4-0.44-0.75-0.78-1.01C44.35,16.34,44.31,16.36,44.32,16.38L44.32,16.38z"/>
		</g>
		<g>
			<path class="st127" d="M43.61,17.96c0.25,0.35,0.47,0.71,0.61,1.12c0.07,0.2,0.11,0.4,0.14,0.6c0.03,0.21,0.02,0.42,0.06,0.63
				c0,0.02,0.06,0,0.06-0.01c0.06-0.21,0.04-0.42,0.01-0.63c-0.03-0.22-0.08-0.43-0.16-0.64c-0.15-0.41-0.36-0.8-0.69-1.09
				C43.64,17.94,43.61,17.95,43.61,17.96L43.61,17.96z"/>
		</g>
		<g>
			<path class="st127" d="M42.05,19.29c0.13,0.24,0.3,0.46,0.42,0.72c0.12,0.25,0.2,0.51,0.27,0.78c0.06,0.26,0.1,0.52,0.1,0.79
				c0.01,0.27-0.04,0.54-0.02,0.81c0,0.03,0.06,0,0.07-0.01c0.22-0.49,0.14-1.14,0.01-1.65c-0.07-0.27-0.17-0.52-0.3-0.77
				c-0.13-0.25-0.28-0.5-0.5-0.68C42.09,19.26,42.04,19.27,42.05,19.29L42.05,19.29z"/>
		</g>
		<g>
			<path class="st127" d="M45.32,18.8c0.3-0.23,0.65-0.39,1.02-0.48c0.19-0.04,0.38-0.06,0.57-0.06c0.18,0,0.36,0.03,0.54,0.05
				c0.01,0,0.08-0.02,0.07-0.03c-0.17-0.07-0.39-0.08-0.58-0.08c-0.2,0-0.41,0.02-0.61,0.07c-0.4,0.09-0.78,0.26-1.1,0.53
				C45.22,18.82,45.31,18.81,45.32,18.8L45.32,18.8z"/>
		</g>
		<g>
			<path class="st127" d="M44.55,20.48c0.29-0.01,0.58-0.06,0.87-0.1c0.3-0.04,0.61-0.09,0.91-0.16c0.04-0.01,0.11-0.06,0.03-0.06
				c-0.3,0.02-0.6,0.07-0.89,0.12c-0.3,0.05-0.61,0.09-0.91,0.17C44.54,20.45,44.5,20.48,44.55,20.48L44.55,20.48z"/>
		</g>
		<g>
			<path class="st127" d="M43.05,22.57c0.19,0.02,0.39-0.04,0.58-0.05c0.2-0.01,0.39-0.03,0.59-0.03c0.2,0,0.4,0.01,0.6,0.04
				c0.09,0.01,0.18,0.01,0.27,0.02c0.11,0.02,0.23,0.05,0.35,0.06c0.04,0,0.15-0.04,0.09-0.09c-0.08-0.06-0.18-0.09-0.27-0.12
				c-0.1-0.03-0.19-0.08-0.3-0.1c-0.22-0.05-0.45-0.07-0.68-0.07c-0.23,0-0.46,0.02-0.68,0.08c-0.18,0.04-0.4,0.09-0.54,0.22
				C43.02,22.56,43.04,22.57,43.05,22.57L43.05,22.57z"/>
		</g>
	</g>
	<g>
		<path class="st37" d="M33.74,13.03c-0.16-0.08-0.32-0.13-0.48-0.16c-0.06-0.04-0.11-0.08-0.17-0.12c-0.05-0.03-0.14,0.03-0.2,0.08
			c-0.48,0-0.94,0.2-1.29,0.57c-0.1,0.09-0.2,0.2-0.26,0.31c-0.04,0.07-0.07,0.14-0.1,0.22c0,0,0,0,0,0.01
			c-0.51,1.1-0.04,2.27,0.4,3.21c0.24,0.52,0.67,1.05,1.31,1.03c0.5-0.01,0.95-0.35,1.33-0.69c0,0,0,0.01,0.01,0.01
			c0.41,0.12,0.86-0.08,1.16-0.43c0.31-0.37,0.42-0.85,0.37-1.3c-0.07-0.6-0.45-1.08-0.8-1.53C34.65,13.78,34.27,13.3,33.74,13.03z
			 M31.37,15.44c0,0-0.01,0.01-0.01,0.01c0-0.02-0.01-0.04-0.01-0.05C31.36,15.41,31.36,15.43,31.37,15.44z M33.38,17.75
			c0,0,0.01-0.01,0.01-0.02c0.04,0,0.08-0.01,0.12-0.02c-0.05,0.02-0.1,0.04-0.16,0.06C33.36,17.76,33.37,17.76,33.38,17.75z
			 M35.19,16.99c0.04-0.05,0.07-0.1,0.08-0.13c0.07-0.11,0.17-0.27,0.24-0.43C35.48,16.65,35.36,16.85,35.19,16.99z"/>
		<g>
			<path class="st127" d="M32.14,13.62c0.28,0.34,0.59,0.64,0.84,1c0.27,0.38,0.5,0.8,0.67,1.23c0.16,0.41,0.28,0.85,0.37,1.28
				c0.05,0.22,0.09,0.45,0.11,0.68c0.02,0.14-0.02,0.42,0.09,0.53c0.03,0.03,0.07-0.05,0.08-0.07c0.12-0.4-0.01-0.89-0.1-1.28
				c-0.1-0.43-0.25-0.83-0.44-1.22c-0.2-0.41-0.43-0.8-0.7-1.17C32.79,14.24,32.51,13.86,32.14,13.62
				C32.14,13.61,32.14,13.62,32.14,13.62L32.14,13.62z"/>
		</g>
		<g>
			<path class="st127" d="M31.64,14.35c0.22-0.08,0.46-0.09,0.68-0.05c0.23,0.05,0.43,0.15,0.63,0.28c0.01,0.01,0.02-0.01,0.01-0.02
				c-0.16-0.17-0.4-0.27-0.63-0.31c-0.23-0.04-0.47-0.02-0.69,0.07C31.64,14.32,31.63,14.35,31.64,14.35L31.64,14.35z"/>
		</g>
		<g>
			<path class="st127" d="M32.16,15.13c0.23-0.01,0.46-0.01,0.69,0.05c0.11,0.03,0.21,0.06,0.32,0.11c0.1,0.05,0.2,0.12,0.3,0.16
				c0.01,0,0.02-0.02,0.01-0.03c-0.08-0.09-0.18-0.14-0.28-0.19c-0.11-0.05-0.22-0.09-0.34-0.11c-0.23-0.05-0.47-0.06-0.69,0
				C32.16,15.11,32.15,15.13,32.16,15.13L32.16,15.13z"/>
		</g>
		<g>
			<path class="st127" d="M32.31,16.23c0.15,0.01,0.3,0,0.45,0.02c0.15,0.02,0.29,0.05,0.43,0.1c0.14,0.05,0.27,0.11,0.39,0.18
				c0.13,0.08,0.23,0.17,0.36,0.24c0.01,0.01,0.02-0.03,0.01-0.03c-0.16-0.24-0.48-0.39-0.75-0.48c-0.14-0.05-0.29-0.07-0.44-0.09
				c-0.15-0.01-0.31-0.02-0.45,0.03C32.31,16.2,32.3,16.22,32.31,16.23L32.31,16.23z"/>
		</g>
		<g>
			<path class="st127" d="M33.04,14.59c-0.01-0.2,0.01-0.41,0.08-0.6c0.04-0.1,0.08-0.19,0.14-0.27c0.05-0.08,0.12-0.15,0.18-0.23
				c0-0.01,0.01-0.04,0.01-0.04c-0.08,0.06-0.15,0.16-0.2,0.24c-0.06,0.09-0.11,0.19-0.14,0.3c-0.08,0.21-0.11,0.43-0.08,0.65
				C33.02,14.65,33.04,14.6,33.04,14.59L33.04,14.59z"/>
		</g>
		<g>
			<path class="st127" d="M33.58,15.43c0.08-0.14,0.14-0.28,0.21-0.43c0.07-0.15,0.14-0.3,0.19-0.46c0.01-0.02,0-0.07-0.02-0.03
				c-0.08,0.14-0.14,0.29-0.2,0.44c-0.07,0.15-0.14,0.31-0.18,0.46C33.56,15.43,33.56,15.45,33.58,15.43L33.58,15.43z"/>
		</g>
		<g>
			<path class="st127" d="M34.1,16.72c0.06-0.08,0.1-0.19,0.14-0.28c0.05-0.09,0.1-0.19,0.16-0.28c0.06-0.09,0.12-0.18,0.19-0.26
				c0.03-0.04,0.06-0.08,0.09-0.11c0.04-0.05,0.09-0.09,0.13-0.14c0.01-0.02,0.02-0.08-0.02-0.06c-0.05,0.02-0.09,0.06-0.13,0.09
				c-0.05,0.04-0.09,0.07-0.13,0.11c-0.09,0.09-0.16,0.18-0.23,0.29c-0.07,0.1-0.12,0.22-0.16,0.33c-0.03,0.09-0.07,0.21-0.06,0.31
				C34.08,16.73,34.09,16.73,34.1,16.72L34.1,16.72z"/>
		</g>
	</g>
	<g>
		<path class="st37" d="M28.31,23.37c-0.23,0.28-0.4,0.59-0.55,0.9c-0.1,0.1-0.21,0.19-0.31,0.29c-0.09,0.09-0.01,0.3,0.07,0.45
			c-0.21,0.96-0.02,1.98,0.57,2.85c0.14,0.25,0.32,0.5,0.51,0.67c0.12,0.11,0.25,0.21,0.39,0.31c0,0,0.01,0.01,0.01,0.01
			c2,1.52,4.55,1.11,6.65,0.64c1.15-0.26,2.41-0.87,2.67-2.18c0.21-1.02-0.28-2.07-0.78-2.99c0-0.01,0.01-0.01,0.02-0.01
			c0.43-0.78,0.23-1.77-0.34-2.53c-0.6-0.8-1.53-1.23-2.44-1.32c-1.24-0.12-2.38,0.42-3.44,0.92C30.24,21.87,29.1,22.42,28.31,23.37
			z M32.11,29.22c0.01,0.01,0.02,0.02,0.02,0.03c-0.04,0-0.08,0-0.11,0C32.05,29.24,32.08,29.23,32.11,29.22z M37.65,26.22
			c-0.01-0.01-0.02-0.02-0.03-0.03c0.01-0.08,0.02-0.16,0.02-0.25c0.02,0.11,0.04,0.23,0.04,0.34
			C37.68,26.27,37.67,26.24,37.65,26.22z M36.94,22.22c-0.09-0.1-0.17-0.18-0.22-0.22c-0.19-0.19-0.46-0.47-0.76-0.69
			C36.39,21.49,36.73,21.82,36.94,22.22z"/>
		<g>
			<path class="st127" d="M28.78,26.86c0.81-0.4,1.55-0.9,2.39-1.25c0.89-0.37,1.84-0.65,2.79-0.8c0.9-0.14,1.83-0.18,2.74-0.18
				c0.47,0,0.95,0.03,1.42,0.08c0.3,0.03,0.83,0.23,1.1,0.06c0.08-0.05-0.07-0.17-0.1-0.19c-0.75-0.42-1.79-0.38-2.63-0.38
				c-0.9,0-1.78,0.13-2.66,0.35c-0.92,0.23-1.81,0.51-2.67,0.9C30.33,25.82,29.44,26.22,28.78,26.86
				C28.77,26.86,28.78,26.86,28.78,26.86L28.78,26.86z"/>
		</g>
		<g>
			<path class="st127" d="M30.02,28.18c-0.05-0.48,0.02-0.96,0.21-1.4c0.2-0.45,0.5-0.8,0.85-1.14c0.02-0.01-0.02-0.04-0.04-0.03
				c-0.42,0.25-0.73,0.69-0.9,1.13c-0.18,0.45-0.24,0.93-0.18,1.41C29.97,28.18,30.03,28.2,30.02,28.18L30.02,28.18z"/>
		</g>
		<g>
			<path class="st127" d="M31.83,27.49c0.08-0.47,0.19-0.93,0.4-1.36c0.1-0.21,0.23-0.4,0.37-0.59c0.14-0.19,0.32-0.35,0.45-0.54
				c0.01-0.02-0.04-0.05-0.06-0.04c-0.21,0.11-0.36,0.3-0.51,0.49c-0.15,0.19-0.27,0.41-0.38,0.63c-0.21,0.44-0.34,0.91-0.31,1.4
				C31.79,27.49,31.83,27.51,31.83,27.49L31.83,27.49z"/>
		</g>
		<g>
			<path class="st127" d="M34.11,27.68c0.09-0.29,0.13-0.6,0.24-0.89c0.1-0.29,0.24-0.56,0.4-0.82c0.15-0.25,0.34-0.49,0.54-0.71
				c0.21-0.22,0.45-0.39,0.65-0.62c0.02-0.02-0.05-0.05-0.06-0.05c-0.56,0.22-1.01,0.79-1.31,1.29c-0.16,0.26-0.28,0.55-0.37,0.84
				c-0.09,0.3-0.17,0.62-0.14,0.93C34.06,27.68,34.1,27.71,34.11,27.68L34.11,27.68z"/>
		</g>
		<g>
			<path class="st127" d="M31.14,25.49c-0.42-0.06-0.83-0.2-1.18-0.43c-0.18-0.11-0.34-0.25-0.49-0.4
				c-0.14-0.15-0.26-0.31-0.39-0.46c-0.01-0.01-0.08-0.05-0.08-0.03c0.08,0.19,0.25,0.37,0.39,0.52c0.16,0.16,0.34,0.3,0.53,0.43
				c0.39,0.25,0.82,0.41,1.28,0.45C31.24,25.55,31.17,25.49,31.14,25.49L31.14,25.49z"/>
		</g>
		<g>
			<path class="st127" d="M33.08,24.78c-0.24-0.23-0.51-0.41-0.77-0.61c-0.27-0.2-0.55-0.41-0.84-0.59
				c-0.04-0.02-0.14-0.04-0.07,0.02c0.25,0.22,0.52,0.42,0.79,0.61c0.28,0.2,0.55,0.41,0.85,0.58
				C33.06,24.8,33.11,24.81,33.08,24.78L33.08,24.78z"/>
		</g>
		<g>
			<path class="st127" d="M35.91,24.3c-0.14-0.16-0.34-0.28-0.49-0.41c-0.17-0.14-0.33-0.29-0.49-0.45
				c-0.16-0.16-0.31-0.33-0.44-0.5c-0.06-0.08-0.13-0.15-0.19-0.23c-0.07-0.11-0.14-0.22-0.22-0.32c-0.03-0.03-0.15-0.08-0.14,0
				c0.02,0.11,0.07,0.21,0.12,0.31c0.05,0.11,0.09,0.21,0.16,0.32c0.14,0.21,0.3,0.41,0.48,0.59c0.18,0.18,0.38,0.35,0.6,0.48
				c0.18,0.11,0.39,0.24,0.6,0.26C35.92,24.34,35.92,24.31,35.91,24.3L35.91,24.3z"/>
		</g>
	</g>
</g>
</svg>
