<?xml version="1.0" encoding="utf-8"?>
<!-- Generator: Adobe Illustrator 23.1.0, SVG Export Plug-In . SVG Version: 6.00 Build 0)  -->
<svg version="1.1" xmlns="http://www.w3.org/2000/svg" xmlns:xlink="http://www.w3.org/1999/xlink" x="0px" y="0px"
	 viewBox="0 0 80 80" style="enable-background:new 0 0 80 80;" xml:space="preserve">
<style type="text/css">
	.st0{fill:#6F8653;}
	.st1{fill:#EBB044;}
	.st2{fill:#EEC27E;}
	.st3{fill:#DBA44B;}
	.st4{fill:#725846;}
	.st5{fill:#E8CA48;}
	.st6{fill:#F2DC7D;}
	.st7{fill:#CDB44D;}
	.st8{fill:#F8F8E1;}
	.st9{fill:#E4D049;}
	.st10{fill:#EDDC60;}
	.st11{fill:#E7E474;}
	.st12{fill:#809764;}
	.st13{fill:#46684B;}
	.st14{fill:#4D724F;}
	.st15{fill:#7D8E54;}
	.st16{fill:#4E7553;}
	.st17{fill:#456449;}
	.st18{fill:#415E46;}
	.st19{fill:#D6E06F;}
	.st20{fill:#A46246;}
	.st21{fill:#A97361;}
	.st22{fill:#6D8A56;}
	.st23{fill:#DB7B43;}
	.st24{fill:#EDB862;}
	.st25{fill:#DD8347;}
	.st26{fill:#E09A79;}
	.st27{fill:#D76B43;}
	.st28{fill:#C66849;}
	.st29{fill:#8E8079;}
	.st30{fill:#D98065;}
	.st31{fill:#C56647;}
	.st32{fill:#EFD9BA;}
	.st33{fill:#D45D45;}
	.st34{fill:#DD8075;}
	.st35{fill:#DAC6AD;}
	.st36{fill:#657F51;}
	.st37{fill:#556946;}
	.st38{fill:#7D9657;}
	.st39{fill:#7B706B;}
	.st40{fill:#93A47A;}
	.st41{fill:#6A7E4F;}
	.st42{fill:#E7E5D1;}
	.st43{fill:#CFD26A;}
	.st44{fill:#EDF0BC;}
	.st45{fill:#B6AA50;}
	.st46{fill:#A39C74;}
	.st47{fill:#D1C474;}
	.st48{fill:#93854C;}
	.st49{fill:#867B4A;}
	.st50{fill:#291D10;}
	.st51{fill:#AA9B50;}
	.st52{fill:#E5D263;}
	.st53{fill:#DC7F44;}
	.st54{fill:#E0956D;}
	.st55{fill:#EAAB44;}
	.st56{fill:#8CAC59;}
	.st57{fill:#657E4F;}
	.st58{fill:#97A779;}
	.st59{fill:#D14A4A;}
	.st60{fill:#97C35A;}
	.st61{fill:#89A559;}
	.st62{fill:#CB7A5E;}
	.st63{fill:#BE725E;}
	.st64{fill:#B16955;}
	.st65{fill:#D18D7D;}
	.st66{fill:#5D4837;}
	.st67{fill:#9C5B44;}
	.st68{fill:#D69747;}
	.st69{fill:#6A8E58;}
	.st70{fill:#80A071;}
	.st71{fill:#F1EB66;}
	.st72{fill:#EAC647;}
	.st73{fill:#F3EA8A;}
	.st74{fill:#CEA04A;}
	.st75{fill:#473321;}
	.st76{fill:#93AD7C;}
	.st77{fill:#EFD1A2;}
	.st78{fill:#91A87A;}
	.st79{fill:#6E8E42;}
	.st80{fill:#586889;}
	.st81{fill:#77859F;}
	.st82{fill:#83A25A;}
	.st83{fill:#B2C495;}
	.st84{fill:#947659;}
	.st85{fill:#4E6E4F;}
	.st86{fill:#524160;}
	.st87{fill:#3D3649;}
	.st88{fill:#6B5C7A;}
	.st89{fill:#2F3338;}
	.st90{fill:#212428;}
	.st91{fill:#282D32;}
	.st92{fill:#42484E;}
	.st93{fill:#252B2E;}
	.st94{fill:#6B3F3C;}
	.st95{fill:#645E57;}
	.st96{fill:#517E55;}
	.st97{fill:#2E4135;}
	.st98{fill:none;}
	.st99{fill:#6E8B70;}
	.st100{fill:#3D5545;}
	.st101{fill:#628A64;}
	.st102{fill:#F9F9E3;}
	.st103{fill:#D96F60;}
	.st104{fill:#C0645A;}
	.st105{fill:#543E2C;}
	.st106{fill:#7F4B49;}
	.st107{fill:#9E6345;}
	.st108{fill:#994D49;}
	.st109{fill:#A46A69;}
	.st110{fill:#8F5B42;}
	.st111{fill:#8E4948;}
	.st112{fill:#85986E;}
	.st113{fill:#6D7290;}
	.st114{fill:#626880;}
	.st115{fill:#9C9385;}
	.st116{fill:#F2D55A;}
	.st117{clip-path:url(#SVGID_2_);}
	.st118{fill:#E2AC54;}
	.st119{opacity:0.31;fill:#F9EFC5;}
	.st120{opacity:0.31;fill:#FFFBE9;}
	.st121{fill:#DDC862;}
	.st122{fill:#FFF3C2;}
	.st123{fill:#E8C046;stroke:#7A695F;stroke-width:0.15;stroke-miterlimit:10;}
	.st124{fill:#DBB248;}
	.st125{fill:#6F5753;}
	.st126{fill:#E8C046;stroke:#77655B;stroke-width:0.15;stroke-miterlimit:10;}
	.st127{fill:#83A15C;}
	.st128{fill:#698C3C;}
	.st129{fill:#809D5B;}
	.st130{fill:#4A6224;}
	.st131{fill:#85A55C;}
	.st132{fill:#506B26;}
	.st133{fill:#82A15B;}
	.st134{fill:#698958;}
	.st135{fill:#DD8344;}
	.st136{fill:#B56721;}
	.st137{fill:#C2463A;}
	.st138{fill:#CC6E64;}
	.st139{fill:#5EA817;}
	.st140{fill:#5F8F22;}
	.st141{fill:#C24F3C;}
	.st142{fill:#AB4A39;}
	.st143{fill:#BB413C;}
	.st144{fill:#EA7142;}
	.st145{fill:#ED835B;}
	.st146{fill:#E76D18;}
	.st147{fill:#56734E;}
	.st148{fill:#CBC797;}
	.st149{fill:#F1F0E1;}
	.st150{fill:#DBD9CA;}
	.st151{fill:#496042;}
	.st152{fill:#547534;}
	.st153{fill:#C0D591;}
	.st154{fill:#B3C483;}
	.st155{fill:#DFEAC1;}
	.st156{fill:#D5DDB8;}
	.st157{fill:#577F36;}
	.st158{fill:#4D6D2F;}
	.st159{fill:#4F6B32;}
	.st160{fill:#AAC654;}
	.st161{fill:#A0B252;}
	.st162{fill:#9B3743;}
	.st163{fill:#A34D5B;}
	.st164{fill:#75434B;}
	.st165{fill:#80333D;}
	.st166{fill:#722F3A;}
	.st167{fill:#8E424F;}
	.st168{fill:#A5273F;}
	.st169{fill:#9B2944;}
	.st170{fill:#93B250;}
	.st171{fill:#778950;}
	.st172{fill:#B1B297;}
	.st173{fill:#5D6B3E;}
	.st174{fill:#769328;}
	.st175{fill:#B9BC9D;}
	.st176{fill:#B4CE6E;}
	.st177{fill:#CCCEAF;}
	.st178{fill:#AEAF94;}
	.st179{fill:#E8C046;stroke:#7F6D62;stroke-width:0.15;stroke-miterlimit:10;}
	.st180{fill:#B7C661;}
	.st181{fill:#CED893;stroke:#ACB25F;stroke-width:0.5;stroke-miterlimit:10;}
	.st182{fill:#D79F4A;}
	.st183{clip-path:url(#SVGID_4_);}
	.st184{fill:#CDD98D;}
	.st185{fill:#FADA37;}
	.st186{fill:#CCB244;}
	.st187{fill:#FAE089;}
	.st188{fill:#FFED90;}
	.st189{fill:#ECDB6F;}
	.st190{fill:#FECF73;}
	.st191{fill:#CEA865;}
	.st192{fill:#EDDFCA;}
	.st193{fill:#EBDECA;}
	.st194{fill:#638408;}
	.st195{fill:#CE9F41;}
	.st196{fill:#F7BA23;}
	.st197{fill:#EAAE2A;}
	.st198{fill:#F2CE36;}
	.st199{fill:#F9D53D;}
	.st200{fill:#FCDA4F;}
	.st201{fill:#F7E289;}
	.st202{fill:#668F05;}
	.st203{fill:#597214;}
	.st204{fill:#8BA040;}
	.st205{fill:#7AA122;}
	.st206{fill:#95BB28;}
	.st207{fill:#E7F2A6;}
	.st208{fill:#C4CC75;}
	.st209{fill:#87A82C;}
	.st210{fill:#9FBF45;}
	.st211{fill:#728E25;}
	.st212{fill:#7D4E30;}
	.st213{fill:#3F5A2F;}
	.st214{fill:#4B7837;}
	.st215{fill:#85A93F;}
	.st216{fill:#693F26;}
	.st217{fill:#8C7668;}
	.st218{fill:#EDE9E6;}
	.st219{fill:#FFFDFC;}
	.st220{fill:#846F5C;}
	.st221{clip-path:url(#SVGID_6_);}
	.st222{fill:#B2A594;}
	.st223{fill:#E4DDD5;}
	.st224{fill:#A16D46;}
	.st225{fill:#9A8E42;}
	.st226{fill:#BBB061;}
	.st227{fill:#A08F41;}
	.st228{fill:#C1AD56;}
	.st229{opacity:0.7;}
	.st230{fill:#DACA7F;}
	.st231{fill:#EEE49F;}
	.st232{opacity:0.5;}
	.st233{fill:#FFF9D7;}
	.st234{fill:#7C7F32;}
	.st235{fill:#95A84C;}
	.st236{fill:#D8B45C;}
	.st237{fill:#FCC572;}
	.st238{fill:#FED49A;}
	.st239{fill:#C0782C;}
	.st240{fill:#D49430;}
	.st241{fill:#F5D19D;}
	.st242{opacity:0.35;}
	.st243{fill:#F9AFC9;}
	.st244{fill:#F9CDDE;}
	.st245{fill:#FFF3F8;}
	.st246{fill:#F4A2C3;}
	.st247{fill:#FFFFFF;}
	.st248{fill:#D7F2F9;}
	.st249{fill:#492743;}
	.st250{fill:#20131D;}
	.st251{fill:#685364;}
	.st252{fill:#748115;}
	.st253{fill:#A7B86A;}
</style>
<g id="Слой_1">
	<g>
		<g>
			<path class="st74" d="M57.98,61.55c-0.18-4.25-1.55-7.95-4.45-11.05c-2.34-2.5-3.17-5.4-3.46-8.82c-0.24-2.9-1.29-5.92-2.67-8.51
				c-1.77-3.31-5.34-4.08-8.85-2.73c-0.39,0.15-0.87,0.24-1.34,0.25c-0.47,0-0.94-0.09-1.33-0.25c-3.51-1.35-7.09-0.58-8.85,2.73
				c-1.38,2.6-2.42,5.61-2.67,8.51c-0.28,3.42-1.12,6.32-3.46,8.82c-2.89,3.1-4.27,6.8-4.45,11.05
				c-0.39,9.32,6.94,17.07,15.21,16.01c1.87-0.24,3.72-0.48,5.54-0.52c1.83,0.04,3.67,0.28,5.54,0.52
				C51.04,78.62,58.37,70.87,57.98,61.55z"/>
			<path class="st75" d="M37.58,21.01l1.75-1.5l-0.45-0.49l-2.21,0.73c-1.7-2.17-3.67-3.98-3.67-3.98c-0.56-0.51-1.4-0.44-1.87,0.16
				l-0.73,0.95c-0.47,0.61-0.33,1.44,0.3,1.86c0,0,4.9,3.23,5.57,5.71c0.46,1.69,0.11,2.79,0.11,2.79c-0.23,0.73-0.22,1.36,0.02,1.4
				c0.24,0.04,1.68,0.02,1.98-0.03c0.29-0.04,0.65-0.7,0.79-1.45c0,0,0.29-1.56-0.19-3.38C38.73,22.9,38.22,21.95,37.58,21.01z"/>
			<g>
				<path class="st22" d="M47.22,6.04c-6.33,3.21-7.8,13.03-7.8,13.03s8.79,4.61,15.12,1.4c6.33-3.21,7.8-13.03,7.8-13.03
					S53.55,2.83,47.22,6.04z"/>
				<path class="st76" d="M47.03,8.45c-2.04,1.04-3.58,2.75-4.74,4.61c1.01-2.4,2.66-5.07,5.3-6.41c5.43-2.76,12.97,1.2,12.97,1.2
					c0-0.01,0-0.01,0-0.02c0,0,0.01-0.02,0.01-0.02c0-0.01,0.01-0.02,0.01-0.04c0-0.01,0-0.02,0.01-0.03c0-0.02,0-0.03,0.01-0.04
					c0.01-0.04,0.02-0.09,0.03-0.11c0-0.02,0.01-0.03,0.01-0.03c0-0.02,0-0.02,0,0c0,0,0,0.02-0.01,0.03
					c-0.01,0.02-0.01,0.06-0.03,0.11c0,0.01-0.01,0.03-0.01,0.04c-0.01,0.01-0.01,0.02-0.01,0.03c0,0.02,0,0.02-0.01,0.04
					c0,0.01,0,0.02-0.01,0.02c0,0.01,0,0.02,0,0.02C57.58,6.69,51.57,6.15,47.03,8.45z"/>
			</g>
		</g>
		<path class="st77" d="M19.18,64.98c-0.34,0-0.64-0.24-0.71-0.59c-0.81-4.09,0.34-7.2,1.45-9.09c1.2-2.05,2.59-3.13,2.65-3.18
			c0.32-0.24,0.77-0.18,1.02,0.13c0.24,0.32,0.18,0.77-0.13,1.02c-0.02,0.02-1.26,0.99-2.32,2.81c-1.4,2.42-1.82,5.12-1.24,8.03
			c0.08,0.39-0.18,0.78-0.57,0.85C19.28,64.98,19.23,64.98,19.18,64.98z"/>
	</g>
</g>
<g id="Слой_2">
</g>
<g id="Слой_4">
</g>
<g id="Слой_3">
</g>
</svg>
