<?xml version="1.0" encoding="utf-8"?>
<!-- Generator: Adobe Illustrator 23.1.0, SVG Export Plug-In . SVG Version: 6.00 Build 0)  -->
<svg version="1.1" xmlns="http://www.w3.org/2000/svg" xmlns:xlink="http://www.w3.org/1999/xlink" x="0px" y="0px"
	 viewBox="0 0 80 80" style="enable-background:new 0 0 80 80;" xml:space="preserve">
<style type="text/css">
	.st0{fill:#6F8653;}
	.st1{fill:#EBB044;}
	.st2{fill:#EEC27E;}
	.st3{fill:#DBA44B;}
	.st4{fill:#725846;}
	.st5{fill:#E8CA48;}
	.st6{fill:#F2DC7D;}
	.st7{fill:#CDB44D;}
	.st8{fill:#F8F8E1;}
	.st9{fill:#E4D049;}
	.st10{fill:#EDDC60;}
	.st11{fill:#E7E474;}
	.st12{fill:#809764;}
	.st13{fill:#46684B;}
	.st14{fill:#4D724F;}
	.st15{fill:#7D8E54;}
	.st16{fill:#4E7553;}
	.st17{fill:#456449;}
	.st18{fill:#415E46;}
	.st19{fill:#D6E06F;}
	.st20{fill:#A46246;}
	.st21{fill:#A97361;}
	.st22{fill:#6D8A56;}
	.st23{fill:#DB7B43;}
	.st24{fill:#EDB862;}
	.st25{fill:#DD8347;}
	.st26{fill:#E09A79;}
	.st27{fill:#D76B43;}
	.st28{fill:#C66849;}
	.st29{fill:#8E8079;}
	.st30{fill:#D98065;}
	.st31{fill:#C56647;}
	.st32{fill:#EFD9BA;}
	.st33{fill:#D45D45;}
	.st34{fill:#DD8075;}
	.st35{fill:#DAC6AD;}
	.st36{fill:#657F51;}
	.st37{fill:#556946;}
	.st38{fill:#7D9657;}
	.st39{fill:#7B706B;}
	.st40{fill:#93A47A;}
	.st41{fill:#6A7E4F;}
	.st42{fill:#E7E5D1;}
	.st43{fill:#CFD26A;}
	.st44{fill:#EDF0BC;}
	.st45{fill:#B6AA50;}
	.st46{fill:#A39C74;}
	.st47{fill:#D1C474;}
	.st48{fill:#93854C;}
	.st49{fill:#867B4A;}
	.st50{fill:#291D10;}
	.st51{fill:#AA9B50;}
	.st52{fill:#E5D263;}
	.st53{fill:#DC7F44;}
	.st54{fill:#E0956D;}
	.st55{fill:#EAAB44;}
	.st56{fill:#8CAC59;}
	.st57{fill:#657E4F;}
	.st58{fill:#97A779;}
	.st59{fill:#D14A4A;}
	.st60{fill:#97C35A;}
	.st61{fill:#89A559;}
	.st62{fill:#CB7A5E;}
	.st63{fill:#BE725E;}
	.st64{fill:#B16955;}
	.st65{fill:#D18D7D;}
	.st66{fill:#5D4837;}
	.st67{fill:#9C5B44;}
	.st68{fill:#D69747;}
	.st69{fill:#6A8E58;}
	.st70{fill:#80A071;}
	.st71{fill:#F1EB66;}
	.st72{fill:#EAC647;}
	.st73{fill:#F3EA8A;}
	.st74{fill:#CEA04A;}
	.st75{fill:#473321;}
	.st76{fill:#93AD7C;}
	.st77{fill:#EFD1A2;}
	.st78{fill:#91A87A;}
	.st79{fill:#6E8E42;}
	.st80{fill:#586889;}
	.st81{fill:#77859F;}
	.st82{fill:#83A25A;}
	.st83{fill:#B2C495;}
	.st84{fill:#947659;}
	.st85{fill:#4E6E4F;}
	.st86{fill:#524160;}
	.st87{fill:#3D3649;}
	.st88{fill:#6B5C7A;}
	.st89{fill:#2F3338;}
	.st90{fill:#212428;}
	.st91{fill:#282D32;}
	.st92{fill:#42484E;}
	.st93{fill:#252B2E;}
	.st94{fill:#6B3F3C;}
	.st95{fill:#645E57;}
	.st96{fill:#517E55;}
	.st97{fill:#2E4135;}
	.st98{fill:none;}
	.st99{fill:#6E8B70;}
	.st100{fill:#3D5545;}
	.st101{fill:#628A64;}
	.st102{fill:#F9F9E3;}
	.st103{fill:#D96F60;}
	.st104{fill:#C0645A;}
	.st105{fill:#543E2C;}
	.st106{fill:#7F4B49;}
	.st107{fill:#9E6345;}
	.st108{fill:#994D49;}
	.st109{fill:#A46A69;}
	.st110{fill:#8F5B42;}
	.st111{fill:#8E4948;}
	.st112{fill:#85986E;}
	.st113{fill:#6D7290;}
	.st114{fill:#626880;}
	.st115{fill:#9C9385;}
	.st116{fill:#F2D55A;}
	.st117{clip-path:url(#SVGID_2_);}
	.st118{fill:#E2AC54;}
	.st119{opacity:0.31;fill:#F9EFC5;}
	.st120{opacity:0.31;fill:#FFFBE9;}
	.st121{fill:#DDC862;}
	.st122{fill:#FFF3C2;}
	.st123{fill:#E8C046;stroke:#7A695F;stroke-width:0.15;stroke-miterlimit:10;}
	.st124{fill:#DBB248;}
	.st125{fill:#6F5753;}
	.st126{fill:#E8C046;stroke:#77655B;stroke-width:0.15;stroke-miterlimit:10;}
	.st127{fill:#83A15C;}
	.st128{fill:#698C3C;}
	.st129{fill:#809D5B;}
	.st130{fill:#4A6224;}
	.st131{fill:#85A55C;}
	.st132{fill:#506B26;}
	.st133{fill:#82A15B;}
	.st134{fill:#698958;}
	.st135{fill:#DD8344;}
	.st136{fill:#B56721;}
	.st137{fill:#C2463A;}
	.st138{fill:#CC6E64;}
	.st139{fill:#5EA817;}
	.st140{fill:#5F8F22;}
	.st141{fill:#C24F3C;}
	.st142{fill:#AB4A39;}
	.st143{fill:#BB413C;}
	.st144{fill:#EA7142;}
	.st145{fill:#ED835B;}
	.st146{fill:#E76D18;}
	.st147{fill:#56734E;}
	.st148{fill:#CBC797;}
	.st149{fill:#F1F0E1;}
	.st150{fill:#DBD9CA;}
	.st151{fill:#496042;}
	.st152{fill:#547534;}
	.st153{fill:#C0D591;}
	.st154{fill:#B3C483;}
	.st155{fill:#DFEAC1;}
	.st156{fill:#D5DDB8;}
	.st157{fill:#577F36;}
	.st158{fill:#4D6D2F;}
	.st159{fill:#4F6B32;}
	.st160{fill:#AAC654;}
	.st161{fill:#A0B252;}
	.st162{fill:#9B3743;}
	.st163{fill:#A34D5B;}
	.st164{fill:#75434B;}
	.st165{fill:#80333D;}
	.st166{fill:#722F3A;}
	.st167{fill:#8E424F;}
	.st168{fill:#A5273F;}
	.st169{fill:#9B2944;}
	.st170{fill:#93B250;}
	.st171{fill:#778950;}
	.st172{fill:#B1B297;}
	.st173{fill:#5D6B3E;}
	.st174{fill:#769328;}
	.st175{fill:#B9BC9D;}
	.st176{fill:#B4CE6E;}
	.st177{fill:#CCCEAF;}
	.st178{fill:#AEAF94;}
	.st179{fill:#E8C046;stroke:#7F6D62;stroke-width:0.15;stroke-miterlimit:10;}
	.st180{fill:#B7C661;}
	.st181{fill:#CED893;stroke:#ACB25F;stroke-width:0.5;stroke-miterlimit:10;}
	.st182{fill:#D79F4A;}
	.st183{clip-path:url(#SVGID_4_);}
	.st184{fill:#CDD98D;}
	.st185{fill:#FADA37;}
	.st186{fill:#CCB244;}
	.st187{fill:#FAE089;}
	.st188{fill:#FFED90;}
	.st189{fill:#ECDB6F;}
	.st190{fill:#FECF73;}
	.st191{fill:#CEA865;}
	.st192{fill:#EDDFCA;}
	.st193{fill:#EBDECA;}
	.st194{fill:#638408;}
	.st195{fill:#CE9F41;}
	.st196{fill:#F7BA23;}
	.st197{fill:#EAAE2A;}
	.st198{fill:#F2CE36;}
	.st199{fill:#F9D53D;}
	.st200{fill:#FCDA4F;}
	.st201{fill:#F7E289;}
	.st202{fill:#668F05;}
	.st203{fill:#597214;}
	.st204{fill:#8BA040;}
	.st205{fill:#7AA122;}
	.st206{fill:#95BB28;}
	.st207{fill:#E7F2A6;}
	.st208{fill:#C4CC75;}
	.st209{fill:#87A82C;}
	.st210{fill:#9FBF45;}
	.st211{fill:#728E25;}
	.st212{fill:#7D4E30;}
	.st213{fill:#3F5A2F;}
	.st214{fill:#4B7837;}
	.st215{fill:#85A93F;}
	.st216{fill:#693F26;}
	.st217{fill:#8C7668;}
	.st218{fill:#EDE9E6;}
	.st219{fill:#FFFDFC;}
	.st220{fill:#846F5C;}
	.st221{clip-path:url(#SVGID_6_);}
	.st222{fill:#B2A594;}
	.st223{fill:#E4DDD5;}
	.st224{fill:#A16D46;}
	.st225{fill:#9A8E42;}
	.st226{fill:#BBB061;}
	.st227{fill:#A08F41;}
	.st228{fill:#C1AD56;}
	.st229{opacity:0.7;}
	.st230{fill:#DACA7F;}
	.st231{fill:#EEE49F;}
	.st232{opacity:0.5;}
	.st233{fill:#FFF9D7;}
	.st234{fill:#7C7F32;}
	.st235{fill:#95A84C;}
	.st236{fill:#D8B45C;}
	.st237{fill:#FCC572;}
	.st238{fill:#FED49A;}
	.st239{fill:#C0782C;}
	.st240{fill:#D49430;}
	.st241{fill:#F5D19D;}
	.st242{opacity:0.35;}
	.st243{fill:#F9AFC9;}
	.st244{fill:#F9CDDE;}
	.st245{fill:#FFF3F8;}
	.st246{fill:#F4A2C3;}
	.st247{fill:#FFFFFF;}
	.st248{fill:#D7F2F9;}
	.st249{fill:#492743;}
	.st250{fill:#20131D;}
	.st251{fill:#685364;}
	.st252{fill:#748115;}
	.st253{fill:#A7B86A;}
</style>
<g id="Слой_1">
</g>
<g id="Слой_2">
</g>
<g id="Слой_4">
</g>
<g id="Слой_3">
	<g>
		<path class="st212" d="M39.82,6.18c-9.56,0-18.19,3.68-24.32,9.58c0.01-0.04,0.03-0.09,0.04-0.13c0.05-0.17,0.09-0.34,0.14-0.51
			c0.04-0.13-0.16-0.22-0.23-0.1c-0.01,0.02-0.02,0.05-0.04,0.07c-0.04,0.01-0.08,0.04-0.1,0.09c-0.06,0.14-0.12,0.28-0.18,0.42
			c-0.13,0.24-0.25,0.47-0.38,0.71c-0.07,0.14-0.15,0.27-0.22,0.41c-0.33,0.34-0.65,0.69-0.96,1.05c0.04-0.24,0.09-0.48,0.13-0.72
			c0.01-0.08-0.02-0.15-0.07-0.2c0.05-0.19,0.1-0.39,0.14-0.59c0.01-0.07-0.09-0.13-0.13-0.05c-0.06,0.14-0.12,0.29-0.18,0.44
			c-0.07-0.02-0.14,0-0.17,0.08c-0.08,0.19-0.17,0.37-0.25,0.56c-0.06,0-0.12,0.02-0.15,0.09c-0.1,0.21-0.2,0.41-0.3,0.62
			c-0.04,0.01-0.07,0.04-0.09,0.08c-0.42,0.89-0.83,1.79-1.25,2.68c-0.25,0.37-0.5,0.75-0.74,1.14c-0.02-0.53-0.03-1.06-0.05-1.59
			c-0.01-0.17-0.24-0.2-0.29-0.04c-0.37,1.14-0.63,2.29-0.7,3.46c-0.16,0.3-0.31,0.6-0.45,0.9c-0.01-0.1-0.03-0.2-0.04-0.3
			c-0.02-0.14-0.24-0.13-0.28,0c-0.17,0.67-0.33,1.34-0.44,2.02c-1.38,3.4-2.14,7.07-2.14,10.92c0,17.18,15.08,31.1,33.68,31.1
			S73.5,54.46,73.5,37.28S58.42,6.18,39.82,6.18z"/>
		<g>
			<g>
				<path class="st213" d="M48.82,65.93c-4.42-2-11.71-14.94-11.71-14.94s14.54-3.05,18.96-1.05S76.1,68.65,76.1,68.65
					S53.23,67.93,48.82,65.93z"/>
			</g>
			<g>
				<path class="st213" d="M47,65.87c-4.42-2-11.71-14.94-11.71-14.94s14.54-3.05,18.96-1.05s20.04,18.71,20.04,18.71
					S51.41,67.87,47,65.87z"/>
			</g>
		</g>
		<g>
			<path class="st214" d="M36.35,62.09c-2.37-4.23-0.55-18.98-0.55-18.98s13.51,6.18,15.88,10.41s5.01,26.96,5.01,26.96
				S38.72,66.32,36.35,62.09z"/>
			<path class="st215" d="M34.93,60.96c-2.37-4.23-0.55-18.98-0.55-18.98s13.51,6.18,15.88,10.41s5.01,26.96,5.01,26.96
				S37.29,65.19,34.93,60.96z"/>
		</g>
		<g>
			<path class="st216" d="M73.34,40.33c-0.17-0.06-0.36-0.1-0.56-0.09c-0.91,0.04-1.6,0.72-1.64,1.64c-0.01,0.2-0.02,0.39-0.03,0.59
				c-0.66-0.14-1.45,0.12-1.76,0.75c-0.18,0.36-0.35,0.73-0.53,1.09c-0.11-0.08-0.22-0.16-0.35-0.21c-0.77-0.32-1.59-0.02-2.03,0.67
				c-0.48,0.74-0.96,1.48-1.44,2.21c-0.01-0.01-0.01-0.01-0.02-0.02c-0.21-0.19-0.46-0.32-0.72-0.39c-0.07-0.18-0.18-0.34-0.34-0.49
				c-0.65-0.6-1.65-0.64-2.29,0c-0.22,0.22-0.44,0.43-0.66,0.65c-0.07-0.24-0.19-0.48-0.4-0.67c-0.63-0.58-1.59-0.63-2.24-0.04
				c0.03-0.04,0.07-0.09,0.1-0.13c0.44-0.58,0.14-1.5-0.38-1.9c-0.59-0.45-1.4-0.39-1.94,0.12c-0.35,0.33-0.71,0.67-1.06,1
				c0.61-0.73,1.22-1.47,1.83-2.2c0.28-0.33,0.41-0.75,0.37-1.15c0.28-0.09,0.55-0.19,0.83-0.28c2.7-0.9,5.44-1.7,8.18-2.48
				c1.37-0.39,2.74-0.83,4.14-1.13c0.16-0.04,0.32-0.06,0.48-0.09c0.01,0,0.01,0,0.01,0c0.06-0.01,0.13-0.01,0.19-0.02
				c0.16-0.01,0.32-0.02,0.48-0.01c0.07,0,0.14,0.01,0.21,0.01c0.02,0,0.03,0.01,0.05,0.01c0.1,0.03,0.2,0.05,0.3,0.08
				c0.01,0,0.04,0.02,0.08,0.03c0.06,0.04,0.19,0.1,0.22,0.12c0.03,0.02,0.06,0.04,0.09,0.06c0.1,0.1,0.2,0.18,0.29,0.28
				c0.04,0.04,0.07,0.09,0.09,0.12c-0.01-0.02-0.02-0.04-0.04-0.06c0.07,0.13,0.17,0.25,0.24,0.37c0.07,0.11,0.13,0.22,0.18,0.34
				c0.03,0.07,0.09,0.21,0.11,0.25c0.01,0.03,0.02,0.05,0.03,0.08c0.05-0.71,0.08-1.44,0.08-2.16c0-0.81-0.03-1.61-0.1-2.41
				c-0.64-0.27-1.34-0.41-2.08-0.4c-1.56,0.04-3.08,0.58-4.57,1c-1.44,0.4-2.88,0.81-4.31,1.23c-2.86,0.84-5.71,1.74-8.51,2.77
				c-5.51,2.03-10.83,4.59-15.59,8.07c-1.81,1.33-3.53,2.76-5.17,4.28c-0.13-0.27-0.54-0.44-0.78-0.17c-1.46,1.64-2.9,3.3-4.34,4.96
				c-0.01-0.03-0.02-0.07-0.03-0.1c-0.14-0.46-0.72-0.76-1.15-0.47c-2.08,1.39-3.62,3.58-4.29,5.98c-0.17,0.59-0.27,1.19-0.32,1.79
				c5.12,2.89,11.13,4.56,17.57,4.56C57.31,68.38,71.68,56.08,73.34,40.33z M71.77,37.76C71.66,37.75,71.68,37.74,71.77,37.76
				L71.77,37.76z M44.77,58.75c-0.04,0.05-0.08,0.11-0.12,0.16c-0.01,0-0.02-0.01-0.04-0.01C44.67,58.85,44.72,58.8,44.77,58.75z
				 M41.31,57.32c-0.17,0.2-0.34,0.4-0.5,0.6c-0.1,0.04-0.2,0.09-0.3,0.14C40.77,57.82,41.04,57.57,41.31,57.32z M31.26,58.56
				c0-0.03,0.01-0.05,0.01-0.08c0.07-0.08,0.14-0.17,0.21-0.25c0.15-0.17,0.3-0.33,0.45-0.49C31.71,58.02,31.48,58.29,31.26,58.56z"
				/>
		</g>
		
			<ellipse transform="matrix(0.4155 -0.9096 0.9096 0.4155 -2.391 57.6606)" class="st217" cx="43.67" cy="30.69" rx="23.7" ry="31.48"/>
		
			<ellipse transform="matrix(0.4155 -0.9096 0.9096 0.4155 -2.391 57.6606)" class="st218" cx="43.67" cy="30.69" rx="21.41" ry="28.44"/>
		
			<ellipse transform="matrix(0.4155 -0.9096 0.9096 0.4155 -2.391 57.6606)" class="st219" cx="43.67" cy="30.69" rx="15.09" ry="20.05"/>
		
			<ellipse transform="matrix(0.4155 -0.9096 0.9096 0.4155 -3.4544 56.0051)" class="st220" cx="41.85" cy="30.69" rx="14.34" ry="18.39"/>
		<g>
			<defs>
				
					<ellipse id="SVGID_5_" transform="matrix(0.4155 -0.9096 0.9096 0.4155 -3.3853 56.486)" cx="42.26" cy="30.88" rx="14.34" ry="18.84"/>
			</defs>
			<clipPath id="SVGID_2_">
				<use xlink:href="#SVGID_5_"  style="overflow:visible;"/>
			</clipPath>
			<g class="st117">
				<path class="st222" d="M59.4,38.71c-3.29,7.2-12.65,9.98-20.91,6.21c-8.26-3.77-12.74-14.36-9.45-21.56s13.11-8.29,21.37-4.52
					S62.69,31.5,59.4,38.71z"/>
				<path class="st223" d="M59.4,38.71c-3.29,7.2-11.48,10.52-18.28,7.41c-6.81-3.11-6.71-10.56-3.42-17.76s8.52-11.43,15.33-8.32
					S62.69,31.5,59.4,38.71z"/>
			</g>
		</g>
		<g>
			<path class="st212" d="M10.55,23.52c0.27-0.68,0.41-1.41,0.64-2.11c0.23-0.71,0.5-1.4,0.82-2.08c0.63-1.34,1.41-2.61,2.34-3.76
				c-0.08-0.05-0.17-0.1-0.25-0.15c-0.31,0.79-0.54,1.6-0.68,2.43c-0.13,0.73-0.27,1.55-0.11,2.28c0.02,0.07,0.14,0.08,0.15,0
				c0.16-0.77,0.13-1.57,0.28-2.35c0.14-0.78,0.37-1.54,0.65-2.28c0.05-0.14-0.16-0.27-0.25-0.15c-0.96,1.19-1.77,2.49-2.42,3.89
				c-0.3,0.66-0.57,1.33-0.8,2.02c-0.23,0.71-0.48,1.49-0.49,2.24C10.43,23.57,10.53,23.58,10.55,23.52L10.55,23.52z"/>
		</g>
		<path class="st224" d="M19.02,48.74c-0.32-0.94-0.64-1.89-0.96-2.83c-0.63-1.86-1.26-3.71-1.89-5.57
			c-0.7-2.06-1.41-4.11-2.12-6.16c-0.37-1.05-0.73-2.11-1.1-3.16c-0.18-0.51-0.36-1.03-0.53-1.54c-0.09-0.26-0.17-0.52-0.27-0.77
			c-0.13-0.33-0.36-0.55-0.59-0.8c-0.19-0.2-0.42-0.26-0.64-0.23c-0.16-0.08-0.41,0.01-0.48,0.19c-0.01,0.04-0.02,0.08-0.04,0.12
			c-0.11,0.13-0.18,0.3-0.2,0.47c-0.01,0.13-0.01,0.26-0.01,0.37c-0.09,0.55-0.13,1.11-0.16,1.67c-0.06,0.88-0.09,1.76-0.09,2.64
			c-0.01,1.79,0.15,3.59,0.39,5.36c0.48,3.52,1.34,7.06,2.65,10.37c0.32,0.82,0.66,1.63,1.04,2.42c0.37,0.75,0.87,1.48,1.61,1.9
			c0.74,0.42,1.66,0.52,2.44,0.13c0.71-0.36,1.18-1.12,1.32-1.89C19.56,50.52,19.32,49.62,19.02,48.74z M11.33,32.67
			c-0.05,0.34-0.12,0.68-0.11,1.01c-0.01-0.09-0.01-0.19-0.02-0.28c-0.03-0.5-0.05-1-0.06-1.5c0.08,0.22,0.15,0.44,0.23,0.66
			C11.35,32.59,11.33,32.62,11.33,32.67z M11.59,36.7c-0.04,0.02-0.08,0.05-0.11,0.07c-0.1-0.92-0.18-1.85-0.24-2.78
			c0.03,0.31,0.07,0.63,0.11,0.94C11.42,35.53,11.5,36.12,11.59,36.7z M17.66,50.59c-0.22-0.5-0.43-1-0.62-1.51
			c0.02-0.12,0.01-0.25-0.02-0.4c-0.04-0.16-0.08-0.31-0.12-0.47c0.09,0.25,0.18,0.5,0.27,0.75C17.35,49.47,17.6,50.04,17.66,50.59z
			 M13.26,37.97c-0.06-0.05-0.13-0.09-0.2-0.12c-0.03-0.08-0.05-0.16-0.08-0.24c-0.04-0.22-0.09-0.44-0.13-0.65
			c-0.02-0.11-0.04-0.23-0.06-0.34C12.94,37.07,13.1,37.52,13.26,37.97z"/>
		<path class="st224" d="M57.22,59.61c-2.71,1.3-5.64,2.14-8.63,2.48c0.01-0.03,0.02-0.06,0.04-0.09c0.24-0.6-0.59-1.22-1.11-0.85
			c-2.03,1.44-4.28,2.53-6.68,3.21c-1.18,0.34-2.4,0.58-3.62,0.71c-0.59,0.06-1.19,0.1-1.79,0.12c-0.31,0.01-0.62-0.01-0.94,0
			c-0.38,0.01-0.62,0.14-0.93,0.34c-0.07,0.04-0.11,0.09-0.15,0.15c-0.17-0.02-0.35-0.03-0.52-0.05c-0.23-0.02-0.32,0.33-0.12,0.44
			c0.43,0.23,0.87,0.41,1.33,0.56c0.04,0.02,0.09,0.03,0.13,0.04c1.16,0.38,2.39,0.57,3.6,0.68c1.74,0.16,3.5,0.14,5.24-0.05
			c3.55-0.38,6.99-1.37,10.15-3.05c1.77-0.94,3.41-2.12,4.91-3.45C58.82,60.19,57.95,59.26,57.22,59.61z M47,63.56
			c-0.23,0.05-0.47,0.1-0.7,0.15c0-0.01,0-0.01-0.01-0.02c0.18-0.1,0.36-0.2,0.53-0.31C46.88,63.45,46.94,63.51,47,63.56z
			 M48.18,64.83c-1.46,0.49-2.97,0.86-4.49,1.1C45.19,65.57,46.68,65.2,48.18,64.83z M51.78,63.06c0.29-0.06,0.58-0.13,0.86-0.21
			c-0.26,0.14-0.52,0.29-0.78,0.43C51.84,63.2,51.82,63.13,51.78,63.06z"/>
		<path class="st98" d="M73.79,40.61c-0.11-0.39-0.23-0.78-0.37-1.16c-0.02,0.3-0.05,0.6-0.08,0.89
			C73.51,40.4,73.65,40.49,73.79,40.61z"/>
		<path class="st98" d="M74.53,46.42c-0.03,0.52-0.08,1.05-0.13,1.57c0.09,0.06,0.17,0.13,0.25,0.21c0.02-0.97,0-1.94-0.07-2.9
			C74.56,45.67,74.55,46.04,74.53,46.42z"/>
		<path class="st212" d="M71.77,37.76C71.68,37.74,71.66,37.75,71.77,37.76L71.77,37.76z"/>
		<path class="st212" d="M44.77,58.75c-0.05,0.05-0.11,0.1-0.16,0.15c0.01,0,0.02,0.01,0.04,0.01
			C44.69,58.86,44.73,58.8,44.77,58.75z"/>
		<path class="st212" d="M31.27,58.49c0,0.03,0,0.05-0.01,0.08c0.22-0.27,0.44-0.55,0.66-0.82c-0.15,0.17-0.3,0.33-0.45,0.49
			C31.41,58.32,31.34,58.4,31.27,58.49z"/>
		<path class="st212" d="M41.31,57.32c-0.27,0.25-0.54,0.5-0.8,0.74c0.1-0.05,0.2-0.1,0.3-0.14C40.97,57.72,41.14,57.52,41.31,57.32
			z"/>
		<path class="st212" d="M72.89,38.46C72.94,38.54,72.93,38.52,72.89,38.46L72.89,38.46z"/>
		<g>
			<path class="st216" d="M34.16,56.54c-0.37,0.16-0.61,0.53-0.73,0.9c-0.14,0.41-0.07,0.82,0.09,1.21
				c0.08,0.18,0.32,0.29,0.51,0.29c0.22,0,0.38-0.12,0.51-0.29c0.19-0.26,0.39-0.56,0.56-0.76c0.21-0.24,0.28-0.67,0-0.9
				c-0.43-0.35-0.98-0.59-1.54-0.52c-0.57,0.07-1.11,0.3-1.49,0.74c-0.78,0.91-0.72,2.37,0.17,3.19c0.32,0.3,0.8,0.3,1.12,0
				c0.99-0.93,0.58-2.73-0.59-3.32c-0.69-0.35-1.46-0.26-2.05,0.23c-0.47,0.39-0.7,1-0.75,1.6c-0.05,0.73,0.3,1.46,0.93,1.84
				c0.34,0.21,0.74,0.11,1.03-0.13c1.01-0.87,1.23-2.43,0.62-3.58c-0.16-0.3-0.64-0.54-0.98-0.4c-0.47,0.19-0.84,0.46-1.11,0.89
				c-0.25,0.4-0.36,0.89-0.29,1.35c0.13,0.94,0.97,1.81,1.98,1.55c0.45-0.12,0.63-0.74,0.28-1.06c-0.15-0.14-0.28-0.3-0.43-0.45
				c-0.06-0.07-0.04-0.05,0.04,0.05c-0.02-0.03-0.04-0.06-0.05-0.08c-0.02-0.04-0.04-0.1-0.07-0.13c0.06,0.15,0.07,0.15,0.01,0.01
				c-0.06-0.14-0.06-0.14,0.01,0.01c0.01-0.03-0.04-0.13-0.05-0.17c-0.01-0.07-0.01-0.03,0.01,0.11c0-0.03,0-0.07,0-0.1
				c0-0.02,0-0.03,0-0.05c0.01-0.09,0-0.07-0.01,0.08c0.02-0.04,0.03-0.11,0.04-0.15c0.05-0.16-0.1,0.18,0.01-0.01
				c0.01-0.02,0.03-0.05,0.04-0.07c0.05-0.08,0.04-0.06-0.04,0.05c0.03-0.01,0.08-0.09,0.11-0.12c0.14-0.14,0.02,0.02-0.01,0
				c-0.01,0,0.34-0.17,0.02-0.03c-0.33-0.13-0.65-0.27-0.98-0.4c0.01,0.03,0.11,0.22,0.04,0.08c-0.06-0.14,0.01,0.03,0.02,0.06
				c0.03,0.1,0.04,0.21,0.07,0.31c-0.07-0.2-0.02-0.13-0.01-0.03c0,0.05,0,0.1,0,0.15c0,0.05-0.01,0.1-0.01,0.15
				c-0.01,0.17,0.04-0.22,0-0.01c-0.02,0.11-0.05,0.21-0.08,0.31c-0.01,0.02-0.01,0.03-0.02,0.05c-0.03,0.08-0.02,0.06,0.03-0.07
				c-0.03,0.03-0.05,0.1-0.07,0.13c-0.02,0.04-0.05,0.09-0.08,0.13c-0.02,0.03-0.04,0.06-0.06,0.08c0.02-0.03,0.05-0.06,0.07-0.09
				c-0.09,0.06-0.16,0.18-0.24,0.25c0.34-0.04,0.69-0.09,1.03-0.13c-0.03-0.02-0.17-0.12-0.04-0.02c0.12,0.1,0.02,0.01-0.01-0.02
				c-0.02-0.02-0.03-0.04-0.05-0.05c-0.05-0.04,0.08,0.1,0.08,0.1c-0.01-0.04-0.05-0.09-0.07-0.12c-0.01-0.02-0.01-0.03-0.02-0.05
				c-0.05-0.07,0.07,0.14,0.05,0.12c-0.02-0.02-0.03-0.09-0.04-0.12c-0.01-0.04-0.01-0.07-0.02-0.11c-0.02-0.1,0.02,0.21,0.02,0.11
				c0-0.02,0-0.05,0-0.07c0-0.02,0.01-0.24,0.01-0.24c0.01,0-0.05,0.26,0,0.06c0.01-0.04,0.02-0.08,0.03-0.13
				c0.01-0.03,0.07-0.19,0.01-0.04c-0.06,0.15,0.01,0,0.02-0.03c0.02-0.03,0.04-0.06,0.06-0.09c0.02-0.03,0.06-0.08-0.02,0.03
				c-0.09,0.12-0.02,0.03,0,0c0.03-0.03,0.05-0.05,0.08-0.08c0.01-0.01,0.04-0.03,0.05-0.05c0,0-0.16,0.1-0.1,0.08
				c0.03-0.01,0.08-0.04,0.11-0.06c0.09-0.06-0.2,0.06-0.05,0.02c0.04-0.01,0.09-0.02,0.13-0.03c-0.01,0-0.19,0.01-0.12,0.02
				c0.02,0,0.04,0,0.06,0c0.02,0,0.06,0.01,0.08,0c0.01,0-0.2-0.04-0.12-0.02c0.05,0.01,0.1,0.02,0.15,0.04
				c0.02,0.01,0.03,0.02,0.05,0.02c0,0-0.17-0.09-0.11-0.04c0.03,0.02,0.08,0.05,0.11,0.07c0.11,0.06-0.14-0.12-0.04-0.04
				c0.04,0.04,0.08,0.07,0.11,0.11c0.01,0.01,0.02,0.03,0.04,0.04c0.07,0.07-0.11-0.15-0.06-0.07c0.02,0.03,0.04,0.06,0.07,0.1
				c0.02,0.04,0.05,0.08,0.07,0.12c0.01,0.02,0.02,0.04,0.03,0.05c0.04,0.07-0.07-0.2-0.03-0.07c0.01,0.04,0.03,0.09,0.04,0.13
				c0.01,0.04,0.04,0.22,0.02,0.06c-0.02-0.16,0,0.03,0,0.06c0,0.04-0.01,0.09-0.01,0.13c0-0.01,0.04-0.22,0.01-0.1
				c-0.01,0.02-0.01,0.05-0.02,0.07c0,0.02-0.01,0.04-0.02,0.05c-0.02,0.08-0.07,0.06,0.03-0.07c-0.02,0.03-0.05,0.08-0.07,0.11
				c-0.04,0.08,0.12-0.13,0.05-0.07c-0.02,0.02-0.05,0.05-0.07,0.07c0.37,0,0.75,0,1.12,0c-0.04-0.03-0.07-0.06-0.11-0.1
				c-0.02-0.02-0.11-0.13-0.03-0.03c0.08,0.11-0.01-0.03-0.02-0.04c-0.02-0.03-0.04-0.07-0.06-0.11c-0.06-0.11,0-0.03,0.01,0.03
				c-0.01-0.04-0.03-0.1-0.05-0.14c-0.01-0.04-0.02-0.08-0.03-0.12c-0.03-0.15,0.02,0.01,0,0.04c0.02-0.03-0.01-0.2-0.01-0.24
				c0-0.02,0-0.05,0.01-0.07c0.01-0.06,0-0.03-0.01,0.08c0.02-0.01,0.02-0.1,0.03-0.12c0.01-0.04,0.02-0.08,0.03-0.12
				c0.03-0.13-0.06,0.1-0.01,0.02c0.02-0.04,0.04-0.07,0.06-0.11c0.01-0.02,0.03-0.04,0.04-0.06c0.03-0.05,0.02-0.03-0.05,0.06
				c0,0,0.15-0.16,0.16-0.17c0.11-0.1-0.09,0.05-0.02,0.02c0.03-0.02,0.07-0.04,0.1-0.06c0.01,0,0.13-0.07,0.13-0.07
				c0,0.02-0.18,0.06-0.02,0.01c0.07-0.02,0.16-0.03,0.23-0.06c0.08-0.03-0.17,0.02-0.03,0c0.05,0,0.1-0.01,0.15-0.02
				c0.13-0.02,0.13-0.02,0,0c0,0.01,0.21,0,0.24,0c0.15,0-0.15-0.04,0,0c0.03,0.01,0.06,0.01,0.09,0.02
				c0.02,0.01,0.12,0.02,0.13,0.04c-0.02-0.01-0.05-0.02-0.07-0.03c0.03,0.01,0.06,0.03,0.09,0.04c-0.08-0.29-0.15-0.58-0.23-0.87
				c-0.17,0.32-0.38,0.62-0.58,0.93c0.34,0,0.68,0,1.02,0c-0.03-0.06-0.03-0.06,0,0c-0.01-0.03-0.02-0.06-0.03-0.09
				c-0.04-0.11,0,0.09-0.01-0.04c0-0.05,0-0.1,0-0.15c0.01-0.07,0-0.07,0,0c0-0.02,0.01-0.05,0.01-0.07
				c0.01-0.06,0.03-0.11,0.05-0.16c-0.04,0.09,0.02-0.02,0.03-0.05c0.05-0.1-0.03,0.03,0.03-0.05c0.04-0.05,0.07-0.1,0.11-0.14
				c-0.03,0.04-0.02,0.04,0.01-0.01c0.16-0.18,0.19-0.44,0.04-0.64C34.62,56.46,34.39,56.44,34.16,56.54L34.16,56.54z"/>
		</g>
	</g>
</g>
</svg>
