<?xml version="1.0" encoding="utf-8"?>
<!-- Generator: Adobe Illustrator 23.1.0, SVG Export Plug-In . SVG Version: 6.00 Build 0)  -->
<svg version="1.1" xmlns="http://www.w3.org/2000/svg" xmlns:xlink="http://www.w3.org/1999/xlink" x="0px" y="0px"
	 viewBox="0 0 80 80" style="enable-background:new 0 0 80 80;" xml:space="preserve">
<style type="text/css">
	.st0{fill:#6F8653;}
	.st1{fill:#EBB044;}
	.st2{fill:#EEC27E;}
	.st3{fill:#DBA44B;}
	.st4{fill:#725846;}
	.st5{fill:#E8CA48;}
	.st6{fill:#F2DC7D;}
	.st7{fill:#CDB44D;}
	.st8{fill:#F8F8E1;}
	.st9{fill:#E4D049;}
	.st10{fill:#EDDC60;}
	.st11{fill:#E7E474;}
	.st12{fill:#809764;}
	.st13{fill:#46684B;}
	.st14{fill:#4D724F;}
	.st15{fill:#7D8E54;}
	.st16{fill:#4E7553;}
	.st17{fill:#456449;}
	.st18{fill:#415E46;}
	.st19{fill:#D6E06F;}
	.st20{fill:#A46246;}
	.st21{fill:#A97361;}
	.st22{fill:#6D8A56;}
	.st23{fill:#DB7B43;}
	.st24{fill:#EDB862;}
	.st25{fill:#DD8347;}
	.st26{fill:#E09A79;}
	.st27{fill:#D76B43;}
	.st28{fill:#C66849;}
	.st29{fill:#8E8079;}
	.st30{fill:#D98065;}
	.st31{fill:#C56647;}
	.st32{fill:#EFD9BA;}
	.st33{fill:#D45D45;}
	.st34{fill:#DD8075;}
	.st35{fill:#DAC6AD;}
	.st36{fill:#657F51;}
	.st37{fill:#556946;}
	.st38{fill:#7D9657;}
	.st39{fill:#7B706B;}
	.st40{fill:#93A47A;}
	.st41{fill:#6A7E4F;}
	.st42{fill:#E7E5D1;}
	.st43{fill:#CFD26A;}
	.st44{fill:#EDF0BC;}
	.st45{fill:#B6AA50;}
	.st46{fill:#A39C74;}
	.st47{fill:#D1C474;}
	.st48{fill:#93854C;}
	.st49{fill:#867B4A;}
	.st50{fill:#291D10;}
	.st51{fill:#AA9B50;}
	.st52{fill:#E5D263;}
	.st53{fill:#DC7F44;}
	.st54{fill:#E0956D;}
	.st55{fill:#EAAB44;}
	.st56{fill:#8CAC59;}
	.st57{fill:#657E4F;}
	.st58{fill:#97A779;}
	.st59{fill:#D14A4A;}
	.st60{fill:#97C35A;}
	.st61{fill:#89A559;}
	.st62{fill:#CB7A5E;}
	.st63{fill:#BE725E;}
	.st64{fill:#B16955;}
	.st65{fill:#D18D7D;}
	.st66{fill:#5D4837;}
	.st67{fill:#9C5B44;}
	.st68{fill:#D69747;}
	.st69{fill:#6A8E58;}
	.st70{fill:#80A071;}
	.st71{fill:#F1EB66;}
	.st72{fill:#EAC647;}
	.st73{fill:#F3EA8A;}
	.st74{fill:#CEA04A;}
	.st75{fill:#473321;}
	.st76{fill:#93AD7C;}
	.st77{fill:#EFD1A2;}
	.st78{fill:#91A87A;}
	.st79{fill:#6E8E42;}
	.st80{fill:#586889;}
	.st81{fill:#77859F;}
	.st82{fill:#83A25A;}
	.st83{fill:#B2C495;}
	.st84{fill:#947659;}
	.st85{fill:#4E6E4F;}
	.st86{fill:#524160;}
	.st87{fill:#3D3649;}
	.st88{fill:#6B5C7A;}
	.st89{fill:#2F3338;}
	.st90{fill:#212428;}
	.st91{fill:#282D32;}
	.st92{fill:#42484E;}
	.st93{fill:#252B2E;}
	.st94{fill:#6B3F3C;}
	.st95{fill:#645E57;}
	.st96{fill:#517E55;}
	.st97{fill:#2E4135;}
	.st98{fill:none;}
	.st99{fill:#6E8B70;}
	.st100{fill:#3D5545;}
	.st101{fill:#628A64;}
	.st102{fill:#F9F9E3;}
	.st103{fill:#D96F60;}
	.st104{fill:#C0645A;}
	.st105{fill:#543E2C;}
	.st106{fill:#7F4B49;}
	.st107{fill:#9E6345;}
	.st108{fill:#994D49;}
	.st109{fill:#A46A69;}
	.st110{fill:#8F5B42;}
	.st111{fill:#8E4948;}
	.st112{fill:#85986E;}
	.st113{fill:#6D7290;}
	.st114{fill:#626880;}
	.st115{fill:#9C9385;}
	.st116{fill:#F2D55A;}
	.st117{clip-path:url(#SVGID_2_);}
	.st118{fill:#E2AC54;}
	.st119{opacity:0.31;fill:#F9EFC5;}
	.st120{opacity:0.31;fill:#FFFBE9;}
	.st121{fill:#DDC862;}
	.st122{fill:#FFF3C2;}
	.st123{fill:#E8C046;stroke:#7A695F;stroke-width:0.15;stroke-miterlimit:10;}
	.st124{fill:#DBB248;}
	.st125{fill:#6F5753;}
	.st126{fill:#E8C046;stroke:#77655B;stroke-width:0.15;stroke-miterlimit:10;}
	.st127{fill:#83A15C;}
	.st128{fill:#698C3C;}
	.st129{fill:#809D5B;}
	.st130{fill:#4A6224;}
	.st131{fill:#85A55C;}
	.st132{fill:#506B26;}
	.st133{fill:#82A15B;}
	.st134{fill:#698958;}
	.st135{fill:#DD8344;}
	.st136{fill:#B56721;}
	.st137{fill:#C2463A;}
	.st138{fill:#CC6E64;}
	.st139{fill:#5EA817;}
	.st140{fill:#5F8F22;}
	.st141{fill:#C24F3C;}
	.st142{fill:#AB4A39;}
	.st143{fill:#BB413C;}
	.st144{fill:#EA7142;}
	.st145{fill:#ED835B;}
	.st146{fill:#E76D18;}
	.st147{fill:#56734E;}
	.st148{fill:#CBC797;}
	.st149{fill:#F1F0E1;}
	.st150{fill:#DBD9CA;}
	.st151{fill:#496042;}
	.st152{fill:#547534;}
	.st153{fill:#C0D591;}
	.st154{fill:#B3C483;}
	.st155{fill:#DFEAC1;}
	.st156{fill:#D5DDB8;}
	.st157{fill:#577F36;}
	.st158{fill:#4D6D2F;}
	.st159{fill:#4F6B32;}
	.st160{fill:#AAC654;}
	.st161{fill:#A0B252;}
	.st162{fill:#9B3743;}
	.st163{fill:#A34D5B;}
	.st164{fill:#75434B;}
	.st165{fill:#80333D;}
	.st166{fill:#722F3A;}
	.st167{fill:#8E424F;}
	.st168{fill:#A5273F;}
	.st169{fill:#9B2944;}
	.st170{fill:#93B250;}
	.st171{fill:#778950;}
	.st172{fill:#B1B297;}
	.st173{fill:#5D6B3E;}
	.st174{fill:#769328;}
	.st175{fill:#B9BC9D;}
	.st176{fill:#B4CE6E;}
	.st177{fill:#CCCEAF;}
	.st178{fill:#AEAF94;}
	.st179{fill:#E8C046;stroke:#7F6D62;stroke-width:0.15;stroke-miterlimit:10;}
	.st180{fill:#B7C661;}
	.st181{fill:#CED893;stroke:#ACB25F;stroke-width:0.5;stroke-miterlimit:10;}
	.st182{fill:#D79F4A;}
	.st183{clip-path:url(#SVGID_4_);}
	.st184{fill:#CDD98D;}
	.st185{fill:#FADA37;}
	.st186{fill:#CCB244;}
	.st187{fill:#FAE089;}
	.st188{fill:#FFED90;}
	.st189{fill:#ECDB6F;}
	.st190{fill:#FECF73;}
	.st191{fill:#CEA865;}
	.st192{fill:#EDDFCA;}
	.st193{fill:#EBDECA;}
	.st194{fill:#638408;}
	.st195{fill:#CE9F41;}
	.st196{fill:#F7BA23;}
	.st197{fill:#EAAE2A;}
	.st198{fill:#F2CE36;}
	.st199{fill:#F9D53D;}
	.st200{fill:#FCDA4F;}
	.st201{fill:#F7E289;}
	.st202{fill:#668F05;}
	.st203{fill:#597214;}
	.st204{fill:#8BA040;}
	.st205{fill:#7AA122;}
	.st206{fill:#95BB28;}
	.st207{fill:#E7F2A6;}
	.st208{fill:#C4CC75;}
	.st209{fill:#87A82C;}
	.st210{fill:#9FBF45;}
	.st211{fill:#728E25;}
	.st212{fill:#7D4E30;}
	.st213{fill:#3F5A2F;}
	.st214{fill:#4B7837;}
	.st215{fill:#85A93F;}
	.st216{fill:#693F26;}
	.st217{fill:#8C7668;}
	.st218{fill:#EDE9E6;}
	.st219{fill:#FFFDFC;}
	.st220{fill:#846F5C;}
	.st221{clip-path:url(#SVGID_6_);}
	.st222{fill:#B2A594;}
	.st223{fill:#E4DDD5;}
	.st224{fill:#A16D46;}
	.st225{fill:#9A8E42;}
	.st226{fill:#BBB061;}
	.st227{fill:#A08F41;}
	.st228{fill:#C1AD56;}
	.st229{opacity:0.7;}
	.st230{fill:#DACA7F;}
	.st231{fill:#EEE49F;}
	.st232{opacity:0.5;}
	.st233{fill:#FFF9D7;}
	.st234{fill:#7C7F32;}
	.st235{fill:#95A84C;}
	.st236{fill:#D8B45C;}
	.st237{fill:#FCC572;}
	.st238{fill:#FED49A;}
	.st239{fill:#C0782C;}
	.st240{fill:#D49430;}
	.st241{fill:#F5D19D;}
	.st242{opacity:0.35;}
	.st243{fill:#F9AFC9;}
	.st244{fill:#F9CDDE;}
	.st245{fill:#FFF3F8;}
	.st246{fill:#F4A2C3;}
	.st247{fill:#FFFFFF;}
	.st248{fill:#D7F2F9;}
	.st249{fill:#492743;}
	.st250{fill:#20131D;}
	.st251{fill:#685364;}
	.st252{fill:#748115;}
	.st253{fill:#A7B86A;}
</style>
<g id="Слой_1">
</g>
<g id="Слой_2">
</g>
<g id="Слой_4">
</g>
<g id="Слой_3">
	<g>
		<path class="st243" d="M20.15,15.07c9.82-7.62,21.3-6.99,23.34-6.85c3.29,0.23,12.06,0.98,19.61,7.78
			c11.5,10.36,10.08,25.64,9.96,26.77c-1.64,14.95-13.96,26.02-24.9,28.01c-4.8,0.87-10.45,0.2-12.14,0
			c-4.41-0.52-8.74-1.04-13.38-3.73c-5.49-3.19-8.32-7.62-9.96-10.27c-1.8-2.89-5.55-9.12-5.29-17.74c0.33-11,6.95-18.32,9.03-20.54
			C18.05,16.74,19.49,15.58,20.15,15.07z"/>
	</g>
	<g>
		<path class="st244" d="M21.92,23.89c10.68-4.71,10.51-7.36,15.25-7.78c1.36-0.12,4.96,1.06,12.14,3.42
			c7.13,2.34,8.34,3.16,9.34,4.05c3.29,2.91,4.36,6.69,5.29,9.96c0.7,2.44,1.64,5.89,0.93,10.27c-0.7,4.38-2.68,7.33-4.05,9.34
			c-1.19,1.74-5.35,7.66-13.38,10.89c-2.48,1-12.98,5.22-22.41-0.31c-6.46-3.79-8.92-10.09-9.96-12.76
			c-2.56-6.57-1.88-12.19-1.56-14.63c0.43-3.23,1.01-7.14,4.05-9.96C18.9,25.14,20.05,24.72,21.92,23.89z"/>
	</g>
	<g>
		<path class="st245" d="M36.47,28.15c1.86-2.27,5.26-4.03,8.72-3.11c4.14,1.1,7.24,5.75,5.91,10.27c-1.3,4.44-6.17,6.33-9.96,5.6
			c-2.72-0.52-5.77-2.57-6.54-5.91C33.78,31.43,36.08,28.62,36.47,28.15z"/>
		<path class="st246" d="M42.81,42.07c-0.63,0-1.26-0.06-1.86-0.18c-3.02-0.58-6.45-2.87-7.32-6.67c-0.84-3.65,1.17-6.6,2.07-7.7
			l0,0c2.02-2.47,5.82-4.49,9.75-3.44c2.38,0.64,4.48,2.3,5.76,4.57c1.23,2.18,1.53,4.65,0.86,6.95
			C50.79,39.9,46.68,42.07,42.81,42.07z M37.24,28.79c-0.71,0.87-2.31,3.2-1.67,5.99c0.67,2.92,3.37,4.7,5.75,5.16
			c3.35,0.64,7.68-1.04,8.81-4.9c0.52-1.78,0.28-3.7-0.68-5.4c-1-1.78-2.69-3.13-4.53-3.62C41.86,25.19,38.86,26.82,37.24,28.79
			L37.24,28.79z"/>
	</g>
	<g>
		<path class="st247" d="M26.4,38.78c-3.05-0.15-6.24,6.06-5.81,9.58c0.02,0.17,0.06,0.4,0.17,0.67c0.51,1.22,2.07,2.11,3.84,2.54
			c0.08,2.33-0.45,4.01-1.06,5.21c-2.93,5.73-9.93,4.73-12.75,11.01c-1.51,3.38-0.4,5.69-2.75,8.04c-1.88,1.87-4.52,2.32-6.53,2.39
			c2,0.11,4.39,0.03,6.43-1.67c2.56-2.13,1.65-4.53,3.46-7.76c3.36-5.99,9.77-3.59,13.68-9.82c1.25-1.99,2.1-4.64,1.91-7.1
			c1.6,0,3.1-0.41,3.94-1.32C33.64,47.6,29.92,38.95,26.4,38.78z"/>
		<path class="st248" d="M2.59,78.74c-0.38,0-0.74-0.01-1.1-0.03l0.01-1c2.71-0.09,4.79-0.84,6.19-2.24c1.25-1.25,1.43-2.46,1.65-4
			c0.16-1.13,0.34-2.41,1-3.88c1.53-3.41,4.21-4.76,6.81-6.08c2.37-1.2,4.61-2.33,5.95-4.96c0.68-1.33,1.02-2.88,1.02-4.6
			c-1.92-0.54-3.3-1.53-3.81-2.73c-0.14-0.33-0.18-0.6-0.21-0.8c-0.31-2.5,1.09-6.31,3.11-8.49c1.05-1.13,2.15-1.72,3.22-1.64l0,0
			c2.21,0.11,4.09,2.82,5.02,5.11c1,2.45,1.5,5.71-0.14,7.49c-0.79,0.86-2.13,1.38-3.78,1.47c0.04,2.25-0.69,4.78-2.01,6.88
			c-2.05,3.26-4.72,4.25-7.31,5.21c-2.45,0.91-4.77,1.76-6.36,4.59c-0.72,1.28-0.99,2.42-1.25,3.52c-0.37,1.56-0.71,3.04-2.33,4.38
			C6.47,78.41,4.45,78.74,2.59,78.74z M26.29,39.28c-0.92,0-1.78,0.72-2.35,1.33c-1.82,1.96-3.13,5.48-2.85,7.69
			c0.02,0.15,0.05,0.33,0.14,0.54c0.41,0.97,1.72,1.81,3.5,2.25l0.37,0.09l0.01,0.38c0.07,2.04-0.31,3.87-1.12,5.46
			c-1.49,2.92-3.98,4.18-6.39,5.39c-2.55,1.29-4.96,2.51-6.35,5.59c-0.04,0.08-0.07,0.16-0.1,0.24c1.76-2.91,4.27-3.83,6.7-4.73
			c2.54-0.94,4.94-1.83,6.81-4.8c1.31-2.09,2-4.63,1.84-6.8l-0.04-0.54H27c1.59,0,2.9-0.42,3.57-1.16c1.09-1.18,1.07-3.7-0.05-6.43
			c-1.05-2.57-2.76-4.42-4.15-4.49C26.34,39.28,26.31,39.28,26.29,39.28z"/>
	</g>
</g>
</svg>
