<?xml version="1.0" encoding="utf-8"?>
<!-- Generator: Adobe Illustrator 23.1.0, SVG Export Plug-In . SVG Version: 6.00 Build 0)  -->
<svg version="1.1" xmlns="http://www.w3.org/2000/svg" xmlns:xlink="http://www.w3.org/1999/xlink" x="0px" y="0px"
	 viewBox="0 0 80 80" style="enable-background:new 0 0 80 80;" xml:space="preserve">
<style type="text/css">
	.st0{fill:#6F8653;}
	.st1{fill:#EBB044;}
	.st2{fill:#EEC27E;}
	.st3{fill:#DBA44B;}
	.st4{fill:#725846;}
	.st5{fill:#E8CA48;}
	.st6{fill:#F2DC7D;}
	.st7{fill:#CDB44D;}
	.st8{fill:#F8F8E1;}
	.st9{fill:#E4D049;}
	.st10{fill:#EDDC60;}
	.st11{fill:#E7E474;}
	.st12{fill:#809764;}
	.st13{fill:#46684B;}
	.st14{fill:#4D724F;}
	.st15{fill:#7D8E54;}
	.st16{fill:#4E7553;}
	.st17{fill:#456449;}
	.st18{fill:#415E46;}
	.st19{fill:#D6E06F;}
	.st20{fill:#A46246;}
	.st21{fill:#A97361;}
	.st22{fill:#6D8A56;}
	.st23{fill:#DB7B43;}
	.st24{fill:#EDB862;}
	.st25{fill:#DD8347;}
	.st26{fill:#E09A79;}
	.st27{fill:#D76B43;}
	.st28{fill:#C66849;}
	.st29{fill:#8E8079;}
	.st30{fill:#D98065;}
	.st31{fill:#C56647;}
	.st32{fill:#EFD9BA;}
	.st33{fill:#D45D45;}
	.st34{fill:#DD8075;}
	.st35{fill:#DAC6AD;}
	.st36{fill:#657F51;}
	.st37{fill:#556946;}
	.st38{fill:#7D9657;}
	.st39{fill:#7B706B;}
	.st40{fill:#93A47A;}
	.st41{fill:#6A7E4F;}
	.st42{fill:#E7E5D1;}
	.st43{fill:#CFD26A;}
	.st44{fill:#EDF0BC;}
	.st45{fill:#B6AA50;}
	.st46{fill:#A39C74;}
	.st47{fill:#D1C474;}
	.st48{fill:#93854C;}
	.st49{fill:#867B4A;}
	.st50{fill:#291D10;}
	.st51{fill:#AA9B50;}
	.st52{fill:#E5D263;}
	.st53{fill:#DC7F44;}
	.st54{fill:#E0956D;}
	.st55{fill:#EAAB44;}
	.st56{fill:#8CAC59;}
	.st57{fill:#657E4F;}
	.st58{fill:#97A779;}
	.st59{fill:#D14A4A;}
	.st60{fill:#97C35A;}
	.st61{fill:#89A559;}
	.st62{fill:#CB7A5E;}
	.st63{fill:#BE725E;}
	.st64{fill:#B16955;}
	.st65{fill:#D18D7D;}
	.st66{fill:#5D4837;}
	.st67{fill:#9C5B44;}
	.st68{fill:#D69747;}
	.st69{fill:#6A8E58;}
	.st70{fill:#80A071;}
	.st71{fill:#F1EB66;}
	.st72{fill:#EAC647;}
	.st73{fill:#F3EA8A;}
	.st74{fill:#CEA04A;}
	.st75{fill:#473321;}
	.st76{fill:#93AD7C;}
	.st77{fill:#EFD1A2;}
	.st78{fill:#91A87A;}
	.st79{fill:#6E8E42;}
	.st80{fill:#586889;}
	.st81{fill:#77859F;}
	.st82{fill:#83A25A;}
	.st83{fill:#B2C495;}
	.st84{fill:#947659;}
	.st85{fill:#4E6E4F;}
	.st86{fill:#524160;}
	.st87{fill:#3D3649;}
	.st88{fill:#6B5C7A;}
	.st89{fill:#2F3338;}
	.st90{fill:#212428;}
	.st91{fill:#282D32;}
	.st92{fill:#42484E;}
	.st93{fill:#252B2E;}
	.st94{fill:#6B3F3C;}
	.st95{fill:#645E57;}
	.st96{fill:#517E55;}
	.st97{fill:#2E4135;}
	.st98{fill:none;}
	.st99{fill:#6E8B70;}
	.st100{fill:#3D5545;}
	.st101{fill:#628A64;}
	.st102{fill:#F9F9E3;}
	.st103{fill:#D96F60;}
	.st104{fill:#C0645A;}
	.st105{fill:#543E2C;}
	.st106{fill:#7F4B49;}
	.st107{fill:#9E6345;}
	.st108{fill:#994D49;}
	.st109{fill:#A46A69;}
	.st110{fill:#8F5B42;}
	.st111{fill:#8E4948;}
	.st112{fill:#85986E;}
	.st113{fill:#6D7290;}
	.st114{fill:#626880;}
	.st115{fill:#9C9385;}
	.st116{fill:#F2D55A;}
	.st117{clip-path:url(#SVGID_2_);}
	.st118{fill:#E2AC54;}
	.st119{opacity:0.31;fill:#F9EFC5;}
	.st120{opacity:0.31;fill:#FFFBE9;}
	.st121{fill:#DDC862;}
	.st122{fill:#FFF3C2;}
	.st123{fill:#E8C046;stroke:#7A695F;stroke-width:0.15;stroke-miterlimit:10;}
	.st124{fill:#DBB248;}
	.st125{fill:#6F5753;}
	.st126{fill:#E8C046;stroke:#77655B;stroke-width:0.15;stroke-miterlimit:10;}
	.st127{fill:#83A15C;}
	.st128{fill:#698C3C;}
	.st129{fill:#809D5B;}
	.st130{fill:#4A6224;}
	.st131{fill:#85A55C;}
	.st132{fill:#506B26;}
	.st133{fill:#82A15B;}
	.st134{fill:#698958;}
	.st135{fill:#DD8344;}
	.st136{fill:#B56721;}
	.st137{fill:#C2463A;}
	.st138{fill:#CC6E64;}
	.st139{fill:#5EA817;}
	.st140{fill:#5F8F22;}
	.st141{fill:#C24F3C;}
	.st142{fill:#AB4A39;}
	.st143{fill:#BB413C;}
	.st144{fill:#EA7142;}
	.st145{fill:#ED835B;}
	.st146{fill:#E76D18;}
	.st147{fill:#56734E;}
	.st148{fill:#CBC797;}
	.st149{fill:#F1F0E1;}
	.st150{fill:#DBD9CA;}
	.st151{fill:#496042;}
	.st152{fill:#547534;}
	.st153{fill:#C0D591;}
	.st154{fill:#B3C483;}
	.st155{fill:#DFEAC1;}
	.st156{fill:#D5DDB8;}
	.st157{fill:#577F36;}
	.st158{fill:#4D6D2F;}
	.st159{fill:#4F6B32;}
	.st160{fill:#AAC654;}
	.st161{fill:#A0B252;}
	.st162{fill:#9B3743;}
	.st163{fill:#A34D5B;}
	.st164{fill:#75434B;}
	.st165{fill:#80333D;}
	.st166{fill:#722F3A;}
	.st167{fill:#8E424F;}
	.st168{fill:#A5273F;}
	.st169{fill:#9B2944;}
	.st170{fill:#93B250;}
	.st171{fill:#778950;}
	.st172{fill:#B1B297;}
	.st173{fill:#5D6B3E;}
	.st174{fill:#769328;}
	.st175{fill:#B9BC9D;}
	.st176{fill:#B4CE6E;}
	.st177{fill:#CCCEAF;}
	.st178{fill:#AEAF94;}
	.st179{fill:#E8C046;stroke:#7F6D62;stroke-width:0.15;stroke-miterlimit:10;}
	.st180{fill:#B7C661;}
	.st181{fill:#CED893;stroke:#ACB25F;stroke-width:0.5;stroke-miterlimit:10;}
	.st182{fill:#D79F4A;}
	.st183{clip-path:url(#SVGID_4_);}
	.st184{fill:#CDD98D;}
	.st185{fill:#FADA37;}
	.st186{fill:#CCB244;}
	.st187{fill:#FAE089;}
	.st188{fill:#FFED90;}
	.st189{fill:#ECDB6F;}
	.st190{fill:#FECF73;}
	.st191{fill:#CEA865;}
	.st192{fill:#EDDFCA;}
	.st193{fill:#EBDECA;}
	.st194{fill:#638408;}
	.st195{fill:#CE9F41;}
	.st196{fill:#F7BA23;}
	.st197{fill:#EAAE2A;}
	.st198{fill:#F2CE36;}
	.st199{fill:#F9D53D;}
	.st200{fill:#FCDA4F;}
	.st201{fill:#F7E289;}
	.st202{fill:#668F05;}
	.st203{fill:#597214;}
	.st204{fill:#8BA040;}
	.st205{fill:#7AA122;}
	.st206{fill:#95BB28;}
	.st207{fill:#E7F2A6;}
	.st208{fill:#C4CC75;}
	.st209{fill:#87A82C;}
	.st210{fill:#9FBF45;}
	.st211{fill:#728E25;}
	.st212{fill:#7D4E30;}
	.st213{fill:#3F5A2F;}
	.st214{fill:#4B7837;}
	.st215{fill:#85A93F;}
	.st216{fill:#693F26;}
	.st217{fill:#8C7668;}
	.st218{fill:#EDE9E6;}
	.st219{fill:#FFFDFC;}
	.st220{fill:#846F5C;}
	.st221{clip-path:url(#SVGID_6_);}
	.st222{fill:#B2A594;}
	.st223{fill:#E4DDD5;}
	.st224{fill:#A16D46;}
	.st225{fill:#9A8E42;}
	.st226{fill:#BBB061;}
	.st227{fill:#A08F41;}
	.st228{fill:#C1AD56;}
	.st229{opacity:0.7;}
	.st230{fill:#DACA7F;}
	.st231{fill:#EEE49F;}
	.st232{opacity:0.5;}
	.st233{fill:#FFF9D7;}
	.st234{fill:#7C7F32;}
	.st235{fill:#95A84C;}
	.st236{fill:#D8B45C;}
	.st237{fill:#FCC572;}
	.st238{fill:#FED49A;}
	.st239{fill:#C0782C;}
	.st240{fill:#D49430;}
	.st241{fill:#F5D19D;}
	.st242{opacity:0.35;}
	.st243{fill:#F9AFC9;}
	.st244{fill:#F9CDDE;}
	.st245{fill:#FFF3F8;}
	.st246{fill:#F4A2C3;}
	.st247{fill:#FFFFFF;}
	.st248{fill:#D7F2F9;}
	.st249{fill:#492743;}
	.st250{fill:#20131D;}
	.st251{fill:#685364;}
	.st252{fill:#748115;}
	.st253{fill:#A7B86A;}
</style>
<g id="Слой_1">
	<g>
		<g>
			<path class="st67" d="M68.84,47.23c5.47,9.39,4.23,20.31-2.77,24.39c-7,4.07-17.1-0.24-22.57-9.63
				c-5.47-9.4-4.23-20.31,2.77-24.39C53.26,33.52,63.37,37.83,68.84,47.23z"/>
			<g>
				<path class="st68" d="M46.69,38.07c-0.09-0.01-0.19,0.05-0.22,0.13l-1.28,3.91c-0.03,0.08,0.02,0.17,0.09,0.2l1.07,0.4
					c0.08,0.03,0.17-0.01,0.21-0.09l1.08-2.4c0.03-0.08,0.13-0.14,0.22-0.13l2.62,0.24c0.08,0.01,0.17-0.05,0.18-0.14l0.18-1.13
					c0.01-0.08-0.04-0.16-0.13-0.18L46.69,38.07z"/>
				<path class="st68" d="M48.64,41.21c-0.15,0-0.33,0.11-0.4,0.24l-1.5,3.99c-0.05,0.13,0.01,0.3,0.14,0.37l1.48,0.76
					c0.12,0.07,0.28,0.01,0.36-0.12l1.16-2.21C49.94,44.1,50.11,44,50.26,44l2.5,0.08c0.15,0,0.27-0.11,0.28-0.26l0.07-1.66
					c0.01-0.14-0.11-0.28-0.25-0.3L48.64,41.21z"/>
				<g>
					<path class="st68" d="M43.67,45.45c-0.14-0.03-0.23-0.17-0.2-0.31l0.68-2.52c0.04-0.14,0.18-0.22,0.32-0.17l1.94,0.7
						c0.13,0.05,0.22,0.2,0.18,0.35l-0.57,2.15c-0.04,0.14-0.18,0.23-0.33,0.21L43.67,45.45z"/>
					<path class="st68" d="M54.53,39.47c0.05-0.14-0.03-0.28-0.17-0.32l-2.53-0.66c-0.14-0.03-0.27,0.05-0.3,0.19l-0.35,2.03
						c-0.03,0.15,0.07,0.29,0.21,0.33l2.15,0.57c0.14,0.04,0.29-0.04,0.34-0.19L54.53,39.47z"/>
				</g>
				<g>
					<path class="st68" d="M43.03,45.98l-2.37-0.46c-0.16-0.03-0.32-0.19-0.34-0.35c0,0-0.13-1.09,0.21-2c0,0,1.5-0.03,2.81,0.55
						C43.34,43.72,43.31,45.1,43.03,45.98z"/>
					<path class="st68" d="M55.16,38.92l0.77-2.28c0.05-0.16-0.01-0.37-0.14-0.47c0,0-0.88-0.65-1.84-0.8c0,0-0.77,1.29-0.91,2.71
						C53.04,38.08,54.25,38.73,55.16,38.92z"/>
				</g>
				<g>
					<path class="st68" d="M43.68,42.82l-1.34-0.27c-0.14-0.03-0.23-0.16-0.2-0.31c0,0,0.26-1.22,0.96-2.13c0,0,0.9,0.35,1.37,0.99
						C44.47,41.11,44.19,42.24,43.68,42.82z"/>
					<path class="st68" d="M52.09,37.93l0.43-1.31c0.05-0.13-0.03-0.28-0.17-0.33c0,0-1.19-0.37-2.32-0.22c0,0-0.14,0.97,0.19,1.69
						C50.21,37.76,51.33,38.08,52.09,37.93z"/>
				</g>
				<g>
					<path class="st68" d="M40.15,45.76c0,0,0.9,0.51,3,0.98c0,0-0.82,1.73-0.79,3.15c0,0-1.47-0.51-2.91-0.16
						C39.45,49.72,39.53,47.29,40.15,45.76z"/>
					<path class="st68" d="M56.39,36.3c0,0,0,1.04-0.63,3.1c0,0,1.91,0.14,3.13,0.86c0,0,0.28-1.53,1.3-2.61
						C60.18,37.66,58.02,36.53,56.39,36.3z"/>
				</g>
				<path class="st68" d="M50.97,45.24c-0.15-0.01-0.32,0.09-0.38,0.23l-1.69,3.52c-0.04,0.14,0.03,0.3,0.17,0.35l2.51,0.88
					c0.13,0.05,0.28-0.02,0.33-0.16l0.46-1.54c0.06-0.13,0.24-0.23,0.38-0.22l1.56,0.36c0.14,0.03,0.28-0.06,0.3-0.21l0.47-2.62
					c0.02-0.15-0.07-0.28-0.21-0.32L50.97,45.24z"/>
				<g>
					<path class="st68" d="M43.15,49.8c0,0,0.01-2.29,0.72-3.68c0,0,3.56-0.09,5.07,1.37l-0.65,1.74c-0.05,0.14-0.2,0.2-0.33,0.14
						c0,0-0.62-0.3-1.01-0.3c0,0-0.29,0.62-0.4,1.24C46.56,50.31,43.79,49.73,43.15,49.8z"/>
					<path class="st68" d="M58.42,40.92c0,0-2-1.13-3.56-1.2c0,0-1.83,3.05-1.32,5.09l1.84,0.29c0.15,0.03,0.27-0.07,0.28-0.22
						c0,0,0.05-0.69,0.24-1.03c0,0,0.69,0.05,1.27,0.27C57.18,44.13,58.05,41.43,58.42,40.92z"/>
				</g>
				<g>
					<path class="st68" d="M40.41,54.38c0,0-1.38-1.66-0.89-4.19l1.61,0.37c0.14,0.03,0.22,0.17,0.18,0.31c0,0-0.59,1.8,0.27,3.83
						C41.58,54.69,40.58,54.61,40.41,54.38z"/>
					<path class="st68" d="M63.75,40.78c0,0-0.76-2.02-3.2-2.85l-0.47,1.58c-0.04,0.14,0.05,0.28,0.19,0.31c0,0,1.85,0.37,3.19,2.12
						C63.45,41.96,63.88,41.05,63.75,40.78z"/>
				</g>
				<g>
					<path class="st68" d="M42.07,54.44c0,0-0.59-2.68-0.05-4.33c0,0,2.95,0,4.36,0.67c0,0-0.47,1.65-0.69,3c0,0-1.33-0.5-1.65-0.8
						l-0.44,1.51c-0.04,0.14-0.2,0.25-0.34,0.24C43.27,54.73,42.64,54.72,42.07,54.44z"/>
					<path class="st68" d="M62.98,42.26c0,0-2.03-1.84-3.74-2.18c0,0-1.46,2.56-1.57,4.13c0,0,1.67,0.4,2.95,0.89
						c0,0,0.22-1.4,0.12-1.83l1.53,0.36c0.14,0.03,0.31-0.05,0.38-0.18C62.66,43.45,62.94,42.9,62.98,42.26z"/>
				</g>
				<g>
					<path class="st68" d="M46.5,54.13c0.09-0.08,0.36-2.64,1.17-4.39c0,0,2.86,0.39,4.23,1.05c0,0-0.3,2.09-1.23,3.8
						c0,0-2.73,0.03-4.22-0.54L46.5,54.13z"/>
					<path class="st68" d="M60.53,45.96c-0.12,0.04-2.47-0.99-4.4-1.16c0,0-1.07,2.69-1.17,4.2c0,0,1.96,0.77,3.91,0.81
						c0,0,1.37-2.36,1.61-3.93L60.53,45.96z"/>
				</g>
				<g>
					<path class="st68" d="M43.77,60.55c0,0-3.48-1.98-2.81-5.93l2.25,0.58c0.14,0.04,0.23,0.18,0.21,0.32
						C43.42,55.53,43.05,57.56,43.77,60.55z"/>
					<path class="st68" d="M67.47,46.75c0,0-0.01-4.01-3.77-5.37l-0.61,2.25c-0.04,0.14,0.05,0.29,0.18,0.34
						C63.27,43.97,65.22,44.65,67.47,46.75z"/>
				</g>
				<path class="st68" d="M53.42,49.46c-0.15-0.03-0.31,0.07-0.36,0.21l-1.32,4.11c-0.06,0.14,0.01,0.29,0.15,0.34l3.55,1.18
					c0.16,0.02,0.32-0.08,0.36-0.23l0.15-0.44c0.05-0.15,0.2-0.24,0.36-0.21l0.45,0.09c0.15,0.03,0.32-0.06,0.38-0.2l0.73-3.67
					c0.03-0.15-0.07-0.28-0.22-0.3L53.42,49.46z"/>
				<g>
					<path class="st68" d="M44.46,60.94c0,0-0.42-4.22,0.34-6.5c0,0,3.33,0.88,4.98,0.66c0,0-1.47,2.91-1.35,5.16l-0.66-0.1
						c-0.14-0.02-0.31,0.07-0.37,0.21c0,0-0.08,0.19,0,0.82C47.39,61.19,45.41,61.41,44.46,60.94z"/>
					<path class="st68" d="M67.47,47.55c0,0-3.47-2.46-5.82-2.92c0,0-0.88,3.33-1.88,4.65c0,0,3.25,0.16,5.16,1.38l0.24-0.62
						c0.05-0.14,0.22-0.23,0.36-0.22c0,0,0.21,0.02,0.71,0.4C66.23,50.22,67.4,48.61,67.47,47.55z"/>
				</g>
				<g>
					<path class="st68" d="M49.37,60.03c0,0,0.43-3.81,1.79-5.25c0,0,2.55,0.85,4.32,0.91l-0.76,3.5c-0.03,0.14-0.17,0.23-0.31,0.19
						L54,59.28c-0.14-0.04-0.28,0.05-0.31,0.19l-0.3,1.42c-0.03,0.14-0.14,0.18-0.25,0.09C53.13,60.98,52.14,60.15,49.37,60.03z"/>
					<path class="st68" d="M64.25,51.37c0,0-3.52-1.5-5.44-1.03c0,0-0.52,2.64-1.35,4.2l3.42,1.08c0.14,0.04,0.28-0.04,0.32-0.18
						l0.11-0.42c0.04-0.14,0.18-0.22,0.32-0.18l1.38,0.43c0.14,0.04,0.23-0.03,0.2-0.18C63.21,55.11,62.98,53.84,64.25,51.37z"/>
				</g>
				<path class="st68" d="M56.87,55.43c-0.14-0.05-0.29,0.04-0.32,0.19l-1.22,3.8c-0.05,0.15,0.03,0.31,0.18,0.36l4.03,1
					c0.15,0.04,0.3-0.05,0.34-0.2L61,56.58c0.03-0.15-0.07-0.3-0.22-0.33L56.87,55.43z"/>
				<g>
					<path class="st68" d="M42.79,60.7c0,0,1.58,4.45,4.68,5.33c0,0-0.6-3.31-0.04-4.28C47.42,61.75,43.96,62.1,42.79,60.7z"/>
					<path class="st68" d="M68.08,45.98c0,0,3.08,3.57,2.33,6.7c0,0-2.58-2.16-3.71-2.15C66.7,50.52,68.72,47.68,68.08,45.98z"/>
				</g>
				<g>
					<path class="st68" d="M48.09,65.93c0,0-0.48-3.65,0.22-5.02c0,0,3.1-0.34,5.23,0.63c0,0-0.49,2.46-1.01,3.4l-0.47,0.08
						c-0.15,0.03-0.3,0.16-0.34,0.3l-0.12,0.46c-0.04,0.14-0.19,0.27-0.34,0.29C51.26,66.08,49.36,66.32,48.09,65.93z"/>
					<path class="st68" d="M70.01,53.17c0,0-2.93-2.22-4.47-2.28c0,0-1.82,2.53-2.03,4.86c0,0,2.37,0.79,3.46,0.8l0.31-0.37
						c0.09-0.12,0.29-0.18,0.43-0.15l0.46,0.12c0.14,0.04,0.33-0.03,0.42-0.15C68.57,56,69.72,54.47,70.01,53.17z"/>
				</g>
				<g>
					<path class="st68" d="M46.5,66.42c0,0,1.63,2.69,3.89,3.66c0,0,0.96-2.55,1.21-3.48C51.6,66.61,48.22,67.41,46.5,66.42z"/>
					<path class="st68" d="M71.22,52.03c0,0,1.53,2.75,1.27,5.19c0,0-2.69-0.43-3.62-0.66C68.87,56.56,71.24,54.01,71.22,52.03z"/>
				</g>
				<g>
					<path class="st68" d="M54.47,60.33c0,0-0.15,2.58-1.38,4.96c0,0,2.36,1,3.52,0.94l0.49-0.93c0.07-0.13,0.24-0.2,0.38-0.15
						l0.38,0.13c0.14,0.05,0.29-0.03,0.35-0.16c0,0,1.01-2.5,1.17-3.72C59.37,61.39,55.05,60.62,54.47,60.33z"/>
					<path class="st68" d="M61.99,55.96c0,0,2.32,1.15,4.99,1.24c0,0-0.29,2.54-0.92,3.52l-1.06-0.04c-0.15,0-0.29,0.11-0.32,0.25
						l-0.07,0.39c-0.03,0.14-0.17,0.24-0.32,0.23c0,0-2.67-0.36-3.82-0.82C60.49,60.74,61.95,56.6,61.99,55.96z"/>
				</g>
				<g>
					<path class="st68" d="M50.76,70.38c0,0,2.02,1.36,3.23,0.62c0,0,1.84-2.08,2.62-4.32c0,0-3.5-0.13-4.16-0.76
						C52.45,65.93,51.4,69.65,50.76,70.38z"/>
					<path class="st68" d="M72.56,57.69c0,0,0.19,2.42-1.06,3.12c0,0-2.72,0.57-5.04,0.14c0,0,1.61-3.1,1.39-3.99
						C67.85,56.95,71.61,57.88,72.56,57.69z"/>
				</g>
				<path class="st68" d="M60.51,61.72c-0.14-0.05-0.27,0.03-0.3,0.18l-1.33,3.53c-0.05,0.14,0.02,0.29,0.16,0.34l2.41,0.48
					c0.14,0.03,0.26-0.06,0.27-0.2l0.26-1.11c0.03-0.14,0.16-0.22,0.3-0.17l1.09,0.32c0.13,0.07,0.27,0,0.31-0.13l0.78-2.33
					c0.03-0.14-0.07-0.28-0.22-0.3L60.51,61.72z"/>
				<path class="st68" d="M62.92,65.88c-0.13-0.04-0.25,0.03-0.28,0.16l-1.21,3.23c-0.05,0.12,0.02,0.26,0.14,0.31l2.21,0.44
					c0.13,0.03,0.24-0.06,0.25-0.19l0.23-1.01c0.03-0.13,0.15-0.2,0.28-0.16l1,0.3c0.12,0.05,0.24,0,0.28-0.12l0.71-2.13
					c0.03-0.13-0.07-0.26-0.2-0.27L62.92,65.88z"/>
				<g>
					<path class="st68" d="M57.53,65.98c0,0-0.64,2.22-1.67,3.86c0,0,1.87,0.53,3.52-0.01l0.2-0.54c0.05-0.14,0.21-0.23,0.36-0.2
						l0.29,0.05c0.14,0.03,0.29-0.07,0.33-0.21c0,0,0.36-1.28,0.64-2.08C61.21,66.87,58.56,66.42,57.53,65.98z"/>
					<path class="st68" d="M65.39,61.4c0,0,2.25,0.54,4.18,0.46c0,0-0.46,1.89-1.75,3.06l-0.56-0.09c-0.15-0.02-0.3,0.07-0.35,0.21
						l-0.1,0.28c-0.05,0.14-0.21,0.22-0.34,0.19c0,0-1.29-0.31-2.13-0.47C64.34,65.04,65.27,62.52,65.39,61.4z"/>
				</g>
				<g>
					<path class="st68" d="M53.88,71.81c0,0,1.48,1.28,4.54,1.16c0,0,0.58-1.31,0.86-2.4c0,0-2.47,0.64-3.84-0.02
						C55.43,70.55,54.73,71.38,53.88,71.81z"/>
					<path class="st68" d="M72.26,61.11c0,0,0.38,1.92-1.24,4.52c0,0-1.42-0.15-2.5-0.44c0,0,1.78-1.83,1.88-3.35
						C70.4,61.83,71.47,61.63,72.26,61.11z"/>
				</g>
				<g>
					<path class="st68" d="M58.7,73.1c0,0,1.75,0.36,3.96-0.4c0,0,0.82-1.55,0.74-2.34c0,0-2.49,0.03-3.34-0.34
						C60.06,70.02,59.58,72.03,58.7,73.1z"/>
					<path class="st68" d="M71,65.94c0,0-0.55,1.7-2.31,3.24c0,0-1.75-0.05-2.4-0.51c0,0,1.26-2.15,1.36-3.07
						C67.66,65.6,69.64,66.18,71,65.94z"/>
				</g>
				<path class="st68" d="M65.05,69.41c-0.15,0-0.33,0.09-0.39,0.23l-1.36,2.56c-0.07,0.13-0.01,0.22,0.14,0.19l2.33-0.76
					c0.14-0.04,0.36-0.16,0.46-0.27l1.81-1.65c0.09-0.12,0.05-0.22-0.09-0.22L65.05,69.41z"/>
				<g>
					<path class="st68" d="M43.83,39.68l0.78-0.95c0.09-0.12,0.29-0.24,0.44-0.28c0,0,0.75-0.19,1.1-0.23c0,0-0.45,1.49-1.07,2.47
						C45.07,40.69,44.15,40.5,43.83,39.68z"/>
					<path class="st68" d="M49.28,36.51l-1.21,0.21c-0.15,0.03-0.35,0.14-0.45,0.24c0,0-0.53,0.56-0.74,0.84
						c0,0,1.52,0.35,2.67,0.28C49.55,38.08,49.84,37.18,49.28,36.51z"/>
				</g>
			</g>
			<g>
				<path class="st69" d="M49.61,28.98c-0.35-4.91,3.97-11.32,3.97-11.32c-5.68,2.44-6.9,8.52-6.9,8.52
					c-1.51-3.19,2.08-14.29,2.08-14.29c-4.92,2.7-5.41,9.9-5.41,9.9C41.29,17.97,43.1,6.79,43.1,6.79
					c-4.08,2.81-3.97,9.41-3.97,9.41c-2.74-2.04-4.14-12.31-4.14-12.31c-2.52,3.9-1.41,10.09-0.52,13.46
					c-2.49-2.44-7.33-6.46-11.96-6.19c0,0,8.25,6.28,8.66,9.68c0,0-5.68-3.36-10.13-1.2c0,0,10.61,3.95,12.92,7.63
					c0,0-6.5-3.14-11.28-0.19c0,0,11.42,2.36,13.45,5.25c0,0-5.89-1.94-10.82,1.79c0,0,7.71-0.59,11.81,2.13c0,0-4.22,1.08-7.4,5.44
					c0,0,6.52-2.78,12.25-2.06c0.94-1.34,2.13-2.45,3.56-3.29c1.43-0.83,2.99-1.31,4.61-1.47c2.2-5.34,7.84-9.64,7.84-9.64
					C52.62,25.83,49.61,28.98,49.61,28.98z"/>
				<path class="st69" d="M32.72,10.53c0,0-1.53-2.59-5.43-5.54l0,0l0,0c0.63,4.84,2.13,7.46,2.13,7.46
					c1.16,0.5,3.53,2.28,3.53,2.28l0,0l0,0C32.95,14.73,32.58,11.78,32.72,10.53z"/>
				<path class="st70" d="M41.23,21.6c0,0-1.34-8.84,0.92-12.62C42.15,8.98,38.58,13.18,41.23,21.6z"/>
				<path class="st70" d="M45.15,26.24c0,0-1.01-7.38,2.55-12.66C47.7,13.59,42.76,18.8,45.15,26.24z"/>
				<path class="st70" d="M49.18,33.68c0,0,1.03-4.71,6.43-7.03C55.6,26.65,49.75,27.76,49.18,33.68z"/>
				<path class="st70" d="M25.11,12.13c0,0,5.89,2.09,8.47,6.96C33.58,19.08,29.2,14.23,25.11,12.13z"/>
				<path class="st70" d="M25.61,27.04c0,0,5.06-0.68,9.44,2.16C35.05,29.2,29.65,27.28,25.61,27.04z"/>
				<path class="st70" d="M28.12,33.24c0,0,5.23-1.61,9.67,0.67C37.79,33.9,33.49,32.65,28.12,33.24z"/>
				<path class="st70" d="M32.12,40.12c0,0,3.89-4.02,8.22-2.83C40.34,37.29,36.93,37,32.12,40.12z"/>
			</g>
		</g>
		<path class="st68" d="M39.42,59.95c0,0-0.74,0.26-1.7-1.09c0,0,0.07,0.3,0.18,0.73c-0.28-0.45-2.04-3.26-1.82-3.92
			c0,0-0.81-0.1-1.75-0.26c-1.26-1.68-2.17-3.6-2.17-3.6c-0.78,0.19-2.44,0.26-3.4,0.28c0.19-0.06,0.38-0.13,0.57-0.2
			c0,0-2.73-2.17-3.06-3.09c-0.81,0.38-3.78,0.07-4.27,0.01c-0.58-0.65-1.21-1.39-1.5-1.87c0,0-2,0.71-4.09,1
			C15.64,47.39,15,46.88,15,46.88c-0.31,0.62-3.5,1.35-4.05,1.47l0,0l0,0c-0.05,0.01-0.08,0.01-0.08,0.01
			c0,0.01,0.01,0.01,0.01,0.01c-1.5,0.51-1.88-0.08-1.88-0.08C8.14,49.54,8,50.66,8,50.66c0.63-0.17,2.58-1.96,2.9-2.27
			c1.91,1.38,4.88,2.44,4.88,2.44c0.92,0.08,1.75-0.44,2.28-0.89c0.32,0.21,0.68,0.4,1.06,0.57l0.61-0.17
			c0.16-0.04,0.38,0.02,0.49,0.14l0.22,0.23c0.11,0.12,0.32,0.17,0.47,0.12c0,0,0.91-0.32,1.73-0.58c0.46,0.83,0.86,1.43,0.86,1.43
			l1.72-0.36l0.95,1.47c0,0,0.89-0.17,1.97-0.49c0.43,0.82,0.96,1.95,0.96,1.95c0.07,0.15,0.25,0.26,0.42,0.26l0.32-0.01
			c0.16,0,0.36,0.11,0.44,0.26l0.31,0.55c0.38,0.15,0.77,0.27,1.15,0.35c0.05,0.7,0.26,1.65,0.97,2.25c0,0,2.86,1.38,5.18,1.75
			c0.24,0.94,0.67,2.44,0.98,2.81C38.9,62.45,39.42,61.45,39.42,59.95z"/>
		<g>
			<path class="st71" d="M20.59,63.64c8.32,3.47,16.28,3.44,17.99-0.01c0.09-0.25,0.18-0.5,0.26-0.76
				c0.76-3.66-4.72-9.06-12.76-12.41c-8.03-3.35-15.73-3.44-17.79-0.33c-0.12,0.24-0.24,0.47-0.36,0.72
				C6.69,54.5,12.27,60.17,20.59,63.64z"/>
			<polygon class="st72" points="28.74,59.95 35.29,62.45 29.61,59.17 32.77,59.51 29.38,57.93 30.88,57.19 28.81,56.57 
				32.24,55.54 27.53,55.35 28.33,53.05 25.43,54.17 24.88,52.15 23.65,53.17 21.52,49.97 21.49,53.18 18.68,50.99 19.27,52.52 
				13.87,49.05 18.81,53.82 13.47,52.09 16.73,53.99 10.72,52.83 18.24,55.63 14.91,56.16 17.63,56.88 14.35,58.09 19.9,57.95 
				18.18,60.56 21.37,59.55 21.65,61.09 23.38,59.91 25.46,64.32 25.76,60.66 27.92,62.47 27.33,60.5 30.77,62.25 			"/>
			<path class="st73" d="M27.73,58.88c-0.4,0.96-2.69,0.92-5.12-0.09c-2.43-1.01-4.07-2.61-3.67-3.57c0.4-0.96,2.69-0.92,5.12,0.09
				C26.49,56.32,28.13,57.92,27.73,58.88z"/>
		</g>
		<path class="st67" d="M20.59,63.64c-8.32-3.47-13.9-9.14-12.66-12.79c-0.06,0.13-0.12,0.26-0.17,0.39
			c-3.13,7.52,1.19,16.48,9.65,20.01c8.47,3.53,17.87,0.3,21.01-7.23c0.05-0.13,0.11-0.27,0.16-0.4
			C36.87,67.08,28.91,67.11,20.59,63.64z"/>
		<path class="st68" d="M20.16,65.18c-0.06-0.15-0.22-0.22-0.36-0.15l-4.03,1.05c-0.16,0.04-0.24,0.2-0.19,0.35l1.27,2.39
			c0.07,0.14,0.24,0.19,0.37,0.11l1.15-0.47c0.14-0.07,0.3,0,0.36,0.15l0.48,1.15c0.03,0.15,0.18,0.23,0.34,0.19l2.59-0.78
			c0.15-0.07,0.2-0.24,0.12-0.38L20.16,65.18z"/>
		<g>
			<g>
				<g>
					<path class="st68" d="M7.87,51.03c0,0-1.62,3.26-1.16,6.09c0,0,2.45-0.45,3.53-0.77C10.23,56.35,7.97,53.33,7.87,51.03z"/>
					<path class="st68" d="M6.61,57.55c0,0,0.21,2.56,1.69,3.14c0,0,3.27,0.19,5.74-0.52c0,0-2.88-2.75-2.8-3.7
						C11.24,56.48,7.68,57.65,6.61,57.55z"/>
					<path class="st68" d="M15.64,60.28c0,0-2.62,0.91-4.99,1.05c0,0,0.92,2.14,2.71,3.35l0.67-0.18c0.17-0.05,0.38,0.04,0.47,0.2
						l0.17,0.31c0.09,0.15,0.29,0.23,0.46,0.18c0,0,1.51-0.53,2.49-0.81C17.61,64.38,16.01,61.56,15.64,60.28z"/>
				</g>
				<path class="st68" d="M7.56,60.64c0,0-0.09,2.29,2.36,5.11c0,0,1.69-0.35,2.95-0.83c0,0-2.51-1.91-2.92-3.66
					C9.95,61.25,8.61,61.15,7.56,60.64z"/>
			</g>
			<g>
				<g>
					<path class="st68" d="M38.5,63.8c0,0-1.17,3.44-3.51,5.11c0,0-1.4-2.06-1.94-3.05C33.05,65.86,36.79,65.34,38.5,63.8z"/>
					<path class="st68" d="M34.75,69.28c0,0-1.96,1.65-3.43,1.01c0,0-2.44-2.19-3.67-4.44c0,0,3.98,0.12,4.6-0.62
						C32.25,65.23,33.93,68.59,34.75,69.28z"/>
					<path class="st68" d="M26.45,64.79c0,0,1.2,2.5,2.77,4.28c0,0-2.17,0.85-4.28,0.43l-0.34-0.6c-0.09-0.15-0.3-0.24-0.47-0.19
						l-0.34,0.09c-0.17,0.05-0.37-0.04-0.45-0.2c0,0-0.69-1.44-1.18-2.34C22.16,66.27,25.29,65.43,26.45,64.79z"/>
				</g>
				<path class="st68" d="M31.89,70.78c0,0-1.55,1.67-5.28,1.92c0,0-0.95-1.45-1.49-2.68c0,0,3.12,0.44,4.66-0.5
					C29.77,69.51,30.79,70.39,31.89,70.78z"/>
			</g>
		</g>
		<path class="st68" d="M10.2,65.95c0,0,0.98,1.92,3.41,3.5c0,0,2.12-0.27,2.81-0.88c0,0-1.93-2.35-2.22-3.41
			C14.2,65.15,11.9,66.06,10.2,65.95z"/>
		<path class="st68" d="M26.3,72.61c0,0-2.02,0.75-4.88,0.28c0,0-1.38-1.63-1.48-2.55c0,0,3.01-0.43,3.94-1.03
			C23.88,69.32,24.97,71.55,26.3,72.61z"/>
		<path class="st68" d="M18.48,69.39c-0.1-0.14-0.32-0.23-0.49-0.2l-3.32,0.54c-0.17,0.03-0.2,0.15-0.07,0.26l2.33,1.62
			c0.15,0.1,0.4,0.21,0.57,0.24l2.79,0.51c0.17,0.01,0.23-0.1,0.13-0.24L18.48,69.39z"/>
		<path class="st68" d="M21.05,62.53c-0.87,0.39-4.06-0.66-4.06-0.66c0.67,1.46,1.6,2.81,1.6,2.81l1.71-0.34l0.96,1.45
			c0,0,1.62-0.29,3.12-0.84C24.38,64.95,21.38,63.43,21.05,62.53z"/>
	</g>
</g>
<g id="Слой_2">
</g>
<g id="Слой_4">
</g>
<g id="Слой_3">
</g>
</svg>
