<?xml version="1.0" encoding="utf-8"?>
<!-- Generator: Adobe Illustrator 23.1.0, SVG Export Plug-In . SVG Version: 6.00 Build 0)  -->
<svg version="1.1" xmlns="http://www.w3.org/2000/svg" xmlns:xlink="http://www.w3.org/1999/xlink" x="0px" y="0px"
	 viewBox="0 0 80 80" style="enable-background:new 0 0 80 80;" xml:space="preserve">
<style type="text/css">
	.st0{fill:#6F8653;}
	.st1{fill:#EBB044;}
	.st2{fill:#EEC27E;}
	.st3{fill:#DBA44B;}
	.st4{fill:#725846;}
	.st5{fill:#E8CA48;}
	.st6{fill:#F2DC7D;}
	.st7{fill:#CDB44D;}
	.st8{fill:#F8F8E1;}
	.st9{fill:#E4D049;}
	.st10{fill:#EDDC60;}
	.st11{fill:#E7E474;}
	.st12{fill:#809764;}
	.st13{fill:#46684B;}
	.st14{fill:#4D724F;}
	.st15{fill:#7D8E54;}
	.st16{fill:#4E7553;}
	.st17{fill:#456449;}
	.st18{fill:#415E46;}
	.st19{fill:#D6E06F;}
	.st20{fill:#A46246;}
	.st21{fill:#A97361;}
	.st22{fill:#6D8A56;}
	.st23{fill:#DB7B43;}
	.st24{fill:#EDB862;}
	.st25{fill:#DD8347;}
	.st26{fill:#E09A79;}
	.st27{fill:#D76B43;}
	.st28{fill:#C66849;}
	.st29{fill:#8E8079;}
	.st30{fill:#D98065;}
	.st31{fill:#C56647;}
	.st32{fill:#EFD9BA;}
	.st33{fill:#D45D45;}
	.st34{fill:#DD8075;}
	.st35{fill:#DAC6AD;}
	.st36{fill:#657F51;}
	.st37{fill:#556946;}
	.st38{fill:#7D9657;}
	.st39{fill:#7B706B;}
	.st40{fill:#93A47A;}
	.st41{fill:#6A7E4F;}
	.st42{fill:#E7E5D1;}
	.st43{fill:#CFD26A;}
	.st44{fill:#EDF0BC;}
	.st45{fill:#B6AA50;}
	.st46{fill:#A39C74;}
	.st47{fill:#D1C474;}
	.st48{fill:#93854C;}
	.st49{fill:#867B4A;}
	.st50{fill:#291D10;}
	.st51{fill:#AA9B50;}
	.st52{fill:#E5D263;}
	.st53{fill:#DC7F44;}
	.st54{fill:#E0956D;}
	.st55{fill:#EAAB44;}
	.st56{fill:#8CAC59;}
	.st57{fill:#657E4F;}
	.st58{fill:#97A779;}
	.st59{fill:#D14A4A;}
	.st60{fill:#97C35A;}
	.st61{fill:#89A559;}
	.st62{fill:#CB7A5E;}
	.st63{fill:#BE725E;}
	.st64{fill:#B16955;}
	.st65{fill:#D18D7D;}
	.st66{fill:#5D4837;}
	.st67{fill:#9C5B44;}
	.st68{fill:#D69747;}
	.st69{fill:#6A8E58;}
	.st70{fill:#80A071;}
	.st71{fill:#F1EB66;}
	.st72{fill:#EAC647;}
	.st73{fill:#F3EA8A;}
	.st74{fill:#CEA04A;}
	.st75{fill:#473321;}
	.st76{fill:#93AD7C;}
	.st77{fill:#EFD1A2;}
	.st78{fill:#91A87A;}
	.st79{fill:#6E8E42;}
	.st80{fill:#586889;}
	.st81{fill:#77859F;}
	.st82{fill:#83A25A;}
	.st83{fill:#B2C495;}
	.st84{fill:#947659;}
	.st85{fill:#4E6E4F;}
	.st86{fill:#524160;}
	.st87{fill:#3D3649;}
	.st88{fill:#6B5C7A;}
	.st89{fill:#2F3338;}
	.st90{fill:#212428;}
	.st91{fill:#282D32;}
	.st92{fill:#42484E;}
	.st93{fill:#252B2E;}
	.st94{fill:#6B3F3C;}
	.st95{fill:#645E57;}
	.st96{fill:#517E55;}
	.st97{fill:#2E4135;}
	.st98{fill:none;}
	.st99{fill:#6E8B70;}
	.st100{fill:#3D5545;}
	.st101{fill:#628A64;}
	.st102{fill:#F9F9E3;}
	.st103{fill:#D96F60;}
	.st104{fill:#C0645A;}
	.st105{fill:#543E2C;}
	.st106{fill:#7F4B49;}
	.st107{fill:#9E6345;}
	.st108{fill:#994D49;}
	.st109{fill:#A46A69;}
	.st110{fill:#8F5B42;}
	.st111{fill:#8E4948;}
	.st112{fill:#85986E;}
	.st113{fill:#6D7290;}
	.st114{fill:#626880;}
	.st115{fill:#9C9385;}
	.st116{fill:#F2D55A;}
	.st117{clip-path:url(#SVGID_2_);}
	.st118{fill:#E2AC54;}
	.st119{opacity:0.31;fill:#F9EFC5;}
	.st120{opacity:0.31;fill:#FFFBE9;}
	.st121{fill:#DDC862;}
	.st122{fill:#FFF3C2;}
	.st123{fill:#E8C046;stroke:#7A695F;stroke-width:0.15;stroke-miterlimit:10;}
	.st124{fill:#DBB248;}
	.st125{fill:#6F5753;}
	.st126{fill:#E8C046;stroke:#77655B;stroke-width:0.15;stroke-miterlimit:10;}
	.st127{fill:#83A15C;}
	.st128{fill:#698C3C;}
	.st129{fill:#809D5B;}
	.st130{fill:#4A6224;}
	.st131{fill:#85A55C;}
	.st132{fill:#506B26;}
	.st133{fill:#82A15B;}
	.st134{fill:#698958;}
	.st135{fill:#DD8344;}
	.st136{fill:#B56721;}
	.st137{fill:#C2463A;}
	.st138{fill:#CC6E64;}
	.st139{fill:#5EA817;}
	.st140{fill:#5F8F22;}
	.st141{fill:#C24F3C;}
	.st142{fill:#AB4A39;}
	.st143{fill:#BB413C;}
	.st144{fill:#EA7142;}
	.st145{fill:#ED835B;}
	.st146{fill:#E76D18;}
	.st147{fill:#56734E;}
	.st148{fill:#CBC797;}
	.st149{fill:#F1F0E1;}
	.st150{fill:#DBD9CA;}
	.st151{fill:#496042;}
	.st152{fill:#547534;}
	.st153{fill:#C0D591;}
	.st154{fill:#B3C483;}
	.st155{fill:#DFEAC1;}
	.st156{fill:#D5DDB8;}
	.st157{fill:#577F36;}
	.st158{fill:#4D6D2F;}
	.st159{fill:#4F6B32;}
	.st160{fill:#AAC654;}
	.st161{fill:#A0B252;}
	.st162{fill:#9B3743;}
	.st163{fill:#A34D5B;}
	.st164{fill:#75434B;}
	.st165{fill:#80333D;}
	.st166{fill:#722F3A;}
	.st167{fill:#8E424F;}
	.st168{fill:#A5273F;}
	.st169{fill:#9B2944;}
	.st170{fill:#93B250;}
	.st171{fill:#778950;}
	.st172{fill:#B1B297;}
	.st173{fill:#5D6B3E;}
	.st174{fill:#769328;}
	.st175{fill:#B9BC9D;}
	.st176{fill:#B4CE6E;}
	.st177{fill:#CCCEAF;}
	.st178{fill:#AEAF94;}
	.st179{fill:#E8C046;stroke:#7F6D62;stroke-width:0.15;stroke-miterlimit:10;}
	.st180{fill:#B7C661;}
	.st181{fill:#CED893;stroke:#ACB25F;stroke-width:0.5;stroke-miterlimit:10;}
	.st182{fill:#D79F4A;}
	.st183{clip-path:url(#SVGID_4_);}
	.st184{fill:#CDD98D;}
	.st185{fill:#FADA37;}
	.st186{fill:#CCB244;}
	.st187{fill:#FAE089;}
	.st188{fill:#FFED90;}
	.st189{fill:#ECDB6F;}
	.st190{fill:#FECF73;}
	.st191{fill:#CEA865;}
	.st192{fill:#EDDFCA;}
	.st193{fill:#EBDECA;}
	.st194{fill:#638408;}
	.st195{fill:#CE9F41;}
	.st196{fill:#F7BA23;}
	.st197{fill:#EAAE2A;}
	.st198{fill:#F2CE36;}
	.st199{fill:#F9D53D;}
	.st200{fill:#FCDA4F;}
	.st201{fill:#F7E289;}
	.st202{fill:#668F05;}
	.st203{fill:#597214;}
	.st204{fill:#8BA040;}
	.st205{fill:#7AA122;}
	.st206{fill:#95BB28;}
	.st207{fill:#E7F2A6;}
	.st208{fill:#C4CC75;}
	.st209{fill:#87A82C;}
	.st210{fill:#9FBF45;}
	.st211{fill:#728E25;}
	.st212{fill:#7D4E30;}
	.st213{fill:#3F5A2F;}
	.st214{fill:#4B7837;}
	.st215{fill:#85A93F;}
	.st216{fill:#693F26;}
	.st217{fill:#8C7668;}
	.st218{fill:#EDE9E6;}
	.st219{fill:#FFFDFC;}
	.st220{fill:#846F5C;}
	.st221{clip-path:url(#SVGID_6_);}
	.st222{fill:#B2A594;}
	.st223{fill:#E4DDD5;}
	.st224{fill:#A16D46;}
	.st225{fill:#9A8E42;}
	.st226{fill:#BBB061;}
	.st227{fill:#A08F41;}
	.st228{fill:#C1AD56;}
	.st229{opacity:0.7;}
	.st230{fill:#DACA7F;}
	.st231{fill:#EEE49F;}
	.st232{opacity:0.5;}
	.st233{fill:#FFF9D7;}
	.st234{fill:#7C7F32;}
	.st235{fill:#95A84C;}
	.st236{fill:#D8B45C;}
	.st237{fill:#FCC572;}
	.st238{fill:#FED49A;}
	.st239{fill:#C0782C;}
	.st240{fill:#D49430;}
	.st241{fill:#F5D19D;}
	.st242{opacity:0.35;}
	.st243{fill:#F9AFC9;}
	.st244{fill:#F9CDDE;}
	.st245{fill:#FFF3F8;}
	.st246{fill:#F4A2C3;}
	.st247{fill:#FFFFFF;}
	.st248{fill:#D7F2F9;}
	.st249{fill:#492743;}
	.st250{fill:#20131D;}
	.st251{fill:#685364;}
	.st252{fill:#748115;}
	.st253{fill:#A7B86A;}
</style>
<g id="Слой_1">
	<g>
		<path class="st4" d="M71.63,68.01c-0.04-0.01-0.09-0.02-0.13-0.02c-10.61-0.97-19.36-8.1-24.83-13.91
			c-6.01-6.39-9.51-12.63-9.56-12.73c-0.45-0.81-1.46-1.1-2.27-0.65c-0.8,0.45-1.1,1.46-0.65,2.27c0.15,0.27,3.7,6.64,10,13.34
			c8.43,8.97,17.77,14.16,27.02,15c0.05,0,0.1,0.01,0.15,0.01c0.01,0,0.03,0,0.04,0C71.06,69.83,71.25,68.76,71.63,68.01z"/>
		<g>
			<g>
				<path class="st0" d="M57.89,31.34c-0.34-0.21-0.69-0.63-0.44-1.03c0.25-0.38,0.88-0.63,1.28-0.79c0,0,3.44-0.68,3.28-6.69
					c0,0-0.21-1.82,0.25-2.84c0,0-1.33,0.05-2.9-0.41c-0.49-0.14-1.02-0.18-1.52-0.18c-1.28,0-2.46,0.42-3.47,1.19
					c-0.35,0.27-0.68,0.57-1,0.88c-0.48,0.47-0.89,1.14-1.57,1.33c-0.46,0.14-0.89,0.1-1.07-0.37c-0.28-0.73,0.06-1.29,0.39-1.89
					c0.48-0.85,0.97-1.7,1.45-2.54c0.36-0.62,0.72-1.27,1.12-1.87c0,0,3.15-4.69-1.43-8.06c0,0-4.17-3.55-4.48-4.13
					c-0.46,0.48-5.44,2.73-5.44,2.73c-5.33,1.97-3.6,7.35-3.6,7.35c0.22,0.69,0.39,1.4,0.56,2.1c0.23,0.95,0.47,1.9,0.69,2.85
					c0.16,0.67,0.33,1.3-0.14,1.93c-0.3,0.4-0.73,0.32-1.13,0.06c-0.6-0.38-0.8-1.13-1.13-1.71c-0.22-0.39-0.45-0.77-0.72-1.13
					c-0.76-1.02-1.78-1.75-3.01-2.11c-0.48-0.14-1.01-0.25-1.51-0.25c-1.63,0-2.9-0.41-2.9-0.41c0.15,1.11-0.55,2.8-0.55,2.8
					c-1.82,5.73,1.3,7.34,1.3,7.34c0.34,0.27,0.88,0.68,1.01,1.12c0.14,0.45-0.32,0.76-0.7,0.87c-0.79,0.22-1.51,0.24-2.17,0.83
					c-0.4,0.34-0.57,0.88-0.49,1.4c0.11,0.68,0.83,1.5,1.5,1.67c0.71,0.18,1.43,0.23,2.14,0.45c1.11,0.36,2.13,0.93,2.97,1.74
					c0.3,0.29,0.53,0.71,0.85,0.98c4.31,3.64,8.22-0.39,8.22-0.39s2.65,4.96,7.8,2.65c0.37-0.17,0.71-0.51,1.08-0.7
					c1.03-0.55,2.17-0.81,3.33-0.84c0.74-0.02,1.45,0.14,2.18,0.16c0.7,0.02,1.6-0.57,1.91-1.19c0.23-0.47,0.2-1.04-0.08-1.48
					C59.27,31.99,58.58,31.77,57.89,31.34z"/>
				<g>
					<path class="st112" d="M43.97,31.05c0.03,0.01,0.06,0.04,0.07,0.11c0.63-3.57,1.98-11.81,3.45-25.05l0.04-0.28
						c-0.01,0.05-0.02,0.09-0.02,0.14c0.01-0.05,0.01-0.09,0.02-0.14l-0.04,0.27c-2.25,13.13-3.24,21.42-3.62,25.03
						C43.9,31.08,43.94,31.05,43.97,31.05z"/>
					<path class="st112" d="M57.79,33.36c-0.35-0.18-0.73-0.32-1.11-0.44c-0.91-0.29-1.86-0.48-2.82-0.48
						c-0.93,0-1.77,0.3-2.63,0.62c-0.47,0.18-0.96,0.37-1.45,0.49c-1.32,0.34-2.67,0.58-4.03,0.36c-0.56-0.09-1.12-0.32-1.6-0.65
						c0.68,0.01,1.38-0.09,2.06-0.32c1.32-0.43,2.63-1.13,3.89-2.1c0.13-0.1,0.26-0.2,0.4-0.3c0.6-0.45,1.21-0.9,1.73-1.45
						c0.46-0.49,0.81-1.08,1.19-1.63c0.36-0.52,0.76-1.02,1.18-1.49c0.9-1.04,2.01-1.89,3.07-2.65c0.1-0.08,0.21-0.15,0.31-0.23
						c0.39-0.29,0.79-0.58,1.21-0.78c0.05-0.02,0.06-0.07,0.04-0.11c-0.02-0.04-0.07-0.06-0.12-0.04c-0.44,0.21-0.85,0.51-1.25,0.8
						c-0.1,0.08-0.21,0.15-0.31,0.23c-1.07,0.77-2.18,1.62-3.1,2.68c-0.39,0.45-0.77,0.91-1.1,1.41c-0.39,0.59-0.75,1.2-1.25,1.71
						c-0.52,0.53-1.12,0.98-1.71,1.42c-0.14,0.1-0.27,0.2-0.4,0.3c-1.25,0.95-2.53,1.65-3.83,2.07c-0.74,0.24-1.51,0.34-2.25,0.3
						c0,0-0.01-0.01-0.01-0.01c0.04-0.18,0.08-0.39,0.11-0.61c0.08-0.58,0.09-1.08,0.03-1.3c-0.02-0.06-0.04-0.1-0.07-0.11
						c-0.03-0.01-0.07,0.02-0.1,0.08c-0.12,0.19-0.25,0.67-0.33,1.25c-0.03,0.22-0.05,0.43-0.06,0.62c-0.01,0-0.01,0-0.02,0.01
						c-0.72-0.16-1.43-0.47-2.08-0.91c-1.13-0.76-2.18-1.79-3.11-3.06c-0.1-0.13-0.2-0.27-0.3-0.4c-0.44-0.59-0.89-1.19-1.24-1.84
						c-0.34-0.63-0.52-1.31-0.73-1.99c-0.18-0.57-0.42-1.12-0.67-1.66c-0.58-1.26-1.42-2.39-2.23-3.43c-0.08-0.1-0.16-0.2-0.23-0.31
						c-0.3-0.39-0.61-0.79-0.98-1.11c-0.04-0.03-0.09-0.03-0.12,0.01c-0.03,0.04-0.03,0.09,0.01,0.12c0.36,0.31,0.66,0.7,0.95,1.09
						c0.08,0.1,0.16,0.21,0.24,0.31c0.81,1.03,1.64,2.15,2.21,3.4c0.27,0.58,0.51,1.16,0.72,1.76c0.21,0.64,0.38,1.29,0.69,1.89
						c0.34,0.67,0.81,1.27,1.26,1.87c0.1,0.14,0.2,0.27,0.3,0.4c0.94,1.28,2,2.32,3.15,3.1c0.59,0.4,1.24,0.69,1.89,0.87
						c-0.55,0.19-1.15,0.24-1.72,0.18c-1.37-0.16-2.6-0.77-3.77-1.45c-0.44-0.25-0.85-0.57-1.26-0.87
						c-0.74-0.55-1.46-1.06-2.36-1.33c-0.92-0.27-1.89-0.35-2.84-0.32c-0.39,0.01-0.8,0.04-1.19,0.12
						c-0.06,0.01-0.32,0.04-0.25,0.11c0.07,0.08,0.5,0,0.59,0c0.34-0.02,0.68-0.04,1.02-0.04c0.85-0.01,1.69,0.08,2.51,0.31
						c1.3,0.37,2.23,1.25,3.33,1.97c1.19,0.78,2.53,1.46,3.95,1.66c0.78,0.11,1.55,0.05,2.27-0.25c0,0.35,0.04,0.58,0.12,0.59
						c0.08,0.01,0.18-0.2,0.28-0.54c0.6,0.49,1.33,0.76,2.11,0.87c1.42,0.2,2.9-0.08,4.26-0.51c1.26-0.39,2.4-0.97,3.75-0.97
						c0.85,0,1.69,0.14,2.5,0.4c0.33,0.1,0.64,0.21,0.97,0.32c0.09,0.03,0.48,0.22,0.57,0.17C58.09,33.49,57.85,33.39,57.79,33.36z"
						/>
				</g>
			</g>
			<path class="st0" d="M39.93,42.33l1.67,0.82c0,0,2.24-3.96,2.1-8.02h-0.6C42.8,37.1,42.01,39.88,39.93,42.33z"/>
		</g>
		<g>
			<g>
				<path class="st0" d="M20.63,52.91c-0.07-0.26-0.28-0.58-0.59-0.49c-0.3,0.09-0.59,0.45-0.77,0.68c0,0-1.12,2.12-5.02,0.83
					c0,0-1.15-0.49-1.91-0.4c0,0,0.29-0.86,0.3-1.98c0-0.35,0.08-0.7,0.18-1.03c0.25-0.84,0.76-1.52,1.46-2.04
					c0.25-0.18,0.51-0.34,0.78-0.48c0.4-0.22,0.92-0.36,1.18-0.76c0.18-0.28,0.24-0.57-0.04-0.78c-0.42-0.32-0.85-0.22-1.31-0.11
					c-0.65,0.15-1.3,0.3-1.95,0.45c-0.48,0.11-0.97,0.22-1.44,0.36c0,0-3.69,1.14-4.99-2.52c0,0-1.5-3.42-1.83-3.74
					c0.4-0.21,2.86-3.02,2.86-3.02c2.34-3.1,5.52-0.91,5.52-0.91c0.41,0.28,0.84,0.53,1.27,0.78c0.57,0.34,1.15,0.68,1.73,1.01
					c0.41,0.24,0.79,0.47,1.29,0.29c0.32-0.12,0.35-0.42,0.26-0.73c-0.13-0.46-0.58-0.75-0.9-1.08c-0.21-0.22-0.41-0.45-0.6-0.69
					c-0.52-0.7-0.8-1.51-0.79-2.38c0-0.34,0.04-0.71,0.14-1.04c0.32-1.07,0.3-1.98,0.3-1.98c0.7,0.32,1.94,0.19,1.94,0.19
					c4.11-0.06,4.55,2.29,4.55,2.29c0.1,0.28,0.27,0.71,0.53,0.88c0.27,0.18,0.56-0.06,0.71-0.29c0.3-0.47,0.46-0.94,0.97-1.26
					c0.3-0.19,0.69-0.2,1.01-0.04c0.43,0.21,0.82,0.84,0.8,1.31c-0.02,0.5-0.14,0.98-0.12,1.49c0.02,0.8,0.19,1.58,0.55,2.29
					c0.13,0.26,0.36,0.49,0.47,0.75c1.54,3.54-1.88,5.3-1.88,5.3s2.73,2.71,0.2,5.62c-0.18,0.21-0.47,0.37-0.67,0.57
					c-0.56,0.57-0.96,1.26-1.21,2.02c-0.16,0.48-0.2,0.97-0.33,1.46c-0.12,0.46-0.68,0.94-1.15,1.01c-0.36,0.06-0.72-0.07-0.95-0.34
					C20.79,53.94,20.78,53.45,20.63,52.91z"/>
				<g>
					<path class="st112" d="M23.18,43.74c0,0.02,0.01,0.05,0.06,0.07c-2.46-0.29-8.12-1.03-17.07-2.67l-0.19-0.03
						c0.03,0.01,0.06,0.01,0.09,0.01c-0.03-0.01-0.06-0.01-0.09-0.02l0.19,0.03c9.03,1.11,14.65,2.09,17.08,2.56
						C23.21,43.7,23.19,43.72,23.18,43.74z"/>
					<path class="st112" d="M21.98,53.24c-0.05-0.27-0.07-0.54-0.07-0.81c-0.01-0.65,0.05-1.31,0.24-1.94
						c0.19-0.61,0.55-1.09,0.92-1.6c0.21-0.28,0.43-0.56,0.61-0.85c0.48-0.8,0.91-1.63,1.02-2.56c0.05-0.39,0.02-0.8-0.11-1.17
						c-0.12,0.45-0.33,0.89-0.61,1.29c-0.54,0.78-1.26,1.49-2.14,2.13c-0.09,0.07-0.18,0.14-0.28,0.2c-0.41,0.3-0.83,0.62-1.29,0.84
						c-0.41,0.21-0.86,0.32-1.3,0.46c-0.41,0.13-0.81,0.3-1.21,0.48c-0.86,0.39-1.63,0.94-2.34,1.48c-0.07,0.05-0.14,0.11-0.21,0.16
						c-0.26,0.2-0.54,0.4-0.75,0.64c-0.02,0.02-0.06,0.03-0.08,0c-0.03-0.02-0.03-0.06-0.01-0.08c0.22-0.25,0.5-0.46,0.77-0.66
						c0.07-0.05,0.14-0.11,0.21-0.16c0.71-0.55,1.49-1.11,2.36-1.5c0.37-0.17,0.75-0.33,1.14-0.45c0.47-0.14,0.94-0.26,1.37-0.49
						c0.45-0.23,0.86-0.54,1.27-0.84c0.09-0.07,0.19-0.14,0.28-0.2c0.87-0.63,1.58-1.33,2.11-2.1c0.3-0.44,0.52-0.92,0.64-1.41
						c0,0-0.01,0-0.01-0.01c-0.13-0.01-0.27-0.02-0.42-0.05c-0.39-0.06-0.73-0.16-0.85-0.24c-0.04-0.03-0.06-0.05-0.06-0.07
						c0-0.02,0.03-0.04,0.07-0.05c0.15-0.04,0.49-0.03,0.89,0.03c0.15,0.02,0.29,0.05,0.42,0.08c0,0,0.01,0,0.01-0.01
						c0.04-0.5-0.03-1.03-0.18-1.54c-0.28-0.89-0.74-1.78-1.39-2.63c-0.07-0.09-0.14-0.18-0.2-0.27c-0.3-0.41-0.6-0.82-0.96-1.18
						c-0.35-0.35-0.76-0.6-1.16-0.87c-0.34-0.23-0.65-0.49-0.96-0.76c-0.71-0.63-1.29-1.4-1.8-2.14c-0.05-0.07-0.1-0.14-0.15-0.21
						c-0.2-0.27-0.4-0.55-0.54-0.86c-0.01-0.03,0-0.06,0.03-0.08c0.03-0.01,0.06,0,0.08,0.03c0.13,0.29,0.33,0.57,0.52,0.84
						c0.05,0.07,0.1,0.14,0.16,0.21c0.51,0.73,1.08,1.49,1.78,2.12c0.33,0.29,0.66,0.56,1.01,0.82c0.37,0.27,0.77,0.51,1.1,0.82
						c0.37,0.36,0.67,0.78,0.97,1.19c0.07,0.09,0.14,0.19,0.2,0.28c0.65,0.87,1.12,1.77,1.41,2.67c0.15,0.46,0.21,0.94,0.2,1.41
						c0.23-0.32,0.38-0.7,0.45-1.09c0.17-0.93,0.01-1.85-0.21-2.75c-0.08-0.34-0.21-0.67-0.32-0.99c-0.21-0.59-0.41-1.17-0.41-1.8
						c0-0.65,0.14-1.3,0.35-1.92c0.09-0.26,0.18-0.52,0.31-0.75c0.02-0.04,0.09-0.2,0.12-0.15c0.04,0.06-0.1,0.33-0.12,0.39
						c-0.08,0.22-0.16,0.44-0.23,0.66c-0.18,0.55-0.28,1.12-0.29,1.7c-0.01,0.92,0.38,1.7,0.63,2.56c0.28,0.93,0.46,1.94,0.31,2.91
						c-0.08,0.53-0.27,1.03-0.61,1.44c0.23,0.07,0.37,0.14,0.37,0.19c-0.01,0.06-0.17,0.08-0.41,0.07c0.2,0.49,0.24,1.02,0.16,1.55
						c-0.15,0.97-0.63,1.88-1.17,2.69c-0.5,0.75-1.11,1.38-1.37,2.26c-0.16,0.55-0.24,1.13-0.23,1.71c0,0.23,0.01,0.46,0.02,0.7
						c0,0.06,0.05,0.36,0,0.41C22,53.46,21.98,53.28,21.98,53.24z"/>
				</g>
			</g>
			<path class="st0" d="M31.36,43.32l0.2,1.25c0,0-3.03,0.68-5.66-0.2l0.12-0.4C27.36,44.17,29.35,44.19,31.36,43.32z"/>
		</g>
		<g>
			<g>
				<path class="st113" d="M28.31,51.35c1.44-1.05,1.96-2.35,1.96-2.35c0.14-0.54,0.32-1.03,0.53-1.47c0.47,0.1,0.91,0.27,1.31,0.45
					c-1.19,2.13,1.18,3.24,1.18,3.24c10.66,7.85,6.13,14.02,6.13,14.02c-1.12,2.11-4.41,3.64-8.29,3.64s-7.17-1.53-8.29-3.64l0,0
					C18.79,58.91,28.31,51.35,28.31,51.35z"/>
				<path class="st29" d="M33.48,44.22l1.18,1.31c-1.38,0.92-2.16,1.74-2.55,2.45c-0.39-0.18-0.83-0.35-1.31-0.45
					C31.84,45.27,33.48,44.22,33.48,44.22z"/>
			</g>
			<path class="st114" d="M24.44,57.2c-0.79,2.21-0.87,4.59,0.56,6.83h0c1.1,2.08,4.07,3.66,7.73,4.02
				c-0.46,0.05-0.93,0.08-1.42,0.08c-3.5,0-6.47-1.38-7.48-3.29h0C22.19,62.28,23.02,59.49,24.44,57.2z"/>
			<path class="st114" d="M33.47,52.34c0,0,7.56,4.61,5.89,11.63C39.36,63.97,38.97,56.26,33.47,52.34z"/>
		</g>
		<g>
			<path class="st113" d="M71,50.59c0,5.37-4.62,9.72-10.33,9.72s-10.33-4.35-10.33-9.72c0-5.36,4.62-9.71,10.33-9.71
				S71,45.22,71,50.59z"/>
			<path class="st114" d="M61.94,52.53c0,0-3.91-1.3-7.48-6.09C54.46,46.44,59.76,51.4,61.94,52.53z"/>
			<path class="st114" d="M53.59,51.92c0,0,2.79,2,8.35,0.61C61.94,52.53,57.5,53.14,53.59,51.92z"/>
			<path class="st114" d="M61.94,52.53c0,0-0.96,5.31-6.61,5.13C55.33,57.66,59.33,57.49,61.94,52.53z"/>
			<path class="st114" d="M61.94,52.53c0,0,1.91,3.13,0.78,6.74C62.72,59.27,63.16,55.14,61.94,52.53z"/>
			<path class="st114" d="M61.44,53.03c0,0,3.81-6.15-0.76-9.89C60.68,43.15,64.3,45.17,61.44,53.03z"/>
			<path class="st114" d="M61.65,52.42c0,0,5.42-1.45,6.9-5.28C68.55,47.13,66.06,50.66,61.65,52.42z"/>
			<path class="st114" d="M61.65,52.42c0,0,3.94,2.29,6.9,1.94C68.55,54.36,63.18,53.2,61.65,52.42z"/>
			<g>
				<path class="st115" d="M61.44,54.63h-1.16v-0.58l-0.52-0.34v-0.46l0.41-0.75c0,0,1.28-0.88,1.28-2.06c0,0,0.96,1.71,2.34,0.73
					c0,0-0.36,1.04,0.33,1.62c0,0-0.93,0.8-0.58,1.85l-1.25-0.58L61.44,54.63z"/>
				<path class="st114" d="M63,52.73c0.08,0.5-0.33,0.98-0.91,1.08c-0.59,0.1-1.13-0.23-1.21-0.72c-0.08-0.5,0.33-0.98,0.92-1.08
					C62.38,51.91,62.92,52.23,63,52.73z"/>
			</g>
		</g>
		<g>
			<path class="st113" d="M69.97,45.09c1.28,1.68,2.04,3.74,2.04,5.97c0,5.66-4.87,10.24-10.88,10.24c-0.09,0-0.18,0-0.27-0.01
				c1.89,1.92,4.59,3.13,7.59,3.13c5.7,0,10.32-4.35,10.32-9.72C78.77,49.82,74.95,45.79,69.97,45.09z"/>
			<path class="st114" d="M62.55,61.27c-0.48,0.07-0.96,0.11-1.46,0.11c-0.08,0-0.15,0-0.23-0.01c1.61,1.64,3.92,2.67,6.48,2.67
				c2.27,0,4.34-0.81,5.9-2.13c-1.42,0.78-3.08,1.23-4.84,1.23C66.21,63.14,64.18,62.45,62.55,61.27z"/>
		</g>
		<path class="st114" d="M41.06,45.31l1.32,2.11c0,0,4.48-3.64,8.89-2.11c0,0,0.04-0.39,0.63-0.83
			C51.9,44.48,45.31,43.51,41.06,45.31z"/>
	</g>
</g>
<g id="Слой_2">
</g>
<g id="Слой_4">
</g>
<g id="Слой_3">
</g>
</svg>
