<?xml version="1.0" encoding="utf-8"?>
<!-- Generator: Adobe Illustrator 23.1.0, SVG Export Plug-In . SVG Version: 6.00 Build 0)  -->
<svg version="1.1" xmlns="http://www.w3.org/2000/svg" xmlns:xlink="http://www.w3.org/1999/xlink" x="0px" y="0px"
	 viewBox="0 0 80 80" style="enable-background:new 0 0 80 80;" xml:space="preserve">
<style type="text/css">
	.st0{fill:#6F8653;}
	.st1{fill:#EBB044;}
	.st2{fill:#EEC27E;}
	.st3{fill:#DBA44B;}
	.st4{fill:#725846;}
	.st5{fill:#E8CA48;}
	.st6{fill:#F2DC7D;}
	.st7{fill:#CDB44D;}
	.st8{fill:#F8F8E1;}
	.st9{fill:#E4D049;}
	.st10{fill:#EDDC60;}
	.st11{fill:#E7E474;}
	.st12{fill:#809764;}
	.st13{fill:#46684B;}
	.st14{fill:#4D724F;}
	.st15{fill:#7D8E54;}
	.st16{fill:#4E7553;}
	.st17{fill:#456449;}
	.st18{fill:#415E46;}
	.st19{fill:#D6E06F;}
	.st20{fill:#A46246;}
	.st21{fill:#A97361;}
	.st22{fill:#6D8A56;}
	.st23{fill:#DB7B43;}
	.st24{fill:#EDB862;}
	.st25{fill:#DD8347;}
	.st26{fill:#E09A79;}
	.st27{fill:#D76B43;}
	.st28{fill:#C66849;}
	.st29{fill:#8E8079;}
	.st30{fill:#D98065;}
	.st31{fill:#C56647;}
	.st32{fill:#EFD9BA;}
	.st33{fill:#D45D45;}
	.st34{fill:#DD8075;}
	.st35{fill:#DAC6AD;}
	.st36{fill:#657F51;}
	.st37{fill:#556946;}
	.st38{fill:#7D9657;}
	.st39{fill:#7B706B;}
	.st40{fill:#93A47A;}
	.st41{fill:#6A7E4F;}
	.st42{fill:#E7E5D1;}
	.st43{fill:#CFD26A;}
	.st44{fill:#EDF0BC;}
	.st45{fill:#B6AA50;}
	.st46{fill:#A39C74;}
	.st47{fill:#D1C474;}
	.st48{fill:#93854C;}
	.st49{fill:#867B4A;}
	.st50{fill:#291D10;}
	.st51{fill:#AA9B50;}
	.st52{fill:#E5D263;}
	.st53{fill:#DC7F44;}
	.st54{fill:#E0956D;}
	.st55{fill:#EAAB44;}
	.st56{fill:#8CAC59;}
	.st57{fill:#657E4F;}
	.st58{fill:#97A779;}
	.st59{fill:#D14A4A;}
	.st60{fill:#97C35A;}
	.st61{fill:#89A559;}
	.st62{fill:#CB7A5E;}
	.st63{fill:#BE725E;}
	.st64{fill:#B16955;}
	.st65{fill:#D18D7D;}
	.st66{fill:#5D4837;}
	.st67{fill:#9C5B44;}
	.st68{fill:#D69747;}
	.st69{fill:#6A8E58;}
	.st70{fill:#80A071;}
	.st71{fill:#F1EB66;}
	.st72{fill:#EAC647;}
	.st73{fill:#F3EA8A;}
	.st74{fill:#CEA04A;}
	.st75{fill:#473321;}
	.st76{fill:#93AD7C;}
	.st77{fill:#EFD1A2;}
	.st78{fill:#91A87A;}
	.st79{fill:#6E8E42;}
	.st80{fill:#586889;}
	.st81{fill:#77859F;}
	.st82{fill:#83A25A;}
	.st83{fill:#B2C495;}
	.st84{fill:#947659;}
	.st85{fill:#4E6E4F;}
	.st86{fill:#524160;}
	.st87{fill:#3D3649;}
	.st88{fill:#6B5C7A;}
	.st89{fill:#2F3338;}
	.st90{fill:#212428;}
	.st91{fill:#282D32;}
	.st92{fill:#42484E;}
	.st93{fill:#252B2E;}
	.st94{fill:#6B3F3C;}
	.st95{fill:#645E57;}
	.st96{fill:#517E55;}
	.st97{fill:#2E4135;}
	.st98{fill:none;}
	.st99{fill:#6E8B70;}
	.st100{fill:#3D5545;}
	.st101{fill:#628A64;}
	.st102{fill:#F9F9E3;}
	.st103{fill:#D96F60;}
	.st104{fill:#C0645A;}
	.st105{fill:#543E2C;}
	.st106{fill:#7F4B49;}
	.st107{fill:#9E6345;}
	.st108{fill:#994D49;}
	.st109{fill:#A46A69;}
	.st110{fill:#8F5B42;}
	.st111{fill:#8E4948;}
	.st112{fill:#85986E;}
	.st113{fill:#6D7290;}
	.st114{fill:#626880;}
	.st115{fill:#9C9385;}
	.st116{fill:#F2D55A;}
	.st117{clip-path:url(#SVGID_2_);}
	.st118{fill:#E2AC54;}
	.st119{opacity:0.31;fill:#F9EFC5;}
	.st120{opacity:0.31;fill:#FFFBE9;}
	.st121{fill:#DDC862;}
	.st122{fill:#FFF3C2;}
	.st123{fill:#E8C046;stroke:#7A695F;stroke-width:0.15;stroke-miterlimit:10;}
	.st124{fill:#DBB248;}
	.st125{fill:#6F5753;}
	.st126{fill:#E8C046;stroke:#77655B;stroke-width:0.15;stroke-miterlimit:10;}
	.st127{fill:#83A15C;}
	.st128{fill:#698C3C;}
	.st129{fill:#809D5B;}
	.st130{fill:#4A6224;}
	.st131{fill:#85A55C;}
	.st132{fill:#506B26;}
	.st133{fill:#82A15B;}
	.st134{fill:#698958;}
	.st135{fill:#DD8344;}
	.st136{fill:#B56721;}
	.st137{fill:#C2463A;}
	.st138{fill:#CC6E64;}
	.st139{fill:#5EA817;}
	.st140{fill:#5F8F22;}
	.st141{fill:#C24F3C;}
	.st142{fill:#AB4A39;}
	.st143{fill:#BB413C;}
	.st144{fill:#EA7142;}
	.st145{fill:#ED835B;}
	.st146{fill:#E76D18;}
	.st147{fill:#56734E;}
	.st148{fill:#CBC797;}
	.st149{fill:#F1F0E1;}
	.st150{fill:#DBD9CA;}
	.st151{fill:#496042;}
	.st152{fill:#547534;}
	.st153{fill:#C0D591;}
	.st154{fill:#B3C483;}
	.st155{fill:#DFEAC1;}
	.st156{fill:#D5DDB8;}
	.st157{fill:#577F36;}
	.st158{fill:#4D6D2F;}
	.st159{fill:#4F6B32;}
	.st160{fill:#AAC654;}
	.st161{fill:#A0B252;}
	.st162{fill:#9B3743;}
	.st163{fill:#A34D5B;}
	.st164{fill:#75434B;}
	.st165{fill:#80333D;}
	.st166{fill:#722F3A;}
	.st167{fill:#8E424F;}
	.st168{fill:#A5273F;}
	.st169{fill:#9B2944;}
	.st170{fill:#93B250;}
	.st171{fill:#778950;}
	.st172{fill:#B1B297;}
	.st173{fill:#5D6B3E;}
	.st174{fill:#769328;}
	.st175{fill:#B9BC9D;}
	.st176{fill:#B4CE6E;}
	.st177{fill:#CCCEAF;}
	.st178{fill:#AEAF94;}
	.st179{fill:#E8C046;stroke:#7F6D62;stroke-width:0.15;stroke-miterlimit:10;}
	.st180{fill:#B7C661;}
	.st181{fill:#CED893;stroke:#ACB25F;stroke-width:0.5;stroke-miterlimit:10;}
	.st182{fill:#D79F4A;}
	.st183{clip-path:url(#SVGID_4_);}
	.st184{fill:#CDD98D;}
	.st185{fill:#FADA37;}
	.st186{fill:#CCB244;}
	.st187{fill:#FAE089;}
	.st188{fill:#FFED90;}
	.st189{fill:#ECDB6F;}
	.st190{fill:#FECF73;}
	.st191{fill:#CEA865;}
	.st192{fill:#EDDFCA;}
	.st193{fill:#EBDECA;}
	.st194{fill:#638408;}
	.st195{fill:#CE9F41;}
	.st196{fill:#F7BA23;}
	.st197{fill:#EAAE2A;}
	.st198{fill:#F2CE36;}
	.st199{fill:#F9D53D;}
	.st200{fill:#FCDA4F;}
	.st201{fill:#F7E289;}
	.st202{fill:#668F05;}
	.st203{fill:#597214;}
	.st204{fill:#8BA040;}
	.st205{fill:#7AA122;}
	.st206{fill:#95BB28;}
	.st207{fill:#E7F2A6;}
	.st208{fill:#C4CC75;}
	.st209{fill:#87A82C;}
	.st210{fill:#9FBF45;}
	.st211{fill:#728E25;}
	.st212{fill:#7D4E30;}
	.st213{fill:#3F5A2F;}
	.st214{fill:#4B7837;}
	.st215{fill:#85A93F;}
	.st216{fill:#693F26;}
	.st217{fill:#8C7668;}
	.st218{fill:#EDE9E6;}
	.st219{fill:#FFFDFC;}
	.st220{fill:#846F5C;}
	.st221{clip-path:url(#SVGID_6_);}
	.st222{fill:#B2A594;}
	.st223{fill:#E4DDD5;}
	.st224{fill:#A16D46;}
	.st225{fill:#9A8E42;}
	.st226{fill:#BBB061;}
	.st227{fill:#A08F41;}
	.st228{fill:#C1AD56;}
	.st229{opacity:0.7;}
	.st230{fill:#DACA7F;}
	.st231{fill:#EEE49F;}
	.st232{opacity:0.5;}
	.st233{fill:#FFF9D7;}
	.st234{fill:#7C7F32;}
	.st235{fill:#95A84C;}
	.st236{fill:#D8B45C;}
	.st237{fill:#FCC572;}
	.st238{fill:#FED49A;}
	.st239{fill:#C0782C;}
	.st240{fill:#D49430;}
	.st241{fill:#F5D19D;}
	.st242{opacity:0.35;}
	.st243{fill:#F9AFC9;}
	.st244{fill:#F9CDDE;}
	.st245{fill:#FFF3F8;}
	.st246{fill:#F4A2C3;}
	.st247{fill:#FFFFFF;}
	.st248{fill:#D7F2F9;}
	.st249{fill:#492743;}
	.st250{fill:#20131D;}
	.st251{fill:#685364;}
	.st252{fill:#748115;}
	.st253{fill:#A7B86A;}
</style>
<g id="Слой_1">
</g>
<g id="Слой_2">
</g>
<g id="Слой_4">
</g>
<g id="Слой_3">
	<circle class="st137" cx="31.47" cy="36.21" r="21.64"/>
	
		<ellipse transform="matrix(0.6385 -0.7696 0.7696 0.6385 -5.2375 40.6687)" class="st138" cx="40.68" cy="25.91" rx="4.26" ry="6.92"/>
	<path class="st139" d="M19.86,30.07c1.59,0.28,2.16-2.38,5.51-4.24c3.41-1.89,7.77-1.06,7.77-1.06s-0.26,0.52-1.7,1.48
		c-5.23,3.51-7.8,4.25-8.26,6.29c-0.16,0.72,0.01,1.26,0.35,2.33c1.78,5.54,6.99,8.69,6.99,8.69s-3.19-0.07-5.79-1.41
		c-2.72-1.4-3.42-2.76-4.87-2.54c-1.3,0.19-1.79,1.44-3.25,3.46c-2.97,4.11-6.78,6.43-6.78,6.43s1.42-2.1,3.53-5.79
		c2.03-3.55,3.03-5.35,2.4-6.29c-0.47-0.71-1.52-0.63-8.26-0.35c-2.83,0.11-4.24,0-4.24,0s3.14-1.06,9.82-2.9
		c2.48-0.68,3.73-1.04,4.03-1.98c0.44-1.37-1.49-2.36-2.83-5.3c-1.57-3.47-0.64-7.42-0.64-7.42s0.5,0.33,2.68,4.8
		C18.64,29,18.98,29.92,19.86,30.07z"/>
	<path class="st140" d="M14.28,30.14c0.62,0.02,0.55,0.86,1.62,1.62c0.53,0.38,1.73,1.01,3.11,0.92c0.52-0.03,0.85-0.16,1.13,0.07
		c0.38,0.31,0.38,1.05,0.14,1.55c-0.3,0.64-1.04,1.03-1.7,0.99c-0.82-0.05-0.8-0.73-2.05-1.41c-0.79-0.43-1.11-0.33-2.68-1.06
		c-0.71-0.33-0.9-0.47-0.99-0.71C12.59,31.38,13.51,30.11,14.28,30.14z"/>
	<g>
		<path class="st141" d="M41.56,36.73l35.56,11.92c0,0,0.72,5.02-1.13,9.21S70,65.44,65.16,66.78c-4.84,1.34-13.81,0.52-17.31-0.62
			c-3.5-1.13-13.29-8.76-12.47-15.67C36.2,43.59,41.56,36.73,41.56,36.73z"/>
		<path class="st142" d="M73.42,55.55c-1.86,4.19-6.41,6.28-11.26,7.62c-4.84,1.34-13.81,0.52-17.31-0.62
			c-1.66-0.54-4.72-2.54-7.4-5.22c2.91,4.4,8.05,8.07,10.39,8.82c3.5,1.13,12.47,1.96,17.31,0.62c4.84-1.34,8.97-4.74,10.82-8.93
			c1.76-3.97,1.2-8.67,1.14-9.16C76.66,49.38,75.01,51.97,73.42,55.55z"/>
		<path class="st143" d="M43.46,39.01c-0.59,0.17-0.52,1.1-1.96,2.16c-1.12,0.83-1.92,0.82-2.16,1.55c-0.26,0.77,0.5,1.12,0.41,2.06
			c-0.14,1.47-2.1,1.65-2.27,2.99c-0.15,1.21,1.27,2.34,1.96,2.89c1.48,1.18,2.09,0.74,3.3,1.65c1.97,1.5,1.07,3.25,2.89,4.64
			c1.03,0.79,2.3,0.87,4.84,1.03c2.67,0.17,2.76-0.3,4.53,0c2.85,0.48,3.09,1.77,4.84,1.55c1.67-0.22,1.62-1.41,4.33-2.47
			c1.81-0.71,2.15-0.31,3.19-1.03c1.63-1.13,1.06-2.3,2.58-3.5c1.6-1.27,2.88-0.48,4.23-1.96c0.61-0.67,1.15-1.72,0.82-2.16
			c-0.38-0.51-1.81-0.04-2.27,0.1c-2.5,0.78-14.88,4.67-20.82,1.75C46.43,47.54,45.32,38.48,43.46,39.01z"/>
		<path class="st144" d="M40.19,38.89c0.54,0.1,1.93,0.42,3.12,1.55c0.46,0.44,1.5,1.42,1.56,2.78c0.05,1.28-0.79,2.03-0.33,2.58
			c0.38,0.45,1.07,0.06,1.56,0.52c0.72,0.68-0.37,1.92,0.33,2.89c0.54,0.74,1.48,0.41,2,1.24c0.45,0.71-0.08,1.22,0.33,1.65
			c0.65,0.68,2.09-0.4,3.67,0.31c0.87,0.39,0.69,0.83,1.45,1.03c1.27,0.34,1.93-0.84,3.45-0.62c1.01,0.15,1.17,0.74,1.89,0.62
			c0.97-0.16,0.92-1.26,1.89-1.55c1.11-0.32,1.72,0.97,3.23,0.82c1.21-0.12,1.41-1.01,2.45-0.93c1.09,0.09,1.34,1.12,2.11,1.03
			c0.94-0.11,0.83-1.66,2-2.16c1.27-0.54,2.38,0.86,3.9,0.52c0.68-0.16,1.62-0.7,2.45-2.68L41.64,36.73L40.19,38.89z"/>
		<path class="st145" d="M70.64,46.27l-23.9-7.87c0,0-0.39,1.55,0.66,3.39c1.05,1.84,2.59,1.41,3.73,1.81
			c1.14,0.4,1.36,1.32,2.92,2.85c1.56,1.53,1.26,1.74,4.25,1.7c2.99-0.03,2.99,0.44,6.29,0.58c3.3,0.14,4.84-0.6,5.04-0.92
			S70.64,46.27,70.64,46.27z"/>
		<path class="st146" d="M41.85,47.62c-0.69,0.28-1.46-0.03-1.72-0.68s0.08-1.41,0.77-1.69s2.79,0.25,2.79,0.25
			S42.53,47.35,41.85,47.62z"/>
		<path class="st146" d="M43.95,51.57c-0.68,0.37-1.53,0.15-1.88-0.5c-0.36-0.65-0.09-1.48,0.59-1.86c0.68-0.37,2.94-0.08,2.94-0.08
			S44.63,51.2,43.95,51.57z"/>
		<path class="st146" d="M47.94,55.59c-0.51,0.66-1.43,0.8-2.05,0.31c-0.63-0.48-0.72-1.41-0.21-2.07c0.51-0.66,2.84-1.33,2.84-1.33
			S48.45,54.93,47.94,55.59z"/>
		<path class="st146" d="M53.41,56.4c-0.15,0.82-0.9,1.36-1.68,1.22c-0.78-0.14-1.29-0.92-1.14-1.74c0.15-0.82,1.92-2.49,1.92-2.49
			S53.56,55.58,53.41,56.4z"/>
		<path class="st146" d="M58.47,56.3c-0.06,0.83-0.74,1.46-1.53,1.41c-0.79-0.05-1.38-0.77-1.33-1.6c0.06-0.83,1.62-2.69,1.62-2.69
			S58.52,55.47,58.47,56.3z"/>
		<path class="st146" d="M63.29,55.42c0.25,0.79-0.15,1.63-0.9,1.87c-0.75,0.24-1.57-0.2-1.83-0.99c-0.25-0.79,0.51-3.1,0.51-3.1
			S63.03,54.63,63.29,55.42z"/>
		<path class="st146" d="M66.91,54.11c0.15,0.47-0.09,0.98-0.54,1.12s-0.94-0.12-1.1-0.6c-0.15-0.47,0.3-1.86,0.3-1.86
			S66.75,53.64,66.91,54.11z"/>
	</g>
</g>
</svg>
