<?xml version="1.0" encoding="utf-8"?>
<!-- Generator: Adobe Illustrator 23.1.0, SVG Export Plug-In . SVG Version: 6.00 Build 0)  -->
<svg version="1.1" xmlns="http://www.w3.org/2000/svg" xmlns:xlink="http://www.w3.org/1999/xlink" x="0px" y="0px"
	 viewBox="0 0 80 80" style="enable-background:new 0 0 80 80;" xml:space="preserve">
<style type="text/css">
	.st0{fill:#6F8653;}
	.st1{fill:#EBB044;}
	.st2{fill:#EEC27E;}
	.st3{fill:#DBA44B;}
	.st4{fill:#725846;}
	.st5{fill:#E8CA48;}
	.st6{fill:#F2DC7D;}
	.st7{fill:#CDB44D;}
	.st8{fill:#F8F8E1;}
	.st9{fill:#E4D049;}
	.st10{fill:#EDDC60;}
	.st11{fill:#E7E474;}
	.st12{fill:#809764;}
	.st13{fill:#46684B;}
	.st14{fill:#4D724F;}
	.st15{fill:#7D8E54;}
	.st16{fill:#4E7553;}
	.st17{fill:#456449;}
	.st18{fill:#415E46;}
	.st19{fill:#D6E06F;}
	.st20{fill:#A46246;}
	.st21{fill:#A97361;}
	.st22{fill:#6D8A56;}
	.st23{fill:#DB7B43;}
	.st24{fill:#EDB862;}
	.st25{fill:#DD8347;}
	.st26{fill:#E09A79;}
	.st27{fill:#D76B43;}
	.st28{fill:#C66849;}
	.st29{fill:#8E8079;}
	.st30{fill:#D98065;}
	.st31{fill:#C56647;}
	.st32{fill:#EFD9BA;}
	.st33{fill:#D45D45;}
	.st34{fill:#DD8075;}
	.st35{fill:#DAC6AD;}
	.st36{fill:#657F51;}
	.st37{fill:#556946;}
	.st38{fill:#7D9657;}
	.st39{fill:#7B706B;}
	.st40{fill:#93A47A;}
	.st41{fill:#6A7E4F;}
	.st42{fill:#E7E5D1;}
	.st43{fill:#CFD26A;}
	.st44{fill:#EDF0BC;}
	.st45{fill:#B6AA50;}
	.st46{fill:#A39C74;}
	.st47{fill:#D1C474;}
	.st48{fill:#93854C;}
	.st49{fill:#867B4A;}
	.st50{fill:#291D10;}
	.st51{fill:#AA9B50;}
	.st52{fill:#E5D263;}
	.st53{fill:#DC7F44;}
	.st54{fill:#E0956D;}
	.st55{fill:#EAAB44;}
	.st56{fill:#8CAC59;}
	.st57{fill:#657E4F;}
	.st58{fill:#97A779;}
	.st59{fill:#D14A4A;}
	.st60{fill:#97C35A;}
	.st61{fill:#89A559;}
	.st62{fill:#CB7A5E;}
	.st63{fill:#BE725E;}
	.st64{fill:#B16955;}
	.st65{fill:#D18D7D;}
	.st66{fill:#5D4837;}
	.st67{fill:#9C5B44;}
	.st68{fill:#D69747;}
	.st69{fill:#6A8E58;}
	.st70{fill:#80A071;}
	.st71{fill:#F1EB66;}
	.st72{fill:#EAC647;}
	.st73{fill:#F3EA8A;}
	.st74{fill:#CEA04A;}
	.st75{fill:#473321;}
	.st76{fill:#93AD7C;}
	.st77{fill:#EFD1A2;}
	.st78{fill:#91A87A;}
	.st79{fill:#6E8E42;}
	.st80{fill:#586889;}
	.st81{fill:#77859F;}
	.st82{fill:#83A25A;}
	.st83{fill:#B2C495;}
	.st84{fill:#947659;}
	.st85{fill:#4E6E4F;}
	.st86{fill:#524160;}
	.st87{fill:#3D3649;}
	.st88{fill:#6B5C7A;}
	.st89{fill:#2F3338;}
	.st90{fill:#212428;}
	.st91{fill:#282D32;}
	.st92{fill:#42484E;}
	.st93{fill:#252B2E;}
	.st94{fill:#6B3F3C;}
	.st95{fill:#645E57;}
	.st96{fill:#517E55;}
	.st97{fill:#2E4135;}
	.st98{fill:none;}
	.st99{fill:#6E8B70;}
	.st100{fill:#3D5545;}
	.st101{fill:#628A64;}
	.st102{fill:#F9F9E3;}
	.st103{fill:#D96F60;}
	.st104{fill:#C0645A;}
	.st105{fill:#543E2C;}
	.st106{fill:#7F4B49;}
	.st107{fill:#9E6345;}
	.st108{fill:#994D49;}
	.st109{fill:#A46A69;}
	.st110{fill:#8F5B42;}
	.st111{fill:#8E4948;}
	.st112{fill:#85986E;}
	.st113{fill:#6D7290;}
	.st114{fill:#626880;}
	.st115{fill:#9C9385;}
	.st116{fill:#F2D55A;}
	.st117{clip-path:url(#SVGID_2_);}
	.st118{fill:#E2AC54;}
	.st119{opacity:0.31;fill:#F9EFC5;}
	.st120{opacity:0.31;fill:#FFFBE9;}
	.st121{fill:#DDC862;}
	.st122{fill:#FFF3C2;}
	.st123{fill:#E8C046;stroke:#7A695F;stroke-width:0.15;stroke-miterlimit:10;}
	.st124{fill:#DBB248;}
	.st125{fill:#6F5753;}
	.st126{fill:#E8C046;stroke:#77655B;stroke-width:0.15;stroke-miterlimit:10;}
	.st127{fill:#83A15C;}
	.st128{fill:#698C3C;}
	.st129{fill:#809D5B;}
	.st130{fill:#4A6224;}
	.st131{fill:#85A55C;}
	.st132{fill:#506B26;}
	.st133{fill:#82A15B;}
	.st134{fill:#698958;}
	.st135{fill:#DD8344;}
	.st136{fill:#B56721;}
	.st137{fill:#C2463A;}
	.st138{fill:#CC6E64;}
	.st139{fill:#5EA817;}
	.st140{fill:#5F8F22;}
	.st141{fill:#C24F3C;}
	.st142{fill:#AB4A39;}
	.st143{fill:#BB413C;}
	.st144{fill:#EA7142;}
	.st145{fill:#ED835B;}
	.st146{fill:#E76D18;}
	.st147{fill:#56734E;}
	.st148{fill:#CBC797;}
	.st149{fill:#F1F0E1;}
	.st150{fill:#DBD9CA;}
	.st151{fill:#496042;}
	.st152{fill:#547534;}
	.st153{fill:#C0D591;}
	.st154{fill:#B3C483;}
	.st155{fill:#DFEAC1;}
	.st156{fill:#D5DDB8;}
	.st157{fill:#577F36;}
	.st158{fill:#4D6D2F;}
	.st159{fill:#4F6B32;}
	.st160{fill:#AAC654;}
	.st161{fill:#A0B252;}
	.st162{fill:#9B3743;}
	.st163{fill:#A34D5B;}
	.st164{fill:#75434B;}
	.st165{fill:#80333D;}
	.st166{fill:#722F3A;}
	.st167{fill:#8E424F;}
	.st168{fill:#A5273F;}
	.st169{fill:#9B2944;}
	.st170{fill:#93B250;}
	.st171{fill:#778950;}
	.st172{fill:#B1B297;}
	.st173{fill:#5D6B3E;}
	.st174{fill:#769328;}
	.st175{fill:#B9BC9D;}
	.st176{fill:#B4CE6E;}
	.st177{fill:#CCCEAF;}
	.st178{fill:#AEAF94;}
	.st179{fill:#E8C046;stroke:#7F6D62;stroke-width:0.15;stroke-miterlimit:10;}
	.st180{fill:#B7C661;}
	.st181{fill:#CED893;stroke:#ACB25F;stroke-width:0.5;stroke-miterlimit:10;}
	.st182{fill:#D79F4A;}
	.st183{clip-path:url(#SVGID_4_);}
	.st184{fill:#CDD98D;}
	.st185{fill:#FADA37;}
	.st186{fill:#CCB244;}
	.st187{fill:#FAE089;}
	.st188{fill:#FFED90;}
	.st189{fill:#ECDB6F;}
	.st190{fill:#FECF73;}
	.st191{fill:#CEA865;}
	.st192{fill:#EDDFCA;}
	.st193{fill:#EBDECA;}
	.st194{fill:#638408;}
	.st195{fill:#CE9F41;}
	.st196{fill:#F7BA23;}
	.st197{fill:#EAAE2A;}
	.st198{fill:#F2CE36;}
	.st199{fill:#F9D53D;}
	.st200{fill:#FCDA4F;}
	.st201{fill:#F7E289;}
	.st202{fill:#668F05;}
	.st203{fill:#597214;}
	.st204{fill:#8BA040;}
	.st205{fill:#7AA122;}
	.st206{fill:#95BB28;}
	.st207{fill:#E7F2A6;}
	.st208{fill:#C4CC75;}
	.st209{fill:#87A82C;}
	.st210{fill:#9FBF45;}
	.st211{fill:#728E25;}
	.st212{fill:#7D4E30;}
	.st213{fill:#3F5A2F;}
	.st214{fill:#4B7837;}
	.st215{fill:#85A93F;}
	.st216{fill:#693F26;}
	.st217{fill:#8C7668;}
	.st218{fill:#EDE9E6;}
	.st219{fill:#FFFDFC;}
	.st220{fill:#846F5C;}
	.st221{clip-path:url(#SVGID_6_);}
	.st222{fill:#B2A594;}
	.st223{fill:#E4DDD5;}
	.st224{fill:#A16D46;}
	.st225{fill:#9A8E42;}
	.st226{fill:#BBB061;}
	.st227{fill:#A08F41;}
	.st228{fill:#C1AD56;}
	.st229{opacity:0.7;}
	.st230{fill:#DACA7F;}
	.st231{fill:#EEE49F;}
	.st232{opacity:0.5;}
	.st233{fill:#FFF9D7;}
	.st234{fill:#7C7F32;}
	.st235{fill:#95A84C;}
	.st236{fill:#D8B45C;}
	.st237{fill:#FCC572;}
	.st238{fill:#FED49A;}
	.st239{fill:#C0782C;}
	.st240{fill:#D49430;}
	.st241{fill:#F5D19D;}
	.st242{opacity:0.35;}
	.st243{fill:#F9AFC9;}
	.st244{fill:#F9CDDE;}
	.st245{fill:#FFF3F8;}
	.st246{fill:#F4A2C3;}
	.st247{fill:#FFFFFF;}
	.st248{fill:#D7F2F9;}
	.st249{fill:#492743;}
	.st250{fill:#20131D;}
	.st251{fill:#685364;}
	.st252{fill:#748115;}
	.st253{fill:#A7B86A;}
</style>
<g id="Слой_1">
</g>
<g id="Слой_2">
</g>
<g id="Слой_4">
</g>
<g id="Слой_3">
	<g>
		<g>
			<g>
				<g>
					<path class="st170" d="M75.57,41.31c0,0,4.53-11.71-0.17-16.04c0,0-2.67-2.97-6.03-1.78c0,0-4.82-0.69-8.44,3.32l-11.42,10.6
						L75.57,41.31z"/>
					<path class="st171" d="M49.36,37.46l11.52-10.69c1.24-1.38,2.75-2.35,4.5-2.9c2.08-0.65,3.8-0.47,3.98-0.44
						c1.78-0.62,3.37-0.08,4.37,0.48c1.05,0.59,1.71,1.31,1.71,1.31c1.08,1,1.77,2.47,2.03,4.37c0.21,1.52,0.15,3.31-0.16,5.33
						c-0.54,3.43-1.67,6.38-1.68,6.41l-0.02,0.05L49.36,37.46z M69.39,23.55l-0.02,0.01l-0.02,0c-0.02,0-1.78-0.24-3.94,0.44
						c-1.72,0.54-3.22,1.51-4.45,2.87L49.65,37.37l25.88,3.87c0.15-0.39,1.16-3.15,1.66-6.34c0.49-3.15,0.58-7.37-1.83-9.59
						c-0.03-0.03-2.59-2.82-5.79-1.82C69.5,23.51,69.45,23.53,69.39,23.55z"/>
				</g>
				<path class="st172" d="M57.69,33.53L57.69,33.53c0.09-5.03,13.96-7.68,13.96-7.68c-11.98,3.08-12.95,6.84-13.03,7.34
					c2.19-0.73,4.49-0.92,6.62-0.83c1-2.43,7.54-2.92,7.54-2.92c-6.56,1.59-6.81,2.95-6.81,2.96c4.35,0.3,7.8,1.67,7.8,1.67
					c-15.63-3.63-19.2,2.23-19.2,2.23l-0.6-0.41C55.11,34.84,56.37,34.07,57.69,33.53z"/>
			</g>
			<g>
				<path class="st173" d="M64.45,14.78c0,0,3.42-13.18-7.72-4.3C56.74,10.49,56.64,17.82,64.45,14.78z"/>
				<path class="st171" d="M58.55,14.81c-1.89-1.41-1.87-4.3-1.87-4.33v-0.03l0.02-0.02c1.9-1.52,3.5-2.49,4.76-2.88
					c1.15-0.36,2.03-0.25,2.63,0.32c1.76,1.67,0.48,6.72,0.42,6.93l-0.01,0.03l-0.03,0.01c-0.29,0.11-0.58,0.22-0.86,0.3
					C61.46,15.82,59.75,15.71,58.55,14.81z M64,7.96c-0.56-0.54-1.41-0.63-2.51-0.29c-1.24,0.39-2.82,1.34-4.7,2.84
					c0,0.31,0.09,2.9,1.82,4.2c1.17,0.87,2.84,0.98,4.95,0.31c0.27-0.08,0.54-0.18,0.83-0.29C64.51,14.3,65.64,9.52,64,7.96z"/>
			</g>
			<g>
				<g>
					<path class="st174" d="M63.18,25.31c0,0,7.14-9.59,3.07-10.85c0,0-2.78-1.75-4.92-0.99c0,0-8.84-0.09-13.55,2.99
						c0,0-3.6,1.93-6.33,2.79c0,0-12.32,5.41-12.23,9.32c0,0-0.66,2.79-1.86,3.64c0,0-4.23-1.57-4.41,9.32L63.18,25.31z"/>
				</g>
				<path class="st175" d="M36.39,23.02c0,0,0.35,4.41-3.25,9.84C33.14,32.86,36.9,25.06,36.39,23.02z"/>
				<path class="st175" d="M30.74,27.33c0,0,0.35,4.41-3.25,9.84C27.48,37.17,31.25,29.38,30.74,27.33z"/>
			</g>
			<path class="st175" d="M64.58,16.16c0,0-4.06,6.21-12.38,7.76l-0.13-0.41C52.07,23.51,58.58,22.58,64.58,16.16z"/>
			<g>
				<g>
					<path class="st170" d="M38.47,47.91c0,0,9.7-3.55,13.81-7.25c0,0,4.9-2.87,5.36-4.82c0,0,5.83-4.17,6.46-7.91
						c0,0,0.13-6.25-5.89-3.69c0,0-3.13,1.78-3.62,3.61c0,0,0.32-5.78,2.66-8.32c0,0,2.35-3.34,1.18-8.25c0,0,0.13-4.38-1.95-2.06
						c0,0-6.14,8.07-10.78,11.6c0,0-9.47,7.05-10.89,11.03c0,0-12.64,14.39-14.66,19.63c0,0-4.23,5.67,2.17,3.72L38.47,47.91z"/>
					<path class="st171" d="M22.36,55.31c-1.87,0.57-3.04,0.54-3.47-0.08c-0.76-1.09,1.04-3.57,1.19-3.78
						c1.99-5.14,14.21-19.12,14.66-19.64c0.6-1.67,2.62-4.03,6-7.03c2.52-2.24,4.89-4.01,4.92-4.03c4.57-3.48,10.7-11.5,10.76-11.58
						l0-0.01c0.33-0.37,0.62-0.59,0.88-0.67c0.22-0.07,0.42-0.04,0.59,0.09c0.68,0.51,0.65,2.5,0.64,2.7c0.61,2.55,0.25,4.67-0.15,6
						c-0.44,1.45-1.02,2.28-1.04,2.31l-0.01,0.01c-1.84,2-2.42,6.09-2.58,7.64c0.88-1.61,3.31-3.02,3.43-3.08l0.01-0.01
						c0.3-0.13,0.6-0.24,0.88-0.33c1.51-0.47,2.72-0.38,3.6,0.29c1.58,1.18,1.54,3.72,1.54,3.82l0,0.01
						c-0.26,1.57-1.44,3.39-3.49,5.41c-1.41,1.38-2.77,2.39-2.98,2.54c-0.5,1.94-5.09,4.67-5.39,4.84
						c-4.06,3.64-13.61,7.18-13.83,7.26l-16.13,7.3L22.36,55.31L22.36,55.31z M62.55,24.27c-0.83-0.62-1.98-0.71-3.43-0.26
						c-0.27,0.09-0.56,0.19-0.86,0.32c-0.14,0.08-3.1,1.81-3.57,3.55l-0.24,0.88l0.05-0.91c0.01-0.24,0.35-5.83,2.68-8.37
						c0.1-0.14,2.29-3.45,1.16-8.17l0-0.01l0-0.01c0-0.02,0.05-2.08-0.56-2.55c-0.12-0.09-0.26-0.11-0.42-0.06
						c-0.23,0.07-0.49,0.28-0.8,0.62c-0.15,0.19-6.23,8.15-10.79,11.62c-0.09,0.07-9.46,7.08-10.85,10.99l-0.01,0.02l-0.01,0.01
						c-0.13,0.15-12.65,14.44-14.65,19.6l0,0.01l-0.01,0.01c-0.02,0.03-1.9,2.57-1.2,3.57c0.38,0.54,1.48,0.55,3.26,0.01l16.13-7.3
						l0.01,0c0.1-0.03,9.73-3.59,13.78-7.23l0.01-0.01c0.05-0.03,4.87-2.87,5.32-4.76l0.01-0.03l0.03-0.02
						c0.06-0.04,5.8-4.19,6.42-7.84C64.01,27.78,64.01,25.36,62.55,24.27z"/>
				</g>
				<path class="st175" d="M51.36,17.62c-0.26,0.32-0.52,0.65-0.8,0.96c-0.7,0.81-1.42,1.6-2.15,2.38c-1.03,1.1-2.07,2.17-3.15,3.22
					c-1.16,1.12-2.37,2.21-3.66,3.18c-1.26,0.96-2.69,1.66-4.01,2.53c-1.29,0.86-2.36,1.96-3.45,3.05
					c-1.05,1.05-2.07,2.16-2.94,3.38c-0.23,0.32-0.44,0.64-0.64,0.98c-0.05,0.09-0.43,0.93-0.47,0.93l1.17,0.03
					c0.14-0.23,0.29-0.46,0.44-0.69c0.39-0.61,0.78-1.21,1.21-1.79c0.57-0.78,1.19-1.52,1.83-2.24c0.68-0.78,1.38-1.55,2.17-2.22
					c1.28-1.08,2.92-1.7,4.26-2.72c0.41-0.31,0.81-0.64,1.22-0.95c0.85-0.65,1.67-1.34,2.48-2.04c0.9-0.78,1.78-1.59,2.62-2.45
					c0.82-0.84,1.6-1.71,2.3-2.65c0.59-0.8,1.13-1.66,1.47-2.6C51.28,17.83,51.3,17.68,51.36,17.62z"/>
				<path class="st175" d="M48.75,29.1c0,0-10.78,10.53-21.16,15.53l-0.23-0.73C27.36,43.9,41.97,35.77,48.75,29.1z"/>
				<path class="st175" d="M43.18,28.99c0,0-7.63,10.47-14.88,12.75l0.14-0.98C28.45,40.75,35.8,37.79,43.18,28.99z"/>
				<path class="st175" d="M46.01,34.4c0,0-12.24,11.63-20.55,13.44l0.84-0.93C26.31,46.9,35.73,43.54,46.01,34.4z"/>
			</g>
			<g>
				<g>
					<path class="st176" d="M23.02,60.23c0,0,4.28-0.81,8.54-4.69c0.86-0.21,1.73-0.54,2.52-0.94c1.45-0.73,2.43-2,3.85-2.69
						c1.64-0.79,3.32-1.52,5.05-2.1c1.31-0.43,2.94-1,4.33-0.68c0,0,3.88-0.82,4.91,0.33c0,0,0.58,2.69,5,0.63
						c0,0,3.36-0.99,6.29-0.17c0,0,13.55,1.48,14.83-4.66c-0.14-0.97-0.44-1.93-0.84-2.82c-0.79-1.74-1.82-2.3-3.39-3.23
						c-0.95-0.56-1.47-1.57-2.11-2.41c-0.46-0.6-1.07-0.96-1.74-1.31c-1.91-0.99-4.21-1.06-6.21-0.24c0,0-6.61,0.01-17.75,7.05
						C46.3,42.3,23.63,55.77,23.02,60.23z"/>
				</g>
				<g>
					<path class="st177" d="M70.21,39.99c0.1,0.02,0.16,0.03,0.16,0.03C70.33,40.01,70.28,40,70.21,39.99z"/>
					<path class="st177" d="M72.45,48.08c-3.87-2-6.15-4.83-6.76-5.67c-3.17-0.26-6.07-0.25-8.65-0.09
						c1.08,1.22,5.57,2.89,5.57,2.89c-3.55-0.74-5.24-2.23-5.83-2.88c-5.02,0.33-8.78,1.23-10.89,1.86
						c-0.11,0.08-0.17,0.12-0.17,0.12l-0.8,0.19c-0.62,0.2-0.94,0.34-0.94,0.34l1.33-0.75c0.07-0.03,0.14-0.05,0.21-0.08
						c11.08-7.81,25.15-7.4,25.15-7.4c-0.99,0.03-1.97,0.08-2.92,0.17l5.78,2.68c0,0-4.13-1.65-6.06-2.66
						c-2.06,0.19-4.01,0.51-5.84,0.92c1.33,0.37,7.21,2,8.57,2.28c-1.06-0.2-7.17-1.37-9.02-2.17c-1.58,0.36-3.06,0.78-4.43,1.23
						c1.83,0.63,8.54,1.38,8.54,1.38c-4.41-0.2-7.62-1.03-8.68-1.33c-4.62,1.53-8,3.39-9.68,4.43c13.94-4.49,27.94,0.09,27.94,0.09
						l0.39,0.32c-3.31-0.78-6.44-1.25-9.34-1.5c0.67,1.67,6.48,5.52,6.48,5.52L72.45,48.08z"/>
					<path class="st177" d="M41.26,47.09l-0.12-0.39c0,0,10.78-6.93,24.32,1.44c0,0-5.5-2.91-12.04-3.57
						c0.08,0.43,0.76,1.57,5.05,3.63c0,0-4.76-1.63-5.47-3.67C49.12,44.2,44.9,44.71,41.26,47.09z"/>
					<path class="st177" d="M55.77,49.28c0,0-7.89-5.46-16.77-0.24l-0.13-0.42C38.87,48.62,47.29,43.13,55.77,49.28z"/>
				</g>
			</g>
		</g>
		<path class="st176" d="M29.1,57.18c0,0-11.18,13.49-17.58,10.69l0.14-0.69l16.21-10.59L29.1,57.18z"/>
		<path class="st177" d="M44.54,23.2c-0.81,0.36-1.6,0.79-2.37,1.23c-1.42,0.81-2.52,1.89-3.75,2.94c-1.08,0.92-2.32,1.63-3.41,2.52
			c-1.15,0.93-2.21,2-3.13,3.17c0,0-5.76,5.48-8.12,7.09c0,0-12.2,8.57-14.21,12.14c0,0-6.17,5.88-3.72,9.85
			c0,0,3.59,8.02,6.92,8.64c0,0,5.4,1.04,10.21-3.21c0,0,15.89-15.08,17.81-17.68c0,0-10.24,5.22-12.48,7.46
			c0,0-9.31,10.54-15.9,9.54c0,0,9.33-2.6,13.6-8.35c0,0,8.94-8.95,13.75-11.07c0,0,5.75-2.73,8.09-5.91c0,0-4.95,3.79-6.41,4.24
			c0,0,10.97-10.13,14.49-12.1c0,0-7.68,4.88-9.11,6.27c0,0,8.66-7.73,11.49-9.75c0,0-6.43,3.96-7.77,5.45c0,0,6.15-7.41,9.1-7.8
			c0,0-3.32-0.26-5.27,2.99c0,0-3.1,3.11-5.25,3.92c0,0,5.19-5.37,5.14-7.02c0,0-5.23,5.45-6.19,7.29c-2.08,2.1-4.44,4.05-6.98,5.56
			c-2.79,1.66-5.63,3.21-8.38,4.95c-2.77,1.75-5.53,3.57-8.1,5.61c-0.59,0.47-1.18,0.95-1.74,1.47c-0.41,0.38-0.77,0.94-1.2,1.26
			c0,0,10.08-9.98,13.45-17.12c0,0,2.01-7.96,12.45-14.71c0,0-5.35,2.86-6.36,3.91L44.54,23.2z"/>
		<path class="st178" d="M25.55,40.27c0,0-13.9,9.72-15.37,12.42C10.18,52.69,22.19,43.02,25.55,40.27z"/>
		<path class="st178" d="M27.82,61.1c0,0-7.41,9.58-15.88,8.11C11.94,69.21,19.23,72.2,27.82,61.1z"/>
		<path class="st178" d="M35.06,54.33c0,0-7.55,4.37-9.26,7.14C25.8,61.47,31.7,56.59,35.06,54.33z"/>
		<path class="st178" d="M28.34,54.77c0,0-10.19,10.53-16.28,11.28C12.06,66.05,19.7,62.5,28.34,54.77z"/>
		<path class="st178" d="M29.12,42.57c0,0-6.08,10.97-15.16,16.64C13.97,59.21,24.08,51.02,29.12,42.57z"/>
		<path class="st178" d="M35.58,32.4c0,0-1.98,5.56-4.48,9.02C31.1,41.42,34.55,34.19,35.58,32.4z"/>
		<path class="st178" d="M42.29,41.78c0,0-12.76,5.92-18.23,12.01C24.06,53.78,33.22,46.32,42.29,41.78z"/>
		<path class="st178" d="M45.39,41.63c0,0-3.31,4.48-10.07,8.61C35.32,50.24,43.83,43.62,45.39,41.63z"/>
		<path class="st178" d="M46.67,38.93c0,0-14.39,13.55-23.7,17.79C22.98,56.72,39.6,45.6,46.67,38.93z"/>
		<path class="st178" d="M20.62,46.82c0,0-14.48,11.44-14.47,16.42C6.15,63.24,10.28,56.54,20.62,46.82z"/>
		<path class="st178" d="M7.54,66.88c0.77,1.18,1.62,1.98,1.91,1.8c0.28-0.19-0.11-1.29-0.88-2.47c-0.77-1.18-1.62-1.98-1.91-1.8
			C6.38,64.6,6.77,65.7,7.54,66.88z"/>
	</g>
</g>
</svg>
